<?xml version="1.0" encoding="utf-8"?>
<!-- Generator: Adobe Illustrator 21.1.0, SVG Export Plug-In . SVG Version: 6.00 Build 0)  -->
<svg version="1.1"
	 id="svg8" inkscape:export-filename="/home/hquatrem/dev/CEPH125/chap8/clustermaps-clustermaps-manage.png" inkscape:export-xdpi="96" inkscape:export-ydpi="96" inkscape:version="0.92.2 (5c3e80d, 2017-08-06)" sodipodi:docname="clustermaps-clustermaps-manage1.svg" xmlns:cc="http://creativecommons.org/ns#" xmlns:dc="http://purl.org/dc/elements/1.1/" xmlns:inkscape="http://www.inkscape.org/namespaces/inkscape" xmlns:rdf="http://www.w3.org/1999/02/22-rdf-syntax-ns#" xmlns:sodipodi="http://sodipodi.sourceforge.net/DTD/sodipodi-0.dtd" xmlns:svg="http://www.w3.org/2000/svg"
	 xmlns="http://www.w3.org/2000/svg" xmlns:xlink="http://www.w3.org/1999/xlink" x="0px" y="0px" width="709.3px" height="443px"
	 viewBox="0 0 709.3 443" style="enable-background:new 0 0 709.3 443;" xml:space="preserve">
<style type="text/css">
	.st0{fill:#E6E6E6;}
	.st1{fill:#FFFFFF;}
	.st2{fill:#FFFFFF;stroke:#EC7A08;stroke-miterlimit:10;}
	.st3{fill:#4C4C4C;}
	.st4{fill:none;stroke:#4C4C4C;stroke-width:2;stroke-miterlimit:10;}
</style>
<sodipodi:namedview  bordercolor="#666666" borderopacity="1.0" fit-margin-bottom="0" fit-margin-left="0" fit-margin-right="0" fit-margin-top="0" id="base" inkscape:current-layer="layer3" inkscape:cx="508.11875" inkscape:cy="240.90676" inkscape:document-units="mm" inkscape:pageopacity="0.0" inkscape:pageshadow="2" inkscape:window-height="1172" inkscape:window-maximized="1" inkscape:window-width="1920" inkscape:window-x="1920" inkscape:window-y="0" inkscape:zoom="0.98994949" pagecolor="#ffffff" showgrid="false">
	</sodipodi:namedview>
<rect class="st0" width="709.3" height="443"/>
<rect x="45" y="43.1" class="st1" width="248" height="356.9"/>
<rect x="63.7" y="88.3" class="st2" width="210.7" height="41.6"/>
<rect x="398.7" y="159.4" class="st1" width="268.6" height="50.3"/>
<rect x="398.7" y="260" class="st1" width="268.6" height="50.3"/>
<rect x="63.7" y="138.6" class="st2" width="210.7" height="41.6"/>
<rect x="63.7" y="188.9" class="st2" width="210.7" height="41.6"/>
<rect x="63.7" y="239.2" class="st2" width="210.7" height="41.6"/>
<rect x="63.7" y="289.5" class="st2" width="210.7" height="41.6"/>
<rect x="63.7" y="339.8" class="st2" width="210.7" height="41.6"/>
<g>
	<path class="st3" d="M89.3,115.7v-7.4c0-0.8,0-2.1,0-2.5c-0.2,0.4-0.6,1.4-0.9,2.2l-3.4,7.9l-3.4-7.9c-0.3-0.8-0.7-1.8-0.9-2.2
		c0,0.4,0,1.6,0,2.5v7.4h-2v-14H81l3.1,7.5c0.3,0.8,0.8,1.8,1,2.4c0.2-0.6,0.6-1.6,0.9-2.4l3.1-7.5h2.2v14H89.3z"/>
	<path class="st3" d="M98.8,115.9c-2.6,0-4.6-2.2-4.6-5.5c0-3.4,2-5.5,4.7-5.5c2.7,0,4.7,2.1,4.7,5.4
		C103.5,113.9,101.5,115.9,98.8,115.9z M98.8,106.9c-1.6,0-2.5,1.4-2.5,3.5c0,2.3,1.1,3.6,2.6,3.6c1.6,0,2.6-1.6,2.6-3.5
		C101.5,108.3,100.4,106.9,98.8,106.9z"/>
	<path class="st3" d="M112.5,115.7v-5.9c0-2.1-0.8-2.9-2.2-2.9c-1.4,0-2.2,1-2.2,2.7v6.1h-2.1v-10.5h2.1v1c0.5-0.8,1.6-1.2,2.6-1.2
		c2.4,0,3.7,1.6,3.7,4.7v6H112.5z"/>
	<path class="st3" d="M118.6,103.8c-0.7,0-1.3-0.6-1.3-1.3c0-0.7,0.6-1.3,1.3-1.3c0.7,0,1.3,0.6,1.3,1.3
		C119.9,103.2,119.3,103.8,118.6,103.8z M117.6,115.7v-10.5h2.1v10.5H117.6z"/>
	<path class="st3" d="M127.8,115.4c-0.5,0.3-1.2,0.5-2,0.5c-1.5,0-2.4-0.9-2.4-2.8v-6.1h-1.5v-1.9h1.5v-3l2-1.1v4.1h2.6v1.9h-2.6
		v5.7c0,1,0.3,1.3,1.1,1.3c0.5,0,1.1-0.2,1.5-0.4L127.8,115.4z"/>
	<path class="st3" d="M134.6,115.9c-2.6,0-4.6-2.2-4.6-5.5c0-3.4,2-5.5,4.7-5.5c2.7,0,4.7,2.1,4.7,5.4
		C139.3,113.9,137.3,115.9,134.6,115.9z M134.5,106.9c-1.6,0-2.5,1.4-2.5,3.5c0,2.3,1.1,3.6,2.6,3.6s2.6-1.6,2.6-3.5
		C137.2,108.3,136.2,106.9,134.5,106.9z"/>
	<path class="st3" d="M147.5,107.4c-0.4-0.2-0.9-0.4-1.6-0.4c-1.3,0-2.1,0.9-2.1,2.7v6h-2.1v-10.5h2.1v1c0.5-0.7,1.4-1.2,2.4-1.2
		c0.8,0,1.4,0.2,1.8,0.4L147.5,107.4z"/>
	<path class="st3" d="M166.4,115.7v-7.4c0-0.8,0-2.1,0-2.5c-0.2,0.4-0.6,1.4-0.9,2.2l-3.4,7.9l-3.4-7.9c-0.3-0.8-0.7-1.8-0.9-2.2
		c0,0.4,0,1.6,0,2.5v7.4h-2v-14h2.2l3.1,7.5c0.3,0.8,0.8,1.8,1,2.4c0.2-0.6,0.6-1.6,0.9-2.4l3.1-7.5h2.2v14H166.4z"/>
	<path class="st3" d="M177.8,115.7v-1c-0.7,0.7-1.7,1.3-2.9,1.3c-1.7,0-3.6-1-3.6-3.5c0-2.3,1.8-3.4,4.2-3.4c1,0,1.8,0.1,2.3,0.4
		v-0.8c0-1.1-0.7-1.8-2-1.8c-1.1,0-1.9,0.2-2.7,0.7l-0.8-1.6c1-0.6,2.1-0.9,3.6-0.9c2.3,0,3.9,1.1,3.9,3.5v7.2H177.8z M177.8,111.2
		c-0.6-0.3-1.3-0.5-2.4-0.5c-1.3,0-2.2,0.6-2.2,1.6c0,1,0.7,1.7,2,1.7c1.1,0,2.1-0.7,2.5-1.3V111.2z"/>
	<path class="st3" d="M187.4,115.9c-1.1,0-2.1-0.6-2.6-1.2v3.8l-2,1.1v-14.4h2v1c0.8-0.7,1.6-1.2,2.7-1.2c2.3,0,4,1.6,4,5.6
		C191.6,114.2,189.6,115.9,187.4,115.9z M187.2,106.9c-1,0-1.8,0.7-2.4,1.3v4.4c0.5,0.6,1.4,1.4,2.5,1.4c1.5,0,2.3-1.1,2.3-3.3
		C189.5,108,188.7,106.9,187.2,106.9z"/>
</g>
<g>
	<path class="st3" d="M75.8,70.7v-5.1c0-0.8,0-2.5,0-3.1c-0.2,0.5-0.6,1.5-1,2.3L72,71l-2.8-6.2c-0.4-0.8-0.8-1.8-1-2.3
		c0,0.5,0,2.3,0,3.1v5.1h-2.7v-14h2.7l2.9,6.3c0.4,0.8,0.8,1.8,1,2.3c0.2-0.5,0.6-1.5,0.9-2.3l2.8-6.3h2.8v14H75.8z"/>
	<path class="st3" d="M87.5,70.9c-3.8,0-6.1-3-6.1-7.2s2.3-7.2,6.1-7.2s6.1,3,6.1,7.2S91.3,70.9,87.5,70.9z M87.5,59.3
		c-2.3,0-3.2,1.9-3.2,4.4s0.9,4.4,3.2,4.4c2.3,0,3.2-1.9,3.2-4.4S89.8,59.3,87.5,59.3z"/>
	<path class="st3" d="M105.3,70.7l-5.1-7.6c-0.3-0.5-0.8-1.2-1-1.6c0,0.5,0,2.3,0,3.1v6.2h-2.8v-14h2.7l5,7.4c0.3,0.5,0.8,1.2,1,1.6
		c0-0.5,0-2.3,0-3.1v-5.9h2.8v14H105.3z"/>
	<path class="st3" d="M111.6,70.7v-14h2.8v14H111.6z"/>
	<path class="st3" d="M124.1,59.5v11.2h-2.8V59.5h-4v-2.8h10.8v2.8H124.1z"/>
	<path class="st3" d="M135.5,70.9c-3.8,0-6.1-3-6.1-7.2s2.3-7.2,6.1-7.2s6.1,3,6.1,7.2S139.3,70.9,135.5,70.9z M135.5,59.3
		c-2.3,0-3.2,1.9-3.2,4.4s0.9,4.4,3.2,4.4c2.3,0,3.2-1.9,3.2-4.4S137.7,59.3,135.5,59.3z"/>
	<path class="st3" d="M152.5,70.7l-2.5-5h-2.8v5h-2.8v-14h6.5c2.6,0,4.8,1.5,4.8,4.4c0,2.1-0.9,3.4-2.7,4.1l2.7,5.4H152.5z
		 M150.9,59.4h-3.7V63h3.7c1.3,0,2-0.6,2-1.8C152.9,59.9,152.1,59.4,150.9,59.4z"/>
</g>
<g>
	<path class="st3" d="M423.7,186.2h-3.1v5h-2.8v-14h6.1c2.6,0,4.8,1.5,4.8,4.4C428.7,184.8,426.6,186.2,423.7,186.2z M423.8,179.9
		h-3.2v3.6h3.3c1.3,0,2-0.6,2-1.8S425.1,179.9,423.8,179.9z"/>
	<path class="st3" d="M439.2,191.1l-1.1-3.1H433l-1.1,3.1h-3l5.4-14h2.7l5.3,14H439.2z M436.3,182.8c-0.3-0.8-0.6-1.7-0.7-2.2
		c-0.1,0.5-0.4,1.4-0.7,2.2l-0.9,2.5h3.2L436.3,182.8z"/>
	<path class="st3" d="M452.9,191.1l-1.3-2.1c-0.5-0.8-1.3-2.2-1.5-2.7c-0.2,0.5-1,1.9-1.5,2.7l-1.3,2.1H444l4.4-7.2l-4.2-6.8h3.3
		l1.1,1.8c0.5,0.8,1.3,2.2,1.5,2.7c0.3-0.5,1-1.9,1.5-2.7l1.1-1.8h3.3l-4.3,6.8l4.5,7.2H452.9z"/>
	<path class="st3" d="M463.5,191.4c-3.8,0-6.1-3-6.1-7.2s2.3-7.2,6.1-7.2s6.1,3,6.1,7.2S467.3,191.4,463.5,191.4z M463.5,179.7
		c-2.3,0-3.2,1.9-3.2,4.4s0.9,4.4,3.2,4.4s3.2-1.9,3.2-4.4S465.8,179.7,463.5,179.7z"/>
	<path class="st3" d="M476.9,191.4c-2.3,0-4.4-1-5.4-2.5l2-1.8c1,1.1,2.2,1.6,3.6,1.6c1.7,0,2.4-0.5,2.4-1.5c0-0.9-0.5-1.3-3.1-1.9
		c-2.6-0.6-4.4-1.4-4.4-4.2c0-2.5,2.2-4.1,5-4.1c2.2,0,3.8,0.8,5.1,2.2l-2,2c-0.9-0.9-1.9-1.4-3.2-1.4c-1.5,0-2,0.6-2,1.3
		c0,0.9,0.6,1.2,2.8,1.7c2.2,0.5,4.7,1.3,4.7,4.3C482.4,189.6,480.7,191.4,476.9,191.4z"/>
</g>
<g>
	<path class="st3" d="M426.6,291.7l-3.8-6.8l-2.2,2.6v4.1h-2.8v-14h2.8v4c0,0.5,0,1.8,0,2.2c0.2-0.3,0.7-1,1.1-1.4l3.9-4.8h3.4
		l-4.1,4.8l5.1,9.2H426.6z"/>
	<path class="st3" d="M432.2,291.7v-14h9.7v2.7H435v2.4h4v2.7h-4v3.4h7.2v2.7H432.2z"/>
	<path class="st3" d="M451.5,286.2v5.5h-2.8v-5.5l-5.3-8.5h3.2l2,3.3c0.5,0.8,1.3,2.2,1.5,2.7c0.3-0.5,1-1.9,1.5-2.7l2-3.3h3.2
		L451.5,286.2z"/>
	<path class="st3" d="M457,293.5h-2.7l6.5-17.6h2.7L457,293.5z"/>
	<path class="st3" d="M472.1,291.7h-2.7l-5-14h3.1l2.6,8.1c0.3,0.8,0.5,1.8,0.7,2.3c0.1-0.5,0.4-1.5,0.6-2.3l2.6-8.1h3.1
		L472.1,291.7z"/>
	<path class="st3" d="M486.7,291.7l-1.1-3.1h-5.1l-1.1,3.1h-3l5.4-14h2.7l5.3,14H486.7z M483.8,283.4c-0.3-0.8-0.6-1.7-0.7-2.2
		c-0.1,0.5-0.4,1.4-0.7,2.2l-0.9,2.5h3.2L483.8,283.4z"/>
	<path class="st3" d="M492.4,291.7v-14h2.8v11.2h7v2.8H492.4z"/>
	<path class="st3" d="M509.6,291.9c-3.4,0-5.7-2.3-5.7-6.4v-7.9h2.8v7.8c0,2.2,1.1,3.7,2.9,3.7s2.9-1.4,2.9-3.6v-7.9h2.8v7.8
		C515.3,289.6,513.2,291.9,509.6,291.9z"/>
	<path class="st3" d="M518.8,291.7v-14h9.7v2.7h-6.9v2.4h4v2.7h-4v3.4h7.2v2.7H518.8z"/>
	<path class="st3" d="M542.4,291.9c-2.3,0-4.4-1-5.4-2.5l2-1.8c1,1.1,2.2,1.6,3.6,1.6c1.7,0,2.4-0.5,2.4-1.5c0-0.9-0.5-1.3-3.1-1.9
		c-2.6-0.6-4.4-1.4-4.4-4.2c0-2.5,2.2-4.1,5-4.1c2.2,0,3.8,0.8,5.1,2.2l-2,2c-0.9-0.9-1.9-1.4-3.2-1.4c-1.5,0-2,0.6-2,1.3
		c0,0.9,0.6,1.2,2.8,1.7c2.2,0.5,4.7,1.3,4.7,4.3C547.9,290.1,546.2,291.9,542.4,291.9z"/>
	<path class="st3" d="M556.2,280.5v11.2h-2.8v-11.2h-4v-2.8h10.8v2.8H556.2z"/>
	<path class="st3" d="M567.6,291.9c-3.8,0-6.1-3-6.1-7.2s2.3-7.2,6.1-7.2s6.1,3,6.1,7.2S571.4,291.9,567.6,291.9z M567.6,280.3
		c-2.3,0-3.2,1.9-3.2,4.4c0,2.5,0.9,4.4,3.2,4.4c2.3,0,3.2-1.9,3.2-4.4C570.8,282.2,569.9,280.3,567.6,280.3z"/>
	<path class="st3" d="M584.7,291.7l-2.5-5h-2.8v5h-2.8v-14h6.5c2.6,0,4.8,1.5,4.8,4.4c0,2.1-0.9,3.4-2.7,4.1l2.7,5.4H584.7z
		 M583,280.4h-3.7v3.6h3.7c1.3,0,2-0.6,2-1.8C585,280.9,584.3,280.4,583,280.4z"/>
	<path class="st3" d="M590.8,291.7v-14h9.7v2.7h-6.9v2.4h4v2.7h-4v3.4h7.2v2.7H590.8z"/>
</g>
<g>
	<path class="st3" d="M84.1,166.2c-3.6,0-5.9-3-5.9-7.2s2.3-7.2,5.9-7.2c3.6,0,5.9,3,5.9,7.2S87.7,166.2,84.1,166.2z M84.1,153.9
		c-2.4,0-3.8,2-3.8,5.1s1.3,5.1,3.8,5.1c2.5,0,3.8-2,3.8-5.1S86.5,153.9,84.1,153.9z"/>
	<path class="st3" d="M96.9,166.2c-2,0-3.8-0.9-5-2.3l1.5-1.5c0.9,1,2.3,1.7,3.6,1.7c2,0,2.9-0.7,2.9-2c0-1.1-0.8-1.6-3.2-2.3
		c-3-0.9-4.4-1.6-4.4-4.1c0-2.4,2-3.9,4.6-3.9c1.9,0,3.3,0.7,4.6,1.9l-1.5,1.5c-0.9-0.9-1.9-1.3-3.3-1.3c-1.6,0-2.3,0.8-2.3,1.7
		c0,1,0.6,1.5,3.1,2.2c2.8,0.8,4.5,1.7,4.5,4.2C102.1,164.5,100.5,166.2,96.9,166.2z"/>
	<path class="st3" d="M109,166h-3.8v-14h3.8c3.8,0,6.8,2.1,6.8,7S112.7,166,109,166z M109,154h-1.7v9.9h1.7c3.3,0,4.7-2,4.7-5
		S112.4,154,109,154z"/>
	<path class="st3" d="M134.7,166v-7.4c0-0.8,0-2.1,0-2.5c-0.2,0.4-0.6,1.4-0.9,2.2l-3.4,7.9l-3.4-7.9c-0.3-0.8-0.7-1.8-0.9-2.2
		c0,0.4,0,1.6,0,2.5v7.4h-2v-14h2.2l3.1,7.5c0.3,0.8,0.8,1.8,1,2.4c0.2-0.6,0.6-1.6,0.9-2.4l3.1-7.5h2.2v14H134.7z"/>
	<path class="st3" d="M146.1,166v-1c-0.7,0.7-1.7,1.3-2.9,1.3c-1.7,0-3.6-1-3.6-3.5c0-2.3,1.8-3.4,4.2-3.4c1,0,1.8,0.1,2.3,0.4v-0.8
		c0-1.1-0.7-1.8-2-1.8c-1.1,0-1.9,0.2-2.7,0.7l-0.8-1.6c1-0.6,2.1-0.9,3.6-0.9c2.3,0,3.9,1.1,3.9,3.5v7.2H146.1z M146.1,161.5
		c-0.6-0.3-1.3-0.5-2.4-0.5c-1.3,0-2.2,0.6-2.2,1.6c0,1,0.7,1.7,2,1.7c1.1,0,2.1-0.7,2.5-1.3V161.5z"/>
	<path class="st3" d="M155.7,166.2c-1.1,0-2.1-0.6-2.6-1.2v3.8l-2,1.1v-14.4h2v1c0.8-0.7,1.6-1.2,2.7-1.2c2.3,0,4,1.6,4,5.6
		C159.9,164.5,157.9,166.2,155.7,166.2z M155.5,157.2c-1,0-1.8,0.7-2.4,1.3v4.4c0.5,0.6,1.4,1.4,2.5,1.4c1.5,0,2.3-1.1,2.3-3.3
		C157.8,158.3,157,157.2,155.5,157.2z"/>
</g>
<g>
	<path class="st3" d="M84.5,211.1h-3.7v5.2h-2.1v-14h5.9c2.6,0,4.5,1.5,4.5,4.4C89.2,209.5,87.3,211.1,84.5,211.1z M84.6,204.3h-3.8
		v4.8h3.8c1.6,0,2.4-0.9,2.4-2.4C87,205.1,86.1,204.3,84.6,204.3z"/>
	<path class="st3" d="M97.1,216.5c-3.6,0-5.9-3-5.9-7.2s2.3-7.2,5.9-7.2c2.3,0,3.8,0.9,4.8,2.6l-1.8,1.1c-0.7-1.1-1.5-1.7-2.9-1.7
		c-2.4,0-3.8,2-3.8,5.1s1.3,5.1,3.8,5.1c2.3,0,3.2-1.5,3.2-3.1v-0.1H98v-2h4.4v1.6C102.5,214.4,100.3,216.5,97.1,216.5z"/>
	<path class="st3" d="M121.3,216.3v-7.4c0-0.8,0-2.1,0-2.5c-0.2,0.4-0.6,1.4-0.9,2.2l-3.4,7.9l-3.4-7.9c-0.3-0.8-0.7-1.8-0.9-2.2
		c0,0.4,0,1.6,0,2.5v7.4h-2v-14h2.2l3.1,7.5c0.3,0.8,0.8,1.8,1,2.4c0.2-0.6,0.6-1.6,0.9-2.4l3.1-7.5h2.2v14H121.3z"/>
	<path class="st3" d="M132.7,216.3v-1c-0.7,0.7-1.7,1.3-2.9,1.3c-1.7,0-3.6-1-3.6-3.5c0-2.3,1.8-3.4,4.2-3.4c1,0,1.8,0.1,2.3,0.4
		v-0.8c0-1.1-0.7-1.8-2-1.8c-1.1,0-1.9,0.2-2.7,0.7l-0.8-1.6c1-0.6,2.1-0.9,3.6-0.9c2.3,0,3.9,1.1,3.9,3.5v7.2H132.7z M132.7,211.8
		c-0.6-0.3-1.3-0.5-2.4-0.5c-1.3,0-2.2,0.6-2.2,1.6c0,1,0.7,1.7,2,1.7c1.1,0,2.1-0.7,2.5-1.3V211.8z"/>
	<path class="st3" d="M142.4,216.5c-1.1,0-2.1-0.6-2.6-1.2v3.8l-2,1.1v-14.4h2v1c0.8-0.7,1.6-1.2,2.7-1.2c2.3,0,4,1.6,4,5.6
		C146.5,214.8,144.6,216.5,142.4,216.5z M142.1,207.5c-1,0-1.8,0.7-2.4,1.3v4.4c0.5,0.6,1.4,1.4,2.5,1.4c1.5,0,2.3-1.1,2.3-3.3
		C144.5,208.6,143.6,207.5,142.1,207.5z"/>
</g>
<g>
	<path class="st3" d="M89.3,266.6v-7.4c0-0.8,0-2.1,0-2.5c-0.2,0.4-0.6,1.4-0.9,2.2l-3.4,7.9l-3.4-7.9c-0.3-0.8-0.7-1.8-0.9-2.2
		c0,0.4,0,1.6,0,2.5v7.4h-2v-14H81l3.1,7.5c0.3,0.8,0.8,1.8,1,2.4c0.2-0.6,0.6-1.6,0.9-2.4l3.1-7.5h2.2v14H89.3z"/>
	<path class="st3" d="M98.8,266.6H95v-14h3.8c3.8,0,6.8,2.1,6.8,7C105.6,264.5,102.5,266.6,98.8,266.6z M98.8,254.6h-1.7v9.9h1.7
		c3.3,0,4.7-2,4.7-5S102.1,254.6,98.8,254.6z"/>
	<path class="st3" d="M112.6,266.8c-2,0-3.8-0.9-5-2.3l1.5-1.5c0.9,1,2.3,1.7,3.6,1.7c2,0,2.9-0.7,2.9-2c0-1.1-0.8-1.6-3.2-2.3
		c-3-0.9-4.4-1.6-4.4-4.1c0-2.4,2-3.9,4.6-3.9c1.9,0,3.3,0.7,4.6,1.9l-1.5,1.5c-0.9-0.9-1.9-1.3-3.3-1.3c-1.6,0-2.3,0.8-2.3,1.7
		c0,1,0.6,1.5,3.1,2.2c2.8,0.8,4.5,1.7,4.5,4.2C117.7,265.1,116.1,266.8,112.6,266.8z"/>
	<path class="st3" d="M136.7,266.6v-7.4c0-0.8,0-2.1,0-2.5c-0.2,0.4-0.6,1.4-0.9,2.2l-3.4,7.9l-3.4-7.9c-0.3-0.8-0.7-1.8-0.9-2.2
		c0,0.4,0,1.6,0,2.5v7.4h-2v-14h2.2l3.1,7.5c0.3,0.8,0.8,1.8,1,2.4c0.2-0.6,0.6-1.6,0.9-2.4l3.1-7.5h2.2v14H136.7z"/>
	<path class="st3" d="M148.2,266.6v-1c-0.7,0.7-1.7,1.3-2.9,1.3c-1.7,0-3.6-1-3.6-3.5c0-2.3,1.8-3.4,4.2-3.4c1,0,1.8,0.1,2.3,0.4
		v-0.8c0-1.1-0.7-1.8-2-1.8c-1.1,0-1.9,0.2-2.7,0.7l-0.8-1.6c1-0.6,2.1-0.9,3.6-0.9c2.3,0,3.9,1.1,3.9,3.5v7.2H148.2z M148.2,262.1
		c-0.6-0.3-1.3-0.5-2.4-0.5c-1.3,0-2.2,0.6-2.2,1.6c0,1,0.7,1.7,2,1.7c1.1,0,2.1-0.7,2.5-1.3V262.1z"/>
	<path class="st3" d="M157.8,266.8c-1.1,0-2.1-0.6-2.6-1.2v3.8l-2,1.1v-14.4h2v1c0.8-0.7,1.6-1.2,2.7-1.2c2.3,0,4,1.6,4,5.6
		C162,265.1,160,266.8,157.8,266.8z M157.5,257.7c-1,0-1.8,0.7-2.4,1.3v4.4c0.5,0.6,1.4,1.4,2.5,1.4c1.5,0,2.3-1.1,2.3-3.3
		C159.9,258.9,159.1,257.7,157.5,257.7z"/>
</g>
<g>
	<path class="st3" d="M558.1,239.2h-1.9l-2-8.1c-0.1-0.4-0.3-1.4-0.4-1.7c-0.1,0.3-0.3,1.2-0.4,1.7l-2.1,8.1h-1.9l-2.6-12.6h1.9
		l1.5,8c0.1,0.4,0.2,1.2,0.3,1.7c0.1-0.4,0.3-1.3,0.3-1.6l2-8h1.6l2.1,8.2c0.1,0.3,0.2,1,0.3,1.5c0.1-0.5,0.2-1.2,0.3-1.5l1.5-8.1
		h1.8L558.1,239.2z"/>
	<path class="st3" d="M567.5,231.7c-0.4-0.2-0.8-0.3-1.4-0.3c-1.2,0-1.9,0.8-1.9,2.4v5.4h-1.9v-9.5h1.9v0.9c0.4-0.6,1.2-1.1,2.2-1.1
		c0.8,0,1.2,0.1,1.6,0.4L567.5,231.7z"/>
	<path class="st3" d="M570.9,228.5c-0.7,0-1.2-0.5-1.2-1.2c0-0.7,0.5-1.2,1.2-1.2c0.6,0,1.2,0.5,1.2,1.2
		C572.1,228,571.6,228.5,570.9,228.5z M570,239.2v-9.5h1.9v9.5H570z"/>
	<path class="st3" d="M579.2,239c-0.5,0.3-1.1,0.4-1.8,0.4c-1.3,0-2.1-0.8-2.1-2.5v-5.5h-1.4v-1.7h1.4v-2.7l1.8-1v3.7h2.3v1.7h-2.3
		v5.1c0,0.9,0.3,1.1,1,1.1c0.5,0,1-0.2,1.4-0.4L579.2,239z"/>
	<path class="st3" d="M589.2,235.1h-6.2c0.2,1.8,1.2,2.6,2.4,2.6c0.8,0,1.4-0.3,2.1-0.8l1.1,1.2c-0.8,0.8-1.8,1.2-3.3,1.2
		c-2.2,0-4.1-1.8-4.1-4.9c0-3.2,1.7-4.9,4.1-4.9c2.7,0,4,2.2,4,4.7C589.2,234.6,589.2,234.9,589.2,235.1z M585.1,231.2
		c-1.2,0-2,0.9-2.2,2.4h4.4C587.3,232.3,586.6,231.2,585.1,231.2z"/>
	<path class="st3" d="M602.3,232.5c-0.8-0.8-1.5-1.2-2.3-1.2c-1.3,0-2.2,1.2-2.2,3.1c0,1.9,0.8,3.2,2.3,3.2c0.9,0,1.4-0.4,2.1-1.2
		l1.2,1.2c-0.7,0.9-1.7,1.8-3.4,1.8c-2.3,0-4.1-1.9-4.1-4.9c0-3.1,1.8-5,4.1-5c1.4,0,2.5,0.6,3.3,1.6L602.3,232.5z"/>
	<path class="st3" d="M611.5,239.2v-5.3c0-1.9-0.7-2.6-1.9-2.6c-1.2,0-1.9,0.9-1.9,2.4v5.5h-1.9v-12.2l1.9-1v4.6
		c0.5-0.7,1.4-1.1,2.4-1.1c2.2,0,3.4,1.4,3.4,4.2v5.4H611.5z"/>
	<path class="st3" d="M621.5,239.2v-0.9c-0.6,0.6-1.6,1.1-2.6,1.1c-1.5,0-3.3-0.9-3.3-3.2c0-2.1,1.6-3.1,3.8-3.1
		c0.9,0,1.6,0.1,2.1,0.4v-0.7c0-1-0.6-1.6-1.8-1.6c-1,0-1.7,0.2-2.5,0.6l-0.7-1.4c0.9-0.6,1.9-0.8,3.2-0.8c2.1,0,3.5,1,3.5,3.2v6.5
		H621.5z M621.5,235.2c-0.5-0.3-1.2-0.4-2.2-0.4c-1.2,0-1.9,0.5-1.9,1.4c0,0.9,0.6,1.6,1.8,1.6c1,0,1.9-0.6,2.3-1.2V235.2z"/>
	<path class="st3" d="M631.7,239.2v-5.3c0-1.9-0.7-2.6-1.9-2.6c-1.2,0-1.9,0.9-1.9,2.4v5.5h-1.9v-9.5h1.9v0.9
		c0.5-0.7,1.4-1.1,2.4-1.1c2.2,0,3.4,1.4,3.4,4.2v5.4H631.7z"/>
	<path class="st3" d="M639.3,242.7l-0.6-1.4c2.7-0.1,3.2-0.8,3.2-2.8v-0.2c-0.7,0.6-1.5,1.1-2.4,1.1c-2,0-3.6-1.5-3.6-5.1
		c0-3.2,1.8-4.8,3.7-4.8c1,0,1.9,0.5,2.4,1.1v-0.9h1.9v8.6C643.7,241.2,642.7,242.6,639.3,242.7z M641.9,232.5
		c-0.4-0.6-1.3-1.2-2.2-1.2c-1.3,0-2.1,1-2.1,3c0,2.4,0.8,3.4,2.1,3.4c0.9,0,1.7-0.6,2.1-1.2V232.5z"/>
	<path class="st3" d="M654.1,235.1h-6.2c0.2,1.8,1.2,2.6,2.4,2.6c0.8,0,1.4-0.3,2.1-0.8l1.1,1.2c-0.8,0.8-1.8,1.2-3.3,1.2
		c-2.2,0-4.1-1.8-4.1-4.9c0-3.2,1.7-4.9,4.1-4.9c2.7,0,4,2.2,4,4.7C654.1,234.6,654.1,234.9,654.1,235.1z M650,231.2
		c-1.2,0-2,0.9-2.2,2.4h4.4C652.2,232.3,651.6,231.2,650,231.2z"/>
	<path class="st3" d="M659.3,239.4c-1.3,0-2.7-0.5-3.6-1.2l0.8-1.4c0.9,0.6,1.9,0.9,2.8,0.9c1.2,0,1.7-0.4,1.7-1
		c0-0.7-0.8-1.1-2.2-1.6c-2-0.8-2.8-1.5-2.8-3c0-1.7,1.3-2.6,3.2-2.6c1.2,0,2.4,0.4,3.2,1l-0.8,1.4c-0.8-0.5-1.5-0.8-2.4-0.8
		s-1.3,0.4-1.3,0.9c0,0.5,0.3,0.8,1.7,1.4c2.1,0.8,3.2,1.4,3.2,3.2C662.9,238.7,661.2,239.4,659.3,239.4z"/>
</g>
<g>
	<path class="st3" d="M366.1,99.9h-1.9l-2-8.1c-0.1-0.4-0.3-1.4-0.4-1.7c-0.1,0.3-0.3,1.2-0.4,1.7l-2.1,8.1h-1.9L355,87.3h1.9l1.5,8
		c0.1,0.4,0.2,1.2,0.3,1.7c0.1-0.4,0.3-1.3,0.3-1.6l2-8h1.6l2.1,8.2c0.1,0.3,0.2,1,0.3,1.5c0.1-0.5,0.2-1.2,0.3-1.5l1.5-8.1h1.8
		L366.1,99.9z"/>
	<path class="st3" d="M375.5,92.4c-0.4-0.2-0.8-0.3-1.4-0.3c-1.2,0-1.9,0.8-1.9,2.4v5.4h-1.9v-9.5h1.9v0.9c0.4-0.6,1.2-1.1,2.2-1.1
		c0.8,0,1.2,0.1,1.6,0.4L375.5,92.4z"/>
	<path class="st3" d="M379,89.2c-0.7,0-1.2-0.5-1.2-1.2c0-0.7,0.5-1.2,1.2-1.2c0.6,0,1.2,0.5,1.2,1.2
		C380.1,88.6,379.6,89.2,379,89.2z M378,99.9v-9.5h1.9v9.5H378z"/>
	<path class="st3" d="M387.2,99.6c-0.5,0.3-1.1,0.4-1.8,0.4c-1.3,0-2.1-0.8-2.1-2.5v-5.5h-1.3v-1.7h1.3v-2.7l1.8-1v3.7h2.3v1.7h-2.3
		v5.1c0,0.9,0.3,1.1,1,1.1c0.5,0,1-0.2,1.4-0.4L387.2,99.6z"/>
	<path class="st3" d="M397.2,95.8H391c0.2,1.8,1.2,2.6,2.4,2.6c0.8,0,1.4-0.3,2.1-0.8l1.1,1.2c-0.8,0.8-1.8,1.2-3.3,1.2
		c-2.2,0-4.1-1.8-4.1-4.9c0-3.2,1.7-4.9,4.1-4.9c2.7,0,4,2.2,4,4.7C397.3,95.3,397.2,95.6,397.2,95.8z M393.2,91.9
		c-1.2,0-2,0.9-2.2,2.4h4.4C395.3,93,394.7,91.9,393.2,91.9z"/>
	<path class="st3" d="M410.4,93.1c-0.8-0.8-1.5-1.2-2.3-1.2c-1.4,0-2.2,1.2-2.2,3.1c0,1.9,0.8,3.2,2.3,3.2c0.9,0,1.4-0.4,2.1-1.2
		l1.2,1.2c-0.7,0.9-1.7,1.8-3.4,1.8c-2.3,0-4.1-1.9-4.1-4.9c0-3.1,1.8-5,4.1-5c1.4,0,2.5,0.6,3.3,1.6L410.4,93.1z"/>
	<path class="st3" d="M419.6,99.9v-5.3c0-1.9-0.7-2.6-1.9-2.6c-1.2,0-1.9,0.9-1.9,2.4v5.5h-1.9V87.7l1.9-1v4.6
		c0.5-0.7,1.4-1.1,2.4-1.1c2.2,0,3.4,1.4,3.4,4.2v5.4H419.6z"/>
	<path class="st3" d="M429.5,99.9v-0.9c-0.6,0.6-1.6,1.1-2.6,1.1c-1.5,0-3.3-0.9-3.3-3.2c0-2.1,1.6-3.1,3.8-3.1
		c0.9,0,1.6,0.1,2.1,0.4v-0.7c0-1-0.6-1.6-1.8-1.6c-1,0-1.7,0.2-2.5,0.6l-0.7-1.4c0.9-0.6,1.9-0.8,3.2-0.8c2.1,0,3.5,1,3.5,3.2v6.5
		H429.5z M429.5,95.8c-0.5-0.3-1.2-0.4-2.2-0.4c-1.2,0-1.9,0.5-1.9,1.4c0,0.9,0.6,1.6,1.8,1.6c1,0,1.9-0.6,2.3-1.2V95.8z"/>
	<path class="st3" d="M439.7,99.9v-5.3c0-1.9-0.7-2.6-1.9-2.6c-1.2,0-1.9,0.9-1.9,2.4v5.5H434v-9.5h1.9v0.9c0.5-0.7,1.4-1.1,2.4-1.1
		c2.2,0,3.4,1.4,3.4,4.2v5.4H439.7z"/>
	<path class="st3" d="M447.3,103.3l-0.6-1.4c2.7-0.1,3.2-0.8,3.2-2.8V99c-0.7,0.6-1.5,1.1-2.4,1.1c-2,0-3.6-1.5-3.6-5.1
		c0-3.2,1.8-4.8,3.7-4.8c1,0,1.9,0.5,2.4,1.1v-0.9h1.9V99C451.8,101.8,450.7,103.2,447.3,103.3z M449.9,93.2
		c-0.4-0.6-1.3-1.2-2.2-1.2c-1.3,0-2.1,1-2.1,3c0,2.4,0.8,3.4,2.1,3.4c0.9,0,1.7-0.6,2.1-1.2V93.2z"/>
	<path class="st3" d="M462.1,95.8h-6.2c0.2,1.8,1.2,2.6,2.4,2.6c0.8,0,1.4-0.3,2.1-0.8l1.1,1.2c-0.8,0.8-1.8,1.2-3.3,1.2
		c-2.2,0-4.1-1.8-4.1-4.9c0-3.2,1.7-4.9,4.1-4.9c2.7,0,4,2.2,4,4.7C462.2,95.3,462.1,95.6,462.1,95.8z M458.1,91.9
		c-1.2,0-2,0.9-2.2,2.4h4.4C460.2,93,459.6,91.9,458.1,91.9z"/>
	<path class="st3" d="M467.4,100.1c-1.3,0-2.7-0.5-3.6-1.2l0.8-1.4c0.9,0.6,1.9,0.9,2.8,0.9c1.2,0,1.7-0.4,1.7-1
		c0-0.7-0.8-1.1-2.2-1.6c-2-0.8-2.8-1.5-2.8-3c0-1.7,1.3-2.6,3.2-2.6c1.2,0,2.4,0.4,3.2,1l-0.8,1.4c-0.8-0.5-1.5-0.8-2.4-0.8
		s-1.3,0.4-1.3,0.9c0,0.5,0.3,0.8,1.7,1.4c2.1,0.8,3.2,1.4,3.2,3.2C470.9,99.4,469.2,100.1,467.4,100.1z"/>
</g>
<g>
	<path class="st3" d="M400.4,376.2l2.6,5.1h-2.2l-2.5-5h-2.8v5h-1.9v-12.6h5.5c2.2,0,4.1,1.2,4.1,3.8
		C403.2,374.5,402.1,375.8,400.4,376.2z M399.1,370.5h-3.7v4.1h3.7c1.3,0,2.1-0.6,2.1-2C401.3,371.2,400.4,370.5,399.1,370.5z"/>
	<path class="st3" d="M413,377.3h-6.2c0.2,1.8,1.2,2.6,2.4,2.6c0.8,0,1.4-0.3,2.1-0.8l1.1,1.2c-0.8,0.8-1.8,1.2-3.3,1.2
		c-2.2,0-4.1-1.8-4.1-4.9c0-3.2,1.7-4.9,4.1-4.9c2.7,0,4,2.2,4,4.7C413,376.8,413,377.1,413,377.3z M408.9,373.4
		c-1.2,0-2,0.9-2.2,2.4h4.4C411.1,374.5,410.5,373.4,408.9,373.4z"/>
	<path class="st3" d="M420.6,381.4v-0.9c-0.6,0.6-1.6,1.1-2.6,1.1c-1.5,0-3.3-0.9-3.3-3.2c0-2.1,1.6-3.1,3.8-3.1
		c0.9,0,1.6,0.1,2.1,0.4V375c0-1-0.6-1.6-1.8-1.6c-1,0-1.7,0.2-2.5,0.6l-0.7-1.4c0.9-0.6,1.9-0.8,3.2-0.8c2.1,0,3.5,1,3.5,3.2v6.5
		H420.6z M420.6,377.3c-0.5-0.3-1.2-0.4-2.2-0.4c-1.2,0-1.9,0.5-1.9,1.4c0,0.9,0.6,1.6,1.8,1.6c1,0,1.9-0.6,2.3-1.2V377.3z"/>
	<path class="st3" d="M430.8,381.4v-0.9c-0.7,0.6-1.5,1.1-2.5,1.1c-2,0-3.6-1.5-3.6-5.1c0-3.2,1.8-4.8,3.7-4.8c1,0,1.9,0.5,2.4,1.1
		v-3.6l1.8-1v13.1H430.8z M430.8,374.7c-0.4-0.6-1.3-1.2-2.2-1.2c-1.3,0-2.1,1-2.1,3c0,2.4,0.8,3.4,2.1,3.4c0.9,0,1.7-0.6,2.1-1.2
		V374.7z"/>
</g>
<g>
	<path class="st3" d="M89.3,316.9v-7.4c0-0.8,0-2.1,0-2.5c-0.2,0.4-0.6,1.4-0.9,2.2l-3.4,7.9l-3.4-7.9c-0.3-0.8-0.7-1.8-0.9-2.2
		c0,0.4,0,1.6,0,2.5v7.4h-2v-14H81l3.1,7.5c0.3,0.8,0.8,1.8,1,2.4c0.2-0.6,0.6-1.6,0.9-2.4l3.1-7.5h2.2v14H89.3z"/>
	<path class="st3" d="M100.2,317.1c-3.6,0-5.9-3-5.9-7.2c0-4.2,2.3-7.2,5.9-7.2c2.3,0,3.8,0.9,4.8,2.6l-1.8,1.1
		c-0.7-1.1-1.5-1.7-2.9-1.7c-2.4,0-3.8,2-3.8,5.1s1.3,5.1,3.8,5.1c2.3,0,3.2-1.5,3.2-3.1v-0.1h-2.3v-2h4.4v1.6
		C105.6,315,103.4,317.1,100.2,317.1z"/>
	<path class="st3" d="M116.1,311.1l2.9,5.7h-2.4l-2.8-5.5h-3.2v5.5h-2.1v-14h6.1c2.4,0,4.5,1.3,4.5,4.2
		C119.2,309.3,118,310.6,116.1,311.1z M114.7,304.8h-4.1v4.5h4.1c1.4,0,2.4-0.7,2.4-2.2C117.1,305.6,116.1,304.8,114.7,304.8z"/>
	<path class="st3" d="M138.3,316.9v-7.4c0-0.8,0-2.1,0-2.5c-0.2,0.4-0.6,1.4-0.9,2.2l-3.4,7.9l-3.4-7.9c-0.3-0.8-0.7-1.8-0.9-2.2
		c0,0.4,0,1.6,0,2.5v7.4h-2v-14h2.2l3.1,7.5c0.3,0.8,0.8,1.8,1,2.4c0.2-0.6,0.6-1.6,0.9-2.4l3.1-7.5h2.2v14H138.3z"/>
	<path class="st3" d="M149.7,316.9v-1c-0.7,0.7-1.7,1.3-2.9,1.3c-1.7,0-3.6-1-3.6-3.5c0-2.3,1.8-3.4,4.2-3.4c1,0,1.8,0.1,2.3,0.4
		v-0.8c0-1.1-0.7-1.8-2-1.8c-1.1,0-1.9,0.2-2.7,0.7l-0.8-1.6c1-0.6,2.1-0.9,3.6-0.9c2.3,0,3.9,1.1,3.9,3.5v7.2H149.7z M149.7,312.4
		c-0.6-0.3-1.3-0.5-2.4-0.5c-1.3,0-2.2,0.6-2.2,1.6c0,1,0.7,1.7,2,1.7c1.1,0,2.1-0.7,2.5-1.3V312.4z"/>
	<path class="st3" d="M159.4,317.1c-1.1,0-2.1-0.6-2.6-1.2v3.8l-2,1.1v-14.4h2v1c0.8-0.7,1.6-1.2,2.7-1.2c2.3,0,4,1.6,4,5.6
		C163.5,315.4,161.5,317.1,159.4,317.1z M159.1,308c-1,0-1.8,0.7-2.4,1.3v4.4c0.5,0.6,1.4,1.4,2.5,1.4c1.5,0,2.3-1.1,2.3-3.3
		C161.4,309.2,160.6,308,159.1,308z"/>
</g>
<g>
	<path class="st3" d="M83,367.4c-2,0-3.8-0.9-5-2.3l1.5-1.5c0.9,1,2.3,1.7,3.6,1.7c2,0,2.9-0.7,2.9-2c0-1.1-0.8-1.6-3.2-2.3
		c-3-0.9-4.4-1.6-4.4-4.1c0-2.4,2-3.9,4.6-3.9c1.9,0,3.3,0.7,4.6,1.9l-1.5,1.5c-0.9-0.9-1.9-1.3-3.3-1.3c-1.6,0-2.3,0.8-2.3,1.7
		c0,1,0.6,1.5,3.1,2.2c2.8,0.8,4.5,1.7,4.5,4.2C88.2,365.6,86.6,367.4,83,367.4z"/>
	<path class="st3" d="M99.3,362.6h-6.9c0.2,2,1.4,2.9,2.6,2.9c0.9,0,1.6-0.3,2.3-0.8l1.2,1.3c-0.9,0.9-2,1.4-3.6,1.4
		c-2.5,0-4.5-2-4.5-5.5c0-3.6,1.9-5.5,4.6-5.5c3,0,4.4,2.4,4.4,5.3C99.4,362.1,99.3,362.4,99.3,362.6z M94.8,358.3
		c-1.4,0-2.2,1-2.4,2.6h4.9C97.2,359.5,96.5,358.3,94.8,358.3z"/>
	<path class="st3" d="M107.6,358.8c-0.4-0.2-0.9-0.4-1.6-0.4c-1.3,0-2.1,0.9-2.1,2.7v6h-2.1v-10.5h2.1v1c0.5-0.7,1.4-1.2,2.4-1.2
		c0.8,0,1.4,0.2,1.8,0.4L107.6,358.8z"/>
	<path class="st3" d="M115.2,367.1h-2.1l-3.8-10.5h2.2l1.9,5.7c0.3,1,0.6,2,0.8,2.6c0.1-0.6,0.4-1.6,0.7-2.6l1.8-5.7h2.2
		L115.2,367.1z"/>
	<path class="st3" d="M122.3,355.3c-0.7,0-1.3-0.6-1.3-1.3c0-0.7,0.6-1.3,1.3-1.3c0.7,0,1.3,0.6,1.3,1.3
		C123.6,354.7,123,355.3,122.3,355.3z M121.2,367.1v-10.5h2.1v10.5H121.2z"/>
	<path class="st3" d="M133,359.7c-0.9-0.9-1.6-1.3-2.6-1.3c-1.5,0-2.5,1.3-2.5,3.5c0,2.1,0.9,3.5,2.5,3.5c1,0,1.6-0.4,2.4-1.3
		l1.3,1.3c-0.8,1-1.9,2-3.8,2c-2.6,0-4.5-2.2-4.5-5.4c0-3.5,2-5.5,4.6-5.5c1.5,0,2.7,0.6,3.7,1.8L133,359.7z"/>
	<path class="st3" d="M145,362.6H138c0.2,2,1.4,2.9,2.6,2.9c0.9,0,1.6-0.3,2.3-0.8l1.2,1.3c-0.9,0.9-2,1.4-3.6,1.4
		c-2.5,0-4.5-2-4.5-5.5c0-3.6,1.9-5.5,4.6-5.5c3,0,4.4,2.4,4.4,5.3C145,362.1,145,362.4,145,362.6z M140.5,358.3
		c-1.4,0-2.2,1-2.4,2.6h4.9C142.9,359.5,142.2,358.3,140.5,358.3z"/>
	<path class="st3" d="M163.8,367.1v-7.4c0-0.8,0-2.1,0-2.5c-0.2,0.4-0.6,1.4-0.9,2.2l-3.4,7.9l-3.4-7.9c-0.3-0.8-0.7-1.8-0.9-2.2
		c0,0.4,0,1.6,0,2.5v7.4h-2v-14h2.2l3.1,7.5c0.3,0.8,0.8,1.8,1,2.4c0.2-0.6,0.6-1.6,0.9-2.4l3.1-7.5h2.2v14H163.8z"/>
	<path class="st3" d="M175.2,367.1v-1c-0.7,0.7-1.7,1.3-2.9,1.3c-1.7,0-3.6-1-3.6-3.5c0-2.3,1.8-3.4,4.2-3.4c1,0,1.8,0.1,2.3,0.4
		V360c0-1.1-0.7-1.8-2-1.8c-1.1,0-1.9,0.2-2.7,0.7l-0.8-1.6c1-0.6,2.1-0.9,3.6-0.9c2.3,0,3.9,1.1,3.9,3.5v7.2H175.2z M175.2,362.7
		c-0.6-0.3-1.3-0.5-2.4-0.5c-1.3,0-2.2,0.6-2.2,1.6c0,1,0.7,1.7,2,1.7c1.1,0,2.1-0.7,2.5-1.3V362.7z"/>
	<path class="st3" d="M184.8,367.4c-1.1,0-2.1-0.6-2.6-1.2v3.8l-2,1.1v-14.4h2v1c0.8-0.7,1.6-1.2,2.7-1.2c2.3,0,4,1.6,4,5.6
		C189,365.7,187,367.4,184.8,367.4z M184.6,358.3c-1,0-1.8,0.7-2.4,1.3v4.4c0.5,0.6,1.4,1.4,2.5,1.4c1.5,0,2.3-1.1,2.3-3.3
		C186.9,359.5,186.1,358.3,184.6,358.3z"/>
</g>
<g>
	<g>
		<polyline class="st4" points="293,109.1 532.9,109.1 532.9,150.1 		"/>
		<g>
			<polygon class="st3" points="526.5,148.2 532.9,159.4 539.4,148.2 			"/>
		</g>
	</g>
</g>
<g>
	<g>
		<polyline class="st4" points="293,360.6 532.9,360.6 532.9,319.6 		"/>
		<g>
			<polygon class="st3" points="539.4,321.5 532.9,310.3 526.5,321.5 			"/>
		</g>
	</g>
</g>
<g>
	<g>
		<line class="st4" x1="532.9" y1="209.7" x2="532.9" y2="250.7"/>
		<g>
			<polygon class="st3" points="526.5,248.8 532.9,260 539.4,248.8 			"/>
		</g>
	</g>
</g>
<g>
</g>
</svg>
