<svg id="Layer_1" data-name="Layer 1" xmlns="http://www.w3.org/2000/svg" width="8.268in" height="3.177in" viewBox="0 0 595.276 228.741">
  <defs>
    <style>
      .cls-1 {
        fill: #e6e6e6;
      }

      .cls-2, .cls-4 {
        fill: #fff;
      }

      .cls-3 {
        fill: #151515;
      }

      .cls-4, .cls-5 {
        stroke: #5b5b5b;
        stroke-linecap: round;
        stroke-linejoin: round;
        stroke-width: 1.5px;
      }

      .cls-5, .cls-6 {
        fill: none;
      }

      .cls-6 {
        stroke: #06c;
        stroke-miterlimit: 10;
      }

      .cls-7 {
        fill: #06c;
      }
    </style>
  </defs>
  <rect class="cls-1" x="225.015" y="29.211" width="145.245" height="168.606"/>
  <rect class="cls-1" x="48.045" y="29.211" width="145.245" height="168.606"/>
  <rect class="cls-1" x="401.986" y="29.211" width="145.245" height="168.606"/>
  <rect class="cls-2" x="62.1" y="41.414" width="117.134" height="78.14"/>
  <g>
    <path class="cls-3" d="M111.533,100.321v6.04h-1.221v-7.7h1.716l2.255,4.665,2.244-4.665h1.717v7.7H117v-6.007l-2.729,5.457Z"/>
    <path class="cls-3" d="M119.672,104.777c0-.991.8-1.618,2.1-1.618a3.406,3.406,0,0,1,1.485.341V102.9c0-.726-.418-1.1-1.265-1.1a3.817,3.817,0,0,0-1.607.429l-.44-.9a5.3,5.3,0,0,1,2.289-.561c1.43,0,2.255.726,2.255,2v3.6h-1.232V105.8a2.3,2.3,0,0,1-1.639.649A1.737,1.737,0,0,1,119.672,104.777Zm2.289.8a1.96,1.96,0,0,0,1.3-.451v-.9a2.852,2.852,0,0,0-1.276-.264c-.7,0-1.145.309-1.145.792C120.838,105.26,121.278,105.579,121.961,105.579Z"/>
    <path class="cls-3" d="M126,100.849h1.221v.792a2.078,2.078,0,0,1,1.717-.836,2.819,2.819,0,0,1-.088,5.61,2.061,2.061,0,0,1-1.607-.715v2.993H126Zm1.243,1.617v2.3a1.688,1.688,0,0,0,1.321.605,1.764,1.764,0,0,0,0-3.52A1.618,1.618,0,0,0,127.24,102.466Z"/>
  </g>
  <g>
    <polygon class="cls-4" points="135.438 92.287 105.896 92.287 105.896 59.026 113.282 51.635 135.438 51.635 135.438 92.287"/>
    <polygon class="cls-5" points="113.282 59.026 105.896 59.026 113.282 51.635 113.282 59.026"/>
    <line class="cls-5" x1="111.436" y1="64.569" x2="120.667" y2="64.569"/>
    <line class="cls-5" x1="111.436" y1="70.113" x2="129.899" y2="70.113"/>
    <line class="cls-5" x1="111.436" y1="75.656" x2="129.899" y2="75.656"/>
    <line class="cls-5" x1="111.436" y1="81.2" x2="129.899" y2="81.2"/>
  </g>
  <g>
    <g>
      <path class="cls-3" d="M113.089,181.452a3.972,3.972,0,1,1,3.895-3.972A3.9,3.9,0,0,1,113.089,181.452Zm.011-6.766a2.8,2.8,0,0,0,0,5.577,2.8,2.8,0,0,0,0-5.577Z"/>
      <path class="cls-3" d="M118.523,179.229a3.848,3.848,0,0,0,2.585,1.122c1.023,0,1.728-.516,1.728-1.22,0-.627-.375-.913-1.4-1.1l-1.419-.242c-1.331-.241-1.98-.9-1.98-1.958,0-1.386,1.111-2.311,2.838-2.311a5.143,5.143,0,0,1,3.091,1l-.671.989a4,4,0,0,0-2.464-.89c-.924,0-1.529.462-1.529,1.089,0,.551.341.836,1.188.968l1.364.242c1.551.264,2.277.946,2.277,2.112,0,1.408-1.254,2.41-3.091,2.41a4.85,4.85,0,0,1-3.234-1.243Z"/>
      <path class="cls-3" d="M125.475,173.63h2.816a3.851,3.851,0,1,1,0,7.7h-2.816Zm1.32,1.144v5.412h1.529a2.718,2.718,0,0,0,0-5.412Z"/>
    </g>
    <g>
      <path class="cls-4" d="M102.218,144.308V154.5c0,5.629,8.26,10.193,18.449,10.193s18.449-4.564,18.449-10.193V144.308"/>
      <ellipse class="cls-4" cx="120.667" cy="144.308" rx="18.449" ry="10.192"/>
    </g>
  </g>
  <rect class="cls-2" x="239.071" y="41.414" width="117.134" height="78.14"/>
  <g>
    <path class="cls-3" d="M288.5,100.321v6.04h-1.221v-7.7H289l2.255,4.665,2.245-4.665h1.716v7.7h-1.243v-6.007l-2.729,5.457Z"/>
    <path class="cls-3" d="M296.643,104.777c0-.991.8-1.618,2.1-1.618a3.413,3.413,0,0,1,1.486.341V102.9c0-.726-.418-1.1-1.266-1.1a3.813,3.813,0,0,0-1.606.429l-.44-.9a5.291,5.291,0,0,1,2.288-.561c1.431,0,2.256.726,2.256,2v3.6H300.23V105.8a2.3,2.3,0,0,1-1.64.649A1.737,1.737,0,0,1,296.643,104.777Zm2.288.8a1.963,1.963,0,0,0,1.3-.451v-.9a2.856,2.856,0,0,0-1.277-.264c-.7,0-1.144.309-1.144.792C297.809,105.26,298.249,105.579,298.931,105.579Z"/>
    <path class="cls-3" d="M302.968,100.849h1.221v.792a2.076,2.076,0,0,1,1.716-.836,2.819,2.819,0,0,1-.088,5.61,2.06,2.06,0,0,1-1.606-.715v2.993h-1.243Zm1.243,1.617v2.3a1.686,1.686,0,0,0,1.32.605,1.764,1.764,0,0,0,0-3.52A1.618,1.618,0,0,0,304.211,102.466Z"/>
  </g>
  <g>
    <polygon class="cls-4" points="312.409 92.287 282.867 92.287 282.867 59.026 290.252 51.635 312.409 51.635 312.409 92.287"/>
    <polygon class="cls-5" points="290.252 59.026 282.867 59.026 290.252 51.635 290.252 59.026"/>
    <line class="cls-5" x1="288.406" y1="64.569" x2="297.638" y2="64.569"/>
    <line class="cls-5" x1="288.406" y1="70.113" x2="306.87" y2="70.113"/>
    <line class="cls-5" x1="288.406" y1="75.656" x2="306.87" y2="75.656"/>
    <line class="cls-5" x1="288.406" y1="81.2" x2="306.87" y2="81.2"/>
  </g>
  <g>
    <g>
      <path class="cls-3" d="M290.06,181.452a3.972,3.972,0,1,1,3.895-3.972A3.9,3.9,0,0,1,290.06,181.452Zm.011-6.766a2.8,2.8,0,0,0,0,5.577,2.8,2.8,0,0,0,0-5.577Z"/>
      <path class="cls-3" d="M295.493,179.229a3.85,3.85,0,0,0,2.586,1.122c1.023,0,1.727-.516,1.727-1.22,0-.627-.374-.913-1.4-1.1l-1.419-.242c-1.332-.241-1.981-.9-1.981-1.958,0-1.386,1.112-2.311,2.839-2.311a5.143,5.143,0,0,1,3.091,1l-.671.989a4,4,0,0,0-2.464-.89c-.925,0-1.529.462-1.529,1.089,0,.551.34.836,1.188.968l1.363.242c1.552.264,2.278.946,2.278,2.112,0,1.408-1.254,2.41-3.091,2.41a4.85,4.85,0,0,1-3.235-1.243Z"/>
      <path class="cls-3" d="M302.445,173.63h2.817a3.851,3.851,0,1,1,0,7.7h-2.817Zm1.32,1.144v5.412h1.529a2.718,2.718,0,0,0,0-5.412Z"/>
    </g>
    <g>
      <path class="cls-4" d="M279.189,144.308V154.5c0,5.629,8.26,10.193,18.449,10.193s18.449-4.564,18.449-10.193V144.308"/>
      <ellipse class="cls-4" cx="297.638" cy="144.308" rx="18.449" ry="10.192"/>
    </g>
  </g>
  <rect class="cls-2" x="416.041" y="41.414" width="117.134" height="78.14"/>
  <g>
    <path class="cls-3" d="M465.474,100.321v6.04h-1.222v-7.7h1.717l2.255,4.665,2.244-4.665h1.717v7.7h-1.243v-6.007l-2.729,5.457Z"/>
    <path class="cls-3" d="M473.613,104.777c0-.991.8-1.618,2.1-1.618a3.4,3.4,0,0,1,1.485.341V102.9c0-.726-.418-1.1-1.264-1.1a3.817,3.817,0,0,0-1.607.429l-.44-.9a5.3,5.3,0,0,1,2.289-.561c1.43,0,2.255.726,2.255,2v3.6H477.2V105.8a2.3,2.3,0,0,1-1.638.649A1.737,1.737,0,0,1,473.613,104.777Zm2.288.8a1.958,1.958,0,0,0,1.3-.451v-.9a2.849,2.849,0,0,0-1.276-.264c-.7,0-1.144.309-1.144.792C474.779,105.26,475.219,105.579,475.9,105.579Z"/>
    <path class="cls-3" d="M479.938,100.849h1.221v.792a2.076,2.076,0,0,1,1.716-.836,2.819,2.819,0,0,1-.088,5.61,2.06,2.06,0,0,1-1.606-.715v2.993h-1.243Zm1.243,1.617v2.3a1.686,1.686,0,0,0,1.32.605,1.764,1.764,0,0,0,0-3.52A1.618,1.618,0,0,0,481.181,102.466Z"/>
  </g>
  <g>
    <polygon class="cls-4" points="489.379 92.287 459.837 92.287 459.837 59.026 467.223 51.635 489.379 51.635 489.379 92.287"/>
    <polygon class="cls-5" points="467.223 59.026 459.837 59.026 467.223 51.635 467.223 59.026"/>
    <line class="cls-5" x1="465.376" y1="64.569" x2="474.608" y2="64.569"/>
    <line class="cls-5" x1="465.376" y1="70.113" x2="483.84" y2="70.113"/>
    <line class="cls-5" x1="465.376" y1="75.656" x2="483.84" y2="75.656"/>
    <line class="cls-5" x1="465.376" y1="81.2" x2="483.84" y2="81.2"/>
  </g>
  <g>
    <g>
      <path class="cls-3" d="M467.03,181.452a3.972,3.972,0,1,1,3.9-3.972A3.9,3.9,0,0,1,467.03,181.452Zm.011-6.766a2.8,2.8,0,0,0,0,5.577,2.8,2.8,0,0,0,0-5.577Z"/>
      <path class="cls-3" d="M472.464,179.229a3.848,3.848,0,0,0,2.585,1.122c1.023,0,1.727-.516,1.727-1.22,0-.627-.374-.913-1.4-1.1l-1.419-.242c-1.331-.241-1.98-.9-1.98-1.958,0-1.386,1.111-2.311,2.838-2.311a5.141,5.141,0,0,1,3.091,1l-.671.989a4,4,0,0,0-2.463-.89c-.925,0-1.53.462-1.53,1.089,0,.551.341.836,1.188.968l1.364.242c1.552.264,2.277.946,2.277,2.112,0,1.408-1.254,2.41-3.091,2.41a4.85,4.85,0,0,1-3.234-1.243Z"/>
      <path class="cls-3" d="M479.416,173.63h2.817a3.851,3.851,0,1,1,0,7.7h-2.817Zm1.319,1.144v5.412h1.53a2.718,2.718,0,0,0,0-5.412Z"/>
    </g>
    <g>
      <path class="cls-4" d="M456.159,144.308V154.5c0,5.629,8.26,10.193,18.449,10.193s18.449-4.564,18.449-10.193V144.308"/>
      <ellipse class="cls-4" cx="474.608" cy="144.308" rx="18.449" ry="10.192"/>
    </g>
  </g>
  <g>
    <line class="cls-6" x1="184.616" y1="80.484" x2="233.689" y2="80.484"/>
    <polygon class="cls-7" points="185.71 84.223 179.234 80.484 185.71 76.745 185.71 84.223"/>
    <polygon class="cls-7" points="232.595 84.223 239.071 80.484 232.595 76.745 232.595 84.223"/>
  </g>
  <g>
    <line class="cls-6" x1="361.587" y1="80.484" x2="410.659" y2="80.484"/>
    <polygon class="cls-7" points="362.681 84.223 356.205 80.484 362.681 76.745 362.681 84.223"/>
    <polygon class="cls-7" points="409.565 84.223 416.041 80.484 409.565 76.745 409.565 84.223"/>
  </g>
</svg>
