<svg id="Layer_1" data-name="Layer 1" xmlns="http://www.w3.org/2000/svg" width="8.268in" height="5.939in" viewBox="0 0 595.276 427.612">
  <defs>
    <style>
      .cls-1 {
        fill: #e6e6e6;
      }

      .cls-2, .cls-4 {
        fill: #fff;
      }

      .cls-3 {
        fill: #151515;
      }

      .cls-4, .cls-5, .cls-6 {
        stroke: #5b5b5b;
        stroke-linecap: round;
        stroke-linejoin: round;
      }

      .cls-4, .cls-6 {
        stroke-width: 1.5px;
      }

      .cls-5, .cls-6, .cls-7 {
        fill: none;
      }

      .cls-5 {
        stroke-width: 2px;
      }

      .cls-7 {
        stroke: #06c;
        stroke-miterlimit: 10;
      }

      .cls-8 {
        fill: #06c;
      }
    </style>
  </defs>
  <rect class="cls-1" x="225.015" y="13.073" width="145.245" height="168.606"/>
  <rect class="cls-1" x="225.015" y="241.266" width="145.245" height="168.606"/>
  <rect class="cls-1" x="48.045" y="241.266" width="145.245" height="168.606"/>
  <rect class="cls-1" x="401.986" y="241.266" width="145.245" height="168.606"/>
  <rect class="cls-2" x="239.071" y="91.726" width="117.134" height="78.14"/>
  <g>
    <g>
      <path class="cls-3" d="M288.106,75.413l.947.911a4.309,4.309,0,1,1,.036-5.685l-.972.959a2.954,2.954,0,1,0-2.254,4.906A2.849,2.849,0,0,0,288.106,75.413Z"/>
      <path class="cls-3" d="M291.732,77.679h-1.355V69.1l1.355-.227Z"/>
      <path class="cls-3" d="M293.233,69.62a.846.846,0,0,1,1.691,0,.846.846,0,0,1-1.691,0Zm1.523,8.059H293.4V71.671h1.356Z"/>
      <path class="cls-3" d="M299.208,77.8a3.055,3.055,0,0,1-3.059-3.119,2.96,2.96,0,0,1,2.927-3.106,2.884,2.884,0,0,1,2.842,3.094v.336h-4.437a1.833,1.833,0,0,0,1.8,1.643,1.955,1.955,0,0,0,1.428-.563l.888.827A3.479,3.479,0,0,1,299.208,77.8Zm-1.7-3.623h3.131a1.645,1.645,0,0,0-1.571-1.5A1.614,1.614,0,0,0,297.5,74.177Z"/>
      <path class="cls-3" d="M303.3,71.671h1.355v.983a2.183,2.183,0,0,1,1.908-1.079,2.022,2.022,0,0,1,2.075,2.146v3.958h-1.356V74.105a1.294,1.294,0,0,0-1.319-1.439,1.544,1.544,0,0,0-1.308.719v4.294H303.3Z"/>
      <path class="cls-3" d="M311.028,72.75h-1.211V71.671h1.211V70.015l1.356-.287v1.943h1.679V72.75h-1.679V75.8c0,.588.227.815.839.815a2.5,2.5,0,0,0,.815-.143v1.138a4.215,4.215,0,0,1-1.163.168c-1.211,0-1.847-.575-1.847-1.679Z"/>
    </g>
    <g>
      <rect class="cls-4" x="273.388" y="23.905" width="48.5" height="37.18"/>
      <line class="cls-5" x1="316.292" y1="29.486" x2="316.292" y2="29.486"/>
      <line class="cls-5" x1="312.561" y1="29.486" x2="312.561" y2="29.486"/>
      <line class="cls-5" x1="308.83" y1="29.486" x2="308.83" y2="29.486"/>
      <line class="cls-6" x1="278.984" y1="29.486" x2="293.907" y2="29.486"/>
    </g>
  </g>
  <g>
    <path class="cls-3" d="M288.5,154.06v6.04h-1.221v-7.7H289l2.255,4.665L293.5,152.4h1.716v7.7h-1.243v-6.006l-2.729,5.457Z"/>
    <path class="cls-3" d="M296.643,158.516c0-.99.8-1.617,2.1-1.617a3.413,3.413,0,0,1,1.486.341v-.605c0-.726-.418-1.1-1.266-1.1a3.813,3.813,0,0,0-1.606.429l-.44-.9a5.3,5.3,0,0,1,2.288-.56c1.431,0,2.256.725,2.256,2v3.6H300.23v-.561a2.3,2.3,0,0,1-1.64.649A1.737,1.737,0,0,1,296.643,158.516Zm2.288.8a1.963,1.963,0,0,0,1.3-.451v-.9a2.856,2.856,0,0,0-1.277-.264c-.7,0-1.144.308-1.144.792C297.809,159,298.249,159.319,298.931,159.319Z"/>
    <path class="cls-3" d="M302.968,154.589h1.221v.792a2.074,2.074,0,0,1,1.716-.836,2.819,2.819,0,0,1-.088,5.61,2.06,2.06,0,0,1-1.606-.715v2.992h-1.243Zm1.243,1.617v2.3a1.69,1.69,0,0,0,1.32.605,1.764,1.764,0,0,0,0-3.52A1.618,1.618,0,0,0,304.211,156.206Z"/>
  </g>
  <g>
    <polygon class="cls-4" points="312.409 142.23 282.867 142.23 282.867 108.969 290.252 101.578 312.409 101.578 312.409 142.23"/>
    <polygon class="cls-6" points="290.252 108.969 282.867 108.969 290.252 101.578 290.252 108.969"/>
    <line class="cls-6" x1="288.406" y1="114.513" x2="297.638" y2="114.513"/>
    <line class="cls-6" x1="288.406" y1="120.056" x2="306.87" y2="120.056"/>
    <line class="cls-6" x1="288.406" y1="125.599" x2="306.87" y2="125.599"/>
    <line class="cls-6" x1="288.406" y1="131.143" x2="306.87" y2="131.143"/>
  </g>
  <rect class="cls-2" x="62.1" y="253.469" width="117.134" height="78.14"/>
  <g>
    <path class="cls-3" d="M111.533,312.376v6.04h-1.221v-7.7h1.716l2.255,4.665,2.244-4.665h1.717v7.7H117v-6.007l-2.729,5.457Z"/>
    <path class="cls-3" d="M119.672,316.832c0-.99.8-1.617,2.1-1.617a3.392,3.392,0,0,1,1.485.341v-.606c0-.725-.418-1.1-1.265-1.1a3.817,3.817,0,0,0-1.607.429l-.44-.9a5.3,5.3,0,0,1,2.289-.56c1.43,0,2.255.725,2.255,2v3.6h-1.232v-.561a2.3,2.3,0,0,1-1.639.649A1.737,1.737,0,0,1,119.672,316.832Zm2.289.8a1.965,1.965,0,0,0,1.3-.451v-.9a2.865,2.865,0,0,0-1.276-.263c-.7,0-1.145.308-1.145.792C120.838,317.316,121.278,317.635,121.961,317.635Z"/>
    <path class="cls-3" d="M126,312.9h1.221v.792a2.076,2.076,0,0,1,1.717-.836,2.645,2.645,0,0,1,2.5,2.805,2.671,2.671,0,0,1-2.585,2.805,2.061,2.061,0,0,1-1.607-.715v2.992H126Zm1.243,1.617v2.3a1.692,1.692,0,0,0,1.321.6,1.764,1.764,0,0,0,0-3.52A1.616,1.616,0,0,0,127.24,314.522Z"/>
  </g>
  <g>
    <polygon class="cls-4" points="135.438 304.342 105.896 304.342 105.896 271.081 113.282 263.69 135.438 263.69 135.438 304.342"/>
    <polygon class="cls-6" points="113.282 271.081 105.896 271.081 113.282 263.69 113.282 271.081"/>
    <line class="cls-6" x1="111.436" y1="276.625" x2="120.667" y2="276.625"/>
    <line class="cls-6" x1="111.436" y1="282.168" x2="129.899" y2="282.168"/>
    <line class="cls-6" x1="111.436" y1="287.712" x2="129.899" y2="287.712"/>
    <line class="cls-6" x1="111.436" y1="293.255" x2="129.899" y2="293.255"/>
  </g>
  <g>
    <g>
      <path class="cls-3" d="M113.089,393.508a3.973,3.973,0,1,1,3.895-3.972A3.9,3.9,0,0,1,113.089,393.508Zm.011-6.766a2.8,2.8,0,0,0,0,5.577,2.8,2.8,0,0,0,0-5.577Z"/>
      <path class="cls-3" d="M118.523,391.285a3.853,3.853,0,0,0,2.585,1.122c1.023,0,1.728-.517,1.728-1.221,0-.627-.375-.913-1.4-1.1l-1.419-.242c-1.331-.242-1.98-.9-1.98-1.959,0-1.385,1.111-2.31,2.838-2.31a5.136,5.136,0,0,1,3.091,1l-.671.989a3.993,3.993,0,0,0-2.464-.89c-.924,0-1.529.461-1.529,1.088,0,.551.341.836,1.188.969l1.364.241c1.551.265,2.277.947,2.277,2.113,0,1.408-1.254,2.41-3.091,2.41a4.85,4.85,0,0,1-3.234-1.243Z"/>
      <path class="cls-3" d="M125.475,385.685h2.816a3.851,3.851,0,1,1,0,7.7h-2.816Zm1.32,1.145v5.412h1.529a2.718,2.718,0,0,0,0-5.412Z"/>
    </g>
    <g>
      <path class="cls-4" d="M102.218,356.363v10.193c0,5.629,8.26,10.192,18.449,10.192s18.449-4.563,18.449-10.192V356.363"/>
      <ellipse class="cls-4" cx="120.667" cy="356.363" rx="18.449" ry="10.192"/>
    </g>
  </g>
  <rect class="cls-2" x="239.071" y="253.469" width="117.134" height="78.14"/>
  <g>
    <path class="cls-3" d="M288.5,312.376v6.04h-1.221v-7.7H289l2.255,4.665,2.245-4.665h1.716v7.7h-1.243v-6.007l-2.729,5.457Z"/>
    <path class="cls-3" d="M296.643,316.832c0-.99.8-1.617,2.1-1.617a3.4,3.4,0,0,1,1.486.341v-.606c0-.725-.418-1.1-1.266-1.1a3.813,3.813,0,0,0-1.606.429l-.44-.9a5.289,5.289,0,0,1,2.288-.56c1.431,0,2.256.725,2.256,2v3.6H300.23v-.561a2.3,2.3,0,0,1-1.64.649A1.737,1.737,0,0,1,296.643,316.832Zm2.288.8a1.968,1.968,0,0,0,1.3-.451v-.9a2.87,2.87,0,0,0-1.277-.263c-.7,0-1.144.308-1.144.792C297.809,317.316,298.249,317.635,298.931,317.635Z"/>
    <path class="cls-3" d="M302.968,312.9h1.221v.792a2.074,2.074,0,0,1,1.716-.836,2.819,2.819,0,0,1-.088,5.61,2.06,2.06,0,0,1-1.606-.715v2.992h-1.243Zm1.243,1.617v2.3a1.69,1.69,0,0,0,1.32.6,1.764,1.764,0,0,0,0-3.52A1.615,1.615,0,0,0,304.211,314.522Z"/>
  </g>
  <g>
    <polygon class="cls-4" points="312.409 304.342 282.867 304.342 282.867 271.081 290.252 263.69 312.409 263.69 312.409 304.342"/>
    <polygon class="cls-6" points="290.252 271.081 282.867 271.081 290.252 263.69 290.252 271.081"/>
    <line class="cls-6" x1="288.406" y1="276.625" x2="297.638" y2="276.625"/>
    <line class="cls-6" x1="288.406" y1="282.168" x2="306.87" y2="282.168"/>
    <line class="cls-6" x1="288.406" y1="287.712" x2="306.87" y2="287.712"/>
    <line class="cls-6" x1="288.406" y1="293.255" x2="306.87" y2="293.255"/>
  </g>
  <g>
    <g>
      <path class="cls-3" d="M290.06,393.508a3.973,3.973,0,1,1,3.895-3.972A3.9,3.9,0,0,1,290.06,393.508Zm.011-6.766a2.8,2.8,0,0,0,0,5.577,2.8,2.8,0,0,0,0-5.577Z"/>
      <path class="cls-3" d="M295.493,391.285a3.855,3.855,0,0,0,2.586,1.122c1.023,0,1.727-.517,1.727-1.221,0-.627-.374-.913-1.4-1.1l-1.419-.242c-1.332-.242-1.981-.9-1.981-1.959,0-1.385,1.112-2.31,2.839-2.31a5.136,5.136,0,0,1,3.091,1l-.671.989a4,4,0,0,0-2.464-.89c-.925,0-1.529.461-1.529,1.088,0,.551.34.836,1.188.969l1.363.241c1.552.265,2.278.947,2.278,2.113,0,1.408-1.254,2.41-3.091,2.41a4.85,4.85,0,0,1-3.235-1.243Z"/>
      <path class="cls-3" d="M302.445,385.685h2.817a3.851,3.851,0,1,1,0,7.7h-2.817Zm1.32,1.145v5.412h1.529a2.718,2.718,0,0,0,0-5.412Z"/>
    </g>
    <g>
      <path class="cls-4" d="M279.189,356.363v10.193c0,5.629,8.26,10.192,18.449,10.192s18.449-4.563,18.449-10.192V356.363"/>
      <ellipse class="cls-4" cx="297.638" cy="356.363" rx="18.449" ry="10.192"/>
    </g>
  </g>
  <rect class="cls-2" x="416.041" y="253.469" width="117.134" height="78.14"/>
  <g>
    <path class="cls-3" d="M465.474,312.376v6.04h-1.222v-7.7h1.717l2.255,4.665,2.244-4.665h1.717v7.7h-1.243v-6.007l-2.729,5.457Z"/>
    <path class="cls-3" d="M473.613,316.832c0-.99.8-1.617,2.1-1.617a3.389,3.389,0,0,1,1.485.341v-.606c0-.725-.418-1.1-1.264-1.1a3.817,3.817,0,0,0-1.607.429l-.44-.9a5.293,5.293,0,0,1,2.289-.56c1.43,0,2.255.725,2.255,2v3.6H477.2v-.561a2.3,2.3,0,0,1-1.638.649A1.737,1.737,0,0,1,473.613,316.832Zm2.288.8a1.964,1.964,0,0,0,1.3-.451v-.9a2.862,2.862,0,0,0-1.276-.263c-.7,0-1.144.308-1.144.792C474.779,317.316,475.219,317.635,475.9,317.635Z"/>
    <path class="cls-3" d="M479.938,312.9h1.221v.792a2.074,2.074,0,0,1,1.716-.836,2.645,2.645,0,0,1,2.5,2.805,2.672,2.672,0,0,1-2.586,2.805,2.06,2.06,0,0,1-1.606-.715v2.992h-1.243Zm1.243,1.617v2.3a1.69,1.69,0,0,0,1.32.6,1.764,1.764,0,0,0,0-3.52A1.615,1.615,0,0,0,481.181,314.522Z"/>
  </g>
  <g>
    <polygon class="cls-4" points="489.379 304.342 459.837 304.342 459.837 271.081 467.223 263.69 489.379 263.69 489.379 304.342"/>
    <polygon class="cls-6" points="467.223 271.081 459.837 271.081 467.223 263.69 467.223 271.081"/>
    <line class="cls-6" x1="465.376" y1="276.625" x2="474.608" y2="276.625"/>
    <line class="cls-6" x1="465.376" y1="282.168" x2="483.84" y2="282.168"/>
    <line class="cls-6" x1="465.376" y1="287.712" x2="483.84" y2="287.712"/>
    <line class="cls-6" x1="465.376" y1="293.255" x2="483.84" y2="293.255"/>
  </g>
  <g>
    <g>
      <path class="cls-3" d="M467.03,393.508a3.973,3.973,0,1,1,3.9-3.972A3.9,3.9,0,0,1,467.03,393.508Zm.011-6.766a2.8,2.8,0,0,0,0,5.577,2.8,2.8,0,0,0,0-5.577Z"/>
      <path class="cls-3" d="M472.464,391.285a3.853,3.853,0,0,0,2.585,1.122c1.023,0,1.727-.517,1.727-1.221,0-.627-.374-.913-1.4-1.1l-1.419-.242c-1.331-.242-1.98-.9-1.98-1.959,0-1.385,1.111-2.31,2.838-2.31a5.134,5.134,0,0,1,3.091,1l-.671.989a3.99,3.99,0,0,0-2.463-.89c-.925,0-1.53.461-1.53,1.088,0,.551.341.836,1.188.969l1.364.241c1.552.265,2.277.947,2.277,2.113,0,1.408-1.254,2.41-3.091,2.41a4.85,4.85,0,0,1-3.234-1.243Z"/>
      <path class="cls-3" d="M479.416,385.685h2.817a3.851,3.851,0,1,1,0,7.7h-2.817Zm1.319,1.145v5.412h1.53a2.718,2.718,0,0,0,0-5.412Z"/>
    </g>
    <g>
      <path class="cls-4" d="M456.159,356.363v10.193c0,5.629,8.26,10.192,18.449,10.192s18.449-4.563,18.449-10.192V356.363"/>
      <ellipse class="cls-4" cx="474.608" cy="356.363" rx="18.449" ry="10.192"/>
    </g>
  </g>
  <g>
    <polyline class="cls-7" points="120.667 245.514 120.667 212.657 297.638 212.657 297.638 178.821"/>
    <polygon class="cls-8" points="125.653 244.055 120.668 252.69 115.682 244.055 125.653 244.055"/>
    <polygon class="cls-8" points="302.624 180.28 297.638 171.646 292.652 180.28 302.624 180.28"/>
  </g>
</svg>
