<?xml version="1.0" encoding="UTF-8" standalone="no"?>
<svg
   xmlns:dc="http://purl.org/dc/elements/1.1/"
   xmlns:cc="http://creativecommons.org/ns#"
   xmlns:rdf="http://www.w3.org/1999/02/22-rdf-syntax-ns#"
   xmlns:svg="http://www.w3.org/2000/svg"
   xmlns="http://www.w3.org/2000/svg"
   xmlns:sodipodi="http://sodipodi.sourceforge.net/DTD/sodipodi-0.dtd"
   xmlns:inkscape="http://www.inkscape.org/namespaces/inkscape"
   inkscape:version="1.0 (4035a4f, 2020-05-01)"
   sodipodi:docname="map-osd-paxos.svg"
   version="1.1"
   viewBox="0 0 595.276 326.569"
   height="4.536in"
   width="8.268in"
   id="svg8">
  <metadata
     id="metadata249">
    <rdf:RDF>
      <cc:Work
         rdf:about="">
        <dc:format>image/svg+xml</dc:format>
        <dc:type
           rdf:resource="http://purl.org/dc/dcmitype/StillImage" />
        <dc:title></dc:title>
        <dc:subject>
          <rdf:Bag>
            <rdf:li>Ceph maps</rdf:li>
            <rdf:li>PAXOS</rdf:li>
            <rdf:li>Ceph consensus</rdf:li>
          </rdf:Bag>
        </dc:subject>
      </cc:Work>
    </rdf:RDF>
  </metadata>
  <sodipodi:namedview
     inkscape:current-layer="svg8"
     inkscape:window-maximized="0"
     inkscape:window-y="25"
     inkscape:window-x="0"
     inkscape:cy="217.72799"
     inkscape:cx="396.86398"
     inkscape:zoom="0.63119862"
     showgrid="false"
     id="namedview247"
     inkscape:window-height="480"
     inkscape:window-width="987"
     inkscape:pageshadow="2"
     inkscape:pageopacity="0"
     guidetolerance="10"
     gridtolerance="10"
     objecttolerance="10"
     borderopacity="1"
     bordercolor="#666666"
     pagecolor="#ffffff" />
  <defs
     id="defs12">
    <style
       id="style10">
      .cls-1 {
        fill: #e6e6e6;
      }

      .cls-2 {
        fill: #dbe8f5;
      }

      .cls-3 {
        fill: #fff;
      }

      .cls-4 {
        fill: none;
        stroke: #06c;
        stroke-miterlimit: 10;
      }

      .cls-5 {
        fill: #06c;
      }
    </style>
  </defs>
  <rect
     id="rect14"
     height="37.756"
     width="188.053"
     y="94.644"
     x="376.219"
     class="cls-1" />
  <g
     id="g26">
    <path
       id="path16"
       d="M448.007,108.918h3.754a2.6,2.6,0,1,1,0,5.193h-2.315v3.2h-1.439Zm1.439,1.211v2.807h2.087a1.413,1.413,0,1,0,.012-2.807Z" />
    <path
       id="path18"
       d="M457.425,108.918h1.667l3.25,8.395H460.8l-.851-2.35H456.49l-.864,2.35h-1.5Zm2.1,4.917-1.3-3.574-1.319,3.574Z" />
    <path
       id="path20"
       d="M462.815,117.313l3.226-4.342L463,108.918h1.727l2.17,2.986,2.159-2.986h1.656l-3,4.053,3.25,4.342h-1.715l-2.387-3.286-2.375,3.286Z" />
    <path
       id="path22"
       d="M475.245,117.445a4.33,4.33,0,1,1,4.246-4.33A4.25,4.25,0,0,1,475.245,117.445Zm.011-7.376a3.053,3.053,0,0,0,0,6.081,3.055,3.055,0,0,0,0-6.081Z" />
    <path
       id="path24"
       d="M481.174,115.023a4.2,4.2,0,0,0,2.819,1.223c1.115,0,1.882-.564,1.882-1.331,0-.684-.407-1-1.522-1.2l-1.548-.264c-1.451-.264-2.158-.983-2.158-2.134,0-1.512,1.211-2.519,3.094-2.519a5.609,5.609,0,0,1,3.37,1.091l-.732,1.08a4.352,4.352,0,0,0-2.686-.972c-1.008,0-1.667.5-1.667,1.188,0,.6.372.911,1.3,1.055l1.487.264c1.692.288,2.483,1.031,2.483,2.3,0,1.536-1.368,2.627-3.371,2.627a5.287,5.287,0,0,1-3.525-1.355Z" />
  </g>
  <rect
     id="rect28"
     height="37.756"
     width="188.053"
     y="195.417"
     x="376.219"
     class="cls-1" />
  <g
     id="g58">
    <path
       id="path30"
       d="M420.64,209.691h1.439v3.838l3.646-3.838h1.751l-3.981,4.042,4.137,4.353h-1.907l-3.646-3.946v3.946H420.64Z" />
    <path
       id="path32"
       d="M430.827,218.206a3.055,3.055,0,0,1-3.059-3.118,2.96,2.96,0,0,1,2.927-3.106,2.884,2.884,0,0,1,2.842,3.094v.336H429.1a1.837,1.837,0,0,0,1.8,1.643,1.952,1.952,0,0,0,1.427-.564l.887.828A3.476,3.476,0,0,1,430.827,218.206Zm-1.7-3.622h3.129a1.644,1.644,0,0,0-1.57-1.5A1.614,1.614,0,0,0,429.124,214.584Z" />
    <path
       id="path34"
       d="M436.276,218.122l-2.267-6.045h1.511l1.523,4.462,1.679-4.462H440.2l-2.855,6.993a2.031,2.031,0,0,1-2.134,1.583,2.862,2.862,0,0,1-.684-.084v-1.163a4.8,4.8,0,0,0,.527.047.957.957,0,0,0,.972-.695Z" />
    <path
       id="path36"
       d="M443.7,209.691h1.319l-4.8,10.89h-1.319Z" />
    <path
       id="path38"
       d="M445.541,209.691h1.546l2.579,6.944,2.6-6.944h1.487l-3.286,8.4H448.8Z" />
    <path
       id="path40"
       d="M453.724,216.359c0-1.079.875-1.763,2.29-1.763a3.705,3.705,0,0,1,1.619.372v-.66c0-.791-.455-1.2-1.379-1.2a4.156,4.156,0,0,0-1.751.468l-.479-.984a5.773,5.773,0,0,1,2.494-.611c1.56,0,2.459.791,2.459,2.182v3.922h-1.344v-.612a2.506,2.506,0,0,1-1.787.708A1.894,1.894,0,0,1,453.724,216.359Zm2.494.876a2.14,2.14,0,0,0,1.415-.492v-.983a3.09,3.09,0,0,0-1.39-.289c-.768,0-1.248.336-1.248.864C455,216.887,455.475,217.235,456.218,217.235Z" />
    <path
       id="path42"
       d="M461.979,218.086h-1.354v-8.575l1.354-.228Z" />
    <path
       id="path44"
       d="M464.967,215.652a1.294,1.294,0,0,0,1.32,1.439,1.515,1.515,0,0,0,1.318-.744v-4.27h1.355v6.009h-1.355v-1a2.194,2.194,0,0,1-1.918,1.091,2.016,2.016,0,0,1-2.075-2.147v-3.958h1.355Z" />
    <path
       id="path46"
       d="M473.415,218.206a3.055,3.055,0,0,1-3.059-3.118,2.96,2.96,0,0,1,2.927-3.106,2.884,2.884,0,0,1,2.842,3.094v.336h-4.438a1.837,1.837,0,0,0,1.8,1.643,1.952,1.952,0,0,0,1.427-.564l.887.828A3.476,3.476,0,0,1,473.415,218.206Zm-1.7-3.622h3.13a1.644,1.644,0,0,0-1.57-1.5A1.616,1.616,0,0,0,471.711,214.584Z" />
    <path
       id="path48"
       d="M480.3,216.479a3.464,3.464,0,0,0,1.931.684c.72,0,1.212-.324,1.212-.8,0-.371-.252-.576-.828-.683l-1.068-.18c-1.163-.216-1.739-.756-1.739-1.655,0-1.128.924-1.859,2.327-1.859a4.221,4.221,0,0,1,2.362.719l-.635.888a3.28,3.28,0,0,0-1.811-.576c-.624,0-1.031.264-1.031.707,0,.384.216.552.852.66l1.055.192c1.2.228,1.775.78,1.775,1.679a2.2,2.2,0,0,1-2.447,1.955,4.031,4.031,0,0,1-2.591-.816Z" />
    <path
       id="path50"
       d="M486.579,213.157h-1.211v-1.08h1.211v-1.654l1.355-.288v1.942h1.679v1.08h-1.679V216.2c0,.588.228.816.84.816a2.49,2.49,0,0,0,.815-.144v1.139a4.254,4.254,0,0,1-1.164.168c-1.211,0-1.846-.576-1.846-1.679Z" />
    <path
       id="path52"
       d="M493.465,211.982a3.113,3.113,0,1,1-3.022,3.106A3,3,0,0,1,493.465,211.982Zm1.679,3.118a1.7,1.7,0,1,0-3.357,0,1.7,1.7,0,1,0,3.357,0Z" />
    <path
       id="path54"
       d="M497.9,212.077h1.354v1.308a1.785,1.785,0,0,1,1.656-1.416,1.629,1.629,0,0,1,.588.121v1.187a1.912,1.912,0,0,0-.744-.144,1.651,1.651,0,0,0-1.5.995v3.958H497.9Z" />
    <path
       id="path56"
       d="M505.106,218.206a3.055,3.055,0,0,1-3.059-3.118,2.96,2.96,0,0,1,2.927-3.106,2.884,2.884,0,0,1,2.842,3.094v.336h-4.438a1.837,1.837,0,0,0,1.8,1.643,1.951,1.951,0,0,0,1.427-.564l.888.828A3.478,3.478,0,0,1,505.106,218.206Zm-1.7-3.622h3.13a1.645,1.645,0,0,0-1.571-1.5A1.615,1.615,0,0,0,503.4,214.584Z" />
  </g>
  <g
     id="g84">
    <path
       id="path60"
       d="M484.082,168.118l-.3-5.853h.815l.192,4.678,2.363-4.678h.767l.373,4.678,2.182-4.678h.852l-2.843,5.853h-.84l-.348-4.713-2.374,4.713Z" />
    <path
       id="path62"
       d="M492.529,162.265h.864l-.24,1.068a2.081,2.081,0,0,1,1.763-1.176,1.811,1.811,0,0,1,.612.108l-.18.792a1.5,1.5,0,0,0-.66-.132,2.019,2.019,0,0,0-1.679,1.091l-.9,4.1h-.864Z" />
    <path
       id="path64"
       d="M496.261,168.118H495.4l1.283-5.853h.852Zm.6-7.856a.719.719,0,0,1,.683-.695.552.552,0,0,1,.552.563.7.7,0,0,1-.683.7A.539.539,0,0,1,496.861,160.262Z" />
    <path
       id="path66"
       d="M499.813,162.985h-1.176l.168-.72h1.163l.336-1.607.924-.2-.4,1.811h1.655l-.168.72h-1.643l-.767,3.538c-.145.672.071.935.8.935a2.181,2.181,0,0,0,.671-.12l-.168.78a3.371,3.371,0,0,1-.851.108c-1.068,0-1.559-.54-1.343-1.511Z" />
    <path
       id="path68"
       d="M505.392,168.226a2.56,2.56,0,0,1-2.663-2.7,3.2,3.2,0,0,1,3.011-3.358,2.385,2.385,0,0,1,2.35,2.579,5.574,5.574,0,0,1-.036.636h-4.485v.119a1.872,1.872,0,0,0,1.859,1.967,2.545,2.545,0,0,0,1.547-.516l.456.624A3.5,3.5,0,0,1,505.392,168.226Zm-1.739-3.466h3.622a1.671,1.671,0,0,0-1.595-1.823A2.189,2.189,0,0,0,503.653,164.76Z" />
    <path
       id="path70"
       d="M516.3,166.883l.408.563a3.3,3.3,0,0,1-2.123.78,2.494,2.494,0,0,1-2.519-2.627,3.331,3.331,0,0,1,3.179-3.406,2.675,2.675,0,0,1,2.194,1.115l-.647.54a1.833,1.833,0,0,0-1.583-.863,2.477,2.477,0,0,0-2.291,2.567,1.83,1.83,0,0,0,1.8,1.906A2.57,2.57,0,0,0,516.3,166.883Z" />
    <path
       id="path72"
       d="M519.457,159.543l.9-.18-.792,3.826a2.388,2.388,0,0,1,1.895-1.008,1.738,1.738,0,0,1,1.74,2.339l-.768,3.6h-.864l.744-3.418c.239-1.08-.252-1.8-1.224-1.8a2.074,2.074,0,0,0-1.655.887l-.9,4.33h-.864Z" />
    <path
       id="path74"
       d="M524.269,166.559a1.986,1.986,0,0,1,2.243-1.883,3.32,3.32,0,0,1,1.931.563l.156-.707c.239-1.08-.216-1.631-1.332-1.631a4.036,4.036,0,0,0-1.679.443l-.24-.683a5.32,5.32,0,0,1,2.075-.48c1.572,0,2.351.864,2.039,2.279l-.815,3.658h-.852l.121-.552a2.69,2.69,0,0,1-1.7.636C525.048,168.2,524.269,167.554,524.269,166.559Zm2.2.983a2.478,2.478,0,0,0,1.595-.6l.252-1.116a2.675,2.675,0,0,0-1.715-.5c-.876,0-1.5.48-1.5,1.14C525.1,167.146,525.6,167.542,526.464,167.542Z" />
    <path
       id="path76"
       d="M531.648,162.265h.852l-.18.851a2.334,2.334,0,0,1,1.835-.935,1.738,1.738,0,0,1,1.739,2.339l-.768,3.6h-.864l.744-3.418c.24-1.08-.252-1.8-1.223-1.8a2.074,2.074,0,0,0-1.6.816l-.96,4.4h-.863Z" />
    <path
       id="path78"
       d="M537.228,165.552a3.215,3.215,0,0,1,3.022-3.347,2.171,2.171,0,0,1,1.86.936l.18-.876h.851l-1.343,6.441a2.3,2.3,0,0,1-2.4,2,4.319,4.319,0,0,1-2.507-.876l.456-.635a3.358,3.358,0,0,0,2,.743,1.536,1.536,0,0,0,1.619-1.307l.228-1.092a2.353,2.353,0,0,1-1.631.648A2.429,2.429,0,0,1,537.228,165.552Zm2.639,1.894a2.174,2.174,0,0,0,1.475-.587l.623-3.023a1.892,1.892,0,0,0-1.606-.863,2.38,2.38,0,0,0-2.279,2.506A1.8,1.8,0,0,0,539.867,167.446Z" />
    <path
       id="path80"
       d="M546.671,168.226a2.56,2.56,0,0,1-2.663-2.7,3.2,3.2,0,0,1,3.011-3.358,2.386,2.386,0,0,1,2.351,2.579,5.812,5.812,0,0,1-.036.636h-4.486v.119a1.872,1.872,0,0,0,1.86,1.967,2.544,2.544,0,0,0,1.546-.516l.456.624A3.5,3.5,0,0,1,546.671,168.226Zm-1.739-3.466h3.622a1.67,1.67,0,0,0-1.6-1.823A2.189,2.189,0,0,0,544.932,164.76Z" />
    <path
       id="path82"
       d="M550.548,166.655a2.5,2.5,0,0,0,1.9.875,1.254,1.254,0,0,0,1.39-1.079c0-.408-.239-.636-.887-.828l-.923-.239c-.924-.265-1.356-.744-1.356-1.5a1.828,1.828,0,0,1,2.063-1.727,3.461,3.461,0,0,1,2.291.888l-.527.588a2.972,2.972,0,0,0-1.812-.756c-.743,0-1.235.372-1.235.924,0,.431.228.671.84.839l.935.264c1.008.288,1.427.707,1.427,1.439a2.027,2.027,0,0,1-2.219,1.9,3.214,3.214,0,0,1-2.41-1.032Z" />
  </g>
  <g
     id="g110">
    <path
       id="path86"
       d="M319.524,39.819l-.3-5.852h.816l.191,4.677,2.363-4.677h.768l.372,4.677,2.183-4.677h.851l-2.843,5.852h-.84l-.347-4.713-2.375,4.713Z" />
    <path
       id="path88"
       d="M327.971,33.967h.864l-.24,1.067a2.083,2.083,0,0,1,1.763-1.176,1.777,1.777,0,0,1,.612.109l-.179.791a1.5,1.5,0,0,0-.661-.132,2.017,2.017,0,0,0-1.678,1.092l-.9,4.1h-.864Z" />
    <path
       id="path90"
       d="M331.7,39.819h-.864l1.284-5.852h.851Zm.6-7.855a.719.719,0,0,1,.684-.7.553.553,0,0,1,.552.563.7.7,0,0,1-.684.7A.539.539,0,0,1,332.3,31.964Z" />
    <path
       id="path92"
       d="M335.255,34.686H334.08l.168-.719h1.163l.336-1.608.923-.2-.4,1.811h1.655l-.168.719h-1.642l-.768,3.538c-.144.672.071.935.8.935a2.19,2.19,0,0,0,.671-.12l-.168.78a3.384,3.384,0,0,1-.852.108c-1.067,0-1.558-.54-1.343-1.511Z" />
    <path
       id="path94"
       d="M340.834,39.927a2.56,2.56,0,0,1-2.663-2.7,3.2,3.2,0,0,1,3.011-3.358,2.386,2.386,0,0,1,2.351,2.579,5.812,5.812,0,0,1-.036.636h-4.486V37.2a1.873,1.873,0,0,0,1.86,1.968,2.55,2.55,0,0,0,1.546-.516l.457.624A3.513,3.513,0,0,1,340.834,39.927ZM339.1,36.461h3.622a1.67,1.67,0,0,0-1.594-1.823A2.189,2.189,0,0,0,339.1,36.461Z" />
    <path
       id="path96"
       d="M351.742,38.584l.407.563a3.291,3.291,0,0,1-2.123.78,2.494,2.494,0,0,1-2.519-2.626,3.333,3.333,0,0,1,3.179-3.407,2.674,2.674,0,0,1,2.194,1.116l-.647.54a1.831,1.831,0,0,0-1.583-.864,2.478,2.478,0,0,0-2.291,2.567,1.83,1.83,0,0,0,1.8,1.906A2.566,2.566,0,0,0,351.742,38.584Z" />
    <path
       id="path98"
       d="M354.9,31.244l.9-.18-.792,3.826a2.387,2.387,0,0,1,1.9-1.007,1.737,1.737,0,0,1,1.739,2.338l-.767,3.6h-.865l.744-3.418c.24-1.079-.252-1.8-1.223-1.8a2.074,2.074,0,0,0-1.655.887l-.9,4.33h-.863Z" />
    <path
       id="path100"
       d="M359.711,38.26a1.987,1.987,0,0,1,2.244-1.883,3.312,3.312,0,0,1,1.93.564l.157-.708c.239-1.079-.216-1.631-1.333-1.631a4.017,4.017,0,0,0-1.678.444l-.24-.684a5.309,5.309,0,0,1,2.075-.479c1.571,0,2.35.863,2.039,2.278l-.816,3.658h-.851l.12-.552a2.69,2.69,0,0,1-1.7.636C360.491,39.9,359.711,39.256,359.711,38.26Zm2.2.983a2.47,2.47,0,0,0,1.594-.6l.252-1.115a2.668,2.668,0,0,0-1.714-.5c-.876,0-1.5.479-1.5,1.139C360.54,38.847,361.042,39.243,361.907,39.243Z" />
    <path
       id="path102"
       d="M367.09,33.967h.852l-.18.851a2.333,2.333,0,0,1,1.835-.935,1.737,1.737,0,0,1,1.739,2.338l-.767,3.6h-.864l.744-3.418c.239-1.079-.252-1.8-1.224-1.8a2.076,2.076,0,0,0-1.6.816l-.96,4.4h-.863Z" />
    <path
       id="path104"
       d="M372.67,37.253a3.216,3.216,0,0,1,3.023-3.347,2.169,2.169,0,0,1,1.859.936l.18-.875h.852l-1.344,6.44a2.3,2.3,0,0,1-2.4,2,4.321,4.321,0,0,1-2.507-.876l.457-.635a3.353,3.353,0,0,0,2,.743,1.536,1.536,0,0,0,1.62-1.307l.227-1.092a2.353,2.353,0,0,1-1.631.648A2.43,2.43,0,0,1,372.67,37.253Zm2.639,1.894a2.171,2.171,0,0,0,1.476-.587l.623-3.023a1.9,1.9,0,0,0-1.607-.863,2.381,2.381,0,0,0-2.279,2.506A1.8,1.8,0,0,0,375.309,39.147Z" />
    <path
       id="path106"
       d="M382.114,39.927a2.56,2.56,0,0,1-2.663-2.7,3.2,3.2,0,0,1,3.01-3.358,2.386,2.386,0,0,1,2.351,2.579,5.812,5.812,0,0,1-.036.636h-4.485V37.2a1.872,1.872,0,0,0,1.859,1.968,2.553,2.553,0,0,0,1.547-.516l.456.624A3.51,3.51,0,0,1,382.114,39.927Zm-1.739-3.466H384a1.671,1.671,0,0,0-1.6-1.823A2.187,2.187,0,0,0,380.375,36.461Z" />
    <path
       id="path108"
       d="M385.991,38.356a2.5,2.5,0,0,0,1.9.875,1.255,1.255,0,0,0,1.391-1.079c0-.408-.239-.636-.888-.828l-.923-.239c-.924-.264-1.355-.744-1.355-1.5a1.827,1.827,0,0,1,2.062-1.727,3.461,3.461,0,0,1,2.291.888l-.527.588a2.968,2.968,0,0,0-1.812-.756c-.743,0-1.235.372-1.235.924,0,.431.229.671.84.839l.936.264c1.007.288,1.426.707,1.426,1.439a2.027,2.027,0,0,1-2.218,1.9,3.214,3.214,0,0,1-2.411-1.032Z" />
  </g>
  <g
     id="g120">
    <path
       id="path112"
       d="M348.943,288.412h.864l-.24,1.067a2.081,2.081,0,0,1,1.763-1.176,1.81,1.81,0,0,1,.612.109l-.18.791a1.5,1.5,0,0,0-.66-.132,2.02,2.02,0,0,0-1.679,1.092l-.9,4.1h-.864Z" />
    <path
       id="path114"
       d="M354.691,294.372a2.56,2.56,0,0,1-2.663-2.7,3.2,3.2,0,0,1,3.011-3.358,2.384,2.384,0,0,1,2.35,2.578,5.812,5.812,0,0,1-.036.636h-4.485v.12a1.872,1.872,0,0,0,1.859,1.967,2.551,2.551,0,0,0,1.547-.516l.456.624A3.51,3.51,0,0,1,354.691,294.372Zm-1.739-3.466h3.622a1.672,1.672,0,0,0-1.6-1.823A2.188,2.188,0,0,0,352.952,290.906Z" />
    <path
       id="path116"
       d="M358.22,292.705a1.985,1.985,0,0,1,2.243-1.882,3.312,3.312,0,0,1,1.931.563l.156-.708c.24-1.079-.216-1.631-1.332-1.631a4.017,4.017,0,0,0-1.678.444l-.241-.684a5.335,5.335,0,0,1,2.076-.479c1.571,0,2.35.863,2.039,2.278l-.816,3.658h-.851l.12-.551a2.694,2.694,0,0,1-1.7.635C359,294.348,358.22,293.7,358.22,292.705Zm2.2.984a2.472,2.472,0,0,0,1.594-.6l.252-1.115a2.675,2.675,0,0,0-1.715-.5c-.876,0-1.5.479-1.5,1.139C359.048,293.293,359.551,293.689,360.416,293.689Z" />
    <path
       id="path118"
       d="M368.633,293.713a2.4,2.4,0,0,1-1.631.635,2.439,2.439,0,0,1-2.327-2.65,3.207,3.207,0,0,1,3.023-3.346,2.184,2.184,0,0,1,1.859.935l.743-3.6.888-.18-1.823,8.755h-.852Zm-1.319-.12a2.188,2.188,0,0,0,1.464-.576L369.4,290a1.854,1.854,0,0,0-1.6-.876,2.381,2.381,0,0,0-2.279,2.507A1.8,1.8,0,0,0,367.314,293.593Z" />
  </g>
  <g
     id="g226">
    <rect
       id="rect122"
       height="284.536"
       width="223.606"
       y="21.641"
       x="31.004"
       class="cls-2" />
    <rect
       id="rect124"
       height="37.756"
       width="188.053"
       y="66.268"
       x="48.78"
       class="cls-3" />
    <rect
       id="rect126"
       height="37.756"
       width="188.053"
       y="112.444"
       x="48.78"
       class="cls-3" />
    <rect
       id="rect128"
       height="37.756"
       width="188.053"
       y="158.62"
       x="48.78"
       class="cls-3" />
    <rect
       id="rect130"
       height="37.756"
       width="188.053"
       y="204.796"
       x="48.78"
       class="cls-3" />
    <rect
       id="rect132"
       height="37.756"
       width="188.053"
       y="250.973"
       x="48.78"
       class="cls-3" />
    <g
       id="g148">
      <path
         id="path134"
         d="M51.61,42.064v5.745H49.715v-8.4h2.59l2.027,4.03,2.015-4.03h2.591v8.4H57v-5.7l-2.687,5.1Z" />
      <path
         id="path136"
         d="M63.585,41.524a3.2,3.2,0,1,1-3.227,3.2A3.151,3.151,0,0,1,63.585,41.524Zm1.343,3.2a1.357,1.357,0,1,0-2.675,0,1.353,1.353,0,1,0,2.675,0Z" />
      <path
         id="path138"
         d="M68.063,41.62h1.943v1.008a2.282,2.282,0,0,1,1.954-1.1,2,2,0,0,1,2.051,2.111v4.174H72.068V44.2a1.029,1.029,0,0,0-1.031-1.151,1.25,1.25,0,0,0-1.031.515v4.246H68.063Z" />
      <path
         id="path140"
         d="M75.359,39.581a1.1,1.1,0,0,1,2.2,0,1.1,1.1,0,0,1-2.2,0Zm2.063,8.228H75.479V41.62h1.943Z" />
      <path
         id="path142"
         d="M79.75,43.119h-1.2v-1.5h1.2V39.905l1.943-.4v2.11h1.655v1.5H81.693v2.4c0,.552.216.743.815.743a2.6,2.6,0,0,0,.792-.131V47.7a5.408,5.408,0,0,1-1.331.192c-1.464,0-2.219-.672-2.219-1.991Z" />
      <path
         id="path144"
         d="M87.381,41.524a3.2,3.2,0,1,1-3.227,3.2A3.151,3.151,0,0,1,87.381,41.524Zm1.343,3.2a1.357,1.357,0,1,0-2.675,0,1.353,1.353,0,1,0,2.675,0Z" />
      <path
         id="path146"
         d="M91.858,41.62H93.8v1.4c.4-1.032.948-1.524,1.679-1.524a1.327,1.327,0,0,1,.648.156v1.667a2.13,2.13,0,0,0-.912-.191A1.709,1.709,0,0,0,93.8,43.9v3.91H91.858Z" />
    </g>
    <g
       id="g170">
      <path
         id="path150"
         d="M67.364,82.353v6.584H66.032V80.542H67.9l2.459,5.085,2.447-5.085H74.68v8.395H73.324V82.389L70.35,88.338Z" />
      <path
         id="path152"
         d="M79.291,82.833a3.113,3.113,0,1,1-3.022,3.106A3,3,0,0,1,79.291,82.833Zm1.679,3.118a1.7,1.7,0,1,0-3.358,0,1.7,1.7,0,1,0,3.358,0Z" />
      <path
         id="path154"
         d="M83.72,82.928h1.356v.984a2.178,2.178,0,0,1,1.906-1.079,2.022,2.022,0,0,1,2.076,2.146v3.958H87.7V85.363a1.294,1.294,0,0,0-1.319-1.439,1.538,1.538,0,0,0-1.307.72v4.293H83.72Z" />
      <path
         id="path156"
         d="M90.536,80.878a.846.846,0,0,1,1.692,0,.846.846,0,0,1-1.692,0Zm1.524,8.059H90.7V82.928H92.06Z" />
      <path
         id="path158"
         d="M94.472,84.008H93.26v-1.08h1.212V81.274l1.355-.288v1.942h1.679v1.08H95.827v3.046c0,.588.228.816.84.816a2.485,2.485,0,0,0,.815-.144v1.139a4.258,4.258,0,0,1-1.163.168c-1.212,0-1.847-.575-1.847-1.679Z" />
      <path
         id="path160"
         d="M101.358,82.833a3.113,3.113,0,1,1-3.022,3.106A3,3,0,0,1,101.358,82.833Zm1.68,3.118a1.7,1.7,0,1,0-3.359,0,1.7,1.7,0,1,0,3.359,0Z" />
      <path
         id="path162"
         d="M105.788,82.928h1.355v1.308a1.781,1.781,0,0,1,1.655-1.415,1.607,1.607,0,0,1,.588.12v1.187a1.912,1.912,0,0,0-.744-.144,1.65,1.65,0,0,0-1.5,1v3.958h-1.355Z" />
      <path
         id="path164"
         d="M113.2,82.928h1.355v.96a2.051,2.051,0,0,1,1.787-1.055A1.888,1.888,0,0,1,118.109,84a2.216,2.216,0,0,1,1.991-1.163,1.991,1.991,0,0,1,1.967,2.182v3.922h-1.355V85.3a1.216,1.216,0,0,0-1.212-1.379,1.432,1.432,0,0,0-1.211.708c.012.131.024.252.024.383v3.922h-1.355V85.3a1.216,1.216,0,0,0-1.211-1.379,1.4,1.4,0,0,0-1.188.684v4.329H113.2Z" />
      <path
         id="path166"
         d="M123.416,87.21c0-1.079.875-1.763,2.291-1.763a3.715,3.715,0,0,1,1.619.372v-.66c0-.791-.456-1.2-1.38-1.2a4.167,4.167,0,0,0-1.751.467l-.48-.983a5.783,5.783,0,0,1,2.495-.611c1.56,0,2.459.791,2.459,2.182v3.922h-1.343v-.612a2.509,2.509,0,0,1-1.787.708A1.894,1.894,0,0,1,123.416,87.21Zm2.494.876a2.144,2.144,0,0,0,1.416-.492v-.983a3.1,3.1,0,0,0-1.392-.288c-.767,0-1.247.335-1.247.863C124.687,87.738,125.167,88.086,125.91,88.086Z" />
      <path
         id="path168"
         d="M130.315,82.928h1.332v.864a2.264,2.264,0,0,1,1.871-.911,2.883,2.883,0,0,1,2.722,3.058A2.912,2.912,0,0,1,133.422,89a2.248,2.248,0,0,1-1.751-.779V91.48h-1.356Zm1.356,1.764V87.2a1.841,1.841,0,0,0,1.439.66,1.924,1.924,0,0,0,0-3.838A1.763,1.763,0,0,0,131.671,84.692Z" />
    </g>
    <g
       id="g184">
      <path
         id="path172"
         d="M69.894,135.245a4.33,4.33,0,1,1,4.246-4.329A4.25,4.25,0,0,1,69.894,135.245Zm.012-7.376a3.053,3.053,0,0,0,0,6.081,3.055,3.055,0,0,0,0-6.081Z" />
      <path
         id="path174"
         d="M75.824,132.823a4.2,4.2,0,0,0,2.819,1.223c1.115,0,1.883-.564,1.883-1.331,0-.684-.408-1-1.524-1.2l-1.546-.263c-1.452-.264-2.16-.984-2.16-2.135,0-1.511,1.212-2.519,3.095-2.519a5.6,5.6,0,0,1,3.37,1.092l-.732,1.079a4.351,4.351,0,0,0-2.686-.971c-1.008,0-1.667.5-1.667,1.187,0,.6.371.911,1.3,1.055l1.487.264c1.691.288,2.483,1.032,2.483,2.3,0,1.535-1.367,2.627-3.37,2.627a5.284,5.284,0,0,1-3.526-1.356Z" />
      <path
         id="path176"
         d="M83.408,126.718h3.071a4.2,4.2,0,1,1,0,8.4H83.408Zm1.44,1.248v5.9h1.667a2.963,2.963,0,0,0,0-5.9Z" />
      <path
         id="path178"
         d="M94.844,129.1H96.2v.959a2.051,2.051,0,0,1,1.787-1.055,1.887,1.887,0,0,1,1.763,1.163,2.218,2.218,0,0,1,1.991-1.163,1.991,1.991,0,0,1,1.967,2.183v3.922h-1.355V131.48a1.216,1.216,0,0,0-1.211-1.38,1.432,1.432,0,0,0-1.212.708c.012.132.024.252.024.384v3.922H98.6V131.48a1.216,1.216,0,0,0-1.211-1.38,1.4,1.4,0,0,0-1.188.684v4.33H94.844Z" />
      <path
         id="path180"
         d="M105.056,133.386c0-1.079.876-1.763,2.291-1.763a3.711,3.711,0,0,1,1.619.372v-.659c0-.792-.456-1.2-1.379-1.2a4.152,4.152,0,0,0-1.751.468l-.48-.984a5.78,5.78,0,0,1,2.5-.611c1.559,0,2.459.792,2.459,2.183v3.922h-1.344V134.5a2.512,2.512,0,0,1-1.787.708A1.9,1.9,0,0,1,105.056,133.386Zm2.5.876a2.14,2.14,0,0,0,1.415-.492v-.983a3.107,3.107,0,0,0-1.391-.288c-.768,0-1.247.336-1.247.864C106.328,133.914,106.807,134.262,107.551,134.262Z" />
      <path
         id="path182"
         d="M111.956,129.1h1.331v.864a2.263,2.263,0,0,1,1.871-.912,2.883,2.883,0,0,1,2.722,3.058,2.913,2.913,0,0,1-2.818,3.059,2.247,2.247,0,0,1-1.751-.78v3.262h-1.355Zm1.355,1.763v2.506a1.841,1.841,0,0,0,1.439.66,1.924,1.924,0,0,0,0-3.838A1.763,1.763,0,0,0,113.311,130.868Z" />
    </g>
    <g
       id="g196">
      <path
         id="path186"
         d="M66.032,172.894h3.754a2.6,2.6,0,1,1,0,5.194H67.472v3.2h-1.44Zm1.44,1.212v2.806h2.087a1.413,1.413,0,1,0,.011-2.806Z" />
      <path
         id="path188"
         d="M78.114,181.422a4.33,4.33,0,0,1-.024-8.66,4.4,4.4,0,0,1,3.394,1.488l-1.007.923a3,3,0,0,0-2.387-1.127,3.06,3.06,0,0,0,.036,6.105,2.529,2.529,0,0,0,2.555-2.22H78.174v-1.223H82.18v.468A4.061,4.061,0,0,1,78.114,181.422Z" />
      <path
         id="path190"
         d="M86.336,175.281h1.355v.959a2.052,2.052,0,0,1,1.788-1.055,1.887,1.887,0,0,1,1.762,1.163,2.218,2.218,0,0,1,1.991-1.163,1.991,1.991,0,0,1,1.967,2.183v3.922H93.844v-3.634a1.216,1.216,0,0,0-1.211-1.379,1.431,1.431,0,0,0-1.212.707c.012.132.024.252.024.384v3.922H90.09v-3.634a1.216,1.216,0,0,0-1.211-1.379,1.4,1.4,0,0,0-1.188.683v4.33H86.336Z" />
      <path
         id="path192"
         d="M96.548,179.563c0-1.08.875-1.763,2.291-1.763a3.715,3.715,0,0,1,1.619.372v-.66c0-.792-.456-1.2-1.379-1.2a4.149,4.149,0,0,0-1.751.467l-.48-.983a5.767,5.767,0,0,1,2.494-.612c1.559,0,2.459.792,2.459,2.183v3.922h-1.343v-.612a2.507,2.507,0,0,1-1.787.707A1.894,1.894,0,0,1,96.548,179.563Zm2.494.875a2.147,2.147,0,0,0,1.416-.491v-.984a3.111,3.111,0,0,0-1.392-.288c-.767,0-1.247.336-1.247.864C97.819,180.091,98.3,180.438,99.042,180.438Z" />
      <path
         id="path194"
         d="M103.448,175.281h1.331v.864a2.265,2.265,0,0,1,1.871-.912,3.074,3.074,0,0,1-.1,6.117,2.247,2.247,0,0,1-1.751-.78v3.262h-1.355Zm1.355,1.763v2.507a1.845,1.845,0,0,0,1.439.659,1.924,1.924,0,0,0,0-3.838A1.764,1.764,0,0,0,104.8,177.044Z" />
    </g>
    <g
       id="g210">
      <path
         id="path198"
         d="M67.364,220.881v6.585H66.032v-8.4H67.9l2.459,5.086,2.447-5.086H74.68v8.4H73.324v-6.549l-2.974,5.949Z" />
      <path
         id="path200"
         d="M76.712,219.07h3.071a4.2,4.2,0,1,1,0,8.4H76.712Zm1.44,1.248v5.9h1.667a2.964,2.964,0,0,0,0-5.9Z" />
      <path
         id="path202"
         d="M85.676,225.175A4.2,4.2,0,0,0,88.5,226.4c1.115,0,1.883-.563,1.883-1.331,0-.684-.408-1-1.523-1.2l-1.547-.263c-1.452-.264-2.16-.984-2.16-2.135,0-1.511,1.212-2.519,3.095-2.519a5.606,5.606,0,0,1,3.37,1.092l-.732,1.079a4.351,4.351,0,0,0-2.686-.971c-1.007,0-1.667.5-1.667,1.187,0,.6.371.911,1.295,1.055l1.488.264c1.69.288,2.482,1.032,2.482,2.3,0,1.535-1.367,2.627-3.37,2.627A5.29,5.29,0,0,1,84.9,226.23Z" />
      <path
         id="path204"
         d="M95.792,221.457h1.355v.959a2.052,2.052,0,0,1,1.788-1.055,1.887,1.887,0,0,1,1.762,1.163,2.218,2.218,0,0,1,1.991-1.163,1.99,1.99,0,0,1,1.967,2.183v3.922H103.3v-3.634a1.216,1.216,0,0,0-1.211-1.38,1.432,1.432,0,0,0-1.212.708c.012.132.024.252.024.384v3.922H99.546v-3.634a1.216,1.216,0,0,0-1.211-1.38,1.4,1.4,0,0,0-1.188.684v4.33H95.792Z" />
      <path
         id="path206"
         d="M106,225.739c0-1.08.875-1.764,2.291-1.764a3.715,3.715,0,0,1,1.619.372v-.659c0-.792-.456-1.2-1.379-1.2a4.152,4.152,0,0,0-1.751.467l-.48-.984a5.779,5.779,0,0,1,2.494-.611c1.559,0,2.459.792,2.459,2.183v3.922h-1.343v-.612a2.511,2.511,0,0,1-1.787.707A1.894,1.894,0,0,1,106,225.739Zm2.495.875a2.141,2.141,0,0,0,1.415-.492v-.983a3.111,3.111,0,0,0-1.392-.288c-.767,0-1.247.336-1.247.864C107.275,226.266,107.755,226.614,108.5,226.614Z" />
      <path
         id="path208"
         d="M112.9,221.457h1.331v.864a2.265,2.265,0,0,1,1.871-.912,2.884,2.884,0,0,1,2.723,3.058,2.914,2.914,0,0,1-2.819,3.059,2.247,2.247,0,0,1-1.751-.78v3.262H112.9Zm1.355,1.763v2.506a1.843,1.843,0,0,0,1.439.66,1.924,1.924,0,0,0,0-3.838A1.764,1.764,0,0,0,114.259,223.22Z" />
    </g>
    <g
       id="g224">
      <path
         id="path212"
         d="M67.364,267.058v6.584H66.032v-8.395H67.9l2.459,5.085,2.447-5.085H74.68v8.395H73.324v-6.548l-2.974,5.949Z" />
      <path
         id="path214"
         d="M80.646,273.774a4.33,4.33,0,0,1-.023-8.659,4.4,4.4,0,0,1,3.394,1.487l-1.008.924a3,3,0,0,0-2.386-1.128,3.06,3.06,0,0,0,.035,6.1,2.529,2.529,0,0,0,2.555-2.219H80.707v-1.223h4.005v.468A4.06,4.06,0,0,1,80.646,273.774Z" />
      <path
         id="path216"
         d="M86.336,265.247h3.73a2.559,2.559,0,0,1,2.807,2.543,2.387,2.387,0,0,1-1.656,2.3l1.763,3.549H91.385l-1.619-3.358H87.775v3.358H86.336Zm1.439,1.211v2.675h2.171a1.344,1.344,0,1,0,0-2.675Z" />
      <path
         id="path218"
         d="M96.932,267.634h1.356v.959a2.049,2.049,0,0,1,1.787-1.055,1.885,1.885,0,0,1,1.762,1.163,2.217,2.217,0,0,1,1.992-1.163,1.99,1.99,0,0,1,1.966,2.182v3.922H104.44v-3.633a1.216,1.216,0,0,0-1.211-1.38,1.43,1.43,0,0,0-1.211.708c.011.132.024.252.024.383v3.922h-1.356v-3.633a1.216,1.216,0,0,0-1.211-1.38,1.394,1.394,0,0,0-1.187.684v4.329H96.932Z" />
      <path
         id="path220"
         d="M107.144,271.915c0-1.079.876-1.763,2.291-1.763a3.711,3.711,0,0,1,1.619.372v-.66c0-.791-.456-1.2-1.379-1.2a4.152,4.152,0,0,0-1.751.468l-.48-.984a5.779,5.779,0,0,1,2.494-.611c1.56,0,2.459.791,2.459,2.182v3.922h-1.343v-.611a2.511,2.511,0,0,1-1.787.707A1.9,1.9,0,0,1,107.144,271.915Zm2.495.876a2.141,2.141,0,0,0,1.415-.492v-.983a3.11,3.11,0,0,0-1.391-.288c-.768,0-1.247.336-1.247.863C108.416,272.443,108.9,272.791,109.639,272.791Z" />
      <path
         id="path222"
         d="M114.043,267.634h1.332v.863a2.265,2.265,0,0,1,1.871-.911,2.883,2.883,0,0,1,2.722,3.058,2.912,2.912,0,0,1-2.818,3.058,2.245,2.245,0,0,1-1.751-.779v3.262h-1.356ZM115.4,269.4V271.9a1.841,1.841,0,0,0,1.439.66,1.924,1.924,0,0,0,0-3.838A1.763,1.763,0,0,0,115.4,269.4Z" />
    </g>
  </g>
  <g
     id="g232">
    <polyline
       id="polyline228"
       points="254.609 48.468 469.088 48.468 469.088 87.468"
       class="cls-4" />
    <polygon
       id="polygon230"
       points="464.102 86.009 469.087 94.644 474.074 86.009 464.102 86.009"
       class="cls-5" />
  </g>
  <g
     id="g238">
    <polyline
       id="polyline234"
       points="254.609 279.349 469.088 279.349 469.088 240.349"
       class="cls-4" />
    <polygon
       id="polygon236"
       points="474.074 241.807 469.088 233.173 464.102 241.807 474.074 241.807"
       class="cls-5" />
  </g>
  <g
     id="g244">
    <line
       id="line240"
       y2="188.241"
       x2="469.088"
       y1="132.4"
       x1="469.088"
       class="cls-4" />
    <polygon
       id="polygon242"
       points="464.102 186.782 469.087 195.417 474.074 186.782 464.102 186.782"
       class="cls-5" />
  </g>
</svg>
