<svg id="Layer_1" data-name="Layer 1" xmlns="http://www.w3.org/2000/svg" width="8.268in" height="4.997in" viewBox="0 0 595.276 359.782">
  <defs>
    <style>
      .cls-1 {
        fill: #e6e6e6;
      }

      .cls-10, .cls-2 {
        fill: none;
      }

      .cls-2 {
        stroke: #000;
      }

      .cls-2, .cls-7, .cls-8, .cls-9 {
        stroke-miterlimit: 10;
      }

      .cls-3 {
        fill: #06c;
      }

      .cls-4, .cls-5, .cls-6, .cls-8, .cls-9 {
        fill: #fff;
      }

      .cls-4 {
        stroke: #0c1515;
      }

      .cls-10, .cls-4, .cls-6 {
        stroke-linecap: round;
        stroke-linejoin: round;
      }

      .cls-6 {
        stroke: #0b1515;
      }

      .cls-7 {
        fill: #151515;
        stroke: #e6e6e6;
      }

      .cls-8, .cls-9 {
        stroke: #fff;
      }

      .cls-9 {
        stroke-width: 0.75px;
      }

      .cls-10 {
        stroke: #06c;
      }
    </style>
  </defs>
  <rect class="cls-1" x="61.27" y="20.016" width="97.543" height="97.543"/>
  <rect class="cls-1" x="60.823" y="234.05" width="259.12" height="109.584"/>
  <rect class="cls-1" x="61.27" y="127.033" width="97.543" height="97.543"/>
  <rect class="cls-1" x="222.4" y="127.033" width="97.543" height="97.543"/>
  <rect class="cls-1" x="222.4" y="20.016" width="97.543" height="97.543"/>
  <g>
    <path d="M80.145,83.292H81.4l2.439,6.3H82.675l-.639-1.765H79.443L78.8,89.594H77.67Zm1.576,3.691L80.748,84.3l-.99,2.682Z"/>
    <path d="M84.519,85.084h1.017v.72a1.537,1.537,0,0,1,1.341-.793,1.419,1.419,0,0,1,1.324.874,1.664,1.664,0,0,1,1.494-.874,1.5,1.5,0,0,1,1.476,1.639v2.944H90.154V86.866a.912.912,0,0,0-.909-1.035,1.074,1.074,0,0,0-.909.531c.009.1.018.189.018.288v2.944H87.337V86.866a.913.913,0,0,0-.91-1.035,1.046,1.046,0,0,0-.891.513v3.25H84.519Z"/>
    <path d="M92.177,88.3c0-.81.658-1.324,1.72-1.324a2.787,2.787,0,0,1,1.215.279v-.5c0-.594-.342-.9-1.035-.9a3.124,3.124,0,0,0-1.315.351l-.36-.738a4.332,4.332,0,0,1,1.873-.46c1.17,0,1.845.595,1.845,1.639v2.944H95.112v-.459a1.882,1.882,0,0,1-1.341.531A1.422,1.422,0,0,1,92.177,88.3Zm1.873.657a1.608,1.608,0,0,0,1.062-.369v-.739a2.347,2.347,0,0,0-1.044-.215c-.576,0-.937.252-.937.648C93.131,88.694,93.492,88.955,94.05,88.955Z"/>
    <path d="M97.073,88.847l2.323-2.89-2.305.009v-.882h3.557v.747l-2.341,2.9,2.394-.009v.873H97.073Z"/>
    <path d="M103.617,85.011a2.338,2.338,0,1,1-2.269,2.333A2.252,2.252,0,0,1,103.617,85.011Zm1.26,2.341a1.275,1.275,0,1,0-2.52,0,1.272,1.272,0,1,0,2.52,0Z"/>
    <path d="M106.937,85.084h1.017v.738a1.638,1.638,0,0,1,1.432-.811,1.518,1.518,0,0,1,1.557,1.612v2.971h-1.017V86.911a.971.971,0,0,0-.99-1.08,1.156,1.156,0,0,0-.982.54v3.223h-1.017Z"/>
    <path d="M114.371,87.874a3.151,3.151,0,0,0,2.116.919c.837,0,1.413-.424,1.413-1,0-.512-.306-.747-1.143-.9l-1.162-.2c-1.089-.2-1.62-.738-1.62-1.6,0-1.135.909-1.891,2.323-1.891a4.2,4.2,0,0,1,2.529.819l-.549.811a3.263,3.263,0,0,0-2.016-.73c-.757,0-1.252.379-1.252.891,0,.451.28.685.973.793l1.116.2c1.269.216,1.864.774,1.864,1.729,0,1.152-1.027,1.971-2.53,1.971a3.969,3.969,0,0,1-2.647-1.017Z"/>
    <path d="M121.932,89.684a3.166,3.166,0,0,1-2.332-.945l.666-.622a2.063,2.063,0,0,0,1.656.7c.811,0,1.369-.423,1.369-1.044a1,1,0,0,0-1.116-.946h-.783v-.819h.7a.913.913,0,0,0,1-.945,1.087,1.087,0,0,0-1.2-1,1.946,1.946,0,0,0-1.567.748l-.666-.621a3.05,3.05,0,0,1,2.269-1,1.921,1.921,0,0,1,2.151,1.765,1.514,1.514,0,0,1-1.224,1.44,1.561,1.561,0,0,1,1.422,1.441C124.281,88.91,123.3,89.684,121.932,89.684Z"/>
    <path d="M127.2,88.3c0-.81.657-1.324,1.719-1.324a2.784,2.784,0,0,1,1.215.279v-.5c0-.594-.341-.9-1.035-.9a3.12,3.12,0,0,0-1.314.351l-.36-.738a4.332,4.332,0,0,1,1.873-.46c1.17,0,1.845.595,1.845,1.639v2.944H130.13v-.459a1.881,1.881,0,0,1-1.341.531A1.422,1.422,0,0,1,127.2,88.3Zm1.872.657a1.608,1.608,0,0,0,1.062-.369v-.739a2.339,2.339,0,0,0-1.043-.215c-.577,0-.937.252-.937.648C128.15,88.694,128.51,88.955,129.068,88.955Z"/>
    <path d="M132.371,85.084h1.017v.738a1.637,1.637,0,0,1,1.431-.811,1.519,1.519,0,0,1,1.558,1.612v2.971h-1.018V86.911a.971.971,0,0,0-.99-1.08,1.156,1.156,0,0,0-.981.54v3.223h-1.017Z"/>
    <path d="M140.831,88.991a1.735,1.735,0,0,1-1.386.648,2.307,2.307,0,0,1,.063-4.591,1.72,1.72,0,0,1,1.314.594V83.157l1.017-.171v6.608h-1.008Zm-1.08-.207a1.349,1.349,0,0,0,1.071-.5v-1.9a1.4,1.4,0,0,0-1.071-.486,1.444,1.444,0,0,0,0,2.881Z"/>
    <path d="M88.064,99.187a2.6,2.6,0,0,0,1.45.513c.54,0,.909-.243.909-.6,0-.279-.189-.432-.621-.513l-.8-.135c-.874-.162-1.306-.567-1.306-1.242,0-.846.693-1.4,1.747-1.4a3.174,3.174,0,0,1,1.773.541l-.477.666a2.464,2.464,0,0,0-1.359-.432c-.469,0-.775.2-.775.531,0,.288.162.414.639.495l.793.144c.9.171,1.332.585,1.332,1.26a1.653,1.653,0,0,1-1.837,1.468,3.025,3.025,0,0,1-1.944-.612Z"/>
    <path d="M93.1,100.394l-1.215-4.51h.972l.793,3.187.927-3.187h.864l.927,3.195.784-3.195H98.1l-1.216,4.51H95.9L95,97.216l-.909,3.178Z"/>
    <path d="M98.81,94.344a.635.635,0,0,1,1.269,0,.635.635,0,0,1-1.269,0Zm1.143,6.05H98.936v-4.51h1.017Z"/>
    <path d="M101.816,95.884v-.8a1.384,1.384,0,0,1,1.558-1.512,2.452,2.452,0,0,1,.675.09v.864a2.078,2.078,0,0,0-.54-.072c-.468,0-.675.207-.675.648v.784h1.215v.81h-1.215v3.7h-1.018v-3.7h-.972v-.81Z"/>
    <path d="M105.551,96.694h-.909v-.81h.909V94.641l1.017-.216v1.459h1.261v.81h-1.261V98.98c0,.442.171.613.631.613a1.868,1.868,0,0,0,.612-.108v.855a3.2,3.2,0,0,1-.873.126c-.91,0-1.387-.433-1.387-1.261Z"/>
    <path d="M111.734,98.566a.972.972,0,0,0,.99,1.081,1.14,1.14,0,0,0,.99-.558v-3.2h1.018v4.51h-1.018v-.747a1.649,1.649,0,0,1-1.44.819,1.514,1.514,0,0,1-1.558-1.612v-2.97h1.018Z"/>
    <path d="M116.053,99.187a2.6,2.6,0,0,0,1.45.513c.54,0,.909-.243.909-.6,0-.279-.189-.432-.621-.513l-.8-.135c-.874-.162-1.306-.567-1.306-1.242,0-.846.694-1.4,1.747-1.4a3.174,3.174,0,0,1,1.773.541l-.477.666a2.464,2.464,0,0,0-1.359-.432c-.468,0-.775.2-.775.531,0,.288.162.414.64.495l.792.144c.9.171,1.333.585,1.333,1.26a1.654,1.654,0,0,1-1.837,1.468,3.026,3.026,0,0,1-1.945-.612Z"/>
    <path d="M122.426,100.484a2.294,2.294,0,0,1-2.3-2.341,2.222,2.222,0,0,1,2.2-2.332,2.166,2.166,0,0,1,2.134,2.323v.252h-3.332a1.379,1.379,0,0,0,1.351,1.233,1.464,1.464,0,0,0,1.071-.422l.666.621A2.608,2.608,0,0,1,122.426,100.484Zm-1.278-2.719H123.5a1.234,1.234,0,0,0-1.179-1.125A1.211,1.211,0,0,0,121.148,97.765Z"/>
    <path d="M125.5,95.884h1.017v.98a1.338,1.338,0,0,1,1.242-1.062,1.205,1.205,0,0,1,.441.09v.892a1.434,1.434,0,0,0-.558-.108,1.237,1.237,0,0,0-1.125.747v2.971H125.5Z"/>
    <path d="M129.112,99.187a2.6,2.6,0,0,0,1.45.513c.54,0,.909-.243.909-.6,0-.279-.189-.432-.621-.513l-.8-.135c-.873-.162-1.305-.567-1.305-1.242,0-.846.693-1.4,1.746-1.4a3.175,3.175,0,0,1,1.774.541l-.477.666a2.47,2.47,0,0,0-1.36-.432c-.468,0-.774.2-.774.531,0,.288.162.414.639.495l.793.144c.9.171,1.332.585,1.332,1.26a1.653,1.653,0,0,1-1.837,1.468,3.025,3.025,0,0,1-1.944-.612Z"/>
  </g>
  <g>
    <path d="M339.02,62.139l.271.376a2.193,2.193,0,0,1-1.415.519,1.663,1.663,0,0,1-1.68-1.751,2.221,2.221,0,0,1,2.12-2.27,1.78,1.78,0,0,1,1.462.744l-.431.359a1.22,1.22,0,0,0-1.056-.575,1.651,1.651,0,0,0-1.526,1.711,1.22,1.22,0,0,0,1.2,1.271A1.714,1.714,0,0,0,339.02,62.139Z"/>
    <path d="M340.509,62.963h-.576l1.2-5.717.592-.12Z"/>
    <path d="M342.269,62.963h-.577l.856-3.9h.568Zm.4-5.238a.479.479,0,0,1,.456-.463.367.367,0,0,1,.367.375.467.467,0,0,1-.455.464A.359.359,0,0,1,342.668,57.725Z"/>
    <path d="M345.467,63.034a1.706,1.706,0,0,1-1.775-1.8A2.134,2.134,0,0,1,345.7,59a1.591,1.591,0,0,1,1.568,1.719,3.849,3.849,0,0,1-.025.423h-2.99v.08a1.249,1.249,0,0,0,1.239,1.312,1.7,1.7,0,0,0,1.032-.344l.3.416A2.339,2.339,0,0,1,345.467,63.034Zm-1.159-2.31h2.415a1.114,1.114,0,0,0-1.064-1.215A1.458,1.458,0,0,0,344.308,60.724Z"/>
    <path d="M348.668,59.061h.567l-.12.568a1.557,1.557,0,0,1,1.224-.624,1.158,1.158,0,0,1,1.159,1.559l-.512,2.4h-.575l.5-2.279c.161-.72-.168-1.2-.815-1.2a1.388,1.388,0,0,0-1.064.543l-.639,2.935h-.575Z"/>
    <path d="M353.212,59.541h-.783l.111-.48h.776l.224-1.072.615-.136-.263,1.208H355l-.112.48h-1.1l-.512,2.358c-.095.448.049.624.537.624a1.465,1.465,0,0,0,.448-.08l-.112.52a2.3,2.3,0,0,1-.568.071c-.712,0-1.04-.359-.895-1.007Z"/>
    <path d="M355.748,62.547a.488.488,0,0,1-.456.48.375.375,0,0,1-.376-.392.484.484,0,0,1,.464-.48A.373.373,0,0,1,355.748,62.547Z"/>
    <path d="M357.524,59.061h.576l-.16.711a1.387,1.387,0,0,1,1.175-.783,1.2,1.2,0,0,1,.408.072l-.121.528a.979.979,0,0,0-.439-.088,1.346,1.346,0,0,0-1.119.727l-.6,2.735h-.576Z"/>
    <path d="M359.58,61.252a2.143,2.143,0,0,1,2.016-2.231,1.449,1.449,0,0,1,1.239.623l.119-.583h.569l-.9,4.293a1.535,1.535,0,0,1-1.6,1.336,2.878,2.878,0,0,1-1.67-.584l.3-.424a2.236,2.236,0,0,0,1.336.5,1.024,1.024,0,0,0,1.079-.872l.152-.727a1.568,1.568,0,0,1-1.087.431A1.619,1.619,0,0,1,359.58,61.252Zm1.76,1.263a1.448,1.448,0,0,0,.983-.392l.415-2.015a1.262,1.262,0,0,0-1.071-.576,1.586,1.586,0,0,0-1.518,1.672A1.2,1.2,0,0,0,361.34,62.515Z"/>
    <path d="M364.54,62.963l-.2-3.9h.544l.128,3.118,1.575-3.118h.512l.247,3.118,1.456-3.118h.567l-1.9,3.9h-.56l-.231-3.142L365.1,62.963Z"/>
    <path d="M369.932,62.547a.488.488,0,0,1-.455.48.375.375,0,0,1-.376-.392.484.484,0,0,1,.464-.48A.372.372,0,0,1,369.932,62.547Z"/>
    <path d="M373.4,62.6a1.6,1.6,0,0,1-1.087.424,1.626,1.626,0,0,1-1.552-1.767,2.138,2.138,0,0,1,2.016-2.231,1.459,1.459,0,0,1,1.239.623l.495-2.4.592-.12-1.215,5.837h-.568Zm-.879-.08a1.454,1.454,0,0,0,.974-.384l.416-2.015a1.235,1.235,0,0,0-1.063-.584,1.587,1.587,0,0,0-1.519,1.672A1.2,1.2,0,0,0,372.516,62.515Z"/>
    <path d="M377.1,63.034a1.706,1.706,0,0,1-1.775-1.8A2.134,2.134,0,0,1,377.331,59a1.591,1.591,0,0,1,1.568,1.719,3.849,3.849,0,0,1-.025.423h-2.99v.08a1.249,1.249,0,0,0,1.239,1.312,1.7,1.7,0,0,0,1.031-.344l.3.416A2.339,2.339,0,0,1,377.1,63.034Zm-1.159-2.31h2.415a1.115,1.115,0,0,0-1.064-1.215A1.458,1.458,0,0,0,375.94,60.724Z"/>
    <path d="M380.3,59.061h.567l-.128.6a1.527,1.527,0,0,1,1.192-.655,1.037,1.037,0,0,1,1.063.792,1.782,1.782,0,0,1,1.392-.792c.791,0,1.23.648,1.039,1.511l-.527,2.447h-.569l.512-2.383c.144-.64-.159-1.095-.72-1.095a1.387,1.387,0,0,0-1.087.647,1.65,1.65,0,0,1-.04.384l-.527,2.447h-.576l.5-2.327c.151-.68-.144-1.151-.712-1.151a1.309,1.309,0,0,0-1.032.575l-.631,2.9h-.576Z"/>
    <path d="M388.355,58.989a1.68,1.68,0,0,1,1.687,1.823,2.16,2.16,0,0,1-2.055,2.231,1.693,1.693,0,0,1-1.679-1.824A2.147,2.147,0,0,1,388.355,58.989Zm1.111,1.823a1.17,1.17,0,0,0-1.135-1.311,1.6,1.6,0,0,0-1.455,1.711,1.177,1.177,0,0,0,1.143,1.311A1.587,1.587,0,0,0,389.466,60.812Z"/>
  </g>
  <g>
    <path d="M168.578,49.067a2.661,2.661,0,0,0,1.879.96c.687,0,1.175-.376,1.175-.9,0-.376-.232-.575-.879-.759l-.976-.256a1.4,1.4,0,0,1-1.215-1.36c0-1.023.8-1.7,2.023-1.7a3.325,3.325,0,0,1,2.318.9l-.584.664a2.534,2.534,0,0,0-1.791-.768c-.639,0-1.055.312-1.055.784,0,.351.232.575.752.711l.935.24c.96.248,1.407.7,1.407,1.407a1.925,1.925,0,0,1-2.174,1.823,3.163,3.163,0,0,1-2.407-1.079Z"/>
    <path d="M175.009,50.81a2.33,2.33,0,0,1-2.063-.991l.663-.512a1.588,1.588,0,0,0,1.456.727c.695,0,1.223-.407,1.223-.943a.779.779,0,0,0-.807-.815h-.68l.152-.736h.615c.632,0,1.072-.352,1.072-.847a.9.9,0,0,0-.984-.856,2.085,2.085,0,0,0-1.391.56l-.456-.584a3.065,3.065,0,0,1,1.967-.744,1.569,1.569,0,0,1,1.743,1.463,1.537,1.537,0,0,1-1.375,1.408,1.2,1.2,0,0,1,1,1.127A1.952,1.952,0,0,1,175.009,50.81Z"/>
    <path d="M179.658,49.675c0-.784.616-1.288,1.575-1.288a2.578,2.578,0,0,1,1.183.28l.072-.335c.136-.616-.151-.92-.855-.92a3.016,3.016,0,0,0-1.087.248L180.33,47a4.355,4.355,0,0,1,1.519-.327c1.167,0,1.742.623,1.527,1.631l-.536,2.43h-.879l.08-.36a1.749,1.749,0,0,1-1.1.408C180.162,50.778,179.658,50.346,179.658,49.675Zm1.607.472a1.473,1.473,0,0,0,.887-.288l.152-.68a1.955,1.955,0,0,0-.959-.208c-.52,0-.856.248-.856.624C180.489,49.947,180.769,50.147,181.265,50.147Z"/>
    <path d="M184.777,46.724h.9l-.127.6a1.647,1.647,0,0,1,1.279-.647,1.12,1.12,0,0,1,1.119,1.519L187.4,50.73h-.888l.5-2.326c.136-.6-.144-1.016-.7-1.016a1.18,1.18,0,0,0-.887.432l-.632,2.91h-.9Z"/>
    <path d="M191.352,50.346a1.511,1.511,0,0,1-1.063.424,1.673,1.673,0,0,1-1.559-1.823,2.163,2.163,0,0,1,2.046-2.254,1.384,1.384,0,0,1,1.208.615l.479-2.3.92-.151-1.231,5.868h-.88Zm-.7-.327a1.223,1.223,0,0,0,.839-.336l.368-1.759a1.148,1.148,0,0,0-.943-.464,1.342,1.342,0,0,0-1.3,1.415A1.051,1.051,0,0,0,190.649,50.019Z"/>
    <path d="M195.417,49.571a1.945,1.945,0,0,0,1.3.552c.423,0,.743-.24.743-.552,0-.208-.136-.336-.472-.424l-.679-.184c-.624-.168-.936-.519-.936-1.039,0-.776.584-1.264,1.5-1.264a2.53,2.53,0,0,1,1.632.592l-.5.56a2.021,2.021,0,0,0-1.191-.472c-.408,0-.656.184-.656.472,0,.232.12.344.464.44l.679.183c.664.184.984.5.984,1.008a1.46,1.46,0,0,1-1.592,1.375,2.559,2.559,0,0,1-1.775-.671Z"/>
    <path d="M199.377,50.73l-.2-4.006h.832l.088,2.831,1.407-2.831h.751l.208,2.831,1.28-2.831h.847l-1.927,4.006h-.855l-.184-2.822-1.391,2.822Z"/>
    <path d="M205.345,50.73h-.9l.872-4.006h.9Zm.112-5.309a.639.639,0,0,1,.615-.623.493.493,0,0,1,.5.495.628.628,0,0,1-.624.616A.475.475,0,0,1,205.457,45.421Z"/>
    <path d="M207.808,46.724l.168-.807a1.423,1.423,0,0,1,1.471-1.247,2.068,2.068,0,0,1,.72.119l-.16.768a1.535,1.535,0,0,0-.527-.1.57.57,0,0,0-.624.536l-.152.727h1.087l-.167.72h-1.072l-.695,3.286h-.888l.687-3.286h-.823l.168-.72Z"/>
    <path d="M210.936,47.444h-.783l.16-.72h.775l.232-1.1.935-.192-.279,1.295h1.095l-.16.72h-1.087l-.432,2.007c-.1.416.048.576.5.576a1.714,1.714,0,0,0,.456-.064l-.16.751a2.937,2.937,0,0,1-.68.08c-.832,0-1.207-.424-1.039-1.183Z"/>
    <path d="M163.774,59.275c0-.784.616-1.287,1.575-1.287a2.59,2.59,0,0,1,1.183.279l.073-.336c.135-.615-.152-.919-.856-.919a3.016,3.016,0,0,0-1.087.248l-.216-.664a4.359,4.359,0,0,1,1.519-.328c1.167,0,1.743.624,1.527,1.632l-.536,2.43h-.879l.08-.36a1.743,1.743,0,0,1-1.1.408C164.278,60.378,163.774,59.947,163.774,59.275Zm1.607.472a1.471,1.471,0,0,0,.888-.288l.152-.68a1.959,1.959,0,0,0-.96-.208c-.519,0-.855.248-.855.624C164.606,59.547,164.885,59.747,165.381,59.747Z"/>
    <path d="M169.206,58.651c-.137.608.143,1.016.7,1.016a1.179,1.179,0,0,0,.895-.44l.625-2.9h.9l-.872,4.006h-.887l.128-.608a1.661,1.661,0,0,1-1.287.656,1.131,1.131,0,0,1-1.12-1.519l.544-2.535h.887Z"/>
    <path d="M173.742,57.044h-.784l.16-.72h.776l.232-1.1.935-.192-.28,1.295h1.1l-.161.72h-1.087l-.432,2.007c-.1.416.048.576.5.576a1.714,1.714,0,0,0,.456-.064l-.16.751a2.937,2.937,0,0,1-.68.08c-.831,0-1.207-.424-1.039-1.183Z"/>
    <path d="M176.981,54.614l.928-.152-.52,2.51a1.676,1.676,0,0,1,1.319-.7,1.123,1.123,0,0,1,1.12,1.519l-.544,2.534H178.4L178.9,58c.128-.6-.144-1.016-.695-1.016a1.205,1.205,0,0,0-.92.464l-.6,2.878h-.9Z"/>
    <path d="M182.492,60.41a1.8,1.8,0,0,1-1.886-1.863,2.211,2.211,0,0,1,2.11-2.279,1.643,1.643,0,0,1,1.671,1.767,3.441,3.441,0,0,1-.031.512h-2.887a1.081,1.081,0,0,0,1.1,1.112,1.342,1.342,0,0,0,.911-.328l.487.592A2.409,2.409,0,0,1,182.492,60.41ZM181.541,58h2.047a.951.951,0,0,0-.919-.984A1.213,1.213,0,0,0,181.541,58Z"/>
    <path d="M185.725,56.324h.9l-.128.6a1.649,1.649,0,0,1,1.279-.647,1.12,1.12,0,0,1,1.12,1.519l-.544,2.534h-.887l.5-2.326c.136-.6-.144-1.016-.7-1.016a1.183,1.183,0,0,0-.887.432l-.632,2.91h-.895Z"/>
    <path d="M190.5,57.044h-.784l.16-.72h.775l.232-1.1.935-.192-.279,1.295h1.095l-.16.72h-1.087l-.432,2.007c-.1.416.048.576.5.576a1.718,1.718,0,0,0,.456-.064l-.161.751a2.921,2.921,0,0,1-.679.08c-.831,0-1.207-.424-1.039-1.183Z"/>
    <path d="M193.445,60.33h-.895l.871-4.006h.9Zm.112-5.309a.639.639,0,0,1,.616-.623.493.493,0,0,1,.5.495.628.628,0,0,1-.624.616A.475.475,0,0,1,193.557,55.021Z"/>
    <path d="M197.636,59.259l.432.567a2.207,2.207,0,0,1-1.5.584A1.741,1.741,0,0,1,194.79,58.6a2.266,2.266,0,0,1,2.182-2.327,1.873,1.873,0,0,1,1.583.808l-.639.528a1.077,1.077,0,0,0-.968-.536,1.385,1.385,0,0,0-1.271,1.455,1.022,1.022,0,0,0,1.032,1.1A1.354,1.354,0,0,0,197.636,59.259Z"/>
    <path d="M198.662,59.275c0-.784.615-1.287,1.575-1.287a2.59,2.59,0,0,1,1.183.279l.072-.336c.136-.615-.152-.919-.855-.919a3.025,3.025,0,0,0-1.088.248l-.215-.664a4.359,4.359,0,0,1,1.519-.328c1.167,0,1.742.624,1.526,1.632l-.535,2.43h-.88l.081-.36a1.743,1.743,0,0,1-1.1.408C199.166,60.378,198.662,59.947,198.662,59.275Zm1.607.472a1.469,1.469,0,0,0,.887-.288l.152-.68a1.955,1.955,0,0,0-.959-.208c-.52,0-.856.248-.856.624C199.493,59.547,199.773,59.747,200.269,59.747Z"/>
    <path d="M203.989,57.044h-.784l.16-.72h.776l.232-1.1.935-.192-.28,1.295h1.1l-.161.72h-1.087l-.432,2.007c-.1.416.048.576.5.576a1.714,1.714,0,0,0,.456-.064l-.16.751a2.937,2.937,0,0,1-.68.08c-.831,0-1.207-.424-1.039-1.183Z"/>
    <path d="M206.933,60.33h-.9l.872-4.006h.9Zm.112-5.309a.639.639,0,0,1,.615-.623.493.493,0,0,1,.5.495.628.628,0,0,1-.624.616A.475.475,0,0,1,207.045,55.021Z"/>
    <path d="M210.452,56.26a1.758,1.758,0,0,1,1.791,1.864,2.235,2.235,0,0,1-2.158,2.286,1.776,1.776,0,0,1-1.8-1.871A2.226,2.226,0,0,1,210.452,56.26Zm.92,1.879a.99.99,0,0,0-.976-1.111,1.364,1.364,0,0,0-1.231,1.48.991.991,0,0,0,.967,1.119A1.362,1.362,0,0,0,211.372,58.139Z"/>
    <path d="M213.605,56.324h.9l-.128.6a1.647,1.647,0,0,1,1.279-.647,1.121,1.121,0,0,1,1.12,1.519l-.544,2.534h-.888l.5-2.326c.136-.6-.144-1.016-.7-1.016a1.182,1.182,0,0,0-.887.432l-.632,2.91h-.9Z"/>
  </g>
  <g>
    <path d="M172.424,140.738h1.1l.96,5.6h-.968l-.24-1.568h-2.239l-.887,1.568h-1.032Zm.736,3.278-.367-2.375-1.336,2.375Z"/>
    <path d="M175.945,142.329h.88l-.088.424a1.537,1.537,0,0,1,1.087-.448,1.671,1.671,0,0,1,1.552,1.815,2.167,2.167,0,0,1-2.047,2.263,1.362,1.362,0,0,1-1.223-.656l-.5,2.3h-.887Zm.664,1.071-.368,1.7a1.123,1.123,0,0,0,.952.512A1.348,1.348,0,0,0,178.5,144.2a1.053,1.053,0,0,0-1.047-1.144A1.2,1.2,0,0,0,176.609,143.4Z"/>
    <path d="M180.73,142.329h.879l-.088.424a1.537,1.537,0,0,1,1.087-.448,1.671,1.671,0,0,1,1.552,1.815,2.167,2.167,0,0,1-2.047,2.263,1.363,1.363,0,0,1-1.223-.656l-.5,2.3h-.888Zm.663,1.071-.368,1.7a1.123,1.123,0,0,0,.952.512,1.348,1.348,0,0,0,1.311-1.415,1.052,1.052,0,0,0-1.047-1.144A1.2,1.2,0,0,0,181.393,143.4Z"/>
    <path d="M185.537,146.335h-.9l1.207-5.717.912-.152Z"/>
    <path d="M187.529,146.335h-.9l.871-4.006h.9Zm.112-5.309a.639.639,0,0,1,.616-.624.493.493,0,0,1,.5.5.628.628,0,0,1-.624.615A.475.475,0,0,1,187.641,141.026Z"/>
    <path d="M191.72,145.263l.432.568a2.207,2.207,0,0,1-1.5.584,1.742,1.742,0,0,1-1.775-1.815,2.266,2.266,0,0,1,2.182-2.327,1.872,1.872,0,0,1,1.583.807l-.639.528a1.076,1.076,0,0,0-.968-.535,1.385,1.385,0,0,0-1.271,1.455,1.021,1.021,0,0,0,1.032,1.095A1.354,1.354,0,0,0,191.72,145.263Z"/>
    <path d="M192.746,145.279c0-.783.615-1.287,1.575-1.287a2.578,2.578,0,0,1,1.183.28l.072-.336c.136-.615-.152-.92-.855-.92a3.047,3.047,0,0,0-1.088.248l-.215-.663a4.336,4.336,0,0,1,1.519-.328c1.167,0,1.742.624,1.526,1.631l-.535,2.431h-.88l.081-.36a1.749,1.749,0,0,1-1.1.408C193.25,146.383,192.746,145.951,192.746,145.279Zm1.607.472a1.469,1.469,0,0,0,.887-.288l.152-.68a1.955,1.955,0,0,0-.959-.207c-.52,0-.856.247-.856.623C193.577,145.551,193.857,145.751,194.353,145.751Z"/>
    <path d="M198.073,143.049h-.783l.159-.72h.776l.232-1.1.935-.192-.28,1.3h1.1l-.16.72h-1.087l-.432,2.006c-.1.416.048.576.5.576a1.7,1.7,0,0,0,.455-.064l-.16.752a2.928,2.928,0,0,1-.679.08c-.832,0-1.207-.424-1.04-1.183Z"/>
    <path d="M201.017,146.335h-.9l.872-4.006h.9Zm.112-5.309a.639.639,0,0,1,.615-.624.493.493,0,0,1,.5.5.628.628,0,0,1-.624.615A.475.475,0,0,1,201.129,141.026Z"/>
    <path d="M204.536,142.265a1.758,1.758,0,0,1,1.791,1.863,2.236,2.236,0,0,1-2.158,2.287,1.776,1.776,0,0,1-1.8-1.871A2.225,2.225,0,0,1,204.536,142.265Zm.92,1.879a.99.99,0,0,0-.976-1.112,1.363,1.363,0,0,0-1.231,1.479.991.991,0,0,0,.967,1.12A1.361,1.361,0,0,0,205.456,144.144Z"/>
    <path d="M207.689,142.329h.9l-.128.6a1.65,1.65,0,0,1,1.279-.647,1.121,1.121,0,0,1,1.12,1.519l-.544,2.535h-.888l.5-2.327c.136-.6-.144-1.016-.7-1.016a1.178,1.178,0,0,0-.887.433l-.632,2.91h-.9Z"/>
    <path d="M176.646,154.776a1.944,1.944,0,0,0,1.3.551c.424,0,.744-.24.744-.551,0-.208-.137-.336-.472-.424l-.68-.184c-.623-.168-.935-.52-.935-1.04,0-.775.583-1.263,1.5-1.263a2.528,2.528,0,0,1,1.631.592l-.5.559a2.023,2.023,0,0,0-1.191-.471c-.408,0-.656.184-.656.471,0,.232.12.344.464.44l.68.184c.663.184.983.5.983,1.008a1.459,1.459,0,0,1-1.591,1.375,2.551,2.551,0,0,1-1.775-.672Z"/>
    <path d="M180.925,151.929h.88l-.088.424a1.537,1.537,0,0,1,1.087-.448,1.671,1.671,0,0,1,1.552,1.815,2.167,2.167,0,0,1-2.047,2.263,1.362,1.362,0,0,1-1.223-.656l-.5,2.3H179.7Zm.664,1.071-.368,1.7a1.123,1.123,0,0,0,.952.512,1.347,1.347,0,0,0,1.311-1.415,1.053,1.053,0,0,0-1.047-1.144A1.2,1.2,0,0,0,181.589,153Z"/>
    <path d="M186.972,156.015a1.8,1.8,0,0,1-1.886-1.863,2.211,2.211,0,0,1,2.11-2.279,1.643,1.643,0,0,1,1.671,1.767,3.45,3.45,0,0,1-.031.512h-2.887a1.081,1.081,0,0,0,1.1,1.111,1.342,1.342,0,0,0,.911-.328l.487.592A2.4,2.4,0,0,1,186.972,156.015Zm-.951-2.415h2.047a.951.951,0,0,0-.919-.984A1.213,1.213,0,0,0,186.021,153.6Z"/>
    <path d="M192.428,154.864l.432.567a2.207,2.207,0,0,1-1.5.584,1.742,1.742,0,0,1-1.775-1.815,2.266,2.266,0,0,1,2.182-2.327,1.872,1.872,0,0,1,1.583.807l-.639.528a1.076,1.076,0,0,0-.968-.535,1.385,1.385,0,0,0-1.271,1.455,1.021,1.021,0,0,0,1.032,1.1A1.357,1.357,0,0,0,192.428,154.864Z"/>
    <path d="M194.317,155.935h-.9l.872-4.006h.9Zm.112-5.309a.639.639,0,0,1,.616-.624.493.493,0,0,1,.5.5.628.628,0,0,1-.624.616A.475.475,0,0,1,194.429,150.626Z"/>
    <path d="M196.78,151.929l.168-.808a1.424,1.424,0,0,1,1.472-1.247,2.042,2.042,0,0,1,.719.12l-.16.767a1.553,1.553,0,0,0-.527-.095.569.569,0,0,0-.624.535l-.152.728h1.087l-.168.72h-1.071l-.695,3.286h-.888l.688-3.286h-.824l.168-.72Z"/>
    <path d="M199.525,155.935h-.9l.872-4.006h.9Zm.112-5.309a.639.639,0,0,1,.616-.624.493.493,0,0,1,.5.5.628.628,0,0,1-.624.616A.475.475,0,0,1,199.637,150.626Z"/>
    <path d="M203.715,154.864l.433.567a2.207,2.207,0,0,1-1.5.584,1.742,1.742,0,0,1-1.775-1.815,2.267,2.267,0,0,1,2.183-2.327,1.873,1.873,0,0,1,1.583.807l-.639.528a1.076,1.076,0,0,0-.968-.535,1.385,1.385,0,0,0-1.272,1.455,1.022,1.022,0,0,0,1.032,1.1A1.354,1.354,0,0,0,203.715,154.864Z"/>
    <path d="M163.774,164.479c0-.783.616-1.287,1.575-1.287a2.578,2.578,0,0,1,1.183.28l.073-.336c.135-.615-.152-.919-.856-.919a3.016,3.016,0,0,0-1.087.248l-.216-.664a4.336,4.336,0,0,1,1.519-.328c1.167,0,1.743.624,1.527,1.631l-.536,2.431h-.879l.08-.36a1.749,1.749,0,0,1-1.1.408C164.278,165.583,163.774,165.151,163.774,164.479Zm1.607.472a1.471,1.471,0,0,0,.888-.288l.152-.679a1.959,1.959,0,0,0-.96-.208c-.519,0-.855.248-.855.624C164.606,164.751,164.885,164.951,165.381,164.951Z"/>
    <path d="M169.206,163.856c-.137.608.143,1.015.7,1.015a1.179,1.179,0,0,0,.895-.44l.625-2.9h.9l-.872,4.006h-.887l.128-.608a1.664,1.664,0,0,1-1.287.656,1.131,1.131,0,0,1-1.12-1.519l.544-2.535h.887Z"/>
    <path d="M173.742,162.249h-.784l.16-.72h.776l.232-1.1.935-.192-.28,1.295h1.1l-.161.72h-1.087l-.432,2.007c-.1.416.048.575.5.575a1.714,1.714,0,0,0,.456-.064l-.16.752a2.937,2.937,0,0,1-.68.08c-.831,0-1.207-.424-1.039-1.183Z"/>
    <path d="M176.981,159.818l.928-.152-.52,2.511a1.674,1.674,0,0,1,1.319-.7,1.123,1.123,0,0,1,1.12,1.519l-.544,2.535H178.4l.5-2.327c.128-.6-.144-1.015-.695-1.015a1.2,1.2,0,0,0-.92.463l-.6,2.879h-.9Z"/>
    <path d="M182.492,165.615a1.8,1.8,0,0,1-1.886-1.863,2.211,2.211,0,0,1,2.11-2.279,1.643,1.643,0,0,1,1.671,1.767,3.45,3.45,0,0,1-.031.512h-2.887a1.081,1.081,0,0,0,1.1,1.111,1.342,1.342,0,0,0,.911-.328l.487.592A2.4,2.4,0,0,1,182.492,165.615Zm-.951-2.415h2.047a.95.95,0,0,0-.919-.983A1.212,1.212,0,0,0,181.541,163.2Z"/>
    <path d="M185.725,161.529h.9l-.128.6a1.65,1.65,0,0,1,1.279-.648,1.12,1.12,0,0,1,1.12,1.519l-.544,2.535h-.887l.5-2.327c.136-.6-.144-1.015-.7-1.015a1.183,1.183,0,0,0-.887.432l-.632,2.91h-.895Z"/>
    <path d="M190.5,162.249h-.784l.16-.72h.775l.232-1.1.935-.192-.279,1.295h1.095l-.16.72h-1.087l-.432,2.007c-.1.416.048.575.5.575a1.718,1.718,0,0,0,.456-.064l-.161.752a2.921,2.921,0,0,1-.679.08c-.831,0-1.207-.424-1.039-1.183Z"/>
    <path d="M193.445,165.535h-.895l.871-4.006h.9Zm.112-5.309a.639.639,0,0,1,.616-.624.493.493,0,0,1,.5.5.628.628,0,0,1-.624.616A.475.475,0,0,1,193.557,160.226Z"/>
    <path d="M197.636,164.464l.432.567a2.207,2.207,0,0,1-1.5.584,1.742,1.742,0,0,1-1.775-1.815,2.266,2.266,0,0,1,2.182-2.327,1.87,1.87,0,0,1,1.583.808l-.639.527a1.076,1.076,0,0,0-.968-.535,1.385,1.385,0,0,0-1.271,1.455,1.021,1.021,0,0,0,1.032,1.095A1.357,1.357,0,0,0,197.636,164.464Z"/>
    <path d="M198.662,164.479c0-.783.615-1.287,1.575-1.287a2.578,2.578,0,0,1,1.183.28l.072-.336c.136-.615-.152-.919-.855-.919a3.025,3.025,0,0,0-1.088.248l-.215-.664a4.336,4.336,0,0,1,1.519-.328c1.167,0,1.742.624,1.526,1.631l-.535,2.431h-.88l.081-.36a1.749,1.749,0,0,1-1.1.408C199.166,165.583,198.662,165.151,198.662,164.479Zm1.607.472a1.469,1.469,0,0,0,.887-.288l.152-.679a1.955,1.955,0,0,0-.959-.208c-.52,0-.856.248-.856.624C199.493,164.751,199.773,164.951,200.269,164.951Z"/>
    <path d="M203.989,162.249h-.784l.16-.72h.776l.232-1.1.935-.192-.28,1.295h1.1l-.161.72h-1.087l-.432,2.007c-.1.416.048.575.5.575a1.714,1.714,0,0,0,.456-.064l-.16.752a2.937,2.937,0,0,1-.68.08c-.831,0-1.207-.424-1.039-1.183Z"/>
    <path d="M206.933,165.535h-.9l.872-4.006h.9Zm.112-5.309a.639.639,0,0,1,.615-.624.493.493,0,0,1,.5.5.628.628,0,0,1-.624.616A.475.475,0,0,1,207.045,160.226Z"/>
    <path d="M210.452,161.465a1.758,1.758,0,0,1,1.791,1.863,2.236,2.236,0,0,1-2.158,2.287,1.776,1.776,0,0,1-1.8-1.871A2.226,2.226,0,0,1,210.452,161.465Zm.92,1.879a.989.989,0,0,0-.976-1.111,1.363,1.363,0,0,0-1.231,1.479.99.99,0,0,0,.967,1.119A1.361,1.361,0,0,0,211.372,163.344Z"/>
    <path d="M213.605,161.529h.9l-.128.6a1.648,1.648,0,0,1,1.279-.648,1.121,1.121,0,0,1,1.12,1.519l-.544,2.535h-.888l.5-2.327c.136-.6-.144-1.015-.7-1.015a1.182,1.182,0,0,0-.887.432l-.632,2.91h-.9Z"/>
  </g>
  <g>
    <path d="M173.442,72.118l.6-.12-.528,2.551a1.592,1.592,0,0,1,1.263-.672,1.158,1.158,0,0,1,1.16,1.559l-.512,2.4h-.575l.5-2.279c.16-.72-.168-1.2-.815-1.2a1.385,1.385,0,0,0-1.1.591l-.6,2.887h-.576Z"/>
    <path d="M177.649,74.413h-.783l.112-.48h.775l.224-1.071.616-.137-.264,1.208h1.1l-.112.48h-1.095l-.512,2.358c-.1.448.048.624.536.624a1.46,1.46,0,0,0,.448-.08l-.112.52a2.255,2.255,0,0,1-.568.071c-.712,0-1.039-.359-.895-1.007Z"/>
    <path d="M180.7,74.413h-.783l.111-.48h.776l.224-1.071.616-.137-.264,1.208h1.1l-.112.48h-1.095l-.512,2.358c-.1.448.048.624.535.624a1.466,1.466,0,0,0,.449-.08l-.113.52a2.242,2.242,0,0,1-.567.071c-.712,0-1.04-.359-.9-1.007Z"/>
    <path d="M183.338,73.933h.559l-.088.415a1.579,1.579,0,0,1,1.1-.447,1.628,1.628,0,0,1,1.559,1.767,2.145,2.145,0,0,1-2.023,2.231,1.411,1.411,0,0,1-1.247-.656l-.488,2.263h-.576Zm.383.864-.424,1.974a1.238,1.238,0,0,0,1.08.616,1.588,1.588,0,0,0,1.527-1.671,1.2,1.2,0,0,0-1.2-1.319A1.457,1.457,0,0,0,183.721,74.8Z"/>
    <path d="M190.168,72.238h.607l-4.669,7.236h-.6Z"/>
    <path d="M191.705,72.118l.6-.12-.528,2.551a1.592,1.592,0,0,1,1.263-.672,1.158,1.158,0,0,1,1.16,1.559l-.512,2.4h-.576l.5-2.279c.16-.72-.168-1.2-.815-1.2a1.385,1.385,0,0,0-1.1.591l-.6,2.887h-.575Z"/>
    <path d="M195.913,74.413h-.784l.112-.48h.776l.224-1.071.616-.137-.265,1.208h1.1l-.112.48h-1.1l-.511,2.358c-.1.448.048.624.535.624a1.47,1.47,0,0,0,.449-.08l-.113.52a2.242,2.242,0,0,1-.567.071c-.712,0-1.04-.359-.9-1.007Z"/>
    <path d="M198.961,74.413h-.784l.112-.48h.776l.224-1.071.615-.137-.264,1.208h1.1l-.112.48h-1.1l-.511,2.358c-.1.448.048.624.535.624a1.46,1.46,0,0,0,.448-.08l-.112.52a2.242,2.242,0,0,1-.567.071c-.712,0-1.04-.359-.9-1.007Z"/>
    <path d="M201.6,73.933h.56l-.088.415a1.578,1.578,0,0,1,1.1-.447,1.627,1.627,0,0,1,1.559,1.767,2.144,2.144,0,0,1-2.022,2.231,1.414,1.414,0,0,1-1.248-.656l-.487,2.263H200.4Zm.384.864-.424,1.974a1.237,1.237,0,0,0,1.08.616,1.589,1.589,0,0,0,1.527-1.671,1.2,1.2,0,0,0-1.2-1.319A1.454,1.454,0,0,0,201.985,74.8Z"/>
    <path d="M205.522,76.859a1.663,1.663,0,0,0,1.263.584.837.837,0,0,0,.927-.72c0-.272-.16-.423-.591-.551l-.616-.161c-.616-.175-.9-.495-.9-1a1.219,1.219,0,0,1,1.376-1.151,2.314,2.314,0,0,1,1.527.591l-.352.392a1.984,1.984,0,0,0-1.208-.5c-.495,0-.823.248-.823.615,0,.288.152.448.56.56l.623.176c.672.192.952.472.952.959a1.352,1.352,0,0,1-1.479,1.264,2.143,2.143,0,0,1-1.607-.688Z"/>
  </g>
  <g>
    <path d="M178.685,180.146h4.382l-.12.543h-1.879l-1.08,5.053h-.6l1.079-5.053h-1.9Z"/>
    <path d="M187.283,184.567l.32.416a3.076,3.076,0,0,1-2.063.847,2.565,2.565,0,0,1-2.6-2.646,3.078,3.078,0,0,1,3-3.118,2.4,2.4,0,0,1,2.07,1.007l-.455.4a1.913,1.913,0,0,0-1.647-.848,2.429,2.429,0,0,0-2.351,2.535,2.01,2.01,0,0,0,2.023,2.119A2.48,2.48,0,0,0,187.283,184.567Z"/>
    <path d="M189.5,180.146H191.6a1.4,1.4,0,0,1,1.575,1.439,1.852,1.852,0,0,1-1.959,1.871H189.4l-.488,2.286h-.6Zm.488.543-.48,2.239h1.679a1.281,1.281,0,0,0,1.383-1.3c0-.584-.407-.936-1.079-.936Z"/>
    <path d="M195.788,180.146h.608l-4.67,7.236h-.6Z"/>
    <path d="M197.413,180.146h.6l-1.192,5.6h-.6Z"/>
    <path d="M199.405,180.146H201.5a1.4,1.4,0,0,1,1.575,1.439,1.851,1.851,0,0,1-1.959,1.871H199.3l-.487,2.286h-.6Zm.488.543-.48,2.239h1.679a1.282,1.282,0,0,0,1.384-1.3c0-.584-.408-.936-1.08-.936Z"/>
  </g>
  <g>
    <path d="M338.139,169.485l.272.376a2.2,2.2,0,0,1-1.415.52,1.662,1.662,0,0,1-1.679-1.751,2.22,2.22,0,0,1,2.119-2.271,1.783,1.783,0,0,1,1.463.744l-.432.359a1.222,1.222,0,0,0-1.056-.575,1.651,1.651,0,0,0-1.526,1.711,1.219,1.219,0,0,0,1.2,1.271A1.709,1.709,0,0,0,338.139,169.485Z"/>
    <path d="M339.629,170.309h-.576l1.2-5.717.592-.12Z"/>
    <path d="M341.389,170.309h-.576l.855-3.9h.568Zm.4-5.237a.479.479,0,0,1,.456-.464.368.368,0,0,1,.367.376.468.468,0,0,1-.455.464A.36.36,0,0,1,341.788,165.072Z"/>
    <path d="M344.587,170.381a1.706,1.706,0,0,1-1.774-1.8,2.133,2.133,0,0,1,2.006-2.239,1.591,1.591,0,0,1,1.568,1.719,3.881,3.881,0,0,1-.025.424h-2.99v.08a1.247,1.247,0,0,0,1.239,1.311,1.7,1.7,0,0,0,1.032-.344l.3.416A2.333,2.333,0,0,1,344.587,170.381Zm-1.159-2.311h2.415a1.114,1.114,0,0,0-1.064-1.215A1.46,1.46,0,0,0,343.428,168.07Z"/>
    <path d="M347.788,166.407h.569l-.121.568a1.557,1.557,0,0,1,1.223-.624,1.159,1.159,0,0,1,1.16,1.559l-.511,2.4h-.577l.5-2.279c.16-.72-.168-1.2-.815-1.2a1.384,1.384,0,0,0-1.063.543l-.64,2.935h-.576Z"/>
    <path d="M352.332,166.887h-.783l.111-.48h.776l.224-1.071.615-.137-.263,1.208h1.1l-.112.48h-1.1l-.511,2.358c-.1.448.048.624.536.624a1.455,1.455,0,0,0,.447-.08l-.111.52a2.256,2.256,0,0,1-.568.072c-.712,0-1.04-.36-.895-1.008Z"/>
    <path d="M354.868,169.893a.488.488,0,0,1-.456.48.375.375,0,0,1-.376-.392.484.484,0,0,1,.464-.48A.373.373,0,0,1,354.868,169.893Z"/>
    <path d="M356.636,166.407l.2-.936a1.258,1.258,0,0,1,1.272-1.119,1.547,1.547,0,0,1,.607.112l-.1.52a1.28,1.28,0,0,0-.519-.1c-.392,0-.592.184-.688.639l-.192.888h1.111l-.111.48h-1.1l-.728,3.422H355.8l.727-3.422h-.839l.112-.48Z"/>
    <path d="M360.419,166.335a1.681,1.681,0,0,1,1.688,1.823,2.16,2.16,0,0,1-2.055,2.231,1.693,1.693,0,0,1-1.68-1.823A2.147,2.147,0,0,1,360.419,166.335Zm1.111,1.823a1.17,1.17,0,0,0-1.134-1.311,1.6,1.6,0,0,0-1.455,1.711,1.175,1.175,0,0,0,1.142,1.311A1.585,1.585,0,0,0,361.53,168.158Z"/>
    <path d="M363.532,166.407h.576l-.16.711a1.388,1.388,0,0,1,1.175-.783,1.2,1.2,0,0,1,.408.072l-.12.528a1,1,0,0,0-.439-.088,1.347,1.347,0,0,0-1.12.727l-.6,2.735h-.575Z"/>
    <path d="M366.3,166.407h.568l-.128.6a1.525,1.525,0,0,1,1.191-.656,1.037,1.037,0,0,1,1.063.792,1.787,1.787,0,0,1,1.392-.792c.792,0,1.231.648,1.039,1.511l-.527,2.447h-.568l.512-2.383c.143-.64-.16-1.095-.72-1.095a1.393,1.393,0,0,0-1.088.647,1.65,1.65,0,0,1-.04.384l-.527,2.447h-.575l.5-2.327c.152-.68-.144-1.151-.711-1.151a1.313,1.313,0,0,0-1.033.575l-.63,2.9h-.577Z"/>
    <path d="M372.972,170.349l-.672-3.942h.608l.5,3.23,1.9-3.23h.647l-2.822,4.749a1.374,1.374,0,0,1-1.24.816,1.547,1.547,0,0,1-.439-.08l.1-.52a1.678,1.678,0,0,0,.328.048.8.8,0,0,0,.719-.455Z"/>
    <path d="M375.9,169.269a1.324,1.324,0,0,1,1.5-1.255,2.206,2.206,0,0,1,1.287.376l.1-.472c.16-.72-.143-1.087-.886-1.087a2.683,2.683,0,0,0-1.121.3l-.159-.456a3.542,3.542,0,0,1,1.383-.32c1.048,0,1.567.576,1.359,1.519l-.544,2.439h-.567l.08-.368a1.794,1.794,0,0,1-1.136.424C376.42,170.365,375.9,169.933,375.9,169.269Zm1.463.656a1.651,1.651,0,0,0,1.064-.4l.168-.744a1.791,1.791,0,0,0-1.144-.335c-.584,0-1,.32-1,.759C376.452,169.661,376.787,169.925,377.363,169.925Z"/>
    <path d="M380.819,166.407h.56l-.088.416a1.575,1.575,0,0,1,1.1-.448,1.628,1.628,0,0,1,1.559,1.767,2.145,2.145,0,0,1-2.023,2.231,1.412,1.412,0,0,1-1.247-.656l-.488,2.263h-.576Zm.384.864-.424,1.974a1.238,1.238,0,0,0,1.08.616,1.588,1.588,0,0,0,1.527-1.671,1.2,1.2,0,0,0-1.2-1.319A1.457,1.457,0,0,0,381.2,167.271Z"/>
    <path d="M385.388,166.407h.559l-.088.416a1.575,1.575,0,0,1,1.1-.448,1.628,1.628,0,0,1,1.56,1.767,2.145,2.145,0,0,1-2.024,2.231,1.413,1.413,0,0,1-1.247-.656l-.487,2.263h-.576Zm.384.864-.424,1.974a1.237,1.237,0,0,0,1.08.616,1.588,1.588,0,0,0,1.526-1.671,1.2,1.2,0,0,0-1.2-1.319A1.456,1.456,0,0,0,385.772,167.271Z"/>
    <path d="M390.268,170.309h-.56l1.047-4.973-.959.4.112-.528,1.2-.5h.351Z"/>
  </g>
  <g>
    <path d="M423.545,180.146h4.382l-.12.544h-1.879l-1.08,5.053h-.6l1.08-5.053h-1.9Z"/>
    <path d="M432.143,184.568l.319.415a3.075,3.075,0,0,1-2.062.848,2.565,2.565,0,0,1-2.6-2.647,3.078,3.078,0,0,1,3-3.118,2.406,2.406,0,0,1,2.071,1.007l-.456.4a1.913,1.913,0,0,0-1.646-.847,2.43,2.43,0,0,0-2.352,2.534,2.011,2.011,0,0,0,2.024,2.119A2.483,2.483,0,0,0,432.143,184.568Z"/>
    <path d="M434.36,180.146h2.095a1.4,1.4,0,0,1,1.575,1.439,1.851,1.851,0,0,1-1.959,1.871h-1.814l-.488,2.287h-.6Zm.489.544-.481,2.238h1.68a1.281,1.281,0,0,0,1.383-1.3c0-.583-.407-.935-1.079-.935Z"/>
    <path d="M440.648,180.146h.607l-4.669,7.236h-.6Z"/>
    <path d="M442.273,180.146h.6l-1.191,5.6h-.6Z"/>
    <path d="M444.265,180.146h2.094a1.4,1.4,0,0,1,1.576,1.439,1.851,1.851,0,0,1-1.959,1.871h-1.815l-.488,2.287h-.6Zm.488.544-.48,2.238h1.679a1.281,1.281,0,0,0,1.383-1.3c0-.583-.407-.935-1.079-.935Z"/>
  </g>
  <g>
    <path d="M342.748,283.188l.272.376a2.2,2.2,0,0,1-1.415.519,1.662,1.662,0,0,1-1.679-1.751,2.221,2.221,0,0,1,2.119-2.27,1.783,1.783,0,0,1,1.463.743l-.432.36a1.221,1.221,0,0,0-1.055-.575,1.652,1.652,0,0,0-1.528,1.711,1.221,1.221,0,0,0,1.2,1.271A1.712,1.712,0,0,0,342.748,283.188Z"/>
    <path d="M344.237,284.011h-.575l1.2-5.716.592-.12Z"/>
    <path d="M346,284.011h-.575l.855-3.9h.568Zm.4-5.237a.477.477,0,0,1,.455-.463.368.368,0,0,1,.368.375.468.468,0,0,1-.456.464A.359.359,0,0,1,346.4,278.774Z"/>
    <path d="M349.2,284.083a1.706,1.706,0,0,1-1.775-1.8,2.133,2.133,0,0,1,2.007-2.238A1.589,1.589,0,0,1,351,281.765a4.13,4.13,0,0,1-.023.423h-2.991v.08a1.249,1.249,0,0,0,1.24,1.312,1.7,1.7,0,0,0,1.031-.344l.3.416A2.344,2.344,0,0,1,349.2,284.083Zm-1.159-2.31h2.414a1.113,1.113,0,0,0-1.063-1.216A1.459,1.459,0,0,0,348.037,281.773Z"/>
    <path d="M352.4,280.11h.567l-.12.567a1.557,1.557,0,0,1,1.223-.624,1.159,1.159,0,0,1,1.16,1.56l-.512,2.4h-.575l.5-2.278c.16-.72-.168-1.2-.816-1.2a1.385,1.385,0,0,0-1.063.544l-.64,2.934h-.575Z"/>
    <path d="M356.941,280.59h-.784l.113-.48h.775l.224-1.072.616-.136-.265,1.208h1.1l-.112.48h-1.1l-.512,2.358c-.1.448.048.624.536.624a1.45,1.45,0,0,0,.447-.08l-.112.519a2.248,2.248,0,0,1-.567.072c-.712,0-1.039-.36-.9-1.007Z"/>
    <path d="M359.477,283.6a.487.487,0,0,1-.455.48.374.374,0,0,1-.376-.391.483.483,0,0,1,.463-.48A.373.373,0,0,1,359.477,283.6Z"/>
    <path d="M360.285,282.972a1.323,1.323,0,0,1,1.495-1.255,2.2,2.2,0,0,1,1.287.376l.105-.472c.16-.72-.144-1.088-.888-1.088a2.683,2.683,0,0,0-1.119.3l-.16-.456a3.547,3.547,0,0,1,1.384-.32c1.047,0,1.566.576,1.358,1.52l-.543,2.438h-.568l.08-.367a1.8,1.8,0,0,1-1.135.424C360.805,284.068,360.285,283.635,360.285,282.972Zm1.464.656a1.649,1.649,0,0,0,1.063-.4l.168-.744a1.788,1.788,0,0,0-1.143-.335c-.584,0-1,.32-1,.759C360.837,283.364,361.173,283.628,361.749,283.628Z"/>
    <path d="M367.228,283.644a1.6,1.6,0,0,1-1.087.424,1.626,1.626,0,0,1-1.552-1.767,2.138,2.138,0,0,1,2.016-2.231,1.459,1.459,0,0,1,1.239.623l.5-2.4.592-.12-1.215,5.836h-.568Zm-.879-.08a1.454,1.454,0,0,0,.974-.384l.416-2.015a1.235,1.235,0,0,0-1.063-.584,1.587,1.587,0,0,0-1.519,1.672A1.2,1.2,0,0,0,366.349,283.564Z"/>
    <path d="M369.773,280.11h.568l-.128.6a1.524,1.524,0,0,1,1.191-.656,1.038,1.038,0,0,1,1.063.792,1.786,1.786,0,0,1,1.391-.792c.792,0,1.232.648,1.04,1.512l-.528,2.446H373.8l.512-2.382c.143-.64-.161-1.1-.72-1.1a1.39,1.39,0,0,0-1.088.648,1.65,1.65,0,0,1-.04.384l-.527,2.446h-.576l.5-2.326c.153-.68-.143-1.152-.711-1.152a1.308,1.308,0,0,0-1.031.576l-.632,2.9h-.576Z"/>
    <path d="M376.117,284.011h-.576l.856-3.9h.568Zm.4-5.237a.478.478,0,0,1,.456-.463.367.367,0,0,1,.367.375.467.467,0,0,1-.455.464A.359.359,0,0,1,376.517,278.774Z"/>
    <path d="M378.156,280.11h.569l-.12.567a1.553,1.553,0,0,1,1.222-.624,1.159,1.159,0,0,1,1.16,1.56l-.511,2.4H379.9l.5-2.278c.16-.72-.168-1.2-.816-1.2a1.383,1.383,0,0,0-1.063.544l-.64,2.934H377.3Z"/>
  </g>
  <g>
    <path d="M74.777,198.308l.712.685a3.235,3.235,0,1,1,.027-4.268l-.729.721a2.217,2.217,0,1,0-1.693,3.682A2.133,2.133,0,0,0,74.777,198.308Z"/>
    <path d="M77.333,198.182a.971.971,0,0,0,.99,1.081,1.14,1.14,0,0,0,.99-.558V195.5H80.33v4.51H79.313v-.747a1.649,1.649,0,0,1-1.44.819,1.513,1.513,0,0,1-1.558-1.612V195.5h1.018Z"/>
    <path d="M81.652,198.8a2.593,2.593,0,0,0,1.45.514c.54,0,.909-.244.909-.6,0-.28-.189-.433-.621-.514l-.8-.134c-.873-.162-1.3-.568-1.3-1.243,0-.846.693-1.4,1.746-1.4a3.175,3.175,0,0,1,1.774.541l-.477.666a2.468,2.468,0,0,0-1.36-.432c-.468,0-.774.2-.774.531,0,.288.162.414.639.5l.793.144c.9.171,1.332.585,1.332,1.261a1.652,1.652,0,0,1-1.837,1.467,3.025,3.025,0,0,1-1.944-.612Z"/>
    <path d="M86.359,196.31H85.45v-.81h.909v-1.243l1.017-.216V195.5h1.26v.81h-1.26V198.6c0,.442.171.613.63.613a1.878,1.878,0,0,0,.613-.108v.855a3.206,3.206,0,0,1-.874.126c-.909,0-1.386-.432-1.386-1.26Z"/>
    <path d="M91.525,195.427a2.338,2.338,0,1,1-2.268,2.333A2.253,2.253,0,0,1,91.525,195.427Zm1.261,2.341a1.275,1.275,0,1,0-2.521,0,1.273,1.273,0,1,0,2.521,0Z"/>
    <path d="M94.846,195.5h1.017v.72a1.539,1.539,0,0,1,1.341-.793,1.418,1.418,0,0,1,1.324.874,1.664,1.664,0,0,1,1.494-.874,1.5,1.5,0,0,1,1.477,1.639v2.944h-1.017v-2.728a.913.913,0,0,0-.91-1.035,1.074,1.074,0,0,0-.909.531c.009.1.018.189.018.288v2.944H97.664v-2.728a.913.913,0,0,0-.91-1.035,1.046,1.046,0,0,0-.891.513v3.25H94.846Z"/>
    <path d="M104.53,198.714c0-.81.657-1.324,1.719-1.324a2.784,2.784,0,0,1,1.215.279v-.5c0-.594-.341-.9-1.035-.9a3.12,3.12,0,0,0-1.314.351l-.36-.738a4.332,4.332,0,0,1,1.873-.46c1.17,0,1.845.595,1.845,1.639v2.944h-1.009v-.459a1.881,1.881,0,0,1-1.341.531A1.422,1.422,0,0,1,104.53,198.714Zm1.872.657a1.608,1.608,0,0,0,1.062-.369v-.739a2.339,2.339,0,0,0-1.043-.215c-.577,0-.937.252-.937.648C105.484,199.11,105.844,199.371,106.4,199.371Z"/>
    <path d="M109.705,195.5h1v.648a1.7,1.7,0,0,1,1.4-.684,2.307,2.307,0,0,1-.072,4.591,1.686,1.686,0,0,1-1.314-.585v2.449h-1.017Zm1.017,1.323v1.882a1.382,1.382,0,0,0,1.08.495,1.444,1.444,0,0,0,0-2.881A1.324,1.324,0,0,0,110.722,196.823Z"/>
    <path d="M115.2,195.5h1v.648a1.7,1.7,0,0,1,1.4-.684,2.307,2.307,0,0,1-.072,4.591,1.686,1.686,0,0,1-1.314-.585v2.449H115.2Zm1.017,1.323v1.882a1.382,1.382,0,0,0,1.08.495,1.444,1.444,0,0,0,0-2.881A1.324,1.324,0,0,0,116.221,196.823Z"/>
    <path d="M121.72,200.01H120.7v-6.437l1.017-.171Z"/>
    <path d="M122.844,193.96a.635.635,0,0,1,1.269,0,.635.635,0,0,1-1.269,0Zm1.143,6.05H122.97V195.5h1.017Z"/>
    <path d="M128.461,198.705l.612.612a2.345,2.345,0,0,1-1.764.783,2.332,2.332,0,0,1,0-4.663,2.43,2.43,0,0,1,1.8.756l-.63.657a1.49,1.49,0,0,0-1.134-.531,1.447,1.447,0,0,0,.027,2.881A1.385,1.385,0,0,0,128.461,198.705Z"/>
    <path d="M129.72,198.714c0-.81.658-1.324,1.72-1.324a2.787,2.787,0,0,1,1.215.279v-.5c0-.594-.342-.9-1.035-.9a3.124,3.124,0,0,0-1.315.351l-.36-.738a4.332,4.332,0,0,1,1.873-.46c1.17,0,1.845.595,1.845,1.639v2.944h-1.008v-.459a1.882,1.882,0,0,1-1.341.531A1.422,1.422,0,0,1,129.72,198.714Zm1.873.657a1.608,1.608,0,0,0,1.062-.369v-.739a2.347,2.347,0,0,0-1.044-.215c-.576,0-.937.252-.937.648C130.674,199.11,131.035,199.371,131.593,199.371Z"/>
    <path d="M135.318,196.31h-.909v-.81h.909v-1.243l1.018-.216V195.5h1.26v.81h-1.26V198.6c0,.442.171.613.63.613a1.868,1.868,0,0,0,.612-.108v.855a3.2,3.2,0,0,1-.873.126c-.909,0-1.387-.432-1.387-1.26Z"/>
    <path d="M138.36,193.96a.635.635,0,0,1,1.269,0,.635.635,0,0,1-1.269,0Zm1.144,6.05h-1.018V195.5H139.5Z"/>
    <path d="M142.816,195.427a2.338,2.338,0,1,1-2.269,2.333A2.253,2.253,0,0,1,142.816,195.427Zm1.26,2.341a1.275,1.275,0,1,0-2.52,0,1.272,1.272,0,1,0,2.52,0Z"/>
    <path d="M146.136,195.5h1.017v.738a1.64,1.64,0,0,1,1.432-.811,1.518,1.518,0,0,1,1.557,1.612v2.971h-1.017v-2.683a.971.971,0,0,0-.99-1.08,1.159,1.159,0,0,0-.982.54v3.223h-1.017Z"/>
    <path d="M92.5,210.9a2.293,2.293,0,0,1-2.3-2.341,2.221,2.221,0,0,1,2.2-2.332,2.166,2.166,0,0,1,2.134,2.323v.252H91.206a1.377,1.377,0,0,0,1.35,1.233,1.466,1.466,0,0,0,1.072-.422l.666.621A2.612,2.612,0,0,1,92.5,210.9Zm-1.278-2.719h2.349a1.234,1.234,0,0,0-1.179-1.125A1.211,1.211,0,0,0,91.224,208.181Z"/>
    <path d="M95.571,206.3h1.017v.738a1.638,1.638,0,0,1,1.432-.811,1.518,1.518,0,0,1,1.557,1.612v2.971H98.56v-2.683a.972.972,0,0,0-.991-1.08,1.156,1.156,0,0,0-.981.54v3.223H95.571Z"/>
    <path d="M104.031,210.207a1.735,1.735,0,0,1-1.386.648,2.308,2.308,0,0,1,.063-4.592,1.723,1.723,0,0,1,1.315.595v-2.485l1.017-.171v6.608h-1.009Zm-1.08-.207a1.354,1.354,0,0,0,1.072-.5v-1.9a1.4,1.4,0,0,0-1.072-.486,1.444,1.444,0,0,0,0,2.881Z"/>
    <path d="M109.314,208.982a.972.972,0,0,0,.99,1.081,1.14,1.14,0,0,0,.99-.558v-3.2h1.017v4.51h-1.017v-.747a1.649,1.649,0,0,1-1.44.819,1.513,1.513,0,0,1-1.558-1.612V206.3h1.018Z"/>
    <path d="M113.633,209.6a2.6,2.6,0,0,0,1.45.513c.54,0,.909-.243.909-.6,0-.279-.189-.432-.621-.513l-.8-.135c-.873-.162-1.305-.567-1.305-1.242,0-.846.693-1.4,1.746-1.4a3.175,3.175,0,0,1,1.774.541l-.477.666a2.47,2.47,0,0,0-1.36-.432c-.468,0-.774.2-.774.531,0,.288.162.414.639.5l.793.144c.9.171,1.332.585,1.332,1.26A1.653,1.653,0,0,1,115.1,210.9a3.025,3.025,0,0,1-1.944-.612Z"/>
    <path d="M120.005,210.9a2.293,2.293,0,0,1-2.3-2.341,2.222,2.222,0,0,1,2.2-2.332,2.165,2.165,0,0,1,2.134,2.323v.252h-3.331a1.377,1.377,0,0,0,1.351,1.233,1.464,1.464,0,0,0,1.071-.422l.666.621A2.608,2.608,0,0,1,120.005,210.9Zm-1.278-2.719h2.35a1.234,1.234,0,0,0-1.179-1.125A1.212,1.212,0,0,0,118.727,208.181Z"/>
    <path d="M123.074,206.3h1.017v.981a1.337,1.337,0,0,1,1.242-1.062,1.194,1.194,0,0,1,.442.089v.892a1.443,1.443,0,0,0-.559-.108,1.237,1.237,0,0,0-1.125.747v2.971h-1.017Z"/>
    <path d="M126.692,209.6a2.6,2.6,0,0,0,1.449.513c.54,0,.909-.243.909-.6,0-.279-.189-.432-.621-.513l-.8-.135c-.874-.162-1.306-.567-1.306-1.242,0-.846.694-1.4,1.747-1.4a3.174,3.174,0,0,1,1.773.541l-.477.666a2.464,2.464,0,0,0-1.359-.432c-.468,0-.774.2-.774.531,0,.288.162.414.639.5l.792.144c.9.171,1.333.585,1.333,1.26a1.654,1.654,0,0,1-1.837,1.468,3.03,3.03,0,0,1-1.945-.612Z"/>
  </g>
  <g>
    <line class="cls-2" x1="158.814" y1="175.805" x2="216.615" y2="175.805"/>
    <polygon points="215.52 179.544 221.996 175.805 215.52 172.065 215.52 179.544"/>
  </g>
  <g>
    <path d="M251.036,87.088l.712.683a3.236,3.236,0,1,1,.027-4.266l-.729.719a2.218,2.218,0,1,0-1.693,3.683A2.134,2.134,0,0,0,251.036,87.088Z"/>
    <path d="M254.69,88.879a2.292,2.292,0,0,1-2.295-2.341,2.22,2.22,0,0,1,2.2-2.331,2.164,2.164,0,0,1,2.134,2.322v.252h-3.331a1.376,1.376,0,0,0,1.35,1.233,1.47,1.47,0,0,0,1.072-.422l.666.621A2.612,2.612,0,0,1,254.69,88.879Zm-1.279-2.719h2.35a1.234,1.234,0,0,0-1.179-1.125A1.212,1.212,0,0,0,253.411,86.16Z"/>
    <path d="M257.758,84.278h1v.649a1.7,1.7,0,0,1,1.4-.684,2.164,2.164,0,0,1,2.044,2.3,2.186,2.186,0,0,1-2.115,2.3,1.689,1.689,0,0,1-1.315-.585V90.7h-1.017Zm1.017,1.324v1.881a1.381,1.381,0,0,0,1.081.495,1.444,1.444,0,0,0,0-2.881A1.322,1.322,0,0,0,258.775,85.6Z"/>
    <path d="M263.257,82.352l1.018-.172v2.836a1.634,1.634,0,0,1,1.431-.809,1.517,1.517,0,0,1,1.557,1.611v2.971h-1.017V86.106a.972.972,0,0,0-.99-1.08,1.156,1.156,0,0,0-.981.54v3.223h-1.018Z"/>
    <path d="M272.581,84.207a2.337,2.337,0,1,1-2.268,2.331A2.252,2.252,0,0,1,272.581,84.207Zm1.261,2.341a1.275,1.275,0,1,0-2.521,0,1.273,1.273,0,1,0,2.521,0Z"/>
    <path d="M278.233,88.834a1.68,1.68,0,0,1-1.333-.63v.585h-1V82.352l1.018-.172v2.7a1.751,1.751,0,0,1,1.386-.639,2.307,2.307,0,0,1-.072,4.591ZM276.919,85.6v1.881a1.379,1.379,0,0,0,1.08.495,1.444,1.444,0,0,0,0-2.881A1.322,1.322,0,0,0,276.919,85.6Z"/>
    <path d="M280.536,90.679V89.86a1.44,1.44,0,0,0,.361.036c.35,0,.5-.144.5-.486V84.278h1.018v5.177a1.189,1.189,0,0,1-1.333,1.287A2.317,2.317,0,0,1,280.536,90.679Zm.739-7.94a.635.635,0,0,1,1.269,0,.635.635,0,0,1-1.269,0Z"/>
    <path d="M285.757,88.879a2.293,2.293,0,0,1-2.3-2.341,2.22,2.22,0,0,1,2.2-2.331,2.164,2.164,0,0,1,2.134,2.322v.252h-3.331a1.377,1.377,0,0,0,1.351,1.233,1.47,1.47,0,0,0,1.071-.422l.666.621A2.612,2.612,0,0,1,285.757,88.879Zm-1.278-2.719h2.349a1.234,1.234,0,0,0-1.178-1.125A1.211,1.211,0,0,0,284.479,86.16Z"/>
    <path d="M292.075,87.483l.613.612a2.345,2.345,0,0,1-1.765.784,2.332,2.332,0,0,1,0-4.663,2.431,2.431,0,0,1,1.8.755l-.63.658a1.493,1.493,0,0,0-1.135-.532,1.447,1.447,0,0,0,.027,2.881A1.384,1.384,0,0,0,292.075,87.483Z"/>
    <path d="M294.208,85.089H293.3v-.811h.909V83.036l1.017-.216v1.458h1.26v.811h-1.26v2.287c0,.44.171.612.631.612a1.872,1.872,0,0,0,.612-.108v.855a3.212,3.212,0,0,1-.874.126c-.909,0-1.386-.433-1.386-1.261Z"/>
    <path d="M253.946,97.329a2.177,2.177,0,0,1,2.107-2.286,1.7,1.7,0,0,1,1.323.611v-.576h1.009v4.664c0,1.161-.757,1.8-2.125,1.8a3.921,3.921,0,0,1-1.81-.432l.361-.756a3.07,3.07,0,0,0,1.4.387c.757,0,1.152-.342,1.152-1v-.766a1.748,1.748,0,0,1-1.377.64A2.163,2.163,0,0,1,253.946,97.329Zm2.35,1.44a1.347,1.347,0,0,0,1.071-.5v-1.89A1.4,1.4,0,0,0,256.3,95.9a1.346,1.346,0,0,0-1.341,1.432A1.363,1.363,0,0,0,256.3,98.769Z"/>
    <path d="M259.409,98.293c0-.811.658-1.324,1.72-1.324a2.784,2.784,0,0,1,1.215.279v-.5c0-.594-.342-.9-1.035-.9a3.131,3.131,0,0,0-1.315.352l-.359-.738a4.311,4.311,0,0,1,1.872-.459c1.17,0,1.846.593,1.846,1.637v2.945h-1.009V99.13a1.881,1.881,0,0,1-1.341.531A1.423,1.423,0,0,1,259.409,98.293Zm1.873.656a1.6,1.6,0,0,0,1.062-.369v-.737a2.318,2.318,0,0,0-1.044-.217c-.576,0-.937.252-.937.648C260.363,98.688,260.724,98.949,261.282,98.949Z"/>
    <path d="M265.008,95.888H264.1v-.81h.909V93.836l1.017-.216v1.458h1.26v.81h-1.26v2.288c0,.44.17.612.63.612a1.882,1.882,0,0,0,.613-.109v.856a3.212,3.212,0,0,1-.874.126c-.91,0-1.386-.433-1.386-1.261Z"/>
    <path d="M270.2,99.678a2.293,2.293,0,0,1-2.3-2.34,2.221,2.221,0,0,1,2.2-2.331,2.164,2.164,0,0,1,2.133,2.322v.252H268.9a1.378,1.378,0,0,0,1.351,1.233,1.465,1.465,0,0,0,1.071-.423l.666.621A2.608,2.608,0,0,1,270.2,99.678Zm-1.278-2.718h2.35a1.236,1.236,0,0,0-1.18-1.125A1.21,1.21,0,0,0,268.923,96.96Z"/>
    <path d="M273.972,99.589l-1.216-4.511h.973l.792,3.187.927-3.187h.865l.926,3.2.784-3.2h.954l-1.215,4.511h-.982l-.909-3.178-.909,3.178Z"/>
    <path d="M279.533,98.293c0-.811.658-1.324,1.72-1.324a2.784,2.784,0,0,1,1.215.279v-.5c0-.594-.342-.9-1.035-.9a3.131,3.131,0,0,0-1.315.352l-.359-.738a4.311,4.311,0,0,1,1.872-.459c1.17,0,1.846.593,1.846,1.637v2.945h-1.009V99.13a1.881,1.881,0,0,1-1.341.531A1.423,1.423,0,0,1,279.533,98.293Zm1.873.656a1.6,1.6,0,0,0,1.062-.369v-.737a2.318,2.318,0,0,0-1.044-.217c-.576,0-.937.252-.937.648C280.487,98.688,280.848,98.949,281.406,98.949Z"/>
    <path d="M285.771,99.616l-1.7-4.538H285.2l1.144,3.349,1.261-3.349h1.107l-2.143,5.249a1.524,1.524,0,0,1-1.6,1.188,2.163,2.163,0,0,1-.514-.063v-.873a3.711,3.711,0,0,0,.4.036.717.717,0,0,0,.728-.522Z"/>
  </g>
  <g>
    <path class="cls-3" d="M357.332,27.524l.711.683a3.236,3.236,0,1,1,.027-4.266l-.729.719a2.217,2.217,0,1,0-1.692,3.683A2.135,2.135,0,0,0,357.332,27.524Z"/>
    <path class="cls-3" d="M360.985,29.315a2.293,2.293,0,0,1-2.3-2.341,2.221,2.221,0,0,1,2.2-2.331,2.164,2.164,0,0,1,2.134,2.322v.252h-3.331a1.377,1.377,0,0,0,1.35,1.233,1.468,1.468,0,0,0,1.071-.422l.666.621A2.6,2.6,0,0,1,360.985,29.315ZM359.707,26.6h2.35a1.234,1.234,0,0,0-1.18-1.125A1.212,1.212,0,0,0,359.707,26.6Z"/>
    <path class="cls-3" d="M364.054,24.714h1v.649a1.7,1.7,0,0,1,1.4-.684,2.164,2.164,0,0,1,2.044,2.3,2.187,2.187,0,0,1-2.116,2.3,1.689,1.689,0,0,1-1.315-.585v2.448h-1.016Zm1.016,1.324v1.881a1.383,1.383,0,0,0,1.081.5,1.444,1.444,0,0,0,0-2.881A1.325,1.325,0,0,0,365.07,26.038Z"/>
    <path class="cls-3" d="M369.553,22.788l1.016-.172v2.836A1.638,1.638,0,0,1,372,24.643a1.518,1.518,0,0,1,1.558,1.611v2.971h-1.018V26.542a.971.971,0,0,0-.99-1.08,1.159,1.159,0,0,0-.982.54v3.223h-1.016Z"/>
    <path class="cls-3" d="M374.25,29.225l2.422-3.259-2.287-3.043h1.3l1.629,2.241,1.621-2.241h1.242l-2.251,3.043,2.439,3.259h-1.287l-1.791-2.467L375.5,29.225Z"/>
    <path class="cls-3" d="M382.891,27.928c0-.81.657-1.323,1.718-1.323a2.8,2.8,0,0,1,1.216.279v-.5c0-.594-.342-.9-1.035-.9a3.116,3.116,0,0,0-1.314.351l-.361-.738a4.319,4.319,0,0,1,1.873-.459c1.17,0,1.845.594,1.845,1.638v2.944h-1.008v-.459a1.883,1.883,0,0,1-1.342.531A1.421,1.421,0,0,1,382.891,27.928Zm1.872.657a1.607,1.607,0,0,0,1.062-.368v-.738a2.32,2.32,0,0,0-1.044-.217c-.576,0-.936.252-.936.648C383.845,28.324,384.205,28.585,384.763,28.585Z"/>
    <path class="cls-3" d="M389.011,27.4a.971.971,0,0,0,.99,1.08,1.138,1.138,0,0,0,.99-.559V24.714h1.017v4.511h-1.017v-.747a1.649,1.649,0,0,1-1.44.819,1.513,1.513,0,0,1-1.558-1.611V24.714h1.018Z"/>
    <path class="cls-3" d="M393.817,25.525h-.91v-.811h.91V23.472l1.016-.216v1.458h1.261v.811h-1.261v2.287c0,.44.171.612.631.612a1.868,1.868,0,0,0,.612-.108v.855a3.2,3.2,0,0,1-.874.126c-.909,0-1.385-.433-1.385-1.261Z"/>
    <path class="cls-3" d="M396.984,22.788,398,22.616v2.836a1.637,1.637,0,0,1,1.432-.809,1.517,1.517,0,0,1,1.557,1.611v2.971h-1.017V26.542a.971.971,0,0,0-.99-1.08A1.156,1.156,0,0,0,398,26v3.223h-1.017Z"/>
    <path class="cls-3" d="M404.311,29.315a2.294,2.294,0,0,1-2.3-2.341,2.221,2.221,0,0,1,2.2-2.331,2.164,2.164,0,0,1,2.134,2.322v.252h-3.331a1.377,1.377,0,0,0,1.35,1.233,1.47,1.47,0,0,0,1.072-.422l.666.621A2.608,2.608,0,0,1,404.311,29.315ZM403.032,26.6h2.35a1.234,1.234,0,0,0-1.18-1.125A1.213,1.213,0,0,0,403.032,26.6Z"/>
    <path class="cls-3" d="M407.379,24.714H408.4v.738a1.635,1.635,0,0,1,1.431-.809,1.518,1.518,0,0,1,1.558,1.611v2.971h-1.018V26.542a.971.971,0,0,0-.99-1.08,1.156,1.156,0,0,0-.981.54v3.223h-1.017Z"/>
    <path class="cls-3" d="M413.04,25.525h-.909v-.811h.909V23.472l1.017-.216v1.458h1.26v.811h-1.26v2.287c0,.44.171.612.631.612a1.872,1.872,0,0,0,.612-.108v.855a3.212,3.212,0,0,1-.874.126c-.909,0-1.386-.433-1.386-1.261Z"/>
    <path class="cls-3" d="M416.081,23.175a.635.635,0,0,1,1.27,0,.635.635,0,0,1-1.27,0Zm1.144,6.05h-1.017V24.714h1.017Z"/>
    <path class="cls-3" d="M421.7,27.919l.613.612a2.346,2.346,0,0,1-1.765.784,2.332,2.332,0,0,1,0-4.663,2.431,2.431,0,0,1,1.8.755l-.631.658a1.491,1.491,0,0,0-1.134-.532,1.447,1.447,0,0,0,.026,2.881A1.386,1.386,0,0,0,421.7,27.919Z"/>
    <path class="cls-3" d="M422.957,27.928c0-.81.657-1.323,1.72-1.323a2.8,2.8,0,0,1,1.215.279v-.5c0-.594-.342-.9-1.035-.9a3.127,3.127,0,0,0-1.315.351l-.359-.738a4.311,4.311,0,0,1,1.872-.459c1.17,0,1.845.594,1.845,1.638v2.944h-1.008v-.459a1.882,1.882,0,0,1-1.341.531A1.423,1.423,0,0,1,422.957,27.928Zm1.873.657a1.609,1.609,0,0,0,1.062-.368v-.738a2.32,2.32,0,0,0-1.044-.217c-.576,0-.937.252-.937.648C423.911,28.324,424.272,28.585,424.83,28.585Z"/>
    <path class="cls-3" d="M428.556,25.525h-.909v-.811h.909V23.472l1.016-.216v1.458h1.261v.811h-1.261v2.287c0,.44.171.612.631.612a1.878,1.878,0,0,0,.613-.108v.855a3.212,3.212,0,0,1-.874.126c-.91,0-1.386-.433-1.386-1.261Z"/>
    <path class="cls-3" d="M431.6,23.175a.635.635,0,0,1,1.269,0,.635.635,0,0,1-1.269,0Zm1.143,6.05h-1.016V24.714h1.016Z"/>
    <path class="cls-3" d="M436.053,24.643a2.337,2.337,0,1,1-2.269,2.331A2.251,2.251,0,0,1,436.053,24.643Zm1.261,2.341a1.275,1.275,0,1,0-2.521,0,1.273,1.273,0,1,0,2.521,0Z"/>
    <path class="cls-3" d="M439.373,24.714h1.018v.738a1.635,1.635,0,0,1,1.431-.809,1.517,1.517,0,0,1,1.557,1.611v2.971h-1.017V26.542a.971.971,0,0,0-.99-1.08,1.156,1.156,0,0,0-.981.54v3.223h-1.018Z"/>
  </g>
  <g>
    <rect class="cls-4" x="251.085" y="42.307" width="40.175" height="30.798"/>
    <line class="cls-4" x1="286.624" y1="46.93" x2="286.624" y2="46.93"/>
    <line class="cls-4" x1="283.534" y1="46.93" x2="283.534" y2="46.93"/>
    <line class="cls-4" x1="280.443" y1="46.93" x2="280.443" y2="46.93"/>
    <line class="cls-4" x1="255.72" y1="46.93" x2="268.082" y2="46.93"/>
  </g>
  <g>
    <rect class="cls-4" x="251.085" y="152.92" width="40.175" height="30.798"/>
    <line class="cls-4" x1="286.624" y1="157.543" x2="286.624" y2="157.543"/>
    <line class="cls-4" x1="283.534" y1="157.543" x2="283.534" y2="157.543"/>
    <line class="cls-4" x1="280.443" y1="157.543" x2="280.443" y2="157.543"/>
    <line class="cls-4" x1="255.72" y1="157.543" x2="268.082" y2="157.543"/>
  </g>
  <g>
    <path d="M260.23,194.59l.711.684a3.235,3.235,0,1,1,.027-4.267l-.729.72a2.217,2.217,0,1,0-1.693,3.682A2.139,2.139,0,0,0,260.23,194.59Z"/>
    <path d="M262.785,194.464a.971.971,0,0,0,.99,1.08,1.137,1.137,0,0,0,.99-.558v-3.2h1.017v4.51h-1.017v-.747a1.65,1.65,0,0,1-1.44.82,1.514,1.514,0,0,1-1.558-1.612v-2.971h1.018Z"/>
    <path d="M267.1,195.085a2.6,2.6,0,0,0,1.45.513c.54,0,.909-.243.909-.6,0-.278-.189-.431-.621-.512l-.8-.135c-.874-.162-1.306-.567-1.306-1.242,0-.847.693-1.4,1.747-1.4a3.173,3.173,0,0,1,1.773.54l-.477.666a2.464,2.464,0,0,0-1.359-.432c-.469,0-.775.2-.775.531,0,.288.162.414.639.495l.793.145c.9.17,1.332.585,1.332,1.26a1.652,1.652,0,0,1-1.837,1.467,3.025,3.025,0,0,1-1.944-.612Z"/>
    <path d="M271.811,192.591H270.9v-.81h.909v-1.243l1.017-.215v1.458h1.26v.81h-1.26v2.287c0,.441.171.612.631.612a1.872,1.872,0,0,0,.612-.108v.856a3.206,3.206,0,0,1-.874.126c-.909,0-1.386-.433-1.386-1.261Z"/>
    <path d="M276.978,191.709a2.337,2.337,0,1,1-2.269,2.331A2.251,2.251,0,0,1,276.978,191.709Zm1.26,2.341a1.275,1.275,0,1,0-2.521,0,1.273,1.273,0,1,0,2.521,0Z"/>
    <path d="M280.3,191.781h1.017v.72a1.538,1.538,0,0,1,1.341-.792,1.417,1.417,0,0,1,1.324.873,1.663,1.663,0,0,1,1.494-.873,1.494,1.494,0,0,1,1.477,1.638v2.944h-1.017v-2.727a.913.913,0,0,0-.91-1.035,1.073,1.073,0,0,0-.909.53c.009.1.018.189.018.288v2.944h-1.017v-2.727a.912.912,0,0,0-.91-1.035,1.045,1.045,0,0,0-.891.512v3.25H280.3Z"/>
    <path d="M248.268,205.8c0-.81.657-1.324,1.719-1.324a2.8,2.8,0,0,1,1.215.279v-.5c0-.594-.342-.9-1.035-.9a3.12,3.12,0,0,0-1.314.351l-.36-.738a4.329,4.329,0,0,1,1.872-.459c1.17,0,1.846.594,1.846,1.638v2.944H251.2v-.459a1.882,1.882,0,0,1-1.341.531A1.422,1.422,0,0,1,248.268,205.8Zm1.872.656a1.6,1.6,0,0,0,1.062-.369v-.737a2.331,2.331,0,0,0-1.044-.217c-.576,0-.936.252-.936.649C249.222,206.191,249.582,206.451,250.14,206.451Z"/>
    <path d="M253.442,202.58h1v.649a1.7,1.7,0,0,1,1.4-.684,2.307,2.307,0,0,1-.072,4.591,1.686,1.686,0,0,1-1.314-.585V209h-1.018Zm1.018,1.325v1.88a1.38,1.38,0,0,0,1.08.5,1.444,1.444,0,0,0,0-2.881A1.322,1.322,0,0,0,254.46,203.905Z"/>
    <path d="M258.942,202.58h1v.649a1.7,1.7,0,0,1,1.4-.684,2.307,2.307,0,0,1-.072,4.591,1.686,1.686,0,0,1-1.314-.585V209h-1.017Zm1.017,1.325v1.88a1.38,1.38,0,0,0,1.08.5,1.444,1.444,0,0,0,0-2.881A1.322,1.322,0,0,0,259.959,203.905Z"/>
    <path d="M265.458,207.091h-1.017v-6.436l1.017-.172Z"/>
    <path d="M266.582,201.041a.635.635,0,0,1,1.27,0,.635.635,0,0,1-1.27,0Zm1.144,6.05h-1.017V202.58h1.017Z"/>
    <path d="M272.2,205.785l.613.613a2.349,2.349,0,0,1-1.765.783,2.332,2.332,0,0,1,0-4.663,2.429,2.429,0,0,1,1.8.756l-.631.657a1.49,1.49,0,0,0-1.134-.531,1.447,1.447,0,0,0,.027,2.881A1.383,1.383,0,0,0,272.2,205.785Z"/>
    <path d="M273.459,205.8c0-.81.657-1.324,1.719-1.324a2.8,2.8,0,0,1,1.215.279v-.5c0-.594-.342-.9-1.035-.9a3.12,3.12,0,0,0-1.314.351l-.36-.738a4.326,4.326,0,0,1,1.872-.459c1.171,0,1.845.594,1.845,1.638v2.944h-1.008v-.459a1.882,1.882,0,0,1-1.341.531A1.422,1.422,0,0,1,273.459,205.8Zm1.872.656a1.6,1.6,0,0,0,1.062-.369v-.737a2.334,2.334,0,0,0-1.044-.217c-.576,0-.936.252-.936.649C274.413,206.191,274.773,206.451,275.331,206.451Z"/>
    <path d="M279.056,203.391h-.909v-.811h.909v-1.242l1.017-.216v1.458h1.261v.811h-1.261v2.287c0,.44.171.612.631.612a1.868,1.868,0,0,0,.612-.108v.855a3.2,3.2,0,0,1-.874.126c-.909,0-1.386-.432-1.386-1.26Z"/>
    <path d="M282.1,201.041a.635.635,0,0,1,1.269,0,.635.635,0,0,1-1.269,0Zm1.143,6.05h-1.017V202.58h1.017Z"/>
    <path d="M286.554,202.509a2.337,2.337,0,1,1-2.269,2.331A2.251,2.251,0,0,1,286.554,202.509Zm1.26,2.341a1.275,1.275,0,1,0-2.52,0,1.272,1.272,0,1,0,2.52,0Z"/>
    <path d="M289.874,202.58h1.017v.739a1.635,1.635,0,0,1,1.432-.81,1.517,1.517,0,0,1,1.557,1.611v2.971h-1.017v-2.683a.971.971,0,0,0-.99-1.08,1.156,1.156,0,0,0-.982.54v3.223h-1.017Z"/>
  </g>
  <g>
    <line class="cls-2" x1="158.814" y1="68.788" x2="216.615" y2="68.788"/>
    <polygon points="215.52 72.528 221.996 68.789 215.52 65.049 215.52 72.528"/>
  </g>
  <polyline class="cls-2" points="319.944 68.788 406.306 68.788 406.306 173.143"/>
  <polyline class="cls-2" points="319.944 288.842 406.306 288.842 406.306 173.143"/>
  <g>
    <line class="cls-2" x1="319.944" y1="175.805" x2="470.549" y2="175.805"/>
    <polygon points="469.455 179.544 475.931 175.805 469.455 172.065 469.455 179.544"/>
  </g>
  <g>
    <g>
      <path d="M482.192,202.967l.712.684a3.235,3.235,0,1,1,.027-4.267l-.729.72a2.217,2.217,0,1,0-1.693,3.682A2.134,2.134,0,0,0,482.192,202.967Z"/>
      <path d="M485.846,204.758a2.292,2.292,0,0,1-2.3-2.341,2.221,2.221,0,0,1,2.2-2.331,2.164,2.164,0,0,1,2.134,2.322v.252H484.55a1.378,1.378,0,0,0,1.35,1.234,1.471,1.471,0,0,0,1.072-.423l.666.621A2.61,2.61,0,0,1,485.846,204.758Zm-1.279-2.719h2.35a1.234,1.234,0,0,0-1.179-1.125A1.214,1.214,0,0,0,484.567,202.039Z"/>
      <path d="M488.914,200.157h1v.649a1.7,1.7,0,0,1,1.4-.684,2.307,2.307,0,0,1-.071,4.591,1.686,1.686,0,0,1-1.314-.585v2.448h-1.018Zm1.018,1.325v1.881a1.381,1.381,0,0,0,1.08.5,1.444,1.444,0,0,0,0-2.881A1.32,1.32,0,0,0,489.932,201.482Z"/>
      <path d="M494.413,198.232l1.018-.172V200.9a1.634,1.634,0,0,1,1.431-.81,1.518,1.518,0,0,1,1.557,1.612v2.97H497.4v-2.682a.971.971,0,0,0-.99-1.08,1.154,1.154,0,0,0-.981.54v3.222h-1.018Z"/>
      <path d="M501.748,203.462a2.6,2.6,0,0,0,1.449.513c.54,0,.91-.243.91-.6,0-.278-.189-.431-.622-.512l-.8-.135c-.874-.162-1.306-.568-1.306-1.242,0-.847.693-1.4,1.746-1.4a3.176,3.176,0,0,1,1.774.54l-.477.666a2.467,2.467,0,0,0-1.359-.432c-.469,0-.775.2-.775.531,0,.288.162.414.639.5l.793.145c.9.17,1.332.584,1.332,1.26a1.652,1.652,0,0,1-1.837,1.467,3.025,3.025,0,0,1-1.944-.612Z"/>
      <path d="M506.455,200.968h-.909v-.811h.909v-1.242l1.018-.216v1.458h1.26v.811h-1.26v2.287c0,.441.171.612.63.612a1.872,1.872,0,0,0,.612-.108v.855a3.166,3.166,0,0,1-.873.126c-.909,0-1.387-.432-1.387-1.26Z"/>
      <path d="M511.621,200.086a2.337,2.337,0,1,1-2.268,2.331A2.252,2.252,0,0,1,511.621,200.086Zm1.261,2.341a1.275,1.275,0,1,0-2.521,0,1.273,1.273,0,1,0,2.521,0Z"/>
      <path d="M514.942,200.157h1.017v.982a1.339,1.339,0,0,1,1.242-1.063,1.232,1.232,0,0,1,.442.091v.891a1.452,1.452,0,0,0-.558-.108,1.239,1.239,0,0,0-1.126.748v2.97h-1.017Z"/>
      <path d="M518.1,203.371c0-.809.657-1.323,1.719-1.323a2.8,2.8,0,0,1,1.215.279v-.5c0-.593-.342-.9-1.035-.9a3.12,3.12,0,0,0-1.314.351l-.36-.738a4.329,4.329,0,0,1,1.872-.459c1.171,0,1.846.594,1.846,1.638v2.944h-1.009v-.459a1.881,1.881,0,0,1-1.341.531A1.422,1.422,0,0,1,518.1,203.371Zm1.873.658a1.605,1.605,0,0,0,1.061-.369v-.738a2.328,2.328,0,0,0-1.044-.217c-.576,0-.936.252-.936.649C519.055,203.768,519.415,204.029,519.974,204.029Z"/>
      <path d="M523.068,202.408a2.177,2.177,0,0,1,2.107-2.286,1.7,1.7,0,0,1,1.323.612v-.577h1.009v4.665c0,1.161-.756,1.8-2.125,1.8a3.923,3.923,0,0,1-1.81-.431l.361-.756a3.07,3.07,0,0,0,1.4.387c.757,0,1.152-.342,1.152-1v-.766a1.749,1.749,0,0,1-1.377.64A2.163,2.163,0,0,1,523.068,202.408Zm2.35,1.441a1.347,1.347,0,0,0,1.071-.495v-1.891a1.4,1.4,0,0,0-1.071-.486,1.345,1.345,0,0,0-1.341,1.431A1.364,1.364,0,0,0,525.418,203.849Z"/>
      <path d="M530.845,204.758a2.292,2.292,0,0,1-2.3-2.341,2.221,2.221,0,0,1,2.2-2.331,2.164,2.164,0,0,1,2.134,2.322v.252h-3.331a1.378,1.378,0,0,0,1.351,1.234,1.47,1.47,0,0,0,1.071-.423l.666.621A2.61,2.61,0,0,1,530.845,204.758Zm-1.278-2.719h2.349a1.234,1.234,0,0,0-1.179-1.125A1.212,1.212,0,0,0,529.567,202.039Z"/>
      <path d="M494.477,214.162l.612.613a2.346,2.346,0,0,1-1.765.783,2.332,2.332,0,0,1,0-4.663,2.429,2.429,0,0,1,1.8.756l-.63.657a1.491,1.491,0,0,0-1.135-.531,1.447,1.447,0,0,0,.028,2.88A1.384,1.384,0,0,0,494.477,214.162Z"/>
      <path d="M496.979,215.468h-1.018v-6.437l1.018-.171Z"/>
      <path d="M499.22,213.641a.971.971,0,0,0,.99,1.08,1.138,1.138,0,0,0,.99-.559v-3.205h1.017v4.511H501.2v-.747a1.649,1.649,0,0,1-1.44.819,1.513,1.513,0,0,1-1.558-1.611v-2.972h1.018Z"/>
      <path d="M503.539,214.262a2.6,2.6,0,0,0,1.449.513c.54,0,.91-.244.91-.6,0-.279-.189-.433-.622-.514l-.8-.134c-.874-.162-1.306-.568-1.306-1.243,0-.846.693-1.4,1.746-1.4a3.176,3.176,0,0,1,1.774.54l-.477.666a2.468,2.468,0,0,0-1.359-.433c-.469,0-.775.2-.775.532,0,.288.162.414.639.5l.793.144c.9.171,1.332.585,1.332,1.261a1.652,1.652,0,0,1-1.837,1.467,3.025,3.025,0,0,1-1.944-.612Z"/>
      <path d="M508.246,211.768h-.909v-.811h.909v-1.242l1.017-.216v1.458h1.261v.811h-1.261v2.287c0,.44.172.612.631.612a1.872,1.872,0,0,0,.612-.108v.855a3.212,3.212,0,0,1-.874.126c-.909,0-1.386-.432-1.386-1.26Z"/>
      <path d="M513.44,215.558a2.293,2.293,0,0,1-2.3-2.341,2.221,2.221,0,0,1,2.2-2.331,2.165,2.165,0,0,1,2.134,2.322v.252h-3.331a1.377,1.377,0,0,0,1.35,1.234,1.471,1.471,0,0,0,1.072-.423l.666.621A2.608,2.608,0,0,1,513.44,215.558Zm-1.279-2.719h2.35a1.234,1.234,0,0,0-1.18-1.125A1.212,1.212,0,0,0,512.161,212.839Z"/>
      <path d="M516.508,210.957h1.017v.982a1.338,1.338,0,0,1,1.243-1.063,1.227,1.227,0,0,1,.441.091v.891a1.435,1.435,0,0,0-.559-.108,1.237,1.237,0,0,0-1.125.747v2.971h-1.017Z"/>
    </g>
    <g>
      <path class="cls-4" d="M486.571,170.645v10.193c0,5.629,8.26,10.192,18.449,10.192s18.449-4.563,18.449-10.192V170.645"/>
      <path class="cls-4" d="M486.571,160.453v10.192c0,5.629,8.26,10.193,18.449,10.193s18.449-4.564,18.449-10.193V160.453"/>
      <ellipse class="cls-4" cx="505.02" cy="160.453" rx="18.449" ry="10.192"/>
    </g>
  </g>
  <rect class="cls-5" x="68.608" y="297.314" width="76.681" height="38.873"/>
  <rect class="cls-5" x="152.49" y="297.314" width="76.681" height="38.873"/>
  <rect class="cls-5" x="236.371" y="297.314" width="76.681" height="38.873"/>
  <g>
    <g>
      <path d="M155.711,281.885l.71.684a3.235,3.235,0,1,1,.028-4.267l-.73.72a2.217,2.217,0,1,0-1.692,3.682A2.137,2.137,0,0,0,155.711,281.885Z"/>
      <path d="M159.364,283.676a2.293,2.293,0,0,1-2.3-2.34,2.221,2.221,0,0,1,2.2-2.332,2.164,2.164,0,0,1,2.134,2.322v.252h-3.331a1.377,1.377,0,0,0,1.35,1.234,1.465,1.465,0,0,0,1.071-.423l.667.621A2.612,2.612,0,0,1,159.364,283.676Zm-1.278-2.719h2.349a1.234,1.234,0,0,0-1.18-1.125A1.211,1.211,0,0,0,158.086,280.957Z"/>
      <path d="M162.432,279.076h1v.648a1.7,1.7,0,0,1,1.405-.684,2.307,2.307,0,0,1-.073,4.591,1.686,1.686,0,0,1-1.314-.585V285.5h-1.018Zm1.018,1.323v1.882a1.382,1.382,0,0,0,1.08.5,1.444,1.444,0,0,0,0-2.881A1.324,1.324,0,0,0,163.45,280.4Z"/>
      <path d="M167.931,277.149l1.018-.171v2.836a1.636,1.636,0,0,1,1.431-.81,1.518,1.518,0,0,1,1.558,1.611v2.971h-1.017V280.9a.972.972,0,0,0-.991-1.081,1.156,1.156,0,0,0-.981.54v3.223h-1.018Z"/>
      <path d="M174.969,282.29c0-.81.658-1.323,1.72-1.323a2.785,2.785,0,0,1,1.215.278v-.5c0-.594-.342-.9-1.035-.9a3.127,3.127,0,0,0-1.315.351l-.36-.738a4.333,4.333,0,0,1,1.873-.459c1.17,0,1.846.594,1.846,1.638v2.944H177.9v-.459a1.882,1.882,0,0,1-1.341.531A1.423,1.423,0,0,1,174.969,282.29Zm1.872.657a1.609,1.609,0,0,0,1.063-.369v-.738a2.336,2.336,0,0,0-1.044-.216c-.576,0-.937.252-.937.648C175.923,282.686,176.284,282.947,176.841,282.947Z"/>
      <path d="M183.367,282.983a1.739,1.739,0,0,1-1.387.648,2.307,2.307,0,0,1,.063-4.591,1.72,1.72,0,0,1,1.314.594v-2.485l1.018-.171v6.608h-1.008Zm-1.081-.207a1.348,1.348,0,0,0,1.071-.5v-1.9a1.4,1.4,0,0,0-1.071-.486,1.444,1.444,0,0,0,0,2.881Z"/>
      <path d="M185.633,279.076h1.018v.72a1.538,1.538,0,0,1,1.342-.792,1.418,1.418,0,0,1,1.323.873A1.663,1.663,0,0,1,190.81,279a1.5,1.5,0,0,1,1.477,1.638v2.944h-1.018v-2.728a.912.912,0,0,0-.909-1.035,1.074,1.074,0,0,0-.909.531c.009.1.018.189.018.288v2.944h-1.017v-2.728a.913.913,0,0,0-.909-1.035,1.047,1.047,0,0,0-.892.513v3.25h-1.018Z"/>
      <path d="M193.391,277.536a.635.635,0,0,1,1.27,0,.635.635,0,0,1-1.27,0Zm1.144,6.05h-1.018v-4.51h1.018Z"/>
      <path d="M195.785,279.076H196.8v.738a1.637,1.637,0,0,1,1.432-.81,1.518,1.518,0,0,1,1.558,1.611v2.971h-1.018V280.9a.971.971,0,0,0-.99-1.081,1.159,1.159,0,0,0-.982.54v3.223h-1.017Z"/>
      <path d="M200.9,277.536a.635.635,0,0,1,1.27,0,.635.635,0,0,1-1.27,0Zm1.144,6.05h-1.018v-4.51h1.018Z"/>
      <path d="M203.363,282.38a2.6,2.6,0,0,0,1.449.513c.54,0,.909-.243.909-.6,0-.28-.188-.432-.621-.513l-.8-.135c-.873-.162-1.305-.568-1.305-1.243,0-.846.693-1.395,1.747-1.395a3.173,3.173,0,0,1,1.773.54l-.477.666a2.468,2.468,0,0,0-1.36-.432c-.467,0-.774.2-.774.531,0,.288.162.414.64.495l.792.144c.9.171,1.332.585,1.332,1.261a1.652,1.652,0,0,1-1.836,1.467,3.031,3.031,0,0,1-1.946-.612Z"/>
      <path d="M208.071,279.886h-.909v-.81h.909v-1.243l1.017-.216v1.459h1.26v.81h-1.26v2.287c0,.441.171.612.63.612a1.878,1.878,0,0,0,.613-.108v.855a3.21,3.21,0,0,1-.873.126c-.911,0-1.387-.432-1.387-1.26Z"/>
      <path d="M211.238,279.076h1.017v.981A1.338,1.338,0,0,1,213.5,279a1.205,1.205,0,0,1,.441.09v.891a1.435,1.435,0,0,0-.559-.108,1.24,1.24,0,0,0-1.125.747v2.971h-1.017Z"/>
      <path d="M214.4,282.29c0-.81.657-1.323,1.72-1.323a2.789,2.789,0,0,1,1.215.278v-.5c0-.594-.342-.9-1.036-.9a3.123,3.123,0,0,0-1.314.351l-.36-.738A4.33,4.33,0,0,1,216.5,279c1.17,0,1.845.594,1.845,1.638v2.944h-1.008v-.459a1.884,1.884,0,0,1-1.341.531A1.423,1.423,0,0,1,214.4,282.29Zm1.872.657a1.611,1.611,0,0,0,1.063-.369v-.738a2.339,2.339,0,0,0-1.044-.216c-.576,0-.937.252-.937.648C215.351,282.686,215.712,282.947,216.269,282.947Z"/>
      <path d="M220,279.886h-.909v-.81H220v-1.243l1.017-.216v1.459h1.26v.81h-1.26v2.287c0,.441.171.612.63.612a1.868,1.868,0,0,0,.612-.108v.855a3.2,3.2,0,0,1-.873.126c-.91,0-1.386-.432-1.386-1.26Z"/>
      <path d="M225.162,279a2.337,2.337,0,1,1-2.269,2.332A2.252,2.252,0,0,1,225.162,279Zm1.26,2.34a1.275,1.275,0,1,0-2.52,0,1.272,1.272,0,1,0,2.52,0Z"/>
      <path d="M228.482,279.076H229.5v.981A1.336,1.336,0,0,1,230.742,279a1.205,1.205,0,0,1,.441.09v.891a1.434,1.434,0,0,0-.558-.108,1.237,1.237,0,0,0-1.125.747v2.971h-1.018Z"/>
    </g>
    <g>
      <path class="cls-6" d="M205.756,272.791a14.926,14.926,0,0,0-29.851,0Z"/>
      <ellipse class="cls-6" cx="190.83" cy="250.416" rx="7.493" ry="7.483"/>
    </g>
  </g>
  <g>
    <path class="cls-7" d="M101.244,48.824l.016-.022a11.369,11.369,0,0,1,17.961.341,1.155,1.155,0,0,0,1.251-.132c2.027-1.9-4.3-5.684-5.93-6.082a7.313,7.313,0,1,0-9.019,0c-1.629.474-7.957,4.13-5.93,6.082A1.176,1.176,0,0,0,101.244,48.824Zm3.806-11.6v-.034a4.631,4.631,0,1,1,0,.034Z"/>
    <path class="cls-7" d="M106.243,56.381a1.175,1.175,0,0,0,0,2.349h7.579a1.175,1.175,0,0,0,0-2.349Z"/>
    <path class="cls-8" d="M109.716,41.836a4.808,4.808,0,1,0-4.666-4.648v.034A4.948,4.948,0,0,0,109.716,41.836Z"/>
    <path class="cls-7" d="M100.313,63.789a7.31,7.31,0,1,0-8.98,0,13.471,13.471,0,0,0-9,12.712,1.157,1.157,0,0,0,1.137,1.175h24.668a1.193,1.193,0,0,0,1.193-1.175A13.507,13.507,0,0,0,100.313,63.789ZM90.84,58.105a4.977,4.977,0,1,1,4.634,4.61A4.912,4.912,0,0,1,90.84,58.105ZM84.759,75.327c1.591-13.149,20.537-13.13,22.128,0Z"/>
    <path class="cls-7" d="M128.732,63.789a7.31,7.31,0,1,0-8.98,0,13.471,13.471,0,0,0-9,12.712,1.157,1.157,0,0,0,1.137,1.175h24.668A1.193,1.193,0,0,0,137.75,76.5,13.507,13.507,0,0,0,128.732,63.789Zm-9.473-5.684a4.977,4.977,0,1,1,4.634,4.61A4.912,4.912,0,0,1,119.259,58.105Zm-6.1,17.3c1.591-13.149,20.537-13.13,22.128,0Z"/>
    <path class="cls-8" d="M123.893,62.715a4.79,4.79,0,1,0-4.634-4.61A4.912,4.912,0,0,0,123.893,62.715Z"/>
    <path class="cls-9" d="M84.759,75.327h22.128C105.3,62.2,86.35,62.178,84.759,75.327Z"/>
    <path class="cls-8" d="M95.474,62.715a4.79,4.79,0,1,0-4.634-4.61A4.912,4.912,0,0,0,95.474,62.715Z"/>
    <path class="cls-8" d="M113.159,75.4h22.128C133.7,62.273,114.75,62.254,113.159,75.4Z"/>
  </g>
  <g>
    <path class="cls-7" d="M101.244,156.89l.016-.021a11.366,11.366,0,0,1,17.961.341,1.157,1.157,0,0,0,1.251-.133c2.027-1.894-4.3-5.684-5.93-6.081a7.31,7.31,0,1,0-9.019,0c-1.629.473-7.957,4.13-5.93,6.081A1.175,1.175,0,0,0,101.244,156.89Zm3.806-11.6v-.034a4.631,4.631,0,1,1,0,.034Z"/>
    <path class="cls-7" d="M106.243,164.447a1.175,1.175,0,0,0,0,2.35h7.579a1.175,1.175,0,0,0,0-2.35Z"/>
    <path class="cls-8" d="M109.716,149.9a4.808,4.808,0,1,0-4.666-4.648v.034A4.949,4.949,0,0,0,109.716,149.9Z"/>
    <path class="cls-7" d="M100.313,171.855a7.313,7.313,0,1,0-8.98,0,13.472,13.472,0,0,0-9,12.713,1.157,1.157,0,0,0,1.137,1.175h24.668a1.193,1.193,0,0,0,1.193-1.175A13.507,13.507,0,0,0,100.313,171.855Zm-9.473-5.684a4.977,4.977,0,1,1,4.634,4.61A4.911,4.911,0,0,1,90.84,166.171Zm-6.081,17.222c1.591-13.148,20.537-13.129,22.128,0Z"/>
    <path class="cls-7" d="M128.732,171.855a7.313,7.313,0,1,0-8.98,0,13.472,13.472,0,0,0-9,12.713,1.157,1.157,0,0,0,1.137,1.175h24.668a1.193,1.193,0,0,0,1.193-1.175A13.507,13.507,0,0,0,128.732,171.855Zm-9.473-5.684a4.977,4.977,0,1,1,4.634,4.61A4.911,4.911,0,0,1,119.259,166.171Zm-6.1,17.3c1.591-13.148,20.537-13.13,22.128,0Z"/>
    <path class="cls-8" d="M123.893,170.781a4.789,4.789,0,1,0-4.634-4.61A4.911,4.911,0,0,0,123.893,170.781Z"/>
    <path class="cls-9" d="M84.759,183.393h22.128C105.3,170.264,86.35,170.245,84.759,183.393Z"/>
    <path class="cls-8" d="M95.474,170.781a4.789,4.789,0,1,0-4.634-4.61A4.911,4.911,0,0,0,95.474,170.781Z"/>
    <path class="cls-8" d="M113.159,183.469h22.128C133.7,170.339,114.75,170.321,113.159,183.469Z"/>
  </g>
  <g>
    <path d="M91.943,312.418l.613.612a2.349,2.349,0,0,1-1.765.783,2.332,2.332,0,0,1,0-4.663,2.432,2.432,0,0,1,1.8.756l-.63.657a1.492,1.492,0,0,0-1.135-.531,1.447,1.447,0,0,0,.027,2.881A1.385,1.385,0,0,0,91.943,312.418Z"/>
    <path d="M95.381,313.813a2.292,2.292,0,0,1-2.3-2.34,2.221,2.221,0,0,1,2.2-2.332,2.165,2.165,0,0,1,2.134,2.323v.252H94.085a1.377,1.377,0,0,0,1.35,1.233,1.465,1.465,0,0,0,1.071-.423l.666.621A2.606,2.606,0,0,1,95.381,313.813ZM94.1,311.094h2.349a1.234,1.234,0,0,0-1.179-1.125A1.211,1.211,0,0,0,94.1,311.094Z"/>
    <path d="M98.45,309.213h1v.648a1.7,1.7,0,0,1,1.4-.684,2.307,2.307,0,0,1-.072,4.591,1.686,1.686,0,0,1-1.314-.585v2.449H98.45Zm1.017,1.323v1.882a1.382,1.382,0,0,0,1.08.5,1.444,1.444,0,0,0,0-2.881A1.324,1.324,0,0,0,99.467,310.536Z"/>
    <path d="M103.949,307.286l1.017-.171v2.836a1.637,1.637,0,0,1,1.432-.81,1.518,1.518,0,0,1,1.557,1.612v2.97h-1.017v-2.682a.973.973,0,0,0-.991-1.081,1.156,1.156,0,0,0-.981.54v3.223h-1.017Z"/>
    <path d="M113.273,309.141A2.337,2.337,0,1,1,111,311.473,2.252,2.252,0,0,1,113.273,309.141Zm1.26,2.341a1.275,1.275,0,1,0-2.52,0,1.272,1.272,0,1,0,2.52,0Z"/>
    <path d="M116.665,312.517a2.6,2.6,0,0,0,1.45.513c.54,0,.909-.243.909-.6,0-.279-.189-.432-.621-.513l-.8-.135c-.874-.162-1.306-.567-1.306-1.243,0-.846.693-1.395,1.747-1.395a3.173,3.173,0,0,1,1.773.54l-.477.666a2.473,2.473,0,0,0-1.359-.432c-.469,0-.775.2-.775.532,0,.288.162.414.639.5l.793.144c.9.171,1.332.585,1.332,1.26a1.652,1.652,0,0,1-1.837,1.467,3.025,3.025,0,0,1-1.944-.612Z"/>
    <path d="M124.172,313.12a1.735,1.735,0,0,1-1.386.648,2.307,2.307,0,0,1,.063-4.591,1.72,1.72,0,0,1,1.314.594v-2.485l1.017-.171v6.608h-1.008Zm-1.08-.207a1.349,1.349,0,0,0,1.071-.5v-1.9a1.4,1.4,0,0,0-1.071-.486,1.444,1.444,0,0,0,0,2.881Z"/>
    <path d="M92.8,318.221h1.08v6.3H92.8Z"/>
    <path d="M95.3,323.317a2.6,2.6,0,0,0,1.45.513c.54,0,.909-.243.909-.6,0-.279-.189-.432-.621-.513l-.8-.135c-.874-.162-1.306-.568-1.306-1.243,0-.846.693-1.4,1.746-1.4a3.174,3.174,0,0,1,1.774.54l-.477.666a2.468,2.468,0,0,0-1.36-.432c-.468,0-.774.2-.774.531,0,.288.162.414.639.5l.793.144c.9.171,1.332.585,1.332,1.261a1.652,1.652,0,0,1-1.837,1.467A3.025,3.025,0,0,1,94.818,324Z"/>
    <path d="M99.534,320.013h1v.648a1.7,1.7,0,0,1,1.4-.684,2.307,2.307,0,0,1-.072,4.591,1.686,1.686,0,0,1-1.314-.585v2.449H99.534Zm1.017,1.323v1.882a1.382,1.382,0,0,0,1.08.5,1.444,1.444,0,0,0,0-2.881A1.324,1.324,0,0,0,100.551,321.336Z"/>
    <path d="M107.121,319.941a2.337,2.337,0,1,1-2.268,2.332A2.252,2.252,0,0,1,107.121,319.941Zm1.26,2.34a1.275,1.275,0,1,0-2.52,0,1.272,1.272,0,1,0,2.52,0Z"/>
    <path d="M112.53,319.941a2.337,2.337,0,1,1-2.268,2.332A2.252,2.252,0,0,1,112.53,319.941Zm1.261,2.34a1.275,1.275,0,1,0-2.521,0,1.273,1.273,0,1,0,2.521,0Z"/>
    <path d="M116.868,324.523h-1.017v-6.437l1.017-.171Z"/>
    <path d="M118.191,323.317a2.6,2.6,0,0,0,1.449.513c.54,0,.909-.243.909-.6,0-.279-.189-.432-.621-.513l-.8-.135c-.873-.162-1.306-.568-1.306-1.243,0-.846.694-1.4,1.747-1.4a3.173,3.173,0,0,1,1.773.54l-.477.666a2.464,2.464,0,0,0-1.359-.432c-.468,0-.774.2-.774.531,0,.288.162.414.639.5l.792.144c.9.171,1.333.585,1.333,1.261a1.653,1.653,0,0,1-1.837,1.467,3.03,3.03,0,0,1-1.945-.612Z"/>
  </g>
  <g>
    <path d="M175.288,314.836h1.017v.981a1.338,1.338,0,0,1,1.242-1.062,1.206,1.206,0,0,1,.442.09v.892a1.417,1.417,0,0,0-.558-.109,1.237,1.237,0,0,0-1.126.748v2.97h-1.017Z"/>
    <path d="M178.447,318.05c0-.81.657-1.323,1.719-1.323a2.784,2.784,0,0,1,1.215.279v-.5c0-.594-.341-.9-1.035-.9a3.123,3.123,0,0,0-1.314.352l-.36-.739a4.33,4.33,0,0,1,1.873-.459c1.17,0,1.845.594,1.845,1.639v2.943h-1.009v-.459a1.878,1.878,0,0,1-1.341.532A1.422,1.422,0,0,1,178.447,318.05Zm1.872.657a1.608,1.608,0,0,0,1.062-.369V317.6a2.329,2.329,0,0,0-1.043-.216c-.577,0-.937.252-.937.648C179.4,318.446,179.761,318.707,180.319,318.707Z"/>
    <path d="M186.845,318.743a1.737,1.737,0,0,1-1.386.648,2.307,2.307,0,0,1,.063-4.591,1.72,1.72,0,0,1,1.314.594v-2.485l1.017-.17v6.607h-1.008Zm-1.08-.207a1.349,1.349,0,0,0,1.071-.5v-1.9a1.4,1.4,0,0,0-1.071-.485,1.444,1.444,0,0,0,0,2.88Z"/>
    <path d="M191.173,314.764a2.337,2.337,0,1,1-2.268,2.332A2.252,2.252,0,0,1,191.173,314.764Zm1.261,2.341a1.275,1.275,0,1,0-2.521,0,1.273,1.273,0,1,0,2.521,0Z"/>
    <path d="M194.566,318.14a2.6,2.6,0,0,0,1.449.513c.54,0,.909-.243.909-.6,0-.279-.189-.432-.621-.513l-.8-.135c-.873-.162-1.306-.567-1.306-1.243,0-.846.694-1.395,1.747-1.395a3.173,3.173,0,0,1,1.773.54l-.477.666a2.473,2.473,0,0,0-1.359-.432c-.468,0-.774.2-.774.532,0,.288.162.414.639.5l.792.144c.9.171,1.333.585,1.333,1.26a1.653,1.653,0,0,1-1.837,1.467,3.03,3.03,0,0,1-1.945-.612Z"/>
    <path d="M200.9,313.045h1.081v6.3H200.9Z"/>
    <path d="M203.394,318.14a2.6,2.6,0,0,0,1.45.513c.54,0,.909-.243.909-.6,0-.279-.189-.432-.621-.513l-.8-.135c-.874-.162-1.306-.567-1.306-1.243,0-.846.693-1.395,1.747-1.395a3.173,3.173,0,0,1,1.773.54l-.477.666a2.473,2.473,0,0,0-1.359-.432c-.469,0-.775.2-.775.532,0,.288.162.414.639.5l.793.144c.9.171,1.332.585,1.332,1.26a1.652,1.652,0,0,1-1.837,1.467,3.025,3.025,0,0,1-1.944-.612Z"/>
  </g>
  <g>
    <path d="M260.812,314.836h1.017v.981a1.337,1.337,0,0,1,1.242-1.062,1.205,1.205,0,0,1,.441.09v.892a1.417,1.417,0,0,0-.558-.109,1.237,1.237,0,0,0-1.125.748v2.97h-1.017Z"/>
    <path d="M266.68,319.391a1.677,1.677,0,0,1-1.332-.63v.585h-1v-6.437l1.017-.17v2.7a1.755,1.755,0,0,1,1.386-.639,2.307,2.307,0,0,1-.072,4.591Zm-1.314-3.232v1.882a1.382,1.382,0,0,0,1.08.5,1.444,1.444,0,0,0,0-2.88A1.323,1.323,0,0,0,265.366,316.159Z"/>
    <path d="M273.1,318.743a1.735,1.735,0,0,1-1.386.648,2.308,2.308,0,0,1,.063-4.591,1.72,1.72,0,0,1,1.314.594v-2.485l1.018-.17v6.607H273.1Zm-1.08-.207a1.349,1.349,0,0,0,1.071-.5v-1.9a1.4,1.4,0,0,0-1.071-.485,1.444,1.444,0,0,0,0,2.88Z"/>
    <path d="M278.406,319.346h-1.017v-6.437l1.017-.17Z"/>
    <path d="M279.531,313.3a.635.635,0,0,1,1.269,0,.635.635,0,0,1-1.269,0Zm1.143,6.049h-1.017v-4.51h1.017Z"/>
    <path d="M282,318.14a2.6,2.6,0,0,0,1.45.513c.54,0,.909-.243.909-.6,0-.279-.189-.432-.621-.513l-.8-.135c-.874-.162-1.306-.567-1.306-1.243,0-.846.693-1.395,1.747-1.395a3.173,3.173,0,0,1,1.773.54l-.477.666a2.473,2.473,0,0,0-1.359-.432c-.469,0-.775.2-.775.532,0,.288.162.414.639.5l.793.144c.9.171,1.332.585,1.332,1.26a1.652,1.652,0,0,1-1.837,1.467,3.025,3.025,0,0,1-1.944-.612Z"/>
    <path d="M286.7,315.646H285.8v-.81h.909v-1.242l1.017-.216v1.458h1.261v.81h-1.261v2.287c0,.441.172.612.631.612a1.872,1.872,0,0,0,.612-.108v.855a3.207,3.207,0,0,1-.874.127c-.909,0-1.386-.433-1.386-1.261Z"/>
  </g>
  <g>
    <line class="cls-10" x1="325.326" y1="17.016" x2="470.549" y2="17.016"/>
    <polygon class="cls-3" points="326.42 20.756 319.944 17.017 326.42 13.277 326.42 20.756"/>
    <polygon class="cls-3" points="469.455 20.756 475.931 17.017 469.455 13.277 469.455 20.756"/>
  </g>
</svg>
