<svg id="Layer_1" data-name="Layer 1" xmlns="http://www.w3.org/2000/svg" width="210mm" height="65.161mm" viewBox="0 0 595.276 184.709">
  <defs>
    <style>
      .cls-1, .cls-2 {
        fill: none;
        stroke-linecap: round;
        stroke-linejoin: round;
        stroke-width: 2px;
      }

      .cls-1 {
        stroke: #4db6d6;
      }

      .cls-2 {
        stroke: #f0813e;
      }

      .cls-3 {
        fill: #e6e6e6;
      }

      .cls-4 {
        fill: #1d1d1b;
      }

      .cls-5 {
        fill: #8b8b8c;
      }

      .cls-6 {
        fill: #fff;
      }
    </style>
  </defs>
  <polyline class="cls-1" points="269.888 67.72 269.888 67.72 299.014 67.72"/>
  <polyline class="cls-2" points="269.888 93.691 269.888 93.691 398.571 93.691"/>
  <polyline class="cls-2" points="269.888 119.661 269.888 119.661 398.571 119.661"/>
  <rect class="cls-3" x="14.678" y="41.687" width="255.21" height="104.007"/>
  <g>
    <path class="cls-4" d="M28.549,55.6l1.129,1.069a3.582,3.582,0,1,1,.051-4.508l-1.161,1.1a2.034,2.034,0,0,0-1.678-.93A2.07,2.07,0,1,0,28.549,55.6Z"/>
    <path class="cls-4" d="M32.92,58.008A2.667,2.667,0,0,1,30.2,55.34a2.588,2.588,0,0,1,2.6-2.679A2.535,2.535,0,0,1,35.339,55.4v.351H31.791A1.236,1.236,0,0,0,33,56.719a1.277,1.277,0,0,0,1.02-.43l1.069.89A3.008,3.008,0,0,1,32.92,58.008ZM31.791,54.83H33.84a1.074,1.074,0,0,0-1.05-.91A1.024,1.024,0,0,0,31.791,54.83Z"/>
    <path class="cls-4" d="M36.352,52.751h1.6v.72a1.9,1.9,0,0,1,1.529-.75,2.458,2.458,0,0,1,2.28,2.619,2.487,2.487,0,0,1-2.4,2.6,1.792,1.792,0,0,1-1.388-.6v2.719H36.352Zm1.619,1.729V56.2a1.327,1.327,0,0,0,.968.41,1.275,1.275,0,0,0,0-2.548A1.245,1.245,0,0,0,37.971,54.48Z"/>
    <path class="cls-4" d="M42.792,50.762l1.619-.25V53.59a1.9,1.9,0,0,1,1.629-.919,1.667,1.667,0,0,1,1.709,1.759v3.478H46.13V54.9a.859.859,0,0,0-.859-.96,1.043,1.043,0,0,0-.86.43v3.538H42.792Z"/>
    <path class="cls-4" d="M54.559,58.018a3.608,3.608,0,1,1,3.608-3.608A3.577,3.577,0,0,1,54.559,58.018Zm-.01-5.687a2.095,2.095,0,1,0,1.839,2.079A1.924,1.924,0,0,0,54.549,52.331Z"/>
    <path class="cls-4" d="M59.69,55.679a3.842,3.842,0,0,0,2.269.93c.74,0,1.189-.3,1.189-.73,0-.409-.239-.6-.919-.729l-1.489-.26a1.855,1.855,0,0,1-1.719-1.869c0-1.359,1.04-2.209,2.779-2.209a4.756,4.756,0,0,1,2.868.919l-.87,1.25a3.338,3.338,0,0,0-2.089-.77c-.68,0-1.069.28-1.069.66,0,.35.23.54.79.629l1.4.241c1.309.229,2,.909,2,1.978,0,1.36-1.16,2.289-2.989,2.289a4.963,4.963,0,0,1-3.028-1.059Z"/>
    <path class="cls-4" d="M65.951,50.912H68.8a3.5,3.5,0,1,1,0,7H65.951Zm1.72,1.469v4.058H68.8a1.87,1.87,0,0,0,1.739-2.009A1.9,1.9,0,0,0,68.8,52.381Z"/>
    <path class="cls-4" d="M75.552,52.751h1.619v.839a1.9,1.9,0,0,1,1.629-.919,1.667,1.667,0,0,1,1.709,1.759v3.478H78.89V54.9a.859.859,0,0,0-.86-.96,1.041,1.041,0,0,0-.859.43v3.538H75.552Z"/>
    <path class="cls-4" d="M84.189,52.671A2.669,2.669,0,1,1,81.5,55.34,2.626,2.626,0,0,1,84.189,52.671ZM85.31,55.34a1.131,1.131,0,1,0-2.23,0,1.128,1.128,0,1,0,2.23,0Z"/>
    <path class="cls-4" d="M91.538,57.239a1.947,1.947,0,0,1-1.518.7,2.457,2.457,0,0,1-2.28-2.618,2.488,2.488,0,0,1,2.4-2.6,1.806,1.806,0,0,1,1.379.62V50.762l1.619-.25v7.4h-1.6Zm-.979-.64a1.254,1.254,0,0,0,.96-.41V54.45a1.314,1.314,0,0,0-.96-.4,1.275,1.275,0,0,0,0,2.549Z"/>
    <path class="cls-4" d="M96.89,58.008a2.666,2.666,0,0,1-2.719-2.668,2.588,2.588,0,0,1,2.6-2.679A2.535,2.535,0,0,1,99.309,55.4v.351H95.761a1.236,1.236,0,0,0,1.209.969,1.275,1.275,0,0,0,1.019-.43l1.07.89A3.008,3.008,0,0,1,96.89,58.008ZM95.761,54.83H97.81a1.075,1.075,0,0,0-1.05-.91A1.024,1.024,0,0,0,95.761,54.83Z"/>
  </g>
  <g>
    <path class="cls-4" d="M306.033,58.494h3.128a2.171,2.171,0,1,1,0,4.328h-1.929V65.49h-1.2Zm1.2,1.009v2.339h1.74a1.178,1.178,0,1,0,.009-2.339Z"/>
    <path class="cls-4" d="M313.682,63.461a1.078,1.078,0,0,0,1.1,1.2,1.265,1.265,0,0,0,1.1-.62V60.483h1.129V65.49h-1.129v-.829a1.833,1.833,0,0,1-1.6.909,1.679,1.679,0,0,1-1.728-1.789v-3.3h1.129Z"/>
    <path class="cls-4" d="M320.991,65.54a1.861,1.861,0,0,1-1.479-.7v.649H318.4V58.344l1.13-.19v3a1.948,1.948,0,0,1,1.539-.71,2.561,2.561,0,0,1-.08,5.1Zm-1.459-3.588v2.089a1.535,1.535,0,0,0,1.2.55,1.6,1.6,0,0,0,0-3.2A1.471,1.471,0,0,0,319.532,61.952Z"/>
    <path class="cls-4" d="M325.643,65.49h-1.13V58.344l1.13-.19Z"/>
    <path class="cls-4" d="M326.893,58.774a.7.7,0,0,1,1.409,0,.7.7,0,0,1-1.409,0Zm1.269,6.716h-1.13V60.483h1.13Z"/>
    <path class="cls-4" d="M333.13,64.041l.68.68a2.608,2.608,0,0,1-1.959.869,2.589,2.589,0,0,1,0-5.177,2.7,2.7,0,0,1,2,.839l-.7.73a1.653,1.653,0,0,0-1.259-.589,1.606,1.606,0,0,0,.03,3.2A1.539,1.539,0,0,0,333.13,64.041Z"/>
    <path class="cls-4" d="M307.2,68.494l3.649,5.077-.021-5.077h1.13v7h-1.069l-3.748-5.217.019,5.217h-1.129v-7Z"/>
    <path class="cls-4" d="M315.822,75.59a2.545,2.545,0,0,1-2.549-2.6,2.466,2.466,0,0,1,2.439-2.589,2.4,2.4,0,0,1,2.369,2.578v.28h-3.7a1.529,1.529,0,0,0,1.5,1.37,1.624,1.624,0,0,0,1.189-.47l.74.69A2.9,2.9,0,0,1,315.822,75.59ZM314.4,72.572h2.609a1.37,1.37,0,0,0-1.31-1.249A1.344,1.344,0,0,0,314.4,72.572Z"/>
    <path class="cls-4" d="M319.7,71.382h-1.01v-.9h1.01V69.1l1.129-.24v1.619h1.4v.9h-1.4v2.539c0,.49.19.68.7.68a2.076,2.076,0,0,0,.68-.12v.949a3.554,3.554,0,0,1-.97.14c-1.01,0-1.539-.48-1.539-1.4Z"/>
    <path class="cls-4" d="M324.2,75.49l-1.349-5.007h1.08l.879,3.538,1.029-3.538h.96l1.029,3.548.87-3.548h1.059L328.41,75.49h-1.09l-1.009-3.528L325.3,75.49Z"/>
    <path class="cls-4" d="M332.882,70.4a2.595,2.595,0,1,1-2.519,2.589A2.5,2.5,0,0,1,332.882,70.4Zm1.4,2.6a1.416,1.416,0,1,0-2.8,0,1.413,1.413,0,1,0,2.8,0Z"/>
    <path class="cls-4" d="M336.572,70.483h1.13v1.089a1.485,1.485,0,0,1,1.379-1.179,1.339,1.339,0,0,1,.49.1v.989a1.59,1.59,0,0,0-.62-.12,1.375,1.375,0,0,0-1.249.83v3.3h-1.13Z"/>
    <path class="cls-4" d="M340.5,68.344l1.13-.19v4.468l2.079-2.139H345L342.711,72.8l2.429,2.688h-1.45l-2.058-2.308V75.49H340.5Z"/>
  </g>
  <g>
    <path class="cls-4" d="M410.944,63.6l.789.76a3.591,3.591,0,1,1,.031-4.737l-.81.8a2.461,2.461,0,1,0-1.879,4.088A2.371,2.371,0,0,0,410.944,63.6Z"/>
    <path class="cls-4" d="M413.966,65.49h-1.13V58.344l1.13-.19Z"/>
    <path class="cls-4" d="M416.456,63.461a1.079,1.079,0,0,0,1.1,1.2,1.262,1.262,0,0,0,1.1-.62V60.483h1.129V65.49h-1.129v-.829a1.833,1.833,0,0,1-1.6.909,1.679,1.679,0,0,1-1.729-1.789v-3.3h1.129Z"/>
    <path class="cls-4" d="M421.256,64.151a2.885,2.885,0,0,0,1.609.57c.6,0,1.01-.27,1.01-.67,0-.31-.21-.48-.689-.57l-.89-.149c-.97-.181-1.449-.63-1.449-1.38,0-.939.769-1.549,1.938-1.549a3.522,3.522,0,0,1,1.969.6l-.529.739a2.745,2.745,0,0,0-1.51-.479c-.52,0-.86.219-.86.589,0,.32.181.46.71.55l.88.16c1,.19,1.479.649,1.479,1.4a1.835,1.835,0,0,1-2.039,1.629,3.361,3.361,0,0,1-2.158-.679Z"/>
    <path class="cls-4" d="M426.486,61.382h-1.009v-.9h1.009V59.1l1.129-.24v1.619h1.4v.9h-1.4v2.539c0,.49.191.68.7.68a2.076,2.076,0,0,0,.68-.12v.949a3.554,3.554,0,0,1-.97.14c-1.009,0-1.539-.48-1.539-1.4Z"/>
    <path class="cls-4" d="M432.256,65.59a2.545,2.545,0,0,1-2.549-2.6,2.466,2.466,0,0,1,2.439-2.589,2.4,2.4,0,0,1,2.369,2.578v.28h-3.7a1.531,1.531,0,0,0,1.5,1.37,1.626,1.626,0,0,0,1.19-.47l.739.69A2.9,2.9,0,0,1,432.256,65.59Zm-1.42-3.018h2.609a1.37,1.37,0,0,0-1.309-1.249A1.346,1.346,0,0,0,430.836,62.572Z"/>
    <path class="cls-4" d="M435.666,60.483h1.13v1.089a1.484,1.484,0,0,1,1.379-1.179,1.339,1.339,0,0,1,.49.1v.989a1.6,1.6,0,0,0-.62-.12,1.375,1.375,0,0,0-1.249.83v3.3h-1.13Z"/>
    <path class="cls-4" d="M406.916,68.494l3.648,5.077-.02-5.077h1.13v7H410.6l-3.748-5.217.02,5.217h-1.129v-7Z"/>
    <path class="cls-4" d="M415.536,75.59a2.545,2.545,0,0,1-2.549-2.6,2.466,2.466,0,0,1,2.439-2.589,2.4,2.4,0,0,1,2.369,2.578v.28h-3.7a1.529,1.529,0,0,0,1.5,1.37,1.625,1.625,0,0,0,1.189-.47l.739.69A2.9,2.9,0,0,1,415.536,75.59Zm-1.419-3.018h2.609a1.37,1.37,0,0,0-1.31-1.249A1.344,1.344,0,0,0,414.117,72.572Z"/>
    <path class="cls-4" d="M419.416,71.382h-1.01v-.9h1.01V69.1l1.129-.24v1.619h1.4v.9h-1.4v2.539c0,.49.19.68.7.68a2.076,2.076,0,0,0,.68-.12v.949a3.554,3.554,0,0,1-.97.14c-1.01,0-1.539-.48-1.539-1.4Z"/>
    <path class="cls-4" d="M423.916,75.49l-1.35-5.007h1.08l.879,3.538,1.03-3.538h.96l1.029,3.548.87-3.548h1.059l-1.349,5.007h-1.09l-1.01-3.528-1.008,3.528Z"/>
    <path class="cls-4" d="M432.6,70.4a2.595,2.595,0,1,1-2.519,2.589A2.5,2.5,0,0,1,432.6,70.4ZM434,73a1.416,1.416,0,1,0-2.8,0,1.413,1.413,0,1,0,2.8,0Z"/>
    <path class="cls-4" d="M436.286,70.483h1.13v1.089a1.485,1.485,0,0,1,1.379-1.179,1.339,1.339,0,0,1,.49.1v.989a1.593,1.593,0,0,0-.62-.12,1.375,1.375,0,0,0-1.249.83v3.3h-1.13Z"/>
    <path class="cls-4" d="M440.216,68.344l1.13-.19v4.468l2.079-2.139h1.289L442.425,72.8l2.429,2.688H443.4l-2.058-2.308V75.49h-1.13Z"/>
  </g>
  <rect class="cls-5" x="169.221" y="57.908" width="100.668" height="19.624"/>
  <rect class="cls-5" x="169.221" y="83.879" width="100.668" height="19.624"/>
  <rect class="cls-5" x="169.221" y="109.849" width="100.668" height="19.624"/>
  <g>
    <path class="cls-6" d="M183.491,68.6l.789.76a3.591,3.591,0,1,1,.03-4.737l-.81.8a2.461,2.461,0,1,0-1.878,4.088A2.374,2.374,0,0,0,183.491,68.6Z"/>
    <path class="cls-6" d="M186.512,70.49h-1.13V63.344l1.13-.19Z"/>
    <path class="cls-6" d="M187.763,63.774a.7.7,0,0,1,1.409,0,.7.7,0,0,1-1.409,0Zm1.27,6.716H187.9V65.483h1.13Z"/>
    <path class="cls-6" d="M192.742,70.59a2.545,2.545,0,0,1-2.549-2.6,2.466,2.466,0,0,1,2.438-2.589A2.4,2.4,0,0,1,195,67.981v.28h-3.7a1.531,1.531,0,0,0,1.5,1.37,1.628,1.628,0,0,0,1.19-.47l.739.69A2.9,2.9,0,0,1,192.742,70.59Zm-1.419-3.018h2.608a1.37,1.37,0,0,0-1.309-1.249A1.344,1.344,0,0,0,191.323,67.572Z"/>
    <path class="cls-6" d="M196.153,65.483h1.13v.82a1.817,1.817,0,0,1,1.589-.9,1.685,1.685,0,0,1,1.729,1.789v3.3h-1.13V67.512a1.078,1.078,0,0,0-1.1-1.2,1.281,1.281,0,0,0-1.089.6V70.49h-1.13Z"/>
    <path class="cls-6" d="M202.443,66.382h-1.01v-.9h1.01V64.1l1.129-.24v1.619h1.4v.9h-1.4v2.539c0,.49.19.68.7.68a2.08,2.08,0,0,0,.68-.12v.949a3.554,3.554,0,0,1-.97.14c-1.01,0-1.539-.48-1.539-1.4Z"/>
    <path class="cls-6" d="M213.42,70.66c-.35-.26-.7-.539-1.059-.839a3.212,3.212,0,0,1-2.139.769c-1.449,0-2.419-.8-2.419-1.989,0-.839.38-1.379,1.379-1.929l.05-.029a2.3,2.3,0,0,1-.6-1.54,1.743,1.743,0,0,1,1.86-1.719,1.62,1.62,0,0,1,1.768,1.569,1.761,1.761,0,0,1-1.039,1.549l-.51.31c.46.49,1,1.01,1.549,1.52a5.3,5.3,0,0,0,.6-1.689l1,.159a6.471,6.471,0,0,1-.85,2.189c.38.32.74.62,1.079.869Zm-3.128-.979a2.023,2.023,0,0,0,1.349-.49,25.053,25.053,0,0,1-1.849-1.859l-.04.02c-.64.37-.889.69-.889,1.179C208.863,69.231,209.422,69.681,210.292,69.681Zm-.13-3.518.469-.28a1.022,1.022,0,0,0,.6-.89.747.747,0,0,0-.77-.749.787.787,0,0,0-.8.839A1.635,1.635,0,0,0,210.162,66.163Z"/>
    <path class="cls-6" d="M218.522,65V70.49h-1.109v-7h1.558l2.049,4.238,2.039-4.238h1.56v7h-1.13V65.033l-2.479,4.958Z"/>
    <path class="cls-6" d="M228.461,65.4a2.595,2.595,0,1,1-2.518,2.589A2.5,2.5,0,0,1,228.461,65.4Zm1.4,2.6a1.416,1.416,0,1,0-2.8,0,1.413,1.413,0,1,0,2.8,0Z"/>
    <path class="cls-6" d="M232.152,65.483h1.13v.82a1.817,1.817,0,0,1,1.589-.9,1.685,1.685,0,0,1,1.729,1.789v3.3h-1.13V67.512a1.078,1.078,0,0,0-1.1-1.2,1.281,1.281,0,0,0-1.089.6V70.49h-1.13Z"/>
    <path class="cls-6" d="M237.833,63.774a.7.7,0,0,1,1.409,0,.7.7,0,0,1-1.409,0ZM239.1,70.49h-1.13V65.483h1.13Z"/>
    <path class="cls-6" d="M241.112,66.382H240.1v-.9h1.01V64.1l1.129-.24v1.619h1.4v.9h-1.4v2.539c0,.49.19.68.7.68a2.08,2.08,0,0,0,.68-.12v.949a3.554,3.554,0,0,1-.97.14c-1.01,0-1.539-.48-1.539-1.4Z"/>
    <path class="cls-6" d="M246.851,65.4a2.595,2.595,0,1,1-2.518,2.589A2.5,2.5,0,0,1,246.851,65.4Zm1.4,2.6a1.415,1.415,0,1,0-2.8,0,1.413,1.413,0,1,0,2.8,0Z"/>
    <path class="cls-6" d="M250.542,65.483h1.129v1.089a1.485,1.485,0,0,1,1.379-1.179,1.34,1.34,0,0,1,.491.1v.989a1.6,1.6,0,0,0-.621-.12,1.375,1.375,0,0,0-1.249.83v3.3h-1.129Z"/>
    <path class="cls-6" d="M254.562,69.151a2.887,2.887,0,0,0,1.609.57c.6,0,1.01-.27,1.01-.67,0-.31-.21-.48-.689-.57l-.89-.149c-.97-.181-1.449-.63-1.449-1.38,0-.939.769-1.549,1.938-1.549a3.52,3.52,0,0,1,1.969.6l-.529.739a2.744,2.744,0,0,0-1.509-.479c-.521,0-.86.219-.86.589,0,.32.18.46.71.55l.879.16c1,.19,1.479.649,1.479,1.4a1.835,1.835,0,0,1-2.039,1.629,3.361,3.361,0,0,1-2.158-.679Z"/>
  </g>
  <g>
    <path class="cls-6" d="M178.293,89.465h2.559a3.5,3.5,0,1,1,0,7h-2.559Zm1.2,1.039v4.917h1.388a2.469,2.469,0,0,0,0-4.917Z"/>
    <path class="cls-6" d="M185.224,95.022c0-.9.73-1.469,1.908-1.469a3.1,3.1,0,0,1,1.35.309v-.55c0-.659-.38-1-1.149-1a3.459,3.459,0,0,0-1.459.39l-.4-.82a4.818,4.818,0,0,1,2.079-.509c1.3,0,2.049.659,2.049,1.819v3.268h-1.119v-.51a2.091,2.091,0,0,1-1.489.59A1.579,1.579,0,0,1,185.224,95.022Zm2.078.729a1.782,1.782,0,0,0,1.18-.41v-.819a2.588,2.588,0,0,0-1.159-.24c-.64,0-1.04.28-1.04.72C186.283,95.461,186.683,95.751,187.3,95.751Z"/>
    <path class="cls-6" d="M191.443,92.353h-1.01v-.9h1.01v-1.38l1.129-.24v1.62h1.4v.9h-1.4v2.539c0,.489.19.679.7.679a2.076,2.076,0,0,0,.68-.119V96.4a3.554,3.554,0,0,1-.97.14c-1.01,0-1.539-.48-1.539-1.4Z"/>
    <path class="cls-6" d="M194.713,95.022c0-.9.73-1.469,1.909-1.469a3.094,3.094,0,0,1,1.349.309v-.55c0-.659-.38-1-1.149-1a3.459,3.459,0,0,0-1.459.39l-.4-.82a4.822,4.822,0,0,1,2.08-.509c1.3,0,2.048.659,2.048,1.819v3.268h-1.119v-.51a2.091,2.091,0,0,1-1.489.59A1.579,1.579,0,0,1,194.713,95.022Zm2.079.729a1.779,1.779,0,0,0,1.179-.41v-.819a2.588,2.588,0,0,0-1.159-.24c-.64,0-1.04.28-1.04.72C195.772,95.461,196.172,95.751,196.792,95.751Z"/>
    <path class="cls-6" d="M202.853,89.465h3.108a2.131,2.131,0,0,1,2.338,2.118A1.987,1.987,0,0,1,206.92,93.5l1.47,2.959h-1.33l-1.349-2.8h-1.659v2.8h-1.2Zm1.2,1.009V92.7h1.809a1.12,1.12,0,1,0,0-2.229Z"/>
    <path class="cls-6" d="M211.5,96.561a2.545,2.545,0,0,1-2.548-2.6,2.465,2.465,0,0,1,2.438-2.588,2.4,2.4,0,0,1,2.369,2.578v.28h-3.7a1.53,1.53,0,0,0,1.5,1.37,1.624,1.624,0,0,0,1.189-.47l.74.689A2.9,2.9,0,0,1,211.5,96.561Zm-1.418-3.019h2.608a1.371,1.371,0,0,0-1.31-1.249A1.343,1.343,0,0,0,210.083,93.542Z"/>
    <path class="cls-6" d="M214.913,91.454h1.109v.719a1.888,1.888,0,0,1,1.56-.759,2.4,2.4,0,0,1,2.268,2.548,2.427,2.427,0,0,1-2.349,2.549,1.872,1.872,0,0,1-1.459-.65V98.58h-1.129Zm1.129,1.469v2.089a1.541,1.541,0,0,0,1.2.55,1.6,1.6,0,0,0,0-3.2A1.471,1.471,0,0,0,216.042,92.923Z"/>
    <path class="cls-6" d="M222.152,96.461h-1.13V89.315l1.13-.19Z"/>
    <path class="cls-6" d="M223.4,89.745a.7.7,0,0,1,1.409,0,.7.7,0,0,1-1.409,0Zm1.269,6.716h-1.13V91.454h1.13Z"/>
    <path class="cls-6" d="M229.64,95.012l.68.679a2.605,2.605,0,0,1-1.959.87,2.589,2.589,0,0,1,0-5.177,2.7,2.7,0,0,1,2,.839l-.7.73a1.656,1.656,0,0,0-1.26-.59,1.607,1.607,0,0,0,.03,3.2A1.537,1.537,0,0,0,229.64,95.012Z"/>
    <path class="cls-6" d="M231.043,95.022c0-.9.73-1.469,1.909-1.469a3.094,3.094,0,0,1,1.349.309v-.55c0-.659-.38-1-1.149-1a3.459,3.459,0,0,0-1.459.39l-.4-.82a4.822,4.822,0,0,1,2.08-.509c1.3,0,2.048.659,2.048,1.819v3.268H234.3v-.51a2.091,2.091,0,0,1-1.489.59A1.579,1.579,0,0,1,231.043,95.022Zm2.079.729a1.779,1.779,0,0,0,1.179-.41v-.819a2.585,2.585,0,0,0-1.159-.24c-.64,0-1.04.28-1.04.72C232.1,95.461,232.5,95.751,233.122,95.751Z"/>
    <path class="cls-6" d="M237.262,92.353h-1.01v-.9h1.01v-1.38l1.129-.24v1.62h1.4v.9h-1.4v2.539c0,.489.191.679.7.679a2.071,2.071,0,0,0,.68-.119V96.4a3.554,3.554,0,0,1-.97.14c-1.009,0-1.539-.48-1.539-1.4Z"/>
    <path class="cls-6" d="M240.642,89.745a.7.7,0,0,1,1.409,0,.7.7,0,0,1-1.409,0Zm1.27,6.716h-1.13V91.454h1.13Z"/>
    <path class="cls-6" d="M245.591,91.374a2.595,2.595,0,1,1-2.518,2.588A2.5,2.5,0,0,1,245.591,91.374Zm1.4,2.6a1.416,1.416,0,1,0-2.8,0,1.413,1.413,0,1,0,2.8,0Z"/>
    <path class="cls-6" d="M249.282,91.454h1.13v.819a1.817,1.817,0,0,1,1.588-.9,1.685,1.685,0,0,1,1.73,1.789v3.3H252.6V93.482a1.079,1.079,0,0,0-1.1-1.2,1.281,1.281,0,0,0-1.088.6v3.578h-1.13Z"/>
  </g>
  <g>
    <path class="cls-6" d="M178.244,115.435h1.2v2.948h3.477v-2.948h1.2v7h-1.2v-3h-3.477v3h-1.2Z"/>
    <path class="cls-6" d="M187.932,122.531a2.545,2.545,0,0,1-2.549-2.6,2.466,2.466,0,0,1,2.439-2.589,2.4,2.4,0,0,1,2.369,2.578v.28h-3.7a1.529,1.529,0,0,0,1.5,1.37,1.625,1.625,0,0,0,1.189-.47l.739.69A2.9,2.9,0,0,1,187.932,122.531Zm-1.42-3.018h2.61a1.37,1.37,0,0,0-1.31-1.249A1.346,1.346,0,0,0,186.512,119.513Z"/>
    <path class="cls-6" d="M191.053,120.992c0-.9.73-1.469,1.908-1.469a3.1,3.1,0,0,1,1.35.31v-.55c0-.66-.38-1-1.149-1a3.459,3.459,0,0,0-1.459.39l-.4-.819a4.806,4.806,0,0,1,2.079-.51c1.3,0,2.049.659,2.049,1.819v3.268h-1.119v-.51a2.091,2.091,0,0,1-1.489.59A1.578,1.578,0,0,1,191.053,120.992Zm2.078.73a1.785,1.785,0,0,0,1.18-.41v-.82a2.588,2.588,0,0,0-1.159-.24c-.64,0-1.04.28-1.04.72C192.112,121.432,192.512,121.722,193.131,121.722Z"/>
    <path class="cls-6" d="M196.8,117.424h1.13v1.089a1.485,1.485,0,0,1,1.379-1.179,1.339,1.339,0,0,1,.49.1v.989a1.59,1.59,0,0,0-.62-.12,1.375,1.375,0,0,0-1.249.83v3.3H196.8Z"/>
    <path class="cls-6" d="M201.413,118.323H200.4v-.9h1.01v-1.38l1.129-.239v1.619h1.4v.9h-1.4v2.539c0,.49.19.68.7.68a2.07,2.07,0,0,0,.679-.12v.949a3.553,3.553,0,0,1-.969.14c-1.01,0-1.539-.48-1.539-1.4Z"/>
    <path class="cls-6" d="M207.521,122.481a1.864,1.864,0,0,1-1.479-.7v.649h-1.11v-7.146l1.13-.19v3a1.948,1.948,0,0,1,1.539-.71,2.4,2.4,0,0,1,2.269,2.549A2.427,2.427,0,0,1,207.521,122.481Zm-1.459-3.588v2.089a1.535,1.535,0,0,0,1.2.55,1.6,1.6,0,0,0,0-3.2A1.469,1.469,0,0,0,206.062,118.893Z"/>
    <path class="cls-6" d="M213.391,122.531a2.545,2.545,0,0,1-2.549-2.6,2.466,2.466,0,0,1,2.439-2.589,2.4,2.4,0,0,1,2.369,2.578v.28h-3.7a1.529,1.529,0,0,0,1.5,1.37,1.625,1.625,0,0,0,1.189-.47l.739.69A2.9,2.9,0,0,1,213.391,122.531Zm-1.42-3.018h2.61a1.37,1.37,0,0,0-1.31-1.249A1.346,1.346,0,0,0,211.971,119.513Z"/>
    <path class="cls-6" d="M216.513,120.992c0-.9.73-1.469,1.908-1.469a3.1,3.1,0,0,1,1.35.31v-.55c0-.66-.38-1-1.149-1a3.459,3.459,0,0,0-1.459.39l-.4-.819a4.806,4.806,0,0,1,2.079-.51c1.3,0,2.049.659,2.049,1.819v3.268h-1.119v-.51a2.091,2.091,0,0,1-1.489.59A1.578,1.578,0,0,1,216.513,120.992Zm2.078.73a1.785,1.785,0,0,0,1.18-.41v-.82a2.588,2.588,0,0,0-1.159-.24c-.64,0-1.04.28-1.04.72C217.572,121.432,217.972,121.722,218.591,121.722Z"/>
    <path class="cls-6" d="M222.732,118.323h-1.01v-.9h1.01v-1.38l1.129-.239v1.619h1.4v.9h-1.4v2.539c0,.49.19.68.7.68a2.076,2.076,0,0,0,.68-.12v.949a3.554,3.554,0,0,1-.97.14c-1.01,0-1.539-.48-1.539-1.4Z"/>
  </g>
  <line class="cls-2" x1="398.571" y1="24.511" x2="398.571" y2="162.87"/>
  <rect class="cls-6" x="295.555" y="89.397" width="6.918" height="40.076"/>
  <line class="cls-1" x1="299.014" y1="24.511" x2="299.014" y2="162.87"/>
</svg>
