<?xml version="1.0" encoding="UTF-8" standalone="no"?>
<svg
   xmlns:dc="http://purl.org/dc/elements/1.1/"
   xmlns:cc="http://creativecommons.org/ns#"
   xmlns:rdf="http://www.w3.org/1999/02/22-rdf-syntax-ns#"
   xmlns:svg="http://www.w3.org/2000/svg"
   xmlns="http://www.w3.org/2000/svg"
   xmlns:sodipodi="http://sodipodi.sourceforge.net/DTD/sodipodi-0.dtd"
   xmlns:inkscape="http://www.inkscape.org/namespaces/inkscape"
   inkscape:version="1.0 (4035a4f, 2020-05-01)"
   sodipodi:docname="Ceph_HashiCorpVault_Integration.svg"
   version="1.1"
   viewBox="0 0 595.276 297"
   height="104.775mm"
   width="210mm"
   data-name="Layer 1"
   id="Layer_1">
  <metadata
     id="metadata417">
    <rdf:RDF>
      <cc:Work
         rdf:about="">
        <dc:format>image/svg+xml</dc:format>
        <dc:type
           rdf:resource="http://purl.org/dc/dcmitype/StillImage" />
        <dc:title></dc:title>
        <dc:subject>
          <rdf:Bag>
            <rdf:li>object storage</rdf:li>
            <rdf:li>rados gateway</rdf:li>
            <rdf:li>ceph object</rdf:li>
            <rdf:li>ceph object architecture</rdf:li>
            <rdf:li>rados</rdf:li>
          </rdf:Bag>
        </dc:subject>
      </cc:Work>
    </rdf:RDF>
  </metadata>
  <sodipodi:namedview
     inkscape:current-layer="Layer_1"
     inkscape:window-maximized="0"
     inkscape:window-y="25"
     inkscape:window-x="0"
     inkscape:cy="198"
     inkscape:cx="396.85039"
     inkscape:zoom="0.63122024"
     showgrid="false"
     id="namedview415"
     inkscape:window-height="480"
     inkscape:window-width="987"
     inkscape:pageshadow="2"
     inkscape:pageopacity="0"
     guidetolerance="10"
     gridtolerance="10"
     objecttolerance="10"
     borderopacity="1"
     bordercolor="#666666"
     pagecolor="#ffffff" />
  <defs
     id="defs12">
    <style
       id="style10">
      .cls-1 {
        fill: #f0f0f0;
      }

      .cls-2 {
        fill: none;
        stroke: #06c;
      }

      .cls-2, .cls-6 {
        stroke-miterlimit: 10;
      }

      .cls-3 {
        fill: #06c;
      }

      .cls-4 {
        fill: #dbe8f5;
      }

      .cls-5 {
        fill: #fff;
      }

      .cls-6 {
        fill: #4c4c4c;
        stroke: #dbe8f5;
        stroke-width: 0.25px;
      }
    </style>
  </defs>
  <g
     id="g22">
    <rect
       id="rect14"
       height="263.021"
       width="132.358"
       y="15.413"
       x="18.731"
       class="cls-1" />
    <rect
       id="rect16"
       height="263.021"
       width="132.358"
       y="15.413"
       x="160.549"
       class="cls-1" />
    <rect
       id="rect18"
       height="263.021"
       width="132.358"
       y="15.413"
       x="302.368"
       class="cls-1" />
    <rect
       id="rect20"
       height="263.021"
       width="132.358"
       y="15.413"
       x="444.187"
       class="cls-1" />
  </g>
  <g
     id="g36">
    <path
       id="path24"
       d="M41.856,34.383l1.356,1.283a4.3,4.3,0,1,1,.06-5.409L41.88,31.576a2.444,2.444,0,0,0-2.014-1.115,2.484,2.484,0,1,0,1.99,3.922Z" />
    <path
       id="path26"
       d="M46.239,37.153H44.3V28.578l1.944-.3Z" />
    <path
       id="path28"
       d="M47.632,28.926a1.1,1.1,0,0,1,2.2,0,1.1,1.1,0,0,1-2.2,0ZM49.7,37.153H47.751V30.965H49.7Z" />
    <path
       id="path30"
       d="M54.194,37.273a3.2,3.2,0,0,1-3.262-3.2,3.1,3.1,0,0,1,3.118-3.214A3.042,3.042,0,0,1,57.1,34.143v.42H52.839a1.485,1.485,0,0,0,1.451,1.163,1.53,1.53,0,0,0,1.223-.516L56.8,36.278A3.611,3.611,0,0,1,54.194,37.273Zm-1.355-3.814H55.3a1.288,1.288,0,0,0-1.259-1.091A1.229,1.229,0,0,0,52.839,33.459Z" />
    <path
       id="path32"
       d="M58.312,30.965h1.943v1.007a2.281,2.281,0,0,1,1.954-1.1,2,2,0,0,1,2.051,2.11v4.174H62.317v-3.61a1.03,1.03,0,0,0-1.031-1.151,1.248,1.248,0,0,0-1.031.516v4.245H58.312Z" />
    <path
       id="path34"
       d="M66.363,32.464h-1.2v-1.5h1.2V29.25l1.943-.4v2.111h1.655v1.5H68.306v2.4c0,.551.216.743.816.743a2.6,2.6,0,0,0,.791-.132v1.571a5.4,5.4,0,0,1-1.331.192c-1.463,0-2.219-.672-2.219-1.99Z" />
  </g>
  <g
     id="g84">
    <path
       id="path38"
       d="M39.729,65.462l.632.608a2.873,2.873,0,1,1,.024-3.79l-.647.639a1.969,1.969,0,1,0-1.5,3.27A1.894,1.894,0,0,0,39.729,65.462Z" />
    <path
       id="path40"
       d="M41.244,62.967h.9v.872a1.187,1.187,0,0,1,1.1-.943,1.032,1.032,0,0,1,.392.08v.791a1.275,1.275,0,0,0-.5-.1,1.1,1.1,0,0,0-1,.663v2.639h-.9Z" />
    <path
       id="path42"
       d="M46.051,67.053a2.036,2.036,0,0,1-2.039-2.079A1.974,1.974,0,0,1,45.963,62.9a1.923,1.923,0,0,1,1.895,2.063v.224H44.9a1.224,1.224,0,0,0,1.2,1.1,1.3,1.3,0,0,0,.951-.376l.592.551A2.315,2.315,0,0,1,46.051,67.053Zm-1.135-2.414H47a1.1,1.1,0,0,0-1.047-1A1.076,1.076,0,0,0,44.916,64.639Z" />
    <path
       id="path44"
       d="M48.548,65.822c0-.72.584-1.176,1.527-1.176a2.478,2.478,0,0,1,1.08.249v-.44c0-.528-.3-.8-.92-.8a2.769,2.769,0,0,0-1.167.312l-.32-.656a3.844,3.844,0,0,1,1.663-.408c1.04,0,1.639.528,1.639,1.455v2.615h-.895v-.408a1.673,1.673,0,0,1-1.192.472A1.263,1.263,0,0,1,48.548,65.822Zm1.663.583a1.429,1.429,0,0,0,.944-.327v-.656a2.073,2.073,0,0,0-.927-.192c-.512,0-.832.224-.832.576C49.4,66.174,49.716,66.405,50.211,66.405Z" />
    <path
       id="path46"
       d="M53.523,63.687h-.807v-.72h.807v-1.1l.9-.192v1.3h1.119v.72H54.427v2.031c0,.391.152.544.56.544a1.687,1.687,0,0,0,.544-.1v.759a2.844,2.844,0,0,1-.776.112c-.808,0-1.232-.384-1.232-1.119Z" />
    <path
       id="path48"
       d="M58.139,67.053A2.036,2.036,0,0,1,56.1,64.974,1.973,1.973,0,0,1,58.051,62.9a1.923,1.923,0,0,1,1.895,2.063v.224H56.987a1.224,1.224,0,0,0,1.2,1.1,1.3,1.3,0,0,0,.951-.376l.592.551A2.315,2.315,0,0,1,58.139,67.053ZM57,64.639H59.09a1.1,1.1,0,0,0-1.047-1A1.077,1.077,0,0,0,57,64.639Z" />
    <path
       id="path50"
       d="M62.732,65.9a2.313,2.313,0,0,0,1.288.455c.479,0,.807-.215.807-.535,0-.248-.168-.384-.552-.456l-.712-.12c-.775-.144-1.159-.5-1.159-1.1,0-.752.616-1.24,1.552-1.24a2.814,2.814,0,0,1,1.574.48l-.423.592a2.191,2.191,0,0,0-1.208-.384c-.416,0-.687.176-.687.471,0,.256.143.369.567.44l.7.128c.8.152,1.184.52,1.184,1.12a1.469,1.469,0,0,1-1.632,1.3,2.688,2.688,0,0,1-1.727-.544Z" />
    <path
       id="path52"
       d="M68.4,67.053a2.036,2.036,0,0,1-2.039-2.079A1.973,1.973,0,0,1,68.307,62.9,1.923,1.923,0,0,1,70.2,64.966v.224H67.243a1.224,1.224,0,0,0,1.2,1.1,1.306,1.306,0,0,0,.952-.376l.592.551A2.315,2.315,0,0,1,68.4,67.053Zm-1.136-2.414h2.087a1.1,1.1,0,0,0-1.047-1A1.077,1.077,0,0,0,67.259,64.639Z" />
    <path
       id="path54"
       d="M74.01,65.814l.544.543a2.085,2.085,0,0,1-1.568.7,2.072,2.072,0,0,1,0-4.142,2.16,2.16,0,0,1,1.6.672l-.56.584a1.324,1.324,0,0,0-1.007-.472,1.285,1.285,0,0,0,.023,2.558A1.231,1.231,0,0,0,74.01,65.814Z" />
    <path
       id="path56"
       d="M75.332,62.967h.9v.872a1.187,1.187,0,0,1,1.1-.943,1.032,1.032,0,0,1,.392.08v.791a1.275,1.275,0,0,0-.5-.1,1.1,1.1,0,0,0-1,.663v2.639h-.9Z" />
    <path
       id="path58"
       d="M80.138,67.053A2.035,2.035,0,0,1,78.1,64.974,1.973,1.973,0,0,1,80.05,62.9a1.923,1.923,0,0,1,1.895,2.063v.224H78.987a1.224,1.224,0,0,0,1.2,1.1,1.305,1.305,0,0,0,.951-.376l.591.551A2.314,2.314,0,0,1,80.138,67.053ZM79,64.639H81.09a1.1,1.1,0,0,0-1.048-1A1.076,1.076,0,0,0,79,64.639Z" />
    <path
       id="path60"
       d="M83.243,63.687h-.807v-.72h.807v-1.1l.9-.192v1.3h1.119v.72H84.147v2.031c0,.391.152.544.56.544a1.682,1.682,0,0,0,.543-.1v.759a2.831,2.831,0,0,1-.775.112c-.808,0-1.232-.384-1.232-1.119Z" />
    <path
       id="path62"
       d="M87.859,61.256l.9-.152v3.574l1.663-1.711h1.032l-1.832,1.855,1.943,2.151H90.41l-1.647-1.847v1.847h-.9Z" />
    <path
       id="path64"
       d="M93.778,67.053a2.035,2.035,0,0,1-2.038-2.079A1.973,1.973,0,0,1,93.69,62.9a1.923,1.923,0,0,1,1.895,2.063v.224H92.627a1.224,1.224,0,0,0,1.2,1.1,1.306,1.306,0,0,0,.952-.376l.592.551A2.318,2.318,0,0,1,93.778,67.053Zm-1.135-2.414H94.73a1.1,1.1,0,0,0-1.047-1A1.077,1.077,0,0,0,92.643,64.639Z" />
    <path
       id="path66"
       d="M97.411,67,95.9,62.967h1.008l1.015,2.975,1.12-2.975h.983l-1.9,4.662A1.356,1.356,0,0,1,96.7,68.684a1.916,1.916,0,0,1-.456-.056v-.775c.216.023.272.032.352.032a.639.639,0,0,0,.648-.464Z" />
    <path
       id="path68"
       d="M36,72.567v-.711a1.229,1.229,0,0,1,1.383-1.343,2.142,2.142,0,0,1,.6.08v.767a1.847,1.847,0,0,0-.48-.064c-.416,0-.6.184-.6.576v.695h1.08v.72h-1.08v3.286H36V73.287H35.14v-.72Z" />
    <path
       id="path70"
       d="M40.443,72.5a2.076,2.076,0,1,1-2.015,2.071A2,2,0,0,1,40.443,72.5Zm1.119,2.08a1.132,1.132,0,1,0-2.238,0,1.13,1.13,0,1,0,2.238,0Z" />
    <path
       id="path72"
       d="M43.4,72.567h.9v.872a1.187,1.187,0,0,1,1.1-.943,1.071,1.071,0,0,1,.392.079v.792a1.275,1.275,0,0,0-.5-.1,1.1,1.1,0,0,0-1,.664v2.638h-.9Z" />
    <path
       id="path74"
       d="M48.34,70.856l.9-.151v3.573l1.663-1.711h1.031l-1.831,1.855,1.943,2.151H50.891l-1.647-1.847v1.847h-.9Z" />
    <path
       id="path76"
       d="M54.259,76.653a2.036,2.036,0,0,1-2.039-2.079A1.974,1.974,0,0,1,54.171,72.5a1.923,1.923,0,0,1,1.9,2.063v.224H53.107a1.224,1.224,0,0,0,1.2,1.1,1.3,1.3,0,0,0,.951-.376l.592.552A2.319,2.319,0,0,1,54.259,76.653Zm-1.135-2.415H55.21a1.1,1.1,0,0,0-1.047-1A1.076,1.076,0,0,0,53.124,74.238Z" />
    <path
       id="path78"
       d="M57.891,76.6l-1.511-4.03h1.008L58.4,75.542l1.119-2.975h.984l-1.9,4.662a1.354,1.354,0,0,1-1.423,1.055,1.912,1.912,0,0,1-.456-.055v-.776a3.29,3.29,0,0,0,.352.032.637.637,0,0,0,.647-.464Z" />
    <path
       id="path80"
       d="M63.027,70.977h.96v5.6h-.96Z" />
    <path
       id="path82"
       d="M65.292,70.977h2.047a2.8,2.8,0,1,1,0,5.6H65.292Zm.959.831v3.934h1.112a1.976,1.976,0,0,0,0-3.934Z" />
  </g>
  <g
     id="g134">
    <path
       id="path86"
       d="M176.766,127.179h2.486a1.707,1.707,0,0,1,1.872,1.7,1.592,1.592,0,0,1-1.1,1.535l1.175,2.366h-1.063l-1.079-2.238h-1.328v2.238h-.959Zm.959.808v1.783h1.447a.9.9,0,1,0,0-1.783Z" />
    <path
       id="path88"
       d="M183.685,132.856a2.036,2.036,0,0,1-2.039-2.079,1.972,1.972,0,0,1,1.951-2.07,1.923,1.923,0,0,1,1.895,2.063v.223h-2.959a1.224,1.224,0,0,0,1.2,1.1,1.3,1.3,0,0,0,.951-.376l.592.552A2.321,2.321,0,0,1,183.685,132.856Zm-1.136-2.414h2.087a1.1,1.1,0,0,0-1.047-1A1.077,1.077,0,0,0,182.549,130.442Z" />
    <path
       id="path90"
       d="M186.254,130.777a1.94,1.94,0,0,1,1.871-2.038,1.507,1.507,0,0,1,1.175.543v-.511h.9v5.7h-.9v-2.222a1.551,1.551,0,0,1-1.223.567A1.922,1.922,0,0,1,186.254,130.777Zm2.087,1.28a1.2,1.2,0,0,0,.951-.44V129.93a1.24,1.24,0,0,0-.951-.432,1.283,1.283,0,0,0,0,2.559Z" />
    <path
       id="path92"
       d="M192.2,131.153a.863.863,0,0,0,.879.96,1.011,1.011,0,0,0,.88-.5v-2.846h.9v4.005h-.9v-.663a1.467,1.467,0,0,1-1.28.727,1.343,1.343,0,0,1-1.383-1.431v-2.638h.9Z" />
    <path
       id="path94"
       d="M197.829,132.856a2.036,2.036,0,0,1-2.039-2.079,1.972,1.972,0,0,1,1.951-2.07,1.923,1.923,0,0,1,1.895,2.063v.223h-2.959a1.224,1.224,0,0,0,1.2,1.1,1.3,1.3,0,0,0,.952-.376l.592.552A2.319,2.319,0,0,1,197.829,132.856Zm-1.136-2.414h2.087a1.1,1.1,0,0,0-1.047-1A1.077,1.077,0,0,0,196.693,130.442Z" />
    <path
       id="path96"
       d="M200.661,131.705a2.31,2.31,0,0,0,1.288.456c.479,0,.807-.216.807-.536,0-.248-.168-.384-.551-.456l-.712-.12c-.776-.144-1.16-.5-1.16-1.1,0-.752.616-1.239,1.552-1.239a2.806,2.806,0,0,1,1.574.48l-.423.591a2.19,2.19,0,0,0-1.207-.384c-.416,0-.688.176-.688.472,0,.256.144.368.567.44l.7.128c.8.151,1.184.52,1.184,1.119a1.468,1.468,0,0,1-1.632,1.3,2.682,2.682,0,0,1-1.727-.544Z" />
    <path
       id="path98"
       d="M204.845,129.49h-.807v-.719h.807v-1.1l.9-.192v1.3h1.119v.719h-1.119v2.031c0,.392.151.544.559.544a1.66,1.66,0,0,0,.544-.1v.76a2.881,2.881,0,0,1-.776.111c-.807,0-1.231-.383-1.231-1.119Z" />
    <path
       id="path100"
       d="M209.525,131.705a2.31,2.31,0,0,0,1.288.456c.479,0,.808-.216.808-.536,0-.248-.168-.384-.552-.456l-.712-.12c-.775-.144-1.159-.5-1.159-1.1,0-.752.615-1.239,1.551-1.239a2.809,2.809,0,0,1,1.575.48l-.424.591a2.188,2.188,0,0,0-1.207-.384c-.416,0-.688.176-.688.472,0,.256.144.368.568.44l.7.128c.8.151,1.184.52,1.184,1.119a1.467,1.467,0,0,1-1.631,1.3,2.678,2.678,0,0,1-1.727-.544Z" />
    <path
       id="path102"
       d="M215.188,132.856a2.036,2.036,0,0,1-2.039-2.079,1.973,1.973,0,0,1,1.951-2.07,1.922,1.922,0,0,1,1.9,2.063v.223h-2.958a1.224,1.224,0,0,0,1.2,1.1,1.3,1.3,0,0,0,.952-.376l.591.552A2.317,2.317,0,0,1,215.188,132.856Zm-1.135-2.414h2.087a1.1,1.1,0,0,0-1.048-1A1.076,1.076,0,0,0,214.053,130.442Z" />
    <path
       id="path104"
       d="M220.8,131.617l.544.544a2.085,2.085,0,0,1-1.567.695,2.072,2.072,0,0,1,0-4.142,2.162,2.162,0,0,1,1.6.672l-.56.584a1.321,1.321,0,0,0-1.007-.472,1.285,1.285,0,0,0,.024,2.559A1.229,1.229,0,0,0,220.8,131.617Z" />
    <path
       id="path106"
       d="M222.125,128.771h.9v.871a1.187,1.187,0,0,1,1.1-.943,1.071,1.071,0,0,1,.392.08v.791a1.275,1.275,0,0,0-.5-.1,1.1,1.1,0,0,0-1,.664v2.638h-.9Z" />
    <path
       id="path108"
       d="M226.932,132.856a2.036,2.036,0,0,1-2.039-2.079,1.972,1.972,0,0,1,1.951-2.07,1.923,1.923,0,0,1,1.9,2.063v.223H225.78a1.224,1.224,0,0,0,1.2,1.1,1.3,1.3,0,0,0,.951-.376l.592.552A2.321,2.321,0,0,1,226.932,132.856Zm-1.136-2.414h2.087a1.1,1.1,0,0,0-1.047-1A1.077,1.077,0,0,0,225.8,130.442Z" />
    <path
       id="path110"
       d="M230.037,129.49h-.808v-.719h.808v-1.1l.9-.192v1.3h1.12v.719h-1.12v2.031c0,.392.152.544.56.544a1.66,1.66,0,0,0,.544-.1v.76a2.881,2.881,0,0,1-.776.111c-.808,0-1.231-.383-1.231-1.119Z" />
    <path
       id="path112"
       d="M234.653,127.06l.9-.152v3.573l1.663-1.71h1.031l-1.831,1.854,1.943,2.151H237.2l-1.647-1.847v1.847h-.9Z" />
    <path
       id="path114"
       d="M240.572,132.856a2.036,2.036,0,0,1-2.039-2.079,1.973,1.973,0,0,1,1.951-2.07,1.922,1.922,0,0,1,1.895,2.063v.223H239.42a1.224,1.224,0,0,0,1.2,1.1,1.3,1.3,0,0,0,.951-.376l.592.552A2.319,2.319,0,0,1,240.572,132.856Zm-1.135-2.414h2.086a1.1,1.1,0,0,0-1.047-1A1.076,1.076,0,0,0,239.437,130.442Z" />
    <path
       id="path116"
       d="M244.2,132.8l-1.511-4.029H243.7l1.015,2.974,1.119-2.974h.984l-1.9,4.661a1.354,1.354,0,0,1-1.423,1.055,1.964,1.964,0,0,1-.456-.055v-.776a3.29,3.29,0,0,0,.352.032.638.638,0,0,0,.647-.464Z" />
    <path
       id="path118"
       d="M177.2,138.371v-.712a1.229,1.229,0,0,1,1.383-1.343,2.179,2.179,0,0,1,.6.08v.768a1.815,1.815,0,0,0-.48-.065c-.416,0-.6.184-.6.576v.7h1.08v.719H178.1v3.286h-.9V139.09h-.864v-.719Z" />
    <path
       id="path120"
       d="M181.637,138.307a2.076,2.076,0,1,1-2.015,2.07A2,2,0,0,1,181.637,138.307Zm1.119,2.079a1.132,1.132,0,1,0-2.238,0,1.13,1.13,0,1,0,2.238,0Z" />
    <path
       id="path122"
       d="M184.59,138.371h.9v.871a1.186,1.186,0,0,1,1.1-.943,1.092,1.092,0,0,1,.392.079v.792a1.275,1.275,0,0,0-.5-.1,1.1,1.1,0,0,0-1,.664v2.638h-.9Z" />
    <path
       id="path124"
       d="M189.534,136.66l.9-.152v3.574l1.663-1.711h1.031l-1.831,1.855,1.943,2.15h-1.16l-1.646-1.847v1.847h-.9Z" />
    <path
       id="path126"
       d="M195.453,142.457a2.037,2.037,0,0,1-2.039-2.08,1.972,1.972,0,0,1,1.951-2.07,1.923,1.923,0,0,1,1.895,2.063v.223H194.3a1.224,1.224,0,0,0,1.2,1.1,1.3,1.3,0,0,0,.952-.376l.592.552A2.32,2.32,0,0,1,195.453,142.457Zm-1.136-2.415H196.4a1.1,1.1,0,0,0-1.047-1A1.077,1.077,0,0,0,194.317,140.042Z" />
    <path
       id="path128"
       d="M199.085,142.4l-1.511-4.029h1.008l1.015,2.974,1.119-2.974h.984l-1.9,4.661a1.354,1.354,0,0,1-1.423,1.055,1.925,1.925,0,0,1-.457-.055v-.776a3.3,3.3,0,0,0,.353.032.638.638,0,0,0,.647-.464Z" />
    <path
       id="path130"
       d="M204.221,136.78h.96v5.6h-.96Z" />
    <path
       id="path132"
       d="M206.486,136.78h2.047a2.8,2.8,0,1,1,0,5.6h-2.047Zm.959.831v3.934h1.112a1.976,1.976,0,0,0,0-3.934Z" />
  </g>
  <g
     id="g176">
    <path
       id="path136"
       d="M176.806,251.285a2.8,2.8,0,0,0,1.879.816c.743,0,1.255-.376,1.255-.888,0-.456-.272-.664-1.015-.8l-1.032-.176c-.967-.175-1.439-.655-1.439-1.423,0-1.007.808-1.679,2.063-1.679a3.739,3.739,0,0,1,2.247.728l-.488.72a2.9,2.9,0,0,0-1.791-.648c-.672,0-1.111.336-1.111.791,0,.4.248.608.863.7l.992.176c1.127.192,1.655.687,1.655,1.535,0,1.024-.912,1.751-2.247,1.751a3.525,3.525,0,0,1-2.351-.9Z" />
    <path
       id="path138"
       d="M182.125,249.526h-.807v-.72h.807v-1.1l.9-.192v1.3h1.119v.72h-1.119v2.031c0,.391.152.544.56.544a1.665,1.665,0,0,0,.544-.1v.76a2.844,2.844,0,0,1-.776.112c-.808,0-1.232-.384-1.232-1.119Z" />
    <path
       id="path140"
       d="M186.717,248.742a2.076,2.076,0,1,1-2.015,2.071A2,2,0,0,1,186.717,248.742Zm1.119,2.079a1.132,1.132,0,1,0-2.238,0,1.13,1.13,0,1,0,2.238,0Z" />
    <path
       id="path142"
       d="M189.669,248.806h.9v.872a1.188,1.188,0,0,1,1.1-.944,1.067,1.067,0,0,1,.392.08v.792a1.273,1.273,0,0,0-.5-.1,1.1,1.1,0,0,0-1,.663v2.639h-.9Z" />
    <path
       id="path144"
       d="M194.477,252.892a2.036,2.036,0,0,1-2.039-2.079,1.973,1.973,0,0,1,1.951-2.071,1.923,1.923,0,0,1,1.895,2.063v.224h-2.959a1.224,1.224,0,0,0,1.2,1.1,1.305,1.305,0,0,0,.951-.376l.592.551A2.317,2.317,0,0,1,194.477,252.892Zm-1.136-2.414h2.087a1.1,1.1,0,0,0-1.047-1A1.077,1.077,0,0,0,193.341,250.478Z" />
    <path
       id="path146"
       d="M200.86,252.892a2.036,2.036,0,0,1-2.038-2.079,1.973,1.973,0,0,1,1.95-2.071,1.923,1.923,0,0,1,1.9,2.063v.224h-2.958a1.224,1.224,0,0,0,1.2,1.1,1.305,1.305,0,0,0,.951-.376l.592.551A2.318,2.318,0,0,1,200.86,252.892Zm-1.135-2.414h2.087a1.1,1.1,0,0,0-1.047-1A1.077,1.077,0,0,0,199.725,250.478Z" />
    <path
       id="path148"
       d="M203.589,248.806h.9v.656a1.454,1.454,0,0,1,1.271-.72,1.348,1.348,0,0,1,1.383,1.431v2.639h-.9v-2.383a.863.863,0,0,0-.879-.959,1.028,1.028,0,0,0-.872.48v2.862h-.9Z" />
    <path
       id="path150"
       d="M211.108,251.653l.544.543a2.085,2.085,0,0,1-1.568.7,2.072,2.072,0,0,1,0-4.142,2.16,2.16,0,0,1,1.6.672l-.56.583a1.326,1.326,0,0,0-1.007-.471,1.285,1.285,0,0,0,.024,2.558A1.233,1.233,0,0,0,211.108,251.653Z" />
    <path
       id="path152"
       d="M212.429,248.806h.9v.872a1.188,1.188,0,0,1,1.1-.944,1.071,1.071,0,0,1,.392.08v.792a1.273,1.273,0,0,0-.5-.1,1.1,1.1,0,0,0-1,.663v2.639h-.9Z" />
    <path
       id="path154"
       d="M216.677,252.836l-1.511-4.03h1.007l1.015,2.975,1.12-2.975h.984l-1.9,4.662a1.356,1.356,0,0,1-1.424,1.055,1.922,1.922,0,0,1-.456-.056v-.776a3.429,3.429,0,0,0,.352.033.639.639,0,0,0,.648-.464Z" />
    <path
       id="path156"
       d="M219.949,248.806h.888v.576a1.508,1.508,0,0,1,1.247-.608,2.049,2.049,0,0,1-.064,4.078,1.5,1.5,0,0,1-1.167-.52v2.175h-.9Zm.9,1.175v1.672a1.226,1.226,0,0,0,.959.439,1.282,1.282,0,0,0,0-2.558A1.178,1.178,0,0,0,220.853,249.981Z" />
    <path
       id="path158"
       d="M225.141,249.526h-.808v-.72h.808v-1.1l.9-.192v1.3h1.12v.72h-1.12v2.031c0,.391.152.544.56.544a1.665,1.665,0,0,0,.544-.1v.76a2.844,2.844,0,0,1-.776.112c-.808,0-1.231-.384-1.231-1.119Z" />
    <path
       id="path160"
       d="M229.756,252.892a2.036,2.036,0,0,1-2.038-2.079,1.973,1.973,0,0,1,1.95-2.071,1.923,1.923,0,0,1,1.895,2.063v.224h-2.958a1.224,1.224,0,0,0,1.2,1.1,1.306,1.306,0,0,0,.952-.376l.592.551A2.318,2.318,0,0,1,229.756,252.892Zm-1.135-2.414h2.087a1.1,1.1,0,0,0-1.047-1A1.077,1.077,0,0,0,228.621,250.478Z" />
    <path
       id="path162"
       d="M235.372,252.276a1.542,1.542,0,0,1-1.231.576,2.05,2.05,0,0,1,.055-4.078,1.529,1.529,0,0,1,1.168.528V247.1l.9-.152v5.869h-.895Zm-.959-.184a1.2,1.2,0,0,0,.951-.439v-1.687a1.243,1.243,0,0,0-.951-.432,1.282,1.282,0,0,0,0,2.558Z" />
    <path
       id="path164"
       d="M241.02,248.742a2.076,2.076,0,1,1-2.015,2.071A2,2,0,0,1,241.02,248.742Zm1.12,2.079a1.132,1.132,0,1,0-2.239,0,1.13,1.13,0,1,0,2.239,0Z" />
    <path
       id="path166"
       d="M246.044,252.852a1.487,1.487,0,0,1-1.183-.56v.52h-.888V247.1l.9-.152v2.4a1.558,1.558,0,0,1,1.231-.568,2.049,2.049,0,0,1-.064,4.078Zm-1.167-2.871v1.672a1.227,1.227,0,0,0,.959.439,1.282,1.282,0,0,0,0-2.558A1.178,1.178,0,0,0,244.877,249.981Z" />
    <path
       id="path168"
       d="M248.093,254.491v-.727a1.276,1.276,0,0,0,.32.031c.312,0,.448-.128.448-.431v-4.558h.9v4.6a1.056,1.056,0,0,1-1.184,1.143A2.1,2.1,0,0,1,248.093,254.491Zm.656-7.052a.564.564,0,0,1,1.127,0,.564.564,0,0,1-1.127,0Z" />
    <path
       id="path170"
       d="M252.732,252.892a2.037,2.037,0,0,1-2.039-2.079,1.974,1.974,0,0,1,1.951-2.071,1.923,1.923,0,0,1,1.895,2.063v.224h-2.958a1.223,1.223,0,0,0,1.2,1.1,1.3,1.3,0,0,0,.951-.376l.592.551A2.315,2.315,0,0,1,252.732,252.892Zm-1.135-2.414h2.087a1.1,1.1,0,0,0-1.048-1A1.076,1.076,0,0,0,251.6,250.478Z" />
    <path
       id="path172"
       d="M258.347,251.653l.544.543a2.084,2.084,0,0,1-1.567.7,2.072,2.072,0,0,1,0-4.142,2.158,2.158,0,0,1,1.6.672l-.56.583a1.325,1.325,0,0,0-1.007-.471,1.285,1.285,0,0,0,.024,2.558A1.232,1.232,0,0,0,258.347,251.653Z" />
    <path
       id="path174"
       d="M260.245,249.526h-.808v-.72h.808v-1.1l.9-.192v1.3h1.119v.72h-1.119v2.031c0,.391.152.544.56.544a1.659,1.659,0,0,0,.543-.1v.76a2.836,2.836,0,0,1-.775.112c-.808,0-1.231-.384-1.231-1.119Z" />
  </g>
  <g
     id="g210">
    <path
       id="path178"
       d="M351.293,165.933h2.486a1.705,1.705,0,0,1,1.871,1.695,1.591,1.591,0,0,1-1.1,1.536l1.175,2.366h-1.064l-1.079-2.238h-1.327v2.238h-.959Zm.959.808v1.783H353.7a.9.9,0,1,0,0-1.783Z" />
    <path
       id="path180"
       d="M358.211,171.61a2.035,2.035,0,0,1-2.038-2.079,1.973,1.973,0,0,1,1.95-2.071,1.923,1.923,0,0,1,1.9,2.063v.224H357.06a1.223,1.223,0,0,0,1.2,1.1,1.3,1.3,0,0,0,.951-.376l.592.552A2.323,2.323,0,0,1,358.211,171.61Zm-1.135-2.414h2.087a1.1,1.1,0,0,0-1.048-1A1.076,1.076,0,0,0,357.076,169.2Z" />
    <path
       id="path182"
       d="M360.781,169.531a1.939,1.939,0,0,1,1.87-2.038,1.51,1.51,0,0,1,1.176.543v-.512h.9v5.7h-.9V171a1.553,1.553,0,0,1-1.223.568A1.922,1.922,0,0,1,360.781,169.531Zm2.087,1.28a1.2,1.2,0,0,0,.951-.44v-1.687a1.243,1.243,0,0,0-.951-.432,1.283,1.283,0,0,0,0,2.559Z" />
    <path
       id="path184"
       d="M366.725,169.907a.862.862,0,0,0,.879.96,1.008,1.008,0,0,0,.879-.5v-2.847h.9v4.006h-.9v-.663a1.464,1.464,0,0,1-1.279.727,1.344,1.344,0,0,1-1.384-1.431v-2.639h.905Z" />
    <path
       id="path186"
       d="M372.355,171.61a2.036,2.036,0,0,1-2.039-2.079,1.974,1.974,0,0,1,1.952-2.071,1.923,1.923,0,0,1,1.894,2.063v.224H371.2a1.224,1.224,0,0,0,1.2,1.1,1.3,1.3,0,0,0,.951-.376l.592.552A2.317,2.317,0,0,1,372.355,171.61ZM371.22,169.2h2.087a1.1,1.1,0,0,0-1.047-1A1.077,1.077,0,0,0,371.22,169.2Z" />
    <path
       id="path188"
       d="M375.188,170.459a2.307,2.307,0,0,0,1.288.456c.479,0,.807-.216.807-.536,0-.248-.168-.384-.552-.456l-.711-.12c-.776-.144-1.16-.5-1.16-1.1,0-.752.616-1.24,1.551-1.24a2.815,2.815,0,0,1,1.575.48l-.424.592a2.188,2.188,0,0,0-1.207-.384c-.416,0-.687.176-.687.472,0,.255.144.368.567.44l.7.128c.8.151,1.184.52,1.184,1.119a1.468,1.468,0,0,1-1.631,1.3,2.688,2.688,0,0,1-1.727-.544Z" />
    <path
       id="path190"
       d="M379.372,168.244h-.808v-.72h.808v-1.1l.9-.192v1.295h1.12v.72h-1.12v2.031c0,.392.152.544.56.544a1.687,1.687,0,0,0,.544-.1v.759a2.849,2.849,0,0,1-.776.112c-.808,0-1.231-.384-1.231-1.119Z" />
    <path
       id="path192"
       d="M384.052,170.459a2.31,2.31,0,0,0,1.288.456c.479,0,.807-.216.807-.536,0-.248-.168-.384-.551-.456l-.712-.12c-.776-.144-1.159-.5-1.159-1.1,0-.752.615-1.24,1.55-1.24a2.82,2.82,0,0,1,1.576.48l-.424.592a2.19,2.19,0,0,0-1.207-.384c-.416,0-.688.176-.688.472,0,.255.144.368.568.44l.7.128c.8.151,1.183.52,1.183,1.119a1.468,1.468,0,0,1-1.631,1.3,2.688,2.688,0,0,1-1.727-.544Z" />
    <path
       id="path194"
       d="M389.715,171.61a2.036,2.036,0,0,1-2.039-2.079,1.974,1.974,0,0,1,1.951-2.071,1.922,1.922,0,0,1,1.894,2.063v.224h-2.958a1.224,1.224,0,0,0,1.2,1.1,1.3,1.3,0,0,0,.951-.376l.592.552A2.319,2.319,0,0,1,389.715,171.61Zm-1.136-2.414h2.087a1.1,1.1,0,0,0-1.047-1A1.077,1.077,0,0,0,388.579,169.2Z" />
    <path
       id="path196"
       d="M395.33,170.371l.544.544a2.087,2.087,0,0,1-1.567.7,2.072,2.072,0,0,1,0-4.142,2.158,2.158,0,0,1,1.6.672l-.56.584a1.323,1.323,0,0,0-1.007-.472,1.285,1.285,0,0,0,.023,2.559A1.232,1.232,0,0,0,395.33,170.371Z" />
    <path
       id="path198"
       d="M396.651,167.524h.9v.872a1.185,1.185,0,0,1,1.1-.943,1.057,1.057,0,0,1,.393.08v.791a1.278,1.278,0,0,0-.5-.1,1.1,1.1,0,0,0-1,.664v2.638h-.9Z" />
    <path
       id="path200"
       d="M401.458,171.61a2.035,2.035,0,0,1-2.038-2.079,1.973,1.973,0,0,1,1.95-2.071,1.923,1.923,0,0,1,1.9,2.063v.224h-2.959a1.224,1.224,0,0,0,1.2,1.1,1.3,1.3,0,0,0,.951-.376l.592.552A2.322,2.322,0,0,1,401.458,171.61Zm-1.135-2.414h2.087a1.1,1.1,0,0,0-1.048-1A1.076,1.076,0,0,0,400.323,169.2Z" />
    <path
       id="path202"
       d="M404.563,168.244h-.807v-.72h.807v-1.1l.9-.192v1.295h1.119v.72h-1.119v2.031c0,.392.152.544.559.544a1.683,1.683,0,0,0,.544-.1v.759a2.831,2.831,0,0,1-.775.112c-.808,0-1.232-.384-1.232-1.119Z" />
    <path
       id="path204"
       d="M409.18,165.813l.9-.151v3.573l1.663-1.711h1.031l-1.831,1.855,1.944,2.151h-1.16l-1.647-1.847v1.847h-.9Z" />
    <path
       id="path206"
       d="M415.1,171.61a2.036,2.036,0,0,1-2.039-2.079,1.973,1.973,0,0,1,1.951-2.071,1.923,1.923,0,0,1,1.894,2.063v.224h-2.958a1.224,1.224,0,0,0,1.2,1.1,1.3,1.3,0,0,0,.952-.376l.591.552A2.315,2.315,0,0,1,415.1,171.61Zm-1.136-2.414h2.087a1.1,1.1,0,0,0-1.047-1A1.077,1.077,0,0,0,413.963,169.2Z" />
    <path
       id="path208"
       d="M418.73,171.554l-1.51-4.03h1.008l1.014,2.975,1.12-2.975h.984l-1.9,4.662a1.352,1.352,0,0,1-1.422,1.055,1.979,1.979,0,0,1-.457-.055v-.776a3.29,3.29,0,0,0,.352.032.637.637,0,0,0,.647-.464Z" />
  </g>
  <g
     id="g254">
    <path
       id="path212"
       d="M37.811,103.932a2.249,2.249,0,0,1-2.351-2.479v-3.2h.959v3.2a1.422,1.422,0,0,0,1.4,1.615c.848,0,1.391-.631,1.391-1.615v-3.2h.959v3.2A2.262,2.262,0,0,1,37.811,103.932Z" />
    <path
       id="path214"
       d="M41.292,99.846h.888v.576a1.507,1.507,0,0,1,1.247-.608,2.049,2.049,0,0,1-.064,4.078,1.5,1.5,0,0,1-1.167-.52v2.175h-.9Zm.9,1.175v1.672a1.226,1.226,0,0,0,.959.439,1.282,1.282,0,0,0,0-2.558A1.177,1.177,0,0,0,42.2,101.021Z" />
    <path
       id="path216"
       d="M47.083,103.852h-.9V98.135l.9-.152Z" />
    <path
       id="path218"
       d="M50.027,99.782a2.076,2.076,0,1,1-2.015,2.071A2,2,0,0,1,50.027,99.782Zm1.119,2.079a1.132,1.132,0,1,0-2.238,0,1.13,1.13,0,1,0,2.238,0Z" />
    <path
       id="path220"
       d="M52.82,102.7c0-.72.583-1.176,1.527-1.176a2.473,2.473,0,0,1,1.079.248v-.44c0-.527-.3-.8-.919-.8a2.773,2.773,0,0,0-1.168.312l-.319-.656a3.841,3.841,0,0,1,1.663-.408c1.039,0,1.639.528,1.639,1.455v2.615h-.9v-.408a1.671,1.671,0,0,1-1.191.472A1.263,1.263,0,0,1,52.82,102.7Zm1.663.583a1.426,1.426,0,0,0,.943-.327V102.3a2.067,2.067,0,0,0-.927-.192c-.512,0-.832.224-.832.576C53.667,103.053,53.987,103.284,54.483,103.284Z" />
    <path
       id="path222"
       d="M60.282,103.316a1.542,1.542,0,0,1-1.231.576,2.05,2.05,0,0,1,.055-4.078,1.529,1.529,0,0,1,1.168.528V98.135l.9-.152v5.869h-.9Zm-.96-.184a1.2,1.2,0,0,0,.952-.439v-1.687a1.243,1.243,0,0,0-.952-.432,1.282,1.282,0,0,0,0,2.558Z" />
    <path
       id="path224"
       d="M65.931,99.782a2.076,2.076,0,1,1-2.015,2.071A2,2,0,0,1,65.931,99.782Zm1.119,2.079a1.132,1.132,0,1,0-2.238,0,1.13,1.13,0,1,0,2.238,0Z" />
    <path
       id="path226"
       d="M70.954,103.892a1.491,1.491,0,0,1-1.183-.559v.519h-.888V98.135l.9-.152v2.4a1.559,1.559,0,0,1,1.231-.568,2.049,2.049,0,0,1-.064,4.078Zm-1.167-2.871v1.672a1.228,1.228,0,0,0,.96.439,1.282,1.282,0,0,0,0-2.558A1.179,1.179,0,0,0,69.787,101.021Z" />
    <path
       id="path228"
       d="M73,105.531V104.8a1.276,1.276,0,0,0,.32.031c.312,0,.447-.127.447-.431V99.846h.9v4.6a1.056,1.056,0,0,1-1.183,1.143A2.1,2.1,0,0,1,73,105.531Zm.656-7.052a.564.564,0,0,1,1.127,0,.564.564,0,0,1-1.127,0Z" />
    <path
       id="path230"
       d="M77.642,103.932a2.035,2.035,0,0,1-2.038-2.079,1.973,1.973,0,0,1,1.95-2.071,1.923,1.923,0,0,1,1.895,2.063v.224H76.491a1.224,1.224,0,0,0,1.2,1.1,1.306,1.306,0,0,0,.952-.376l.591.551A2.314,2.314,0,0,1,77.642,103.932Zm-1.135-2.414h2.087a1.1,1.1,0,0,0-1.048-1A1.076,1.076,0,0,0,76.507,101.518Z" />
    <path
       id="path232"
       d="M83.258,102.693l.543.543a2.082,2.082,0,0,1-1.567.7,2.072,2.072,0,0,1,0-4.142,2.156,2.156,0,0,1,1.6.672l-.56.583a1.323,1.323,0,0,0-1.007-.471,1.285,1.285,0,0,0,.024,2.558A1.234,1.234,0,0,0,83.258,102.693Z" />
    <path
       id="path234"
       d="M85.155,100.566h-.807v-.72h.807v-1.1l.9-.192v1.3h1.119v.72H86.059V102.6c0,.391.151.544.559.544a1.665,1.665,0,0,0,.544-.1v.76a2.844,2.844,0,0,1-.776.112c-.807,0-1.231-.384-1.231-1.119Z" />
    <path
       id="path236"
       d="M90.475,103.852,89.4,99.846h.863l.7,2.831.824-2.831h.768l.823,2.839.7-2.839h.847l-1.079,4.006h-.872l-.807-2.822-.808,2.822Z" />
    <path
       id="path238"
       d="M95.555,98.479a.564.564,0,0,1,1.128,0,.564.564,0,0,1-1.128,0Zm1.016,5.373h-.9V99.846h.9Z" />
    <path
       id="path240"
       d="M98.179,100.566h-.808v-.72h.808v-1.1l.9-.192v1.3H100.2v.72H99.082V102.6c0,.391.152.544.56.544a1.669,1.669,0,0,0,.544-.1v.76a2.849,2.849,0,0,1-.776.112c-.808,0-1.231-.384-1.231-1.119Z" />
    <path
       id="path242"
       d="M101,98.135l.9-.152V100.5a1.454,1.454,0,0,1,1.271-.72,1.348,1.348,0,0,1,1.384,1.431v2.639h-.9v-2.383a.862.862,0,0,0-.879-.959,1.028,1.028,0,0,0-.872.48v2.862H101Z" />
    <path
       id="path244"
       d="M107.451,98.135l.9-.152v3.574l1.664-1.711h1.031l-1.831,1.855,1.943,2.151H110l-1.647-1.847v1.847h-.9Z" />
    <path
       id="path246"
       d="M113.37,103.932a2.036,2.036,0,0,1-2.039-2.079,1.973,1.973,0,0,1,1.951-2.071,1.923,1.923,0,0,1,1.9,2.063v.224h-2.959a1.224,1.224,0,0,0,1.2,1.1,1.3,1.3,0,0,0,.951-.376l.592.551A2.317,2.317,0,0,1,113.37,103.932Zm-1.136-2.414h2.087a1.1,1.1,0,0,0-1.047-1A1.077,1.077,0,0,0,112.234,101.518Z" />
    <path
       id="path248"
       d="M117,103.876l-1.511-4.03H116.5l1.015,2.975,1.119-2.975h.984l-1.9,4.662a1.355,1.355,0,0,1-1.423,1.055,1.91,1.91,0,0,1-.456-.056v-.776a3.381,3.381,0,0,0,.352.033.638.638,0,0,0,.647-.464Z" />
    <path
       id="path250"
       d="M122.138,98.255h.96v5.6h-.96Z" />
    <path
       id="path252"
       d="M124.4,98.255h2.047a2.8,2.8,0,1,1,0,5.6H124.4Zm.959.832v3.934h1.112a1.976,1.976,0,0,0,0-3.934Z" />
  </g>
  <g
     id="g290">
    <path
       id="path256"
       d="M183.05,34.383l1.356,1.283a4.3,4.3,0,1,1,.06-5.409l-1.392,1.319a2.444,2.444,0,0,0-2.014-1.115,2.484,2.484,0,1,0,1.99,3.922Z" />
    <path
       id="path258"
       d="M188.3,37.273a3.2,3.2,0,0,1-3.262-3.2,3.1,3.1,0,0,1,3.118-3.214,3.042,3.042,0,0,1,3.047,3.286v.42h-4.258a1.485,1.485,0,0,0,1.451,1.163,1.53,1.53,0,0,0,1.223-.516l1.284,1.068A3.611,3.611,0,0,1,188.3,37.273Zm-1.355-3.814H189.4a1.288,1.288,0,0,0-1.259-1.091A1.229,1.229,0,0,0,186.941,33.459Z" />
    <path
       id="path260"
       d="M192.414,30.965h1.919v.863a2.282,2.282,0,0,1,1.834-.9,2.948,2.948,0,0,1,2.735,3.142,2.983,2.983,0,0,1-2.878,3.118,2.155,2.155,0,0,1-1.667-.719v3.262h-1.943Zm1.943,2.075V35.1a1.6,1.6,0,0,0,1.163.491,1.53,1.53,0,0,0,0-3.058A1.5,1.5,0,0,0,194.357,33.04Z" />
    <path
       id="path262"
       d="M200.142,28.578l1.943-.3v3.694a2.281,2.281,0,0,1,1.955-1.1,2,2,0,0,1,2.05,2.11v4.174h-1.943v-3.61a1.03,1.03,0,0,0-1.031-1.151,1.25,1.25,0,0,0-1.031.516v4.245h-1.943Z" />
    <path
       id="path264"
       d="M214.263,37.285a4.33,4.33,0,1,1,4.33-4.329A4.293,4.293,0,0,1,214.263,37.285Zm-.012-6.824a2.308,2.308,0,0,0-2.207,2.5,2.224,2.224,0,1,0,4.414,0A2.308,2.308,0,0,0,214.251,30.461Z" />
    <path
       id="path266"
       d="M223.5,37.189a2.173,2.173,0,0,1-1.691-.791v.755h-1.919V28.578l1.943-.3v3.478a2.338,2.338,0,0,1,1.811-.827,2.949,2.949,0,0,1,2.735,3.142A2.984,2.984,0,0,1,223.5,37.189Zm-1.667-4.149V35.1a1.6,1.6,0,0,0,1.164.491,1.53,1.53,0,0,0,0-3.058A1.5,1.5,0,0,0,221.836,33.04Z" />
    <path
       id="path268"
       d="M226.458,39.708V38.233a2.441,2.441,0,0,0,.54.048c.431,0,.623-.168.623-.528V30.965h1.943v6.872a1.888,1.888,0,0,1-2.147,1.991A3.535,3.535,0,0,1,226.458,39.708ZM227.5,28.926a1.1,1.1,0,0,1,2.195,0,1.1,1.1,0,0,1-2.195,0Z" />
    <path
       id="path270"
       d="M234.064,37.273a3.2,3.2,0,0,1-3.263-3.2,3.105,3.105,0,0,1,3.119-3.214,3.041,3.041,0,0,1,3.046,3.286v.42h-4.258a1.486,1.486,0,0,0,1.452,1.163,1.531,1.531,0,0,0,1.223-.516l1.284,1.068A3.611,3.611,0,0,1,234.064,37.273Zm-1.356-3.814h2.459a1.289,1.289,0,0,0-1.259-1.091A1.229,1.229,0,0,0,232.708,33.459Z" />
    <path
       id="path272"
       d="M242.535,34.982l1.151,1.14a3.258,3.258,0,0,1-2.519,1.151,3.2,3.2,0,1,1,0-6.4,3.348,3.348,0,0,1,2.579,1.139L242.559,33.2a1.621,1.621,0,0,0-1.32-.671,1.546,1.546,0,0,0,.048,3.07A1.5,1.5,0,0,0,242.535,34.982Z" />
    <path
       id="path274"
       d="M245.645,32.464h-1.2v-1.5h1.2V29.25l1.942-.4v2.111h1.655v1.5h-1.655v2.4c0,.551.216.743.816.743a2.6,2.6,0,0,0,.791-.132v1.571a5.4,5.4,0,0,1-1.331.192c-1.463,0-2.218-.672-2.218-1.99Z" />
    <path
       id="path276"
       d="M181.047,51.685a4.33,4.33,0,1,1-.035-8.659,4.388,4.388,0,0,1,3.526,1.631l-1.452,1.26a2.5,2.5,0,0,0-2.074-1.056,2.313,2.313,0,0,0-2.243,2.494,2.36,2.36,0,0,0,2.314,2.519,1.928,1.928,0,0,0,1.919-1.4h-2.1V46.732h4.317v.587A4.137,4.137,0,0,1,181.047,51.685Z" />
    <path
       id="path278"
       d="M186.234,49.778c0-1.139.888-1.8,2.411-1.8a4.021,4.021,0,0,1,1.438.288v-.5c0-.6-.4-.9-1.223-.9a4.619,4.619,0,0,0-1.738.431l-.672-1.355a6.843,6.843,0,0,1,2.842-.671c1.715,0,2.71.851,2.71,2.326v3.958h-1.919v-.539a2.465,2.465,0,0,1-1.714.635A1.926,1.926,0,0,1,186.234,49.778Zm2.734.588a2.108,2.108,0,0,0,1.115-.312v-.791a4.632,4.632,0,0,0-1.067-.133c-.635,0-1,.216-1,.612S188.369,50.366,188.968,50.366Z" />
    <path
       id="path280"
       d="M194.105,46.864h-1.2v-1.5h1.2V43.649l1.943-.4v2.111H197.7v1.5h-1.655v2.4c0,.551.216.743.816.743a2.6,2.6,0,0,0,.791-.132v1.571a5.4,5.4,0,0,1-1.331.192c-1.463,0-2.219-.672-2.219-1.991Z" />
    <path
       id="path282"
       d="M201.772,51.673a3.2,3.2,0,0,1-3.262-3.2,3.1,3.1,0,0,1,3.118-3.214,3.041,3.041,0,0,1,3.047,3.286v.419h-4.258a1.485,1.485,0,0,0,1.451,1.164,1.53,1.53,0,0,0,1.223-.516l1.284,1.068A3.611,3.611,0,0,1,201.772,51.673Zm-1.355-3.814h2.458a1.288,1.288,0,0,0-1.259-1.091A1.228,1.228,0,0,0,200.417,47.859Z" />
    <path
       id="path284"
       d="M206.861,51.553l-1.655-6.188h1.835l.864,3.694,1.043-3.694h1.595l1.032,3.681.851-3.681h1.787l-1.643,6.188h-1.847l-1.008-3.646-.983,3.646Z" />
    <path
       id="path286"
       d="M214.758,49.778c0-1.139.888-1.8,2.41-1.8a4.031,4.031,0,0,1,1.44.288v-.5c0-.6-.4-.9-1.224-.9a4.619,4.619,0,0,0-1.738.431l-.672-1.355a6.843,6.843,0,0,1,2.842-.671c1.715,0,2.711.851,2.711,2.326v3.958h-1.919v-.539a2.469,2.469,0,0,1-1.715.635A1.926,1.926,0,0,1,214.758,49.778Zm2.734.588a2.114,2.114,0,0,0,1.116-.312v-.791a4.647,4.647,0,0,0-1.068-.133c-.635,0-1,.216-1,.612S216.893,50.366,217.492,50.366Z" />
    <path
       id="path288"
       d="M223.421,51.673l-2.279-6.308h2.147l1.235,3.993,1.415-3.993h2.1l-2.783,6.908a2.55,2.55,0,0,1-2.711,1.931,3.946,3.946,0,0,1-.8-.1V52.477a4.1,4.1,0,0,0,.575.048.949.949,0,0,0,1.008-.624Z" />
  </g>
  <g
     id="g302">
    <path
       id="path292"
       d="M316.062,28.758h2.232l2.219,6.248,2.255-6.248h2.146l-3.274,8.4h-2.351Z" />
    <path
       id="path294"
       d="M324.69,35.378c0-1.139.888-1.8,2.412-1.8a4.03,4.03,0,0,1,1.439.288v-.5c0-.6-.4-.9-1.224-.9a4.613,4.613,0,0,0-1.739.432l-.672-1.355a6.838,6.838,0,0,1,2.843-.672c1.715,0,2.711.851,2.711,2.326v3.958h-1.919v-.539a2.471,2.471,0,0,1-1.716.636A1.926,1.926,0,0,1,324.69,35.378Zm2.735.588a2.114,2.114,0,0,0,1.116-.312v-.791a4.647,4.647,0,0,0-1.068-.133c-.635,0-1,.217-1,.612S326.825,35.966,327.425,35.966Z" />
    <path
       id="path296"
       d="M333.761,34.575a1.03,1.03,0,0,0,1.032,1.151,1.251,1.251,0,0,0,1.031-.516V30.965h1.943v6.188h-1.943V36.146a2.282,2.282,0,0,1-1.955,1.1,2,2,0,0,1-2.051-2.112V30.965h1.943Z" />
    <path
       id="path298"
       d="M341.226,37.153h-1.944V28.578l1.944-.3Z" />
    <path
       id="path300"
       d="M343.554,32.464h-1.2v-1.5h1.2V29.25l1.943-.4v2.111h1.654v1.5H345.5v2.4c0,.551.216.743.815.743a2.6,2.6,0,0,0,.792-.132v1.571a5.409,5.409,0,0,1-1.332.192c-1.462,0-2.218-.672-2.218-1.99Z" />
  </g>
  <g
     id="g318">
    <path
       id="path304"
       d="M464.189,34.383l1.356,1.283a4.3,4.3,0,1,1,.059-5.409l-1.391,1.319a2.444,2.444,0,0,0-2.015-1.115,2.484,2.484,0,1,0,1.991,3.922Z" />
    <path
       id="path306"
       d="M469.436,37.273a3.2,3.2,0,0,1-3.263-3.2,3.105,3.105,0,0,1,3.118-3.214,3.042,3.042,0,0,1,3.047,3.286v.42H468.08a1.485,1.485,0,0,0,1.451,1.163,1.529,1.529,0,0,0,1.223-.516l1.284,1.068A3.608,3.608,0,0,1,469.436,37.273Zm-1.356-3.814h2.458a1.288,1.288,0,0,0-1.259-1.091A1.228,1.228,0,0,0,468.08,33.459Z" />
    <path
       id="path308"
       d="M473.553,30.965h1.919v.863a2.283,2.283,0,0,1,1.835-.9,2.948,2.948,0,0,1,2.734,3.142,2.983,2.983,0,0,1-2.878,3.118,2.154,2.154,0,0,1-1.667-.719v3.262h-1.943ZM475.5,33.04V35.1a1.6,1.6,0,0,0,1.163.491,1.53,1.53,0,0,0,0-3.058A1.5,1.5,0,0,0,475.5,33.04Z" />
    <path
       id="path310"
       d="M481.28,28.578l1.944-.3v3.694a2.281,2.281,0,0,1,1.955-1.1,2,2,0,0,1,2.05,2.11v4.174h-1.943v-3.61a1.03,1.03,0,0,0-1.031-1.151,1.25,1.25,0,0,0-1.031.516v4.245H481.28Z" />
    <path
       id="path312"
       d="M495.4,37.285a4.33,4.33,0,1,1,4.329-4.329A4.292,4.292,0,0,1,495.4,37.285Zm-.012-6.824a2.307,2.307,0,0,0-2.206,2.5,2.223,2.223,0,1,0,4.413,0A2.308,2.308,0,0,0,495.39,30.461Z" />
    <path
       id="path314"
       d="M501.56,34.479a4.612,4.612,0,0,0,2.722,1.115c.888,0,1.428-.36,1.428-.875,0-.492-.288-.72-1.1-.876l-1.787-.312a2.224,2.224,0,0,1-2.062-2.242c0-1.632,1.247-2.651,3.334-2.651a5.7,5.7,0,0,1,3.441,1.1l-1.043,1.5a4,4,0,0,0-2.507-.924c-.815,0-1.283.336-1.283.792,0,.419.277.647.947.755l1.68.288c1.571.276,2.4,1.092,2.4,2.375,0,1.631-1.392,2.746-3.586,2.746A5.952,5.952,0,0,1,500.505,36Z" />
    <path
       id="path316"
       d="M509.072,28.758h3.418a4.2,4.2,0,1,1,0,8.4h-3.418Zm2.063,1.763V35.39h1.355a2.245,2.245,0,0,0,2.087-2.411,2.282,2.282,0,0,0-2.087-2.458Z" />
  </g>
  <g
     id="g324">
    <line
       id="line320"
       y2="82.886"
       x2="414.366"
       y1="82.886"
       x1="34.9"
       class="cls-2" />
    <polygon
       id="polygon322"
       points="413.272 86.626 419.748 82.887 413.272 79.147 413.272 86.626"
       class="cls-3" />
  </g>
  <g
     id="g330">
    <line
       id="line326"
       y2="111"
       x2="275.671"
       y1="111"
       x1="34.9"
       class="cls-2" />
    <polygon
       id="polygon328"
       points="274.577 114.74 281.053 111.001 274.577 107.261 274.577 114.74"
       class="cls-3" />
  </g>
  <g
     id="g336">
    <line
       id="line332"
       y2="149.5"
       x2="416.062"
       y1="149.5"
       x1="175.292"
       class="cls-2" />
    <polygon
       id="polygon334"
       points="414.968 153.239 421.444 149.5 414.968 145.761 414.968 153.239"
       class="cls-3" />
  </g>
  <g
     id="g342">
    <line
       id="line338"
       y2="259.066"
       x2="556.809"
       y1="259.066"
       x1="175.292"
       class="cls-2" />
    <polygon
       id="polygon340"
       points="555.715 262.806 562.191 259.067 555.715 255.327 555.715 262.806"
       class="cls-3" />
  </g>
  <g
     id="g348">
    <line
       id="line344"
       y2="179.098"
       x2="421.444"
       y1="179.098"
       x1="181.391"
       class="cls-2" />
    <polygon
       id="polygon346"
       points="182.631 183.336 175.292 179.099 182.631 174.86 182.631 183.336"
       class="cls-3" />
  </g>
  <g
     id="g412">
    <rect
       id="rect350"
       height="34.173"
       width="102.718"
       y="197.996"
       x="176.094"
       class="cls-4" />
    <g
       id="g404">
      <path
         id="path352"
         d="M209.521,206.9h4.006v.816H210.48v1.559h2.127v.8H210.48v1.608h3.079v.815h-4.038Z" />
      <path
         id="path354"
         d="M214.537,208.492h.9v.656a1.454,1.454,0,0,1,1.271-.719,1.348,1.348,0,0,1,1.383,1.43V212.5h-.9v-2.383a.863.863,0,0,0-.88-.959,1.027,1.027,0,0,0-.871.48V212.5h-.9Z" />
      <path
         id="path356"
         d="M222.056,211.339l.543.544a2.087,2.087,0,0,1-1.567.695,2.071,2.071,0,0,1,0-4.141,2.161,2.161,0,0,1,1.6.671l-.56.583a1.323,1.323,0,0,0-1.007-.471,1.285,1.285,0,0,0,.024,2.558A1.232,1.232,0,0,0,222.056,211.339Z" />
      <path
         id="path358"
         d="M223.377,208.492h.9v.872a1.187,1.187,0,0,1,1.1-.943,1.051,1.051,0,0,1,.392.08v.791a1.293,1.293,0,0,0-.5-.1,1.1,1.1,0,0,0-1,.663V212.5h-.9Z" />
      <path
         id="path360"
         d="M227.624,212.522l-1.511-4.03h1.008l1.015,2.975,1.119-2.975h.984l-1.9,4.662a1.354,1.354,0,0,1-1.423,1.055,1.91,1.91,0,0,1-.456-.056v-.775c.216.023.272.032.352.032a.638.638,0,0,0,.647-.464Z" />
      <path
         id="path362"
         d="M230.9,208.492h.888v.576a1.511,1.511,0,0,1,1.247-.607,1.922,1.922,0,0,1,1.816,2.038,1.942,1.942,0,0,1-1.88,2.039,1.5,1.5,0,0,1-1.167-.519v2.174h-.9Zm.9,1.176v1.671a1.228,1.228,0,0,0,.96.439,1.282,1.282,0,0,0,0-2.558A1.177,1.177,0,0,0,231.8,209.668Z" />
      <path
         id="path364"
         d="M236.089,209.212h-.808v-.72h.808v-1.1l.9-.192v1.295h1.119v.72h-1.119v2.031c0,.392.152.544.56.544a1.643,1.643,0,0,0,.544-.1v.76a2.844,2.844,0,0,1-.776.112c-.808,0-1.231-.383-1.231-1.119Z" />
      <path
         id="path366"
         d="M242.536,208.429a2.075,2.075,0,1,1-2.015,2.07A2,2,0,0,1,242.536,208.429Zm1.119,2.079a1.132,1.132,0,1,0-2.238,0,1.13,1.13,0,1,0,2.238,0Z" />
      <path
         id="path368"
         d="M247.559,212.538a1.488,1.488,0,0,1-1.183-.559v.519h-.888v-5.717l.9-.151v2.4a1.562,1.562,0,0,1,1.231-.567,1.921,1.921,0,0,1,1.815,2.038A1.941,1.941,0,0,1,247.559,212.538Zm-1.167-2.87v1.671a1.228,1.228,0,0,0,.96.439,1.282,1.282,0,0,0,0-2.558A1.177,1.177,0,0,0,246.392,209.668Z" />
      <path
         id="path370"
         d="M249.609,214.178v-.728a1.276,1.276,0,0,0,.32.031c.312,0,.447-.127.447-.431v-4.558h.9v4.6a1.056,1.056,0,0,1-1.183,1.143A2.161,2.161,0,0,1,249.609,214.178Zm.656-7.053a.564.564,0,0,1,1.127,0,.564.564,0,0,1-1.127,0Z" />
      <path
         id="path372"
         d="M254.248,212.578a2.036,2.036,0,0,1-2.039-2.079,1.972,1.972,0,0,1,1.951-2.07,1.922,1.922,0,0,1,1.9,2.062v.224H253.1a1.224,1.224,0,0,0,1.2,1.1,1.3,1.3,0,0,0,.951-.376l.592.551A2.312,2.312,0,0,1,254.248,212.578Zm-1.136-2.414H255.2a1.1,1.1,0,0,0-1.047-1A1.077,1.077,0,0,0,253.112,210.164Z" />
      <path
         id="path374"
         d="M259.863,211.339l.544.544a2.087,2.087,0,0,1-1.567.695,2.071,2.071,0,0,1,0-4.141,2.159,2.159,0,0,1,1.6.671l-.559.583a1.326,1.326,0,0,0-1.007-.471,1.285,1.285,0,0,0,.024,2.558A1.23,1.23,0,0,0,259.863,211.339Z" />
      <path
         id="path376"
         d="M261.76,209.212h-.807v-.72h.807v-1.1l.9-.192v1.295h1.119v.72h-1.119v2.031c0,.392.151.544.559.544a1.639,1.639,0,0,0,.544-.1v.76a2.844,2.844,0,0,1-.776.112c-.807,0-1.231-.383-1.231-1.119Z" />
      <path
         id="path378"
         d="M210.113,222.1l-1.079-4.006h.863l.7,2.83.823-2.83h.768l.823,2.838.7-2.838h.848l-1.08,4.006h-.872l-.807-2.823-.808,2.823Z" />
      <path
         id="path380"
         d="M215.193,216.726a.564.564,0,0,1,1.128,0,.564.564,0,0,1-1.128,0Zm1.016,5.373h-.9v-4.006h.9Z" />
      <path
         id="path382"
         d="M217.817,218.812h-.807v-.719h.807v-1.1l.9-.192v1.3h1.119v.719h-1.119v2.031c0,.392.152.544.559.544a1.66,1.66,0,0,0,.544-.1v.76a2.881,2.881,0,0,1-.776.111c-.807,0-1.231-.384-1.231-1.119Z" />
      <path
         id="path384"
         d="M220.633,216.382l.9-.153v2.519a1.452,1.452,0,0,1,1.271-.72,1.349,1.349,0,0,1,1.383,1.432V222.1h-.9v-2.383a.863.863,0,0,0-.88-.96,1.025,1.025,0,0,0-.871.48V222.1h-.9Z" />
      <path
         id="path386"
         d="M227.153,221.027a2.313,2.313,0,0,0,1.287.455c.48,0,.808-.215.808-.535,0-.248-.168-.384-.552-.456l-.712-.12c-.775-.143-1.159-.5-1.159-1.1,0-.751.616-1.24,1.551-1.24a2.819,2.819,0,0,1,1.575.481l-.423.591a2.191,2.191,0,0,0-1.208-.384c-.416,0-.687.177-.687.472,0,.256.143.368.567.44l.7.128c.8.151,1.183.519,1.183,1.119a1.468,1.468,0,0,1-1.631,1.3,2.694,2.694,0,0,1-1.727-.544Z" />
      <path
         id="path388"
         d="M232.816,222.179a2.037,2.037,0,0,1-2.039-2.079,1.974,1.974,0,0,1,1.951-2.072,1.924,1.924,0,0,1,1.895,2.064v.223h-2.958a1.223,1.223,0,0,0,1.2,1.1,1.3,1.3,0,0,0,.951-.376l.592.552A2.322,2.322,0,0,1,232.816,222.179Zm-1.135-2.415h2.087a1.1,1.1,0,0,0-1.048-1A1.076,1.076,0,0,0,231.681,219.764Z" />
      <path
         id="path390"
         d="M238.431,220.939l.544.543a2.086,2.086,0,0,1-1.568.7,2.072,2.072,0,0,1,0-4.142,2.159,2.159,0,0,1,1.6.671l-.56.584a1.325,1.325,0,0,0-1.008-.472,1.285,1.285,0,0,0,.024,2.559A1.232,1.232,0,0,0,238.431,220.939Z" />
      <path
         id="path392"
         d="M239.752,218.093h.9v.871a1.189,1.189,0,0,1,1.1-.943,1.051,1.051,0,0,1,.392.08v.792a1.257,1.257,0,0,0-.5-.1,1.1,1.1,0,0,0-1,.664V222.1h-.9Z" />
      <path
         id="path394"
         d="M244.56,222.179a2.037,2.037,0,0,1-2.039-2.079,1.973,1.973,0,0,1,1.951-2.072,1.924,1.924,0,0,1,1.895,2.064v.223h-2.959a1.224,1.224,0,0,0,1.2,1.1,1.306,1.306,0,0,0,.952-.376l.592.552A2.32,2.32,0,0,1,244.56,222.179Zm-1.136-2.415h2.087a1.1,1.1,0,0,0-1.047-1A1.076,1.076,0,0,0,243.424,219.764Z" />
      <path
         id="path396"
         d="M247.664,218.812h-.807v-.719h.807v-1.1l.9-.192v1.3h1.119v.719h-1.119v2.031c0,.392.152.544.559.544a1.656,1.656,0,0,0,.544-.1v.76a2.874,2.874,0,0,1-.775.111c-.808,0-1.232-.384-1.232-1.119Z" />
      <path
         id="path398"
         d="M252.28,216.382l.9-.153V219.8l1.663-1.711h1.031l-1.831,1.854,1.943,2.152h-1.159l-1.647-1.848V222.1h-.9Z" />
      <path
         id="path400"
         d="M258.2,222.179a2.036,2.036,0,0,1-2.038-2.079,1.973,1.973,0,0,1,1.95-2.072,1.923,1.923,0,0,1,1.895,2.064v.223h-2.958a1.224,1.224,0,0,0,1.2,1.1,1.306,1.306,0,0,0,.952-.376l.592.552A2.323,2.323,0,0,1,258.2,222.179Zm-1.135-2.415h2.087a1.1,1.1,0,0,0-1.047-1A1.076,1.076,0,0,0,257.064,219.764Z" />
      <path
         id="path402"
         d="M261.832,222.122l-1.511-4.029h1.008l1.015,2.974,1.119-2.974h.984l-1.9,4.661a1.356,1.356,0,0,1-1.423,1.056,1.91,1.91,0,0,1-.456-.056v-.776a3.29,3.29,0,0,0,.352.032.638.638,0,0,0,.647-.464Z" />
    </g>
    <g
       id="g410">
      <path
         id="path406"
         d="M186.943,223.625h12.014v-2.072h-5.178a.621.621,0,1,1,0-1.242h5.178v-1.243h-5.178a.622.622,0,1,1,0-1.243h5.178v-1.243h-5.178a.622.622,0,1,1,0-1.243h5.178v-2.071l-12.014.016Z"
         class="cls-5" />
      <path
         id="path408"
         d="M199.579,212.025h-1.865v-1.98a4.764,4.764,0,0,0-9.528,0v1.98h-1.864a.621.621,0,0,0-.622.621v11.6a.621.621,0,0,0,.622.622h13.257a.63.63,0,0,0,.621-.622v-11.6A.629.629,0,0,0,199.579,212.025Zm-10.15-1.98a3.522,3.522,0,1,1,7.043,0v1.98h-7.043Zm9.528,5.294h-5.178a.622.622,0,1,0,0,1.243h5.178v1.243h-5.178a.622.622,0,1,0,0,1.243h5.178v1.243h-5.178a.621.621,0,1,0,0,1.242h5.178v2.072H186.943V213.284l12.014-.016Z"
         class="cls-6" />
    </g>
  </g>
</svg>
