<?xml version="1.0" encoding="UTF-8" standalone="no"?>
<svg
   xmlns:dc="http://purl.org/dc/elements/1.1/"
   xmlns:cc="http://creativecommons.org/ns#"
   xmlns:rdf="http://www.w3.org/1999/02/22-rdf-syntax-ns#"
   xmlns:svg="http://www.w3.org/2000/svg"
   xmlns="http://www.w3.org/2000/svg"
   xmlns:sodipodi="http://sodipodi.sourceforge.net/DTD/sodipodi-0.dtd"
   xmlns:inkscape="http://www.inkscape.org/namespaces/inkscape"
   inkscape:version="1.0 (4035a4f, 2020-05-01)"
   sodipodi:docname="ModuleA07-ObjectStorageIntroduction.svg"
   version="1.1"
   viewBox="0 0 595.276 459.693"
   height="6.385in"
   width="8.268in"
   data-name="Layer 1"
   id="Layer_1">
  <metadata
     id="metadata265">
    <rdf:RDF>
      <cc:Work
         rdf:about="">
        <dc:format>image/svg+xml</dc:format>
        <dc:type
           rdf:resource="http://purl.org/dc/dcmitype/StillImage" />
        <dc:title></dc:title>
        <dc:subject>
          <rdf:Bag>
            <rdf:li>objectstorage</rdf:li>
          </rdf:Bag>
        </dc:subject>
      </cc:Work>
    </rdf:RDF>
  </metadata>
  <sodipodi:namedview
     inkscape:current-layer="Layer_1"
     inkscape:window-maximized="0"
     inkscape:window-y="25"
     inkscape:window-x="0"
     inkscape:cy="306.48001"
     inkscape:cx="396.86398"
     inkscape:zoom="0.63119862"
     showgrid="false"
     id="namedview263"
     inkscape:window-height="480"
     inkscape:window-width="987"
     inkscape:pageshadow="2"
     inkscape:pageopacity="0"
     guidetolerance="10"
     gridtolerance="10"
     objecttolerance="10"
     borderopacity="1"
     bordercolor="#666666"
     pagecolor="#ffffff" />
  <defs
     id="defs12">
    <style
       id="style10">
      .cls-1 {
        fill: #e6e6e6;
      }

      .cls-2, .cls-5 {
        fill: #fff;
      }

      .cls-3 {
        fill: #06c;
      }

      .cls-4 {
        fill: #dbe8f5;
      }

      .cls-5, .cls-7 {
        stroke: #5b5b5b;
        stroke-linecap: round;
        stroke-linejoin: round;
      }

      .cls-5 {
        stroke-width: 1.5px;
      }

      .cls-6 {
        fill: #151515;
      }

      .cls-7 {
        fill: none;
        stroke-width: 2px;
      }
    </style>
  </defs>
  <g
     id="g260">
    <rect
       id="rect14"
       height="237.145"
       width="549.642"
       y="200.084"
       x="23.789"
       class="cls-1" />
    <rect
       id="rect16"
       height="144.286"
       width="176.859"
       y="19.24"
       x="210.176"
       class="cls-1" />
    <rect
       id="rect18"
       height="196.805"
       width="162.103"
       y="220.254"
       x="217.559"
       class="cls-2" />
    <rect
       id="rect20"
       height="196.805"
       width="162.103"
       y="220.254"
       x="391.265"
       class="cls-2" />
    <rect
       id="rect22"
       height="196.805"
       width="162.103"
       y="220.254"
       x="43.852"
       class="cls-2" />
    <rect
       id="rect24"
       height="31.823"
       width="136.733"
       y="288.76"
       x="56.533"
       class="cls-3" />
    <rect
       id="rect26"
       height="31.823"
       width="136.733"
       y="330.319"
       x="56.533"
       class="cls-4" />
    <rect
       id="rect28"
       height="31.823"
       width="136.733"
       y="371.887"
       x="56.533"
       class="cls-4" />
    <rect
       id="rect30"
       height="31.823"
       width="136.733"
       y="288.76"
       x="230.239"
       class="cls-4" />
    <rect
       id="rect32"
       height="31.823"
       width="136.733"
       y="330.319"
       x="230.239"
       class="cls-4" />
    <rect
       id="rect34"
       height="31.823"
       width="136.733"
       y="371.887"
       x="230.239"
       class="cls-4" />
    <rect
       id="rect36"
       height="31.823"
       width="136.733"
       y="288.76"
       x="403.946"
       class="cls-4" />
    <rect
       id="rect38"
       height="31.823"
       width="136.733"
       y="330.319"
       x="403.946"
       class="cls-4" />
    <rect
       id="rect40"
       height="31.823"
       width="136.733"
       y="371.887"
       x="403.946"
       class="cls-4" />
    <rect
       id="rect42"
       height="31.823"
       width="136.733"
       y="111.64"
       x="230.239"
       class="cls-3" />
    <g
       id="g48">
      <path
         id="path44"
         d="M102.4,247.888v12.43c0,6.865,10.074,12.431,22.5,12.431s22.5-5.566,22.5-12.431v-12.43"
         class="cls-5" />
      <ellipse
         id="ellipse46"
         ry="12.43"
         rx="22.5"
         cy="247.888"
         cx="124.903"
         class="cls-5" />
    </g>
    <g
       id="g54">
      <path
         id="path50"
         d="M276.11,247.888v12.43c0,6.865,10.074,12.431,22.5,12.431s22.5-5.566,22.5-12.431v-12.43"
         class="cls-5" />
      <ellipse
         id="ellipse52"
         ry="12.43"
         rx="22.5"
         cy="247.888"
         cx="298.61"
         class="cls-5" />
    </g>
    <g
       id="g60">
      <path
         id="path56"
         d="M449.817,247.888v12.43c0,6.865,10.073,12.431,22.5,12.431s22.5-5.566,22.5-12.431v-12.43"
         class="cls-5" />
      <ellipse
         id="ellipse58"
         ry="12.43"
         rx="22.5"
         cy="247.888"
         cx="472.317"
         class="cls-5" />
    </g>
    <g
       id="g88">
      <g
         id="g78">
        <path
           id="path62"
           d="M273.884,86.4h1.321v3.245h3.828V86.4h1.32v7.7h-1.32V90.8h-3.828v3.3h-1.321Z"
           class="cls-6" />
        <path
           id="path64"
           d="M284.51,88.5a2.856,2.856,0,1,1-2.772,2.85A2.753,2.753,0,0,1,284.51,88.5Zm1.54,2.861a1.558,1.558,0,1,0-3.08,0,1.555,1.555,0,1,0,3.08,0Z"
           class="cls-6" />
        <path
           id="path66"
           d="M288.657,92.625a3.178,3.178,0,0,0,1.771.628c.66,0,1.112-.3,1.112-.737,0-.341-.232-.529-.76-.627l-.979-.165c-1.067-.2-1.595-.694-1.595-1.519,0-1.034.847-1.7,2.134-1.7a3.878,3.878,0,0,1,2.167.66l-.583.814a3.012,3.012,0,0,0-1.661-.528c-.572,0-.946.242-.946.649,0,.352.2.507.781.605l.968.176c1.1.209,1.628.715,1.628,1.54a2.019,2.019,0,0,1-2.244,1.794,3.7,3.7,0,0,1-2.376-.748Z"
           class="cls-6" />
        <path
           id="path68"
           d="M294.52,89.578h-1.111v-.99h1.111V87.07l1.243-.264v1.782h1.54v.99h-1.54v2.794c0,.539.209.748.77.748a2.249,2.249,0,0,0,.748-.132v1.045a3.873,3.873,0,0,1-1.067.155c-1.111,0-1.694-.529-1.694-1.54Z"
           class="cls-6" />
        <path
           id="path70"
           d="M301.472,86.4h1.21l-4.4,9.989h-1.211Z"
           class="cls-6" />
        <path
           id="path72"
           d="M306.179,86.4h1.529l2.982,7.7h-1.419l-.781-2.156h-3.168L304.53,94.1h-1.376Zm1.926,4.51-1.189-3.278-1.209,3.278Z"
           class="cls-6" />
        <path
           id="path74"
           d="M311.525,88.588h1.222v.792a2.075,2.075,0,0,1,1.715-.836,2.819,2.819,0,0,1-.088,5.61,2.061,2.061,0,0,1-1.606-.714v2.992h-1.243Zm1.243,1.617v2.3a1.687,1.687,0,0,0,1.32.606,1.765,1.765,0,0,0,0-3.521A1.619,1.619,0,0,0,312.768,90.205Z"
           class="cls-6" />
        <path
           id="path76"
           d="M318.247,88.588h1.22v.792a2.078,2.078,0,0,1,1.717-.836,2.819,2.819,0,0,1-.088,5.61,2.058,2.058,0,0,1-1.606-.714v2.992h-1.243Zm1.243,1.617v2.3a1.687,1.687,0,0,0,1.32.606,1.765,1.765,0,0,0,0-3.521A1.616,1.616,0,0,0,319.49,90.205Z"
           class="cls-6" />
      </g>
      <g
         id="g86">
        <rect
           id="rect80"
           height="37.18"
           width="48.5"
           y="40.325"
           x="274.356"
           class="cls-5" />
        <line
           id="line82"
           y2="45.906"
           x2="317.26"
           y1="45.906"
           x1="317.26"
           class="cls-7" />
        <line
           id="line84"
           y2="45.906"
           x2="313.529"
           y1="45.906"
           x1="313.529"
           class="cls-7" />
      </g>
    </g>
    <g
       id="g112">
      <path
         id="path90"
         d="M263.534,131a3.972,3.972,0,1,1,3.894-3.971A3.9,3.9,0,0,1,263.534,131Zm.01-6.766a2.8,2.8,0,0,0,0,5.578,2.8,2.8,0,0,0,0-5.578Z"
         class="cls-2" />
      <path
         id="path92"
         d="M268.846,123.174h1.32v7.7h-1.32Z"
         class="cls-2" />
      <path
         id="path94"
         d="M271.958,123.174h2.817a3.851,3.851,0,1,1,0,7.7h-2.817Zm1.321,1.144v5.413h1.529a2.718,2.718,0,0,0,0-5.413Z"
         class="cls-2" />
      <path
         id="path96"
         d="M286.974,126.486h-4.621V125.5h4.621Zm0,1.98h-4.621v-.99h4.621Z"
         class="cls-2" />
      <path
         id="path98"
         d="M294.619,131a3.972,3.972,0,1,1,3.894-3.971A3.9,3.9,0,0,1,294.619,131Zm.01-6.766a2.8,2.8,0,0,0,0,5.578,2.8,2.8,0,0,0,0-5.578Z"
         class="cls-2" />
      <path
         id="path100"
         d="M302.692,130.93a2.05,2.05,0,0,1-1.628-.77v.715h-1.221v-7.866l1.243-.209v3.3a2.145,2.145,0,0,1,1.695-.78,2.645,2.645,0,0,1,2.5,2.805A2.672,2.672,0,0,1,302.692,130.93Zm-1.606-3.949v2.3a1.69,1.69,0,0,0,1.32.6,1.765,1.765,0,0,0,0-3.521A1.616,1.616,0,0,0,301.086,126.981Z"
         class="cls-2" />
      <path
         id="path102"
         d="M305.508,133.186v-1a1.753,1.753,0,0,0,.441.044c.428,0,.616-.176.616-.594v-6.271h1.243v6.326a1.452,1.452,0,0,1-1.629,1.573A2.893,2.893,0,0,1,305.508,133.186Zm.9-9.7a.775.775,0,0,1,1.55,0,.775.775,0,0,1-1.55,0Z"
         class="cls-2" />
      <path
         id="path104"
         d="M311.888,130.985a2.8,2.8,0,0,1-2.806-2.86,2.714,2.714,0,0,1,2.685-2.849,2.645,2.645,0,0,1,2.607,2.838v.308H310.3a1.683,1.683,0,0,0,1.651,1.507,1.788,1.788,0,0,0,1.308-.517l.815.759A3.188,3.188,0,0,1,311.888,130.985Zm-1.562-3.322H313.2a1.51,1.51,0,0,0-1.442-1.376A1.48,1.48,0,0,0,310.326,127.663Z"
         class="cls-2" />
      <path
         id="path106"
         d="M319.611,129.28l.748.748a2.87,2.87,0,0,1-2.156.957,2.85,2.85,0,0,1,0-5.7,2.969,2.969,0,0,1,2.2.925l-.771.8a1.819,1.819,0,0,0-1.385-.65,1.768,1.768,0,0,0,.033,3.521A1.7,1.7,0,0,0,319.611,129.28Z"
         class="cls-2" />
      <path
         id="path108"
         d="M322.217,126.354h-1.111v-.991h1.111v-1.518l1.243-.264v1.782H325v.991h-1.54v2.794c0,.539.209.748.771.748a2.283,2.283,0,0,0,.748-.132v1.045a3.91,3.91,0,0,1-1.067.154c-1.112,0-1.695-.528-1.695-1.54Z"
         class="cls-2" />
      <path
         id="path110"
         d="M330.764,130.875h-1.2v-6.447l-1.364.594v-1.067l1.8-.781h.76Z"
         class="cls-2" />
    </g>
    <g
       id="g128">
      <path
         id="path114"
         d="M108.665,308.116a3.972,3.972,0,1,1,3.894-3.972A3.9,3.9,0,0,1,108.665,308.116Zm.01-6.766a2.8,2.8,0,0,0,0,5.577,2.8,2.8,0,0,0,0-5.577Z"
         class="cls-2" />
      <path
         id="path116"
         d="M116.738,308.05a2.048,2.048,0,0,1-1.628-.771V308h-1.221v-7.866l1.243-.209v3.3a2.146,2.146,0,0,1,1.695-.781,2.645,2.645,0,0,1,2.5,2.805A2.672,2.672,0,0,1,116.738,308.05Zm-1.606-3.95v2.3a1.69,1.69,0,0,0,1.32.605,1.765,1.765,0,0,0,0-3.521A1.618,1.618,0,0,0,115.132,304.1Z"
         class="cls-2" />
      <path
         id="path118"
         d="M119.553,310.305v-1a1.753,1.753,0,0,0,.441.044c.428,0,.616-.176.616-.594v-6.271h1.243v6.326a1.453,1.453,0,0,1-1.629,1.573A2.888,2.888,0,0,1,119.553,310.305Zm.9-9.7a.775.775,0,0,1,1.55,0,.775.775,0,0,1-1.55,0Z"
         class="cls-2" />
      <path
         id="path120"
         d="M125.934,308.105a2.8,2.8,0,0,1-2.806-2.861,2.715,2.715,0,0,1,2.685-2.849,2.645,2.645,0,0,1,2.607,2.839v.308h-4.07a1.683,1.683,0,0,0,1.65,1.507,1.791,1.791,0,0,0,1.309-.518l.815.76A3.189,3.189,0,0,1,125.934,308.105Zm-1.561-3.323h2.871a1.509,1.509,0,0,0-1.442-1.375A1.479,1.479,0,0,0,124.373,304.782Z"
         class="cls-2" />
      <path
         id="path122"
         d="M133.657,306.4l.748.748a2.87,2.87,0,0,1-2.156.957,2.85,2.85,0,0,1,0-5.7,2.972,2.972,0,0,1,2.2.924l-.771.8a1.821,1.821,0,0,0-1.386-.649,1.769,1.769,0,0,0,.034,3.521A1.7,1.7,0,0,0,133.657,306.4Z"
         class="cls-2" />
      <path
         id="path124"
         d="M136.262,303.473h-1.111v-.99h1.111v-1.518l1.243-.264v1.782h1.54v.99h-1.54v2.795c0,.539.209.748.771.748a2.261,2.261,0,0,0,.748-.133v1.046a3.91,3.91,0,0,1-1.067.154c-1.112,0-1.695-.528-1.695-1.54Z"
         class="cls-2" />
      <path
         id="path126"
         d="M144.81,308h-1.2v-6.447l-1.364.594v-1.067l1.8-.781h.76Z"
         class="cls-2" />
    </g>
    <g
       id="g144">
      <path
         id="path130"
         d="M107.411,349.675a3.972,3.972,0,1,1,3.894-3.971A3.9,3.9,0,0,1,107.411,349.675Zm.01-6.766a2.8,2.8,0,0,0,0,5.578,2.8,2.8,0,0,0,0-5.578Z" />
      <path
         id="path132"
         d="M115.484,349.61a2.051,2.051,0,0,1-1.628-.771v.715h-1.221v-7.866l1.243-.209v3.3a2.148,2.148,0,0,1,1.695-.78,2.645,2.645,0,0,1,2.5,2.8A2.673,2.673,0,0,1,115.484,349.61Zm-1.606-3.95v2.3a1.69,1.69,0,0,0,1.32.605,1.764,1.764,0,0,0,0-3.52A1.618,1.618,0,0,0,113.878,345.66Z" />
      <path
         id="path134"
         d="M118.3,351.865v-1a1.708,1.708,0,0,0,.441.044c.428,0,.616-.175.616-.593v-6.271H120.6v6.325a1.453,1.453,0,0,1-1.629,1.574A2.888,2.888,0,0,1,118.3,351.865Zm.9-9.7a.775.775,0,0,1,1.55,0,.775.775,0,0,1-1.55,0Z" />
      <path
         id="path136"
         d="M124.68,349.664a2.8,2.8,0,0,1-2.806-2.86,2.715,2.715,0,0,1,2.685-2.849,2.645,2.645,0,0,1,2.607,2.838v.308H123.1a1.683,1.683,0,0,0,1.651,1.507,1.788,1.788,0,0,0,1.308-.517l.815.759A3.188,3.188,0,0,1,124.68,349.664Zm-1.562-3.322h2.872a1.51,1.51,0,0,0-1.442-1.376A1.481,1.481,0,0,0,123.118,346.342Z" />
      <path
         id="path138"
         d="M132.4,347.959l.748.748a2.87,2.87,0,0,1-2.156.957,2.85,2.85,0,0,1,0-5.7,2.973,2.973,0,0,1,2.2.925l-.771.8a1.818,1.818,0,0,0-1.385-.649,1.768,1.768,0,0,0,.033,3.52A1.7,1.7,0,0,0,132.4,347.959Z" />
      <path
         id="path140"
         d="M135.008,345.033H133.9v-.99h1.111v-1.518l1.243-.265v1.783h1.54v.99h-1.54v2.794c0,.539.209.748.771.748a2.283,2.283,0,0,0,.748-.132v1.045a3.872,3.872,0,0,1-1.067.154c-1.112,0-1.695-.528-1.695-1.54Z" />
      <path
         id="path142"
         d="M141.147,348.685l3.157-3.3a2.062,2.062,0,0,0,.748-1.452,1.256,1.256,0,0,0-1.408-1.134,2.776,2.776,0,0,0-1.991.947l-.683-.825a3.9,3.9,0,0,1,2.707-1.167c1.507,0,2.541.858,2.541,2.1a2.94,2.94,0,0,1-1.1,2.145l-2.464,2.541,3.707-.022v1.034h-5.214Z" />
    </g>
    <g
       id="g160">
      <path
         id="path146"
         d="M107.207,391.243a3.972,3.972,0,1,1,3.9-3.971A3.9,3.9,0,0,1,107.207,391.243Zm.011-6.766a2.8,2.8,0,0,0,0,5.578,2.8,2.8,0,0,0,0-5.578Z" />
      <path
         id="path148"
         d="M115.281,391.177a2.048,2.048,0,0,1-1.628-.771v.716h-1.221v-7.866l1.243-.209v3.3a2.145,2.145,0,0,1,1.7-.78,2.645,2.645,0,0,1,2.5,2.8A2.672,2.672,0,0,1,115.281,391.177Zm-1.606-3.949v2.3a1.69,1.69,0,0,0,1.32.605,1.765,1.765,0,0,0,0-3.521A1.616,1.616,0,0,0,113.675,387.228Z" />
      <path
         id="path150"
         d="M118.1,393.433v-1a1.753,1.753,0,0,0,.441.044c.428,0,.616-.176.616-.594v-6.27H120.4v6.325a1.452,1.452,0,0,1-1.629,1.573A2.893,2.893,0,0,1,118.1,393.433Zm.9-9.7a.775.775,0,0,1,1.55,0,.775.775,0,0,1-1.55,0Z" />
      <path
         id="path152"
         d="M124.477,391.232a2.8,2.8,0,0,1-2.806-2.861,2.714,2.714,0,0,1,2.685-2.848,2.645,2.645,0,0,1,2.607,2.838v.308h-4.07a1.683,1.683,0,0,0,1.65,1.507,1.791,1.791,0,0,0,1.309-.518l.814.76A3.185,3.185,0,0,1,124.477,391.232Zm-1.562-3.323h2.872a1.511,1.511,0,0,0-1.442-1.375A1.48,1.48,0,0,0,122.915,387.909Z" />
      <path
         id="path154"
         d="M132.2,389.527l.748.748a2.87,2.87,0,0,1-2.157.957,2.85,2.85,0,0,1,0-5.7,2.972,2.972,0,0,1,2.2.924l-.771.8a1.818,1.818,0,0,0-1.386-.65,1.768,1.768,0,0,0,.034,3.521A1.7,1.7,0,0,0,132.2,389.527Z" />
      <path
         id="path156"
         d="M134.805,386.6h-1.111v-.99h1.111v-1.519l1.243-.264v1.783h1.54v.99h-1.54V389.4c0,.539.209.748.771.748a2.283,2.283,0,0,0,.748-.132v1.045a3.912,3.912,0,0,1-1.068.154c-1.111,0-1.694-.528-1.694-1.54Z" />
      <path
         id="path158"
         d="M143.6,391.232a3.866,3.866,0,0,1-2.849-1.155l.813-.759a2.525,2.525,0,0,0,2.024.858c.991,0,1.673-.518,1.673-1.276a1.216,1.216,0,0,0-1.364-1.156h-.957v-1h.857a1.116,1.116,0,0,0,1.222-1.155,1.329,1.329,0,0,0-1.463-1.221,2.386,2.386,0,0,0-1.915.913l-.813-.759A3.731,3.731,0,0,1,143.6,383.3c1.529,0,2.629.913,2.629,2.156a1.85,1.85,0,0,1-1.5,1.76,1.909,1.909,0,0,1,1.738,1.761C146.466,390.286,145.267,391.232,143.6,391.232Z" />
    </g>
    <g
       id="g176">
      <path
         id="path162"
         d="M454.522,308.116a3.972,3.972,0,1,1,3.894-3.972A3.9,3.9,0,0,1,454.522,308.116Zm.011-6.766a2.8,2.8,0,0,0,0,5.577,2.8,2.8,0,0,0,0-5.577Z" />
      <path
         id="path164"
         d="M462.6,308.05a2.051,2.051,0,0,1-1.628-.771V308h-1.22v-7.866l1.243-.209v3.3a2.144,2.144,0,0,1,1.694-.781,2.645,2.645,0,0,1,2.5,2.805A2.672,2.672,0,0,1,462.6,308.05Zm-1.605-3.95v2.3a1.688,1.688,0,0,0,1.319.605,1.765,1.765,0,0,0,0-3.521A1.616,1.616,0,0,0,460.99,304.1Z" />
      <path
         id="path166"
         d="M465.411,310.305v-1a1.74,1.74,0,0,0,.44.044c.429,0,.616-.176.616-.594v-6.271h1.243v6.326a1.452,1.452,0,0,1-1.628,1.573A2.882,2.882,0,0,1,465.411,310.305Zm.9-9.7a.776.776,0,0,1,1.551,0,.776.776,0,0,1-1.551,0Z" />
      <path
         id="path168"
         d="M471.791,308.105a2.8,2.8,0,0,1-2.805-2.861,2.714,2.714,0,0,1,2.684-2.849,2.646,2.646,0,0,1,2.608,2.839v.308h-4.071a1.684,1.684,0,0,0,1.651,1.507,1.789,1.789,0,0,0,1.308-.518l.815.76A3.188,3.188,0,0,1,471.791,308.105Zm-1.561-3.323H473.1a1.509,1.509,0,0,0-1.441-1.375A1.48,1.48,0,0,0,470.23,304.782Z" />
      <path
         id="path170"
         d="M479.514,306.4l.748.748a2.866,2.866,0,0,1-2.156.957,2.85,2.85,0,0,1,0-5.7,2.972,2.972,0,0,1,2.2.924l-.77.8a1.823,1.823,0,0,0-1.386-.649,1.769,1.769,0,0,0,.033,3.521A1.7,1.7,0,0,0,479.514,306.4Z" />
      <path
         id="path172"
         d="M482.12,303.473h-1.112v-.99h1.112v-1.518l1.243-.264v1.782h1.54v.99h-1.54v2.795c0,.539.209.748.77.748a2.261,2.261,0,0,0,.748-.133v1.046a3.91,3.91,0,0,1-1.067.154c-1.111,0-1.694-.528-1.694-1.54Z" />
      <path
         id="path174"
         d="M488.28,305.871a2.029,2.029,0,0,1,1.661-1.881,1.876,1.876,0,0,1-1.408-1.716,2.662,2.662,0,0,1,5.2,0,1.878,1.878,0,0,1-1.4,1.716A2.028,2.028,0,0,1,494,305.871c0,1.31-1.187,2.245-2.86,2.245S488.28,307.181,488.28,305.871Zm4.511-.088c0-.748-.7-1.309-1.651-1.309s-1.661.561-1.661,1.309a1.7,1.7,0,0,0,3.312,0Zm-.232-3.432a1.448,1.448,0,1,0-1.419,1.188A1.3,1.3,0,0,0,492.559,302.351Z" />
    </g>
    <g
       id="g192">
      <path
         id="path178"
         d="M454.488,349.675a3.972,3.972,0,1,1,3.894-3.971A3.9,3.9,0,0,1,454.488,349.675Zm.011-6.766a2.8,2.8,0,0,0,0,5.578,2.8,2.8,0,0,0,0-5.578Z" />
      <path
         id="path180"
         d="M462.561,349.61a2.054,2.054,0,0,1-1.628-.771v.715h-1.221v-7.866l1.244-.209v3.3a2.146,2.146,0,0,1,1.694-.78,2.645,2.645,0,0,1,2.5,2.8A2.673,2.673,0,0,1,462.561,349.61Zm-1.6-3.95v2.3a1.688,1.688,0,0,0,1.319.605,1.764,1.764,0,0,0,0-3.52A1.616,1.616,0,0,0,460.956,345.66Z" />
      <path
         id="path182"
         d="M465.376,351.865v-1a1.708,1.708,0,0,0,.441.044c.429,0,.616-.175.616-.593v-6.271h1.243v6.325a1.453,1.453,0,0,1-1.629,1.574A2.888,2.888,0,0,1,465.376,351.865Zm.9-9.7a.776.776,0,0,1,1.551,0,.776.776,0,0,1-1.551,0Z" />
      <path
         id="path184"
         d="M471.757,349.664a2.8,2.8,0,0,1-2.805-2.86,2.714,2.714,0,0,1,2.684-2.849,2.645,2.645,0,0,1,2.608,2.838v.308h-4.071a1.683,1.683,0,0,0,1.651,1.507,1.788,1.788,0,0,0,1.308-.517l.815.759A3.188,3.188,0,0,1,471.757,349.664Zm-1.561-3.322h2.871a1.51,1.51,0,0,0-1.442-1.376A1.48,1.48,0,0,0,470.2,346.342Z" />
      <path
         id="path186"
         d="M479.48,347.959l.748.748a2.87,2.87,0,0,1-2.156.957,2.85,2.85,0,0,1,0-5.7,2.973,2.973,0,0,1,2.2.925l-.771.8a1.819,1.819,0,0,0-1.385-.649,1.768,1.768,0,0,0,.033,3.52A1.7,1.7,0,0,0,479.48,347.959Z" />
      <path
         id="path188"
         d="M482.085,345.033h-1.111v-.99h1.111v-1.518l1.244-.265v1.783h1.54v.99h-1.54v2.794c0,.539.209.748.77.748a2.283,2.283,0,0,0,.748-.132v1.045a3.872,3.872,0,0,1-1.067.154c-1.112,0-1.695-.528-1.695-1.54Z" />
      <path
         id="path190"
         d="M494.054,345.5c0,2.5-1.43,4.158-3.586,4.158a3.468,3.468,0,0,1-2.047-.66l.661-.891a2.44,2.44,0,0,0,1.485.473c1.431,0,2.266-1.122,2.288-3.058a2.668,2.668,0,0,1-2.123,1.122,2.383,2.383,0,0,1-2.574-2.365,2.542,2.542,0,0,1,2.706-2.531C492.756,341.743,494.054,343.273,494.054,345.5Zm-1.254-.738c-.186-1.2-.913-1.979-1.892-1.979a1.483,1.483,0,0,0-1.574,1.462,1.452,1.452,0,0,0,1.585,1.442A2.4,2.4,0,0,0,492.8,344.757Z" />
    </g>
    <g
       id="g210">
      <path
         id="path194"
         d="M452.372,391.243a3.972,3.972,0,1,1,3.894-3.971A3.9,3.9,0,0,1,452.372,391.243Zm.01-6.766a2.8,2.8,0,0,0,0,5.578,2.8,2.8,0,0,0,0-5.578Z" />
      <path
         id="path196"
         d="M460.445,391.177a2.048,2.048,0,0,1-1.628-.771v.716H457.6v-7.866l1.243-.209v3.3a2.145,2.145,0,0,1,1.695-.78,2.645,2.645,0,0,1,2.5,2.8A2.672,2.672,0,0,1,460.445,391.177Zm-1.606-3.949v2.3a1.69,1.69,0,0,0,1.32.605,1.765,1.765,0,0,0,0-3.521A1.616,1.616,0,0,0,458.839,387.228Z" />
      <path
         id="path198"
         d="M463.26,393.433v-1a1.753,1.753,0,0,0,.441.044c.428,0,.616-.176.616-.594v-6.27h1.243v6.325a1.452,1.452,0,0,1-1.629,1.573A2.893,2.893,0,0,1,463.26,393.433Zm.9-9.7a.775.775,0,0,1,1.55,0,.775.775,0,0,1-1.55,0Z" />
      <path
         id="path200"
         d="M469.641,391.232a2.8,2.8,0,0,1-2.806-2.861,2.714,2.714,0,0,1,2.685-2.848,2.645,2.645,0,0,1,2.607,2.838v.308h-4.07a1.683,1.683,0,0,0,1.65,1.507,1.791,1.791,0,0,0,1.309-.518l.815.76A3.189,3.189,0,0,1,469.641,391.232Zm-1.561-3.323h2.871a1.51,1.51,0,0,0-1.442-1.375A1.479,1.479,0,0,0,468.08,387.909Z" />
      <path
         id="path202"
         d="M477.364,389.527l.748.748a2.87,2.87,0,0,1-2.156.957,2.85,2.85,0,0,1,0-5.7,2.972,2.972,0,0,1,2.2.924l-.771.8a1.819,1.819,0,0,0-1.386-.65,1.769,1.769,0,0,0,.034,3.521A1.7,1.7,0,0,0,477.364,389.527Z" />
      <path
         id="path204"
         d="M479.969,386.6h-1.111v-.99h1.111v-1.519l1.243-.264v1.783h1.54v.99h-1.54V389.4c0,.539.209.748.771.748a2.283,2.283,0,0,0,.748-.132v1.045a3.91,3.91,0,0,1-1.067.154c-1.112,0-1.695-.528-1.695-1.54Z" />
      <path
         id="path206"
         d="M488.517,391.122h-1.2v-6.447l-1.364.594V384.2l1.8-.781h.76Z" />
      <path
         id="path208"
         d="M489.87,387.261c0-2.344,1.275-3.961,3.146-3.961s3.146,1.617,3.146,3.961c0,2.365-1.265,3.971-3.146,3.971S489.87,389.626,489.87,387.261Zm5.093,0c0-1.772-.759-2.894-1.947-2.894s-1.948,1.133-1.948,2.894c0,1.782.76,2.9,1.948,2.9S494.963,389.054,494.963,387.261Z" />
    </g>
    <g
       id="g226">
      <path
         id="path212"
         d="M280.671,308.116a3.972,3.972,0,1,1,3.895-3.972A3.9,3.9,0,0,1,280.671,308.116Zm.011-6.766a2.8,2.8,0,0,0,0,5.577,2.8,2.8,0,0,0,0-5.577Z" />
      <path
         id="path214"
         d="M288.745,308.05a2.048,2.048,0,0,1-1.628-.771V308H285.9v-7.866l1.243-.209v3.3a2.145,2.145,0,0,1,1.694-.781,2.645,2.645,0,0,1,2.5,2.805A2.672,2.672,0,0,1,288.745,308.05Zm-1.606-3.95v2.3a1.688,1.688,0,0,0,1.319.605,1.765,1.765,0,0,0,0-3.521A1.617,1.617,0,0,0,287.139,304.1Z" />
      <path
         id="path216"
         d="M291.56,310.305v-1a1.75,1.75,0,0,0,.44.044c.429,0,.617-.176.617-.594v-6.271h1.243v6.326a1.453,1.453,0,0,1-1.629,1.573A2.888,2.888,0,0,1,291.56,310.305Zm.9-9.7a.776.776,0,0,1,1.551,0,.776.776,0,0,1-1.551,0Z" />
      <path
         id="path218"
         d="M297.941,308.105a2.8,2.8,0,0,1-2.806-2.861,2.715,2.715,0,0,1,2.685-2.849,2.645,2.645,0,0,1,2.607,2.839v.308h-4.07a1.683,1.683,0,0,0,1.65,1.507,1.791,1.791,0,0,0,1.309-.518l.814.76A3.187,3.187,0,0,1,297.941,308.105Zm-1.563-3.323h2.872a1.509,1.509,0,0,0-1.441-1.375A1.482,1.482,0,0,0,296.378,304.782Z" />
      <path
         id="path220"
         d="M305.664,306.4l.748.748a2.87,2.87,0,0,1-2.157.957,2.85,2.85,0,0,1,0-5.7,2.972,2.972,0,0,1,2.2.924l-.771.8a1.82,1.82,0,0,0-1.386-.649,1.768,1.768,0,0,0,.033,3.521A1.7,1.7,0,0,0,305.664,306.4Z" />
      <path
         id="path222"
         d="M308.269,303.473h-1.111v-.99h1.111v-1.518l1.243-.264v1.782h1.54v.99h-1.54v2.795c0,.539.209.748.771.748a2.261,2.261,0,0,0,.748-.133v1.046a3.923,3.923,0,0,1-1.068.154c-1.111,0-1.694-.528-1.694-1.54Z" />
      <path
         id="path224"
         d="M319.622,305.057h.99v1.034h-.99V308h-1.2v-1.9h-4.136v-.979l3.971-4.818h1.364Zm-1.2,0v-3.476l-2.849,3.476Z" />
    </g>
    <g
       id="g242">
      <path
         id="path228"
         d="M281,349.675A3.972,3.972,0,1,1,284.9,345.7,3.9,3.9,0,0,1,281,349.675Zm.011-6.766a2.8,2.8,0,0,0,0,5.578,2.8,2.8,0,0,0,0-5.578Z" />
      <path
         id="path230"
         d="M289.074,349.61a2.051,2.051,0,0,1-1.628-.771v.715h-1.221v-7.866l1.243-.209v3.3a2.148,2.148,0,0,1,1.695-.78,2.645,2.645,0,0,1,2.5,2.8A2.673,2.673,0,0,1,289.074,349.61Zm-1.606-3.95v2.3a1.69,1.69,0,0,0,1.32.605,1.764,1.764,0,0,0,0-3.52A1.618,1.618,0,0,0,287.468,345.66Z" />
      <path
         id="path232"
         d="M291.889,351.865v-1a1.708,1.708,0,0,0,.441.044c.428,0,.616-.175.616-.593v-6.271h1.243v6.325a1.453,1.453,0,0,1-1.629,1.574A2.888,2.888,0,0,1,291.889,351.865Zm.9-9.7a.776.776,0,0,1,1.551,0,.776.776,0,0,1-1.551,0Z" />
      <path
         id="path234"
         d="M298.27,349.664a2.8,2.8,0,0,1-2.806-2.86,2.715,2.715,0,0,1,2.685-2.849,2.645,2.645,0,0,1,2.607,2.838v.308h-4.07a1.683,1.683,0,0,0,1.65,1.507,1.79,1.79,0,0,0,1.309-.517l.814.759A3.185,3.185,0,0,1,298.27,349.664Zm-1.563-3.322h2.873a1.511,1.511,0,0,0-1.442-1.376A1.483,1.483,0,0,0,296.707,346.342Z" />
      <path
         id="path236"
         d="M305.993,347.959l.748.748a2.87,2.87,0,0,1-2.157.957,2.85,2.85,0,0,1,0-5.7,2.973,2.973,0,0,1,2.2.925l-.771.8a1.82,1.82,0,0,0-1.386-.649,1.768,1.768,0,0,0,.034,3.52A1.7,1.7,0,0,0,305.993,347.959Z" />
      <path
         id="path238"
         d="M308.6,345.033h-1.111v-.99H308.6v-1.518l1.243-.265v1.783h1.54v.99h-1.54v2.794c0,.539.209.748.771.748a2.283,2.283,0,0,0,.748-.132v1.045a3.873,3.873,0,0,1-1.068.154c-1.111,0-1.694-.528-1.694-1.54Z" />
      <path
         id="path240"
         d="M315.078,341.853h4.686v1.034H316.1l-.1,2.234a3.43,3.43,0,0,1,1.607-.385,2.325,2.325,0,0,1,2.563,2.332,2.633,2.633,0,0,1-2.916,2.607,3.883,3.883,0,0,1-2.706-1.045l.727-.825a2.861,2.861,0,0,0,2.023.825,1.484,1.484,0,1,0-.032-2.948,3.248,3.248,0,0,0-1.529.407l-.836-.253Z" />
    </g>
    <g
       id="g258">
      <path
         id="path244"
         d="M281.035,391.243a3.972,3.972,0,1,1,3.894-3.971A3.9,3.9,0,0,1,281.035,391.243Zm.01-6.766a2.8,2.8,0,0,0,0,5.578,2.8,2.8,0,0,0,0-5.578Z" />
      <path
         id="path246"
         d="M289.108,391.177a2.048,2.048,0,0,1-1.628-.771v.716h-1.221v-7.866l1.243-.209v3.3a2.145,2.145,0,0,1,1.695-.78,2.645,2.645,0,0,1,2.5,2.8A2.672,2.672,0,0,1,289.108,391.177Zm-1.606-3.949v2.3a1.69,1.69,0,0,0,1.32.605,1.765,1.765,0,0,0,0-3.521A1.616,1.616,0,0,0,287.5,387.228Z" />
      <path
         id="path248"
         d="M291.923,393.433v-1a1.753,1.753,0,0,0,.441.044c.428,0,.616-.176.616-.594v-6.27h1.243v6.325a1.452,1.452,0,0,1-1.629,1.573A2.893,2.893,0,0,1,291.923,393.433Zm.9-9.7a.775.775,0,0,1,1.55,0,.775.775,0,0,1-1.55,0Z" />
      <path
         id="path250"
         d="M298.3,391.232a2.8,2.8,0,0,1-2.8-2.861,2.713,2.713,0,0,1,2.684-2.848,2.645,2.645,0,0,1,2.608,2.838v.308H296.72a1.683,1.683,0,0,0,1.651,1.507,1.789,1.789,0,0,0,1.308-.518l.815.76A3.188,3.188,0,0,1,298.3,391.232Zm-1.562-3.323h2.872a1.51,1.51,0,0,0-1.442-1.375A1.48,1.48,0,0,0,296.742,387.909Z" />
      <path
         id="path252"
         d="M306.027,389.527l.748.748a2.87,2.87,0,0,1-2.156.957,2.85,2.85,0,0,1,0-5.7,2.972,2.972,0,0,1,2.2.924l-.771.8a1.816,1.816,0,0,0-1.385-.65,1.768,1.768,0,0,0,.033,3.521A1.7,1.7,0,0,0,306.027,389.527Z" />
      <path
         id="path254"
         d="M308.632,386.6h-1.111v-.99h1.111v-1.519l1.243-.264v1.783h1.541v.99h-1.541V389.4c0,.539.209.748.771.748a2.283,2.283,0,0,0,.748-.132v1.045a3.91,3.91,0,0,1-1.067.154c-1.112,0-1.695-.528-1.695-1.54Z" />
      <path
         id="path256"
         d="M318.973,384.488h-4.411v-1.067h5.731v.9l-3.487,6.8H315.4Z" />
    </g>
  </g>
</svg>
