<?xml version="1.0" encoding="UTF-8" standalone="no"?>
<svg
   xmlns:dc="http://purl.org/dc/elements/1.1/"
   xmlns:cc="http://creativecommons.org/ns#"
   xmlns:rdf="http://www.w3.org/1999/02/22-rdf-syntax-ns#"
   xmlns:svg="http://www.w3.org/2000/svg"
   xmlns="http://www.w3.org/2000/svg"
   xmlns:sodipodi="http://sodipodi.sourceforge.net/DTD/sodipodi-0.dtd"
   xmlns:inkscape="http://www.inkscape.org/namespaces/inkscape"
   inkscape:version="1.0 (4035a4f, 2020-05-01)"
   sodipodi:docname="ModuleA07-RADOSGW-MultiSite-Diagram.svg"
   id="svg422"
   version="1.1"
   viewBox="0 0 727.954 507.552"
   height="179.053mm"
   width="256.806mm">
  <metadata
     id="metadata426">
    <rdf:RDF>
      <cc:Work
         rdf:about="">
        <dc:format>image/svg+xml</dc:format>
        <dc:type
           rdf:resource="http://purl.org/dc/dcmitype/StillImage" />
        <dc:title></dc:title>
        <dc:subject>
          <rdf:Bag>
            <rdf:li>radosgw</rdf:li>
            <rdf:li>multisite</rdf:li>
          </rdf:Bag>
        </dc:subject>
      </cc:Work>
    </rdf:RDF>
  </metadata>
  <sodipodi:namedview
     inkscape:current-layer="svg422"
     inkscape:window-maximized="0"
     inkscape:window-y="25"
     inkscape:window-x="0"
     inkscape:cy="338.36786"
     inkscape:cx="485.30268"
     inkscape:zoom="0.51617271"
     showgrid="false"
     id="namedview424"
     inkscape:window-height="480"
     inkscape:window-width="987"
     inkscape:pageshadow="2"
     inkscape:pageopacity="0"
     guidetolerance="10"
     gridtolerance="10"
     objecttolerance="10"
     borderopacity="1"
     bordercolor="#666666"
     pagecolor="#ffffff" />
  <defs
     id="defs12">
    <style
       id="style10">
      .cls-1 {
        fill: #f0f0f0;
      }

      .cls-1, .cls-3 {
        stroke: #fff;
        stroke-width: 5px;
      }

      .cls-2 {
        fill: #151515;
      }

      .cls-3 {
        fill: #e6e6e6;
      }

      .cls-4, .cls-7, .cls-9 {
        fill: #fff;
      }

      .cls-5 {
        fill: #d9e8f7;
      }

      .cls-10, .cls-11, .cls-6 {
        fill: none;
      }

      .cls-6 {
        stroke: #151515;
        stroke-miterlimit: 10;
      }

      .cls-10, .cls-11, .cls-7, .cls-9 {
        stroke: #5b5b5b;
        stroke-linecap: round;
        stroke-linejoin: round;
      }

      .cls-8 {
        fill: #06c;
      }

      .cls-11, .cls-9 {
        stroke-width: 1.5px;
      }

      .cls-10 {
        stroke-width: 2px;
      }
    </style>
  </defs>
  <g
     data-name="Zone group N"
     id="Zone_group_N">
    <rect
       id="rect14"
       height="321.205"
       width="610.875"
       y="26.848"
       x="90.382"
       class="cls-1" />
    <g
       id="g38">
      <path
         id="path16"
         d="M104.3,45.212l4.161-5.36-4.138.036V38.161H111.1V39.5l-4.138,5.361,4.174-.035v1.726H104.3Z"
         class="cls-2" />
      <path
         id="path18"
         d="M115.132,40.272a3.2,3.2,0,1,1-3.227,3.2A3.15,3.15,0,0,1,115.132,40.272Zm1.343,3.2a1.357,1.357,0,1,0-2.675,0,1.353,1.353,0,1,0,2.675,0Z"
         class="cls-2" />
      <path
         id="path20"
         d="M119.609,40.368h1.943v1.006a2.287,2.287,0,0,1,1.955-1.1,2,2,0,0,1,2.051,2.11v4.174h-1.943v-3.61a1.031,1.031,0,0,0-1.031-1.152,1.251,1.251,0,0,0-1.032.516v4.246h-1.943Z"
         class="cls-2" />
      <path
         id="path22"
         d="M130.012,46.676a3.2,3.2,0,0,1-3.263-3.2,3.106,3.106,0,0,1,3.119-3.215,3.041,3.041,0,0,1,3.046,3.286v.42h-4.258a1.484,1.484,0,0,0,1.452,1.164,1.531,1.531,0,0,0,1.223-.516l1.283,1.067A3.6,3.6,0,0,1,130.012,46.676Zm-1.356-3.814h2.459a1.289,1.289,0,0,0-1.259-1.091A1.228,1.228,0,0,0,128.656,42.862Z"
         class="cls-2" />
      <path
         id="path24"
         d="M136.433,43.426a2.97,2.97,0,0,1,2.879-3.095,2.149,2.149,0,0,1,1.678.78v-.743H142.9V46.64c0,1.667-1.152,2.591-3.263,2.591a5.921,5.921,0,0,1-2.566-.552l.6-1.4a4.395,4.395,0,0,0,1.895.479c.924,0,1.4-.383,1.4-1.139v-.887a2.322,2.322,0,0,1-1.8.815A2.933,2.933,0,0,1,136.433,43.426Zm3.382,1.535a1.5,1.5,0,0,0,1.151-.492V42.407a1.569,1.569,0,0,0-1.151-.481,1.447,1.447,0,0,0-1.475,1.512A1.464,1.464,0,0,0,139.815,44.961Z"
         class="cls-2" />
      <path
         id="path26"
         d="M144.413,40.368h1.943v1.4c.4-1.031.947-1.524,1.679-1.524a1.327,1.327,0,0,1,.648.157v1.667a2.129,2.129,0,0,0-.912-.193,1.709,1.709,0,0,0-1.415.768v3.91h-1.943Z"
         class="cls-2" />
      <path
         id="path28"
         d="M152.667,40.272a3.2,3.2,0,1,1-3.226,3.2A3.15,3.15,0,0,1,152.667,40.272Zm1.343,3.2a1.356,1.356,0,1,0-2.674,0,1.353,1.353,0,1,0,2.674,0Z"
         class="cls-2" />
      <path
         id="path30"
         d="M159.039,43.978a1.031,1.031,0,0,0,1.032,1.151,1.251,1.251,0,0,0,1.031-.516V40.368h1.943v6.188H161.1V45.548a2.282,2.282,0,0,1-1.955,1.1,2,2,0,0,1-2.051-2.111V40.368h1.943Z"
         class="cls-2" />
      <path
         id="path32"
         d="M164.56,40.368h1.919v.863a2.285,2.285,0,0,1,1.836-.9,2.949,2.949,0,0,1,2.734,3.143,2.984,2.984,0,0,1-2.878,3.118,2.155,2.155,0,0,1-1.667-.72v3.262H164.56Zm1.944,2.075v2.062a1.59,1.59,0,0,0,1.163.492,1.53,1.53,0,0,0,0-3.058A1.5,1.5,0,0,0,166.5,42.443Z"
         class="cls-2" />
      <path
         id="path34"
         d="M174.267,41.374a1.087,1.087,0,1,1-1.079-1.138A1.12,1.12,0,0,1,174.267,41.374Zm0,4.174a1.087,1.087,0,1,1-1.079-1.138A1.12,1.12,0,0,1,174.267,45.548Z"
         class="cls-2" />
      <path
         id="path36"
         d="M180.291,38.161l3.73,5.085-.036-5.085h1.943v8.395h-1.823l-3.85-5.253.036,5.253h-1.943V38.161Z"
         class="cls-2" />
    </g>
  </g>
  <g
     data-name="Zone group 2"
     id="Zone_group_2">
    <rect
       id="rect41"
       height="321.205"
       width="610.875"
       y="58.205"
       x="58.54"
       class="cls-1" />
    <g
       id="g65">
      <path
         id="path43"
         d="M72.342,76.191l4.163-5.36-4.139.036V69.139h6.777v1.344l-4.138,5.36,4.174-.035v1.727H72.342Z"
         class="cls-2" />
      <path
         id="path45"
         d="M83.176,71.25a3.2,3.2,0,1,1-3.226,3.2A3.151,3.151,0,0,1,83.176,71.25Zm1.344,3.2a1.357,1.357,0,1,0-2.675,0,1.353,1.353,0,1,0,2.675,0Z"
         class="cls-2" />
      <path
         id="path47"
         d="M87.654,71.346H89.6v1.007a2.286,2.286,0,0,1,1.955-1.1A2,2,0,0,1,93.6,73.361v4.174H91.66V73.924a1.03,1.03,0,0,0-1.031-1.151,1.251,1.251,0,0,0-1.032.516v4.246H87.654Z"
         class="cls-2" />
      <path
         id="path49"
         d="M98.056,77.655a3.2,3.2,0,0,1-3.261-3.2,3.1,3.1,0,0,1,3.118-3.215,3.041,3.041,0,0,1,3.046,3.286v.42H96.7a1.486,1.486,0,0,0,1.452,1.164,1.532,1.532,0,0,0,1.223-.517l1.283,1.068A3.6,3.6,0,0,1,98.056,77.655ZM96.7,73.84H99.16A1.289,1.289,0,0,0,97.9,72.749,1.229,1.229,0,0,0,96.7,73.84Z"
         class="cls-2" />
      <path
         id="path51"
         d="M104.478,74.405a2.969,2.969,0,0,1,2.878-3.095,2.149,2.149,0,0,1,1.679.779v-.743h1.908v6.273c0,1.667-1.152,2.59-3.263,2.59a5.943,5.943,0,0,1-2.567-.551l.6-1.4a4.38,4.38,0,0,0,1.9.48c.924,0,1.4-.384,1.4-1.14v-.887a2.322,2.322,0,0,1-1.8.816A2.934,2.934,0,0,1,104.478,74.405Zm3.382,1.535a1.5,1.5,0,0,0,1.151-.492V73.385a1.572,1.572,0,0,0-1.151-.48,1.446,1.446,0,0,0-1.475,1.511A1.465,1.465,0,0,0,107.86,75.94Z"
         class="cls-2" />
      <path
         id="path53"
         d="M112.458,71.346H114.4v1.4c.4-1.031.947-1.523,1.679-1.523a1.329,1.329,0,0,1,.648.156v1.667a2.133,2.133,0,0,0-.912-.192,1.71,1.71,0,0,0-1.415.767v3.911h-1.943Z"
         class="cls-2" />
      <path
         id="path55"
         d="M120.712,71.25a3.2,3.2,0,1,1-3.226,3.2A3.151,3.151,0,0,1,120.712,71.25Zm1.343,3.2a1.356,1.356,0,1,0-2.674,0,1.353,1.353,0,1,0,2.674,0Z"
         class="cls-2" />
      <path
         id="path57"
         d="M127.085,74.956a1.03,1.03,0,0,0,1.031,1.152,1.25,1.25,0,0,0,1.032-.517V71.346h1.942v6.189h-1.942V76.527a2.284,2.284,0,0,1-1.955,1.1,2,2,0,0,1-2.051-2.11V71.346h1.943Z"
         class="cls-2" />
      <path
         id="path59"
         d="M132.6,71.346h1.919v.863a2.287,2.287,0,0,1,1.835-.9,2.949,2.949,0,0,1,2.735,3.143,2.985,2.985,0,0,1-2.879,3.118,2.158,2.158,0,0,1-1.667-.72v3.262H132.6Zm1.943,2.075v2.063a1.6,1.6,0,0,0,1.164.491,1.53,1.53,0,0,0,0-3.058A1.5,1.5,0,0,0,134.548,73.421Z"
         class="cls-2" />
      <path
         id="path61"
         d="M142.312,72.353a1.087,1.087,0,1,1-1.079-1.139A1.12,1.12,0,0,1,142.312,72.353Zm0,4.174a1.087,1.087,0,1,1-1.079-1.139A1.119,1.119,0,0,1,142.312,76.527Z"
         class="cls-2" />
      <path
         id="path63"
         d="M146.069,76.215l3.55-3.513a1.57,1.57,0,0,0,.564-1.117c0-.539-.528-.947-1.235-.947a2.894,2.894,0,0,0-2.123,1.031l-1.031-1.258a4.6,4.6,0,0,1,3.213-1.379c1.788,0,2.975.97,2.975,2.434a2.936,2.936,0,0,1-1.091,2.171l-2.423,2.338,3.634-.012v1.572h-6.033Z"
         class="cls-2" />
    </g>
  </g>
  <g
     data-name="Zone group 1"
     id="Zone_group_1">
    <rect
       id="rect68"
       height="321.205"
       width="610.875"
       y="89.087"
       x="28.573"
       class="cls-3" />
    <rect
       id="rect70"
       height="62.686"
       width="269.745"
       y="237.218"
       x="54.085"
       class="cls-4" />
    <rect
       id="rect72"
       height="62.686"
       width="269.745"
       y="237.218"
       x="344.19"
       class="cls-4" />
    <rect
       id="rect74"
       height="62.686"
       width="269.745"
       y="321.529"
       x="54.085"
       class="cls-4" />
    <rect
       id="rect76"
       height="62.686"
       width="269.745"
       y="321.529"
       x="344.19"
       class="cls-4" />
    <rect
       id="rect78"
       height="79.434"
       width="269.745"
       y="135.674"
       x="54.036"
       class="cls-4" />
    <rect
       id="rect80"
       height="79.434"
       width="269.745"
       y="135.674"
       x="344.19"
       class="cls-4" />
    <rect
       id="rect82"
       height="31.343"
       width="234.368"
       y="169.187"
       x="71.724"
       class="cls-5" />
    <rect
       id="rect84"
       height="31.343"
       width="234.368"
       y="169.187"
       x="361.879"
       class="cls-5" />
    <g
       id="g90">
      <line
         id="line86"
         y2="231.836"
         x2="188.933"
         y1="215.108"
         x1="188.933"
         class="cls-6" />
      <polygon
         id="polygon88"
         points="185.193 230.742 188.933 237.218 192.673 230.742 185.193 230.742"
         class="cls-2" />
    </g>
    <g
       id="g96">
      <line
         id="line92"
         y2="316.147"
         x2="188.933"
         y1="299.904"
         x1="188.933"
         class="cls-6" />
      <polygon
         id="polygon94"
         points="185.193 315.052 188.933 321.529 192.673 315.052 185.193 315.052"
         class="cls-2" />
    </g>
    <g
       id="g102">
      <line
         id="line98"
         y2="231.836"
         x2="479.038"
         y1="215.108"
         x1="479.038"
         class="cls-6" />
      <polygon
         id="polygon100"
         points="475.299 230.742 479.038 237.218 482.778 230.742 475.299 230.742"
         class="cls-2" />
    </g>
    <g
       id="g108">
      <line
         id="line104"
         y2="316.147"
         x2="479.038"
         y1="299.904"
         x1="479.038"
         class="cls-6" />
      <polygon
         id="polygon106"
         points="475.299 315.052 479.038 321.529 482.778 315.052 475.299 315.052"
         class="cls-2" />
    </g>
    <g
       id="g118">
      <path
         id="path110"
         d="M177.53,372.827a3.972,3.972,0,1,1,3.894-3.972A3.9,3.9,0,0,1,177.53,372.827Zm.011-6.765a2.8,2.8,0,1,0,2.53,2.793A2.636,2.636,0,0,0,177.541,366.062Z"
         class="cls-2" />
      <path
         id="path112"
         d="M182.963,370.6a3.852,3.852,0,0,0,2.585,1.123c1.024,0,1.728-.517,1.728-1.221,0-.627-.374-.913-1.4-1.1l-1.419-.242c-1.332-.241-1.981-.9-1.981-1.958,0-1.385,1.111-2.31,2.839-2.31a5.136,5.136,0,0,1,3.091,1l-.671.989a3.993,3.993,0,0,0-2.464-.89c-.925,0-1.53.461-1.53,1.088,0,.551.341.836,1.188.969l1.365.241c1.551.265,2.277.946,2.277,2.112,0,1.408-1.254,2.41-3.091,2.41a4.852,4.852,0,0,1-3.235-1.243Z"
         class="cls-2" />
      <path
         id="path114"
         d="M189.915,365.005h2.817a3.851,3.851,0,1,1,0,7.7h-2.817Zm1.32,1.145v5.411h1.529a2.717,2.717,0,0,0,0-5.411Z"
         class="cls-2" />
      <path
         id="path116"
         d="M198.011,371.231a3.171,3.171,0,0,0,1.771.628c.661,0,1.112-.3,1.112-.737,0-.341-.232-.528-.76-.627l-.979-.165c-1.067-.2-1.595-.693-1.595-1.519,0-1.034.847-1.7,2.134-1.7a3.868,3.868,0,0,1,2.167.66l-.583.813a3.016,3.016,0,0,0-1.661-.527c-.572,0-.946.241-.946.648,0,.353.2.507.781.606l.969.175c1.1.209,1.627.715,1.627,1.54a2.019,2.019,0,0,1-2.244,1.794,3.7,3.7,0,0,1-2.376-.748Z"
         class="cls-2" />
    </g>
    <g
       id="g136">
      <path
         id="path120"
         d="M168.172,281.87v6.04h-1.221v-7.7h1.716l2.255,4.665,2.245-4.665h1.716v7.7H173.64V281.9l-2.729,5.457Z"
         class="cls-2" />
      <path
         id="path122"
         d="M179.107,282.31a2.856,2.856,0,1,1-2.773,2.85A2.752,2.752,0,0,1,179.107,282.31Zm1.54,2.86a1.558,1.558,0,1,0-3.081,0,1.556,1.556,0,1,0,3.081,0Z"
         class="cls-2" />
      <path
         id="path124"
         d="M183.164,282.4h1.243v.9a2,2,0,0,1,1.75-.99,1.855,1.855,0,0,1,1.9,1.969v3.631h-1.243v-3.279a1.188,1.188,0,0,0-1.211-1.32,1.414,1.414,0,0,0-1.2.66v3.939h-1.243Z"
         class="cls-2" />
      <path
         id="path126"
         d="M189.412,280.517a.776.776,0,0,1,1.552,0,.776.776,0,0,1-1.552,0Zm1.4,7.393h-1.243V282.4h1.243Z"
         class="cls-2" />
      <path
         id="path128"
         d="M193.021,283.388h-1.112v-.99h1.112v-1.519l1.243-.263V282.4h1.54v.99h-1.54v2.794c0,.539.209.748.769.748a2.249,2.249,0,0,0,.748-.132v1.045a3.859,3.859,0,0,1-1.066.154c-1.111,0-1.694-.528-1.694-1.54Z"
         class="cls-2" />
      <path
         id="path130"
         d="M199.412,282.31a2.856,2.856,0,1,1-2.772,2.85A2.753,2.753,0,0,1,199.412,282.31Zm1.54,2.86a1.558,1.558,0,1,0-3.081,0,1.556,1.556,0,1,0,3.081,0Z"
         class="cls-2" />
      <path
         id="path132"
         d="M203.47,282.4h1.243v1.2a1.634,1.634,0,0,1,1.519-1.3,1.453,1.453,0,0,1,.539.11V283.5a1.778,1.778,0,0,0-.682-.131,1.513,1.513,0,0,0-1.376.913v3.631H203.47Z"
         class="cls-2" />
      <path
         id="path134"
         d="M207.881,286.435a3.184,3.184,0,0,0,1.772.628c.66,0,1.111-.3,1.111-.737,0-.341-.232-.529-.759-.627l-.979-.165c-1.068-.2-1.595-.694-1.595-1.519,0-1.034.847-1.7,2.134-1.7a3.878,3.878,0,0,1,2.167.66l-.583.814a3.013,3.013,0,0,0-1.662-.528c-.572,0-.946.241-.946.649,0,.352.2.507.781.605l.969.176c1.1.209,1.628.715,1.628,1.54a2.019,2.019,0,0,1-2.244,1.794,3.706,3.706,0,0,1-2.377-.748Z"
         class="cls-2" />
    </g>
    <g
       id="g164">
      <path
         id="path138"
         d="M153.01,187.571a3.972,3.972,0,1,1,3.9-3.971A3.9,3.9,0,0,1,153.01,187.571Zm.011-6.765a2.8,2.8,0,0,0,0,5.577,2.8,2.8,0,0,0,0-5.577Z"
         class="cls-2" />
      <path
         id="path140"
         d="M161.084,187.505a2.05,2.05,0,0,1-1.628-.77v.715h-1.221v-7.866l1.243-.209v3.3a2.143,2.143,0,0,1,1.694-.782,2.82,2.82,0,0,1-.088,5.611Zm-1.606-3.949v2.3a1.687,1.687,0,0,0,1.32.606,1.765,1.765,0,0,0,0-3.521A1.616,1.616,0,0,0,159.478,183.556Z"
         class="cls-2" />
      <path
         id="path142"
         d="M163.9,189.761v-1a1.8,1.8,0,0,0,.44.044c.429,0,.616-.177.616-.595v-6.271H166.2v6.327a1.452,1.452,0,0,1-1.628,1.573A2.888,2.888,0,0,1,163.9,189.761Zm.9-9.7a.776.776,0,0,1,1.552,0,.776.776,0,0,1-1.552,0Z"
         class="cls-2" />
      <path
         id="path144"
         d="M170.279,187.56a2.8,2.8,0,0,1-2.805-2.86,2.715,2.715,0,0,1,2.685-2.849,2.645,2.645,0,0,1,2.607,2.837V185H168.7a1.685,1.685,0,0,0,1.651,1.507,1.79,1.79,0,0,0,1.309-.517l.814.759A3.183,3.183,0,0,1,170.279,187.56Zm-1.562-3.323h2.872a1.509,1.509,0,0,0-1.441-1.375A1.481,1.481,0,0,0,168.717,184.237Z"
         class="cls-2" />
      <path
         id="path146"
         d="M177.969,185.854l.748.749a2.866,2.866,0,0,1-2.156.957,2.85,2.85,0,0,1,0-5.7,2.97,2.97,0,0,1,2.2.924l-.77.8a1.819,1.819,0,0,0-1.386-.65,1.769,1.769,0,0,0,.033,3.521A1.691,1.691,0,0,0,177.969,185.854Z"
         class="cls-2" />
      <path
         id="path148"
         d="M180.465,182.929h-1.111v-.991h1.111V180.42l1.244-.264v1.782h1.54v.991h-1.54v2.794c0,.539.209.748.77.748a2.283,2.283,0,0,0,.748-.132v1.045a3.91,3.91,0,0,1-1.067.154c-1.112,0-1.695-.528-1.695-1.54Z"
         class="cls-2" />
      <path
         id="path150"
         d="M186.559,184.688a2.66,2.66,0,0,1,2.574-2.794,2.072,2.072,0,0,1,1.618.749v-.705h1.232v5.7c0,1.419-.924,2.2-2.6,2.2a4.8,4.8,0,0,1-2.211-.528l.44-.924a3.766,3.766,0,0,0,1.717.472c.924,0,1.408-.418,1.408-1.22V186.7a2.139,2.139,0,0,1-1.683.781A2.642,2.642,0,0,1,186.559,184.688Zm2.872,1.761a1.649,1.649,0,0,0,1.309-.605v-2.311a1.71,1.71,0,0,0-1.309-.594,1.645,1.645,0,0,0-1.64,1.749A1.667,1.667,0,0,0,189.431,186.449Z"
         class="cls-2" />
      <path
         id="path152"
         d="M193.236,185.866c0-.99.8-1.617,2.1-1.617a3.392,3.392,0,0,1,1.485.341v-.606c0-.725-.418-1.1-1.265-1.1a3.825,3.825,0,0,0-1.606.428l-.44-.9a5.289,5.289,0,0,1,2.288-.56c1.431,0,2.256.725,2.256,2v3.6h-1.233v-.561a2.3,2.3,0,0,1-1.639.649A1.738,1.738,0,0,1,193.236,185.866Zm2.288.8a1.965,1.965,0,0,0,1.3-.451v-.9a2.865,2.865,0,0,0-1.276-.263c-.7,0-1.144.308-1.144.792C194.4,186.35,194.842,186.669,195.524,186.669Z"
         class="cls-2" />
      <path
         id="path154"
         d="M200.243,182.929h-1.111v-.991h1.111V180.42l1.243-.264v1.782h1.541v.991h-1.541v2.794c0,.539.209.748.77.748a2.283,2.283,0,0,0,.748-.132v1.045a3.91,3.91,0,0,1-1.067.154c-1.111,0-1.694-.528-1.694-1.54Z"
         class="cls-2" />
      <path
         id="path156"
         d="M206.667,187.56a2.8,2.8,0,0,1-2.805-2.86,2.714,2.714,0,0,1,2.685-2.849,2.645,2.645,0,0,1,2.607,2.837V185h-4.071a1.683,1.683,0,0,0,1.651,1.507,1.79,1.79,0,0,0,1.309-.517l.814.759A3.183,3.183,0,0,1,206.667,187.56Zm-1.562-3.323h2.872a1.51,1.51,0,0,0-1.442-1.375A1.48,1.48,0,0,0,205.105,184.237Z"
         class="cls-2" />
      <path
         id="path158"
         d="M211.386,187.45l-1.485-5.512h1.188l.968,3.9,1.133-3.9h1.056l1.134,3.906.957-3.906H217.5l-1.485,5.512h-1.2l-1.112-3.884L212.6,187.45Z"
         class="cls-2" />
      <path
         id="path160"
         d="M218.25,185.866c0-.99.8-1.617,2.1-1.617a3.392,3.392,0,0,1,1.485.341v-.606c0-.725-.418-1.1-1.265-1.1a3.825,3.825,0,0,0-1.606.428l-.44-.9a5.289,5.289,0,0,1,2.288-.56c1.43,0,2.256.725,2.256,2v3.6h-1.233v-.561a2.3,2.3,0,0,1-1.639.649A1.738,1.738,0,0,1,218.25,185.866Zm2.288.8a1.965,1.965,0,0,0,1.3-.451v-.9a2.865,2.865,0,0,0-1.276-.263c-.7,0-1.144.308-1.144.792C219.416,186.35,219.856,186.669,220.538,186.669Z"
         class="cls-2" />
      <path
         id="path162"
         d="M225.983,187.483l-2.08-5.545h1.387l1.4,4.093,1.54-4.093h1.353l-2.618,6.414A1.864,1.864,0,0,1,225,189.805a2.632,2.632,0,0,1-.627-.078V188.66a4.5,4.5,0,0,0,.484.044.878.878,0,0,0,.891-.638Z"
         class="cls-2" />
    </g>
    <g
       id="g190">
      <path
         id="path166"
         d="M74.794,150.339v5.27H73.055v-7.7h2.377l1.859,3.7,1.848-3.7h2.377v7.7H79.734v-5.226l-2.465,4.676Z"
         class="cls-2" />
      <path
         id="path168"
         d="M82.8,153.981c0-1.046.814-1.65,2.211-1.65a3.714,3.714,0,0,1,1.321.263v-.462c0-.55-.363-.825-1.122-.825a4.218,4.218,0,0,0-1.6.4L83,150.46a6.287,6.287,0,0,1,2.608-.616c1.573,0,2.486.781,2.486,2.134v3.631h-1.76v-.5a2.261,2.261,0,0,1-1.574.583A1.766,1.766,0,0,1,82.8,153.981Zm2.509.539a1.947,1.947,0,0,0,1.023-.286v-.727a4.259,4.259,0,0,0-.979-.121c-.583,0-.913.2-.913.562S84.759,154.52,85.31,154.52Z"
         class="cls-2" />
      <path
         id="path170"
         d="M89.754,153.837a3.669,3.669,0,0,0,1.826.573c.506,0,.814-.176.814-.462,0-.22-.165-.341-.528-.408l-1.089-.2c-1.1-.209-1.672-.769-1.672-1.65,0-1.166.891-1.859,2.376-1.859a4.564,4.564,0,0,1,2.31.649l-.814,1.134a3.213,3.213,0,0,0-1.628-.485c-.429,0-.682.143-.682.4,0,.231.143.33.583.407l1.067.2c1.122.209,1.716.782,1.705,1.64.011,1.11-1.045,1.947-2.442,1.947a4.643,4.643,0,0,1-2.608-.693Z"
         class="cls-2" />
      <path
         id="path172"
         d="M95.8,151.307H94.7v-1.375h1.1v-1.573L97.586,148v1.936H99.1v1.375H97.586v2.2c0,.506.2.683.748.683a2.419,2.419,0,0,0,.726-.121v1.441a4.965,4.965,0,0,1-1.221.176c-1.343,0-2.036-.616-2.036-1.826Z"
         class="cls-2" />
      <path
         id="path174"
         d="M102.833,155.719a2.935,2.935,0,0,1-2.993-2.937,2.848,2.848,0,0,1,2.86-2.949,2.79,2.79,0,0,1,2.8,3.014v.386H101.59a1.361,1.361,0,0,0,1.331,1.066,1.407,1.407,0,0,0,1.122-.472l1.177.979A3.308,3.308,0,0,1,102.833,155.719Zm-1.243-3.5h2.255a1.183,1.183,0,0,0-1.155-1A1.127,1.127,0,0,0,101.59,152.22Z"
         class="cls-2" />
      <path
         id="path176"
         d="M106.605,149.932h1.782v1.287c.363-.946.87-1.4,1.54-1.4a1.223,1.223,0,0,1,.595.143v1.53a1.945,1.945,0,0,0-.837-.177,1.568,1.568,0,0,0-1.3.7v3.587h-1.782Z"
         class="cls-2" />
      <path
         id="path178"
         d="M113.535,154.366l2.541-2.959-2.519.021v-1.5h4.709v1.243l-2.553,2.971,2.641-.023v1.486h-4.819Z"
         class="cls-2" />
      <path
         id="path180"
         d="M122.148,149.844a2.938,2.938,0,1,1-2.959,2.938A2.891,2.891,0,0,1,122.148,149.844Zm1.233,2.938a1.244,1.244,0,1,0-2.454,0,1.241,1.241,0,1,0,2.454,0Z"
         class="cls-2" />
      <path
         id="path182"
         d="M126.251,149.932h1.782v.924a2.1,2.1,0,0,1,1.793-1.012,1.836,1.836,0,0,1,1.882,1.937v3.828h-1.783V152.3a.945.945,0,0,0-.946-1.055,1.146,1.146,0,0,0-.946.472v3.9h-1.782Z"
         class="cls-2" />
      <path
         id="path184"
         d="M135.788,155.719a2.935,2.935,0,0,1-2.992-2.937,2.848,2.848,0,0,1,2.86-2.949,2.789,2.789,0,0,1,2.794,3.014v.386h-3.905a1.361,1.361,0,0,0,1.331,1.066,1.407,1.407,0,0,0,1.122-.472l1.177.979A3.308,3.308,0,0,1,135.788,155.719Zm-1.243-3.5H136.8a1.182,1.182,0,0,0-1.155-1A1.127,1.127,0,0,0,134.545,152.22Z"
         class="cls-2" />
      <path
         id="path186"
         d="M141.376,150.856a1,1,0,1,1-.991-1.045A1.028,1.028,0,0,1,141.376,150.856Zm0,3.829a1,1,0,1,1-.991-1.046A1.028,1.028,0,0,1,141.376,154.685Z"
         class="cls-2" />
      <path
         id="path188"
         d="M147.283,147.908h2.156l2.96,7.7h-2.047l-.637-1.837H146.9l-.649,1.837h-1.97Zm1.925,4.4-.891-2.552-.9,2.552Z"
         class="cls-2" />
    </g>
    <g
       id="g214">
      <path
         id="path192"
         d="M54.384,116.412l4.162-5.361-4.138.036V109.36h6.776V110.7l-4.137,5.36,4.173-.035v1.726H54.384Z"
         class="cls-2" />
      <path
         id="path194"
         d="M65.218,111.471a3.2,3.2,0,1,1-3.226,3.2A3.151,3.151,0,0,1,65.218,111.471Zm1.344,3.2a1.357,1.357,0,1,0-2.675,0,1.353,1.353,0,1,0,2.675,0Z"
         class="cls-2" />
      <path
         id="path196"
         d="M69.695,111.567h1.944v1.007a2.283,2.283,0,0,1,1.954-1.1,2,2,0,0,1,2.051,2.11v4.174H73.7v-3.61a1.03,1.03,0,0,0-1.031-1.151,1.251,1.251,0,0,0-1.031.515v4.246H69.695Z"
         class="cls-2" />
      <path
         id="path198"
         d="M80.1,117.875a3.2,3.2,0,0,1-3.262-3.2,3.105,3.105,0,0,1,3.118-3.215A3.043,3.043,0,0,1,83,114.745v.419H78.743a1.484,1.484,0,0,0,1.451,1.165,1.531,1.531,0,0,0,1.223-.517l1.284,1.067A3.608,3.608,0,0,1,80.1,117.875Zm-1.355-3.814H81.2a1.288,1.288,0,0,0-1.259-1.091A1.228,1.228,0,0,0,78.743,114.061Z"
         class="cls-2" />
      <path
         id="path200"
         d="M86.519,114.625a2.97,2.97,0,0,1,2.879-3.094,2.152,2.152,0,0,1,1.679.779v-.743h1.907v6.272c0,1.667-1.151,2.591-3.262,2.591a5.925,5.925,0,0,1-2.567-.552l.6-1.4a4.39,4.39,0,0,0,1.9.48c.923,0,1.4-.384,1.4-1.14v-.887a2.326,2.326,0,0,1-1.8.816A2.935,2.935,0,0,1,86.519,114.625Zm3.383,1.536a1.5,1.5,0,0,0,1.151-.493v-2.062a1.573,1.573,0,0,0-1.151-.481,1.447,1.447,0,0,0-1.476,1.512A1.465,1.465,0,0,0,89.9,116.161Z"
         class="cls-2" />
      <path
         id="path202"
         d="M94.5,111.567h1.944v1.4c.395-1.031.947-1.523,1.678-1.523a1.316,1.316,0,0,1,.648.156v1.667a2.125,2.125,0,0,0-.911-.192,1.707,1.707,0,0,0-1.415.767v3.91H94.5Z"
         class="cls-2" />
      <path
         id="path204"
         d="M102.754,111.471a3.2,3.2,0,1,1-3.227,3.2A3.151,3.151,0,0,1,102.754,111.471Zm1.343,3.2a1.357,1.357,0,1,0-2.675,0,1.353,1.353,0,1,0,2.675,0Z"
         class="cls-2" />
      <path
         id="path206"
         d="M109.126,115.177a1.031,1.031,0,0,0,1.031,1.152,1.25,1.25,0,0,0,1.032-.517v-4.245h1.943v6.188h-1.943v-1.008a2.285,2.285,0,0,1-1.955,1.1,2,2,0,0,1-2.051-2.11v-4.174h1.943Z"
         class="cls-2" />
      <path
         id="path208"
         d="M114.647,111.567h1.919v.863a2.283,2.283,0,0,1,1.835-.9,2.948,2.948,0,0,1,2.734,3.142,2.983,2.983,0,0,1-2.878,3.118,2.159,2.159,0,0,1-1.667-.719v3.261h-1.943Zm1.943,2.075v2.063a1.6,1.6,0,0,0,1.163.491,1.53,1.53,0,0,0,0-3.058A1.5,1.5,0,0,0,116.59,113.642Z"
         class="cls-2" />
      <path
         id="path210"
         d="M124.354,112.574a1.087,1.087,0,1,1-1.079-1.139A1.119,1.119,0,0,1,124.354,112.574Zm0,4.173a1.087,1.087,0,1,1-1.079-1.138A1.12,1.12,0,0,1,124.354,116.747Z"
         class="cls-2" />
      <path
         id="path212"
         d="M131.385,117.755h-1.847v-6.476l-1.655.683v-1.631l2.339-.971h1.163Z"
         class="cls-2" />
    </g>
    <g
       id="g242">
      <path
         id="path216"
         d="M442.921,187.572a3.973,3.973,0,1,1,3.895-3.972A3.9,3.9,0,0,1,442.921,187.572Zm.011-6.766a2.8,2.8,0,0,0,0,5.577,2.8,2.8,0,0,0,0-5.577Z"
         class="cls-2" />
      <path
         id="path218"
         d="M450.994,187.505a2.049,2.049,0,0,1-1.628-.769v.715h-1.221v-7.867l1.243-.209v3.3a2.148,2.148,0,0,1,1.694-.781,2.819,2.819,0,0,1-.088,5.61Zm-1.606-3.949v2.3a1.686,1.686,0,0,0,1.32.605,1.764,1.764,0,0,0,0-3.52A1.618,1.618,0,0,0,449.388,183.556Z"
         class="cls-2" />
      <path
         id="path220"
         d="M453.81,189.761v-1a1.789,1.789,0,0,0,.439.044c.43,0,.616-.177.616-.595v-6.27h1.244v6.326a1.452,1.452,0,0,1-1.628,1.573A2.882,2.882,0,0,1,453.81,189.761Zm.9-9.7a.776.776,0,0,1,1.551,0,.776.776,0,0,1-1.551,0Z"
         class="cls-2" />
      <path
         id="path222"
         d="M460.19,187.561a2.8,2.8,0,0,1-2.805-2.86,2.715,2.715,0,0,1,2.684-2.85,2.646,2.646,0,0,1,2.608,2.838V185h-4.071a1.682,1.682,0,0,0,1.65,1.507,1.792,1.792,0,0,0,1.31-.516l.813.759A3.187,3.187,0,0,1,460.19,187.561Zm-1.562-3.323H461.5a1.508,1.508,0,0,0-1.441-1.375A1.48,1.48,0,0,0,458.628,184.238Z"
         class="cls-2" />
      <path
         id="path224"
         d="M467.879,185.855l.749.749a2.867,2.867,0,0,1-2.157.957,2.85,2.85,0,0,1,0-5.7,2.974,2.974,0,0,1,2.2.924l-.77.8a1.823,1.823,0,0,0-1.386-.649,1.768,1.768,0,0,0,.032,3.52A1.693,1.693,0,0,0,467.879,185.855Z"
         class="cls-2" />
      <path
         id="path226"
         d="M470.376,182.929h-1.111v-.99h1.111V180.42l1.243-.263v1.782h1.54v.99h-1.54v2.794c0,.539.209.748.77.748a2.249,2.249,0,0,0,.748-.132v1.045a3.862,3.862,0,0,1-1.067.155c-1.111,0-1.694-.529-1.694-1.541Z"
         class="cls-2" />
      <path
         id="path228"
         d="M476.47,184.689a2.66,2.66,0,0,1,2.574-2.794,2.074,2.074,0,0,1,1.617.748v-.7h1.233v5.7c0,1.419-.925,2.2-2.6,2.2a4.787,4.787,0,0,1-2.211-.528l.44-.924a3.752,3.752,0,0,0,1.716.473c.924,0,1.409-.418,1.409-1.221V186.7a2.141,2.141,0,0,1-1.684.781A2.641,2.641,0,0,1,476.47,184.689Zm2.871,1.761a1.651,1.651,0,0,0,1.31-.606v-2.31a1.712,1.712,0,0,0-1.31-.594,1.645,1.645,0,0,0-1.64,1.749A1.667,1.667,0,0,0,479.341,186.45Z"
         class="cls-2" />
      <path
         id="path230"
         d="M483.147,185.867c0-.991.8-1.618,2.1-1.618a3.41,3.41,0,0,1,1.486.341v-.6c0-.726-.418-1.1-1.265-1.1a3.817,3.817,0,0,0-1.607.429l-.44-.9a5.3,5.3,0,0,1,2.289-.561c1.43,0,2.255.726,2.255,2v3.6h-1.232v-.562a2.3,2.3,0,0,1-1.639.65A1.738,1.738,0,0,1,483.147,185.867Zm2.288.8a1.96,1.96,0,0,0,1.3-.451v-.9a2.853,2.853,0,0,0-1.277-.264c-.7,0-1.143.309-1.143.792C484.313,186.35,484.752,186.669,485.435,186.669Z"
         class="cls-2" />
      <path
         id="path232"
         d="M490.153,182.929h-1.111v-.99h1.111V180.42l1.244-.263v1.782h1.54v.99H491.4v2.794c0,.539.209.748.769.748a2.249,2.249,0,0,0,.748-.132v1.045a3.86,3.86,0,0,1-1.066.155c-1.112,0-1.695-.529-1.695-1.541Z"
         class="cls-2" />
      <path
         id="path234"
         d="M496.577,187.561a2.8,2.8,0,0,1-2.8-2.86,2.715,2.715,0,0,1,2.684-2.85,2.646,2.646,0,0,1,2.608,2.838V185h-4.072a1.683,1.683,0,0,0,1.651,1.507,1.79,1.79,0,0,0,1.309-.516l.814.759A3.188,3.188,0,0,1,496.577,187.561Zm-1.561-3.323h2.871a1.509,1.509,0,0,0-1.442-1.375A1.479,1.479,0,0,0,495.016,184.238Z"
         class="cls-2" />
      <path
         id="path236"
         d="M501.3,187.451l-1.485-5.512H501l.968,3.894,1.134-3.894h1.055l1.134,3.905.957-3.905h1.166l-1.485,5.512h-1.2l-1.112-3.884-1.111,3.884Z"
         class="cls-2" />
      <path
         id="path238"
         d="M508.16,185.867c0-.991.8-1.618,2.1-1.618a3.406,3.406,0,0,1,1.485.341v-.6c0-.726-.418-1.1-1.264-1.1a3.817,3.817,0,0,0-1.607.429l-.44-.9a5.292,5.292,0,0,1,2.289-.561c1.429,0,2.255.726,2.255,2v3.6h-1.233v-.562a2.3,2.3,0,0,1-1.638.65A1.738,1.738,0,0,1,508.16,185.867Zm2.288.8a1.958,1.958,0,0,0,1.3-.451v-.9a2.849,2.849,0,0,0-1.276-.264c-.7,0-1.144.309-1.144.792C509.326,186.35,509.766,186.669,510.448,186.669Z"
         class="cls-2" />
      <path
         id="path240"
         d="M515.893,187.484l-2.079-5.545H515.2l1.4,4.093,1.541-4.093h1.352l-2.618,6.414a1.863,1.863,0,0,1-1.958,1.452,2.634,2.634,0,0,1-.627-.077v-1.067a4.523,4.523,0,0,0,.484.044.878.878,0,0,0,.891-.638Z"
         class="cls-2" />
    </g>
    <g
       id="g260">
      <path
         id="path244"
         d="M458.043,281.959V288h-1.221v-7.7h1.716l2.255,4.665,2.245-4.665h1.716V288h-1.243v-6.007l-2.729,5.457Z"
         class="cls-2" />
      <path
         id="path246"
         d="M468.978,282.4a2.856,2.856,0,1,1-2.773,2.85A2.752,2.752,0,0,1,468.978,282.4Zm1.54,2.861a1.558,1.558,0,1,0-3.081,0,1.556,1.556,0,1,0,3.081,0Z"
         class="cls-2" />
      <path
         id="path248"
         d="M473.035,282.487h1.243v.9a2,2,0,0,1,1.75-.991,1.855,1.855,0,0,1,1.9,1.969V288h-1.243v-3.278a1.188,1.188,0,0,0-1.211-1.321,1.418,1.418,0,0,0-1.2.66V288h-1.243Z"
         class="cls-2" />
      <path
         id="path250"
         d="M479.283,280.606a.776.776,0,0,1,1.552,0,.776.776,0,0,1-1.552,0Zm1.4,7.393h-1.243v-5.512h1.243Z"
         class="cls-2" />
      <path
         id="path252"
         d="M482.892,283.477H481.78v-.99h1.112v-1.518l1.243-.264v1.782h1.54v.99h-1.54v2.794c0,.539.209.748.769.748a2.28,2.28,0,0,0,.749-.131v1.045a3.91,3.91,0,0,1-1.067.154c-1.111,0-1.694-.528-1.694-1.54Z"
         class="cls-2" />
      <path
         id="path254"
         d="M489.283,282.4a2.856,2.856,0,1,1-2.772,2.85A2.753,2.753,0,0,1,489.283,282.4Zm1.54,2.861a1.558,1.558,0,1,0-3.081,0,1.556,1.556,0,1,0,3.081,0Z"
         class="cls-2" />
      <path
         id="path256"
         d="M493.341,282.487h1.243v1.2a1.634,1.634,0,0,1,1.519-1.3,1.452,1.452,0,0,1,.539.109v1.089a1.753,1.753,0,0,0-.682-.132,1.515,1.515,0,0,0-1.376.913V288h-1.243Z"
         class="cls-2" />
      <path
         id="path258"
         d="M497.752,286.524a3.176,3.176,0,0,0,1.772.628c.66,0,1.111-.3,1.111-.737,0-.341-.232-.528-.759-.627l-.979-.165c-1.068-.2-1.595-.693-1.595-1.519,0-1.034.847-1.7,2.134-1.7a3.871,3.871,0,0,1,2.167.661l-.583.813a3.019,3.019,0,0,0-1.661-.527c-.573,0-.947.241-.947.648,0,.353.2.507.782.606l.968.175c1.1.209,1.628.715,1.628,1.54a2.019,2.019,0,0,1-2.244,1.794,3.7,3.7,0,0,1-2.377-.748Z"
         class="cls-2" />
    </g>
    <g
       id="g270">
      <path
         id="path262"
         d="M467.693,372.827a3.972,3.972,0,1,1,3.894-3.972A3.9,3.9,0,0,1,467.693,372.827Zm.01-6.766a2.8,2.8,0,1,0,2.531,2.794A2.636,2.636,0,0,0,467.7,366.061Z"
         class="cls-2" />
      <path
         id="path264"
         d="M473.126,370.6a3.85,3.85,0,0,0,2.585,1.123c1.024,0,1.728-.517,1.728-1.221,0-.627-.374-.913-1.4-1.1l-1.419-.242c-1.331-.241-1.98-.9-1.98-1.958,0-1.386,1.111-2.311,2.839-2.311a5.138,5.138,0,0,1,3.09,1l-.67.99a4,4,0,0,0-2.464-.891c-.925,0-1.53.462-1.53,1.089,0,.551.341.836,1.188.969l1.364.241c1.552.265,2.277.946,2.277,2.112,0,1.408-1.253,2.41-3.09,2.41a4.852,4.852,0,0,1-3.235-1.243Z"
         class="cls-2" />
      <path
         id="path266"
         d="M480.078,365.005H482.9a3.851,3.851,0,1,1,0,7.7h-2.817Zm1.32,1.144v5.412h1.529a2.718,2.718,0,0,0,0-5.412Z"
         class="cls-2" />
      <path
         id="path268"
         d="M488.174,371.231a3.171,3.171,0,0,0,1.771.628c.661,0,1.112-.3,1.112-.737,0-.341-.232-.528-.76-.627l-.978-.165c-1.068-.2-1.6-.693-1.6-1.519,0-1.034.847-1.7,2.135-1.7a3.876,3.876,0,0,1,2.167.661l-.583.813a3.024,3.024,0,0,0-1.662-.527c-.572,0-.946.241-.946.648,0,.353.2.507.781.606l.968.175c1.1.209,1.628.715,1.628,1.54a2.019,2.019,0,0,1-2.244,1.794,3.7,3.7,0,0,1-2.376-.748Z"
         class="cls-2" />
    </g>
    <g
       id="g302">
      <path
         id="path272"
         d="M363.367,153.156a4.226,4.226,0,0,0,2.5,1.022c.815,0,1.31-.329,1.31-.8,0-.451-.264-.66-1.012-.8l-1.639-.286a2.043,2.043,0,0,1-1.893-2.058c0-1.5,1.144-2.432,3.059-2.432a5.229,5.229,0,0,1,3.157,1.013l-.957,1.375a3.677,3.677,0,0,0-2.3-.847c-.749,0-1.178.308-1.178.726,0,.385.254.594.869.693l1.541.264c1.441.253,2.2,1,2.2,2.179,0,1.5-1.276,2.519-3.289,2.519a5.459,5.459,0,0,1-3.334-1.167Z"
         class="cls-2" />
      <path
         id="path274"
         d="M372.828,155.719a2.935,2.935,0,0,1-2.993-2.937,2.849,2.849,0,0,1,2.86-2.949,2.79,2.79,0,0,1,2.8,3.014v.386h-3.905a1.361,1.361,0,0,0,1.331,1.066,1.407,1.407,0,0,0,1.122-.472l1.177.979A3.308,3.308,0,0,1,372.828,155.719Zm-1.243-3.5h2.255a1.182,1.182,0,0,0-1.155-1A1.127,1.127,0,0,0,371.585,152.22Z"
         class="cls-2" />
      <path
         id="path276"
         d="M380.539,153.618l1.056,1.045a2.988,2.988,0,0,1-2.311,1.056,2.938,2.938,0,0,1,0-5.875,3.074,3.074,0,0,1,2.366,1.045l-1.089,1.089a1.486,1.486,0,0,0-1.211-.616,1.418,1.418,0,0,0,.044,2.816A1.374,1.374,0,0,0,380.539,153.618Z"
         class="cls-2" />
      <path
         id="path278"
         d="M385.236,149.844a2.938,2.938,0,1,1-2.96,2.938A2.89,2.89,0,0,1,385.236,149.844Zm1.232,2.938a1.244,1.244,0,1,0-2.454,0,1.241,1.241,0,1,0,2.454,0Z"
         class="cls-2" />
      <path
         id="path280"
         d="M389.338,149.932h1.782v.924a2.1,2.1,0,0,1,1.793-1.012,1.836,1.836,0,0,1,1.882,1.937v3.828h-1.783V152.3a.945.945,0,0,0-.946-1.055,1.146,1.146,0,0,0-.946.472v3.9h-1.782Z"
         class="cls-2" />
      <path
         id="path282"
         d="M400.063,154.872a2.142,2.142,0,0,1-1.672.77,2.706,2.706,0,0,1-2.509-2.883,2.737,2.737,0,0,1,2.641-2.86,1.987,1.987,0,0,1,1.518.682v-2.838l1.782-.276v8.142h-1.76Zm-1.078-.705a1.38,1.38,0,0,0,1.056-.451V151.8a1.445,1.445,0,0,0-1.056-.44,1.4,1.4,0,0,0,0,2.805Z"
         class="cls-2" />
      <path
         id="path284"
         d="M402.945,153.981c0-1.046.814-1.65,2.211-1.65a3.713,3.713,0,0,1,1.32.263v-.462c0-.55-.363-.825-1.122-.825a4.214,4.214,0,0,0-1.595.4l-.616-1.244a6.283,6.283,0,0,1,2.607-.616c1.573,0,2.486.781,2.486,2.134v3.631h-1.76v-.5a2.261,2.261,0,0,1-1.573.583A1.766,1.766,0,0,1,402.945,153.981Zm2.508.539a1.947,1.947,0,0,0,1.023-.286v-.727a4.259,4.259,0,0,0-.979-.121c-.583,0-.913.2-.913.562S404.9,154.52,405.453,154.52Z"
         class="cls-2" />
      <path
         id="path286"
         d="M409.577,149.932h1.783v1.287c.363-.946.869-1.4,1.54-1.4a1.216,1.216,0,0,1,.594.143v1.53a1.937,1.937,0,0,0-.836-.177,1.568,1.568,0,0,0-1.3.7v3.587h-1.783Z"
         class="cls-2" />
      <path
         id="path288"
         d="M415.859,155.719l-2.091-5.787h1.969l1.134,3.663,1.3-3.663h1.925l-2.552,6.337a2.339,2.339,0,0,1-2.487,1.771,3.675,3.675,0,0,1-.736-.087v-1.5a3.762,3.762,0,0,0,.527.044.87.87,0,0,0,.925-.572Z"
         class="cls-2" />
      <path
         id="path290"
         d="M422.931,154.366l2.542-2.959-2.52.021v-1.5h4.709v1.243l-2.552,2.971,2.64-.023v1.486h-4.819Z"
         class="cls-2" />
      <path
         id="path292"
         d="M431.545,149.844a2.938,2.938,0,1,1-2.96,2.938A2.891,2.891,0,0,1,431.545,149.844Zm1.232,2.938a1.244,1.244,0,1,0-2.454,0,1.241,1.241,0,1,0,2.454,0Z"
         class="cls-2" />
      <path
         id="path294"
         d="M435.648,149.932h1.782v.924a2.1,2.1,0,0,1,1.793-1.012,1.836,1.836,0,0,1,1.882,1.937v3.828h-1.783V152.3a.945.945,0,0,0-.946-1.055,1.146,1.146,0,0,0-.946.472v3.9h-1.782Z"
         class="cls-2" />
      <path
         id="path296"
         d="M445.185,155.719a2.935,2.935,0,0,1-2.992-2.937,2.848,2.848,0,0,1,2.86-2.949,2.789,2.789,0,0,1,2.794,3.014v.386h-3.9a1.361,1.361,0,0,0,1.331,1.066,1.407,1.407,0,0,0,1.122-.472l1.177.979A3.308,3.308,0,0,1,445.185,155.719Zm-1.243-3.5H446.2a1.183,1.183,0,0,0-1.155-1A1.127,1.127,0,0,0,443.942,152.22Z"
         class="cls-2" />
      <path
         id="path298"
         d="M450.773,150.856a1,1,0,1,1-.991-1.045A1.028,1.028,0,0,1,450.773,150.856Zm0,3.829a1,1,0,1,1-.991-1.046A1.028,1.028,0,0,1,450.773,154.685Z"
         class="cls-2" />
      <path
         id="path300"
         d="M458.319,147.908c1.5,0,2.563.88,2.563,2.1a1.92,1.92,0,0,1-1.122,1.672,1.95,1.95,0,0,1,1.343,1.772c0,1.264-1.078,2.156-2.608,2.156h-3.983v-7.7Zm-1.915,1.506V151H458.1a.794.794,0,0,0,.88-.792.783.783,0,0,0-.88-.793Zm2.784,3.84a.834.834,0,0,0-.935-.846H456.4V154.1h1.849A.835.835,0,0,0,459.188,153.254Z"
         class="cls-2" />
    </g>
    <g
       id="g308">
      <path
         id="path304"
         d="M94.255,339.209v7.336c0,4.051,5.945,7.336,13.279,7.336s13.278-3.285,13.278-7.336v-7.336"
         class="cls-7" />
      <ellipse
         id="ellipse306"
         ry="7.336"
         rx="13.279"
         cy="339.209"
         cx="107.534"
         class="cls-7" />
    </g>
    <g
       id="g314">
      <path
         id="path310"
         d="M148.409,339.209v7.336c0,4.051,5.945,7.336,13.279,7.336s13.279-3.285,13.279-7.336v-7.336"
         class="cls-7" />
      <ellipse
         id="ellipse312"
         ry="7.336"
         rx="13.279"
         cy="339.209"
         cx="161.688"
         class="cls-7" />
    </g>
    <g
       id="g320">
      <path
         id="path316"
         d="M202.9,339.209v7.336c0,4.051,5.945,7.336,13.279,7.336s13.279-3.285,13.279-7.336v-7.336"
         class="cls-7" />
      <ellipse
         id="ellipse318"
         ry="7.336"
         rx="13.279"
         cy="339.209"
         cx="216.178"
         class="cls-7" />
    </g>
    <g
       id="g326">
      <path
         id="path322"
         d="M258.256,339.209v7.336c0,4.051,5.945,7.336,13.279,7.336s13.278-3.285,13.278-7.336v-7.336"
         class="cls-7" />
      <ellipse
         id="ellipse324"
         ry="7.336"
         rx="13.279"
         cy="339.209"
         cx="271.535"
         class="cls-7" />
    </g>
    <g
       id="g352">
      <g
         id="g332">
        <path
           id="path328"
           d="M392.46,339.209v7.336c0,4.051,5.945,7.336,13.278,7.336s13.279-3.285,13.279-7.336v-7.336"
           class="cls-7" />
        <ellipse
           id="ellipse330"
           ry="7.336"
           rx="13.279"
           cy="339.209"
           cx="405.738"
           class="cls-7" />
      </g>
      <g
         id="g338">
        <path
           id="path334"
           d="M440.945,339.209v7.336c0,4.051,5.945,7.336,13.278,7.336S467.5,350.6,467.5,346.545v-7.336"
           class="cls-7" />
        <ellipse
           id="ellipse336"
           ry="7.336"
           rx="13.279"
           cy="339.209"
           cx="454.223"
           class="cls-7" />
      </g>
      <g
         id="g344">
        <path
           id="path340"
           d="M489.765,339.209v7.336c0,4.051,5.945,7.336,13.279,7.336s13.279-3.285,13.279-7.336v-7.336"
           class="cls-7" />
        <ellipse
           id="ellipse342"
           ry="7.336"
           rx="13.279"
           cy="339.209"
           cx="503.044"
           class="cls-7" />
      </g>
      <g
         id="g350">
        <path
           id="path346"
           d="M539.453,339.209v7.336c0,4.051,5.945,7.336,13.279,7.336s13.278-3.285,13.278-7.336v-7.336"
           class="cls-7" />
        <ellipse
           id="ellipse348"
           ry="7.336"
           rx="13.279"
           cy="339.209"
           cx="552.732"
           class="cls-7" />
      </g>
    </g>
  </g>
  <g
     data-name="Realm A"
     id="Realm_A">
    <rect
       id="rect355"
       height="52.938"
       width="671.323"
       y="429.277"
       x="29.934"
       class="cls-8" />
    <g
       id="g371">
      <path
         id="path357"
         d="M55.111,451.092h3.421a2.346,2.346,0,0,1,2.574,2.332,2.188,2.188,0,0,1-1.518,2.112l1.617,3.257H59.742l-1.485-3.08H56.43v3.08H55.111ZM56.43,452.2v2.453h1.992a1.232,1.232,0,1,0,0-2.453Z"
         class="cls-4" />
      <path
         id="path359"
         d="M64.9,458.9a2.8,2.8,0,0,1-2.806-2.86,2.716,2.716,0,0,1,2.685-2.85,2.646,2.646,0,0,1,2.607,2.838v.309h-4.07a1.683,1.683,0,0,0,1.65,1.507,1.79,1.79,0,0,0,1.309-.517l.814.759A3.187,3.187,0,0,1,64.9,458.9Zm-1.562-3.323H66.21a1.509,1.509,0,0,0-1.441-1.375A1.48,1.48,0,0,0,63.339,455.58Z"
         class="cls-4" />
      <path
         id="path361"
         d="M68.376,457.209c0-.99.8-1.617,2.1-1.617a3.4,3.4,0,0,1,1.486.341v-.606c0-.725-.418-1.1-1.266-1.1a3.817,3.817,0,0,0-1.606.429l-.44-.9a5.292,5.292,0,0,1,2.289-.561c1.43,0,2.255.726,2.255,2v3.6H71.963v-.562a2.3,2.3,0,0,1-1.64.65A1.738,1.738,0,0,1,68.376,457.209Zm2.288.8a1.964,1.964,0,0,0,1.3-.452v-.9a2.867,2.867,0,0,0-1.277-.264c-.7,0-1.144.309-1.144.792C69.542,457.692,69.982,458.012,70.664,458.012Z"
         class="cls-4" />
      <path
         id="path363"
         d="M75.944,458.793H74.7v-7.866l1.243-.209Z"
         class="cls-4" />
      <path
         id="path365"
         d="M77.473,453.281h1.243v.88a1.88,1.88,0,0,1,1.639-.968,1.73,1.73,0,0,1,1.617,1.068,2.036,2.036,0,0,1,1.827-1.068,1.826,1.826,0,0,1,1.8,2v3.6H84.36V455.46a1.116,1.116,0,0,0-1.111-1.266,1.315,1.315,0,0,0-1.112.65,3.445,3.445,0,0,1,.022.351v3.6H80.916V455.46a1.116,1.116,0,0,0-1.111-1.266,1.279,1.279,0,0,0-1.089.627v3.972H77.473Z"
         class="cls-4" />
      <path
         id="path367"
         d="M88.451,453.963a.771.771,0,1,1-.77-.8A.788.788,0,0,1,88.451,453.963Zm0,4.126a.771.771,0,1,1-.77-.8A.787.787,0,0,1,88.451,458.089Z"
         class="cls-4" />
      <path
         id="path369"
         d="M94.6,451.092h1.53l2.981,7.7H97.692l-.781-2.156H93.742l-.792,2.156H91.575Zm1.926,4.51-1.188-3.278L94.127,455.6Z"
         class="cls-4" />
    </g>
    <g
       id="g379">
      <rect
         id="rect373"
         height="13.75"
         width="55"
         y="252.323"
         x="71.724"
         class="cls-9" />
      <line
         id="line375"
         y2="258.22"
         x2="120.845"
         y1="258.22"
         x1="120.845"
         class="cls-10" />
      <line
         id="line377"
         y2="260.18"
         x2="86.71"
         y1="260.18"
         x1="78.46"
         class="cls-11" />
    </g>
    <g
       id="g387">
      <rect
         id="rect381"
         height="13.75"
         width="55"
         y="252.323"
         x="161.627"
         class="cls-9" />
      <line
         id="line383"
         y2="258.22"
         x2="210.748"
         y1="258.22"
         x1="210.748"
         class="cls-10" />
      <line
         id="line385"
         y2="260.18"
         x2="176.613"
         y1="260.18"
         x1="168.363"
         class="cls-11" />
    </g>
    <g
       id="g395">
      <rect
         id="rect389"
         height="13.75"
         width="55"
         y="252.323"
         x="251.53"
         class="cls-9" />
      <line
         id="line391"
         y2="258.22"
         x2="300.651"
         y1="258.22"
         x1="300.651"
         class="cls-10" />
      <line
         id="line393"
         y2="260.18"
         x2="266.516"
         y1="260.18"
         x1="258.266"
         class="cls-11" />
    </g>
    <g
       id="g403">
      <rect
         id="rect397"
         height="13.75"
         width="55"
         y="252.323"
         x="361.66"
         class="cls-9" />
      <line
         id="line399"
         y2="258.22"
         x2="410.78"
         y1="258.22"
         x1="410.78"
         class="cls-10" />
      <line
         id="line401"
         y2="260.18"
         x2="376.645"
         y1="260.18"
         x1="368.395"
         class="cls-11" />
    </g>
    <g
       id="g411">
      <rect
         id="rect405"
         height="13.75"
         width="55"
         y="252.323"
         x="451.563"
         class="cls-9" />
      <line
         id="line407"
         y2="258.22"
         x2="500.683"
         y1="258.22"
         x1="500.683"
         class="cls-10" />
      <line
         id="line409"
         y2="260.18"
         x2="466.548"
         y1="260.18"
         x1="458.298"
         class="cls-11" />
    </g>
    <g
       id="g419">
      <rect
         id="rect413"
         height="13.75"
         width="55"
         y="252.323"
         x="541.466"
         class="cls-9" />
      <line
         id="line415"
         y2="258.22"
         x2="590.586"
         y1="258.22"
         x1="590.586"
         class="cls-10" />
      <line
         id="line417"
         y2="260.18"
         x2="556.451"
         y1="260.18"
         x1="548.201"
         class="cls-11" />
    </g>
  </g>
</svg>
