<?xml version="1.0" encoding="UTF-8" standalone="no"?>
<svg
   xmlns:dc="http://purl.org/dc/elements/1.1/"
   xmlns:cc="http://creativecommons.org/ns#"
   xmlns:rdf="http://www.w3.org/1999/02/22-rdf-syntax-ns#"
   xmlns:svg="http://www.w3.org/2000/svg"
   xmlns="http://www.w3.org/2000/svg"
   xmlns:sodipodi="http://sodipodi.sourceforge.net/DTD/sodipodi-0.dtd"
   xmlns:inkscape="http://www.inkscape.org/namespaces/inkscape"
   inkscape:version="1.0 (4035a4f, 2020-05-01)"
   sodipodi:docname="bluestore-ceph-osd.svg"
   version="1.1"
   viewBox="0 0 595.276 334.89"
   height="4.651in"
   width="8.268in"
   data-name="Layer 1"
   id="Layer_1">
  <metadata
     id="metadata325">
    <rdf:RDF>
      <cc:Work
         rdf:about="">
        <dc:format>image/svg+xml</dc:format>
        <dc:type
           rdf:resource="http://purl.org/dc/dcmitype/StillImage" />
        <dc:title></dc:title>
        <dc:subject>
          <rdf:Bag>
            <rdf:li>bluestore</rdf:li>
            <rdf:li>ceph</rdf:li>
            <rdf:li>rocksdb</rdf:li>
            <rdf:li>ceph performance</rdf:li>
            <rdf:li>bluefs</rdf:li>
          </rdf:Bag>
        </dc:subject>
      </cc:Work>
    </rdf:RDF>
  </metadata>
  <sodipodi:namedview
     inkscape:current-layer="Layer_1"
     inkscape:window-maximized="0"
     inkscape:window-y="25"
     inkscape:window-x="0"
     inkscape:cy="223.248"
     inkscape:cx="396.86398"
     inkscape:zoom="0.63119862"
     showgrid="false"
     id="namedview323"
     inkscape:window-height="480"
     inkscape:window-width="987"
     inkscape:pageshadow="2"
     inkscape:pageopacity="0"
     guidetolerance="10"
     gridtolerance="10"
     objecttolerance="10"
     borderopacity="1"
     bordercolor="#666666"
     pagecolor="#ffffff" />
  <defs
     id="defs12">
    <style
       id="style10">
      .cls-1 {
        fill: #06c;
      }

      .cls-2 {
        fill: #dcdcdc;
      }

      .cls-3 {
        fill: #dbe8f5;
      }

      .cls-4 {
        fill: none;
        stroke: #06c;
        stroke-miterlimit: 10;
      }

      .cls-5 {
        fill: #fff;
      }
    </style>
  </defs>
  <g
     id="g320">
    <rect
       id="rect14"
       height="34.801"
       width="549.19"
       y="17.421"
       x="23.043"
       class="cls-1" />
    <rect
       id="rect16"
       height="34.801"
       width="158.999"
       y="282.668"
       x="23.043"
       class="cls-2" />
    <rect
       id="rect18"
       height="34.801"
       width="158.999"
       y="282.668"
       x="211.034"
       class="cls-2" />
    <rect
       id="rect20"
       height="110.68"
       width="375.183"
       y="104.95"
       x="197.05"
       class="cls-3" />
    <g
       id="g26">
      <line
         id="line22"
         y2="52.223"
         x2="102.542"
         y1="277.286"
         x1="102.542"
         class="cls-4" />
      <polygon
         id="polygon24"
         points="106.281 276.192 102.542 282.668 98.802 276.192 106.281 276.192"
         class="cls-1" />
    </g>
    <g
       id="g32">
      <line
         id="line28"
         y2="200.395"
         x2="290.334"
         y1="277.286"
         x1="290.334"
         class="cls-4" />
      <polygon
         id="polygon30"
         points="294.073 276.192 290.334 282.668 286.595 276.192 294.073 276.192"
         class="cls-1" />
    </g>
    <g
       id="g42">
      <path
         id="path34"
         d="M109.826,163.858h2.189a2.95,2.95,0,0,1,3.028,3.108,3.908,3.908,0,0,1-3.868,3.888h-2.838Zm.95,1.039-1.05,4.917h1.579a2.656,2.656,0,0,0,2.519-2.778,1.948,1.948,0,0,0-1.909-2.139Z" />
      <path
         id="path36"
         d="M115.7,169.534c0-.979.769-1.609,1.969-1.609a3.231,3.231,0,0,1,1.479.35l.09-.42c.17-.769-.19-1.149-1.07-1.149a3.781,3.781,0,0,0-1.359.31l-.269-.83a5.419,5.419,0,0,1,1.9-.409c1.459,0,2.179.779,1.909,2.039l-.669,3.038h-1.1l.1-.45a2.184,2.184,0,0,1-1.369.51C116.327,170.914,115.7,170.374,115.7,169.534Zm2.008.59a1.839,1.839,0,0,0,1.11-.36l.19-.849a2.447,2.447,0,0,0-1.2-.26c-.65,0-1.07.31-1.07.779C116.736,169.874,117.086,170.124,117.705,170.124Z" />
      <path
         id="path38"
         d="M122.356,166.746h-.98l.2-.9h.97l.289-1.379,1.17-.24-.35,1.619h1.369l-.2.9h-1.36l-.539,2.509c-.12.519.059.719.629.719a2.142,2.142,0,0,0,.57-.08l-.2.94a3.669,3.669,0,0,1-.849.1c-1.04,0-1.51-.53-1.3-1.48Z" />
      <path
         id="path40"
         d="M125.017,169.534c0-.979.769-1.609,1.969-1.609a3.231,3.231,0,0,1,1.479.35l.09-.42c.17-.769-.19-1.149-1.07-1.149a3.781,3.781,0,0,0-1.359.31l-.27-.83a5.424,5.424,0,0,1,1.9-.409c1.459,0,2.179.779,1.909,2.039L129,170.854h-1.1l.1-.45a2.184,2.184,0,0,1-1.369.51C125.646,170.914,125.017,170.374,125.017,169.534Zm2.008.59a1.839,1.839,0,0,0,1.11-.36l.19-.849a2.448,2.448,0,0,0-1.2-.26c-.649,0-1.069.31-1.069.779C126.056,169.874,126.406,170.124,127.025,170.124Z" />
    </g>
    <g
       id="g72">
      <path
         id="path44"
         d="M394.345,66.86l-1.3,6.117h-.709l1.489-7h1.009l1.25,4.987,3.338-4.987H400.5l-1.489,7h-.7L399.6,66.89l-3.807,5.587Z" />
      <path
         id="path46"
         d="M403.164,73.067a2.134,2.134,0,0,1-2.219-2.249,2.666,2.666,0,0,1,2.509-2.8,1.987,1.987,0,0,1,1.959,2.148,4.844,4.844,0,0,1-.03.53h-3.738v.1a1.56,1.56,0,0,0,1.549,1.639,2.125,2.125,0,0,0,1.289-.43l.38.52A2.918,2.918,0,0,1,403.164,73.067Zm-1.449-2.889h3.018a1.391,1.391,0,0,0-1.329-1.519A1.824,1.824,0,0,0,401.715,70.178Z" />
      <path
         id="path48"
         d="M407.4,68.7h-.979l.14-.6h.969l.28-1.339.77-.17-.33,1.509h1.38l-.141.6h-1.369l-.64,2.949c-.12.559.061.779.67.779a1.825,1.825,0,0,0,.56-.1l-.14.65a2.82,2.82,0,0,1-.71.09c-.889,0-1.3-.45-1.119-1.26Z" />
      <path
         id="path50"
         d="M409.716,71.677a1.654,1.654,0,0,1,1.868-1.569,2.758,2.758,0,0,1,1.609.47l.13-.59c.2-.9-.18-1.359-1.109-1.359a3.357,3.357,0,0,0-1.4.37l-.2-.57a4.429,4.429,0,0,1,1.729-.4c1.309,0,1.959.72,1.7,1.9l-.68,3.049h-.71l.1-.46a2.241,2.241,0,0,1-1.419.53C410.365,73.047,409.716,72.507,409.716,71.677Zm1.828.82a2.064,2.064,0,0,0,1.33-.5l.21-.929a2.231,2.231,0,0,0-1.43-.42c-.729,0-1.249.4-1.249.949C410.405,72.167,410.825,72.5,411.544,72.5Z" />
      <path
         id="path52"
         d="M418.393,72.517a2,2,0,0,1-1.359.53,2.032,2.032,0,0,1-1.938-2.209,2.672,2.672,0,0,1,2.518-2.789,1.821,1.821,0,0,1,1.549.78l.62-3,.739-.15L419,72.977h-.709Zm-1.1-.1a1.823,1.823,0,0,0,1.22-.48l.519-2.518a1.544,1.544,0,0,0-1.329-.73,1.984,1.984,0,0,0-1.9,2.089A1.5,1.5,0,0,0,417.294,72.417Z" />
      <path
         id="path54"
         d="M420.586,71.677a1.654,1.654,0,0,1,1.868-1.569,2.758,2.758,0,0,1,1.609.47l.13-.59c.2-.9-.179-1.359-1.109-1.359a3.357,3.357,0,0,0-1.4.37l-.2-.57a4.429,4.429,0,0,1,1.729-.4c1.309,0,1.959.72,1.7,1.9l-.68,3.049h-.71l.1-.46a2.241,2.241,0,0,1-1.419.53C421.235,73.047,420.586,72.507,420.586,71.677Zm1.828.82a2.064,2.064,0,0,0,1.33-.5l.21-.929a2.231,2.231,0,0,0-1.43-.42c-.729,0-1.249.4-1.249.949C421.275,72.167,421.7,72.5,422.414,72.5Z" />
      <path
         id="path56"
         d="M426.994,68.7h-.979l.14-.6h.969l.28-1.339.77-.17-.33,1.509h1.38l-.141.6h-1.369l-.64,2.949c-.12.559.061.779.67.779a1.825,1.825,0,0,0,.56-.1l-.14.65a2.82,2.82,0,0,1-.71.09c-.89,0-1.3-.45-1.119-1.26Z" />
      <path
         id="path58"
         d="M429.306,71.677a1.653,1.653,0,0,1,1.868-1.569,2.758,2.758,0,0,1,1.609.47l.13-.59c.2-.9-.18-1.359-1.109-1.359a3.357,3.357,0,0,0-1.4.37l-.2-.57a4.429,4.429,0,0,1,1.729-.4c1.309,0,1.958.72,1.7,1.9l-.68,3.049h-.71l.1-.46a2.241,2.241,0,0,1-1.419.53C429.955,73.047,429.306,72.507,429.306,71.677Zm1.828.82a2.064,2.064,0,0,0,1.33-.5l.21-.929a2.231,2.231,0,0,0-1.43-.42c-.729,0-1.249.4-1.249.949C430,72.167,430.415,72.5,431.134,72.5Z" />
      <path
         id="path60"
         d="M395.983,77.871l.281.539a5.754,5.754,0,0,0-2.969,5.138,3.875,3.875,0,0,0,1.279,3.128l-.479.459a4.325,4.325,0,0,1-1.49-3.527A6.3,6.3,0,0,1,395.983,77.871Z" />
      <path
         id="path62"
         d="M398.975,80.009a2.1,2.1,0,0,1,2.108,2.279,2.7,2.7,0,0,1-2.568,2.789,2.115,2.115,0,0,1-2.1-2.279A2.684,2.684,0,0,1,398.975,80.009Zm1.388,2.279a1.463,1.463,0,0,0-1.419-1.639,2,2,0,0,0-1.819,2.139,1.471,1.471,0,0,0,1.43,1.639A1.982,1.982,0,0,0,400.363,82.288Z" />
      <path
         id="path64"
         d="M402.885,80.1h.71l-.161.75a1.91,1.91,0,0,1,1.49-.82,1.3,1.3,0,0,1,1.329.99,2.23,2.23,0,0,1,1.739-.99c.989,0,1.539.81,1.3,1.89l-.659,3.058h-.71L408.561,82c.181-.8-.2-1.369-.9-1.369a1.738,1.738,0,0,0-1.359.81,2.063,2.063,0,0,1-.05.48l-.659,3.058h-.72l.63-2.908c.189-.85-.181-1.44-.89-1.44a1.633,1.633,0,0,0-1.289.72l-.79,3.628h-.72Z" />
      <path
         id="path66"
         d="M410.176,83.677a1.653,1.653,0,0,1,1.868-1.569,2.758,2.758,0,0,1,1.609.47l.13-.59c.2-.9-.18-1.359-1.109-1.359a3.357,3.357,0,0,0-1.4.37l-.2-.57a4.429,4.429,0,0,1,1.729-.4c1.309,0,1.959.72,1.7,1.9l-.68,3.049h-.71l.1-.46a2.241,2.241,0,0,1-1.419.53C410.825,85.047,410.176,84.507,410.176,83.677ZM412,84.5a2.064,2.064,0,0,0,1.33-.5l.21-.929a2.231,2.231,0,0,0-1.43-.42c-.729,0-1.249.4-1.249.949C410.865,84.167,411.285,84.5,412,84.5Z" />
      <path
         id="path68"
         d="M416.325,80.1h.7l-.109.52a1.967,1.967,0,0,1,1.379-.56,2.035,2.035,0,0,1,1.949,2.209,2.68,2.68,0,0,1-2.529,2.789,1.767,1.767,0,0,1-1.559-.82l-.61,2.829h-.719Zm.48,1.08-.53,2.469a1.546,1.546,0,0,0,1.349.769,1.985,1.985,0,0,0,1.909-2.089,1.5,1.5,0,0,0-1.5-1.649A1.817,1.817,0,0,0,416.805,81.179Z" />
      <path
         id="path70"
         d="M420.666,87.135l-.28-.539a5.753,5.753,0,0,0,2.968-5.137,3.876,3.876,0,0,0-1.279-3.129l.48-.459a4.329,4.329,0,0,1,1.489,3.528A6.3,6.3,0,0,1,420.666,87.135Z" />
    </g>
    <g
       id="g88">
      <path
         id="path74"
         d="M299.467,241.093H302.1a1.733,1.733,0,0,1,1.938,1.769,2.2,2.2,0,0,1-1.889,2.189l.91,3.038h-.789l-.88-2.988h-2.019l-.64,2.988h-.75Zm.609.68-.579,2.688h2.108a1.555,1.555,0,0,0,1.68-1.549c0-.7-.5-1.139-1.3-1.139Z" />
      <path
         id="path76"
         d="M306.926,243.122a2.1,2.1,0,0,1,2.109,2.279,2.7,2.7,0,0,1-2.569,2.788,2.116,2.116,0,0,1-2.1-2.279A2.684,2.684,0,0,1,306.926,243.122Zm1.389,2.279a1.464,1.464,0,0,0-1.42-1.64,2,2,0,0,0-1.818,2.139,1.47,1.47,0,0,0,1.429,1.639A1.982,1.982,0,0,0,308.315,245.4Z" />
      <path
         id="path78"
         d="M313.6,247.06l.339.469a2.742,2.742,0,0,1-1.769.65,2.079,2.079,0,0,1-2.1-2.189,2.776,2.776,0,0,1,2.649-2.838,2.23,2.23,0,0,1,1.829.929l-.539.45a1.53,1.53,0,0,0-1.32-.72,2.065,2.065,0,0,0-1.909,2.139,1.524,1.524,0,0,0,1.5,1.589A2.138,2.138,0,0,0,313.6,247.06Z" />
      <path
         id="path80"
         d="M316.236,240.943l.74-.15-.95,4.568,2.709-2.149h.959l-3.038,2.378,2.02,2.5h-.85l-1.879-2.359-.49,2.359h-.72Z" />
      <path
         id="path82"
         d="M319.777,246.87a2.082,2.082,0,0,0,1.579.729,1.046,1.046,0,0,0,1.16-.9c0-.34-.2-.53-.74-.69l-.769-.2c-.77-.22-1.129-.619-1.129-1.249a1.522,1.522,0,0,1,1.719-1.439,2.891,2.891,0,0,1,1.909.739l-.441.49a2.47,2.47,0,0,0-1.508-.63c-.621,0-1.03.31-1.03.77,0,.36.19.56.7.7l.781.219c.839.241,1.188.59,1.188,1.2a1.689,1.689,0,0,1-1.848,1.579,2.679,2.679,0,0,1-2.009-.86Z" />
      <path
         id="path84"
         d="M325.566,241.093h1.99a2.875,2.875,0,0,1,2.988,3.088,3.912,3.912,0,0,1-3.9,3.908h-2.568Zm.6.689-1.19,5.618h1.78a3.1,3.1,0,0,0,3.009-3.2,2.209,2.209,0,0,0-2.24-2.419Z" />
      <path
         id="path86"
         d="M335.325,241.093c1.14,0,1.849.59,1.849,1.549a1.914,1.914,0,0,1-1.53,1.859,1.443,1.443,0,0,1,1.15,1.419,2.27,2.27,0,0,1-2.479,2.169h-3.068l1.489-7Zm.709,4.817c0-.7-.509-1.129-1.358-1.129H332.7l-.559,2.648h2.169A1.558,1.558,0,0,0,336.034,245.91Zm-2.688-4.157-.51,2.4h2.019a1.4,1.4,0,0,0,1.549-1.379c0-.63-.449-1.019-1.209-1.019Z" />
    </g>
    <g
       id="g122">
      <path
         id="path90"
         d="M242.87,31.048c1.319,0,2.209.74,2.209,1.839a1.677,1.677,0,0,1-1.12,1.549,1.751,1.751,0,0,1,1.36,1.659,2.04,2.04,0,0,1-2.309,1.949h-3.248v-7Zm-1.909.979v1.959h1.789c.69,0,1.129-.379,1.129-.979s-.439-.98-1.129-.98Zm3.148,3.958a1.091,1.091,0,0,0-1.239-1.069h-1.909v2.149h1.909A1.1,1.1,0,0,0,244.109,35.985Z"
         class="cls-5" />
      <path
         id="path92"
         d="M247.711,38.044h-1.129V30.9l1.129-.19Z"
         class="cls-5" />
      <path
         id="path94"
         d="M250.2,36.015a1.079,1.079,0,0,0,1.1,1.2,1.263,1.263,0,0,0,1.1-.62V33.037h1.129v5.007H252.4v-.829a1.833,1.833,0,0,1-1.6.909,1.679,1.679,0,0,1-1.729-1.789v-3.3H250.2Z"
         class="cls-5" />
      <path
         id="path96"
         d="M257.241,38.144a2.545,2.545,0,0,1-2.549-2.6,2.466,2.466,0,0,1,2.438-2.589,2.4,2.4,0,0,1,2.369,2.578v.28h-3.7a1.53,1.53,0,0,0,1.5,1.37,1.628,1.628,0,0,0,1.19-.47l.739.689A2.892,2.892,0,0,1,257.241,38.144Zm-1.42-3.018h2.609a1.37,1.37,0,0,0-1.309-1.249A1.345,1.345,0,0,0,255.821,35.126Z"
         class="cls-5" />
      <path
         id="path98"
         d="M260.842,36.135a3.5,3.5,0,0,0,2.348,1.019c.93,0,1.569-.469,1.569-1.109,0-.569-.339-.83-1.269-1l-1.289-.22c-1.209-.22-1.8-.82-1.8-1.779,0-1.259,1.009-2.1,2.578-2.1a4.672,4.672,0,0,1,2.809.91l-.61.9a3.629,3.629,0,0,0-2.239-.81c-.839,0-1.389.42-1.389.99,0,.5.31.759,1.08.88l1.239.219c1.409.24,2.069.86,2.069,1.919,0,1.28-1.14,2.189-2.809,2.189a4.408,4.408,0,0,1-2.938-1.129Z"
         class="cls-5" />
      <path
         id="path100"
         d="M267.492,33.936h-1.01v-.9h1.01v-1.38l1.129-.239v1.619h1.4v.9h-1.4v2.539c0,.49.19.679.7.679a2.07,2.07,0,0,0,.679-.119v.949a3.553,3.553,0,0,1-.969.14c-1.01,0-1.539-.48-1.539-1.4Z"
         class="cls-5" />
      <path
         id="path102"
         d="M273.23,32.957a2.595,2.595,0,1,1-2.518,2.589A2.5,2.5,0,0,1,273.23,32.957Zm1.4,2.6a1.416,1.416,0,1,0-2.8,0,1.413,1.413,0,1,0,2.8,0Z"
         class="cls-5" />
      <path
         id="path104"
         d="M276.922,33.037h1.129v1.089a1.486,1.486,0,0,1,1.379-1.179,1.339,1.339,0,0,1,.49.1v.989a1.593,1.593,0,0,0-.62-.12,1.375,1.375,0,0,0-1.249.83v3.3h-1.129Z"
         class="cls-5" />
      <path
         id="path106"
         d="M282.931,38.144a2.545,2.545,0,0,1-2.549-2.6,2.466,2.466,0,0,1,2.438-2.589,2.4,2.4,0,0,1,2.369,2.578v.28h-3.7a1.53,1.53,0,0,0,1.5,1.37,1.628,1.628,0,0,0,1.19-.47l.739.689A2.894,2.894,0,0,1,282.931,38.144Zm-1.42-3.018h2.609a1.37,1.37,0,0,0-1.31-1.249A1.345,1.345,0,0,0,281.511,35.126Z"
         class="cls-5" />
      <path
         id="path108"
         d="M293.929,36.155l.789.76a3.591,3.591,0,1,1,.03-4.738l-.809.8a2.461,2.461,0,1,0-1.88,4.088A2.373,2.373,0,0,0,293.929,36.155Z"
         class="cls-5" />
      <path
         id="path110"
         d="M297.99,38.144a2.545,2.545,0,0,1-2.549-2.6,2.466,2.466,0,0,1,2.439-2.589,2.4,2.4,0,0,1,2.369,2.578v.28h-3.7a1.529,1.529,0,0,0,1.5,1.37,1.625,1.625,0,0,0,1.189-.47l.74.689A2.9,2.9,0,0,1,297.99,38.144Zm-1.419-3.018h2.609a1.37,1.37,0,0,0-1.31-1.249A1.345,1.345,0,0,0,296.571,35.126Z"
         class="cls-5" />
      <path
         id="path112"
         d="M301.4,33.037h1.11v.719A1.888,1.888,0,0,1,304.07,33a2.4,2.4,0,0,1,2.269,2.549,2.427,2.427,0,0,1-2.349,2.548,1.871,1.871,0,0,1-1.459-.65v2.719H301.4Zm1.13,1.469V36.6a1.537,1.537,0,0,0,1.2.55,1.6,1.6,0,0,0,0-3.2A1.469,1.469,0,0,0,302.531,34.506Z"
         class="cls-5" />
      <path
         id="path114"
         d="M307.512,30.9l1.13-.19v3.149a1.814,1.814,0,0,1,1.588-.9,1.684,1.684,0,0,1,1.729,1.789v3.3H310.83V35.066a1.079,1.079,0,0,0-1.1-1.2,1.281,1.281,0,0,0-1.088.6v3.578h-1.13Z"
         class="cls-5" />
      <path
         id="path116"
         d="M318.939,38.154a3.609,3.609,0,1,1,3.538-3.608A3.542,3.542,0,0,1,318.939,38.154Zm.01-6.147a2.544,2.544,0,0,0,0,5.068,2.546,2.546,0,0,0,0-5.068Z"
         class="cls-5" />
      <path
         id="path118"
         d="M323.882,36.135a3.5,3.5,0,0,0,2.348,1.019c.93,0,1.57-.469,1.57-1.109,0-.569-.34-.83-1.27-1l-1.289-.22c-1.21-.22-1.8-.82-1.8-1.779,0-1.259,1.009-2.1,2.578-2.1a4.672,4.672,0,0,1,2.809.91l-.609.9a3.633,3.633,0,0,0-2.24-.81c-.839,0-1.389.42-1.389.99,0,.5.31.759,1.08.88l1.239.219c1.409.24,2.068.86,2.068,1.919,0,1.28-1.138,2.189-2.807,2.189a4.408,4.408,0,0,1-2.939-1.129Z"
         class="cls-5" />
      <path
         id="path120"
         d="M330.2,31.048h2.559a3.5,3.5,0,1,1,0,7H330.2Zm1.2,1.04v4.917h1.389a2.469,2.469,0,0,0,0-4.917Z"
         class="cls-5" />
    </g>
    <g
       id="g156">
      <path
         id="path124"
         d="M54.157,296.294h1.2v2.948h3.478v-2.948h1.2v7h-1.2v-3H55.356v3h-1.2Z" />
      <path
         id="path126"
         d="M61.667,296.294h2.559a3.5,3.5,0,1,1,0,7H61.667Zm1.2,1.04v4.917h1.389a2.469,2.469,0,0,0,0-4.917Z" />
      <path
         id="path128"
         d="M69.087,296.294h2.558a3.5,3.5,0,1,1,0,7H69.087Zm1.2,1.04v4.917h1.389a2.469,2.469,0,0,0,0-4.917Z" />
      <path
         id="path130"
         d="M77.256,302.311l-.979,2.638h-.83l.67-2.638Z" />
      <path
         id="path132"
         d="M80.887,301.381a3.5,3.5,0,0,0,2.348,1.02c.929,0,1.569-.47,1.569-1.11,0-.569-.339-.829-1.269-1l-1.289-.22c-1.209-.22-1.8-.819-1.8-1.779,0-1.259,1.009-2.1,2.578-2.1a4.672,4.672,0,0,1,2.809.91l-.61.9a3.633,3.633,0,0,0-2.239-.809c-.839,0-1.389.419-1.389.989,0,.5.31.76,1.08.88l1.239.219c1.409.24,2.069.86,2.069,1.919,0,1.28-1.14,2.189-2.809,2.189a4.408,4.408,0,0,1-2.938-1.129Z" />
      <path
         id="path134"
         d="M87.357,301.381a3.5,3.5,0,0,0,2.348,1.02c.93,0,1.569-.47,1.569-1.11,0-.569-.339-.829-1.269-1l-1.289-.22c-1.209-.22-1.8-.819-1.8-1.779,0-1.259,1.009-2.1,2.579-2.1a4.671,4.671,0,0,1,2.808.91l-.61.9a3.631,3.631,0,0,0-2.239-.809c-.839,0-1.389.419-1.389.989,0,.5.31.76,1.08.88l1.239.219c1.409.24,2.069.86,2.069,1.919,0,1.28-1.14,2.189-2.809,2.189a4.41,4.41,0,0,1-2.938-1.129Z" />
      <path
         id="path136"
         d="M93.676,296.294h2.559a3.5,3.5,0,1,1,0,7H93.676Zm1.2,1.04v4.917h1.389a2.469,2.469,0,0,0,0-4.917Z" />
      <path
         id="path138"
         d="M103.206,298.283h1.13v1.089a1.484,1.484,0,0,1,1.379-1.179,1.339,1.339,0,0,1,.49.1v.989a1.593,1.593,0,0,0-.62-.12,1.374,1.374,0,0,0-1.249.83v3.3h-1.13Z" />
      <path
         id="path140"
         d="M106.716,301.851c0-.9.73-1.469,1.909-1.469a3.1,3.1,0,0,1,1.35.31v-.55c0-.66-.38-1-1.15-1a3.462,3.462,0,0,0-1.459.39l-.4-.819a4.806,4.806,0,0,1,2.079-.51c1.3,0,2.049.659,2.049,1.819v3.268h-1.119v-.51a2.092,2.092,0,0,1-1.49.59A1.579,1.579,0,0,1,106.716,301.851Zm2.079.73a1.787,1.787,0,0,0,1.18-.41v-.82a2.593,2.593,0,0,0-1.16-.24c-.639,0-1.039.28-1.039.72C107.776,302.291,108.176,302.581,108.8,302.581Z" />
      <path
         id="path142"
         d="M113.246,303.29l-1.349-5.007h1.079l.88,3.538,1.029-3.538h.96l1.029,3.548.87-3.548H118.8l-1.349,5.007h-1.09l-1.009-3.528-1.009,3.528Z" />
      <path
         id="path144"
         d="M125.564,302.621a1.928,1.928,0,0,1-1.539.719,2.562,2.562,0,0,1,.07-5.1,1.912,1.912,0,0,1,1.459.659v-2.758l1.13-.19v7.336h-1.12Zm-1.2-.23a1.5,1.5,0,0,0,1.189-.55v-2.109a1.551,1.551,0,0,0-1.189-.539,1.6,1.6,0,0,0,0,3.2Z" />
      <path
         id="path146"
         d="M130.405,303.39a2.545,2.545,0,0,1-2.549-2.6,2.466,2.466,0,0,1,2.439-2.589,2.4,2.4,0,0,1,2.369,2.578v.28h-3.7a1.529,1.529,0,0,0,1.5,1.37,1.627,1.627,0,0,0,1.189-.47l.74.69A2.9,2.9,0,0,1,130.405,303.39Zm-1.419-3.018h2.608a1.37,1.37,0,0,0-1.309-1.249A1.345,1.345,0,0,0,128.986,300.372Z" />
      <path
         id="path148"
         d="M133.076,298.283h1.23l1.389,3.658,1.389-3.658h1.189l-2.059,5.007h-1.089Z" />
      <path
         id="path150"
         d="M138.946,296.574a.7.7,0,0,1,1.409,0,.7.7,0,0,1-1.409,0Zm1.269,6.716h-1.129v-5.007h1.129Z" />
      <path
         id="path152"
         d="M145.184,301.841l.679.68a2.606,2.606,0,0,1-1.958.869,2.589,2.589,0,0,1,0-5.177,2.7,2.7,0,0,1,2,.839l-.7.73a1.655,1.655,0,0,0-1.26-.589,1.606,1.606,0,0,0,.031,3.2A1.539,1.539,0,0,0,145.184,301.841Z" />
      <path
         id="path154"
         d="M149.005,303.39a2.545,2.545,0,0,1-2.549-2.6,2.466,2.466,0,0,1,2.438-2.589,2.4,2.4,0,0,1,2.37,2.578v.28h-3.7a1.53,1.53,0,0,0,1.5,1.37,1.628,1.628,0,0,0,1.19-.47l.74.69A2.9,2.9,0,0,1,149.005,303.39Zm-1.42-3.018h2.609a1.37,1.37,0,0,0-1.309-1.249A1.345,1.345,0,0,0,147.585,300.372Z" />
    </g>
    <g
       id="g188">
      <path
         id="path158"
         d="M243.144,301.381a3.5,3.5,0,0,0,2.349,1.02c.929,0,1.569-.47,1.569-1.11,0-.569-.339-.829-1.269-1l-1.29-.22c-1.209-.22-1.8-.819-1.8-1.779,0-1.259,1.009-2.1,2.578-2.1a4.674,4.674,0,0,1,2.809.91l-.61.9a3.633,3.633,0,0,0-2.239-.809c-.839,0-1.389.419-1.389.989,0,.5.31.76,1.08.88l1.239.219c1.409.24,2.069.86,2.069,1.919,0,1.28-1.14,2.189-2.809,2.189a4.408,4.408,0,0,1-2.938-1.129Z" />
      <path
         id="path160"
         d="M249.614,301.381a3.5,3.5,0,0,0,2.349,1.02c.929,0,1.569-.47,1.569-1.11,0-.569-.34-.829-1.269-1l-1.29-.22c-1.209-.22-1.8-.819-1.8-1.779,0-1.259,1.01-2.1,2.579-2.1a4.669,4.669,0,0,1,2.808.91l-.609.9a3.633,3.633,0,0,0-2.239-.809c-.84,0-1.389.419-1.389.989,0,.5.31.76,1.079.88l1.239.219c1.41.24,2.069.86,2.069,1.919,0,1.28-1.139,2.189-2.808,2.189a4.412,4.412,0,0,1-2.939-1.129Z" />
      <path
         id="path162"
         d="M255.934,296.294h2.559a3.5,3.5,0,1,1,0,7h-2.559Zm1.2,1.04v4.917h1.389a2.469,2.469,0,0,0,0-4.917Z" />
      <path
         id="path164"
         d="M267.753,298.2a2.595,2.595,0,1,1-2.519,2.589A2.5,2.5,0,0,1,267.753,298.2Zm1.4,2.6a1.415,1.415,0,1,0-2.8,0,1.413,1.413,0,1,0,2.8,0Z" />
      <path
         id="path166"
         d="M271.444,298.283h1.13v1.089a1.484,1.484,0,0,1,1.379-1.179,1.338,1.338,0,0,1,.489.1v.989a1.585,1.585,0,0,0-.619-.12,1.373,1.373,0,0,0-1.249.83v3.3h-1.13Z" />
      <path
         id="path168"
         d="M278.933,296.294l3.648,5.077-.02-5.077h1.129v7h-1.069l-3.748-5.217.02,5.217h-1.129v-7Z" />
      <path
         id="path170"
         d="M284.594,296.294h1.289l2.149,5.787,2.169-5.787h1.239l-2.738,7h-1.39Z" />
      <path
         id="path172"
         d="M293.453,297.8v5.487h-1.11v-7H293.9l2.05,4.238,2.038-4.238h1.559v7H298.42v-5.457l-2.479,4.958Z" />
      <path
         id="path174"
         d="M303.422,303.39a2.545,2.545,0,0,1-2.549-2.6,2.466,2.466,0,0,1,2.438-2.589,2.4,2.4,0,0,1,2.37,2.578v.28h-3.7a1.531,1.531,0,0,0,1.5,1.37,1.626,1.626,0,0,0,1.19-.47l.74.69A2.9,2.9,0,0,1,303.422,303.39ZM302,300.372h2.608a1.37,1.37,0,0,0-1.309-1.249A1.345,1.345,0,0,0,302,300.372Z" />
      <path
         id="path176"
         d="M312.661,302.621a1.928,1.928,0,0,1-1.539.719,2.562,2.562,0,0,1,.07-5.1,1.914,1.914,0,0,1,1.459.659v-2.758l1.129-.19v7.336h-1.119Zm-1.2-.23a1.5,1.5,0,0,0,1.189-.55v-2.109a1.551,1.551,0,0,0-1.189-.539,1.6,1.6,0,0,0,0,3.2Z" />
      <path
         id="path178"
         d="M317.5,303.39a2.545,2.545,0,0,1-2.549-2.6,2.466,2.466,0,0,1,2.439-2.589,2.4,2.4,0,0,1,2.369,2.578v.28h-3.7a1.531,1.531,0,0,0,1.5,1.37,1.626,1.626,0,0,0,1.19-.47l.74.69A2.9,2.9,0,0,1,317.5,303.39Zm-1.419-3.018h2.608a1.37,1.37,0,0,0-1.309-1.249A1.345,1.345,0,0,0,316.083,300.372Z" />
      <path
         id="path180"
         d="M320.173,298.283H321.4l1.39,3.658,1.389-3.658h1.189l-2.059,5.007h-1.089Z" />
      <path
         id="path182"
         d="M326.043,296.574a.7.7,0,0,1,1.409,0,.7.7,0,0,1-1.409,0Zm1.269,6.716h-1.129v-5.007h1.129Z" />
      <path
         id="path184"
         d="M332.281,301.841l.68.68a2.61,2.61,0,0,1-1.959.869,2.589,2.589,0,0,1,0-5.177,2.7,2.7,0,0,1,2,.839l-.7.73a1.654,1.654,0,0,0-1.259-.589,1.606,1.606,0,0,0,.029,3.2A1.539,1.539,0,0,0,332.281,301.841Z" />
      <path
         id="path186"
         d="M336.1,303.39a2.545,2.545,0,0,1-2.548-2.6,2.466,2.466,0,0,1,2.438-2.589,2.4,2.4,0,0,1,2.369,2.578v.28h-3.7a1.53,1.53,0,0,0,1.5,1.37,1.628,1.628,0,0,0,1.19-.47l.74.69A2.9,2.9,0,0,1,336.1,303.39Zm-1.418-3.018h2.608a1.37,1.37,0,0,0-1.31-1.249A1.343,1.343,0,0,0,334.683,300.372Z" />
    </g>
    <rect
       id="rect190"
       height="34.801"
       width="158.999"
       y="282.668"
       x="400.049"
       class="cls-2" />
    <g
       id="g196">
      <line
         id="line192"
         y2="52.223"
         x2="384.641"
         y1="99.568"
         x1="384.641"
         class="cls-4" />
      <polygon
         id="polygon194"
         points="388.381 98.474 384.642 104.95 380.902 98.474 388.381 98.474"
         class="cls-1" />
    </g>
    <g
       id="g204">
      <line
         id="line198"
         y2="134.494"
         x2="375.416"
         y1="134.494"
         x1="393.865"
         class="cls-4" />
      <polygon
         id="polygon200"
         points="392.771 130.755 399.247 134.494 392.771 138.234 392.771 130.755"
         class="cls-1" />
      <polygon
         id="polygon202"
         points="376.51 130.755 370.034 134.494 376.51 138.234 376.51 130.755"
         class="cls-1" />
    </g>
    <g
       id="g210">
      <line
         id="line206"
         y2="200.395"
         x2="478.947"
         y1="277.286"
         x1="478.947"
         class="cls-4" />
      <polygon
         id="polygon208"
         points="482.686 276.192 478.947 282.668 475.207 276.192 482.686 276.192"
         class="cls-1" />
    </g>
    <g
       id="g232">
      <path
         id="path212"
         d="M490.084,234.535h2.629a1.734,1.734,0,0,1,1.938,1.769,2.2,2.2,0,0,1-1.888,2.189l.909,3.038h-.789l-.88-2.988h-2.019l-.639,2.988h-.75Zm.609.68-.579,2.688h2.109a1.554,1.554,0,0,0,1.679-1.549c0-.7-.5-1.139-1.3-1.139Z" />
      <path
         id="path214"
         d="M497.543,236.564a2.1,2.1,0,0,1,2.109,2.279,2.7,2.7,0,0,1-2.569,2.788,2.115,2.115,0,0,1-2.1-2.278A2.685,2.685,0,0,1,497.543,236.564Zm1.39,2.279a1.464,1.464,0,0,0-1.42-1.639,2,2,0,0,0-1.819,2.138,1.471,1.471,0,0,0,1.429,1.64A1.983,1.983,0,0,0,498.933,238.843Z" />
      <path
         id="path216"
         d="M504.213,240.5l.34.47a2.745,2.745,0,0,1-1.77.649,2.078,2.078,0,0,1-2.1-2.188,2.776,2.776,0,0,1,2.649-2.839,2.231,2.231,0,0,1,1.829.93l-.539.449a1.531,1.531,0,0,0-1.319-.719,2.064,2.064,0,0,0-1.91,2.139,1.526,1.526,0,0,0,1.5,1.589A2.14,2.14,0,0,0,504.213,240.5Z" />
      <path
         id="path218"
         d="M506.853,234.385l.741-.149-.951,4.567,2.709-2.149h.959l-3.038,2.379,2.02,2.5h-.85l-1.879-2.358-.49,2.358h-.72Z" />
      <path
         id="path220"
         d="M510.394,240.312a2.085,2.085,0,0,0,1.58.73,1.046,1.046,0,0,0,1.159-.9c0-.34-.2-.53-.74-.69l-.769-.2c-.77-.22-1.129-.62-1.129-1.249a1.522,1.522,0,0,1,1.719-1.44,2.887,2.887,0,0,1,1.909.74l-.44.49a2.475,2.475,0,0,0-1.509-.63c-.62,0-1.03.31-1.03.769,0,.36.19.56.7.7l.78.22c.839.24,1.188.59,1.188,1.2a1.688,1.688,0,0,1-1.848,1.579,2.68,2.68,0,0,1-2.009-.859Z" />
      <path
         id="path222"
         d="M516.184,234.535h1.989a2.876,2.876,0,0,1,2.988,3.089,3.911,3.911,0,0,1-3.9,3.907h-2.569Zm.6.69-1.189,5.617h1.779a3.1,3.1,0,0,0,3.009-3.2,2.209,2.209,0,0,0-2.24-2.419Z" />
      <path
         id="path224"
         d="M525.942,234.535c1.14,0,1.849.59,1.849,1.55a1.914,1.914,0,0,1-1.529,1.859,1.442,1.442,0,0,1,1.149,1.418,2.27,2.27,0,0,1-2.478,2.169h-3.069l1.489-7Zm.709,4.818c0-.7-.509-1.13-1.358-1.13h-1.98l-.559,2.649h2.169A1.559,1.559,0,0,0,526.651,239.353Zm-2.688-4.158-.51,2.4h2.02a1.4,1.4,0,0,0,1.548-1.378c0-.63-.449-1.02-1.209-1.02Z" />
      <path
         id="path226"
         d="M489.614,253.531v-7h.739l-.039,5.757,2.909-5.757h.729l.48,5.757,2.388-5.757h.77l-2.968,7h-.771l-.479-5.936-3,5.936Z" />
      <path
         id="path228"
         d="M500.533,246.535h.909l1.22,7h-.77l-.36-2.2h-3.038l-1.269,2.2h-.85Zm.9,4.188-.581-3.5-2.008,3.5Z" />
      <path
         id="path230"
         d="M505.114,246.535h.749l-1.348,6.317h3.867l-.14.679h-4.617Z" />
    </g>
    <g
       id="g254">
      <path
         id="path234"
         d="M450.612,296.294l3.649,5.077-.021-5.077h1.13v7H454.3l-3.748-5.217.019,5.217h-1.129v-7Z" />
      <path
         id="path236"
         d="M456.273,296.294h1.289l2.15,5.787,2.169-5.787h1.239l-2.739,7h-1.389Z" />
      <path
         id="path238"
         d="M465.132,297.8v5.487h-1.11v-7h1.56l2.049,4.238,2.039-4.238h1.558v7H470.1v-5.457l-2.479,4.958Z" />
      <path
         id="path240"
         d="M475.1,303.39a2.545,2.545,0,0,1-2.548-2.6,2.465,2.465,0,0,1,2.438-2.589,2.4,2.4,0,0,1,2.369,2.578v.28h-3.7a1.528,1.528,0,0,0,1.5,1.37,1.625,1.625,0,0,0,1.189-.47l.74.69A2.9,2.9,0,0,1,475.1,303.39Zm-1.419-3.018h2.608a1.37,1.37,0,0,0-1.309-1.249A1.343,1.343,0,0,0,473.683,300.372Z" />
      <path
         id="path242"
         d="M484.341,302.621a1.928,1.928,0,0,1-1.539.719,2.562,2.562,0,0,1,.07-5.1,1.914,1.914,0,0,1,1.459.659v-2.758l1.129-.19v7.336h-1.119Zm-1.2-.23a1.5,1.5,0,0,0,1.189-.55v-2.109a1.553,1.553,0,0,0-1.189-.539,1.6,1.6,0,0,0,0,3.2Z" />
      <path
         id="path244"
         d="M489.182,303.39a2.545,2.545,0,0,1-2.549-2.6,2.466,2.466,0,0,1,2.438-2.589,2.4,2.4,0,0,1,2.369,2.578v.28h-3.7a1.53,1.53,0,0,0,1.5,1.37,1.628,1.628,0,0,0,1.19-.47l.74.69A2.9,2.9,0,0,1,489.182,303.39Zm-1.419-3.018h2.608a1.37,1.37,0,0,0-1.31-1.249A1.343,1.343,0,0,0,487.763,300.372Z" />
      <path
         id="path246"
         d="M491.853,298.283h1.23l1.389,3.658,1.389-3.658h1.19l-2.06,5.007H493.9Z" />
      <path
         id="path248"
         d="M497.723,296.574a.7.7,0,0,1,1.409,0,.7.7,0,0,1-1.409,0Zm1.269,6.716h-1.129v-5.007h1.129Z" />
      <path
         id="path250"
         d="M503.961,301.841l.68.68a2.608,2.608,0,0,1-1.959.869,2.589,2.589,0,0,1,0-5.177,2.7,2.7,0,0,1,2,.839l-.7.73a1.654,1.654,0,0,0-1.259-.589,1.606,1.606,0,0,0,.03,3.2A1.539,1.539,0,0,0,503.961,301.841Z" />
      <path
         id="path252"
         d="M507.781,303.39a2.545,2.545,0,0,1-2.549-2.6,2.466,2.466,0,0,1,2.439-2.589,2.4,2.4,0,0,1,2.369,2.578v.28h-3.7a1.529,1.529,0,0,0,1.5,1.37,1.625,1.625,0,0,0,1.189-.47l.74.69A2.9,2.9,0,0,1,507.781,303.39Zm-1.419-3.018h2.609a1.37,1.37,0,0,0-1.31-1.249A1.345,1.345,0,0,0,506.362,300.372Z" />
    </g>
    <rect
       id="rect256"
       height="32.95"
       width="159.399"
       y="118.019"
       x="210.634"
       class="cls-5" />
    <rect
       id="rect258"
       height="32.95"
       width="159.399"
       y="118.019"
       x="399.247"
       class="cls-5" />
    <rect
       id="rect260"
       height="32.95"
       width="159.399"
       y="167.445"
       x="399.247"
       class="cls-5" />
    <g
       id="g276">
      <path
         id="path262"
         d="M270.049,130.269h3.108a2.131,2.131,0,0,1,2.339,2.118,1.989,1.989,0,0,1-1.379,1.919l1.469,2.959h-1.329l-1.35-2.8h-1.659v2.8h-1.2Zm1.2,1.009v2.229h1.809a1.12,1.12,0,1,0,0-2.229Z" />
      <path
         id="path264"
         d="M278.668,132.177a2.6,2.6,0,1,1-2.519,2.589A2.5,2.5,0,0,1,278.668,132.177Zm1.4,2.6a1.415,1.415,0,1,0-2.8,0,1.413,1.413,0,1,0,2.8,0Z" />
      <path
         id="path266"
         d="M285.967,135.816l.679.679a2.6,2.6,0,0,1-1.958.87,2.589,2.589,0,0,1,0-5.177,2.7,2.7,0,0,1,2,.839l-.7.729a1.658,1.658,0,0,0-1.26-.589,1.606,1.606,0,0,0,.031,3.2A1.541,1.541,0,0,0,285.967,135.816Z" />
      <path
         id="path268"
         d="M287.619,130.119l1.129-.19V134.4l2.079-2.139h1.29l-2.289,2.319,2.428,2.689h-1.449l-2.059-2.309v2.309h-1.129Z" />
      <path
         id="path270"
         d="M293.069,135.925a2.882,2.882,0,0,0,1.609.57c.6,0,1.009-.27,1.009-.669,0-.31-.21-.48-.69-.57l-.889-.15c-.969-.18-1.449-.63-1.449-1.379,0-.94.769-1.55,1.939-1.55a3.525,3.525,0,0,1,1.969.6l-.53.74a2.735,2.735,0,0,0-1.509-.48c-.52,0-.86.22-.86.59,0,.319.18.46.71.549l.879.161c1,.19,1.48.649,1.48,1.4a1.835,1.835,0,0,1-2.039,1.629,3.358,3.358,0,0,1-2.159-.68Z" />
      <path
         id="path272"
         d="M297.918,130.269h2.559a3.5,3.5,0,1,1,0,7h-2.559Zm1.2,1.039v4.917h1.39a2.469,2.469,0,0,0,0-4.917Z" />
      <path
         id="path274"
         d="M308.447,130.269c1.32,0,2.209.739,2.209,1.839a1.678,1.678,0,0,1-1.12,1.549,1.75,1.75,0,0,1,1.359,1.659,2.04,2.04,0,0,1-2.308,1.949h-3.248v-7Zm-1.909.979v1.959h1.789c.69,0,1.129-.38,1.129-.979s-.439-.98-1.129-.98Zm3.148,3.958a1.092,1.092,0,0,0-1.239-1.07h-1.909v2.149h1.909A1.1,1.1,0,0,0,309.686,135.206Z" />
    </g>
    <rect
       id="rect278"
       height="32.95"
       width="159.399"
       y="167.445"
       x="210.634"
       class="cls-5" />
    <g
       id="g290">
      <path
         id="path280"
         d="M460.426,130.269h2.558a3.5,3.5,0,1,1,0,7h-2.558Zm1.2,1.039v4.917h1.389a2.469,2.469,0,0,0,0-4.917Z" />
      <path
         id="path282"
         d="M470.954,130.269c1.319,0,2.209.739,2.209,1.839a1.677,1.677,0,0,1-1.119,1.549,1.751,1.751,0,0,1,1.359,1.659,2.04,2.04,0,0,1-2.308,1.949h-3.249v-7Zm-1.908.979v1.959h1.789c.689,0,1.129-.38,1.129-.979s-.44-.98-1.129-.98Zm3.147,3.958a1.091,1.091,0,0,0-1.239-1.07h-1.908v2.149h1.908A1.1,1.1,0,0,0,472.193,135.206Z" />
      <path
         id="path284"
         d="M478.115,137.265l-1.529-7h1.22l1.039,5.127,1.5-5.127h1.138l1.5,5.127,1.04-5.127H485.2l-1.528,7h-1.25l-1.53-5.307-1.528,5.307Z" />
      <path
         id="path286"
         d="M487.894,130.269h1.39l2.708,7H490.7l-.71-1.959h-2.878l-.72,1.959h-1.249Zm1.749,4.1-1.079-2.978-1.1,2.978Z" />
      <path
         id="path288"
         d="M492.9,130.269h1.2v5.956h3.727v1.04H492.9Z" />
    </g>
    <g
       id="g304">
      <path
         id="path292"
         d="M277.412,179.694c1.319,0,2.209.74,2.209,1.839a1.677,1.677,0,0,1-1.12,1.549,1.751,1.751,0,0,1,1.36,1.659,2.04,2.04,0,0,1-2.309,1.949H274.3v-7Zm-1.909.979v1.959h1.789c.69,0,1.13-.379,1.13-.979s-.44-.98-1.13-.98Zm3.148,3.958a1.091,1.091,0,0,0-1.239-1.069H275.5v2.149h1.909A1.1,1.1,0,0,0,278.651,184.631Z" />
      <path
         id="path294"
         d="M282.253,186.69h-1.129v-7.146l1.129-.19Z" />
      <path
         id="path296"
         d="M284.743,184.661a1.079,1.079,0,0,0,1.1,1.2,1.262,1.262,0,0,0,1.1-.62v-3.558h1.129v5.007h-1.129v-.829a1.833,1.833,0,0,1-1.6.909,1.679,1.679,0,0,1-1.729-1.789v-3.3h1.129Z" />
      <path
         id="path298"
         d="M291.783,186.79a2.545,2.545,0,0,1-2.549-2.6,2.466,2.466,0,0,1,2.438-2.589,2.4,2.4,0,0,1,2.369,2.578v.28h-3.7a1.53,1.53,0,0,0,1.5,1.37,1.628,1.628,0,0,0,1.19-.47l.739.689A2.892,2.892,0,0,1,291.783,186.79Zm-1.42-3.018h2.609a1.37,1.37,0,0,0-1.309-1.249A1.345,1.345,0,0,0,290.363,183.772Z" />
      <path
         id="path300"
         d="M295.333,179.694h5.027v1.02h-3.827v2h2.638v1h-2.638v2.978h-1.2Z" />
      <path
         id="path302"
         d="M301.724,184.781a3.5,3.5,0,0,0,2.348,1.019c.929,0,1.569-.469,1.569-1.109,0-.569-.339-.83-1.269-1l-1.29-.22c-1.209-.22-1.8-.82-1.8-1.779,0-1.259,1.01-2.1,2.579-2.1a4.674,4.674,0,0,1,2.809.91l-.611.9a3.626,3.626,0,0,0-2.238-.81c-.84,0-1.389.42-1.389.99,0,.5.31.759,1.08.88l1.239.219c1.409.24,2.068.86,2.068,1.919,0,1.28-1.139,2.189-2.808,2.189a4.412,4.412,0,0,1-2.939-1.129Z" />
    </g>
    <g
       id="g318">
      <path
         id="path306"
         d="M466.024,179.694c1.32,0,2.209.74,2.209,1.839a1.677,1.677,0,0,1-1.12,1.549,1.751,1.751,0,0,1,1.36,1.659,2.04,2.04,0,0,1-2.309,1.949h-3.248v-7Zm-1.909.979v1.959H465.9c.69,0,1.13-.379,1.13-.979s-.44-.98-1.13-.98Zm3.149,3.958a1.092,1.092,0,0,0-1.24-1.069h-1.909v2.149h1.909A1.1,1.1,0,0,0,467.264,184.631Z" />
      <path
         id="path308"
         d="M470.865,186.69h-1.129v-7.146l1.129-.19Z" />
      <path
         id="path310"
         d="M473.355,184.661a1.079,1.079,0,0,0,1.1,1.2,1.265,1.265,0,0,0,1.1-.62v-3.558h1.129v5.007h-1.129v-.829a1.833,1.833,0,0,1-1.6.909,1.679,1.679,0,0,1-1.729-1.789v-3.3h1.129Z" />
      <path
         id="path312"
         d="M480.394,186.79a2.545,2.545,0,0,1-2.548-2.6,2.466,2.466,0,0,1,2.438-2.589,2.4,2.4,0,0,1,2.369,2.578v.28h-3.7a1.529,1.529,0,0,0,1.5,1.37,1.624,1.624,0,0,0,1.189-.47l.741.689A2.9,2.9,0,0,1,480.394,186.79Zm-1.418-3.018h2.608a1.37,1.37,0,0,0-1.31-1.249A1.343,1.343,0,0,0,478.976,183.772Z" />
      <path
         id="path314"
         d="M483.945,179.694h5.028v1.02h-3.828v2h2.638v1h-2.638v2.978h-1.2Z" />
      <path
         id="path316"
         d="M490.336,184.781a3.5,3.5,0,0,0,2.348,1.019c.929,0,1.569-.469,1.569-1.109,0-.569-.339-.83-1.269-1l-1.29-.22c-1.209-.22-1.8-.82-1.8-1.779,0-1.259,1.01-2.1,2.58-2.1a4.673,4.673,0,0,1,2.808.91l-.61.9a3.626,3.626,0,0,0-2.239-.81c-.839,0-1.389.42-1.389.99,0,.5.31.759,1.08.88l1.239.219c1.409.24,2.069.86,2.069,1.919,0,1.28-1.14,2.189-2.809,2.189a4.412,4.412,0,0,1-2.939-1.129Z" />
    </g>
  </g>
</svg>
