<svg id="Layer_1" data-name="Layer 1" xmlns="http://www.w3.org/2000/svg" width="8.268in" height="4.08in" viewBox="0 0 595.276 293.782">
  <defs>
    <style>
      .cls-1 {
        fill: #06c;
      }

      .cls-2 {
        fill: #99c2eb;
      }

      .cls-3, .cls-6 {
        fill: none;
      }

      .cls-3 {
        stroke: #1d1d1b;
        stroke-miterlimit: 10;
        stroke-width: 0.5px;
      }

      .cls-4 {
        fill: #fff;
      }

      .cls-5 {
        fill: #f7823c;
      }

      .cls-6 {
        stroke: #f7823c;
        stroke-linecap: round;
        stroke-linejoin: round;
        stroke-dasharray: 3 0 0;
      }
    </style>
  </defs>
  <rect class="cls-1" x="81.965" y="148.501" width="20.912" height="64.773"/>
  <rect class="cls-2" x="102.877" y="122.834" width="20.912" height="90.441"/>
  <rect class="cls-1" x="147.444" y="117.184" width="20.912" height="96.091"/>
  <rect class="cls-2" x="168.357" y="89.873" width="20.912" height="123.402"/>
  <rect class="cls-1" x="212.924" y="117.609" width="20.912" height="95.666"/>
  <rect class="cls-2" x="233.836" y="93.377" width="20.912" height="119.898"/>
  <rect class="cls-1" x="278.245" y="121.413" width="20.912" height="91.862"/>
  <rect class="cls-2" x="299.157" y="88.87" width="20.912" height="124.405"/>
  <rect class="cls-1" x="343.342" y="121.413" width="20.912" height="91.862"/>
  <rect class="cls-2" x="364.254" y="94.933" width="20.912" height="118.342"/>
  <rect class="cls-1" x="408.742" y="122.032" width="20.912" height="91.243"/>
  <rect class="cls-2" x="429.655" y="83.807" width="20.912" height="129.468"/>
  <rect class="cls-1" x="473.991" y="120.932" width="20.912" height="92.343"/>
  <rect class="cls-2" x="494.903" y="102.217" width="20.912" height="111.058"/>
  <line class="cls-3" x1="59.327" y1="184.702" x2="56.769" y2="184.702"/>
  <line class="cls-3" x1="59.327" y1="155.496" x2="56.769" y2="155.496"/>
  <line class="cls-3" x1="59.327" y1="126.291" x2="56.769" y2="126.291"/>
  <line class="cls-3" x1="59.327" y1="97.085" x2="56.769" y2="97.085"/>
  <line class="cls-3" x1="59.327" y1="67.879" x2="56.769" y2="67.879"/>
  <g>
    <path d="M38.5,69.245l1.722-1.8a1.125,1.125,0,0,0,.407-.792.684.684,0,0,0-.767-.617,1.516,1.516,0,0,0-1.086.515l-.371-.449a2.122,2.122,0,0,1,1.475-.636c.822,0,1.385.468,1.385,1.145a1.6,1.6,0,0,1-.6,1.17l-1.343,1.385,2.021-.012v.564H38.5Z"/>
    <path d="M42.792,69.131l-.587,1.584h-.5l.4-1.584Z"/>
    <path d="M43.554,65.521h2.555v.564h-2L44.058,67.3a1.864,1.864,0,0,1,.876-.21,1.267,1.267,0,0,1,1.4,1.271,1.435,1.435,0,0,1-1.588,1.422,2.114,2.114,0,0,1-1.475-.57l.395-.45a1.559,1.559,0,0,0,1.1.45.809.809,0,1,0-.019-1.607,1.773,1.773,0,0,0-.833.222l-.456-.138Z"/>
    <path d="M46.914,67.614c0-1.277.7-2.159,1.716-2.159s1.715.882,1.715,2.159-.69,2.165-1.715,2.165S46.914,68.9,46.914,67.614Zm2.777,0c0-.965-.414-1.577-1.061-1.577s-1.062.617-1.062,1.577S47.982,69.2,48.63,69.2,49.691,68.591,49.691,67.614Z"/>
    <path d="M50.958,67.614c0-1.277.7-2.159,1.716-2.159s1.715.882,1.715,2.159-.69,2.165-1.715,2.165S50.958,68.9,50.958,67.614Zm2.777,0c0-.965-.414-1.577-1.061-1.577s-1.062.617-1.062,1.577.414,1.583,1.062,1.583S53.735,68.591,53.735,67.614Z"/>
  </g>
  <g>
    <path d="M86.96,144.715h-.654V141.2l-.744.324v-.581l.984-.426h.414Z"/>
    <path d="M88.568,144.128l-.588,1.583h-.5l.4-1.583Z"/>
    <path d="M90.14,144.715h-.654V141.2l-.743.324v-.581l.983-.426h.414Z"/>
    <path d="M92.192,144.715h-.654V141.2l-.744.324v-.581l.984-.426h.414Z"/>
    <path d="M96.109,142.5a2.007,2.007,0,0,1-1.955,2.267,1.9,1.9,0,0,1-1.116-.36l.36-.486a1.333,1.333,0,0,0,.81.258c.78,0,1.235-.612,1.247-1.667a1.454,1.454,0,0,1-1.157.611,1.3,1.3,0,0,1-1.4-1.289,1.385,1.385,0,0,1,1.475-1.379A1.819,1.819,0,0,1,96.109,142.5Zm-.684-.4c-.1-.654-.5-1.079-1.031-1.079a.807.807,0,0,0-.857.8.791.791,0,0,0,.863.786A1.312,1.312,0,0,0,95.425,142.1Z"/>
  </g>
  <g>
    <path d="M106.851,120.413H106.2V116.9l-.743.324v-.582l.983-.426h.414Z"/>
    <path d="M108.459,119.825l-.588,1.584h-.5l.4-1.584Z"/>
    <path d="M109.222,116.215h2.554v.564h-2L109.726,118a1.86,1.86,0,0,1,.875-.21,1.268,1.268,0,0,1,1.4,1.271,1.436,1.436,0,0,1-1.589,1.421,2.115,2.115,0,0,1-1.475-.57l.4-.449a1.56,1.56,0,0,0,1.1.449.809.809,0,1,0-.018-1.607,1.773,1.773,0,0,0-.834.222l-.455-.138Z"/>
    <path d="M112.576,118.423a2.008,2.008,0,0,1,1.955-2.268,1.9,1.9,0,0,1,1.115.36l-.36.486a1.329,1.329,0,0,0-.81-.258c-.779,0-1.235.612-1.247,1.667a1.458,1.458,0,0,1,1.158-.612,1.3,1.3,0,0,1,1.4,1.29,1.386,1.386,0,0,1-1.475,1.379A1.818,1.818,0,0,1,112.576,118.423Zm.683.4c.1.654.5,1.079,1.032,1.079a.807.807,0,0,0,.857-.8.791.791,0,0,0-.863-.786A1.314,1.314,0,0,0,113.259,118.824Z"/>
    <path d="M116.319,119.94l1.721-1.8a1.121,1.121,0,0,0,.408-.791.684.684,0,0,0-.767-.618,1.513,1.513,0,0,0-1.086.516l-.371-.45a2.121,2.121,0,0,1,1.475-.635c.821,0,1.385.468,1.385,1.145a1.6,1.6,0,0,1-.6,1.169l-1.343,1.385,2.021-.011v.563h-2.843Z"/>
  </g>
  <g>
    <path d="M151.284,113.913h-.654V110.4l-.744.324v-.582l.984-.426h.414Z"/>
    <path d="M152.892,113.325l-.588,1.584h-.5l.4-1.584Z"/>
    <path d="M153.372,111.923a2.008,2.008,0,0,1,1.955-2.268,1.894,1.894,0,0,1,1.115.36l-.36.486a1.326,1.326,0,0,0-.809-.258c-.779,0-1.235.612-1.247,1.667a1.455,1.455,0,0,1,1.157-.612,1.3,1.3,0,0,1,1.4,1.29,1.385,1.385,0,0,1-1.475,1.379A1.819,1.819,0,0,1,153.372,111.923Zm.684.4c.1.654.5,1.079,1.031,1.079a.808.808,0,0,0,.858-.8.792.792,0,0,0-.864-.786A1.31,1.31,0,0,0,154.056,112.324Z"/>
    <path d="M157.176,111.923a2.008,2.008,0,0,1,1.955-2.268,1.894,1.894,0,0,1,1.115.36l-.359.486a1.331,1.331,0,0,0-.81-.258c-.779,0-1.235.612-1.247,1.667a1.456,1.456,0,0,1,1.157-.612,1.3,1.3,0,0,1,1.4,1.29,1.386,1.386,0,0,1-1.476,1.379A1.819,1.819,0,0,1,157.176,111.923Zm.684.4c.1.654.5,1.079,1.032,1.079a.808.808,0,0,0,.857-.8.792.792,0,0,0-.864-.786A1.312,1.312,0,0,0,157.86,112.324Z"/>
    <path d="M161.082,109.715h2.555v.564h-2l-.054,1.218a1.863,1.863,0,0,1,.875-.21,1.267,1.267,0,0,1,1.4,1.271,1.435,1.435,0,0,1-1.589,1.421,2.115,2.115,0,0,1-1.475-.57l.4-.449a1.562,1.562,0,0,0,1.1.449.809.809,0,1,0-.018-1.607,1.773,1.773,0,0,0-.833.222l-.456-.138Z"/>
  </g>
  <g>
    <path d="M172.288,86.844l1.721-1.8a1.121,1.121,0,0,0,.407-.791.684.684,0,0,0-.767-.618,1.513,1.513,0,0,0-1.086.516l-.371-.45a2.121,2.121,0,0,1,1.475-.635c.822,0,1.385.467,1.385,1.145a1.6,1.6,0,0,1-.6,1.169l-1.344,1.385,2.021-.011v.563h-2.842Z"/>
    <path d="M176.577,86.73l-.587,1.584h-.5l.4-1.584Z"/>
    <path d="M178.149,87.318H177.5V83.8l-.744.324v-.582l.984-.426h.414Z"/>
    <path d="M178.888,86.844l1.721-1.8a1.123,1.123,0,0,0,.408-.791.685.685,0,0,0-.768-.618,1.513,1.513,0,0,0-1.086.516l-.371-.45a2.121,2.121,0,0,1,1.475-.635c.822,0,1.385.467,1.385,1.145a1.6,1.6,0,0,1-.6,1.169l-1.344,1.385,2.021-.011v.563h-2.842Z"/>
    <path d="M183.753,87.378a2.108,2.108,0,0,1-1.553-.63l.443-.413a1.379,1.379,0,0,0,1.1.467c.54,0,.912-.281.912-.7a.664.664,0,0,0-.744-.63h-.522v-.546h.468a.607.607,0,0,0,.665-.629.725.725,0,0,0-.8-.666,1.3,1.3,0,0,0-1.044.5l-.443-.414a2.033,2.033,0,0,1,1.511-.666,1.28,1.28,0,0,1,1.433,1.176,1.008,1.008,0,0,1-.815.959,1.04,1.04,0,0,1,.947.96C185.318,86.862,184.664,87.378,183.753,87.378Z"/>
  </g>
  <g>
    <path d="M100.18,91.094h.539v.564h-.539V92.7h-.654V91.658H97.271v-.534L99.436,88.5h.744Zm-.654,0V89.2l-1.553,1.895Z"/>
    <path d="M101.243,90.59c0-1.277.7-2.158,1.715-2.158s1.715.881,1.715,2.158-.69,2.166-1.715,2.166S101.243,91.88,101.243,90.59Zm2.776,0c0-.965-.414-1.577-1.061-1.577s-1.062.618-1.062,1.577.414,1.584,1.062,1.584S104.019,91.568,104.019,90.59Z"/>
  </g>
  <g>
    <path d="M172.584,140.984l1.722-1.8a1.127,1.127,0,0,0,.407-.792.684.684,0,0,0-.767-.617,1.516,1.516,0,0,0-1.086.515l-.371-.45a2.125,2.125,0,0,1,1.475-.635c.822,0,1.385.468,1.385,1.145a1.6,1.6,0,0,1-.6,1.17l-1.343,1.385,2.021-.012v.564h-2.843Z"/>
    <path d="M175.975,140.3a1.105,1.105,0,0,1,.905-1.025,1.023,1.023,0,0,1-.768-.935,1.451,1.451,0,0,1,2.837,0,1.025,1.025,0,0,1-.762.935,1.106,1.106,0,0,1,.906,1.025c0,.714-.648,1.224-1.559,1.224S175.975,141.014,175.975,140.3Zm2.458-.048c0-.408-.384-.713-.9-.713s-.906.305-.906.713a.924.924,0,0,0,1.805,0Zm-.126-1.871a.789.789,0,1,0-.773.648A.706.706,0,0,0,178.307,138.381Z"/>
  </g>
  <g>
    <path d="M215.889,114.18h-.654v-3.514l-.743.323v-.581l.984-.426h.413Z"/>
    <path d="M217.5,113.592l-.587,1.583h-.5l.4-1.583Z"/>
    <path d="M217.977,112.189a2.008,2.008,0,0,1,1.956-2.267,1.892,1.892,0,0,1,1.115.36l-.36.486a1.331,1.331,0,0,0-.81-.258c-.779,0-1.235.612-1.247,1.667a1.455,1.455,0,0,1,1.157-.612,1.3,1.3,0,0,1,1.4,1.29,1.386,1.386,0,0,1-1.475,1.379A1.819,1.819,0,0,1,217.977,112.189Zm.684.4c.1.654.5,1.08,1.031,1.08a.809.809,0,0,0,.858-.8.792.792,0,0,0-.864-.786A1.315,1.315,0,0,0,218.661,112.59Z"/>
    <path d="M221.884,109.982h2.554v.564h-2l-.053,1.217a1.86,1.86,0,0,1,.875-.21,1.267,1.267,0,0,1,1.4,1.271,1.436,1.436,0,0,1-1.589,1.422,2.115,2.115,0,0,1-1.475-.57l.4-.45a1.557,1.557,0,0,0,1.1.45.809.809,0,1,0-.018-1.607,1.77,1.77,0,0,0-.833.222l-.456-.138Z"/>
    <path d="M226.6,114.24a2.11,2.11,0,0,1-1.554-.63l.444-.414a1.377,1.377,0,0,0,1.1.468c.539,0,.911-.282.911-.7a.663.663,0,0,0-.743-.629h-.522v-.546h.467a.608.608,0,0,0,.666-.629.725.725,0,0,0-.8-.666,1.3,1.3,0,0,0-1.044.5l-.444-.414a2.035,2.035,0,0,1,1.512-.666,1.28,1.28,0,0,1,1.433,1.175,1.009,1.009,0,0,1-.816.96,1.04,1.04,0,0,1,.948.959C228.164,113.724,227.51,114.24,226.6,114.24Z"/>
  </g>
  <g>
    <path d="M235.516,90.611l1.721-1.8a1.121,1.121,0,0,0,.407-.791.684.684,0,0,0-.767-.618,1.513,1.513,0,0,0-1.086.516l-.371-.45a2.121,2.121,0,0,1,1.475-.635c.822,0,1.385.467,1.385,1.145a1.6,1.6,0,0,1-.6,1.169l-1.344,1.385,2.021-.011v.563h-2.842Z"/>
    <path d="M239.805,90.5l-.587,1.584h-.5l.4-1.584Z"/>
    <path d="M240.291,88.98c0-1.277.7-2.159,1.716-2.159s1.715.882,1.715,2.159-.69,2.165-1.715,2.165S240.291,90.27,240.291,88.98Zm2.777,0c0-.965-.414-1.577-1.061-1.577s-1.062.618-1.062,1.577.414,1.584,1.062,1.584S243.068,89.958,243.068,88.98Z"/>
    <path d="M246.482,87.469h-2.4v-.582H247.2v.492l-1.9,3.706h-.768Z"/>
    <path d="M247.636,88.98c0-1.277.695-2.159,1.715-2.159s1.715.882,1.715,2.159-.69,2.165-1.715,2.165S247.636,90.27,247.636,88.98Zm2.777,0c0-.965-.415-1.577-1.062-1.577s-1.062.618-1.062,1.577.414,1.584,1.062,1.584S250.413,89.958,250.413,88.98Z"/>
  </g>
  <g>
    <path class="cls-4" d="M283.056,129.619H282.4v-3.514l-.744.323v-.581l.984-.426h.414Z"/>
    <path class="cls-4" d="M284.663,129.031l-.587,1.583h-.5l.4-1.583Z"/>
    <path class="cls-4" d="M285.426,125.421h2.555v.564h-2l-.054,1.217a1.867,1.867,0,0,1,.876-.21,1.268,1.268,0,0,1,1.4,1.271,1.436,1.436,0,0,1-1.589,1.422,2.114,2.114,0,0,1-1.475-.57l.395-.45a1.561,1.561,0,0,0,1.1.45.809.809,0,1,0-.018-1.607,1.773,1.773,0,0,0-.834.222l-.456-.138Z"/>
    <path class="cls-4" d="M288.774,128.462a1.107,1.107,0,0,1,.906-1.026,1.023,1.023,0,0,1-.768-.935,1.45,1.45,0,0,1,2.836,0,1.024,1.024,0,0,1-.761.935,1.106,1.106,0,0,1,.9,1.026c0,.713-.647,1.223-1.559,1.223S288.774,129.175,288.774,128.462Zm2.459-.049c0-.407-.384-.713-.9-.713s-.905.306-.905.713a.924.924,0,0,0,1.805,0Zm-.126-1.87a.789.789,0,1,0-.774.647A.708.708,0,0,0,291.107,126.543Z"/>
    <path class="cls-4" d="M294.689,126h-2.405v-.582h3.125v.492l-1.9,3.706h-.767Z"/>
  </g>
  <g>
    <path d="M302.93,85.441l1.72-1.8a1.127,1.127,0,0,0,.409-.792.685.685,0,0,0-.768-.617,1.516,1.516,0,0,0-1.086.515l-.371-.45a2.125,2.125,0,0,1,1.475-.635c.822,0,1.385.468,1.385,1.145a1.6,1.6,0,0,1-.6,1.17l-1.344,1.385,2.021-.012v.564H302.93Z"/>
    <path d="M307.219,85.327l-.587,1.583h-.5l.4-1.583Z"/>
    <path d="M308.791,85.915h-.654V82.4l-.744.323v-.581l.984-.426h.414Z"/>
    <path d="M312.372,84.314h.54v.563h-.54v1.038h-.653V84.877h-2.255v-.534l2.165-2.626h.743Zm-.653,0V82.419l-1.554,1.895Z"/>
    <path d="M313.55,81.717H316.1v.564h-2l-.053,1.217a1.86,1.86,0,0,1,.875-.21,1.267,1.267,0,0,1,1.4,1.271,1.436,1.436,0,0,1-1.589,1.422,2.115,2.115,0,0,1-1.475-.57l.395-.45a1.561,1.561,0,0,0,1.1.45.809.809,0,1,0-.018-1.607,1.773,1.773,0,0,0-.834.222l-.455-.138Z"/>
  </g>
  <g>
    <path d="M347.142,118.609h-.654V115.1l-.743.324v-.582l.983-.426h.414Z"/>
    <path d="M348.75,118.021l-.587,1.584h-.5l.4-1.584Z"/>
    <path d="M349.513,114.411h2.554v.564h-2l-.053,1.218a1.851,1.851,0,0,1,.875-.21,1.267,1.267,0,0,1,1.4,1.271,1.436,1.436,0,0,1-1.589,1.421,2.113,2.113,0,0,1-1.474-.57l.395-.45a1.558,1.558,0,0,0,1.1.45.809.809,0,1,0-.019-1.607,1.773,1.773,0,0,0-.833.222l-.456-.138Z"/>
    <path d="M352.861,117.452a1.105,1.105,0,0,1,.906-1.026,1.02,1.02,0,0,1-.768-.935,1.45,1.45,0,0,1,2.836,0,1.023,1.023,0,0,1-.761.935,1.107,1.107,0,0,1,.9,1.026c0,.713-.647,1.223-1.559,1.223S352.861,118.165,352.861,117.452Zm2.458-.049c0-.407-.384-.713-.9-.713s-.905.306-.905.713a.923.923,0,0,0,1.8,0Zm-.126-1.87a.789.789,0,1,0-.773.647A.707.707,0,0,0,355.193,115.533Z"/>
    <path d="M356.569,116.618a2.008,2.008,0,0,1,1.955-2.267,1.9,1.9,0,0,1,1.116.36l-.361.486a1.326,1.326,0,0,0-.809-.258c-.78,0-1.236.612-1.247,1.667a1.453,1.453,0,0,1,1.157-.612,1.3,1.3,0,0,1,1.4,1.29,1.385,1.385,0,0,1-1.474,1.379A1.819,1.819,0,0,1,356.569,116.618Zm.684.4c.1.653.5,1.079,1.031,1.079a.809.809,0,0,0,.858-.8.792.792,0,0,0-.864-.786A1.312,1.312,0,0,0,357.253,117.02Z"/>
  </g>
  <g>
    <path d="M366.632,91.4l1.72-1.8a1.123,1.123,0,0,0,.409-.791.685.685,0,0,0-.768-.618,1.513,1.513,0,0,0-1.086.516l-.371-.45a2.121,2.121,0,0,1,1.475-.635c.822,0,1.385.468,1.385,1.145a1.6,1.6,0,0,1-.6,1.169l-1.344,1.385,2.022-.011v.563h-2.843Z"/>
    <path d="M370.921,91.285l-.587,1.584h-.5l.4-1.584Z"/>
    <path d="M371.407,89.768c0-1.277.7-2.158,1.716-2.158s1.715.881,1.715,2.158-.69,2.165-1.715,2.165S371.407,91.058,371.407,89.768Zm2.777,0c0-.965-.414-1.577-1.061-1.577s-1.062.618-1.062,1.577.414,1.584,1.062,1.584S374.184,90.746,374.184,89.768Z"/>
    <path d="M378.294,90.272h.54v.564h-.54v1.037h-.653V90.836h-2.255V90.3l2.165-2.627h.743Zm-.653,0v-1.9l-1.554,1.9Z"/>
    <path d="M379.357,89.768c0-1.277.7-2.158,1.715-2.158s1.715.881,1.715,2.158-.689,2.165-1.715,2.165S379.357,91.058,379.357,89.768Zm2.777,0c0-.965-.414-1.577-1.062-1.577s-1.061.618-1.061,1.577.414,1.584,1.061,1.584S382.134,90.746,382.134,89.768Z"/>
  </g>
  <g>
    <path d="M413.747,119.606h-.653v-3.515l-.744.324v-.581l.984-.426h.413Z"/>
    <path d="M415.355,119.018l-.588,1.583h-.5l.4-1.583Z"/>
    <path d="M416.118,115.408h2.555v.564h-2l-.054,1.217a1.86,1.86,0,0,1,.875-.21,1.267,1.267,0,0,1,1.4,1.271,1.435,1.435,0,0,1-1.588,1.422,2.116,2.116,0,0,1-1.476-.57l.4-.45a1.559,1.559,0,0,0,1.1.45.809.809,0,1,0-.018-1.607,1.784,1.784,0,0,0-.834.221l-.455-.137Z"/>
    <path d="M421.619,115.989h-2.405v-.581h3.125v.492l-1.9,3.706h-.767Z"/>
    <path d="M422.766,117.615a2.008,2.008,0,0,1,1.955-2.267,1.887,1.887,0,0,1,1.115.36l-.36.486a1.328,1.328,0,0,0-.809-.258c-.779,0-1.235.612-1.247,1.667a1.453,1.453,0,0,1,1.157-.612,1.3,1.3,0,0,1,1.4,1.289,1.386,1.386,0,0,1-1.475,1.38A1.819,1.819,0,0,1,422.766,117.615Zm.683.4c.1.654.5,1.08,1.032,1.08a.809.809,0,0,0,.858-.8.792.792,0,0,0-.864-.785A1.316,1.316,0,0,0,423.449,118.016Z"/>
  </g>
  <g>
    <path d="M432.488,81.111l1.721-1.8a1.123,1.123,0,0,0,.408-.791.684.684,0,0,0-.767-.618,1.513,1.513,0,0,0-1.086.516l-.372-.45a2.124,2.124,0,0,1,1.475-.635c.822,0,1.386.467,1.386,1.145a1.6,1.6,0,0,1-.6,1.169l-1.344,1.385,2.022-.011v.563h-2.843Z"/>
    <path d="M436.777,81l-.587,1.584h-.5l.4-1.584Z"/>
    <path d="M437.378,81.111l1.722-1.8a1.125,1.125,0,0,0,.407-.791.684.684,0,0,0-.768-.618,1.511,1.511,0,0,0-1.085.516l-.372-.45a2.123,2.123,0,0,1,1.476-.635c.821,0,1.384.467,1.384,1.145a1.6,1.6,0,0,1-.6,1.169L438.2,81.032l2.021-.011v.563h-2.843Z"/>
    <path d="M442.243,81.644a2.11,2.11,0,0,1-1.553-.63l.444-.413a1.375,1.375,0,0,0,1.1.468c.54,0,.912-.282.912-.7a.663.663,0,0,0-.744-.63h-.521V79.2h.467a.608.608,0,0,0,.666-.629.725.725,0,0,0-.8-.666,1.3,1.3,0,0,0-1.044.5l-.444-.414a2.034,2.034,0,0,1,1.511-.666,1.28,1.28,0,0,1,1.434,1.176,1.008,1.008,0,0,1-.816.959,1.04,1.04,0,0,1,.948.96C443.809,81.129,443.155,81.644,442.243,81.644Z"/>
    <path d="M447.282,79.983h.54v.564h-.54v1.037h-.653V80.547h-2.255v-.534l2.165-2.627h.743Zm-.653,0v-1.9l-1.554,1.9Z"/>
  </g>
  <g>
    <path d="M479.043,117.609h-.653V114.1l-.745.324v-.582l.985-.426h.413Z"/>
    <path d="M480.651,117.021l-.588,1.584h-.5l.4-1.584Z"/>
    <path d="M481.414,113.411h2.555v.564h-2l-.054,1.218a1.849,1.849,0,0,1,.875-.21,1.267,1.267,0,0,1,1.4,1.271,1.435,1.435,0,0,1-1.589,1.421,2.115,2.115,0,0,1-1.475-.57l.4-.45a1.563,1.563,0,0,0,1.1.45.809.809,0,1,0-.018-1.607,1.773,1.773,0,0,0-.834.222l-.455-.138Z"/>
    <path d="M487.8,115.4a2.008,2.008,0,0,1-1.954,2.267,1.9,1.9,0,0,1-1.117-.36l.361-.485a1.336,1.336,0,0,0,.809.257c.78,0,1.236-.611,1.247-1.667a1.455,1.455,0,0,1-1.157.612,1.3,1.3,0,0,1-1.4-1.289,1.386,1.386,0,0,1,1.475-1.38A1.819,1.819,0,0,1,487.8,115.4Zm-.684-.4c-.1-.653-.5-1.079-1.031-1.079a.81.81,0,0,0-.858.8.791.791,0,0,0,.864.785A1.312,1.312,0,0,0,487.118,114.994Z"/>
    <path d="M490.557,113.993h-2.405v-.582h3.124v.492l-1.9,3.706h-.768Z"/>
  </g>
  <g>
    <path d="M499.707,99.167h-.653V95.653l-.745.324V95.4l.985-.426h.413Z"/>
    <path d="M501.315,98.579l-.588,1.584h-.5l.4-1.584Z"/>
    <path d="M504.979,96.954a2.007,2.007,0,0,1-1.954,2.267,1.892,1.892,0,0,1-1.116-.36l.36-.485a1.339,1.339,0,0,0,.81.257c.779,0,1.235-.611,1.247-1.667a1.455,1.455,0,0,1-1.157.612,1.3,1.3,0,0,1-1.4-1.289,1.386,1.386,0,0,1,1.475-1.38A1.818,1.818,0,0,1,504.979,96.954Zm-.683-.4c-.1-.653-.5-1.079-1.031-1.079a.809.809,0,0,0-.858.8.791.791,0,0,0,.863.785A1.312,1.312,0,0,0,504.3,96.552Z"/>
    <path d="M505.474,98.694l1.721-1.8a1.121,1.121,0,0,0,.407-.791.684.684,0,0,0-.767-.618A1.51,1.51,0,0,0,505.75,96l-.372-.45a2.122,2.122,0,0,1,1.475-.635c.822,0,1.385.467,1.385,1.145a1.6,1.6,0,0,1-.6,1.169L506.3,98.615l2.02-.011v.563h-2.842Z"/>
    <path d="M508.893,97.062c0-1.277.7-2.159,1.716-2.159s1.715.882,1.715,2.159-.689,2.165-1.715,2.165S508.893,98.352,508.893,97.062Zm2.778,0c0-.965-.414-1.577-1.062-1.577s-1.061.618-1.061,1.577.413,1.584,1.061,1.584S511.671,98.04,511.671,97.062Z"/>
  </g>
  <g>
    <g>
      <path d="M38.509,17.948h3.4a2.271,2.271,0,0,1,2.469,2.228,2.1,2.1,0,0,1-1.3,1.959l1.469,2.809H42.627l-1.27-2.568H40.228v2.568H38.509Zm1.719,1.419v1.659h1.519a.832.832,0,1,0,0-1.659Z"/>
      <path d="M45.049,23.465c0-.95.74-1.5,2.009-1.5a3.362,3.362,0,0,1,1.2.241v-.42c0-.5-.33-.75-1.02-.75a3.844,3.844,0,0,0-1.449.36l-.56-1.129a5.707,5.707,0,0,1,2.369-.56c1.429,0,2.259.71,2.259,1.939v3.3h-1.6v-.45a2.054,2.054,0,0,1-1.429.53A1.606,1.606,0,0,1,45.049,23.465Zm2.279.49a1.762,1.762,0,0,0,.93-.261v-.659a3.871,3.871,0,0,0-.89-.11c-.53,0-.83.18-.83.51S46.829,23.955,47.328,23.955Z"/>
      <path d="M54.647,24.275a1.949,1.949,0,0,1-1.519.7,2.457,2.457,0,0,1-2.279-2.618,2.486,2.486,0,0,1,2.4-2.6,1.8,1.8,0,0,1,1.38.62V17.8l1.619-.25v7.4h-1.6Zm-.98-.64a1.254,1.254,0,0,0,.96-.41V21.486a1.314,1.314,0,0,0-.96-.4,1.275,1.275,0,0,0,0,2.549Z"/>
      <path d="M59.968,19.707a2.669,2.669,0,1,1-2.689,2.669A2.625,2.625,0,0,1,59.968,19.707Zm1.119,2.669a1.13,1.13,0,1,0-2.229,0,1.127,1.127,0,1,0,2.229,0Z"/>
      <path d="M63.989,23.335a3.336,3.336,0,0,0,1.659.52c.46,0,.74-.161.74-.42,0-.2-.15-.31-.48-.37l-.99-.18c-1-.19-1.519-.7-1.519-1.5,0-1.06.809-1.689,2.159-1.689a4.148,4.148,0,0,1,2.1.59l-.74,1.029a2.916,2.916,0,0,0-1.479-.44c-.39,0-.62.13-.62.36,0,.21.13.3.53.37l.969.18c1.02.19,1.559.709,1.55,1.489.009,1.009-.95,1.769-2.219,1.769a4.214,4.214,0,0,1-2.369-.63Z"/>
      <path d="M71.817,24.974a1.807,1.807,0,0,1-1.409-.66v.63h-1.6V17.8l1.619-.25v2.9a1.95,1.95,0,0,1,1.509-.689,2.458,2.458,0,0,1,2.279,2.619A2.486,2.486,0,0,1,71.817,24.974Zm-1.389-3.458v1.719a1.326,1.326,0,0,0,.969.41,1.275,1.275,0,0,0,0-2.549A1.248,1.248,0,0,0,70.428,21.516Z"/>
      <path d="M77.787,25.044a2.666,2.666,0,0,1-2.718-2.668,2.587,2.587,0,0,1,2.6-2.679,2.534,2.534,0,0,1,2.539,2.738v.35H76.658a1.237,1.237,0,0,0,1.209.97,1.277,1.277,0,0,0,1.02-.43l1.069.89A3.006,3.006,0,0,1,77.787,25.044Zm-1.129-3.178h2.048a1.073,1.073,0,0,0-1.049-.91A1.024,1.024,0,0,0,76.658,21.866Z"/>
      <path d="M81.219,19.787h1.618v.84a1.9,1.9,0,0,1,1.63-.92,1.667,1.667,0,0,1,1.709,1.759v3.478H84.557V21.936a.859.859,0,0,0-.86-.96,1.043,1.043,0,0,0-.86.43v3.538H81.219Z"/>
      <path d="M90.976,23.135l.96.95a2.715,2.715,0,0,1-2.1.959,2.669,2.669,0,0,1,0-5.337,2.793,2.793,0,0,1,2.149.949l-.99.99a1.347,1.347,0,0,0-1.1-.56,1.288,1.288,0,0,0,.04,2.559A1.245,1.245,0,0,0,90.976,23.135Z"/>
      <path d="M92.788,17.8l1.619-.25v3.079a1.9,1.9,0,0,1,1.63-.92,1.667,1.667,0,0,1,1.709,1.759v3.478h-1.62V21.936a.858.858,0,0,0-.859-.96,1.043,1.043,0,0,0-.86.43v3.538H92.788Z"/>
      <path d="M106.176,22.066h.829v1.309h-.829v1.569h-1.539V23.375H100.9V22.106l3.478-4.158h1.8Zm-1.539,0V19.487l-2.14,2.579Z"/>
      <path d="M109.747,20.156v4.788h-1.579v-7h2.159l1.689,3.358,1.679-3.358h2.159v7h-1.619V20.2L112,24.444Z"/>
      <path d="M119.178,23.465c0-.95.739-1.5,2.009-1.5a3.357,3.357,0,0,1,1.2.241v-.42c0-.5-.33-.75-1.019-.75a3.844,3.844,0,0,0-1.45.36l-.559-1.129a5.7,5.7,0,0,1,2.368-.56c1.43,0,2.259.71,2.259,1.939v3.3h-1.6v-.45a2.054,2.054,0,0,1-1.429.53A1.605,1.605,0,0,1,119.178,23.465Zm2.278.49a1.762,1.762,0,0,0,.93-.261v-.659a3.871,3.871,0,0,0-.89-.11c-.529,0-.829.18-.829.51S120.957,23.955,121.456,23.955Z"/>
      <path d="M124.978,22.336a2.474,2.474,0,0,1,2.4-2.579,1.8,1.8,0,0,1,1.4.649v-.619h1.589v5.227c0,1.389-.96,2.159-2.719,2.159a4.933,4.933,0,0,1-2.138-.46l.5-1.169a3.652,3.652,0,0,0,1.579.4c.77,0,1.17-.32,1.17-.95v-.739a1.938,1.938,0,0,1-1.5.679A2.444,2.444,0,0,1,124.978,22.336Zm2.818,1.279a1.254,1.254,0,0,0,.96-.41V21.486a1.314,1.314,0,0,0-.96-.4,1.206,1.206,0,0,0-1.229,1.259A1.22,1.22,0,0,0,127.8,23.615Z"/>
      <path d="M131.4,22.336a2.474,2.474,0,0,1,2.4-2.579,1.8,1.8,0,0,1,1.4.649v-.619h1.589v5.227c0,1.389-.96,2.159-2.719,2.159a4.933,4.933,0,0,1-2.138-.46l.5-1.169a3.652,3.652,0,0,0,1.579.4c.77,0,1.17-.32,1.17-.95v-.739a1.938,1.938,0,0,1-1.5.679A2.444,2.444,0,0,1,131.4,22.336Zm2.818,1.279a1.254,1.254,0,0,0,.96-.41V21.486a1.314,1.314,0,0,0-.96-.4,1.206,1.206,0,0,0-1.229,1.259A1.22,1.22,0,0,0,134.216,23.615Z"/>
      <path d="M138.048,19.787h1.619v1.169c.33-.859.789-1.269,1.4-1.269a1.106,1.106,0,0,1,.54.13v1.389a1.773,1.773,0,0,0-.759-.16,1.426,1.426,0,0,0-1.18.64v3.258h-1.619Z"/>
      <path d="M144.806,25.044a2.666,2.666,0,0,1-2.718-2.668,2.587,2.587,0,0,1,2.6-2.679,2.534,2.534,0,0,1,2.539,2.738v.35h-3.548a1.237,1.237,0,0,0,1.209.97,1.277,1.277,0,0,0,1.02-.43l1.069.89A3.006,3.006,0,0,1,144.806,25.044Zm-1.129-3.178h2.049a1.074,1.074,0,0,0-1.05-.91A1.024,1.024,0,0,0,143.677,21.866Z"/>
      <path d="M148.058,22.336a2.474,2.474,0,0,1,2.4-2.579,1.8,1.8,0,0,1,1.4.649v-.619h1.589v5.227c0,1.389-.959,2.159-2.718,2.159a4.937,4.937,0,0,1-2.139-.46l.5-1.169a3.649,3.649,0,0,0,1.579.4c.769,0,1.169-.32,1.169-.95v-.739a1.935,1.935,0,0,1-1.5.679A2.444,2.444,0,0,1,148.058,22.336Zm2.818,1.279a1.252,1.252,0,0,0,.959-.41V21.486a1.311,1.311,0,0,0-.959-.4,1.206,1.206,0,0,0-1.23,1.259A1.22,1.22,0,0,0,150.876,23.615Z"/>
      <path d="M154.468,23.465c0-.95.739-1.5,2.009-1.5a3.357,3.357,0,0,1,1.2.241v-.42c0-.5-.33-.75-1.019-.75a3.844,3.844,0,0,0-1.45.36l-.559-1.129a5.7,5.7,0,0,1,2.369-.56c1.429,0,2.258.71,2.258,1.939v3.3h-1.6v-.45a2.054,2.054,0,0,1-1.429.53A1.605,1.605,0,0,1,154.468,23.465Zm2.278.49a1.762,1.762,0,0,0,.93-.261v-.659a3.87,3.87,0,0,0-.889-.11c-.53,0-.83.18-.83.51S156.247,23.955,156.746,23.955Z"/>
      <path d="M161.027,21.036h-1V19.787h1V18.358l1.619-.33v1.759h1.379v1.249h-1.379v2c0,.46.18.62.68.62a2.165,2.165,0,0,0,.659-.11v1.309a4.5,4.5,0,0,1-1.109.16c-1.219,0-1.849-.56-1.849-1.659Z"/>
      <path d="M167.416,25.044a2.666,2.666,0,0,1-2.718-2.668,2.587,2.587,0,0,1,2.6-2.679,2.534,2.534,0,0,1,2.539,2.738v.35h-3.548a1.236,1.236,0,0,0,1.209.97,1.277,1.277,0,0,0,1.02-.43l1.069.89A3.008,3.008,0,0,1,167.416,25.044Zm-1.129-3.178h2.048a1.073,1.073,0,0,0-1.049-.91A1.023,1.023,0,0,0,166.287,21.866Z"/>
      <path d="M174.465,24.275a1.947,1.947,0,0,1-1.519.7,2.457,2.457,0,0,1-2.279-2.618,2.486,2.486,0,0,1,2.4-2.6,1.8,1.8,0,0,1,1.379.62V17.8l1.619-.25v7.4h-1.6Zm-.979-.64a1.254,1.254,0,0,0,.959-.41V21.486a1.313,1.313,0,0,0-.959-.4,1.275,1.275,0,0,0,0,2.549Z"/>
      <path d="M180.387,24.944l-1.38-5.157h1.53l.719,3.078.87-3.078h1.329l.859,3.068.71-3.068h1.49l-1.37,5.157h-1.539l-.839-3.038-.82,3.038Z"/>
      <path d="M187.307,19.787h1.619v1.169c.33-.859.789-1.269,1.4-1.269a1.106,1.106,0,0,1,.54.13v1.389a1.775,1.775,0,0,0-.76-.16,1.424,1.424,0,0,0-1.179.64v3.258h-1.619Z"/>
      <path d="M191.627,18.088a.915.915,0,0,1,1.829,0,.915.915,0,0,1-1.829,0Zm1.719,6.856h-1.619V19.787h1.619Z"/>
      <path d="M195.286,21.036h-1V19.787h1V18.358l1.619-.33v1.759h1.38v1.249h-1.38v2c0,.46.18.62.68.62a2.17,2.17,0,0,0,.66-.11v1.309a4.507,4.507,0,0,1-1.11.16c-1.219,0-1.849-.56-1.849-1.659Z"/>
      <path d="M201.675,25.044a2.666,2.666,0,0,1-2.718-2.668,2.587,2.587,0,0,1,2.6-2.679,2.534,2.534,0,0,1,2.538,2.738v.35h-3.548a1.237,1.237,0,0,0,1.209.97,1.277,1.277,0,0,0,1.02-.43l1.069.89A3.006,3.006,0,0,1,201.675,25.044Zm-1.129-3.178H202.6a1.074,1.074,0,0,0-1.05-.91A1.024,1.024,0,0,0,200.546,21.866Z"/>
      <path d="M207.936,21.036h-1V19.787h1V18.358l1.619-.33v1.759h1.379v1.249h-1.379v2c0,.46.18.62.68.62a2.161,2.161,0,0,0,.659-.11v1.309a4.493,4.493,0,0,1-1.109.16c-1.219,0-1.849-.56-1.849-1.659Z"/>
      <path d="M211.837,17.8l1.618-.25v3.079a1.9,1.9,0,0,1,1.63-.92,1.667,1.667,0,0,1,1.709,1.759v3.478h-1.619V21.936a.859.859,0,0,0-.86-.96,1.043,1.043,0,0,0-.86.43v3.538h-1.618Z"/>
      <path d="M218.017,19.787h1.618v1.169c.33-.859.79-1.269,1.4-1.269a1.1,1.1,0,0,1,.539.13v1.389a1.77,1.77,0,0,0-.759-.16,1.426,1.426,0,0,0-1.18.64v3.258h-1.618Z"/>
      <path d="M224.745,19.707a2.669,2.669,0,1,1-2.688,2.669A2.625,2.625,0,0,1,224.745,19.707Zm1.119,2.669a1.13,1.13,0,1,0-2.228,0,1.127,1.127,0,1,0,2.228,0Z"/>
      <path d="M230.056,22.8a.858.858,0,0,0,.859.96,1.041,1.041,0,0,0,.859-.43V19.787h1.619v5.157h-1.619v-.839a1.9,1.9,0,0,1-1.629.919,1.667,1.667,0,0,1-1.709-1.759V19.787h1.62Z"/>
      <path d="M234.427,22.336a2.474,2.474,0,0,1,2.4-2.579,1.8,1.8,0,0,1,1.4.649v-.619h1.588v5.227c0,1.389-.959,2.159-2.718,2.159a4.937,4.937,0,0,1-2.139-.46l.5-1.169a3.652,3.652,0,0,0,1.579.4c.77,0,1.17-.32,1.17-.95v-.739a1.939,1.939,0,0,1-1.5.679A2.444,2.444,0,0,1,234.427,22.336Zm2.818,1.279a1.254,1.254,0,0,0,.96-.41V21.486a1.314,1.314,0,0,0-.96-.4,1.206,1.206,0,0,0-1.229,1.259A1.219,1.219,0,0,0,237.245,23.615Z"/>
      <path d="M241.077,17.8l1.618-.25v3.079a1.9,1.9,0,0,1,1.63-.92,1.667,1.667,0,0,1,1.709,1.759v3.478h-1.62V21.936a.858.858,0,0,0-.859-.96,1.043,1.043,0,0,0-.86.43v3.538h-1.618Z"/>
      <path d="M249.715,19.707a2.669,2.669,0,1,1-2.689,2.669A2.625,2.625,0,0,1,249.715,19.707Zm1.119,2.669a1.13,1.13,0,1,0-2.229,0,1.127,1.127,0,1,0,2.229,0Z"/>
      <path d="M255.025,22.8a.859.859,0,0,0,.86.96,1.042,1.042,0,0,0,.859-.43V19.787h1.619v5.157h-1.619v-.839a1.9,1.9,0,0,1-1.629.919,1.667,1.667,0,0,1-1.709-1.759V19.787h1.619Z"/>
      <path d="M260.306,21.036h-1V19.787h1V18.358l1.619-.33v1.759H263.3v1.249h-1.379v2c0,.46.18.62.679.62a2.17,2.17,0,0,0,.66-.11v1.309a4.5,4.5,0,0,1-1.109.16c-1.22,0-1.849-.56-1.849-1.659Z"/>
    </g>
    <g>
      <path d="M38.129,34.861c0-1.815,1.039-3.022,2.607-3.022a2.522,2.522,0,0,1,1.487.48l-.48.647a1.778,1.778,0,0,0-1.079-.344c-1.04,0-1.647.816-1.663,2.223a1.937,1.937,0,0,1,1.543-.816,1.733,1.733,0,0,1,1.871,1.72,1.848,1.848,0,0,1-1.967,1.839C39.073,37.588,38.129,36.476,38.129,34.861Zm.911.536c.137.872.665,1.439,1.376,1.439a1.077,1.077,0,0,0,1.143-1.063,1.055,1.055,0,0,0-1.151-1.048A1.753,1.753,0,0,0,39.04,35.4Z"/>
      <path d="M43.209,34.709c0-1.7.928-2.878,2.287-2.878s2.287,1.175,2.287,2.878c0,1.719-.92,2.887-2.287,2.887S43.209,36.428,43.209,34.709Zm3.7,0c0-1.287-.552-2.1-1.415-2.1s-1.416.823-1.416,2.1c0,1.3.552,2.111,1.416,2.111S46.911,36.013,46.911,34.709Z"/>
      <path d="M51.592,35.477,50.129,33.51h1.055l.936,1.319.936-1.319h1.007l-1.44,1.943,1.552,2.063H53.111L52.1,36.1,51.1,37.516H50.089Z"/>
      <path d="M56.7,31.919h.959v2.358h2.782V31.919h.96v5.6h-.96v-2.4H57.656v2.4H56.7Z"/>
      <path d="M62.705,31.919h2.046a2.8,2.8,0,1,1,0,5.6H62.705Zm.959.831v3.934h1.112a1.976,1.976,0,0,0,0-3.934Z"/>
      <path d="M68.641,31.919h2.047a2.8,2.8,0,1,1,0,5.6H68.641Zm.959.831v3.934h1.112a1.976,1.976,0,0,0,0-3.934Z"/>
      <path d="M78.951,37.6a2.887,2.887,0,1,1,2.83-2.887A2.833,2.833,0,0,1,78.951,37.6Zm.008-4.917a2.034,2.034,0,0,0,0,4.053,2.036,2.036,0,0,0,0-4.053Z"/>
      <path d="M82.9,35.988a2.8,2.8,0,0,0,1.88.816c.743,0,1.254-.376,1.254-.887,0-.456-.271-.664-1.015-.8l-1.031-.176c-.968-.176-1.439-.656-1.439-1.423,0-1.008.807-1.679,2.063-1.679a3.734,3.734,0,0,1,2.246.728l-.488.719a2.9,2.9,0,0,0-1.791-.648c-.671,0-1.111.336-1.111.792,0,.4.248.608.863.7l.992.177c1.128.192,1.655.687,1.655,1.535,0,1.023-.911,1.751-2.247,1.751a3.522,3.522,0,0,1-2.35-.9Z"/>
      <path d="M87.96,31.919h2.047a2.8,2.8,0,1,1,0,5.6H87.96Zm.959.831v3.934h1.112a1.976,1.976,0,0,0,0-3.934Z"/>
      <path d="M99.854,36.005l.631.607a2.872,2.872,0,1,1,.024-3.79l-.647.64a1.969,1.969,0,1,0-1.5,3.27A1.9,1.9,0,0,0,99.854,36.005Z"/>
      <path d="M103.1,37.6a2.037,2.037,0,0,1-2.039-2.079,1.973,1.973,0,0,1,1.951-2.071,1.923,1.923,0,0,1,1.895,2.063v.224h-2.958a1.223,1.223,0,0,0,1.2,1.1,1.3,1.3,0,0,0,.951-.376l.592.552A2.315,2.315,0,0,1,103.1,37.6Zm-1.135-2.415h2.087a1.1,1.1,0,0,0-1.048-1A1.076,1.076,0,0,0,101.968,35.181Z"/>
      <path d="M105.832,33.51h.888v.576a1.507,1.507,0,0,1,1.247-.608,1.922,1.922,0,0,1,1.815,2.039,1.942,1.942,0,0,1-1.879,2.039,1.5,1.5,0,0,1-1.167-.52v2.175h-.9Zm.9,1.175v1.672a1.228,1.228,0,0,0,.959.439,1.283,1.283,0,0,0,0-2.559A1.175,1.175,0,0,0,106.736,34.685Z"/>
      <path d="M110.72,31.8l.9-.152v2.519a1.453,1.453,0,0,1,1.271-.72,1.348,1.348,0,0,1,1.383,1.431v2.639h-.9V35.133a.863.863,0,0,0-.879-.96,1.028,1.028,0,0,0-.872.48v2.863h-.9Z"/>
      <path d="M120.038,36.357l.544.543a2.084,2.084,0,0,1-1.567.7,2.072,2.072,0,0,1,0-4.142,2.158,2.158,0,0,1,1.6.672l-.56.583a1.326,1.326,0,0,0-1.007-.472,1.285,1.285,0,0,0,.024,2.559A1.232,1.232,0,0,0,120.038,36.357Z"/>
      <path d="M122.264,37.516h-.9V31.8l.9-.152Z"/>
      <path d="M124.255,35.893a.863.863,0,0,0,.88.959,1.012,1.012,0,0,0,.879-.495V33.51h.9v4.006h-.9v-.664a1.464,1.464,0,0,1-1.279.728,1.344,1.344,0,0,1-1.384-1.431V33.51h.9Z"/>
      <path d="M128.1,36.444a2.307,2.307,0,0,0,1.287.456c.48,0,.808-.216.808-.536,0-.248-.168-.383-.552-.455l-.712-.12c-.775-.144-1.159-.5-1.159-1.1,0-.751.616-1.239,1.551-1.239a2.817,2.817,0,0,1,1.575.48l-.423.591a2.2,2.2,0,0,0-1.208-.384c-.416,0-.687.177-.687.473,0,.255.143.367.567.439l.7.128c.8.152,1.183.52,1.183,1.12a1.468,1.468,0,0,1-1.631,1.3,2.688,2.688,0,0,1-1.727-.544Z"/>
      <path d="M132.28,34.23h-.808v-.72h.808v-1.1l.9-.191V33.51H134.3v.72h-1.119v2.03c0,.392.152.544.56.544a1.665,1.665,0,0,0,.544-.1v.76a2.849,2.849,0,0,1-.776.112c-.808,0-1.231-.384-1.231-1.12Z"/>
      <path d="M136.894,37.6a2.036,2.036,0,0,1-2.038-2.079,1.972,1.972,0,0,1,1.951-2.071,1.923,1.923,0,0,1,1.9,2.063v.224h-2.959a1.224,1.224,0,0,0,1.2,1.1,1.3,1.3,0,0,0,.951-.376l.592.552A2.318,2.318,0,0,1,136.894,37.6Zm-1.135-2.415h2.087a1.1,1.1,0,0,0-1.047-1A1.076,1.076,0,0,0,135.759,35.181Z"/>
      <path d="M139.623,33.51h.9v.871a1.189,1.189,0,0,1,1.1-.943,1.067,1.067,0,0,1,.392.08v.792a1.273,1.273,0,0,0-.5-.1,1.1,1.1,0,0,0-1,.663v2.639h-.9Z"/>
      <path d="M143.1,36.732l-.784,2.111h-.663l.535-2.111Z"/>
      <path d="M148.758,32.694h-3.206v-.775h4.165v.655l-2.534,4.942H146.16Z"/>
      <path d="M153.375,35.477l-1.463-1.967h1.055l.936,1.319.935-1.319h1.008l-1.44,1.943,1.551,2.063h-1.063L153.887,36.1l-1.008,1.415h-1.008Z"/>
      <path d="M158.519,31.919h2.487a1.706,1.706,0,0,1,1.871,1.695,1.592,1.592,0,0,1-1.1,1.535l1.176,2.367h-1.064l-1.079-2.239h-1.327v2.239h-.96Zm.96.807v1.783h1.447a.9.9,0,1,0,0-1.783Z"/>
      <path d="M163.5,36.364c0-.719.584-1.175,1.528-1.175a2.476,2.476,0,0,1,1.079.248V35c0-.528-.3-.8-.92-.8a2.784,2.784,0,0,0-1.167.312l-.32-.655a3.844,3.844,0,0,1,1.663-.408c1.04,0,1.639.528,1.639,1.455v2.615h-.895v-.408a1.673,1.673,0,0,1-1.192.472A1.263,1.263,0,0,1,163.5,36.364Zm1.663.584a1.429,1.429,0,0,0,.944-.328v-.655a2.073,2.073,0,0,0-.927-.192c-.512,0-.832.224-.832.575C164.351,36.716,164.671,36.948,165.166,36.948Z"/>
      <path d="M170.965,36.98a1.54,1.54,0,0,1-1.231.576,2.05,2.05,0,0,1,.056-4.078,1.526,1.526,0,0,1,1.167.528V31.8l.9-.152v5.869h-.9Zm-.959-.184a1.2,1.2,0,0,0,.951-.439V34.669a1.243,1.243,0,0,0-.951-.432,1.283,1.283,0,0,0,0,2.559Z"/>
      <path d="M174.814,33.446a2.076,2.076,0,1,1-2.015,2.071A2,2,0,0,1,174.814,33.446Zm1.12,2.079a1.132,1.132,0,1,0-2.239,0,1.13,1.13,0,1,0,2.239,0Z"/>
      <path d="M177.831,36.444a2.307,2.307,0,0,0,1.288.456c.479,0,.807-.216.807-.536,0-.248-.168-.383-.552-.455l-.711-.12c-.776-.144-1.16-.5-1.16-1.1,0-.751.616-1.239,1.552-1.239a2.814,2.814,0,0,1,1.574.48l-.423.591A2.2,2.2,0,0,0,179,34.133c-.416,0-.687.177-.687.473,0,.255.144.367.567.439l.7.128c.8.152,1.184.52,1.184,1.12a1.469,1.469,0,0,1-1.632,1.3,2.688,2.688,0,0,1-1.727-.544Z"/>
      <path d="M183.669,37.556a1.49,1.49,0,0,1-1.183-.56v.52H181.6V31.8l.9-.152v2.4a1.559,1.559,0,0,1,1.231-.568,1.922,1.922,0,0,1,1.815,2.039A1.942,1.942,0,0,1,183.669,37.556ZM182.5,34.685v1.672a1.231,1.231,0,0,0,.96.439,1.283,1.283,0,0,0,0-2.559A1.177,1.177,0,0,0,182.5,34.685Z"/>
      <path d="M188.366,37.6a2.037,2.037,0,0,1-2.039-2.079,1.972,1.972,0,0,1,1.951-2.071,1.923,1.923,0,0,1,1.9,2.063v.224h-2.959a1.224,1.224,0,0,0,1.2,1.1,1.3,1.3,0,0,0,.952-.376l.592.552A2.315,2.315,0,0,1,188.366,37.6Zm-1.136-2.415h2.087a1.1,1.1,0,0,0-1.047-1A1.076,1.076,0,0,0,187.23,35.181Z"/>
      <path d="M191.1,33.51h.9v.656a1.454,1.454,0,0,1,1.271-.72,1.348,1.348,0,0,1,1.384,1.431v2.639h-.9V35.133a.862.862,0,0,0-.879-.96,1.028,1.028,0,0,0-.872.48v2.863h-.9Z"/>
      <path d="M198.613,36.357l.544.543a2.085,2.085,0,0,1-1.568.7,2.072,2.072,0,0,1,0-4.142,2.16,2.16,0,0,1,1.6.672l-.56.583a1.328,1.328,0,0,0-1.008-.472,1.285,1.285,0,0,0,.024,2.559A1.234,1.234,0,0,0,198.613,36.357Z"/>
      <path d="M199.934,31.8l.9-.152v2.519a1.454,1.454,0,0,1,1.271-.72,1.348,1.348,0,0,1,1.384,1.431v2.639h-.9V35.133a.863.863,0,0,0-.88-.96,1.027,1.027,0,0,0-.871.48v2.863h-.9Z"/>
      <path d="M209.252,36.357l.544.543a2.082,2.082,0,0,1-1.567.7,2.072,2.072,0,0,1,0-4.142,2.16,2.16,0,0,1,1.6.672l-.561.583a1.324,1.324,0,0,0-1.007-.472,1.285,1.285,0,0,0,.024,2.559A1.23,1.23,0,0,0,209.252,36.357Z"/>
      <path d="M211.478,37.516h-.9V31.8l.9-.152Z"/>
      <path d="M212.478,32.143a.564.564,0,0,1,1.128,0,.564.564,0,0,1-1.128,0Zm1.016,5.373h-.9V33.51h.9Z"/>
      <path d="M216.461,37.6a2.037,2.037,0,0,1-2.039-2.079,1.973,1.973,0,0,1,1.951-2.071,1.923,1.923,0,0,1,1.9,2.063v.224h-2.959a1.224,1.224,0,0,0,1.2,1.1,1.3,1.3,0,0,0,.951-.376l.592.552A2.317,2.317,0,0,1,216.461,37.6Zm-1.135-2.415h2.087a1.1,1.1,0,0,0-1.048-1A1.076,1.076,0,0,0,215.326,35.181Z"/>
      <path d="M219.19,33.51h.9v.656a1.452,1.452,0,0,1,1.271-.72,1.348,1.348,0,0,1,1.383,1.431v2.639h-.9V35.133a.863.863,0,0,0-.88-.96,1.025,1.025,0,0,0-.871.48v2.863h-.9Z"/>
      <path d="M224.222,34.23h-.808v-.72h.808v-1.1l.9-.191V33.51h1.12v.72h-1.12v2.03c0,.392.152.544.56.544a1.66,1.66,0,0,0,.544-.1v.76a2.844,2.844,0,0,1-.776.112c-.808,0-1.231-.384-1.231-1.12Z"/>
      <path d="M227.182,36.444a2.307,2.307,0,0,0,1.287.456c.48,0,.808-.216.808-.536,0-.248-.168-.383-.552-.455l-.712-.12c-.775-.144-1.159-.5-1.159-1.1,0-.751.616-1.239,1.551-1.239a2.817,2.817,0,0,1,1.575.48l-.423.591a2.2,2.2,0,0,0-1.208-.384c-.416,0-.687.177-.687.473,0,.255.143.367.567.439l.7.128c.8.152,1.183.52,1.183,1.12a1.468,1.468,0,0,1-1.631,1.3,2.686,2.686,0,0,1-1.727-.544Z"/>
      <path d="M231.87,37a.56.56,0,1,1-.56-.583A.572.572,0,0,1,231.87,37Z"/>
    </g>
  </g>
  <path d="M103.993,223.579h-.924V220.34l-.827.342v-.815l1.169-.486h.582Z"/>
  <path d="M166.871,222.919l1.776-1.757a.785.785,0,0,0,.282-.557c0-.27-.265-.474-.618-.474a1.45,1.45,0,0,0-1.062.515l-.515-.629a2.3,2.3,0,0,1,1.607-.69c.893,0,1.487.486,1.487,1.218a1.467,1.467,0,0,1-.546,1.085l-1.211,1.169,1.817-.006v.786h-3.017Z"/>
  <path d="M233.445,223.639a2.191,2.191,0,0,1-1.655-.678l.624-.576a1.189,1.189,0,0,0,1.019.444c.456,0,.756-.2.756-.515,0-.265-.216-.433-.552-.433H233.1v-.761h.443c.342,0,.546-.174.546-.468s-.282-.515-.66-.515a1.167,1.167,0,0,0-.977.479l-.63-.569a2.2,2.2,0,0,1,1.643-.732c.918,0,1.554.5,1.554,1.212a1.014,1.014,0,0,1-.792.959.973.973,0,0,1,.9.905C235.124,223.117,234.423,223.639,233.445,223.639Z"/>
  <path d="M300,221.852h.5v.785H300v.942h-.924v-.942h-2.243v-.761l2.087-2.5H300Zm-.924,0V220.3l-1.283,1.548Z"/>
  <path d="M362.439,219.381h2.746v.786h-1.972l-.042.941a1.816,1.816,0,0,1,.821-.192,1.275,1.275,0,0,1,1.415,1.278c0,.869-.695,1.451-1.726,1.451a2.3,2.3,0,0,1-1.536-.564l.552-.641a1.543,1.543,0,0,0,1.031.407c.438,0,.732-.24.732-.606s-.329-.611-.774-.611a1.434,1.434,0,0,0-.7.2l-.648-.192Z"/>
  <path d="M427.265,221.546a2.025,2.025,0,0,1,2.038-2.237,1.982,1.982,0,0,1,1.277.456l-.533.659a1.177,1.177,0,0,0-.816-.287c-.683,0-1.049.515-1.049,1.439a1.309,1.309,0,0,1,1.073-.594,1.291,1.291,0,0,1,1.409,1.272,1.439,1.439,0,0,1-1.553,1.391A1.88,1.88,0,0,1,427.265,221.546Zm.97.522a.9.9,0,0,0,.828.785.63.63,0,0,0,.7-.581.592.592,0,0,0-.659-.57A1.172,1.172,0,0,0,428.235,222.068Z"/>
  <path d="M494.753,220.2h-2.279v-.815h3.28v.689l-1.692,3.509h-1.109Z"/>
  <g>
    <path d="M38.1,98.211l1.721-1.8a1.125,1.125,0,0,0,.408-.792A.685.685,0,0,0,39.456,95a1.512,1.512,0,0,0-1.085.515L38,95.069a2.124,2.124,0,0,1,1.475-.636c.822,0,1.385.468,1.385,1.145a1.6,1.6,0,0,1-.6,1.17l-1.344,1.385,2.021-.012v.564H38.1Z"/>
    <path d="M42.384,98.1,41.8,99.68h-.5l.4-1.583Z"/>
    <path d="M42.871,96.58c0-1.278.7-2.159,1.715-2.159S46.3,95.3,46.3,96.58s-.69,2.165-1.715,2.165S42.871,97.869,42.871,96.58Zm2.776,0c0-.966-.414-1.577-1.061-1.577s-1.062.617-1.062,1.577.414,1.583,1.062,1.583S45.647,97.557,45.647,96.58Z"/>
    <path d="M46.914,96.58c0-1.278.7-2.159,1.716-2.159s1.715.881,1.715,2.159-.69,2.165-1.715,2.165S46.914,97.869,46.914,96.58Zm2.777,0c0-.966-.414-1.577-1.061-1.577s-1.062.617-1.062,1.577.414,1.583,1.062,1.583S49.691,97.557,49.691,96.58Z"/>
    <path d="M50.958,96.58c0-1.278.7-2.159,1.716-2.159s1.715.881,1.715,2.159-.69,2.165-1.715,2.165S50.958,97.869,50.958,96.58Zm2.777,0c0-.966-.414-1.577-1.061-1.577s-1.062.617-1.062,1.577.414,1.583,1.062,1.583S53.735,97.557,53.735,96.58Z"/>
  </g>
  <g>
    <path d="M41.184,127.636H40.53v-3.514l-.743.324v-.582l.983-.425h.414Z"/>
    <path d="M42.792,127.048l-.587,1.584h-.5l.4-1.584Z"/>
    <path d="M43.555,123.439h2.554V124h-2l-.053,1.217a1.86,1.86,0,0,1,.875-.21,1.268,1.268,0,0,1,1.4,1.271,1.435,1.435,0,0,1-1.589,1.421,2.115,2.115,0,0,1-1.475-.57l.4-.449a1.556,1.556,0,0,0,1.1.449.809.809,0,1,0-.018-1.606,1.772,1.772,0,0,0-.834.221l-.455-.137Z"/>
    <path d="M46.914,125.531c0-1.277.7-2.158,1.716-2.158s1.715.881,1.715,2.158-.69,2.165-1.715,2.165S46.914,126.821,46.914,125.531Zm2.777,0c0-.965-.414-1.577-1.061-1.577s-1.062.618-1.062,1.577.414,1.584,1.062,1.584S49.691,126.509,49.691,125.531Z"/>
    <path d="M50.958,125.531c0-1.277.7-2.158,1.716-2.158s1.715.881,1.715,2.158-.69,2.165-1.715,2.165S50.958,126.821,50.958,125.531Zm2.777,0c0-.965-.414-1.577-1.061-1.577s-1.062.618-1.062,1.577.414,1.584,1.062,1.584S53.735,126.509,53.735,125.531Z"/>
  </g>
  <g>
    <path d="M40.776,157.053h-.654v-3.514l-.744.323v-.581l.984-.426h.414Z"/>
    <path d="M42.384,156.465l-.588,1.583h-.5l.4-1.583Z"/>
    <path d="M42.871,154.948c0-1.277.7-2.159,1.715-2.159s1.715.882,1.715,2.159-.69,2.165-1.715,2.165S42.871,156.237,42.871,154.948Zm2.776,0c0-.965-.414-1.577-1.061-1.577s-1.062.617-1.062,1.577.414,1.583,1.062,1.583S45.647,155.925,45.647,154.948Z"/>
    <path d="M46.914,154.948c0-1.277.7-2.159,1.716-2.159s1.715.882,1.715,2.159-.69,2.165-1.715,2.165S46.914,156.237,46.914,154.948Zm2.777,0c0-.965-.414-1.577-1.061-1.577s-1.062.617-1.062,1.577.414,1.583,1.062,1.583S49.691,155.925,49.691,154.948Z"/>
    <path d="M50.958,154.948c0-1.277.7-2.159,1.716-2.159s1.715.882,1.715,2.159-.69,2.165-1.715,2.165S50.958,156.237,50.958,154.948Zm2.777,0c0-.965-.414-1.577-1.061-1.577s-1.062.617-1.062,1.577.414,1.583,1.062,1.583S53.735,155.925,53.735,154.948Z"/>
  </g>
  <g>
    <path d="M43.555,182.039h2.554v.564h-2l-.053,1.217a1.86,1.86,0,0,1,.875-.21,1.268,1.268,0,0,1,1.4,1.271,1.435,1.435,0,0,1-1.589,1.421,2.115,2.115,0,0,1-1.475-.569l.4-.45a1.557,1.557,0,0,0,1.1.45.809.809,0,1,0-.018-1.607,1.772,1.772,0,0,0-.834.221l-.455-.137Z"/>
    <path d="M46.914,184.131c0-1.277.7-2.158,1.716-2.158s1.715.881,1.715,2.158-.69,2.166-1.715,2.166S46.914,185.421,46.914,184.131Zm2.777,0c0-.965-.414-1.577-1.061-1.577s-1.062.618-1.062,1.577.414,1.584,1.062,1.584S49.691,185.109,49.691,184.131Z"/>
    <path d="M50.958,184.131c0-1.277.7-2.158,1.716-2.158s1.715.881,1.715,2.158-.69,2.166-1.715,2.166S50.958,185.421,50.958,184.131Zm2.777,0c0-.965-.414-1.577-1.061-1.577s-1.062.618-1.062,1.577.414,1.584,1.062,1.584S53.735,185.109,53.735,184.131Z"/>
  </g>
  <path d="M50.958,212.444c0-1.277.7-2.159,1.716-2.159s1.715.882,1.715,2.159-.69,2.165-1.715,2.165S50.958,213.734,50.958,212.444Zm2.777,0c0-.965-.414-1.577-1.061-1.577s-1.062.618-1.062,1.577.414,1.583,1.062,1.583S53.735,213.422,53.735,212.444Z"/>
  <line class="cls-3" x1="541.798" y1="184.574" x2="539.24" y2="184.574"/>
  <line class="cls-3" x1="541.798" y1="155.391" x2="539.24" y2="155.391"/>
  <line class="cls-3" x1="541.798" y1="126.079" x2="539.24" y2="126.079"/>
  <line class="cls-3" x1="541.798" y1="97.416" x2="539.24" y2="97.416"/>
  <line class="cls-3" x1="541.798" y1="67.879" x2="539.24" y2="67.879"/>
  <g>
    <path d="M544.674,65.521h2.554v.564h-2l-.053,1.217a1.864,1.864,0,0,1,.876-.21,1.267,1.267,0,0,1,1.4,1.271,1.435,1.435,0,0,1-1.589,1.422,2.113,2.113,0,0,1-1.474-.57l.4-.45a1.561,1.561,0,0,0,1.1.45.809.809,0,1,0-.019-1.607,1.773,1.773,0,0,0-.833.222l-.456-.138Z"/>
    <path d="M548.034,67.614c0-1.277.7-2.159,1.715-2.159s1.715.882,1.715,2.159-.69,2.165-1.715,2.165S548.034,68.9,548.034,67.614Zm2.776,0c0-.965-.414-1.577-1.061-1.577s-1.062.617-1.062,1.577.414,1.583,1.062,1.583S550.81,68.591,550.81,67.614Z"/>
    <path d="M551.94,66.565c0-.648.366-1.08.906-1.08s.9.432.9,1.08-.365,1.085-.9,1.085S551.94,67.224,551.94,66.565Zm1.4,0c0-.438-.2-.708-.5-.708s-.493.27-.493.708.193.713.493.713S553.344,67.014,553.344,66.565Zm-.708,3.154,2.369-4.2h.5l-2.374,4.2Zm1.793-1.055c0-.648.366-1.08.9-1.08s.906.432.906,1.08-.366,1.085-.906,1.085S554.429,69.323,554.429,68.664Zm1.4,0c0-.438-.2-.708-.5-.708s-.491.27-.491.708.191.713.491.713S555.832,69.113,555.832,68.664Z"/>
  </g>
  <g>
    <path d="M547.331,97.566h.539v.564h-.539v1.037h-.654V98.13h-2.255V97.6l2.165-2.627h.744Zm-.654,0V95.671l-1.553,1.895Z"/>
    <path d="M548.393,97.062c0-1.277.7-2.159,1.716-2.159s1.715.882,1.715,2.159-.689,2.165-1.715,2.165S548.393,98.352,548.393,97.062Zm2.778,0c0-.965-.414-1.577-1.062-1.577s-1.061.618-1.061,1.577.413,1.584,1.061,1.584S551.171,98.04,551.171,97.062Z"/>
    <path d="M552.3,96.013c0-.648.366-1.08.905-1.08s.906.432.906,1.08-.366,1.085-.906,1.085S552.3,96.673,552.3,96.013Zm1.4,0c0-.438-.2-.708-.5-.708s-.491.27-.491.708.191.714.491.714S553.7,96.463,553.7,96.013ZM553,99.167l2.368-4.2h.5l-2.375,4.2Zm1.793-1.055c0-.648.365-1.08.9-1.08s.906.432.906,1.08-.367,1.085-.906,1.085S554.789,98.771,554.789,98.112Zm1.4,0c0-.438-.2-.708-.5-.708s-.492.27-.492.708.192.713.492.713S556.191,98.562,556.191,98.112Z"/>
  </g>
  <g>
    <path d="M545.8,186.236h-.655v-3.514l-.743.324v-.582l.984-.426h.414Z"/>
    <path d="M546.54,184.131c0-1.277.7-2.159,1.715-2.159s1.715.882,1.715,2.159-.69,2.165-1.715,2.165S546.54,185.421,546.54,184.131Zm2.776,0c0-.965-.414-1.577-1.061-1.577s-1.062.618-1.062,1.577.414,1.584,1.062,1.584S549.316,185.109,549.316,184.131Z"/>
    <path d="M550.446,183.082c0-.648.365-1.08.9-1.08s.906.432.906,1.08-.365,1.085-.906,1.085S550.446,183.741,550.446,183.082Zm1.4,0c0-.438-.2-.708-.5-.708s-.492.27-.492.708.193.714.492.714S551.85,183.531,551.85,183.082Zm-.708,3.154,2.369-4.2h.5l-2.374,4.2Zm1.792-1.055c0-.648.367-1.08.906-1.08s.906.432.906,1.08-.366,1.085-.906,1.085S552.934,185.84,552.934,185.181Zm1.4,0c0-.438-.2-.708-.5-.708s-.491.27-.491.708.191.713.491.713S554.338,185.631,554.338,185.181Z"/>
  </g>
  <g>
    <path d="M544.488,156.579l1.721-1.8a1.121,1.121,0,0,0,.408-.791.685.685,0,0,0-.767-.618,1.517,1.517,0,0,0-1.086.516l-.372-.449a2.125,2.125,0,0,1,1.475-.636c.822,0,1.386.468,1.386,1.145a1.6,1.6,0,0,1-.6,1.169l-1.344,1.386,2.022-.012v.564h-2.843Z"/>
    <path d="M547.908,154.947c0-1.277.695-2.158,1.715-2.158s1.715.881,1.715,2.158-.69,2.165-1.715,2.165S547.908,156.237,547.908,154.947Zm2.776,0c0-.964-.414-1.577-1.061-1.577s-1.062.618-1.062,1.577.415,1.584,1.062,1.584S550.684,155.925,550.684,154.947Z"/>
    <path d="M551.814,153.9c0-.648.366-1.08.906-1.08s.9.432.9,1.08-.365,1.085-.9,1.085S551.814,154.558,551.814,153.9Zm1.4,0c0-.438-.2-.708-.5-.708s-.493.27-.493.708.193.713.493.713S553.218,154.348,553.218,153.9Zm-.708,3.154,2.369-4.2h.5l-2.374,4.2ZM554.3,156c0-.647.366-1.079.9-1.079s.906.432.906,1.079-.366,1.085-.906,1.085S554.3,156.656,554.3,156Zm1.4,0c0-.437-.2-.708-.5-.708s-.491.271-.491.708.191.714.491.714S555.706,156.447,555.706,156Z"/>
  </g>
  <g>
    <path d="M545.934,127.7a2.109,2.109,0,0,1-1.554-.63l.444-.414a1.377,1.377,0,0,0,1.1.468c.539,0,.911-.281.911-.7a.663.663,0,0,0-.743-.629h-.523v-.546h.468a.608.608,0,0,0,.666-.629.725.725,0,0,0-.8-.666,1.3,1.3,0,0,0-1.043.5l-.444-.414a2.033,2.033,0,0,1,1.512-.666,1.279,1.279,0,0,1,1.432,1.176,1.008,1.008,0,0,1-.815.959,1.04,1.04,0,0,1,.948.959C547.5,127.18,546.845,127.7,545.934,127.7Z"/>
    <path d="M548.106,125.531c0-1.277.7-2.159,1.715-2.159s1.715.882,1.715,2.159-.689,2.165-1.715,2.165S548.106,126.82,548.106,125.531Zm2.777,0c0-.965-.414-1.577-1.062-1.577s-1.061.617-1.061,1.577.414,1.583,1.061,1.583S550.883,126.508,550.883,125.531Z"/>
    <path d="M552.013,124.482c0-.648.365-1.08.9-1.08s.9.432.9,1.08-.365,1.085-.9,1.085S552.013,125.141,552.013,124.482Zm1.4,0c0-.438-.2-.708-.5-.708s-.492.27-.492.708.192.713.492.713S553.416,124.931,553.416,124.482Zm-.708,3.154,2.369-4.2h.5l-2.374,4.2Zm1.793-1.055c0-.648.366-1.08.9-1.08s.906.432.906,1.08-.366,1.085-.906,1.085S554.5,127.24,554.5,126.581Zm1.4,0c0-.438-.2-.708-.5-.708s-.491.27-.491.708.191.713.491.713S555.9,127.03,555.9,126.581Z"/>
  </g>
  <path d="M544.489,212.444c0-1.277.695-2.159,1.715-2.159s1.715.882,1.715,2.159-.69,2.165-1.715,2.165S544.489,213.734,544.489,212.444Zm2.777,0c0-.965-.415-1.577-1.062-1.577s-1.062.618-1.062,1.577.415,1.583,1.062,1.583S547.266,213.422,547.266,212.444Z"/>
  <circle class="cls-5" cx="101.006" cy="97.455" r="3.036"/>
  <circle class="cls-5" cx="167.641" cy="132.738" r="3.036"/>
  <circle class="cls-5" cx="231.675" cy="139.601" r="3.036"/>
  <path class="cls-5" d="M300.674,111.144a3.036,3.036,0,1,1-3.036-3.037A3.042,3.042,0,0,1,300.674,111.144Z"/>
  <circle class="cls-5" cx="363.14" cy="129.702" r="3.036"/>
  <circle class="cls-5" cx="429.655" cy="91.085" r="3.036"/>
  <circle class="cls-5" cx="494.903" cy="154.104" r="3.036"/>
  <line class="cls-6" x1="103.205" y1="99.167" x2="163.605" y2="131.323"/>
  <line class="cls-6" x1="169.678" y1="132.738" x2="228.639" y2="139.601"/>
  <line class="cls-6" x1="234.711" y1="138.128" x2="294.926" y2="112.503"/>
  <line class="cls-6" x1="360.403" y1="128.394" x2="300.674" y2="111.144"/>
  <line class="cls-6" x1="365.877" y1="128.394" x2="427.188" y2="92.85"/>
  <line class="cls-6" x1="432.107" y1="92.869" x2="492.474" y2="152.289"/>
  <g>
    <path d="M237.394,145.238l1.722-1.8a1.127,1.127,0,0,0,.407-.792.684.684,0,0,0-.767-.618,1.513,1.513,0,0,0-1.086.516l-.371-.45a2.125,2.125,0,0,1,1.475-.635c.822,0,1.385.468,1.385,1.145a1.6,1.6,0,0,1-.6,1.17l-1.343,1.385,2.021-.012v.564h-2.843Z"/>
    <path d="M241,141.514h2.555v.564h-2l-.054,1.217a1.867,1.867,0,0,1,.876-.21,1.268,1.268,0,0,1,1.4,1.271,1.435,1.435,0,0,1-1.589,1.421,2.115,2.115,0,0,1-1.475-.569l.4-.45a1.561,1.561,0,0,0,1.1.45.809.809,0,1,0-.018-1.607,1.784,1.784,0,0,0-.834.221l-.455-.137Z"/>
  </g>
  <g>
    <path d="M292.788,106.658a2.11,2.11,0,0,1-1.553-.63l.444-.413a1.377,1.377,0,0,0,1.1.468c.539,0,.911-.282.911-.7a.663.663,0,0,0-.743-.63h-.522v-.545h.467a.609.609,0,0,0,.666-.63.725.725,0,0,0-.8-.666,1.3,1.3,0,0,0-1.044.5l-.444-.414a2.033,2.033,0,0,1,1.511-.665,1.28,1.28,0,0,1,1.434,1.175,1.008,1.008,0,0,1-.816.959,1.04,1.04,0,0,1,.948.96C294.354,106.143,293.7,106.658,292.788,106.658Z"/>
    <path d="M295.111,102.4h2.555v.564h-2l-.054,1.217a1.867,1.867,0,0,1,.876-.21,1.268,1.268,0,0,1,1.4,1.271,1.435,1.435,0,0,1-1.589,1.421,2.114,2.114,0,0,1-1.475-.57l.395-.449a1.56,1.56,0,0,0,1.1.449.809.809,0,1,0-.018-1.607,1.773,1.773,0,0,0-.834.222l-.455-.138Z"/>
  </g>
  <g>
    <path d="M366.483,136.091l1.721-1.8a1.123,1.123,0,0,0,.408-.791.684.684,0,0,0-.767-.618,1.513,1.513,0,0,0-1.086.516l-.371-.45a2.12,2.12,0,0,1,1.474-.635c.822,0,1.386.467,1.386,1.145a1.6,1.6,0,0,1-.6,1.169l-1.343,1.385,2.021-.011v.563h-2.843Z"/>
    <path d="M373.081,134.352a2.007,2.007,0,0,1-1.954,2.267,1.892,1.892,0,0,1-1.116-.36l.36-.485a1.337,1.337,0,0,0,.81.257c.779,0,1.235-.611,1.247-1.667a1.455,1.455,0,0,1-1.158.612,1.3,1.3,0,0,1-1.4-1.289,1.386,1.386,0,0,1,1.476-1.38A1.818,1.818,0,0,1,373.081,134.352Zm-.684-.4c-.1-.653-.5-1.079-1.031-1.079a.809.809,0,0,0-.857.8.79.79,0,0,0,.863.785A1.31,1.31,0,0,0,372.4,133.95Z"/>
  </g>
  <g>
    <path d="M423.375,86.717h.54v.563h-.54v1.038h-.653V87.28h-2.255v-.533l2.165-2.627h.743Zm-.653,0V84.822l-1.554,1.895Z"/>
    <path d="M424.366,87.844l1.722-1.8a1.121,1.121,0,0,0,.407-.791.684.684,0,0,0-.768-.618,1.513,1.513,0,0,0-1.085.516l-.372-.45a2.125,2.125,0,0,1,1.476-.635c.821,0,1.385.467,1.385,1.145a1.6,1.6,0,0,1-.6,1.169l-1.343,1.385,2.021-.011v.563h-2.843Z"/>
  </g>
  <g>
    <path d="M499.37,153.631l1.721-1.8a1.123,1.123,0,0,0,.408-.791.685.685,0,0,0-.768-.618,1.517,1.517,0,0,0-1.086.516l-.371-.45a2.122,2.122,0,0,1,1.475-.635c.822,0,1.386.467,1.386,1.145a1.6,1.6,0,0,1-.6,1.169l-1.344,1.385,2.022-.011v.563H499.37Z"/>
    <path d="M502.79,152c0-1.277.695-2.159,1.715-2.159s1.715.882,1.715,2.159-.69,2.165-1.715,2.165S502.79,153.289,502.79,152Zm2.776,0c0-.965-.414-1.577-1.061-1.577s-1.062.618-1.062,1.577.414,1.584,1.062,1.584S505.566,152.977,505.566,152Z"/>
  </g>
  <g>
    <path d="M565.816,151.872c-.863,0-1.439-.488-1.439-1.208s.576-1.207,1.439-1.207c.88,0,1.448.488,1.448,1.207S566.7,151.872,565.816,151.872Zm4.206-.928-5.6-3.158v-.672l5.6,3.166ZM565.816,150c-.584,0-.943.264-.943.663s.359.656.943.656c.6,0,.951-.255.951-.656S566.416,150,565.816,150Zm2.8-1.447c-.863,0-1.439-.488-1.439-1.207s.576-1.208,1.439-1.208c.879,0,1.447.488,1.447,1.208S569.494,148.554,568.615,148.554Zm0-1.871c-.584,0-.943.263-.943.664s.359.655.943.655c.6,0,.951-.256.951-.655S569.215,146.683,568.615,146.683Z"/>
    <path d="M564.426,143.488v-.959h5.6v.959Z"/>
    <path d="M566.017,141.336v-.9h.655a1.456,1.456,0,0,1-.72-1.272,1.349,1.349,0,0,1,1.432-1.384h2.638v.905H567.64a.863.863,0,0,0-.96.879,1.028,1.028,0,0,0,.48.872h2.862v.9Z"/>
    <path d="M568.863,133.819l.543-.544a2.082,2.082,0,0,1,.7,1.567,2.071,2.071,0,0,1-4.141,0,2.161,2.161,0,0,1,.671-1.6l.584.56a1.325,1.325,0,0,0-.472,1.008,1.285,1.285,0,0,0,2.559-.025A1.231,1.231,0,0,0,568.863,133.819Z"/>
    <path d="M566.017,132.5v-.9h.871a1.189,1.189,0,0,1-.944-1.1,1.087,1.087,0,0,1,.08-.391h.792a1.266,1.266,0,0,0-.1.495,1.1,1.1,0,0,0,.664,1h2.638v.9Z"/>
    <path d="M570.1,127.69a2.037,2.037,0,0,1-2.079,2.039,1.973,1.973,0,0,1-2.071-1.952,1.923,1.923,0,0,1,2.064-1.894h.223v2.958a1.223,1.223,0,0,0,1.1-1.2,1.3,1.3,0,0,0-.376-.951l.552-.592A2.321,2.321,0,0,1,570.1,127.69Zm-2.415,1.135v-2.087a1.1,1.1,0,0,0-1,1.048A1.076,1.076,0,0,0,567.687,128.825Z"/>
    <path d="M568.871,125.193c-.72,0-1.176-.584-1.176-1.528a2.477,2.477,0,0,1,.248-1.08H567.5c-.528,0-.8.305-.8.92a2.769,2.769,0,0,0,.312,1.167l-.656.32a3.844,3.844,0,0,1-.408-1.663c0-1.039.528-1.639,1.455-1.639h2.615v.895h-.408a1.673,1.673,0,0,1,.472,1.192A1.264,1.264,0,0,1,568.871,125.193Zm.583-1.664a1.43,1.43,0,0,0-.327-.944h-.656a2.074,2.074,0,0,0-.192.928c0,.512.224.832.575.832C569.223,124.345,569.454,124.025,569.454,123.529Z"/>
    <path d="M568.951,120.528a2.308,2.308,0,0,0,.455-1.287c0-.479-.216-.807-.535-.807-.248,0-.384.168-.456.552l-.12.711c-.144.776-.5,1.16-1.1,1.16-.751,0-1.239-.616-1.239-1.551a2.808,2.808,0,0,1,.481-1.575l.59.423a2.192,2.192,0,0,0-.383,1.207c0,.416.176.688.472.688.256,0,.367-.144.44-.567l.128-.7c.151-.8.519-1.182,1.119-1.182a1.468,1.468,0,0,1,1.3,1.631,2.69,2.69,0,0,1-.543,1.726Z"/>
    <path d="M570.1,114.865a2.036,2.036,0,0,1-2.079,2.039,1.972,1.972,0,0,1-2.071-1.951,1.923,1.923,0,0,1,2.064-1.894h.223v2.958a1.223,1.223,0,0,0,1.1-1.2,1.306,1.306,0,0,0-.376-.952l.552-.591A2.318,2.318,0,0,1,570.1,114.865ZM567.687,116v-2.087a1.1,1.1,0,0,0-1,1.048A1.076,1.076,0,0,0,567.687,116Z"/>
  </g>
  <g>
    <path d="M24.089,194.5v-1.111l5.6-2.167v1.032l-1.567.567v2.3l1.567.575v1Zm3.278-1.4-2.383.863,2.383.879Z"/>
    <path d="M27.679,190.982a1.933,1.933,0,0,1-2.031-1.871,1.508,1.508,0,0,1,.543-1.175H25.68v-.9h4.141c1.032,0,1.6.671,1.6,1.887a3.477,3.477,0,0,1-.383,1.607l-.672-.32a2.728,2.728,0,0,0,.344-1.247c0-.672-.3-1.023-.888-1.023h-.679a1.551,1.551,0,0,1,.567,1.223A1.92,1.92,0,0,1,27.679,190.982Zm1.279-2.087a1.2,1.2,0,0,0-.44-.951H26.839a1.24,1.24,0,0,0-.432.951,1.2,1.2,0,0,0,1.272,1.191A1.211,1.211,0,0,0,28.958,188.9Z"/>
    <path d="M27.679,186.11a1.933,1.933,0,0,1-2.031-1.872,1.508,1.508,0,0,1,.543-1.174H25.68v-.9h4.141c1.032,0,1.6.672,1.6,1.887a3.474,3.474,0,0,1-.383,1.607l-.672-.32a2.728,2.728,0,0,0,.344-1.247c0-.672-.3-1.024-.888-1.024h-.679a1.556,1.556,0,0,1,.567,1.224A1.92,1.92,0,0,1,27.679,186.11Zm1.279-2.087a1.2,1.2,0,0,0-.44-.952H26.839a1.243,1.243,0,0,0-.432.952,1.2,1.2,0,0,0,1.272,1.191A1.211,1.211,0,0,0,28.958,184.023Z"/>
    <path d="M25.68,181.054v-.9h.871a1.188,1.188,0,0,1-.943-1.1,1.092,1.092,0,0,1,.079-.392h.792a1.275,1.275,0,0,0-.1.5,1.1,1.1,0,0,0,.664,1h2.638v.9Z"/>
    <path d="M29.766,176.246a2.036,2.036,0,0,1-2.08,2.039,1.973,1.973,0,0,1-2.07-1.951,1.922,1.922,0,0,1,2.063-1.894H27.9V177.4a1.223,1.223,0,0,0,1.1-1.2,1.3,1.3,0,0,0-.376-.951l.552-.592A2.322,2.322,0,0,1,29.766,176.246Zm-2.415,1.136V175.3a1.1,1.1,0,0,0-1,1.048A1.076,1.076,0,0,0,27.351,177.382Z"/>
    <path d="M27.679,173.677a1.933,1.933,0,0,1-2.031-1.871,1.508,1.508,0,0,1,.543-1.175H25.68v-.9h4.141c1.032,0,1.6.67,1.6,1.886a3.484,3.484,0,0,1-.383,1.608l-.672-.321a2.725,2.725,0,0,0,.344-1.247c0-.672-.3-1.023-.888-1.023h-.679a1.551,1.551,0,0,1,.567,1.223A1.92,1.92,0,0,1,27.679,173.677Zm1.279-2.087a1.2,1.2,0,0,0-.44-.951H26.839a1.24,1.24,0,0,0-.432.951,1.2,1.2,0,0,0,1.272,1.191A1.211,1.211,0,0,0,28.958,171.59Z"/>
    <path d="M28.534,168.822c-.72,0-1.175-.584-1.175-1.527a2.49,2.49,0,0,1,.247-1.08h-.439c-.528,0-.8.305-.8.92a2.769,2.769,0,0,0,.312,1.167l-.656.32a3.856,3.856,0,0,1-.407-1.663c0-1.039.527-1.64,1.455-1.64h2.614v.9h-.407a1.676,1.676,0,0,1,.471,1.191A1.263,1.263,0,0,1,28.534,168.822Zm.584-1.663a1.429,1.429,0,0,0-.328-.944h-.656a2.074,2.074,0,0,0-.192.928c0,.511.224.832.576.832C28.886,167.975,29.118,167.654,29.118,167.159Z"/>
    <path d="M26.4,163.846v.807H25.68v-.807h-1.1l-.192-.9h1.3v-1.12H26.4v1.12H28.43c.392,0,.544-.152.544-.56a1.66,1.66,0,0,0-.1-.544h.76a2.88,2.88,0,0,1,.111.775c0,.808-.383,1.232-1.119,1.232Z"/>
    <path d="M29.766,159.231a2.037,2.037,0,0,1-2.08,2.039,1.973,1.973,0,0,1-2.07-1.951,1.923,1.923,0,0,1,2.063-1.895H27.9v2.958a1.223,1.223,0,0,0,1.1-1.2,1.3,1.3,0,0,0-.376-.951l.552-.592A2.32,2.32,0,0,1,29.766,159.231Zm-2.415,1.135v-2.087a1.1,1.1,0,0,0-1,1.048A1.076,1.076,0,0,0,27.351,160.366Z"/>
    <path d="M29.15,153.615a1.542,1.542,0,0,1,.576,1.232,2.05,2.05,0,0,1-4.078-.057,1.53,1.53,0,0,1,.527-1.167H23.969l-.152-.9h5.868v.9Zm-.184.959a1.2,1.2,0,0,0-.44-.951H26.839a1.241,1.241,0,0,0-.432.951,1.283,1.283,0,0,0,2.559,0Z"/>
    <path d="M26.4,149.3v.808H25.68V149.3h-1.1l-.192-.9h1.3v-1.12H26.4v1.12H28.43c.392,0,.544-.153.544-.56a1.66,1.66,0,0,0-.1-.544h.76a2.88,2.88,0,0,1,.111.775c0,.808-.383,1.232-1.119,1.232Z"/>
    <path d="M23.969,146.486l-.152-.9h2.518a1.455,1.455,0,0,1-.719-1.271,1.348,1.348,0,0,1,1.431-1.384h2.638v.9H27.3a.863.863,0,0,0-.96.879,1.028,1.028,0,0,0,.48.872h2.862v.9Z"/>
    <path d="M25.68,141.83v-.9h.871a1.188,1.188,0,0,1-.943-1.1,1.086,1.086,0,0,1,.079-.391h.792a1.266,1.266,0,0,0-.1.5,1.1,1.1,0,0,0,.664,1h2.638v.9Z"/>
    <path d="M25.616,137.047a2.076,2.076,0,1,1,2.07,2.015A2,2,0,0,1,25.616,137.047Zm2.079-1.119a1.132,1.132,0,1,0,0,2.238,1.13,1.13,0,1,0,0-2.238Z"/>
    <path d="M28.062,133.215a.863.863,0,0,0,.96-.879,1.011,1.011,0,0,0-.5-.88H25.68v-.9h4v.9h-.663a1.465,1.465,0,0,1,.727,1.28,1.343,1.343,0,0,1-1.431,1.382H25.68v-.9Z"/>
    <path d="M27.679,129.622a1.933,1.933,0,0,1-2.031-1.871,1.508,1.508,0,0,1,.543-1.175H25.68v-.895h4.141c1.032,0,1.6.671,1.6,1.887a3.48,3.48,0,0,1-.383,1.607l-.672-.32a2.728,2.728,0,0,0,.344-1.247c0-.672-.3-1.024-.888-1.024h-.679a1.553,1.553,0,0,1,.567,1.224A1.919,1.919,0,0,1,27.679,129.622Zm1.279-2.087a1.2,1.2,0,0,0-.44-.951H26.839a1.241,1.241,0,0,0-.432.951,1.2,1.2,0,0,0,1.272,1.192A1.212,1.212,0,0,0,28.958,127.535Z"/>
    <path d="M23.969,124.567l-.152-.9h2.518a1.454,1.454,0,0,1-.719-1.271,1.348,1.348,0,0,1,1.431-1.384h2.638v.9H27.3a.863.863,0,0,0-.96.879,1.026,1.026,0,0,0,.48.872h2.862v.9Z"/>
    <path d="M25.68,119.911v-.887h.575a1.509,1.509,0,0,1-.607-1.247,1.922,1.922,0,0,1,2.038-1.816,1.943,1.943,0,0,1,2.04,1.879,1.5,1.5,0,0,1-.52,1.168h2.175v.9Zm1.175-.9h1.671a1.229,1.229,0,0,0,.44-.96,1.283,1.283,0,0,0-2.559,0A1.177,1.177,0,0,0,26.855,119.008Z"/>
    <path d="M28.062,114.143a.863.863,0,0,0,.96-.879,1.011,1.011,0,0,0-.5-.88H25.68v-.9h4v.9h-.663a1.463,1.463,0,0,1,.727,1.279,1.343,1.343,0,0,1-1.431,1.383H25.68v-.9Z"/>
    <path d="M26.4,109.871v.808H25.68v-.808h-1.1l-.192-.9h1.3v-1.119H26.4v1.119H28.43c.392,0,.544-.151.544-.56a1.669,1.669,0,0,0-.1-.544h.76a2.893,2.893,0,0,1,.111.776c0,.807-.383,1.231-1.119,1.231Z"/>
    <path d="M25.3,104.255h4.389v.888h-5.6V103.9l3.389-1.639-3.389-1.632V99.378h5.6v.9H25.32l3.966,1.984Z"/>
    <path d="M24.089,95.536c0-1.055.591-1.766,1.47-1.766a1.341,1.341,0,0,1,1.24.894,1.4,1.4,0,0,1,1.327-1.087,1.631,1.631,0,0,1,1.559,1.847v2.6h-5.6Zm.783,1.528h1.567V95.632c0-.552-.3-.9-.783-.9s-.784.351-.784.9Zm3.166-2.519a.873.873,0,0,0-.855.991v1.528H28.9V95.536A.879.879,0,0,0,28.038,94.545Z"/>
    <path d="M25.68,92.568V91.68h.575a1.507,1.507,0,0,1-.607-1.247,1.922,1.922,0,0,1,2.038-1.816,1.943,1.943,0,0,1,2.04,1.879,1.5,1.5,0,0,1-.52,1.168h2.175v.9Zm1.175-.9h1.671a1.229,1.229,0,0,0,.44-.96,1.283,1.283,0,0,0-2.559,0A1.175,1.175,0,0,0,26.855,91.664Z"/>
    <path d="M28.614,87.614a2.3,2.3,0,0,0,.456-1.287c0-.479-.216-.807-.536-.807-.248,0-.384.168-.455.551l-.121.712c-.144.776-.5,1.16-1.1,1.16-.752,0-1.239-.616-1.239-1.551a2.807,2.807,0,0,1,.48-1.575l.591.423a2.185,2.185,0,0,0-.384,1.207c0,.416.176.688.472.688.256,0,.368-.144.44-.567l.128-.7c.152-.8.519-1.182,1.119-1.182a1.468,1.468,0,0,1,1.3,1.631,2.685,2.685,0,0,1-.544,1.726Z"/>
  </g>
  <g>
    <path d="M263.558,231.4h2.486a1.705,1.705,0,0,1,1.871,1.694,1.592,1.592,0,0,1-1.1,1.536L267.987,237h-1.063l-1.079-2.239h-1.328V237h-.959Zm.959.807v1.783h1.447a.9.9,0,1,0,0-1.783Z"/>
    <path d="M268.542,235.844c0-.72.583-1.175,1.527-1.175a2.489,2.489,0,0,1,1.079.247v-.439c0-.528-.3-.8-.92-.8a2.769,2.769,0,0,0-1.167.312l-.32-.656a3.847,3.847,0,0,1,1.663-.408c1.04,0,1.64.528,1.64,1.456V237h-.9v-.407a1.674,1.674,0,0,1-1.191.471A1.262,1.262,0,0,1,268.542,235.844Zm1.663.583a1.433,1.433,0,0,0,.943-.327v-.656a2.073,2.073,0,0,0-.927-.192c-.512,0-.831.224-.831.576S269.709,236.427,270.205,236.427Z"/>
    <path d="M276,236.46a1.545,1.545,0,0,1-1.232.575,2.049,2.049,0,0,1,.056-4.077,1.532,1.532,0,0,1,1.168.527v-2.207l.9-.151V237H276Zm-.959-.184a1.2,1.2,0,0,0,.951-.44v-1.687a1.243,1.243,0,0,0-.951-.432,1.283,1.283,0,0,0,0,2.559Z"/>
    <path d="M279.852,232.925A2.076,2.076,0,1,1,277.838,235,2,2,0,0,1,279.852,232.925Zm1.12,2.08a1.133,1.133,0,1,0-2.239,0,1.13,1.13,0,1,0,2.239,0Z"/>
    <path d="M282.869,235.924a2.312,2.312,0,0,0,1.288.456c.48,0,.808-.216.808-.536,0-.248-.168-.384-.552-.456l-.712-.12c-.775-.144-1.159-.5-1.159-1.1,0-.752.615-1.24,1.551-1.24a2.82,2.82,0,0,1,1.575.48l-.424.592a2.19,2.19,0,0,0-1.207-.384c-.416,0-.687.176-.687.472,0,.256.143.368.567.44l.7.127c.8.152,1.184.52,1.184,1.12a1.468,1.468,0,0,1-1.631,1.3,2.689,2.689,0,0,1-1.728-.544Z"/>
    <path d="M288.708,237.035a1.489,1.489,0,0,1-1.183-.559V237h-.887v-5.717l.9-.151v2.4a1.557,1.557,0,0,1,1.231-.567A1.922,1.922,0,0,1,290.588,235,1.942,1.942,0,0,1,288.708,237.035Zm-1.167-2.87v1.671a1.229,1.229,0,0,0,.96.44,1.283,1.283,0,0,0,0-2.559A1.177,1.177,0,0,0,287.541,234.165Z"/>
    <path d="M293.4,237.075A2.036,2.036,0,0,1,291.365,235a1.974,1.974,0,0,1,1.951-2.071,1.923,1.923,0,0,1,1.9,2.063v.224h-2.958a1.224,1.224,0,0,0,1.2,1.1,1.3,1.3,0,0,0,.951-.376l.592.552A2.317,2.317,0,0,1,293.4,237.075Zm-1.136-2.415h2.087a1.1,1.1,0,0,0-1.046-1A1.077,1.077,0,0,0,292.268,234.66Z"/>
    <path d="M296.133,232.989h.9v.656a1.453,1.453,0,0,1,1.271-.72,1.348,1.348,0,0,1,1.383,1.432V237h-.9v-2.383a.863.863,0,0,0-.88-.959,1.027,1.027,0,0,0-.871.48V237h-.9Z"/>
    <path d="M303.651,235.836l.544.544a2.087,2.087,0,0,1-1.567.695,2.071,2.071,0,0,1,0-4.141,2.157,2.157,0,0,1,1.6.671l-.56.584a1.321,1.321,0,0,0-1.007-.472,1.285,1.285,0,0,0,.024,2.559A1.231,1.231,0,0,0,303.651,235.836Z"/>
    <path d="M304.973,231.278l.9-.151v2.518a1.452,1.452,0,0,1,1.27-.72,1.348,1.348,0,0,1,1.384,1.432V237h-.9v-2.383a.863.863,0,0,0-.88-.959,1.027,1.027,0,0,0-.871.48V237h-.9Z"/>
    <path d="M314.291,235.836l.544.544a2.087,2.087,0,0,1-1.568.695,2.071,2.071,0,0,1,0-4.141,2.158,2.158,0,0,1,1.6.671l-.56.584a1.323,1.323,0,0,0-1.007-.472,1.285,1.285,0,0,0,.023,2.559A1.232,1.232,0,0,0,314.291,235.836Z"/>
    <path d="M316.517,237h-.9v-5.717l.9-.151Z"/>
    <path d="M317.517,231.622a.564.564,0,0,1,1.127,0,.564.564,0,0,1-1.127,0ZM318.532,237h-.9v-4.006h.9Z"/>
    <path d="M321.5,237.075A2.036,2.036,0,0,1,319.461,235a1.974,1.974,0,0,1,1.951-2.071,1.923,1.923,0,0,1,1.9,2.063v.224h-2.958a1.223,1.223,0,0,0,1.2,1.1,1.3,1.3,0,0,0,.951-.376l.592.552A2.319,2.319,0,0,1,321.5,237.075Zm-1.136-2.415h2.087a1.1,1.1,0,0,0-1.047-1A1.077,1.077,0,0,0,320.364,234.66Z"/>
    <path d="M324.228,232.989h.9v.656a1.451,1.451,0,0,1,1.27-.72,1.348,1.348,0,0,1,1.384,1.432V237h-.9v-2.383a.863.863,0,0,0-.88-.959,1.026,1.026,0,0,0-.871.48V237h-.9Z"/>
    <path d="M329.261,233.709h-.808v-.72h.808v-1.1l.9-.192v1.3h1.119v.72h-1.119v2.031c0,.392.151.544.56.544a1.659,1.659,0,0,0,.543-.1v.759a2.844,2.844,0,0,1-.776.112c-.807,0-1.23-.384-1.23-1.119Z"/>
    <path d="M332.221,235.924a2.307,2.307,0,0,0,1.287.456c.479,0,.807-.216.807-.536,0-.248-.168-.384-.551-.456l-.712-.12c-.776-.144-1.16-.5-1.16-1.1,0-.752.617-1.24,1.552-1.24a2.815,2.815,0,0,1,1.575.48L334.6,234a2.191,2.191,0,0,0-1.208-.384c-.415,0-.688.176-.688.472,0,.256.145.368.567.44l.7.127c.8.152,1.183.52,1.183,1.12a1.469,1.469,0,0,1-1.632,1.3,2.685,2.685,0,0,1-1.726-.544Z"/>
  </g>
  <g>
    <path d="M75.976,256.259H80v.815H76.936v1.6h2.11v.8h-2.11v2.383h-.96Z"/>
    <path d="M80.7,256.483a.564.564,0,0,1,1.127,0,.564.564,0,0,1-1.127,0Zm1.016,5.373h-.9V257.85h.9Z"/>
    <path d="M83.736,261.856h-.9v-5.717l.9-.152Z"/>
    <path d="M86.7,261.936a2.037,2.037,0,0,1-2.039-2.079,1.973,1.973,0,0,1,1.951-2.071,1.923,1.923,0,0,1,1.9,2.063v.223H85.552a1.224,1.224,0,0,0,1.2,1.1,1.3,1.3,0,0,0,.952-.376l.591.552A2.314,2.314,0,0,1,86.7,261.936Zm-1.135-2.415h2.087a1.1,1.1,0,0,0-1.048-1A1.076,1.076,0,0,0,85.568,259.521Z"/>
    <path d="M89.536,260.784a2.307,2.307,0,0,0,1.288.456c.479,0,.807-.216.807-.536,0-.248-.168-.384-.551-.455l-.712-.12c-.776-.144-1.16-.5-1.16-1.1,0-.751.616-1.239,1.552-1.239a2.814,2.814,0,0,1,1.574.48l-.423.591a2.19,2.19,0,0,0-1.207-.384c-.416,0-.688.177-.688.472,0,.256.144.368.567.44l.7.128c.8.152,1.184.519,1.184,1.119a1.469,1.469,0,0,1-1.632,1.3,2.688,2.688,0,0,1-1.727-.544Z"/>
    <path d="M93.72,258.569h-.807v-.719h.807v-1.1l.9-.192v1.3h1.12v.719h-1.12V260.6c0,.392.152.544.56.544a1.66,1.66,0,0,0,.544-.1v.76a2.844,2.844,0,0,1-.776.112c-.808,0-1.231-.384-1.231-1.12Z"/>
    <path d="M98.311,257.786a2.076,2.076,0,1,1-2.015,2.071A2,2,0,0,1,98.311,257.786Zm1.12,2.079a1.132,1.132,0,1,0-2.239,0,1.13,1.13,0,1,0,2.239,0Z"/>
    <path d="M101.264,257.85h.9v.871a1.188,1.188,0,0,1,1.1-.943,1.071,1.071,0,0,1,.392.08v.792a1.275,1.275,0,0,0-.5-.1,1.1,1.1,0,0,0-1,.664v2.639h-.9Z"/>
    <path d="M106.071,261.936a2.037,2.037,0,0,1-2.039-2.079,1.972,1.972,0,0,1,1.951-2.071,1.922,1.922,0,0,1,1.895,2.063v.223h-2.959a1.224,1.224,0,0,0,1.2,1.1,1.3,1.3,0,0,0,.951-.376l.592.552A2.315,2.315,0,0,1,106.071,261.936Zm-1.136-2.415h2.087a1.1,1.1,0,0,0-1.047-1A1.076,1.076,0,0,0,104.935,259.521Z"/>
  </g>
  <polyline class="cls-3" points="539.24 67.879 539.24 213.275 59.075 213.275 59.075 67.879"/>
  <rect class="cls-1" x="59.075" y="255.388" width="8.503" height="8.503"/>
  <g>
    <path d="M143.178,256.259c1.055,0,1.767.591,1.767,1.471a1.341,1.341,0,0,1-.9,1.239,1.4,1.4,0,0,1,1.088,1.328,1.633,1.633,0,0,1-1.848,1.559h-2.6v-5.6Zm-1.527.783v1.568h1.431c.551,0,.9-.3.9-.784s-.352-.784-.9-.784Zm2.518,3.167a.873.873,0,0,0-.991-.856h-1.527v1.719h1.527A.879.879,0,0,0,144.169,260.209Z"/>
    <path d="M147.051,261.856h-.9v-5.717l.9-.152Z"/>
    <path d="M149.042,260.233a.863.863,0,0,0,.88.959,1.011,1.011,0,0,0,.88-.5V257.85h.9v4.006h-.9v-.664a1.465,1.465,0,0,1-1.28.728,1.344,1.344,0,0,1-1.383-1.432V257.85h.9Z"/>
    <path d="M154.674,261.936a2.037,2.037,0,0,1-2.039-2.079,1.973,1.973,0,0,1,1.951-2.071,1.923,1.923,0,0,1,1.895,2.063v.223h-2.959a1.224,1.224,0,0,0,1.2,1.1,1.3,1.3,0,0,0,.951-.376l.592.552A2.317,2.317,0,0,1,154.674,261.936Zm-1.136-2.415h2.087a1.1,1.1,0,0,0-1.047-1A1.076,1.076,0,0,0,153.538,259.521Z"/>
    <path d="M157.507,260.784a2.307,2.307,0,0,0,1.287.456c.48,0,.808-.216.808-.536,0-.248-.168-.384-.552-.455l-.712-.12c-.775-.144-1.159-.5-1.159-1.1,0-.751.616-1.239,1.551-1.239a2.817,2.817,0,0,1,1.575.48l-.423.591a2.191,2.191,0,0,0-1.208-.384c-.416,0-.687.177-.687.472,0,.256.143.368.567.44l.7.128c.8.152,1.183.519,1.183,1.119a1.468,1.468,0,0,1-1.631,1.3,2.688,2.688,0,0,1-1.727-.544Z"/>
    <path d="M161.691,258.569h-.808v-.719h.808v-1.1l.9-.192v1.3h1.119v.719h-1.119V260.6c0,.392.152.544.56.544a1.665,1.665,0,0,0,.544-.1v.76a2.844,2.844,0,0,1-.776.112c-.808,0-1.231-.384-1.231-1.12Z"/>
    <path d="M166.282,257.786a2.076,2.076,0,1,1-2.015,2.071A2,2,0,0,1,166.282,257.786Zm1.119,2.079a1.132,1.132,0,1,0-2.238,0,1.13,1.13,0,1,0,2.238,0Z"/>
    <path d="M169.235,257.85h.9v.871a1.187,1.187,0,0,1,1.1-.943,1.076,1.076,0,0,1,.392.08v.792a1.275,1.275,0,0,0-.5-.1,1.1,1.1,0,0,0-1,.664v2.639h-.9Z"/>
    <path d="M174.042,261.936A2.037,2.037,0,0,1,172,259.857a1.973,1.973,0,0,1,1.951-2.071,1.923,1.923,0,0,1,1.895,2.063v.223h-2.958a1.223,1.223,0,0,0,1.2,1.1,1.3,1.3,0,0,0,.951-.376l.592.552A2.317,2.317,0,0,1,174.042,261.936Zm-1.135-2.415h2.087a1.1,1.1,0,0,0-1.048-1A1.076,1.076,0,0,0,172.907,259.521Z"/>
  </g>
  <rect class="cls-2" x="123.789" y="255.388" width="8.503" height="8.503"/>
  <g>
    <path d="M208.657,256.259c1.056,0,1.767.591,1.767,1.471a1.34,1.34,0,0,1-.9,1.239,1.4,1.4,0,0,1,1.087,1.328,1.632,1.632,0,0,1-1.847,1.559h-2.6v-5.6Zm-1.527.783v1.568h1.431c.552,0,.9-.3.9-.784s-.352-.784-.9-.784Zm2.519,3.167a.874.874,0,0,0-.992-.856H207.13v1.719h1.527A.879.879,0,0,0,209.649,260.209Z"/>
    <path d="M212.53,261.856h-.9v-5.717l.9-.152Z"/>
    <path d="M214.522,260.233a.863.863,0,0,0,.88.959,1.011,1.011,0,0,0,.879-.5V257.85h.9v4.006h-.9v-.664a1.465,1.465,0,0,1-1.279.728,1.344,1.344,0,0,1-1.383-1.432V257.85h.9Z"/>
    <path d="M220.153,261.936a2.036,2.036,0,0,1-2.038-2.079,1.972,1.972,0,0,1,1.95-2.071,1.922,1.922,0,0,1,1.9,2.063v.223H219a1.224,1.224,0,0,0,1.2,1.1,1.3,1.3,0,0,0,.951-.376l.592.552A2.318,2.318,0,0,1,220.153,261.936Zm-1.135-2.415h2.087a1.1,1.1,0,0,0-1.047-1A1.076,1.076,0,0,0,219.018,259.521Z"/>
    <path d="M222.986,260.784a2.31,2.31,0,0,0,1.288.456c.479,0,.807-.216.807-.536,0-.248-.168-.384-.551-.455l-.712-.12c-.776-.144-1.159-.5-1.159-1.1,0-.751.615-1.239,1.551-1.239a2.82,2.82,0,0,1,1.575.48l-.424.591a2.19,2.19,0,0,0-1.207-.384c-.416,0-.688.177-.688.472,0,.256.144.368.568.44l.7.128c.8.152,1.184.519,1.184,1.119a1.469,1.469,0,0,1-1.632,1.3,2.688,2.688,0,0,1-1.727-.544Z"/>
    <path d="M227.17,258.569h-.807v-.719h.807v-1.1l.9-.192v1.3h1.119v.719h-1.119V260.6c0,.392.152.544.559.544a1.66,1.66,0,0,0,.544-.1v.76a2.844,2.844,0,0,1-.776.112c-.807,0-1.231-.384-1.231-1.12Z"/>
    <path d="M231.761,257.786a2.076,2.076,0,1,1-2.015,2.071A2,2,0,0,1,231.761,257.786Zm1.12,2.079a1.132,1.132,0,1,0-2.239,0,1.13,1.13,0,1,0,2.239,0Z"/>
    <path d="M234.714,257.85h.9v.871a1.189,1.189,0,0,1,1.1-.943,1.071,1.071,0,0,1,.392.08v.792a1.274,1.274,0,0,0-.5-.1,1.1,1.1,0,0,0-1,.664v2.639h-.9Z"/>
    <path d="M239.521,261.936a2.036,2.036,0,0,1-2.038-2.079,1.972,1.972,0,0,1,1.951-2.071,1.923,1.923,0,0,1,1.9,2.063v.223H238.37a1.224,1.224,0,0,0,1.2,1.1,1.3,1.3,0,0,0,.951-.376l.592.552A2.318,2.318,0,0,1,239.521,261.936Zm-1.135-2.415h2.087a1.1,1.1,0,0,0-1.047-1A1.076,1.076,0,0,0,238.386,259.521Z"/>
    <path d="M243.714,257.65c0-.864.488-1.439,1.208-1.439s1.207.575,1.207,1.439c0,.879-.487,1.447-1.207,1.447S243.714,258.529,243.714,257.65Zm1.871,0c0-.584-.263-.944-.663-.944s-.656.36-.656.944c0,.6.256.951.656.951S245.585,258.25,245.585,257.65Zm-.943,4.206,3.158-5.6h.672l-3.166,5.6Zm2.391-1.408c0-.863.487-1.439,1.207-1.439s1.207.576,1.207,1.439c0,.88-.488,1.448-1.207,1.448S247.033,261.328,247.033,260.448Zm1.871,0c0-.583-.264-.943-.664-.943s-.656.36-.656.943c0,.6.256.952.656.952S248.9,261.048,248.9,260.448Z"/>
    <path d="M251.922,256.483a.564.564,0,0,1,1.128,0,.564.564,0,0,1-1.128,0Zm1.016,5.373h-.9V257.85h.9Z"/>
    <path d="M254.05,257.85h.9v.656a1.453,1.453,0,0,1,1.271-.72,1.348,1.348,0,0,1,1.383,1.431v2.639h-.9v-2.383a.863.863,0,0,0-.879-.96,1.028,1.028,0,0,0-.872.48v2.863h-.9Z"/>
    <path d="M261.569,260.7l.543.544a2.082,2.082,0,0,1-1.567.7,2.072,2.072,0,0,1,0-4.142,2.159,2.159,0,0,1,1.6.671l-.56.584a1.321,1.321,0,0,0-1.007-.472,1.285,1.285,0,0,0,.024,2.559A1.232,1.232,0,0,0,261.569,260.7Z"/>
    <path d="M262.89,257.85h.9v.871a1.188,1.188,0,0,1,1.1-.943,1.071,1.071,0,0,1,.392.08v.792a1.275,1.275,0,0,0-.5-.1,1.1,1.1,0,0,0-1,.664v2.639h-.9Z"/>
    <path d="M267.7,261.936a2.037,2.037,0,0,1-2.039-2.079,1.972,1.972,0,0,1,1.951-2.071,1.922,1.922,0,0,1,1.9,2.063v.223h-2.959a1.224,1.224,0,0,0,1.2,1.1,1.3,1.3,0,0,0,.951-.376l.592.552A2.315,2.315,0,0,1,267.7,261.936Zm-1.136-2.415h2.087a1.1,1.1,0,0,0-1.047-1A1.076,1.076,0,0,0,266.561,259.521Z"/>
    <path d="M270.194,260.7c0-.719.584-1.175,1.527-1.175a2.477,2.477,0,0,1,1.08.248v-.44c0-.528-.3-.8-.92-.8a2.769,2.769,0,0,0-1.167.312l-.32-.655a3.844,3.844,0,0,1,1.663-.408c1.04,0,1.639.528,1.639,1.455v2.615h-.9v-.408a1.673,1.673,0,0,1-1.192.472A1.263,1.263,0,0,1,270.194,260.7Zm1.663.584a1.429,1.429,0,0,0,.944-.328V260.3a2.088,2.088,0,0,0-.928-.192c-.511,0-.831.225-.831.576C271.042,261.056,271.362,261.288,271.857,261.288Z"/>
    <path d="M274.858,260.784a2.31,2.31,0,0,0,1.287.456c.48,0,.808-.216.808-.536,0-.248-.168-.384-.552-.455l-.712-.12c-.775-.144-1.159-.5-1.159-1.1,0-.751.616-1.239,1.551-1.239a2.82,2.82,0,0,1,1.576.48l-.424.591a2.191,2.191,0,0,0-1.208-.384c-.415,0-.687.177-.687.472,0,.256.144.368.567.44l.7.128c.8.152,1.183.519,1.183,1.119a1.468,1.468,0,0,1-1.631,1.3,2.688,2.688,0,0,1-1.727-.544Z"/>
    <path d="M280.52,261.936a2.036,2.036,0,0,1-2.038-2.079,1.972,1.972,0,0,1,1.951-2.071,1.923,1.923,0,0,1,1.895,2.063v.223h-2.959a1.224,1.224,0,0,0,1.2,1.1,1.3,1.3,0,0,0,.951-.376l.592.552A2.318,2.318,0,0,1,280.52,261.936Zm-1.135-2.415h2.087a1.1,1.1,0,0,0-1.047-1A1.076,1.076,0,0,0,279.385,259.521Z"/>
  </g>
  <rect class="cls-5" x="189.269" y="255.388" width="8.503" height="8.503" rx="4.252"/>
</svg>
