<svg id="Layer_1" data-name="Layer 1" xmlns="http://www.w3.org/2000/svg" width="8.268in" height="3.715in" viewBox="0 0 595.276 267.48">
  <defs>
    <style>
      .cls-1, .cls-5 {
        fill: none;
      }

      .cls-1 {
        stroke: #1d1d1b;
        stroke-miterlimit: 10;
        stroke-width: 0.5px;
      }

      .cls-2 {
        fill: #06c;
      }

      .cls-3 {
        fill: #99c2eb;
      }

      .cls-4 {
        fill: #f7823c;
      }

      .cls-5 {
        stroke: #f7823c;
        stroke-linecap: round;
        stroke-linejoin: round;
        stroke-dasharray: 3 0 0;
      }
    </style>
  </defs>
  <line class="cls-1" x1="60.841" y1="176.408" x2="58.282" y2="176.408"/>
  <line class="cls-1" x1="60.841" y1="147.202" x2="58.282" y2="147.202"/>
  <line class="cls-1" x1="60.841" y1="117.996" x2="58.282" y2="117.996"/>
  <line class="cls-1" x1="60.841" y1="88.791" x2="58.282" y2="88.791"/>
  <line class="cls-1" x1="60.841" y1="59.585" x2="58.282" y2="59.585"/>
  <g>
    <path d="M39.734,57.227h2.555v.564h-2l-.054,1.217a1.867,1.867,0,0,1,.876-.21,1.268,1.268,0,0,1,1.4,1.271,1.436,1.436,0,0,1-1.589,1.422,2.114,2.114,0,0,1-1.475-.57l.395-.45a1.561,1.561,0,0,0,1.1.45.809.809,0,1,0-.018-1.607,1.773,1.773,0,0,0-.834.222l-.455-.138Z"/>
    <path d="M43.9,60.837l-.588,1.584h-.5l.4-1.584Z"/>
    <path d="M44.384,59.32c0-1.277.7-2.159,1.716-2.159s1.714.882,1.714,2.159-.689,2.165-1.714,2.165S44.384,60.61,44.384,59.32Zm2.777,0c0-.965-.414-1.577-1.061-1.577s-1.062.618-1.062,1.577S45.452,60.9,46.1,60.9,47.161,60.3,47.161,59.32Z"/>
    <path d="M48.428,59.32c0-1.277.7-2.159,1.715-2.159s1.715.882,1.715,2.159-.689,2.165-1.715,2.165S48.428,60.61,48.428,59.32Zm2.777,0c0-.965-.414-1.577-1.062-1.577s-1.061.618-1.061,1.577S49.5,60.9,50.143,60.9,51.205,60.3,51.205,59.32Z"/>
    <path d="M52.472,59.32c0-1.277.7-2.159,1.715-2.159s1.715.882,1.715,2.159-.689,2.165-1.715,2.165S52.472,60.61,52.472,59.32Zm2.777,0c0-.965-.414-1.577-1.062-1.577s-1.061.618-1.061,1.577.413,1.583,1.061,1.583S55.249,60.3,55.249,59.32Z"/>
  </g>
  <g>
    <path d="M89.034,169.379H88.38v-3.515l-.743.324v-.581l.984-.426h.413Z"/>
    <path d="M90.642,168.791l-.587,1.583h-.5l.4-1.583Z"/>
    <path d="M92.214,169.379H91.56v-3.515l-.743.324v-.581l.984-.426h.413Z"/>
    <path d="M92.953,167.274c0-1.278.695-2.159,1.715-2.159s1.715.881,1.715,2.159-.69,2.165-1.715,2.165S92.953,168.563,92.953,167.274Zm2.776,0c0-.966-.414-1.578-1.061-1.578s-1.062.618-1.062,1.578.414,1.583,1.062,1.583S95.729,168.251,95.729,167.274Z"/>
    <path d="M100.151,167.166a2.008,2.008,0,0,1-1.955,2.267,1.9,1.9,0,0,1-1.116-.36l.36-.486a1.333,1.333,0,0,0,.81.258c.78,0,1.235-.612,1.247-1.667a1.451,1.451,0,0,1-1.157.611,1.3,1.3,0,0,1-1.4-1.289,1.385,1.385,0,0,1,1.475-1.379A1.819,1.819,0,0,1,100.151,167.166Zm-.684-.4c-.1-.653-.5-1.079-1.031-1.079a.808.808,0,0,0-.857.8.791.791,0,0,0,.863.786A1.312,1.312,0,0,0,99.467,166.764Z"/>
  </g>
  <g>
    <path d="M110.058,155.078H109.4v-3.514l-.743.323v-.581l.983-.426h.414Z"/>
    <path d="M111.666,154.49l-.587,1.583h-.5l.4-1.583Z"/>
    <path d="M112.146,153.087a2.008,2.008,0,0,1,1.955-2.267,1.892,1.892,0,0,1,1.116.36l-.36.486a1.331,1.331,0,0,0-.81-.258c-.779,0-1.235.612-1.247,1.667a1.455,1.455,0,0,1,1.157-.612,1.3,1.3,0,0,1,1.4,1.29,1.386,1.386,0,0,1-1.475,1.379A1.819,1.819,0,0,1,112.146,153.087Zm.684.4c.1.654.5,1.08,1.031,1.08a.809.809,0,0,0,.858-.8.792.792,0,0,0-.864-.786A1.315,1.315,0,0,0,112.83,153.488Z"/>
    <path d="M117.18,155.078h-.654v-3.514l-.743.323v-.581l.984-.426h.413Z"/>
    <path d="M119.364,155.138a2.11,2.11,0,0,1-1.554-.63l.444-.414a1.377,1.377,0,0,0,1.1.468c.539,0,.911-.282.911-.7a.663.663,0,0,0-.743-.629H119v-.546h.468a.608.608,0,0,0,.665-.629.725.725,0,0,0-.8-.666,1.3,1.3,0,0,0-1.044.5l-.444-.414a2.037,2.037,0,0,1,1.512-.666,1.28,1.28,0,0,1,1.433,1.175,1.009,1.009,0,0,1-.816.96,1.04,1.04,0,0,1,.948.959C120.929,154.622,120.275,155.138,119.364,155.138Z"/>
  </g>
  <g>
    <path d="M152.573,138.129l1.721-1.8a1.125,1.125,0,0,0,.408-.792.685.685,0,0,0-.768-.617,1.515,1.515,0,0,0-1.085.515l-.372-.45a2.129,2.129,0,0,1,1.476-.635c.821,0,1.385.468,1.385,1.145a1.6,1.6,0,0,1-.6,1.17l-1.343,1.385,2.021-.012v.564h-2.843Z"/>
    <path d="M156.863,138.015l-.588,1.583h-.5l.4-1.583Z"/>
    <path d="M158.434,138.6h-.653v-3.514l-.744.323v-.581l.984-.426h.413Z"/>
    <path d="M162.351,136.39a2.007,2.007,0,0,1-1.954,2.267,1.892,1.892,0,0,1-1.116-.36l.36-.486a1.331,1.331,0,0,0,.81.258c.779,0,1.235-.612,1.247-1.667a1.454,1.454,0,0,1-1.158.611,1.3,1.3,0,0,1-1.4-1.289,1.385,1.385,0,0,1,1.475-1.379A1.818,1.818,0,0,1,162.351,136.39Zm-.683-.4c-.1-.653-.5-1.079-1.031-1.079a.809.809,0,0,0-.858.8.791.791,0,0,0,.863.786A1.314,1.314,0,0,0,161.668,135.988Z"/>
    <path d="M165.8,137h.539v.563H165.8V138.6h-.654v-1.038h-2.255v-.534l2.165-2.626h.744Zm-.654,0v-1.9L163.6,137Z"/>
  </g>
  <g>
    <path d="M174.274,103.529a2.11,2.11,0,0,1-1.553-.63l.444-.413a1.378,1.378,0,0,0,1.1.467c.54,0,.912-.281.912-.7a.663.663,0,0,0-.744-.629h-.522v-.546h.468a.608.608,0,0,0,.666-.629.725.725,0,0,0-.8-.666,1.3,1.3,0,0,0-1.043.5l-.444-.414a2.034,2.034,0,0,1,1.511-.666,1.279,1.279,0,0,1,1.433,1.176,1.008,1.008,0,0,1-.815.959,1.04,1.04,0,0,1,.948.959C175.84,103.013,175.186,103.529,174.274,103.529Z"/>
    <path d="M177.239,102.881l-.588,1.584h-.5l.4-1.584Z"/>
    <path d="M179.26,103.529a2.108,2.108,0,0,1-1.553-.63l.444-.413a1.378,1.378,0,0,0,1.1.467c.54,0,.912-.281.912-.7a.663.663,0,0,0-.744-.629H178.9v-.546h.468a.608.608,0,0,0,.666-.629.725.725,0,0,0-.8-.666,1.3,1.3,0,0,0-1.043.5l-.444-.414a2.034,2.034,0,0,1,1.511-.666,1.279,1.279,0,0,1,1.433,1.176,1.008,1.008,0,0,1-.815.959,1.04,1.04,0,0,1,.948.959C180.826,103.013,180.172,103.529,179.26,103.529Z"/>
    <path d="M183.634,99.853h-2.4v-.582h3.125v.492l-1.9,3.706h-.768Z"/>
    <path d="M187.216,99.853h-2.405v-.582h3.124v.492l-1.9,3.706h-.767Z"/>
  </g>
  <g>
    <path d="M104.176,85.235h.54V85.8h-.54v1.038h-.654V85.8h-2.255v-.534l2.166-2.626h.743Zm-.654,0V83.34l-1.553,1.895Z"/>
    <path d="M105.353,82.638h2.555V83.2h-2l-.054,1.217a1.867,1.867,0,0,1,.876-.21,1.268,1.268,0,0,1,1.4,1.271,1.436,1.436,0,0,1-1.589,1.422,2.115,2.115,0,0,1-1.475-.57l.395-.45a1.561,1.561,0,0,0,1.1.45.809.809,0,1,0-.018-1.607,1.784,1.784,0,0,0-.834.221l-.455-.137Z"/>
  </g>
  <g>
    <path d="M219.8,110.945a2.114,2.114,0,0,1-1.554-.629l.444-.414a1.377,1.377,0,0,0,1.1.468c.539,0,.911-.282.911-.7a.662.662,0,0,0-.743-.629h-.523V108.5h.468a.609.609,0,0,0,.666-.63.725.725,0,0,0-.8-.666,1.3,1.3,0,0,0-1.043.5l-.444-.414a2.036,2.036,0,0,1,1.512-.665,1.278,1.278,0,0,1,1.432,1.175,1.007,1.007,0,0,1-.815.959,1.04,1.04,0,0,1,.948.96C221.367,110.43,220.713,110.945,219.8,110.945Z"/>
    <path d="M222.766,110.3l-.587,1.583h-.5l.4-1.583Z"/>
    <path d="M224.338,110.885h-.654v-3.514l-.744.324v-.582l.984-.425h.414Z"/>
    <path d="M225.076,110.412l1.721-1.8a1.121,1.121,0,0,0,.408-.791.685.685,0,0,0-.768-.618,1.517,1.517,0,0,0-1.086.516l-.371-.45a2.122,2.122,0,0,1,1.475-.635c.822,0,1.386.468,1.386,1.145a1.6,1.6,0,0,1-.6,1.169l-1.344,1.386,2.022-.012v.563h-2.843Z"/>
    <path d="M228.683,106.688h2.554v.564h-2l-.054,1.217a1.866,1.866,0,0,1,.875-.21,1.268,1.268,0,0,1,1.4,1.271,1.435,1.435,0,0,1-1.589,1.421,2.12,2.12,0,0,1-1.476-.57l.4-.449a1.558,1.558,0,0,0,1.1.449.809.809,0,1,0-.017-1.606,1.772,1.772,0,0,0-.834.221l-.455-.137Z"/>
  </g>
  <g>
    <path d="M239.309,88.851a2.11,2.11,0,0,1-1.553-.63l.444-.414a1.377,1.377,0,0,0,1.1.468c.539,0,.911-.282.911-.7a.663.663,0,0,0-.743-.629h-.522V86.4h.467a.608.608,0,0,0,.666-.629.725.725,0,0,0-.8-.666,1.3,1.3,0,0,0-1.044.5l-.444-.414a2.034,2.034,0,0,1,1.511-.666,1.28,1.28,0,0,1,1.434,1.175,1.009,1.009,0,0,1-.816.96,1.04,1.04,0,0,1,.948.959C240.875,88.335,240.221,88.851,239.309,88.851Z"/>
    <path d="M242.274,88.2l-.588,1.583h-.5l.4-1.583Z"/>
    <path d="M245.938,86.578a2.007,2.007,0,0,1-1.954,2.267,1.892,1.892,0,0,1-1.116-.36l.36-.486a1.331,1.331,0,0,0,.81.258c.779,0,1.235-.612,1.247-1.667a1.454,1.454,0,0,1-1.158.611,1.3,1.3,0,0,1-1.4-1.289,1.385,1.385,0,0,1,1.475-1.379A1.818,1.818,0,0,1,245.938,86.578Zm-.683-.4c-.1-.653-.5-1.079-1.031-1.079a.809.809,0,0,0-.858.8.791.791,0,0,0,.863.786A1.314,1.314,0,0,0,245.255,86.176Z"/>
    <path d="M249.389,87.19h.54v.563h-.54v1.038h-.654V87.753H246.48v-.534l2.165-2.626h.744Zm-.654,0V85.3l-1.553,1.895Z"/>
    <path d="M253.3,87.19h.539v.563H253.3v1.038h-.654V87.753h-2.255v-.534l2.165-2.626h.744Zm-.654,0V85.3l-1.553,1.895Z"/>
  </g>
  <g>
    <path d="M284.192,93.983a2.11,2.11,0,0,1-1.553-.63l.444-.414a1.376,1.376,0,0,0,1.1.468c.54,0,.912-.282.912-.7a.663.663,0,0,0-.744-.629h-.522v-.546h.468a.609.609,0,0,0,.666-.63.725.725,0,0,0-.8-.666,1.3,1.3,0,0,0-1.043.5l-.444-.414a2.037,2.037,0,0,1,1.511-.665,1.279,1.279,0,0,1,1.433,1.175,1.008,1.008,0,0,1-.815.96,1.039,1.039,0,0,1,.948.959C285.758,93.467,285.1,93.983,284.192,93.983Z"/>
    <path d="M287.157,93.335l-.588,1.583h-.5l.4-1.583Z"/>
    <path d="M289.754,90.306h-2.405v-.581h3.125v.491l-1.9,3.707h-.767Z"/>
    <path d="M293.336,90.306h-2.405v-.581h3.125v.491l-1.9,3.707h-.767Z"/>
    <path d="M294.483,91.932a2.008,2.008,0,0,1,1.955-2.267,1.889,1.889,0,0,1,1.115.36l-.36.485a1.332,1.332,0,0,0-.809-.257c-.78,0-1.236.611-1.247,1.667a1.452,1.452,0,0,1,1.157-.612,1.3,1.3,0,0,1,1.4,1.289,1.385,1.385,0,0,1-1.475,1.38A1.819,1.819,0,0,1,294.483,91.932Zm.683.4c.1.654.5,1.08,1.032,1.08a.809.809,0,0,0,.858-.8.791.791,0,0,0-.864-.785A1.316,1.316,0,0,0,295.166,92.333Z"/>
  </g>
  <g>
    <path d="M306.079,82.019h.54v.564h-.54V83.62h-.653V82.583h-2.255v-.534l2.165-2.626h.743Zm-.653,0v-1.9l-1.554,1.9Z"/>
    <path d="M307.97,83.032l-.587,1.584h-.5l.4-1.584Z"/>
    <path d="M308.457,81.515c0-1.277.695-2.158,1.715-2.158s1.715.881,1.715,2.158-.69,2.165-1.715,2.165S308.457,82.805,308.457,81.515Zm2.776,0c0-.965-.414-1.577-1.061-1.577s-1.062.618-1.062,1.577.414,1.584,1.062,1.584S311.233,82.493,311.233,81.515Z"/>
    <path d="M315.654,81.407a2.007,2.007,0,0,1-1.954,2.267,1.9,1.9,0,0,1-1.116-.359l.36-.486a1.331,1.331,0,0,0,.81.258c.779,0,1.235-.612,1.247-1.667a1.456,1.456,0,0,1-1.157.611,1.3,1.3,0,0,1-1.4-1.289,1.386,1.386,0,0,1,1.476-1.38A1.818,1.818,0,0,1,315.654,81.407Zm-.683-.4c-.1-.654-.5-1.08-1.032-1.08a.809.809,0,0,0-.857.8.79.79,0,0,0,.863.785A1.314,1.314,0,0,0,314.971,81.006Z"/>
    <path d="M318.409,80h-2.4v-.581h3.124v.491l-1.9,3.706h-.767Z"/>
  </g>
  <g>
    <path d="M349.934,88.851a2.108,2.108,0,0,1-1.553-.63l.444-.414a1.377,1.377,0,0,0,1.1.468c.539,0,.911-.282.911-.7a.663.663,0,0,0-.743-.629h-.523V86.4h.468a.608.608,0,0,0,.666-.629.725.725,0,0,0-.8-.666,1.293,1.293,0,0,0-1.043.5l-.444-.414a2.033,2.033,0,0,1,1.511-.666,1.28,1.28,0,0,1,1.433,1.175,1.008,1.008,0,0,1-.815.96,1.04,1.04,0,0,1,.948.959C351.5,88.335,350.846,88.851,349.934,88.851Z"/>
    <path d="M352.9,88.2l-.587,1.583h-.5l.4-1.583Z"/>
    <path d="M356.563,86.578a2.007,2.007,0,0,1-1.955,2.267,1.892,1.892,0,0,1-1.115-.36l.359-.486a1.333,1.333,0,0,0,.81.258c.78,0,1.235-.612,1.248-1.667a1.454,1.454,0,0,1-1.158.611,1.3,1.3,0,0,1-1.4-1.289,1.385,1.385,0,0,1,1.474-1.379A1.819,1.819,0,0,1,356.563,86.578Zm-.683-.4c-.1-.653-.5-1.079-1.031-1.079a.808.808,0,0,0-.858.8.791.791,0,0,0,.863.786A1.314,1.314,0,0,0,355.88,86.176Z"/>
    <path d="M358.461,88.791h-.654V85.277l-.744.323v-.581l.984-.426h.414Z"/>
    <path d="M359.385,84.593h2.554v.564h-2l-.053,1.217a1.864,1.864,0,0,1,.876-.21,1.267,1.267,0,0,1,1.4,1.271,1.436,1.436,0,0,1-1.589,1.422,2.113,2.113,0,0,1-1.474-.57l.395-.45a1.559,1.559,0,0,0,1.1.45.809.809,0,1,0-.019-1.607,1.773,1.773,0,0,0-.833.222l-.456-.138Z"/>
  </g>
  <g>
    <path d="M371.953,84.978h.54v.564h-.54v1.037H371.3V85.542h-2.255v-.534l2.165-2.627h.743Zm-.653,0V83.083l-1.554,1.895Z"/>
    <path d="M373.844,85.991l-.587,1.584h-.5l.4-1.584Z"/>
    <path d="M374.33,84.474c0-1.277.7-2.158,1.716-2.158s1.715.881,1.715,2.158-.69,2.165-1.715,2.165S374.33,85.764,374.33,84.474Zm2.777,0c0-.965-.414-1.577-1.061-1.577s-1.062.618-1.062,1.577.413,1.584,1.062,1.584S377.107,85.452,377.107,84.474Z"/>
    <path d="M379.664,86.579h-.654V83.065l-.743.324v-.582l.983-.426h.414Z"/>
    <path d="M380.589,82.381h2.554v.564h-2l-.053,1.218a1.86,1.86,0,0,1,.875-.21,1.267,1.267,0,0,1,1.4,1.271,1.435,1.435,0,0,1-1.589,1.421,2.115,2.115,0,0,1-1.475-.57l.4-.449a1.562,1.562,0,0,0,1.1.449.809.809,0,1,0-.018-1.607,1.773,1.773,0,0,0-.834.222l-.455-.138Z"/>
  </g>
  <g>
    <path d="M415.655,82.978h.54v.564h-.54v1.037H415V83.542h-2.255v-.534l2.165-2.627h.743Zm-.653,0V81.083l-1.554,1.895Z"/>
    <path d="M417.546,83.991l-.587,1.584h-.5l.4-1.584Z"/>
    <path d="M418.032,82.474c0-1.277.7-2.158,1.716-2.158s1.715.881,1.715,2.158-.69,2.165-1.715,2.165S418.032,83.764,418.032,82.474Zm2.777,0c0-.965-.414-1.577-1.061-1.577s-1.062.618-1.062,1.577.414,1.584,1.062,1.584S420.809,83.452,420.809,82.474Z"/>
    <path d="M421.963,84.106l1.721-1.8a1.125,1.125,0,0,0,.408-.791.685.685,0,0,0-.768-.618,1.515,1.515,0,0,0-1.086.516l-.371-.45a2.121,2.121,0,0,1,1.475-.635c.822,0,1.385.468,1.385,1.145a1.6,1.6,0,0,1-.6,1.169l-1.344,1.385,2.022-.011v.563h-2.843Z"/>
    <path d="M428.159,82.978h.54v.564h-.54v1.037h-.653V83.542h-2.255v-.534l2.165-2.627h.743Zm-.653,0V81.083l-1.554,1.895Z"/>
  </g>
  <g>
    <path d="M437.207,81.689h.54v.563h-.54V83.29h-.653V82.252H434.3v-.534l2.165-2.626h.743Zm-.653,0V79.794L435,81.689Z"/>
    <path d="M439.1,82.7l-.587,1.583h-.5l.4-1.583Z"/>
    <path d="M440.67,83.29h-.653V79.776l-.745.323v-.581l.985-.426h.413Z"/>
    <path d="M441.408,81.185c0-1.278.7-2.159,1.716-2.159s1.715.881,1.715,2.159-.69,2.165-1.715,2.165S441.408,82.474,441.408,81.185Zm2.777,0c0-.966-.414-1.577-1.061-1.577s-1.062.617-1.062,1.577.414,1.583,1.062,1.583S444.185,82.162,444.185,81.185Z"/>
    <path d="M445.452,81.185c0-1.278.7-2.159,1.716-2.159s1.715.881,1.715,2.159-.69,2.165-1.715,2.165S445.452,82.474,445.452,81.185Zm2.777,0c0-.966-.414-1.577-1.061-1.577s-1.062.617-1.062,1.577.413,1.583,1.062,1.583S448.229,82.162,448.229,81.185Z"/>
  </g>
  <g>
    <path d="M481.129,76.754h.539v.563h-.539v1.038h-.654V77.317H478.22v-.534l2.165-2.626h.744Zm-.654,0v-1.9l-1.553,1.9Z"/>
    <path d="M483.019,77.767l-.587,1.583h-.5l.4-1.583Z"/>
    <path d="M483.62,77.881l1.721-1.8a1.125,1.125,0,0,0,.408-.792.685.685,0,0,0-.768-.617,1.519,1.519,0,0,0-1.086.515l-.371-.45A2.127,2.127,0,0,1,485,74.1c.822,0,1.386.468,1.386,1.145a1.607,1.607,0,0,1-.6,1.17L484.441,77.8l2.022-.012v.564H483.62Z"/>
    <path d="M487.04,77.881l1.721-1.8a1.129,1.129,0,0,0,.408-.792.685.685,0,0,0-.768-.617,1.517,1.517,0,0,0-1.086.515l-.371-.45a2.127,2.127,0,0,1,1.475-.635c.822,0,1.386.468,1.386,1.145a1.607,1.607,0,0,1-.6,1.17L487.861,77.8l2.022-.012v.564H487.04Z"/>
    <path d="M493.638,76.142a2.008,2.008,0,0,1-1.954,2.267,1.9,1.9,0,0,1-1.117-.36l.361-.486a1.33,1.33,0,0,0,.809.258c.78,0,1.236-.612,1.247-1.667a1.454,1.454,0,0,1-1.157.611,1.3,1.3,0,0,1-1.4-1.289A1.386,1.386,0,0,1,491.9,74.1,1.818,1.818,0,0,1,493.638,76.142Zm-.684-.4c-.1-.653-.5-1.079-1.031-1.079a.809.809,0,0,0-.858.8.792.792,0,0,0,.864.786A1.312,1.312,0,0,0,492.954,75.74Z"/>
  </g>
  <g>
    <path d="M501.721,75.423h.54v.563h-.54v1.038h-.654V75.986h-2.255v-.534l2.165-2.626h.744Zm-.654,0v-1.9l-1.553,1.9Z"/>
    <path d="M503.611,76.436l-.587,1.583h-.5l.4-1.583Z"/>
    <path d="M504.212,76.55l1.722-1.8a1.127,1.127,0,0,0,.407-.792.685.685,0,0,0-.768-.618,1.515,1.515,0,0,0-1.085.516l-.372-.45a2.127,2.127,0,0,1,1.476-.635c.821,0,1.384.468,1.384,1.145a1.6,1.6,0,0,1-.6,1.17l-1.343,1.385,2.021-.012v.564h-2.843Z"/>
    <path d="M507.626,75.033a2.008,2.008,0,0,1,1.955-2.267,1.887,1.887,0,0,1,1.115.36l-.359.485a1.337,1.337,0,0,0-.81-.257c-.779,0-1.235.611-1.247,1.667a1.452,1.452,0,0,1,1.157-.612,1.3,1.3,0,0,1,1.4,1.289,1.386,1.386,0,0,1-1.476,1.38A1.819,1.819,0,0,1,507.626,75.033Zm.683.4c.1.654.5,1.08,1.032,1.08a.809.809,0,0,0,.858-.8.791.791,0,0,0-.864-.785A1.317,1.317,0,0,0,508.309,75.434Z"/>
    <path d="M511.435,74.919c0-1.278.7-2.159,1.716-2.159s1.715.881,1.715,2.159-.689,2.165-1.715,2.165S511.435,76.208,511.435,74.919Zm2.778,0c0-.966-.414-1.578-1.062-1.578s-1.061.618-1.061,1.578.413,1.583,1.061,1.583S514.213,75.9,514.213,74.919Z"/>
  </g>
  <g>
    <g>
      <path d="M40.022,9.653h3.4a2.271,2.271,0,0,1,2.469,2.229,2.106,2.106,0,0,1-1.3,1.959l1.469,2.809H44.14l-1.269-2.569h-1.13V16.65H40.022Zm1.719,1.419v1.66H43.26a.832.832,0,1,0,0-1.66Z"/>
      <path d="M46.562,15.171c0-.95.74-1.5,2.009-1.5a3.359,3.359,0,0,1,1.2.24v-.42c0-.5-.33-.749-1.02-.749a3.844,3.844,0,0,0-1.449.36l-.559-1.13a5.7,5.7,0,0,1,2.368-.56c1.429,0,2.259.71,2.259,1.939v3.3h-1.6V16.2a2.053,2.053,0,0,1-1.429.53A1.606,1.606,0,0,1,46.562,15.171Zm2.279.489a1.762,1.762,0,0,0,.93-.26v-.66a3.926,3.926,0,0,0-.89-.109c-.53,0-.829.18-.829.509S48.342,15.66,48.841,15.66Z"/>
      <path d="M56.16,15.98a1.945,1.945,0,0,1-1.519.7,2.457,2.457,0,0,1-2.279-2.618,2.486,2.486,0,0,1,2.4-2.6,1.8,1.8,0,0,1,1.379.619V9.5l1.619-.25v7.4h-1.6Zm-.979-.64a1.254,1.254,0,0,0,.959-.41V13.192a1.313,1.313,0,0,0-.959-.4,1.275,1.275,0,0,0,0,2.548Z"/>
      <path d="M61.481,11.412a2.669,2.669,0,1,1-2.689,2.669A2.626,2.626,0,0,1,61.481,11.412ZM62.6,14.081a1.13,1.13,0,1,0-2.229,0,1.128,1.128,0,1,0,2.229,0Z"/>
      <path d="M65.5,15.041a3.346,3.346,0,0,0,1.659.519c.46,0,.74-.16.74-.42,0-.2-.15-.309-.48-.369l-.989-.181c-1-.189-1.52-.7-1.52-1.5,0-1.059.81-1.689,2.159-1.689a4.148,4.148,0,0,1,2.1.59l-.74,1.03a2.913,2.913,0,0,0-1.479-.44c-.39,0-.62.13-.62.36,0,.21.13.3.53.369l.969.18c1.02.19,1.56.71,1.55,1.49.01,1.009-.95,1.769-2.219,1.769a4.224,4.224,0,0,1-2.369-.63Z"/>
      <path d="M73.33,16.679a1.806,1.806,0,0,1-1.409-.659v.63h-1.6V9.5l1.619-.25v2.9a1.949,1.949,0,0,1,1.509-.689,2.457,2.457,0,0,1,2.279,2.618A2.486,2.486,0,0,1,73.33,16.679Zm-1.389-3.458v1.72a1.331,1.331,0,0,0,.97.409,1.275,1.275,0,0,0,0-2.548A1.252,1.252,0,0,0,71.941,13.221Z"/>
      <path d="M79.3,16.75a2.667,2.667,0,0,1-2.718-2.669,2.588,2.588,0,0,1,2.6-2.679,2.535,2.535,0,0,1,2.538,2.739v.35H78.171a1.237,1.237,0,0,0,1.209.969,1.277,1.277,0,0,0,1.02-.43l1.069.89A3.007,3.007,0,0,1,79.3,16.75Zm-1.129-3.179H80.22a1.074,1.074,0,0,0-1.05-.909A1.024,1.024,0,0,0,78.171,13.571Z"/>
      <path d="M82.732,11.492h1.619v.84a1.9,1.9,0,0,1,1.629-.92,1.667,1.667,0,0,1,1.709,1.76V16.65H86.07V13.641a.859.859,0,0,0-.86-.959,1.039,1.039,0,0,0-.859.429V16.65H82.732Z"/>
      <path d="M92.49,14.84l.959.95a2.712,2.712,0,0,1-2.1.96,2.669,2.669,0,1,1,0-5.338,2.79,2.79,0,0,1,2.148.95l-.989.989a1.351,1.351,0,0,0-1.1-.559,1.183,1.183,0,0,0-1.12,1.289,1.182,1.182,0,0,0,1.16,1.269A1.247,1.247,0,0,0,92.49,14.84Z"/>
      <path d="M94.3,9.5l1.618-.25v3.078a1.9,1.9,0,0,1,1.63-.92,1.667,1.667,0,0,1,1.709,1.76V16.65H97.64V13.641a.859.859,0,0,0-.86-.959,1.042,1.042,0,0,0-.86.429V16.65H94.3Z"/>
      <path d="M107.689,13.771h.829V15.08h-.829v1.57H106.15V15.08h-3.738V13.811l3.478-4.158h1.8Zm-1.539,0V11.193l-2.139,2.578Z"/>
      <path d="M111.261,11.862V16.65h-1.579v-7h2.158l1.689,3.358,1.679-3.358h2.159v7h-1.619V11.9l-2.239,4.248Z"/>
      <path d="M120.691,15.171c0-.95.74-1.5,2.009-1.5a3.354,3.354,0,0,1,1.2.24v-.42c0-.5-.33-.749-1.019-.749a3.835,3.835,0,0,0-1.449.36l-.56-1.13a5.707,5.707,0,0,1,2.369-.56c1.429,0,2.258.71,2.258,1.939v3.3h-1.6V16.2a2.053,2.053,0,0,1-1.429.53A1.605,1.605,0,0,1,120.691,15.171Zm2.279.489a1.758,1.758,0,0,0,.929-.26v-.66a3.917,3.917,0,0,0-.889-.109c-.53,0-.83.18-.83.509S122.47,15.66,122.97,15.66Z"/>
      <path d="M126.491,14.041a2.474,2.474,0,0,1,2.4-2.578,1.8,1.8,0,0,1,1.4.649v-.62h1.589v5.227c0,1.39-.96,2.16-2.718,2.16a4.951,4.951,0,0,1-2.139-.46l.5-1.17a3.653,3.653,0,0,0,1.58.4c.769,0,1.169-.32,1.169-.95V15.96a1.934,1.934,0,0,1-1.5.68A2.445,2.445,0,0,1,126.491,14.041Zm2.818,1.279a1.254,1.254,0,0,0,.96-.41V13.192a1.314,1.314,0,0,0-.96-.4,1.2,1.2,0,0,0-1.229,1.259A1.22,1.22,0,0,0,129.309,15.32Z"/>
      <path d="M132.911,14.041a2.474,2.474,0,0,1,2.4-2.578,1.8,1.8,0,0,1,1.4.649v-.62H138.3v5.227c0,1.39-.96,2.16-2.718,2.16a4.948,4.948,0,0,1-2.139-.46l.5-1.17a3.652,3.652,0,0,0,1.579.4c.77,0,1.17-.32,1.17-.95V15.96a1.936,1.936,0,0,1-1.5.68A2.445,2.445,0,0,1,132.911,14.041Zm2.818,1.279a1.254,1.254,0,0,0,.96-.41V13.192a1.314,1.314,0,0,0-.96-.4,1.2,1.2,0,0,0-1.229,1.259A1.22,1.22,0,0,0,135.729,15.32Z"/>
      <path d="M139.561,11.492h1.619v1.17c.33-.86.79-1.27,1.4-1.27a1.105,1.105,0,0,1,.539.131v1.389a1.77,1.77,0,0,0-.759-.16,1.427,1.427,0,0,0-1.18.639V16.65h-1.619Z"/>
      <path d="M146.319,16.75a2.667,2.667,0,0,1-2.718-2.669,2.588,2.588,0,0,1,2.6-2.679,2.535,2.535,0,0,1,2.538,2.739v.35H145.19a1.237,1.237,0,0,0,1.209.969,1.277,1.277,0,0,0,1.02-.43l1.069.89A3.007,3.007,0,0,1,146.319,16.75Zm-1.129-3.179h2.049a1.074,1.074,0,0,0-1.05-.909A1.024,1.024,0,0,0,145.19,13.571Z"/>
      <path d="M149.571,14.041a2.474,2.474,0,0,1,2.4-2.578,1.8,1.8,0,0,1,1.4.649v-.62h1.588v5.227c0,1.39-.959,2.16-2.718,2.16a4.944,4.944,0,0,1-2.138-.46l.5-1.17a3.652,3.652,0,0,0,1.579.4c.77,0,1.17-.32,1.17-.95V15.96a1.936,1.936,0,0,1-1.5.68A2.445,2.445,0,0,1,149.571,14.041Zm2.818,1.279a1.254,1.254,0,0,0,.96-.41V13.192a1.314,1.314,0,0,0-.96-.4,1.2,1.2,0,0,0-1.229,1.259A1.219,1.219,0,0,0,152.389,15.32Z"/>
      <path d="M155.981,15.171c0-.95.74-1.5,2.009-1.5a3.354,3.354,0,0,1,1.2.24v-.42c0-.5-.33-.749-1.019-.749a3.835,3.835,0,0,0-1.449.36l-.56-1.13a5.707,5.707,0,0,1,2.369-.56c1.429,0,2.258.71,2.258,1.939v3.3h-1.6V16.2a2.053,2.053,0,0,1-1.429.53A1.605,1.605,0,0,1,155.981,15.171Zm2.279.489a1.756,1.756,0,0,0,.929-.26v-.66a3.91,3.91,0,0,0-.889-.109c-.53,0-.83.18-.83.509S157.76,15.66,158.26,15.66Z"/>
      <path d="M162.54,12.742h-1v-1.25h1V10.063l1.619-.329v1.758h1.379v1.25h-1.379v2c0,.46.18.621.68.621a2.168,2.168,0,0,0,.659-.111v1.31a4.492,4.492,0,0,1-1.109.159c-1.219,0-1.849-.559-1.849-1.659Z"/>
      <path d="M168.929,16.75a2.667,2.667,0,0,1-2.718-2.669,2.588,2.588,0,0,1,2.6-2.679,2.535,2.535,0,0,1,2.539,2.739v.35H167.8a1.237,1.237,0,0,0,1.209.969,1.277,1.277,0,0,0,1.02-.43l1.069.89A3.007,3.007,0,0,1,168.929,16.75ZM167.8,13.571h2.049a1.074,1.074,0,0,0-1.05-.909A1.023,1.023,0,0,0,167.8,13.571Z"/>
      <path d="M175.978,15.98a1.943,1.943,0,0,1-1.519.7,2.457,2.457,0,0,1-2.278-2.618,2.486,2.486,0,0,1,2.4-2.6,1.8,1.8,0,0,1,1.379.619V9.5l1.62-.25v7.4h-1.6ZM175,15.34a1.252,1.252,0,0,0,.959-.41V13.192a1.311,1.311,0,0,0-.959-.4,1.275,1.275,0,0,0,0,2.548Z"/>
      <path d="M180.991,11.492h1.618v1.17c.33-.86.79-1.27,1.4-1.27a1.1,1.1,0,0,1,.539.131v1.389a1.767,1.767,0,0,0-.759-.16,1.428,1.428,0,0,0-1.18.639V16.65h-1.618Z"/>
      <path d="M187.748,16.75a2.667,2.667,0,0,1-2.718-2.669,2.588,2.588,0,0,1,2.6-2.679,2.535,2.535,0,0,1,2.538,2.739v.35h-3.548a1.238,1.238,0,0,0,1.21.969,1.276,1.276,0,0,0,1.019-.43l1.069.89A3.007,3.007,0,0,1,187.748,16.75Zm-1.129-3.179h2.049a1.073,1.073,0,0,0-1.049-.909A1.024,1.024,0,0,0,186.619,13.571Z"/>
      <path d="M190.94,15.171c0-.95.74-1.5,2.009-1.5a3.354,3.354,0,0,1,1.2.24v-.42c0-.5-.33-.749-1.019-.749a3.835,3.835,0,0,0-1.449.36l-.56-1.13a5.707,5.707,0,0,1,2.369-.56c1.429,0,2.258.71,2.258,1.939v3.3h-1.6V16.2a2.053,2.053,0,0,1-1.429.53A1.605,1.605,0,0,1,190.94,15.171Zm2.279.489a1.756,1.756,0,0,0,.929-.26v-.66a3.91,3.91,0,0,0-.889-.109c-.53,0-.83.18-.83.509S192.719,15.66,193.219,15.66Z"/>
      <path d="M200.538,15.98a1.945,1.945,0,0,1-1.519.7,2.457,2.457,0,0,1-2.279-2.618,2.486,2.486,0,0,1,2.4-2.6,1.8,1.8,0,0,1,1.379.619V9.5l1.619-.25v7.4h-1.6Zm-.979-.64a1.254,1.254,0,0,0,.959-.41V13.192a1.313,1.313,0,0,0-.959-.4,1.275,1.275,0,0,0,0,2.548Z"/>
      <path d="M206.229,12.742h-1v-1.25h1V10.063l1.62-.329v1.758h1.379v1.25h-1.379v2c0,.46.18.621.679.621a2.178,2.178,0,0,0,.66-.111v1.31a4.5,4.5,0,0,1-1.109.159c-1.22,0-1.85-.559-1.85-1.659Z"/>
      <path d="M210.13,9.5l1.618-.25v3.078a1.9,1.9,0,0,1,1.63-.92,1.667,1.667,0,0,1,1.709,1.76V16.65h-1.619V13.641a.859.859,0,0,0-.86-.959,1.042,1.042,0,0,0-.86.429V16.65H210.13Z"/>
      <path d="M216.31,11.492h1.619v1.17c.33-.86.79-1.27,1.4-1.27a1.106,1.106,0,0,1,.54.131v1.389a1.775,1.775,0,0,0-.76-.16,1.425,1.425,0,0,0-1.179.639V16.65H216.31Z"/>
      <path d="M223.038,11.412a2.669,2.669,0,1,1-2.688,2.669A2.626,2.626,0,0,1,223.038,11.412Zm1.12,2.669a1.13,1.13,0,1,0-2.229,0,1.128,1.128,0,1,0,2.229,0Z"/>
      <path d="M228.349,14.5a.859.859,0,0,0,.859.959,1.043,1.043,0,0,0,.86-.43V11.492h1.619V16.65h-1.619v-.84a1.9,1.9,0,0,1-1.629.92,1.667,1.667,0,0,1-1.709-1.76V11.492h1.619Z"/>
      <path d="M232.72,14.041a2.474,2.474,0,0,1,2.4-2.578,1.8,1.8,0,0,1,1.4.649v-.62h1.589v5.227c0,1.39-.959,2.16-2.718,2.16a4.951,4.951,0,0,1-2.139-.46l.5-1.17a3.652,3.652,0,0,0,1.579.4c.77,0,1.169-.32,1.169-.95V15.96a1.932,1.932,0,0,1-1.5.68A2.445,2.445,0,0,1,232.72,14.041Zm2.818,1.279a1.252,1.252,0,0,0,.959-.41V13.192a1.311,1.311,0,0,0-.959-.4,1.2,1.2,0,0,0-1.229,1.259A1.219,1.219,0,0,0,235.538,15.32Z"/>
      <path d="M239.37,9.5l1.618-.25v3.078a1.9,1.9,0,0,1,1.63-.92,1.667,1.667,0,0,1,1.709,1.76V16.65h-1.62V13.641a.858.858,0,0,0-.859-.959,1.042,1.042,0,0,0-.86.429V16.65H239.37Z"/>
      <path d="M248.008,11.412a2.669,2.669,0,1,1-2.688,2.669A2.626,2.626,0,0,1,248.008,11.412Zm1.119,2.669a1.13,1.13,0,1,0-2.228,0,1.127,1.127,0,1,0,2.228,0Z"/>
      <path d="M253.319,14.5a.859.859,0,0,0,.859.959,1.043,1.043,0,0,0,.86-.43V11.492h1.619V16.65h-1.619v-.84a1.9,1.9,0,0,1-1.629.92,1.667,1.667,0,0,1-1.709-1.76V11.492h1.619Z"/>
      <path d="M258.6,12.742h-1v-1.25h1V10.063l1.619-.329v1.758H261.6v1.25h-1.379v2c0,.46.18.621.679.621a2.178,2.178,0,0,0,.66-.111v1.31a4.5,4.5,0,0,1-1.109.159c-1.22,0-1.849-.559-1.849-1.659Z"/>
    </g>
    <g>
      <path d="M39.642,26.567c0-1.815,1.04-3.022,2.607-3.022a2.519,2.519,0,0,1,1.487.479l-.48.648a1.772,1.772,0,0,0-1.079-.344c-1.039,0-1.647.816-1.663,2.223a1.938,1.938,0,0,1,1.543-.816,1.733,1.733,0,0,1,1.871,1.719,1.847,1.847,0,0,1-1.967,1.839C40.586,29.293,39.642,28.182,39.642,26.567Zm.912.536c.136.871.664,1.439,1.375,1.439a1.079,1.079,0,0,0,1.144-1.064,1.055,1.055,0,0,0-1.152-1.047A1.751,1.751,0,0,0,40.554,27.1Z"/>
      <path d="M44.722,26.415c0-1.7.928-2.879,2.287-2.879S49.3,24.712,49.3,26.415c0,1.719-.92,2.886-2.287,2.886S44.722,28.134,44.722,26.415Zm3.7,0c0-1.287-.552-2.1-1.415-2.1s-1.415.823-1.415,2.1c0,1.3.551,2.111,1.415,2.111S48.424,27.718,48.424,26.415Z"/>
      <path d="M53.105,27.182l-1.463-1.967H52.7l.935,1.32.936-1.32h1.007l-1.439,1.943,1.551,2.063H54.624l-1.007-1.415L52.61,29.221H51.6Z"/>
      <path d="M58.21,23.625h.959v2.358h2.783V23.625h.959v5.6h-.959v-2.4H59.169v2.4H58.21Z"/>
      <path d="M64.218,23.625h2.047a2.8,2.8,0,1,1,0,5.6H64.218Zm.96.831V28.39h1.111a1.976,1.976,0,0,0,0-3.934Z"/>
      <path d="M70.154,23.625H72.2a2.8,2.8,0,1,1,0,5.6H70.154Zm.959.831V28.39h1.112a1.976,1.976,0,0,0,0-3.934Z"/>
      <path d="M80.464,29.309a2.887,2.887,0,1,1,2.83-2.886A2.832,2.832,0,0,1,80.464,29.309Zm.008-4.917a2.035,2.035,0,0,0,0,4.054,2.037,2.037,0,0,0,0-4.054Z"/>
      <path d="M84.417,27.694a2.8,2.8,0,0,0,1.88.816c.743,0,1.255-.376,1.255-.888,0-.455-.272-.663-1.015-.8l-1.032-.176c-.967-.176-1.439-.656-1.439-1.424,0-1.007.807-1.678,2.063-1.678a3.733,3.733,0,0,1,2.246.727l-.487.72a2.9,2.9,0,0,0-1.791-.648c-.672,0-1.112.336-1.112.791,0,.4.248.608.864.7l.991.176c1.128.192,1.656.688,1.656,1.535,0,1.024-.912,1.751-2.248,1.751a3.521,3.521,0,0,1-2.35-.9Z"/>
      <path d="M89.474,23.625H91.52a2.8,2.8,0,1,1,0,5.6H89.474Zm.959.831V28.39h1.111a1.976,1.976,0,0,0,0-3.934Z"/>
      <path d="M101.367,27.71l.631.608a2.873,2.873,0,1,1,.024-3.79l-.647.64a1.969,1.969,0,1,0-1.5,3.27A1.9,1.9,0,0,0,101.367,27.71Z"/>
      <path d="M104.616,29.3a2.035,2.035,0,0,1-2.038-2.079,1.972,1.972,0,0,1,1.95-2.07,1.922,1.922,0,0,1,1.895,2.063v.223h-2.958a1.224,1.224,0,0,0,1.2,1.1,1.3,1.3,0,0,0,.952-.376l.591.552A2.317,2.317,0,0,1,104.616,29.3Zm-1.135-2.415h2.087a1.1,1.1,0,0,0-1.048-1A1.076,1.076,0,0,0,103.481,26.886Z"/>
      <path d="M107.345,25.215h.888v.576a1.507,1.507,0,0,1,1.247-.607,1.921,1.921,0,0,1,1.815,2.038,1.941,1.941,0,0,1-1.879,2.039,1.5,1.5,0,0,1-1.167-.519v2.175h-.9Zm.9,1.176v1.671a1.227,1.227,0,0,0,.959.44,1.283,1.283,0,0,0,0-2.559A1.176,1.176,0,0,0,108.249,26.391Z"/>
      <path d="M112.233,23.505l.9-.152v2.518a1.454,1.454,0,0,1,1.271-.719,1.347,1.347,0,0,1,1.383,1.431v2.638h-.9V26.839a.863.863,0,0,0-.879-.96,1.028,1.028,0,0,0-.872.48v2.862h-.9Z"/>
      <path d="M121.552,28.062l.543.544a2.087,2.087,0,0,1-1.567.695,2.071,2.071,0,0,1,0-4.141,2.161,2.161,0,0,1,1.6.671l-.56.584a1.321,1.321,0,0,0-1.007-.472,1.285,1.285,0,0,0,.024,2.559A1.233,1.233,0,0,0,121.552,28.062Z"/>
      <path d="M123.777,29.221h-.9V23.505l.9-.152Z"/>
      <path d="M125.768,27.6a.863.863,0,0,0,.88.96,1.009,1.009,0,0,0,.879-.5V25.215h.9v4.006h-.9v-.663a1.464,1.464,0,0,1-1.279.727,1.343,1.343,0,0,1-1.383-1.431V25.215h.9Z"/>
      <path d="M129.609,28.15a2.307,2.307,0,0,0,1.287.456c.48,0,.808-.216.808-.536,0-.248-.168-.384-.552-.456l-.712-.12c-.775-.144-1.159-.5-1.159-1.1,0-.752.616-1.239,1.551-1.239a2.816,2.816,0,0,1,1.575.479l-.423.592a2.191,2.191,0,0,0-1.208-.384c-.416,0-.687.176-.687.472,0,.256.143.368.567.44l.7.128c.8.151,1.183.519,1.183,1.119a1.467,1.467,0,0,1-1.631,1.3,2.682,2.682,0,0,1-1.727-.544Z"/>
      <path d="M133.793,25.935h-.808v-.72h.808v-1.1l.9-.192v1.295h1.119v.72H134.7v2.031c0,.392.152.544.56.544a1.665,1.665,0,0,0,.544-.1v.759a2.844,2.844,0,0,1-.776.112c-.808,0-1.231-.383-1.231-1.119Z"/>
      <path d="M138.408,29.3a2.036,2.036,0,0,1-2.039-2.079,1.972,1.972,0,0,1,1.951-2.07,1.923,1.923,0,0,1,1.9,2.063v.223h-2.959a1.224,1.224,0,0,0,1.2,1.1,1.3,1.3,0,0,0,.951-.376l.592.552A2.321,2.321,0,0,1,138.408,29.3Zm-1.136-2.415h2.087a1.1,1.1,0,0,0-1.047-1A1.076,1.076,0,0,0,137.272,26.886Z"/>
      <path d="M141.137,25.215h.9v.872a1.187,1.187,0,0,1,1.1-.943,1.1,1.1,0,0,1,.393.079v.792a1.278,1.278,0,0,0-.5-.1,1.1,1.1,0,0,0-1,.664v2.638h-.9Z"/>
      <path d="M144.616,28.438l-.784,2.11h-.663l.536-2.11Z"/>
      <path d="M150.271,24.4h-3.206v-.775h4.165v.655L148.7,29.221h-1.023Z"/>
      <path d="M154.888,27.182l-1.463-1.967h1.055l.936,1.32.935-1.32h1.008l-1.44,1.943,1.552,2.063h-1.064L155.4,27.806l-1.008,1.415h-1.007Z"/>
      <path d="M160.032,23.625h2.487a1.705,1.705,0,0,1,1.871,1.694,1.592,1.592,0,0,1-1.1,1.536l1.175,2.366H163.4l-1.079-2.238h-1.327v2.238h-.96Zm.96.807v1.783h1.447a.9.9,0,1,0,0-1.783Z"/>
      <path d="M165.017,28.07c0-.72.583-1.175,1.527-1.175a2.489,2.489,0,0,1,1.079.247V26.7c0-.528-.3-.8-.919-.8a2.773,2.773,0,0,0-1.168.312l-.32-.656a3.845,3.845,0,0,1,1.663-.407c1.04,0,1.639.527,1.639,1.455v2.614h-.9v-.407a1.674,1.674,0,0,1-1.191.471A1.262,1.262,0,0,1,165.017,28.07Zm1.663.583a1.433,1.433,0,0,0,.943-.327V27.67a2.073,2.073,0,0,0-.927-.192c-.512,0-.832.224-.832.576C165.864,28.422,166.184,28.653,166.68,28.653Z"/>
      <path d="M172.478,28.686a1.538,1.538,0,0,1-1.231.575,2.049,2.049,0,0,1,.056-4.077,1.532,1.532,0,0,1,1.168.527V23.505l.9-.152v5.868h-.9Zm-.959-.184a1.2,1.2,0,0,0,.952-.44V26.375a1.243,1.243,0,0,0-.952-.432,1.283,1.283,0,0,0,0,2.559Z"/>
      <path d="M176.327,25.152a2.075,2.075,0,1,1-2.015,2.07A2,2,0,0,1,176.327,25.152Zm1.12,2.079a1.133,1.133,0,1,0-2.239,0,1.13,1.13,0,1,0,2.239,0Z"/>
      <path d="M179.344,28.15a2.31,2.31,0,0,0,1.288.456c.479,0,.807-.216.807-.536,0-.248-.168-.384-.551-.456l-.712-.12c-.776-.144-1.159-.5-1.159-1.1,0-.752.615-1.239,1.551-1.239a2.813,2.813,0,0,1,1.574.479l-.423.592a2.19,2.19,0,0,0-1.207-.384c-.416,0-.688.176-.688.472,0,.256.144.368.568.44l.7.128c.8.151,1.184.519,1.184,1.119a1.468,1.468,0,0,1-1.632,1.3,2.682,2.682,0,0,1-1.727-.544Z"/>
      <path d="M185.183,29.261A1.493,1.493,0,0,1,184,28.7v.519h-.887V23.505l.9-.152v2.4a1.558,1.558,0,0,1,1.23-.567,1.921,1.921,0,0,1,1.815,2.038A1.941,1.941,0,0,1,185.183,29.261Zm-1.167-2.87v1.671a1.225,1.225,0,0,0,.959.44,1.283,1.283,0,0,0,0-2.559A1.173,1.173,0,0,0,184.016,26.391Z"/>
      <path d="M189.879,29.3a2.036,2.036,0,0,1-2.039-2.079,1.973,1.973,0,0,1,1.951-2.07,1.922,1.922,0,0,1,1.9,2.063v.223h-2.959a1.224,1.224,0,0,0,1.2,1.1,1.3,1.3,0,0,0,.951-.376l.592.552A2.319,2.319,0,0,1,189.879,29.3Zm-1.135-2.415h2.086a1.1,1.1,0,0,0-1.047-1A1.076,1.076,0,0,0,188.744,26.886Z"/>
      <path d="M192.608,25.215h.9v.656a1.453,1.453,0,0,1,1.271-.719,1.347,1.347,0,0,1,1.383,1.431v2.638h-.9V26.839a.863.863,0,0,0-.88-.96,1.025,1.025,0,0,0-.871.48v2.862h-.9Z"/>
      <path d="M200.126,28.062l.544.544a2.087,2.087,0,0,1-1.568.695,2.071,2.071,0,0,1,0-4.141,2.163,2.163,0,0,1,1.6.671l-.56.584a1.324,1.324,0,0,0-1.007-.472,1.285,1.285,0,0,0,.024,2.559A1.231,1.231,0,0,0,200.126,28.062Z"/>
      <path d="M201.448,23.505l.9-.152v2.518a1.455,1.455,0,0,1,1.271-.719,1.348,1.348,0,0,1,1.384,1.431v2.638h-.9V26.839a.862.862,0,0,0-.879-.96,1.028,1.028,0,0,0-.872.48v2.862h-.9Z"/>
      <path d="M210.766,28.062l.543.544a2.084,2.084,0,0,1-1.567.695,2.071,2.071,0,0,1,0-4.141,2.163,2.163,0,0,1,1.6.671l-.56.584a1.325,1.325,0,0,0-1.008-.472A1.285,1.285,0,0,0,209.8,28.5,1.232,1.232,0,0,0,210.766,28.062Z"/>
      <path d="M212.991,29.221h-.9V23.505l.9-.152Z"/>
      <path d="M213.992,23.848a.564.564,0,0,1,1.127,0,.564.564,0,0,1-1.127,0Zm1.015,5.373h-.9V25.215h.9Z"/>
      <path d="M217.974,29.3a2.036,2.036,0,0,1-2.039-2.079,1.973,1.973,0,0,1,1.951-2.07,1.923,1.923,0,0,1,1.9,2.063v.223h-2.958a1.224,1.224,0,0,0,1.2,1.1,1.3,1.3,0,0,0,.952-.376l.591.552A2.317,2.317,0,0,1,217.974,29.3Zm-1.135-2.415h2.087a1.1,1.1,0,0,0-1.048-1A1.076,1.076,0,0,0,216.839,26.886Z"/>
      <path d="M220.7,25.215h.9v.656a1.454,1.454,0,0,1,1.271-.719,1.348,1.348,0,0,1,1.383,1.431v2.638h-.9V26.839a.863.863,0,0,0-.88-.96,1.027,1.027,0,0,0-.871.48v2.862h-.9Z"/>
      <path d="M225.735,25.935h-.807v-.72h.807v-1.1l.9-.192v1.295h1.119v.72h-1.119v2.031c0,.392.151.544.559.544a1.66,1.66,0,0,0,.544-.1v.759a2.844,2.844,0,0,1-.776.112c-.807,0-1.231-.383-1.231-1.119Z"/>
      <path d="M228.7,28.15a2.307,2.307,0,0,0,1.287.456c.48,0,.808-.216.808-.536,0-.248-.168-.384-.552-.456l-.712-.12c-.775-.144-1.159-.5-1.159-1.1,0-.752.616-1.239,1.551-1.239a2.816,2.816,0,0,1,1.575.479l-.423.592a2.191,2.191,0,0,0-1.208-.384c-.416,0-.687.176-.687.472,0,.256.143.368.567.44l.7.128c.8.151,1.183.519,1.183,1.119A1.467,1.467,0,0,1,230,29.3a2.682,2.682,0,0,1-1.727-.544Z"/>
      <path d="M233.383,28.71a.56.56,0,1,1-.56-.584A.572.572,0,0,1,233.383,28.71Z"/>
    </g>
  </g>
  <path d="M105.506,215.284h-.924v-3.238l-.827.342v-.816l1.169-.485h.582Z"/>
  <path d="M168.385,214.625l1.775-1.757a.785.785,0,0,0,.282-.558c0-.27-.264-.474-.618-.474a1.444,1.444,0,0,0-1.061.516l-.516-.63a2.3,2.3,0,0,1,1.607-.689c.893,0,1.487.485,1.487,1.217a1.469,1.469,0,0,1-.546,1.086l-1.211,1.169,1.817-.006v.785h-3.016Z"/>
  <path d="M234.958,215.344a2.194,2.194,0,0,1-1.655-.677l.624-.576a1.189,1.189,0,0,0,1.019.444c.456,0,.756-.2.756-.516,0-.264-.216-.432-.552-.432h-.539v-.761h.444c.341,0,.545-.174.545-.468s-.282-.516-.66-.516a1.169,1.169,0,0,0-.977.48l-.63-.57a2.207,2.207,0,0,1,1.643-.731c.918,0,1.554.5,1.554,1.211a1.016,1.016,0,0,1-.792.96.972.972,0,0,1,.9.905C236.638,214.822,235.936,215.344,234.958,215.344Z"/>
  <path d="M301.517,213.557h.5v.786h-.5v.941h-.923v-.941h-2.243v-.762l2.086-2.494h1.08Zm-.923,0V212.01l-1.284,1.547Z"/>
  <path d="M363.952,211.087H366.7v.785h-1.973l-.042.942a1.817,1.817,0,0,1,.822-.192,1.274,1.274,0,0,1,1.415,1.277c0,.87-.695,1.451-1.728,1.451a2.307,2.307,0,0,1-1.535-.563l.552-.642a1.542,1.542,0,0,0,1.032.408c.438,0,.732-.24.732-.606s-.331-.611-.774-.611a1.444,1.444,0,0,0-.7.2l-.647-.192Z"/>
  <path d="M428.778,213.252a2.025,2.025,0,0,1,2.038-2.237,1.982,1.982,0,0,1,1.278.455l-.534.66a1.169,1.169,0,0,0-.815-.288c-.684,0-1.05.516-1.05,1.439a1.311,1.311,0,0,1,1.073-.593,1.291,1.291,0,0,1,1.41,1.271,1.439,1.439,0,0,1-1.553,1.391A1.879,1.879,0,0,1,428.778,213.252Zm.971.521a.9.9,0,0,0,.828.786.629.629,0,0,0,.695-.582.591.591,0,0,0-.659-.57A1.17,1.17,0,0,0,429.749,213.773Z"/>
  <path d="M496.267,211.9h-2.28v-.815h3.28v.689l-1.691,3.508h-1.109Z"/>
  <g>
    <path d="M42.007,88.79h.539v.563h-.539v1.038h-.654V89.353H39.1v-.534l2.165-2.626h.744Zm-.654,0V86.9L39.8,88.79Z"/>
    <path d="M43.9,89.8l-.587,1.583h-.5l.4-1.583Z"/>
    <path d="M44.384,88.286c0-1.278.7-2.159,1.716-2.159s1.714.881,1.714,2.159-.689,2.165-1.714,2.165S44.384,89.575,44.384,88.286Zm2.777,0c0-.966-.414-1.577-1.061-1.577s-1.062.617-1.062,1.577.414,1.583,1.062,1.583S47.161,89.263,47.161,88.286Z"/>
    <path d="M48.428,88.286c0-1.278.7-2.159,1.715-2.159s1.715.881,1.715,2.159-.689,2.165-1.715,2.165S48.428,89.575,48.428,88.286Zm2.777,0c0-.966-.414-1.577-1.062-1.577s-1.061.617-1.061,1.577.414,1.583,1.061,1.583S51.205,89.263,51.205,88.286Z"/>
    <path d="M52.472,88.286c0-1.278.7-2.159,1.715-2.159s1.715.881,1.715,2.159-.689,2.165-1.715,2.165S52.472,89.575,52.472,88.286Zm2.777,0c0-.966-.414-1.577-1.062-1.577s-1.061.617-1.061,1.577.413,1.583,1.061,1.583S55.249,89.263,55.249,88.286Z"/>
  </g>
  <g>
    <path d="M40.934,119.4a2.11,2.11,0,0,1-1.554-.63l.444-.413a1.379,1.379,0,0,0,1.1.467c.539,0,.911-.281.911-.695a.663.663,0,0,0-.743-.63h-.522v-.546h.467a.608.608,0,0,0,.666-.629.725.725,0,0,0-.8-.666,1.3,1.3,0,0,0-1.044.5l-.444-.414a2.035,2.035,0,0,1,1.512-.666,1.28,1.28,0,0,1,1.433,1.176,1.009,1.009,0,0,1-.816.959,1.04,1.04,0,0,1,.948.96C42.5,118.886,41.845,119.4,40.934,119.4Z"/>
    <path d="M43.9,118.754l-.588,1.584h-.5l.4-1.584Z"/>
    <path d="M44.384,117.237c0-1.277.7-2.159,1.716-2.159s1.714.882,1.714,2.159S47.125,119.4,46.1,119.4,44.384,118.527,44.384,117.237Zm2.777,0c0-.965-.414-1.577-1.061-1.577s-1.062.617-1.062,1.577.414,1.583,1.062,1.583S47.161,118.215,47.161,117.237Z"/>
    <path d="M48.428,117.237c0-1.277.7-2.159,1.715-2.159s1.715.882,1.715,2.159-.689,2.165-1.715,2.165S48.428,118.527,48.428,117.237Zm2.777,0c0-.965-.414-1.577-1.062-1.577s-1.061.617-1.061,1.577.414,1.583,1.061,1.583S51.205,118.215,51.205,117.237Z"/>
    <path d="M52.472,117.237c0-1.277.7-2.159,1.715-2.159s1.715.882,1.715,2.159-.689,2.165-1.715,2.165S52.472,118.527,52.472,117.237Zm2.777,0c0-.965-.414-1.577-1.062-1.577s-1.061.617-1.061,1.577.413,1.583,1.061,1.583S55.249,118.215,55.249,117.237Z"/>
  </g>
  <g>
    <path d="M39.608,148.285l1.722-1.8a1.127,1.127,0,0,0,.407-.792.684.684,0,0,0-.767-.618,1.513,1.513,0,0,0-1.086.516l-.371-.45a2.121,2.121,0,0,1,1.475-.635c.821,0,1.385.468,1.385,1.145a1.6,1.6,0,0,1-.6,1.169l-1.343,1.386,2.021-.012v.563H39.608Z"/>
    <path d="M43.9,148.171l-.588,1.583h-.5l.4-1.583Z"/>
    <path d="M44.384,146.653c0-1.277.7-2.158,1.716-2.158s1.714.881,1.714,2.158-.689,2.166-1.714,2.166S44.384,147.943,44.384,146.653Zm2.777,0c0-.965-.414-1.577-1.061-1.577s-1.062.618-1.062,1.577.414,1.584,1.062,1.584S47.161,147.631,47.161,146.653Z"/>
    <path d="M48.428,146.653c0-1.277.7-2.158,1.715-2.158s1.715.881,1.715,2.158-.689,2.166-1.715,2.166S48.428,147.943,48.428,146.653Zm2.777,0c0-.965-.414-1.577-1.062-1.577s-1.061.618-1.061,1.577.414,1.584,1.061,1.584S51.205,147.631,51.205,146.653Z"/>
    <path d="M52.472,146.653c0-1.277.7-2.158,1.715-2.158s1.715.881,1.715,2.158-.689,2.166-1.715,2.166S52.472,147.943,52.472,146.653Zm2.777,0c0-.965-.414-1.577-1.062-1.577s-1.061.618-1.061,1.577.413,1.584,1.061,1.584S55.249,147.631,55.249,146.653Z"/>
  </g>
  <g>
    <path d="M42.289,177.942h-.653v-3.514l-.744.324v-.582l.984-.426h.413Z"/>
    <path d="M43.9,177.354l-.587,1.584h-.5l.4-1.584Z"/>
    <path d="M44.384,175.837c0-1.277.7-2.159,1.716-2.159s1.714.882,1.714,2.159S47.125,178,46.1,178,44.384,177.127,44.384,175.837Zm2.777,0c0-.965-.414-1.577-1.061-1.577s-1.062.618-1.062,1.577.414,1.584,1.062,1.584S47.161,176.815,47.161,175.837Z"/>
    <path d="M48.428,175.837c0-1.277.7-2.159,1.715-2.159s1.715.882,1.715,2.159S51.169,178,50.143,178,48.428,177.127,48.428,175.837Zm2.777,0c0-.965-.414-1.577-1.062-1.577s-1.061.618-1.061,1.577.414,1.584,1.061,1.584S51.205,176.815,51.205,175.837Z"/>
    <path d="M52.472,175.837c0-1.277.7-2.159,1.715-2.159s1.715.882,1.715,2.159S55.213,178,54.187,178,52.472,177.127,52.472,175.837Zm2.777,0c0-.965-.414-1.577-1.062-1.577s-1.061.618-1.061,1.577.413,1.584,1.061,1.584S55.249,176.815,55.249,175.837Z"/>
  </g>
  <path d="M52.472,204.15c0-1.277.7-2.159,1.715-2.159s1.715.882,1.715,2.159-.689,2.165-1.715,2.165S52.472,205.44,52.472,204.15Zm2.777,0c0-.965-.414-1.577-1.062-1.577s-1.061.618-1.061,1.577.413,1.584,1.061,1.584S55.249,205.128,55.249,204.15Z"/>
  <line class="cls-1" x1="543.312" y1="180.454" x2="540.753" y2="180.454"/>
  <line class="cls-1" x1="543.312" y1="156.316" x2="540.753" y2="156.316"/>
  <line class="cls-1" x1="543.312" y1="132.283" x2="540.753" y2="132.283"/>
  <line class="cls-1" x1="543.312" y1="107.951" x2="540.753" y2="107.951"/>
  <line class="cls-1" x1="543.312" y1="83.901" x2="540.753" y2="83.901"/>
  <line class="cls-1" x1="543.312" y1="59.585" x2="540.753" y2="59.585"/>
  <g>
    <path d="M546,59.434a2.007,2.007,0,0,1,1.955-2.267,1.892,1.892,0,0,1,1.115.36l-.36.486a1.327,1.327,0,0,0-.81-.258c-.779,0-1.235.612-1.247,1.667a1.455,1.455,0,0,1,1.158-.612,1.3,1.3,0,0,1,1.4,1.29,1.385,1.385,0,0,1-1.475,1.379A1.819,1.819,0,0,1,546,59.434Zm.684.4c.1.653.5,1.079,1.031,1.079a.808.808,0,0,0,.857-.8.791.791,0,0,0-.863-.786A1.31,1.31,0,0,0,546.68,59.836Z"/>
    <path d="M549.806,59.32c0-1.277.695-2.159,1.714-2.159s1.715.882,1.715,2.159-.689,2.165-1.715,2.165S549.806,60.61,549.806,59.32Zm2.776,0c0-.965-.414-1.577-1.062-1.577s-1.061.618-1.061,1.577.414,1.583,1.061,1.583S552.582,60.3,552.582,59.32Z"/>
    <path d="M553.712,58.271c0-.648.365-1.08.9-1.08s.905.432.905,1.08-.365,1.085-.905,1.085S553.712,58.93,553.712,58.271Zm1.4,0c0-.438-.2-.708-.5-.708s-.492.27-.492.708.192.714.492.714S555.115,58.72,555.115,58.271Zm-.708,3.154,2.369-4.2h.5l-2.374,4.2ZM556.2,60.37c0-.648.366-1.08.9-1.08s.907.432.907,1.08-.367,1.085-.907,1.085S556.2,61.029,556.2,60.37Zm1.4,0c0-.438-.2-.708-.5-.708s-.491.27-.491.708.192.713.491.713S557.6,60.819,557.6,60.37Z"/>
  </g>
  <g>
    <path d="M548.845,108.1h.539v.563h-.539V109.7h-.655v-1.038h-2.255v-.533L548.1,105.5h.744Zm-.655,0v-1.895l-1.552,1.895Z"/>
    <path d="M549.907,107.6c0-1.278.7-2.159,1.716-2.159s1.715.881,1.715,2.159-.69,2.165-1.715,2.165S549.907,108.886,549.907,107.6Zm2.777,0c0-.966-.414-1.577-1.061-1.577s-1.062.617-1.062,1.577.414,1.583,1.062,1.583S552.684,108.574,552.684,107.6Z"/>
    <path d="M553.813,106.548c0-.648.367-1.08.906-1.08s.906.432.906,1.08-.366,1.085-.906,1.085S553.813,107.207,553.813,106.548Zm1.4,0c0-.438-.2-.708-.5-.708s-.492.27-.492.708.192.713.492.713S555.217,107,555.217,106.548Zm-.707,3.154,2.368-4.2h.5l-2.375,4.2Zm1.793-1.055c0-.648.365-1.08.9-1.08s.905.432.905,1.08-.366,1.085-.905,1.085S556.3,109.306,556.3,108.647Zm1.4,0c0-.438-.2-.708-.5-.708s-.492.27-.492.708.192.713.492.713S557.705,109.1,557.705,108.647Z"/>
  </g>
  <g>
    <path d="M547.315,182.116h-.654V178.6l-.743.324v-.582l.983-.425h.414Z"/>
    <path d="M548.054,180.011c0-1.277.7-2.158,1.714-2.158s1.715.881,1.715,2.158-.689,2.165-1.715,2.165S548.054,181.3,548.054,180.011Zm2.776,0c0-.965-.414-1.577-1.062-1.577s-1.061.618-1.061,1.577.414,1.584,1.061,1.584S550.83,180.989,550.83,180.011Z"/>
    <path d="M551.96,178.962c0-.647.365-1.08.9-1.08s.9.433.9,1.08-.365,1.086-.9,1.086S551.96,179.622,551.96,178.962Zm1.4,0c0-.437-.2-.707-.5-.707s-.492.27-.492.707.192.714.492.714S553.363,179.412,553.363,178.962Zm-.708,3.154,2.369-4.2h.5l-2.374,4.2Zm1.793-1.055c0-.648.366-1.079.9-1.079s.907.431.907,1.079-.367,1.085-.907,1.085S554.448,181.72,554.448,181.061Zm1.4,0c0-.438-.2-.708-.5-.708s-.491.27-.491.708.192.714.491.714S555.851,181.511,555.851,181.061Z"/>
  </g>
  <g>
    <path d="M546,157.505l1.721-1.8a1.127,1.127,0,0,0,.408-.791.685.685,0,0,0-.768-.618,1.515,1.515,0,0,0-1.086.516l-.371-.45a2.121,2.121,0,0,1,1.475-.635c.822,0,1.386.467,1.386,1.145a1.6,1.6,0,0,1-.6,1.169l-1.344,1.385,2.022-.011v.563H546Z"/>
    <path d="M549.422,155.873c0-1.277.695-2.158,1.715-2.158s1.714.881,1.714,2.158-.689,2.165-1.714,2.165S549.422,157.163,549.422,155.873Zm2.776,0c0-.965-.414-1.577-1.061-1.577s-1.062.618-1.062,1.577.414,1.584,1.062,1.584S552.2,156.851,552.2,155.873Z"/>
    <path d="M553.328,154.824c0-.648.365-1.08.9-1.08s.906.432.906,1.08-.366,1.085-.906,1.085S553.328,155.484,553.328,154.824Zm1.4,0c0-.438-.2-.708-.5-.708s-.492.27-.492.708.193.714.492.714S554.731,155.274,554.731,154.824Zm-.708,3.154,2.369-4.2h.5l-2.374,4.2Zm1.793-1.055c0-.648.367-1.08.906-1.08s.906.432.906,1.08-.366,1.085-.906,1.085S555.816,157.582,555.816,156.923Zm1.4,0c0-.438-.2-.708-.5-.708s-.492.27-.492.708.192.713.492.713S557.22,157.373,557.22,156.923Z"/>
  </g>
  <g>
    <path d="M547.447,133.9a2.11,2.11,0,0,1-1.554-.63l.445-.413a1.378,1.378,0,0,0,1.1.467c.539,0,.911-.281.911-.7a.662.662,0,0,0-.743-.63h-.522v-.546h.468a.608.608,0,0,0,.666-.629.725.725,0,0,0-.8-.666,1.3,1.3,0,0,0-1.043.5l-.445-.414a2.037,2.037,0,0,1,1.512-.666,1.28,1.28,0,0,1,1.433,1.176,1.007,1.007,0,0,1-.816.959,1.04,1.04,0,0,1,.949.96C549.013,133.384,548.358,133.9,547.447,133.9Z"/>
    <path d="M549.62,131.735c0-1.277.7-2.159,1.715-2.159s1.715.882,1.715,2.159-.69,2.165-1.715,2.165S549.62,133.025,549.62,131.735Zm2.776,0c0-.965-.414-1.577-1.061-1.577s-1.062.618-1.062,1.577.414,1.584,1.062,1.584S552.4,132.713,552.4,131.735Z"/>
    <path d="M553.526,130.686c0-.648.366-1.08.906-1.08s.9.432.9,1.08-.365,1.085-.9,1.085S553.526,131.345,553.526,130.686Zm1.4,0c0-.438-.2-.708-.5-.708s-.493.27-.493.708.193.714.493.714S554.93,131.135,554.93,130.686Zm-.708,3.154,2.369-4.2h.5l-2.374,4.2Zm1.793-1.055c0-.648.366-1.08.9-1.08s.906.432.906,1.08-.366,1.085-.906,1.085S556.015,133.444,556.015,132.785Zm1.4,0c0-.438-.2-.708-.5-.708s-.491.27-.491.708.191.713.491.713S557.418,133.235,557.418,132.785Z"/>
  </g>
  <g>
    <path d="M546.187,81.365h2.555v.564h-2l-.054,1.218a1.87,1.87,0,0,1,.876-.21,1.267,1.267,0,0,1,1.4,1.271,1.436,1.436,0,0,1-1.589,1.421,2.115,2.115,0,0,1-1.475-.57l.4-.449a1.56,1.56,0,0,0,1.1.449.809.809,0,1,0-.018-1.607,1.773,1.773,0,0,0-.833.222l-.456-.138Z"/>
    <path d="M549.548,83.458c0-1.277.7-2.159,1.715-2.159s1.714.882,1.714,2.159-.689,2.165-1.714,2.165S549.548,84.748,549.548,83.458Zm2.776,0c0-.965-.414-1.577-1.061-1.577s-1.062.618-1.062,1.577.414,1.584,1.062,1.584S552.324,84.436,552.324,83.458Z"/>
    <path d="M553.454,82.409c0-.648.365-1.08.905-1.08s.906.432.906,1.08-.366,1.085-.906,1.085S553.454,83.069,553.454,82.409Zm1.4,0c0-.438-.2-.708-.5-.708s-.492.27-.492.708.192.714.492.714S554.857,82.859,554.857,82.409Zm-.708,3.154,2.369-4.2h.5l-2.374,4.2Zm1.793-1.055c0-.648.367-1.08.906-1.08s.906.432.906,1.08-.366,1.085-.906,1.085S555.942,85.167,555.942,84.508Zm1.4,0c0-.438-.2-.708-.5-.708s-.492.27-.492.708.192.713.492.713S557.346,84.958,557.346,84.508Z"/>
  </g>
  <path d="M546,204.15c0-1.277.7-2.159,1.716-2.159s1.715.882,1.715,2.159-.69,2.165-1.715,2.165S546,205.44,546,204.15Zm2.777,0c0-.965-.414-1.577-1.061-1.577s-1.062.618-1.062,1.577.413,1.584,1.062,1.584S548.779,205.128,548.779,204.15Z"/>
  <rect class="cls-2" x="83.478" y="173.005" width="20.912" height="31.976"/>
  <rect class="cls-3" x="104.39" y="158.222" width="20.912" height="46.759"/>
  <rect class="cls-2" x="148.958" y="141.639" width="20.912" height="63.342"/>
  <rect class="cls-3" x="169.87" y="107.463" width="20.912" height="97.517"/>
  <rect class="cls-2" x="214.437" y="114.54" width="20.912" height="90.441"/>
  <rect class="cls-3" x="235.35" y="91.221" width="20.912" height="113.76"/>
  <rect class="cls-2" x="279.758" y="96.127" width="20.912" height="108.853"/>
  <rect class="cls-3" x="300.671" y="86.835" width="20.912" height="118.145"/>
  <rect class="cls-2" x="344.855" y="92.019" width="20.912" height="112.962"/>
  <rect class="cls-3" x="365.768" y="88.791" width="20.912" height="116.19"/>
  <rect class="cls-2" x="410.256" y="88.791" width="20.912" height="116.19"/>
  <rect class="cls-3" x="431.168" y="86.835" width="20.912" height="118.145"/>
  <rect class="cls-2" x="475.504" y="82.62" width="20.912" height="122.36"/>
  <rect class="cls-3" x="496.417" y="81.29" width="20.912" height="123.69"/>
  <circle class="cls-4" cx="104.718" cy="95.055" r="3.036"/>
  <circle class="cls-4" cx="169.87" cy="75.235" r="3.036"/>
  <circle class="cls-4" cx="235.35" cy="141.639" r="3.036"/>
  <path class="cls-4" d="M303.707,184.637a3.037,3.037,0,1,1-3.036-3.036A3.008,3.008,0,0,1,303.707,184.637Z"/>
  <circle class="cls-4" cx="365.919" cy="198.091" r="3.036"/>
  <circle class="cls-4" cx="431.168" cy="199.663" r="3.036"/>
  <circle class="cls-4" cx="496.417" cy="201.7" r="3.036"/>
  <g>
    <line class="cls-5" x1="107.754" y1="93.923" x2="166.834" y2="75.235"/>
    <line class="cls-5" x1="172.906" y1="78.271" x2="233.188" y2="139.507"/>
    <line class="cls-5" x1="237.825" y1="143.393" x2="297.638" y2="182.795"/>
    <line class="cls-5" x1="362.883" y1="198.091" x2="303.707" y2="184.637"/>
    <line class="cls-5" x1="368.955" y1="198.091" x2="428.132" y2="199.663"/>
    <line class="cls-5" x1="434.204" y1="199.663" x2="493.381" y2="202.7"/>
  </g>
  <g>
    <path d="M239.5,138.129l1.721-1.8a1.125,1.125,0,0,0,.408-.792.685.685,0,0,0-.768-.617,1.514,1.514,0,0,0-1.085.515l-.372-.45a2.127,2.127,0,0,1,1.475-.635c.822,0,1.386.468,1.386,1.145a1.6,1.6,0,0,1-.6,1.17l-1.343,1.385,2.021-.012v.564H239.5Z"/>
    <path d="M242.914,136.612a2.008,2.008,0,0,1,1.955-2.267,1.887,1.887,0,0,1,1.115.36l-.36.486a1.326,1.326,0,0,0-.809-.258c-.779,0-1.235.612-1.247,1.667a1.453,1.453,0,0,1,1.157-.612,1.3,1.3,0,0,1,1.4,1.289,1.385,1.385,0,0,1-1.475,1.38A1.819,1.819,0,0,1,242.914,136.612Zm.684.4c.1.654.5,1.08,1.031,1.08a.809.809,0,0,0,.858-.8.792.792,0,0,0-.864-.786A1.312,1.312,0,0,0,243.6,137.013Z"/>
  </g>
  <path d="M304.129,178.781a1.1,1.1,0,0,1,.9-1.025,1.024,1.024,0,0,1-.767-.936,1.45,1.45,0,0,1,2.836,0,1.024,1.024,0,0,1-.761.936,1.1,1.1,0,0,1,.905,1.025c0,.713-.647,1.223-1.559,1.223S304.129,179.494,304.129,178.781Zm2.459-.048c0-.408-.384-.714-.9-.714s-.9.306-.9.714a.924.924,0,0,0,1.805,0Zm-.126-1.871a.79.79,0,1,0-.774.647A.708.708,0,0,0,306.462,176.862Z"/>
  <path d="M371.349,194.115a2.109,2.109,0,0,1-1.554-.63l.444-.414a1.377,1.377,0,0,0,1.1.468c.539,0,.911-.282.911-.7a.663.663,0,0,0-.743-.629h-.523v-.546h.468a.608.608,0,0,0,.666-.629.725.725,0,0,0-.8-.666,1.3,1.3,0,0,0-1.043.5l-.444-.414a2.035,2.035,0,0,1,1.512-.666,1.279,1.279,0,0,1,1.432,1.175,1.008,1.008,0,0,1-.815.96,1.04,1.04,0,0,1,.948.959C372.914,193.6,372.26,194.115,371.349,194.115Z"/>
  <path d="M435.335,193.581l1.722-1.8a1.125,1.125,0,0,0,.407-.792.684.684,0,0,0-.768-.617,1.515,1.515,0,0,0-1.085.515l-.372-.449a2.124,2.124,0,0,1,1.476-.636c.821,0,1.386.468,1.386,1.145a1.607,1.607,0,0,1-.6,1.17l-1.344,1.385,2.022-.012v.564h-2.844Z"/>
  <path d="M502.654,198.09H502v-3.514l-.743.324v-.581l.983-.426h.414Z"/>
  <g>
    <path d="M567.33,143.577c-.863,0-1.439-.488-1.439-1.208s.576-1.207,1.439-1.207c.88,0,1.447.489,1.447,1.207S568.21,143.577,567.33,143.577Zm4.206-.927-5.6-3.159v-.672l5.6,3.167Zm-4.206-.944c-.584,0-.943.264-.943.663s.359.657.943.657c.6,0,.951-.256.951-.657S567.93,141.706,567.33,141.706Zm2.8-1.447c-.863,0-1.44-.488-1.44-1.207s.577-1.208,1.44-1.208c.879,0,1.447.488,1.447,1.208S571.008,140.259,570.129,140.259Zm0-1.871c-.584,0-.944.264-.944.664s.36.655.944.655.951-.256.951-.655S570.728,138.388,570.129,138.388Z"/>
    <path d="M565.939,135.194v-.959h5.6v.959Z"/>
    <path d="M567.53,133.041v-.9h.655a1.456,1.456,0,0,1-.719-1.272,1.348,1.348,0,0,1,1.431-1.383h2.639v.9h-2.383a.863.863,0,0,0-.96.879,1.026,1.026,0,0,0,.481.872h2.862v.9Z"/>
    <path d="M570.377,125.524l.543-.544a2.086,2.086,0,0,1,.7,1.567,2.071,2.071,0,0,1-4.141,0,2.164,2.164,0,0,1,.67-1.6l.584.56a1.327,1.327,0,0,0-.471,1.008,1.285,1.285,0,0,0,2.558-.025A1.23,1.23,0,0,0,570.377,125.524Z"/>
    <path d="M567.53,124.2v-.9h.871a1.189,1.189,0,0,1-.943-1.1,1.066,1.066,0,0,1,.08-.391h.792a1.267,1.267,0,0,0-.1.5,1.1,1.1,0,0,0,.664,1h2.639v.9Z"/>
    <path d="M571.616,119.4a2.037,2.037,0,0,1-2.079,2.039,1.972,1.972,0,0,1-2.071-1.951,1.923,1.923,0,0,1,2.063-1.9h.224v2.958a1.223,1.223,0,0,0,1.1-1.2,1.3,1.3,0,0,0-.376-.951l.551-.592A2.317,2.317,0,0,1,571.616,119.4ZM569.2,120.53v-2.086a1.1,1.1,0,0,0-1,1.047A1.075,1.075,0,0,0,569.2,120.53Z"/>
    <path d="M570.385,116.9c-.72,0-1.176-.584-1.176-1.528a2.48,2.48,0,0,1,.248-1.08h-.44c-.528,0-.8.3-.8.92a2.766,2.766,0,0,0,.311,1.167l-.655.32a3.844,3.844,0,0,1-.408-1.663c0-1.039.528-1.639,1.455-1.639h2.615v.9h-.408a1.677,1.677,0,0,1,.472,1.192A1.264,1.264,0,0,1,570.385,116.9Zm.583-1.663a1.436,1.436,0,0,0-.327-.945h-.657a2.087,2.087,0,0,0-.191.928c0,.512.224.832.575.832C570.736,116.05,570.968,115.73,570.968,115.235Z"/>
    <path d="M570.465,112.234a2.313,2.313,0,0,0,.455-1.288c0-.479-.216-.807-.535-.807-.248,0-.384.168-.456.552l-.12.711c-.144.776-.5,1.16-1.1,1.16-.751,0-1.239-.616-1.239-1.551a2.815,2.815,0,0,1,.48-1.575l.591.424a2.183,2.183,0,0,0-.384,1.207c0,.416.177.687.473.687.256,0,.367-.143.439-.567l.128-.7c.152-.8.52-1.183,1.119-1.183a1.468,1.468,0,0,1,1.3,1.631,2.683,2.683,0,0,1-.544,1.726Z"/>
    <path d="M571.616,106.57a2.037,2.037,0,0,1-2.079,2.04,1.973,1.973,0,0,1-2.071-1.952,1.923,1.923,0,0,1,2.063-1.894h.224v2.958a1.223,1.223,0,0,0,1.1-1.2,1.306,1.306,0,0,0-.376-.952l.551-.591A2.315,2.315,0,0,1,571.616,106.57Zm-2.415,1.136v-2.087a1.1,1.1,0,0,0-1,1.048A1.076,1.076,0,0,0,569.2,107.706Z"/>
  </g>
  <g>
    <path d="M25.6,186.207V185.1l5.6-2.167v1.032l-1.568.567v2.3l1.568.575v1Zm3.278-1.4-2.383.863,2.383.879Z"/>
    <path d="M29.192,182.687a1.933,1.933,0,0,1-2.031-1.871,1.506,1.506,0,0,1,.544-1.175h-.512v-.9h4.141c1.032,0,1.6.671,1.6,1.887a3.477,3.477,0,0,1-.384,1.607l-.672-.32a2.728,2.728,0,0,0,.344-1.247c0-.672-.3-1.023-.888-1.023h-.679a1.552,1.552,0,0,1,.568,1.223A1.921,1.921,0,0,1,29.192,182.687Zm1.279-2.087a1.2,1.2,0,0,0-.44-.951H28.352a1.24,1.24,0,0,0-.432.951,1.2,1.2,0,0,0,1.272,1.191A1.211,1.211,0,0,0,30.471,180.6Z"/>
    <path d="M29.192,177.815a1.933,1.933,0,0,1-2.031-1.871,1.506,1.506,0,0,1,.544-1.175h-.512v-.9h4.141c1.032,0,1.6.672,1.6,1.887a3.474,3.474,0,0,1-.384,1.607l-.672-.32a2.728,2.728,0,0,0,.344-1.247c0-.672-.3-1.023-.888-1.023h-.679A1.553,1.553,0,0,1,31.223,176,1.921,1.921,0,0,1,29.192,177.815Zm1.279-2.087a1.2,1.2,0,0,0-.44-.951H28.352a1.24,1.24,0,0,0-.432.951,1.2,1.2,0,0,0,1.272,1.191A1.211,1.211,0,0,0,30.471,175.728Z"/>
    <path d="M27.193,172.759v-.9h.871a1.189,1.189,0,0,1-.943-1.1,1.062,1.062,0,0,1,.08-.391h.792a1.267,1.267,0,0,0-.1.5,1.1,1.1,0,0,0,.664,1H31.2v.9Z"/>
    <path d="M31.279,167.951A2.036,2.036,0,0,1,29.2,169.99a1.972,1.972,0,0,1-2.071-1.951,1.922,1.922,0,0,1,2.063-1.894h.223V169.1a1.223,1.223,0,0,0,1.1-1.2,1.3,1.3,0,0,0-.376-.951l.552-.591A2.313,2.313,0,0,1,31.279,167.951Zm-2.415,1.136V167a1.1,1.1,0,0,0-1,1.048A1.075,1.075,0,0,0,28.864,169.087Z"/>
    <path d="M29.192,165.382a1.933,1.933,0,0,1-2.031-1.871,1.506,1.506,0,0,1,.544-1.175h-.512v-.9h4.141c1.032,0,1.6.67,1.6,1.886a3.485,3.485,0,0,1-.384,1.608l-.672-.321a2.722,2.722,0,0,0,.344-1.247c0-.672-.3-1.023-.888-1.023h-.679a1.553,1.553,0,0,1,.568,1.224A1.92,1.92,0,0,1,29.192,165.382Zm1.279-2.087a1.2,1.2,0,0,0-.44-.951H28.352a1.24,1.24,0,0,0-.432.951,1.2,1.2,0,0,0,1.272,1.191A1.211,1.211,0,0,0,30.471,163.295Z"/>
    <path d="M30.047,160.527c-.719,0-1.175-.583-1.175-1.527a2.477,2.477,0,0,1,.248-1.08h-.44c-.528,0-.8.305-.8.92a2.769,2.769,0,0,0,.312,1.167l-.655.32a3.844,3.844,0,0,1-.408-1.663c0-1.039.528-1.639,1.455-1.639H31.2v.895h-.408a1.673,1.673,0,0,1,.472,1.191A1.264,1.264,0,0,1,30.047,160.527Zm.584-1.663a1.431,1.431,0,0,0-.328-.944h-.656a2.088,2.088,0,0,0-.192.928c0,.512.225.832.576.832C30.4,159.68,30.631,159.36,30.631,158.864Z"/>
    <path d="M27.913,155.551v.808h-.72v-.808h-1.1l-.192-.9h1.3v-1.12h.72v1.12h2.03c.392,0,.544-.152.544-.56a1.66,1.66,0,0,0-.1-.544h.76a2.848,2.848,0,0,1,.112.775c0,.808-.384,1.232-1.12,1.232Z"/>
    <path d="M31.279,150.936a2.037,2.037,0,0,1-2.079,2.039,1.973,1.973,0,0,1-2.071-1.951,1.923,1.923,0,0,1,2.063-1.9h.223v2.958a1.223,1.223,0,0,0,1.1-1.2,1.3,1.3,0,0,0-.376-.951l.552-.592A2.315,2.315,0,0,1,31.279,150.936Zm-2.415,1.135v-2.086a1.1,1.1,0,0,0-1,1.047A1.074,1.074,0,0,0,28.864,152.071Z"/>
    <path d="M30.663,145.32a1.542,1.542,0,0,1,.576,1.232,2.05,2.05,0,0,1-4.078-.057,1.53,1.53,0,0,1,.527-1.167H25.482l-.152-.9H31.2v.895Zm-.184.959a1.2,1.2,0,0,0-.44-.951H28.352a1.241,1.241,0,0,0-.432.951,1.283,1.283,0,0,0,2.559,0Z"/>
    <path d="M27.913,141.007v.808h-.72v-.808h-1.1l-.192-.9h1.3v-1.119h.72V140.1h2.03c.392,0,.544-.153.544-.56a1.665,1.665,0,0,0-.1-.544h.76a2.849,2.849,0,0,1,.112.776c0,.807-.384,1.231-1.12,1.231Z"/>
    <path d="M25.482,138.192l-.152-.9h2.519a1.453,1.453,0,0,1-.72-1.271,1.348,1.348,0,0,1,1.431-1.384H31.2v.9H28.816a.863.863,0,0,0-.96.879,1.026,1.026,0,0,0,.48.872H31.2v.9Z"/>
    <path d="M27.193,133.535v-.9h.871a1.189,1.189,0,0,1-.943-1.1,1.066,1.066,0,0,1,.08-.391h.792a1.267,1.267,0,0,0-.1.5,1.1,1.1,0,0,0,.664,1H31.2v.9Z"/>
    <path d="M27.129,128.752a2.076,2.076,0,1,1,2.071,2.015A2,2,0,0,1,27.129,128.752Zm2.079-1.119a1.132,1.132,0,1,0,0,2.238,1.13,1.13,0,1,0,0-2.238Z"/>
    <path d="M29.576,124.92a.863.863,0,0,0,.959-.879,1.011,1.011,0,0,0-.5-.88H27.193v-.9H31.2v.9h-.664a1.465,1.465,0,0,1,.728,1.28,1.343,1.343,0,0,1-1.432,1.382H27.193v-.9Z"/>
    <path d="M29.192,121.327a1.933,1.933,0,0,1-2.031-1.871,1.506,1.506,0,0,1,.544-1.175h-.512v-.9h4.141c1.032,0,1.6.671,1.6,1.887a3.48,3.48,0,0,1-.384,1.607l-.672-.32a2.728,2.728,0,0,0,.344-1.247c0-.672-.3-1.024-.888-1.024h-.679a1.556,1.556,0,0,1,.568,1.224A1.92,1.92,0,0,1,29.192,121.327Zm1.279-2.087a1.2,1.2,0,0,0-.44-.951H28.352a1.241,1.241,0,0,0-.432.951,1.2,1.2,0,0,0,1.272,1.192A1.212,1.212,0,0,0,30.471,119.24Z"/>
    <path d="M25.482,116.272l-.152-.9h2.519a1.453,1.453,0,0,1-.72-1.271,1.348,1.348,0,0,1,1.431-1.384H31.2v.9H28.816a.863.863,0,0,0-.96.879,1.026,1.026,0,0,0,.48.872H31.2v.9Z"/>
    <path d="M27.193,111.616v-.887h.575a1.511,1.511,0,0,1-.607-1.247,1.922,1.922,0,0,1,2.039-1.816,1.942,1.942,0,0,1,2.039,1.879,1.5,1.5,0,0,1-.52,1.168h2.175v.9Zm1.175-.9h1.671a1.229,1.229,0,0,0,.44-.96,1.283,1.283,0,0,0-2.559,0A1.177,1.177,0,0,0,28.368,110.713Z"/>
    <path d="M29.576,105.848a.863.863,0,0,0,.959-.879,1.011,1.011,0,0,0-.5-.88H27.193v-.9H31.2v.9h-.664a1.464,1.464,0,0,1,.728,1.279,1.344,1.344,0,0,1-1.432,1.383H27.193v-.9Z"/>
    <path d="M27.913,101.576v.808h-.72v-.808h-1.1l-.192-.9h1.3V99.554h.72v1.119h2.03c.392,0,.544-.151.544-.56a1.669,1.669,0,0,0-.1-.544h.76a2.855,2.855,0,0,1,.112.776c0,.807-.384,1.231-1.12,1.231Z"/>
    <path d="M26.809,95.96H31.2v.888H25.6V95.6l3.39-1.639L25.6,92.33V91.083h5.6v.9H26.833L30.8,93.97Z"/>
    <path d="M25.6,87.241c0-1.055.591-1.766,1.471-1.766a1.341,1.341,0,0,1,1.239.894,1.4,1.4,0,0,1,1.328-1.087A1.632,1.632,0,0,1,31.2,87.129v2.6H25.6Zm.783,1.528h1.568V87.337c0-.552-.3-.9-.784-.9s-.784.351-.784.9Zm3.167-2.519a.873.873,0,0,0-.856.991v1.528h1.719V87.241A.879.879,0,0,0,29.552,86.25Z"/>
    <path d="M27.193,84.273v-.888h.575a1.51,1.51,0,0,1-.607-1.247A1.922,1.922,0,0,1,29.2,80.322,1.943,1.943,0,0,1,31.239,82.2a1.5,1.5,0,0,1-.52,1.168h2.175v.9Zm1.175-.9h1.671a1.229,1.229,0,0,0,.44-.96,1.283,1.283,0,0,0-2.559,0A1.175,1.175,0,0,0,28.368,83.369Z"/>
    <path d="M30.127,79.319a2.3,2.3,0,0,0,.456-1.287c0-.479-.216-.807-.536-.807-.248,0-.384.168-.455.552l-.12.711c-.144.776-.5,1.16-1.1,1.16-.751,0-1.239-.616-1.239-1.551a2.815,2.815,0,0,1,.48-1.575l.591.423a2.188,2.188,0,0,0-.384,1.207c0,.417.177.688.472.688.256,0,.368-.144.44-.567l.128-.7c.152-.8.519-1.183,1.12-1.183a1.468,1.468,0,0,1,1.3,1.631,2.685,2.685,0,0,1-.544,1.726Z"/>
  </g>
  <g>
    <path d="M265.071,223.1h2.487a1.706,1.706,0,0,1,1.871,1.695,1.591,1.591,0,0,1-1.1,1.535L269.5,228.7h-1.063l-1.079-2.239h-1.327V228.7h-.96Zm.96.807v1.783h1.446a.9.9,0,1,0,0-1.783Z"/>
    <path d="M270.055,227.549c0-.719.584-1.175,1.527-1.175a2.477,2.477,0,0,1,1.08.248v-.44c0-.528-.3-.8-.92-.8a2.781,2.781,0,0,0-1.167.312l-.32-.655a3.841,3.841,0,0,1,1.663-.408c1.039,0,1.639.528,1.639,1.455V228.7h-.9v-.408a1.673,1.673,0,0,1-1.192.472A1.263,1.263,0,0,1,270.055,227.549Zm1.663.584a1.429,1.429,0,0,0,.944-.328v-.655a2.074,2.074,0,0,0-.928-.192c-.511,0-.831.224-.831.575C270.9,227.9,271.223,228.133,271.718,228.133Z"/>
    <path d="M277.517,228.165a1.542,1.542,0,0,1-1.231.576,2.05,2.05,0,0,1,.056-4.078,1.527,1.527,0,0,1,1.167.528v-2.207l.9-.152V228.7h-.9Zm-.959-.184a1.2,1.2,0,0,0,.951-.439v-1.688a1.244,1.244,0,0,0-.951-.431,1.282,1.282,0,0,0,0,2.558Z"/>
    <path d="M281.366,224.631a2.076,2.076,0,1,1-2.015,2.071A2,2,0,0,1,281.366,224.631Zm1.119,2.079a1.132,1.132,0,1,0-2.239,0,1.13,1.13,0,1,0,2.239,0Z"/>
    <path d="M284.383,227.63a2.313,2.313,0,0,0,1.287.455c.48,0,.808-.216.808-.536,0-.248-.168-.383-.552-.455l-.712-.12c-.775-.144-1.159-.5-1.159-1.1,0-.751.616-1.239,1.551-1.239a2.817,2.817,0,0,1,1.575.48l-.423.591a2.2,2.2,0,0,0-1.208-.383c-.416,0-.687.176-.687.472,0,.256.143.367.567.439l.7.128c.8.152,1.183.52,1.183,1.12a1.468,1.468,0,0,1-1.631,1.3,2.688,2.688,0,0,1-1.727-.544Z"/>
    <path d="M290.222,228.741a1.491,1.491,0,0,1-1.184-.56v.52h-.887v-5.717l.9-.152v2.4a1.557,1.557,0,0,1,1.231-.568A1.923,1.923,0,0,1,292.1,226.7,1.942,1.942,0,0,1,290.222,228.741Zm-1.167-2.871v1.672a1.229,1.229,0,0,0,.959.439,1.282,1.282,0,0,0,0-2.558A1.172,1.172,0,0,0,289.055,225.87Z"/>
    <path d="M294.917,228.781a2.036,2.036,0,0,1-2.038-2.079,1.973,1.973,0,0,1,1.951-2.071,1.923,1.923,0,0,1,1.9,2.063v.224h-2.959a1.224,1.224,0,0,0,1.2,1.095,1.3,1.3,0,0,0,.952-.376l.592.552A2.318,2.318,0,0,1,294.917,228.781Zm-1.135-2.415h2.087a1.1,1.1,0,0,0-1.047-1A1.076,1.076,0,0,0,293.782,226.366Z"/>
    <path d="M297.646,224.7h.9v.656a1.452,1.452,0,0,1,1.271-.72,1.348,1.348,0,0,1,1.383,1.431V228.7h-.9v-2.383a.863.863,0,0,0-.88-.959,1.026,1.026,0,0,0-.871.48V228.7h-.9Z"/>
    <path d="M305.164,227.542l.544.543a2.082,2.082,0,0,1-1.567.7,2.072,2.072,0,0,1,0-4.142,2.156,2.156,0,0,1,1.6.672l-.559.583a1.328,1.328,0,0,0-1.008-.471,1.285,1.285,0,0,0,.024,2.558A1.23,1.23,0,0,0,305.164,227.542Z"/>
    <path d="M306.486,222.984l.9-.152v2.519a1.452,1.452,0,0,1,1.271-.72,1.348,1.348,0,0,1,1.383,1.431V228.7h-.9v-2.383a.863.863,0,0,0-.88-.959,1.025,1.025,0,0,0-.871.48V228.7h-.9Z"/>
    <path d="M315.8,227.542l.544.543a2.085,2.085,0,0,1-1.568.7,2.072,2.072,0,0,1,0-4.142,2.16,2.16,0,0,1,1.6.672l-.56.583a1.327,1.327,0,0,0-1.008-.471,1.285,1.285,0,0,0,.025,2.558A1.232,1.232,0,0,0,315.8,227.542Z"/>
    <path d="M318.029,228.7h-.9v-5.717l.9-.152Z"/>
    <path d="M319.03,223.328a.564.564,0,0,1,1.127,0,.564.564,0,0,1-1.127,0Zm1.016,5.373h-.9V224.7h.9Z"/>
    <path d="M323.013,228.781a2.036,2.036,0,0,1-2.038-2.079,1.972,1.972,0,0,1,1.95-2.071,1.923,1.923,0,0,1,1.895,2.063v.224h-2.959a1.224,1.224,0,0,0,1.2,1.095,1.3,1.3,0,0,0,.953-.376l.591.552A2.315,2.315,0,0,1,323.013,228.781Zm-1.135-2.415h2.087a1.1,1.1,0,0,0-1.048-1A1.075,1.075,0,0,0,321.878,226.366Z"/>
    <path d="M325.742,224.7h.9v.656a1.454,1.454,0,0,1,1.272-.72,1.348,1.348,0,0,1,1.383,1.431V228.7h-.9v-2.383a.862.862,0,0,0-.879-.959,1.028,1.028,0,0,0-.872.48V228.7h-.9Z"/>
    <path d="M330.773,225.415h-.807v-.72h.807v-1.1l.9-.191V224.7H332.8v.72h-1.119v2.03c0,.393.152.544.559.544a1.656,1.656,0,0,0,.544-.1v.76a2.836,2.836,0,0,1-.775.112c-.808,0-1.232-.384-1.232-1.12Z"/>
    <path d="M333.733,227.63a2.318,2.318,0,0,0,1.288.455c.48,0,.807-.216.807-.536,0-.248-.167-.383-.551-.455l-.712-.12c-.775-.144-1.159-.5-1.159-1.1,0-.751.615-1.239,1.551-1.239a2.817,2.817,0,0,1,1.575.48l-.424.591a2.194,2.194,0,0,0-1.207-.383c-.416,0-.687.176-.687.472,0,.256.143.367.567.439l.7.128c.8.152,1.184.52,1.184,1.12a1.468,1.468,0,0,1-1.631,1.3,2.691,2.691,0,0,1-1.728-.544Z"/>
  </g>
  <g>
    <path d="M77.49,247.965h4.022v.815H78.45v1.6h2.11v.8H78.45v2.383h-.96Z"/>
    <path d="M82.218,248.188a.564.564,0,0,1,1.127,0,.564.564,0,0,1-1.127,0Zm1.015,5.373h-.9v-4.006h.9Z"/>
    <path d="M85.249,253.561h-.9v-5.717l.9-.151Z"/>
    <path d="M88.217,253.641a2.036,2.036,0,0,1-2.039-2.079,1.973,1.973,0,0,1,1.951-2.071,1.923,1.923,0,0,1,1.895,2.063v.224H87.065a1.224,1.224,0,0,0,1.2,1.1,1.3,1.3,0,0,0,.951-.376l.592.551A2.317,2.317,0,0,1,88.217,253.641Zm-1.136-2.415h2.087a1.1,1.1,0,0,0-1.047-1A1.076,1.076,0,0,0,87.081,251.226Z"/>
    <path d="M91.05,252.49a2.3,2.3,0,0,0,1.287.455c.48,0,.808-.215.808-.535,0-.248-.168-.384-.552-.456l-.712-.12c-.775-.144-1.159-.5-1.159-1.1,0-.752.616-1.24,1.551-1.24a2.817,2.817,0,0,1,1.575.48l-.423.592a2.191,2.191,0,0,0-1.208-.384c-.416,0-.687.176-.687.472,0,.256.143.368.567.439l.7.128c.8.152,1.183.52,1.183,1.12a1.468,1.468,0,0,1-1.631,1.3,2.688,2.688,0,0,1-1.727-.544Z"/>
    <path d="M95.234,250.275h-.808v-.72h.808v-1.1l.9-.192v1.3h1.119v.72H96.137v2.031c0,.392.152.544.56.544a1.665,1.665,0,0,0,.544-.1v.759a2.844,2.844,0,0,1-.776.112c-.808,0-1.231-.384-1.231-1.119Z"/>
    <path d="M99.825,249.491a2.076,2.076,0,1,1-2.015,2.071A2,2,0,0,1,99.825,249.491Zm1.119,2.079a1.132,1.132,0,1,0-2.239,0,1.131,1.131,0,1,0,2.239,0Z"/>
    <path d="M102.778,249.555h.9v.872a1.186,1.186,0,0,1,1.1-.943,1.055,1.055,0,0,1,.392.079v.792a1.275,1.275,0,0,0-.5-.1,1.1,1.1,0,0,0-1,.664v2.638h-.9Z"/>
    <path d="M107.584,253.641a2.035,2.035,0,0,1-2.038-2.079,1.973,1.973,0,0,1,1.95-2.071,1.923,1.923,0,0,1,1.9,2.063v.224h-2.959a1.224,1.224,0,0,0,1.2,1.1,1.306,1.306,0,0,0,.952-.376l.592.551A2.318,2.318,0,0,1,107.584,253.641Zm-1.135-2.415h2.087a1.1,1.1,0,0,0-1.047-1A1.076,1.076,0,0,0,106.449,251.226Z"/>
  </g>
  <polyline class="cls-1" points="540.753 59.585 540.753 204.981 60.588 204.981 60.588 59.585"/>
  <rect class="cls-2" x="60.588" y="247.093" width="8.503" height="8.503"/>
  <g>
    <path d="M144.691,247.965c1.055,0,1.767.591,1.767,1.47a1.342,1.342,0,0,1-.9,1.24A1.4,1.4,0,0,1,146.65,252a1.632,1.632,0,0,1-1.847,1.559h-2.6v-5.6Zm-1.527.783v1.567H144.6c.551,0,.9-.3.9-.784s-.352-.783-.9-.783Zm2.519,3.166a.873.873,0,0,0-.992-.855h-1.527v1.718h1.527A.879.879,0,0,0,145.683,251.914Z"/>
    <path d="M148.564,253.561h-.9v-5.717l.9-.151Z"/>
    <path d="M150.556,251.938a.863.863,0,0,0,.879.96,1.011,1.011,0,0,0,.88-.5v-2.847h.9v4.006h-.9V252.9a1.466,1.466,0,0,1-1.279.727,1.344,1.344,0,0,1-1.384-1.431v-2.639h.9Z"/>
    <path d="M156.187,253.641a2.036,2.036,0,0,1-2.039-2.079,1.974,1.974,0,0,1,1.951-2.071,1.923,1.923,0,0,1,1.9,2.063v.224h-2.958a1.223,1.223,0,0,0,1.2,1.1,1.3,1.3,0,0,0,.951-.376l.592.551A2.317,2.317,0,0,1,156.187,253.641Zm-1.135-2.415h2.087a1.1,1.1,0,0,0-1.048-1A1.076,1.076,0,0,0,155.052,251.226Z"/>
    <path d="M159.02,252.49a2.305,2.305,0,0,0,1.288.455c.479,0,.807-.215.807-.535,0-.248-.168-.384-.552-.456l-.712-.12c-.775-.144-1.159-.5-1.159-1.1,0-.752.616-1.24,1.552-1.24a2.814,2.814,0,0,1,1.574.48l-.423.592a2.191,2.191,0,0,0-1.208-.384c-.416,0-.687.176-.687.472,0,.256.143.368.567.439l.7.128c.8.152,1.184.52,1.184,1.12a1.469,1.469,0,0,1-1.632,1.3,2.688,2.688,0,0,1-1.727-.544Z"/>
    <path d="M163.2,250.275H162.4v-.72h.808v-1.1l.9-.192v1.3h1.119v.72h-1.119v2.031c0,.392.152.544.56.544a1.66,1.66,0,0,0,.544-.1v.759a2.844,2.844,0,0,1-.776.112c-.808,0-1.231-.384-1.231-1.119Z"/>
    <path d="M167.8,249.491a2.076,2.076,0,1,1-2.015,2.071A2,2,0,0,1,167.8,249.491Zm1.119,2.079a1.132,1.132,0,1,0-2.238,0,1.13,1.13,0,1,0,2.238,0Z"/>
    <path d="M170.748,249.555h.9v.872a1.187,1.187,0,0,1,1.1-.943,1.051,1.051,0,0,1,.392.079v.792a1.275,1.275,0,0,0-.5-.1,1.1,1.1,0,0,0-1,.664v2.638h-.9Z"/>
    <path d="M175.555,253.641a2.035,2.035,0,0,1-2.038-2.079,1.973,1.973,0,0,1,1.95-2.071,1.923,1.923,0,0,1,1.895,2.063v.224H174.4a1.224,1.224,0,0,0,1.2,1.1,1.306,1.306,0,0,0,.952-.376l.591.551A2.314,2.314,0,0,1,175.555,253.641Zm-1.135-2.415h2.087a1.1,1.1,0,0,0-1.048-1A1.076,1.076,0,0,0,174.42,251.226Z"/>
  </g>
  <rect class="cls-3" x="125.303" y="247.093" width="8.503" height="8.503"/>
  <g>
    <path d="M210.171,247.965c1.055,0,1.767.591,1.767,1.47a1.342,1.342,0,0,1-.9,1.24A1.4,1.4,0,0,1,212.13,252a1.632,1.632,0,0,1-1.847,1.559h-2.6v-5.6Zm-1.527.783v1.567h1.431c.551,0,.9-.3.9-.784s-.352-.783-.9-.783Zm2.519,3.166a.873.873,0,0,0-.992-.855h-1.527v1.718h1.527A.879.879,0,0,0,211.163,251.914Z"/>
    <path d="M214.044,253.561h-.9v-5.717l.9-.151Z"/>
    <path d="M216.036,251.938a.863.863,0,0,0,.879.96,1.011,1.011,0,0,0,.88-.5v-2.847h.9v4.006h-.9V252.9a1.466,1.466,0,0,1-1.279.727,1.344,1.344,0,0,1-1.384-1.431v-2.639h.9Z"/>
    <path d="M221.667,253.641a2.036,2.036,0,0,1-2.039-2.079,1.974,1.974,0,0,1,1.951-2.071,1.923,1.923,0,0,1,1.895,2.063v.224h-2.958a1.223,1.223,0,0,0,1.2,1.1,1.3,1.3,0,0,0,.951-.376l.592.551A2.317,2.317,0,0,1,221.667,253.641Zm-1.135-2.415h2.087a1.1,1.1,0,0,0-1.048-1A1.076,1.076,0,0,0,220.532,251.226Z"/>
    <path d="M224.5,252.49a2.305,2.305,0,0,0,1.288.455c.479,0,.807-.215.807-.535,0-.248-.168-.384-.552-.456l-.712-.12c-.775-.144-1.159-.5-1.159-1.1,0-.752.616-1.24,1.552-1.24a2.814,2.814,0,0,1,1.574.48l-.423.592a2.191,2.191,0,0,0-1.208-.384c-.416,0-.687.176-.687.472,0,.256.143.368.567.439l.7.128c.8.152,1.183.52,1.183,1.12a1.468,1.468,0,0,1-1.631,1.3,2.688,2.688,0,0,1-1.727-.544Z"/>
    <path d="M228.684,250.275h-.808v-.72h.808v-1.1l.9-.192v1.3h1.119v.72h-1.119v2.031c0,.392.152.544.56.544a1.66,1.66,0,0,0,.544-.1v.759a2.844,2.844,0,0,1-.776.112c-.808,0-1.231-.384-1.231-1.119Z"/>
    <path d="M233.275,249.491a2.076,2.076,0,1,1-2.015,2.071A2,2,0,0,1,233.275,249.491Zm1.119,2.079a1.132,1.132,0,1,0-2.238,0,1.13,1.13,0,1,0,2.238,0Z"/>
    <path d="M236.228,249.555h.9v.872a1.187,1.187,0,0,1,1.1-.943,1.051,1.051,0,0,1,.392.079v.792a1.275,1.275,0,0,0-.5-.1,1.1,1.1,0,0,0-1,.664v2.638h-.9Z"/>
    <path d="M241.035,253.641A2.036,2.036,0,0,1,239,251.562a1.974,1.974,0,0,1,1.951-2.071,1.923,1.923,0,0,1,1.9,2.063v.224h-2.958a1.224,1.224,0,0,0,1.2,1.1,1.306,1.306,0,0,0,.952-.376l.591.551A2.314,2.314,0,0,1,241.035,253.641Zm-1.135-2.415h2.087a1.1,1.1,0,0,0-1.048-1A1.076,1.076,0,0,0,239.9,251.226Z"/>
    <path d="M245.228,249.356c0-.864.488-1.44,1.207-1.44s1.208.576,1.208,1.44c0,.879-.488,1.447-1.208,1.447S245.228,250.235,245.228,249.356Zm1.871,0c0-.584-.264-.944-.664-.944s-.655.36-.655.944c0,.6.256.951.655.951S247.1,249.955,247.1,249.356Zm-.943,4.205,3.158-5.6h.672l-3.167,5.6Zm2.39-1.407c0-.863.488-1.439,1.208-1.439s1.207.576,1.207,1.439c0,.879-.488,1.447-1.207,1.447S248.546,253.033,248.546,252.154Zm1.871,0c0-.584-.263-.943-.663-.943s-.656.359-.656.943c0,.6.256.952.656.952S250.417,252.754,250.417,252.154Z"/>
    <path d="M253.436,248.188a.564.564,0,0,1,1.127,0,.564.564,0,0,1-1.127,0Zm1.016,5.373h-.9v-4.006h.9Z"/>
    <path d="M255.564,249.555h.9v.656a1.452,1.452,0,0,1,1.271-.72,1.349,1.349,0,0,1,1.383,1.432v2.638h-.9v-2.383a.863.863,0,0,0-.88-.959,1.026,1.026,0,0,0-.871.48v2.862h-.9Z"/>
    <path d="M263.082,252.4l.544.543a2.084,2.084,0,0,1-1.567.7,2.071,2.071,0,0,1,0-4.141,2.157,2.157,0,0,1,1.6.671l-.56.584a1.323,1.323,0,0,0-1.007-.472,1.285,1.285,0,0,0,.024,2.558A1.23,1.23,0,0,0,263.082,252.4Z"/>
    <path d="M264.4,249.555h.9v.872a1.186,1.186,0,0,1,1.1-.943,1.055,1.055,0,0,1,.392.079v.792a1.275,1.275,0,0,0-.5-.1,1.1,1.1,0,0,0-1,.664v2.638h-.9Z"/>
    <path d="M269.21,253.641a2.035,2.035,0,0,1-2.038-2.079,1.973,1.973,0,0,1,1.95-2.071,1.923,1.923,0,0,1,1.895,2.063v.224h-2.958a1.224,1.224,0,0,0,1.2,1.1,1.306,1.306,0,0,0,.952-.376l.592.551A2.318,2.318,0,0,1,269.21,253.641Zm-1.135-2.415h2.087a1.1,1.1,0,0,0-1.047-1A1.076,1.076,0,0,0,268.075,251.226Z"/>
    <path d="M271.708,252.41c0-.72.583-1.175,1.527-1.175a2.483,2.483,0,0,1,1.079.247v-.439c0-.528-.3-.8-.919-.8a2.773,2.773,0,0,0-1.168.312l-.319-.656a3.841,3.841,0,0,1,1.663-.408c1.039,0,1.639.528,1.639,1.455v2.615h-.9v-.408a1.669,1.669,0,0,1-1.191.472A1.263,1.263,0,0,1,271.708,252.41Zm1.663.583a1.431,1.431,0,0,0,.943-.327v-.656a2.067,2.067,0,0,0-.927-.192c-.512,0-.831.224-.831.576S272.875,252.993,273.371,252.993Z"/>
    <path d="M276.371,252.49a2.31,2.31,0,0,0,1.288.455c.48,0,.807-.215.807-.535,0-.248-.167-.384-.551-.456l-.712-.12c-.775-.144-1.159-.5-1.159-1.1,0-.752.616-1.24,1.551-1.24a2.815,2.815,0,0,1,1.575.48l-.424.592a2.188,2.188,0,0,0-1.207-.384c-.416,0-.688.176-.688.472,0,.256.145.368.568.439l.7.128c.8.152,1.184.52,1.184,1.12a1.468,1.468,0,0,1-1.631,1.3,2.684,2.684,0,0,1-1.727-.544Z"/>
    <path d="M282.034,253.641A2.035,2.035,0,0,1,280,251.562a1.973,1.973,0,0,1,1.95-2.071,1.923,1.923,0,0,1,1.895,2.063v.224h-2.958a1.224,1.224,0,0,0,1.2,1.1,1.306,1.306,0,0,0,.952-.376l.591.551A2.314,2.314,0,0,1,282.034,253.641Zm-1.135-2.415h2.087a1.1,1.1,0,0,0-1.048-1A1.076,1.076,0,0,0,280.9,251.226Z"/>
  </g>
  <rect class="cls-4" x="190.782" y="247.093" width="8.503" height="8.503" rx="4.252"/>
</svg>
