<svg id="svg8" xmlns="http://www.w3.org/2000/svg" width="8.268in" height="6.184in" viewBox="0 0 595.276 445.215">
  <defs>
    <style>
      .cls-1, .cls-6 {
        fill: #e6e6e6;
      }

      .cls-1 {
        stroke: #e6e6e6;
      }

      .cls-1, .cls-3, .cls-7, .cls-8 {
        stroke-miterlimit: 10;
      }

      .cls-2 {
        fill: #a1c2e7;
      }

      .cls-10, .cls-12, .cls-3, .cls-4 {
        fill: #fff;
      }

      .cls-3 {
        stroke: #a1c2e7;
      }

      .cls-5 {
        fill: #06c;
      }

      .cls-7, .cls-8 {
        fill: none;
      }

      .cls-10, .cls-7 {
        stroke: #06c;
      }

      .cls-8 {
        stroke: #4c4c4c;
      }

      .cls-9 {
        fill: #4c4c4c;
      }

      .cls-10, .cls-12 {
        stroke-linecap: round;
        stroke-linejoin: round;
      }

      .cls-10 {
        stroke-dasharray: 3;
      }

      .cls-11 {
        fill: #151515;
      }

      .cls-12 {
        stroke: #5b5b5b;
        stroke-width: 1.5px;
      }
    </style>
  </defs>
  <rect class="cls-1" x="87.128" y="412.536" width="23.192" height="14.236"/>
  <g>
    <path d="M123.443,422.534a3.609,3.609,0,1,1,3.538-3.609A3.542,3.542,0,0,1,123.443,422.534Zm.01-6.148a2.544,2.544,0,0,0,0,5.068,2.546,2.546,0,0,0,0-5.068Z"/>
    <path d="M130.783,422.473a1.865,1.865,0,0,1-1.479-.7v.65H128.2v-7.147l1.129-.189v3a1.947,1.947,0,0,1,1.539-.709,2.4,2.4,0,0,1,2.269,2.548A2.426,2.426,0,0,1,130.783,422.473Zm-1.459-3.588v2.089a1.536,1.536,0,0,0,1.2.55,1.6,1.6,0,0,0,0-3.2A1.47,1.47,0,0,0,129.324,418.885Z"/>
    <path d="M133.345,424.522v-.909a1.591,1.591,0,0,0,.4.04c.39,0,.56-.16.56-.54v-5.7h1.129v5.746a1.319,1.319,0,0,1-1.479,1.429A2.626,2.626,0,0,1,133.345,424.522Zm.82-8.815a.7.7,0,0,1,1.409,0,.7.7,0,0,1-1.409,0Z"/>
    <path d="M139.144,422.523a2.545,2.545,0,0,1-2.549-2.6,2.465,2.465,0,0,1,2.438-2.588,2.4,2.4,0,0,1,2.369,2.578v.28h-3.7a1.53,1.53,0,0,0,1.5,1.369,1.628,1.628,0,0,0,1.19-.47l.739.69A2.891,2.891,0,0,1,139.144,422.523Zm-1.42-3.017h2.609a1.37,1.37,0,0,0-1.309-1.25A1.346,1.346,0,0,0,137.724,419.506Z"/>
    <path d="M146.163,420.974l.679.68a2.6,2.6,0,0,1-1.959.869,2.589,2.589,0,0,1,0-5.177,2.7,2.7,0,0,1,2,.84l-.7.73a1.656,1.656,0,0,0-1.26-.59,1.606,1.606,0,0,0,.03,3.2A1.539,1.539,0,0,0,146.163,420.974Z"/>
    <path d="M148.534,418.316h-1.009v-.9h1.009v-1.38l1.13-.239v1.619h1.4v.9h-1.4v2.538c0,.49.19.68.7.68a2.076,2.076,0,0,0,.68-.12v.95a3.554,3.554,0,0,1-.97.14c-1.009,0-1.539-.48-1.539-1.4Z"/>
    <path d="M154.3,417.417h1.13v.819a1.816,1.816,0,0,1,1.589-.9,1.685,1.685,0,0,1,1.729,1.789v3.3h-1.13v-2.979a1.078,1.078,0,0,0-1.1-1.2,1.283,1.283,0,0,0-1.089.6v3.579H154.3Z"/>
    <path d="M159.874,420.984c0-.9.73-1.469,1.909-1.469a3.089,3.089,0,0,1,1.349.31v-.55c0-.659-.379-1-1.149-1a3.462,3.462,0,0,0-1.459.39l-.4-.82a4.8,4.8,0,0,1,2.079-.509c1.3,0,2.049.659,2.049,1.818v3.269h-1.12v-.51a2.088,2.088,0,0,1-1.489.59A1.58,1.58,0,0,1,159.874,420.984Zm2.079.73a1.782,1.782,0,0,0,1.179-.41v-.819a2.585,2.585,0,0,0-1.159-.24c-.639,0-1.039.279-1.039.72C160.934,421.425,161.334,421.714,161.953,421.714Z"/>
    <path d="M165.624,417.417h1.13v.8a1.705,1.705,0,0,1,1.489-.879,1.575,1.575,0,0,1,1.469.968,1.845,1.845,0,0,1,1.659-.968,1.659,1.659,0,0,1,1.639,1.818v3.269h-1.13V419.4a1.013,1.013,0,0,0-1.009-1.149,1.192,1.192,0,0,0-1.009.59c.01.109.02.21.02.319v3.269h-1.129V419.4a1.014,1.014,0,0,0-1.01-1.149,1.159,1.159,0,0,0-.989.569v3.609h-1.13Z"/>
    <path d="M176.7,422.523a2.545,2.545,0,0,1-2.549-2.6,2.465,2.465,0,0,1,2.438-2.588,2.4,2.4,0,0,1,2.369,2.578v.28h-3.7a1.53,1.53,0,0,0,1.5,1.369,1.628,1.628,0,0,0,1.19-.47l.74.69A2.9,2.9,0,0,1,176.7,422.523Zm-1.42-3.017h2.609a1.37,1.37,0,0,0-1.309-1.25A1.346,1.346,0,0,0,175.283,419.506Z"/>
  </g>
  <rect class="cls-2" x="195.702" y="412.536" width="23.192" height="14.236"/>
  <g>
    <path d="M234,420.535l.79.76a3.591,3.591,0,1,1,.03-4.739l-.81.8a2.461,2.461,0,1,0-1.879,4.088A2.368,2.368,0,0,0,234,420.535Z"/>
    <path d="M238.028,417.337a2.594,2.594,0,1,1-2.519,2.588A2.5,2.5,0,0,1,238.028,417.337Zm1.4,2.6a1.415,1.415,0,1,0-2.8,0,1.413,1.413,0,1,0,2.8,0Z"/>
    <path d="M241.719,417.417h1.13v.819a1.816,1.816,0,0,1,1.589-.9,1.685,1.685,0,0,1,1.729,1.789v3.3h-1.13v-2.979a1.078,1.078,0,0,0-1.1-1.2,1.283,1.283,0,0,0-1.089.6v3.579h-1.13Z"/>
    <path d="M248.008,418.316H247v-.9h1.009v-1.38l1.13-.239v1.619h1.4v.9h-1.4v2.538c0,.49.19.68.7.68a2.074,2.074,0,0,0,.679-.12v.95a3.554,3.554,0,0,1-.97.14c-1.009,0-1.539-.48-1.539-1.4Z"/>
    <path d="M253.778,422.523a2.545,2.545,0,0,1-2.549-2.6,2.466,2.466,0,0,1,2.439-2.588,2.4,2.4,0,0,1,2.368,2.578v.28h-3.7a1.53,1.53,0,0,0,1.5,1.369,1.627,1.627,0,0,0,1.189-.47l.74.69A2.9,2.9,0,0,1,253.778,422.523Zm-1.42-3.017h2.609a1.37,1.37,0,0,0-1.309-1.25A1.346,1.346,0,0,0,252.358,419.506Z"/>
    <path d="M257.189,417.417h1.129v.819a1.817,1.817,0,0,1,1.589-.9,1.684,1.684,0,0,1,1.729,1.789v3.3h-1.129v-2.979a1.078,1.078,0,0,0-1.1-1.2,1.286,1.286,0,0,0-1.09.6v3.579h-1.129Z"/>
    <path d="M263.479,418.316h-1.01v-.9h1.01v-1.38l1.129-.239v1.619h1.4v.9h-1.4v2.538c0,.49.19.68.7.68a2.074,2.074,0,0,0,.679-.12v.95a3.553,3.553,0,0,1-.969.14c-1.01,0-1.539-.48-1.539-1.4Z"/>
  </g>
  <rect class="cls-3" x="283.458" y="412.536" width="23.192" height="14.236"/>
  <g>
    <path d="M321.752,420.535l.79.76a3.591,3.591,0,1,1,.03-4.739l-.809.8a2.461,2.461,0,1,0-1.88,4.088A2.368,2.368,0,0,0,321.752,420.535Z"/>
    <path d="M323.646,415.277l1.129-.189v3.148a1.814,1.814,0,0,1,1.588-.9,1.685,1.685,0,0,1,1.73,1.789v3.3h-1.13v-2.979a1.078,1.078,0,0,0-1.1-1.2,1.283,1.283,0,0,0-1.089.6v3.579h-1.129Z"/>
    <path d="M330.515,420.394a1.078,1.078,0,0,0,1.1,1.2,1.263,1.263,0,0,0,1.1-.62v-3.557h1.13v5.007h-1.13v-.83a1.831,1.831,0,0,1-1.6.91,1.68,1.68,0,0,1-1.729-1.789v-3.3h1.13Z"/>
    <path d="M335.235,417.417h1.129v.819a1.817,1.817,0,0,1,1.589-.9,1.685,1.685,0,0,1,1.73,1.789v3.3h-1.13v-2.979a1.078,1.078,0,0,0-1.1-1.2,1.286,1.286,0,0,0-1.09.6v3.579h-1.129Z"/>
    <path d="M341.055,415.277l1.13-.189v4.467l2.078-2.138h1.29l-2.289,2.318,2.428,2.689h-1.449l-2.058-2.309v2.309h-1.13Z"/>
  </g>
  <g>
    <rect class="cls-4" x="362.132" y="412.536" width="23.192" height="14.236"/>
    <path class="cls-5" d="M379.324,412.536h-3a.5.5,0,0,0,0,1h3a.5.5,0,0,0,0-1Zm-6,0h-3a.5.5,0,0,0,0,1h3a.5.5,0,0,0,0-1Zm-6,0h-3a.5.5,0,0,0,0,1h3a.5.5,0,0,0,0-1Zm-4.692.308a.5.5,0,0,0-.5.5v3a.5.5,0,0,0,1,0v-3a.5.5,0,0,0-.5-.5Zm0,6a.5.5,0,0,0-.5.5v3a.5.5,0,0,0,1,0v-3a.5.5,0,0,0-.5-.5Zm0,6a.5.5,0,0,0-.5.5v1.427H363.7a.5.5,0,0,0,0-1h-.572v-.427a.5.5,0,0,0-.5-.5Zm7.072.927h-3a.5.5,0,0,0,0,1h3a.5.5,0,0,0,0-1Zm6,0h-3a.5.5,0,0,0,0,1h3a.5.5,0,0,0,0-1Zm6,0h-3a.5.5,0,0,0,0,1h3a.5.5,0,0,0,0-1Zm3.12-1.88a.5.5,0,0,0-.5.5v1.556a.5.5,0,0,0,0,.649v.175h1v-2.38a.5.5,0,0,0-.5-.5Zm0-6a.5.5,0,0,0-.5.5v3a.5.5,0,0,0,1,0v-3a.5.5,0,0,0-.5-.5Zm.5-5.355h-3a.5.5,0,0,0,0,1h2v1.855a.5.5,0,0,0,1,0v-2.855Z"/>
  </g>
  <g>
    <path d="M395.229,415.427h5.006v1.02h-3.807V418.4h2.658v1h-2.658V421.4h3.847v1.02h-5.046Z"/>
    <path d="M401.5,417.417h1.13v.819a1.816,1.816,0,0,1,1.589-.9,1.684,1.684,0,0,1,1.728,1.789v3.3h-1.128v-2.979a1.079,1.079,0,0,0-1.1-1.2,1.285,1.285,0,0,0-1.089.6v3.579H401.5Z"/>
    <path d="M410.9,420.974l.679.68a2.6,2.6,0,0,1-1.959.869,2.589,2.589,0,0,1,0-5.177,2.7,2.7,0,0,1,2,.84l-.7.73a1.656,1.656,0,0,0-1.26-.59,1.606,1.606,0,0,0,.031,3.2A1.539,1.539,0,0,0,410.9,420.974Z"/>
    <path d="M414.687,417.337a2.594,2.594,0,1,1-2.519,2.588A2.5,2.5,0,0,1,414.687,417.337Zm1.4,2.6a1.415,1.415,0,1,0-2.8,0,1.413,1.413,0,1,0,2.8,0Z"/>
    <path d="M421.986,421.754a1.927,1.927,0,0,1-1.54.719,2.561,2.561,0,0,1,.071-5.1,1.907,1.907,0,0,1,1.459.659v-2.759l1.13-.189v7.336h-1.12Zm-1.2-.23a1.5,1.5,0,0,0,1.19-.55v-2.108a1.553,1.553,0,0,0-1.19-.54,1.6,1.6,0,0,0,0,3.2Z"/>
    <path d="M426.827,422.523a2.545,2.545,0,0,1-2.549-2.6,2.466,2.466,0,0,1,2.439-2.588,2.4,2.4,0,0,1,2.369,2.578v.28h-3.7a1.528,1.528,0,0,0,1.5,1.369,1.625,1.625,0,0,0,1.189-.47l.74.69A2.894,2.894,0,0,1,426.827,422.523Zm-1.42-3.017h2.609a1.37,1.37,0,0,0-1.309-1.25A1.346,1.346,0,0,0,425.407,419.506Z"/>
    <path d="M433.846,421.754a1.925,1.925,0,0,1-1.539.719,2.561,2.561,0,0,1,.07-5.1,1.91,1.91,0,0,1,1.459.659v-2.759l1.129-.189v7.336h-1.119Zm-1.2-.23a1.5,1.5,0,0,0,1.189-.55v-2.108a1.554,1.554,0,0,0-1.189-.54,1.6,1.6,0,0,0,0,3.2Z"/>
  </g>
  <rect class="cls-1" x="87.128" y="169.446" width="59.185" height="26.342"/>
  <rect class="cls-1" x="158.755" y="169.446" width="59.185" height="26.342"/>
  <rect class="cls-1" x="302.009" y="169.446" width="59.185" height="26.342"/>
  <g>
    <rect class="cls-4" x="233.101" y="96.941" width="129.971" height="26.342"/>
    <path class="cls-5" d="M357.072,96.941h-3a.5.5,0,0,0,0,1h3a.5.5,0,0,0,0-1Zm-6,0h-3a.5.5,0,0,0,0,1h3a.5.5,0,0,0,0-1Zm-6,0h-3a.5.5,0,0,0,0,1h3a.5.5,0,0,0,0-1Zm-6,0h-3a.5.5,0,0,0,0,1h3a.5.5,0,0,0,0-1Zm-6,0h-3a.5.5,0,0,0,0,1h3a.5.5,0,0,0,0-1Zm-6,0h-3a.5.5,0,0,0,0,1h3a.5.5,0,0,0,0-1Zm-6,0h-3a.5.5,0,0,0,0,1h3a.5.5,0,0,0,0-1Zm-6,0h-3a.5.5,0,0,0,0,1h3a.5.5,0,0,0,0-1Zm-6,0h-3a.5.5,0,0,0,0,1h3a.5.5,0,0,0,0-1Zm-6,0h-3a.5.5,0,0,0,0,1h3a.5.5,0,0,0,0-1Zm-6,0h-3a.5.5,0,0,0,0,1h3a.5.5,0,0,0,0-1Zm-6,0h-3a.5.5,0,0,0,0,1h3a.5.5,0,0,0,0-1Zm-6,0h-3a.5.5,0,0,0,0,1h3a.5.5,0,0,0,0-1Zm-6,0h-3a.5.5,0,0,0,0,1h3a.5.5,0,0,0,0-1Zm-6,0h-3a.5.5,0,0,0,0,1h3a.5.5,0,0,0,0-1Zm-6,0h-3a.5.5,0,0,0,0,1h3a.5.5,0,0,0,0-1Zm-6,0h-3a.5.5,0,0,0,0,1h3a.5.5,0,0,0,0-1Zm-6,0h-3a.5.5,0,0,0,0,1h3a.5.5,0,0,0,0-1Zm-6,0h-3a.5.5,0,0,0,0,1h3a.5.5,0,0,0,0-1Zm-6,0h-3a.5.5,0,0,0,0,1h3a.5.5,0,0,0,0-1Zm-6,0h-3a.5.5,0,0,0,0,1h3a.5.5,0,0,0,0-1ZM233.6,98.47a.5.5,0,0,0-.5.5v3a.5.5,0,1,0,1,0v-3a.5.5,0,0,0-.5-.5Zm0,6a.5.5,0,0,0-.5.5v3a.5.5,0,1,0,1,0v-3a.5.5,0,0,0-.5-.5Zm0,6a.5.5,0,0,0-.5.5v3a.5.5,0,1,0,1,0v-3a.5.5,0,0,0-.5-.5Zm0,6a.5.5,0,0,0-.5.5v3a.5.5,0,1,0,1,0v-3a.5.5,0,0,0-.5-.5Zm2.187,5.813H233.1v.687h0v0h0v.313h2.687a.5.5,0,0,0,0-1Zm6,0h-3a.5.5,0,0,0,0,1h3a.5.5,0,0,0,0-1Zm6,0h-3a.5.5,0,0,0,0,1h3a.5.5,0,0,0,0-1Zm6,0h-3a.5.5,0,0,0,0,1h3a.5.5,0,0,0,0-1Zm6,0h-3a.5.5,0,0,0,0,1h3a.5.5,0,0,0,0-1Zm6,0h-3a.5.5,0,0,0,0,1h3a.5.5,0,0,0,0-1Zm6,0h-3a.5.5,0,0,0,0,1h3a.5.5,0,0,0,0-1Zm6,0h-3a.5.5,0,0,0,0,1h3a.5.5,0,0,0,0-1Zm6,0h-3a.5.5,0,0,0,0,1h3a.5.5,0,0,0,0-1Zm6,0h-3a.5.5,0,0,0,0,1h3a.5.5,0,0,0,0-1Zm6,0h-3a.5.5,0,0,0,0,1h3a.5.5,0,0,0,0-1Zm6,0h-3a.5.5,0,0,0,0,1h3a.5.5,0,0,0,0-1Zm6,0h-3a.5.5,0,0,0,0,1h3a.5.5,0,0,0,0-1Zm6,0h-3a.5.5,0,0,0,0,1h3a.5.5,0,0,0,0-1Zm6,0h-3a.5.5,0,0,0,0,1h3a.5.5,0,0,0,0-1Zm6,0h-3a.5.5,0,0,0,0,1h3a.5.5,0,0,0,0-1Zm6,0h-3a.5.5,0,0,0,0,1h3a.5.5,0,0,0,0-1Zm6,0h-3a.5.5,0,0,0,0,1h3a.5.5,0,0,0,0-1Zm6,0h-3a.5.5,0,0,0,0,1h3a.5.5,0,0,0,0-1Zm6,0h-3a.5.5,0,0,0,0,1h3a.5.5,0,0,0,0-1Zm6,0h-3a.5.5,0,0,0,0,1h3a.5.5,0,0,0,0-1Zm6,0h-3a.5.5,0,0,0,0,1h3a.5.5,0,0,0,0-1Zm.784-4.216a.5.5,0,0,0-.5.5v3a.5.5,0,1,0,1,0v-3a.5.5,0,0,0-.5-.5Zm0-6a.5.5,0,0,0-.5.5v3a.5.5,0,1,0,1,0v-3a.5.5,0,0,0-.5-.5Zm0-6a.5.5,0,0,0-.5.5v3a.5.5,0,1,0,1,0v-3a.5.5,0,0,0-.5-.5Zm0-6a.5.5,0,0,0-.5.5v3a.5.5,0,1,0,1,0v-3a.5.5,0,0,0-.5-.5Zm.5-3.126h-3a.5.5,0,0,0,0,1h2.168a.5.5,0,0,0,.663,0h.169v-1Z"/>
  </g>
  <rect class="cls-1" x="230.382" y="169.446" width="59.185" height="26.342"/>
  <rect class="cls-1" x="373.636" y="169.446" width="59.185" height="26.342"/>
  <rect class="cls-1" x="445.264" y="169.446" width="59.185" height="26.342"/>
  <rect class="cls-3" x="87.128" y="196.956" width="59.185" height="50.89"/>
  <rect class="cls-3" x="158.755" y="196.956" width="59.185" height="50.89"/>
  <rect class="cls-3" x="230.382" y="196.956" width="59.185" height="50.89"/>
  <rect class="cls-3" x="302.009" y="196.956" width="59.185" height="50.89"/>
  <rect class="cls-6" x="232.568" y="19.793" width="131.036" height="28.471"/>
  <rect class="cls-2" x="232.568" y="48.265" width="131.036" height="26.342"/>
  <rect class="cls-2" x="87.128" y="221.504" width="59.185" height="26.342"/>
  <rect class="cls-2" x="158.755" y="221.504" width="59.185" height="26.342"/>
  <rect class="cls-2" x="230.382" y="221.504" width="59.185" height="26.342"/>
  <rect class="cls-2" x="302.009" y="221.504" width="59.185" height="26.342"/>
  <rect class="cls-5" x="373.636" y="221.504" width="59.185" height="26.342"/>
  <rect class="cls-7" x="373.636" y="196.956" width="59.185" height="50.89"/>
  <rect class="cls-5" x="445.264" y="221.504" width="59.185" height="26.342"/>
  <rect class="cls-7" x="445.264" y="196.956" width="59.185" height="50.89"/>
  <g>
    <line class="cls-7" x1="474.856" y1="247.846" x2="474.856" y2="318.258"/>
    <polygon class="cls-5" points="471.117 317.164 474.856 323.64 478.595 317.164 471.117 317.164"/>
  </g>
  <g>
    <line class="cls-7" x1="188.348" y1="247.846" x2="188.348" y2="318.258"/>
    <polygon class="cls-5" points="184.608 317.164 188.347 323.64 192.087 317.164 184.608 317.164"/>
  </g>
  <g>
    <polyline class="cls-7" points="388.657 247.846 388.657 299.153 331.602 299.153 331.602 318.258"/>
    <polygon class="cls-5" points="327.862 317.164 331.601 323.64 335.341 317.164 327.862 317.164"/>
  </g>
  <g>
    <polyline class="cls-7" points="315.685 247.846 315.685 299.153 258.63 299.153 258.63 318.258"/>
    <polygon class="cls-5" points="254.89 317.164 258.629 323.64 262.369 317.164 254.89 317.164"/>
  </g>
  <g>
    <polyline class="cls-7" points="242.488 247.846 242.488 299.153 116.721 299.153 116.721 318.258"/>
    <polygon class="cls-5" points="112.981 317.164 116.72 323.64 120.46 317.164 112.981 317.164"/>
  </g>
  <rect class="cls-4" x="181.118" y="273.057" width="210.734" height="4.233"/>
  <g>
    <polyline class="cls-7" points="116.721 247.846 116.721 275.027 403.229 275.027 403.229 318.258"/>
    <polygon class="cls-5" points="399.489 317.164 403.228 323.64 406.968 317.164 399.489 317.164"/>
  </g>
  <g>
    <polyline class="cls-8" points="232.568 110.7 116.721 110.7 116.721 164.064"/>
    <polygon class="cls-9" points="112.981 162.97 116.72 169.446 120.46 162.97 112.981 162.97"/>
  </g>
  <g>
    <polyline class="cls-8" points="232.568 110.7 188.348 110.7 188.348 164.064"/>
    <polygon class="cls-9" points="184.608 162.97 188.347 169.446 192.087 162.97 184.608 162.97"/>
  </g>
  <g>
    <polyline class="cls-8" points="363.38 110.7 403.229 110.7 403.229 164.064"/>
    <polygon class="cls-9" points="399.489 162.97 403.228 169.446 406.968 162.97 399.489 162.97"/>
  </g>
  <g>
    <polyline class="cls-8" points="363.38 110.7 474.856 110.7 474.856 164.064"/>
    <polygon class="cls-9" points="471.117 162.97 474.856 169.446 478.595 162.97 471.117 162.97"/>
  </g>
  <g>
    <polyline class="cls-10" points="508.147 250.738 508.147 251.881 507.026 251.881"/>
    <line class="cls-10" x1="504.841" y1="251.881" x2="372.179" y2="251.881"/>
    <polyline class="cls-10" points="371.058 251.881 369.937 251.881 369.937 250.738"/>
    <line class="cls-10" x1="369.937" y1="248.511" x2="369.937" y2="195.901"/>
    <polyline class="cls-10" points="369.937 194.816 369.937 193.674 371.058 193.674"/>
    <line class="cls-10" x1="373.3" y1="193.674" x2="505.962" y2="193.674"/>
    <polyline class="cls-10" points="507.026 193.674 508.147 193.674 508.147 194.816"/>
    <line class="cls-10" x1="508.147" y1="197.044" x2="508.147" y2="249.596"/>
  </g>
  <g>
    <line class="cls-8" x1="259.975" y1="123.651" x2="259.975" y2="164.064"/>
    <polygon class="cls-9" points="256.235 162.97 259.974 169.446 263.714 162.97 256.235 162.97"/>
  </g>
  <g>
    <line class="cls-8" x1="331.602" y1="123.651" x2="331.602" y2="164.064"/>
    <polygon class="cls-9" points="327.862 162.97 331.601 169.446 335.341 162.97 327.862 162.97"/>
  </g>
  <g>
    <path class="cls-9" d="M287.606,30.975v7.342h-1.29V30.975h-2.522V29.686h6.334v1.289Z"/>
    <path class="cls-9" d="M291.809,38.317V29.686h5.549v1.233H293.1v2.129h2.466v1.233H293.1v2.747h4.428v1.233h-5.717Z"/>
    <path class="cls-9" d="M301.785,38.485a4.1,4.1,0,0,1-3.082-1.4l.952-.9A3.206,3.206,0,0,0,301.9,37.2c1.233,0,1.794-.393,1.794-1.233,0-.673-.5-1.009-1.962-1.457-1.849-.561-2.69-1.009-2.69-2.522s1.233-2.41,2.858-2.41a3.8,3.8,0,0,1,2.8,1.176l-.9.953a2.666,2.666,0,0,0-2.018-.84c-1.009,0-1.457.5-1.457,1.064,0,.617.392.9,1.906,1.346,1.681.5,2.746,1.064,2.746,2.578C304.98,37.42,304.027,38.485,301.785,38.485Z"/>
    <path class="cls-9" d="M309.912,30.975v7.342h-1.289V30.975H306.1V29.686h6.333v1.289Z"/>
  </g>
  <g>
    <path class="cls-9" d="M106.184,179.31v7.342H104.9V179.31h-2.522v-1.289h6.333v1.289Z"/>
    <path class="cls-9" d="M110.443,186.652v-8.631h5.549v1.233h-4.26v2.13H114.2v1.233h-2.467v2.746h4.428V186.6h-5.717Z"/>
    <path class="cls-9" d="M120.42,186.764a4.1,4.1,0,0,1-3.083-1.4l.953-.9a3.2,3.2,0,0,0,2.242,1.009c1.233,0,1.793-.392,1.793-1.233,0-.673-.5-1.009-1.961-1.457-1.85-.561-2.691-1.009-2.691-2.522s1.233-2.41,2.859-2.41a3.8,3.8,0,0,1,2.8,1.177l-.9.952a2.664,2.664,0,0,0-2.017-.84c-1.009,0-1.458.5-1.458,1.065,0,.616.393.9,1.906,1.345,1.681.5,2.746,1.065,2.746,2.578C123.614,185.7,122.605,186.764,120.42,186.764Z"/>
    <path class="cls-9" d="M128.49,179.31v7.342H127.2V179.31h-2.522v-1.289h6.333v1.289Z"/>
  </g>
  <g>
    <path class="cls-4" d="M180.277,238.766h-2.354v-8.631h2.354c2.3,0,4.2,1.289,4.2,4.315A3.939,3.939,0,0,1,180.277,238.766Zm0-7.4h-1.065v6.109h1.065c2.074,0,2.858-1.233,2.858-3.083S182.3,231.368,180.277,231.368Z"/>
    <path class="cls-4" d="M186.274,238.766v-8.631h5.549v1.233h-4.26v2.13h2.466v1.233h-2.466v2.746h4.428v1.233h-5.717Z"/>
    <path class="cls-4" d="M195.129,231.368v2.242H197.6V234.9h-2.466v3.811H193.84v-8.575h5.549v1.289h-4.26Z"/>
  </g>
  <g>
    <path class="cls-4" d="M111,238.766l-.729-2.074H106.8l-.728,2.074h-1.345l3.082-8.631h1.345l3.139,8.631Zm-1.85-5.212c-.224-.617-.56-1.626-.672-1.962-.112.392-.393,1.345-.617,2.018l-.672,1.961h2.69Z"/>
    <path class="cls-4" d="M117.505,238.766h-3.419v-8.631h3.531a2.158,2.158,0,0,1,2.466,2.242,1.8,1.8,0,0,1-1.121,1.737,2.008,2.008,0,0,1,1.458,2.018C120.476,237.869,119.355,238.766,117.505,238.766Zm.112-7.454h-2.3v2.242h2.3a1.047,1.047,0,0,0,1.177-1.121A1.023,1.023,0,0,0,117.617,231.312Zm0,3.363h-2.354v2.858h2.3c1.121,0,1.57-.56,1.57-1.457A1.33,1.33,0,0,0,117.617,234.675Z"/>
    <path class="cls-4" d="M125.52,238.878c-2.242,0-3.643-1.849-3.643-4.428,0-2.634,1.4-4.427,3.643-4.427a3.015,3.015,0,0,1,2.914,1.625l-1.121.729a1.809,1.809,0,0,0-1.793-1.009c-1.513,0-2.3,1.233-2.3,3.139,0,1.961.841,3.138,2.3,3.138a2.119,2.119,0,0,0,1.905-1.065l1.065.729A3.4,3.4,0,0,1,125.52,238.878Z"/>
  </g>
  <g>
    <path class="cls-4" d="M253.922,238.878c-2.242,0-3.643-1.849-3.643-4.428,0-2.634,1.4-4.427,3.643-4.427a3.015,3.015,0,0,1,2.914,1.625l-1.121.729a1.81,1.81,0,0,0-1.793-1.009c-1.514,0-2.354,1.233-2.354,3.139,0,1.961.84,3.138,2.354,3.138a1.819,1.819,0,0,0,1.961-1.961v-.057h-1.4v-1.233h2.746V235.4A3.194,3.194,0,0,1,253.922,238.878Z"/>
    <path class="cls-4" d="M264.29,238.766V234.9h-3.979v3.867h-1.289v-8.631h1.289v3.475h3.979v-3.475h1.289v8.631Z"/>
    <path class="cls-4" d="M267.877,238.766v-8.631h1.289v8.631Z"/>
  </g>
  <g>
    <path class="cls-4" d="M323.307,238.878a2.923,2.923,0,0,1-3.027-2.3l1.233-.392a1.745,1.745,0,0,0,1.794,1.345c1.233,0,1.737-.729,1.737-2.354v-5.044h1.289v5.212C326.39,237.645,325.381,238.878,323.307,238.878Z"/>
    <path class="cls-4" d="M333.9,238.766l-2.466-4.428-1.626,1.962v2.466h-1.233v-8.631h1.233v4.484c.168-.225.729-.953,1.009-1.289l2.578-3.2h1.457l-2.522,3.139,3.083,5.492Z"/>
    <path class="cls-4" d="M336.982,238.766v-8.631h1.289v7.342h4.316v1.289Z"/>
  </g>
  <g>
    <path class="cls-4" d="M395.887,235.347v3.419H394.6v-3.419l-3.083-5.212h1.513l1.346,2.354c.28.5.728,1.4.9,1.737.168-.336.561-1.121.9-1.681l1.345-2.41h1.513Z"/>
    <path class="cls-4" d="M405.19,238.766l-.952-1.681c-.337-.5-.785-1.458-.953-1.738-.168.336-.617,1.177-.953,1.738l-.953,1.681h-1.513l2.69-4.428-2.522-4.2H401.6l.785,1.4c.28.5.785,1.457.953,1.738a19.159,19.159,0,0,1,.953-1.738l.784-1.4h1.514l-2.522,4.147,2.69,4.484Z"/>
    <path class="cls-4" d="M411.86,235.347v3.419h-1.289v-3.419l-3.083-5.212H409l1.345,2.354c.28.5.728,1.4.9,1.737.168-.336.56-1.121.9-1.681l1.345-2.41H415Z"/>
  </g>
  <g>
    <path class="cls-4" d="M468.971,237.981l.561.9-1.065.673-.561-.9a3.29,3.29,0,0,1-1.289.224c-2.242,0-3.643-1.849-3.643-4.428,0-2.634,1.4-4.427,3.643-4.427s3.643,1.849,3.643,4.427A4.492,4.492,0,0,1,468.971,237.981Zm-2.354-6.725c-1.513,0-2.354,1.233-2.354,3.138,0,1.962.841,3.195,2.354,3.195a1.736,1.736,0,0,0,.561-.056l-.617-.953,1.065-.672.616,1.008a3.6,3.6,0,0,0,.729-2.466C468.971,232.489,468.186,231.256,466.617,231.256Z"/>
    <path class="cls-4" d="M475.36,238.878c-2.241,0-3.643-1.849-3.643-4.428,0-2.634,1.4-4.427,3.643-4.427a3.017,3.017,0,0,1,2.915,1.625l-1.121.729a1.812,1.812,0,0,0-1.794-1.009c-1.513,0-2.354,1.233-2.354,3.139,0,1.961.841,3.138,2.354,3.138a1.819,1.819,0,0,0,1.962-1.961v-.057h-1.4v-1.233h2.746V235.4A3.166,3.166,0,0,1,475.36,238.878Z"/>
    <path class="cls-4" d="M483.767,238.878c-2.242,0-3.643-1.849-3.643-4.428,0-2.634,1.4-4.427,3.643-4.427a3.018,3.018,0,0,1,2.915,1.625l-1.121.729a1.812,1.812,0,0,0-1.794-1.009c-1.513,0-2.3,1.233-2.3,3.139,0,1.961.841,3.138,2.3,3.138a2.122,2.122,0,0,0,1.906-1.065l1.065.729A3.467,3.467,0,0,1,483.767,238.878Z"/>
  </g>
  <path class="cls-9" d="M185.041,213.994c.112-2.522,1.625-3.643,3.307-4.652,1.177-.673,1.457-1.065,1.457-1.682,0-.672-.448-1.121-1.625-1.121a3.246,3.246,0,0,0-2.074.841l-.841-1.009a4.4,4.4,0,0,1,2.971-1.177c1.793,0,2.914.785,2.914,2.354,0,1.345-.673,1.906-2.186,2.8-1.625.952-2.13,1.513-2.3,2.354h4.6v1.233h-6.221Z"/>
  <path class="cls-9" d="M116.384,213.994V207.38h-1.513v-.9c.9-.056,1.625-.336,1.794-1.121h1.064v8.632Z"/>
  <path class="cls-9" d="M259.638,214.162a3.727,3.727,0,0,1-3.082-1.457l1.009-.841a2.681,2.681,0,0,0,2.129,1.009c1.4,0,1.906-.5,1.906-1.4s-.673-1.29-1.569-1.29h-.785v-1.233h.785a1.134,1.134,0,0,0,1.233-1.177c0-.5-.336-1.177-1.626-1.177a2.184,2.184,0,0,0-1.681.785l-.953-.9a3.737,3.737,0,0,1,2.69-1.177c1.626,0,2.971.841,2.971,2.354a1.981,1.981,0,0,1-1.065,1.906,1.867,1.867,0,0,1,1.4,1.962C262.889,213.209,261.656,214.162,259.638,214.162Z"/>
  <path class="cls-9" d="M333.9,212.088v1.962h-1.233v-1.906h-4.652v-1.233l4.428-5.492H333.9v5.548h1.121v1.121Zm-1.962-4.2-1.681,2.129a7.735,7.735,0,0,1-.841.953h3.251v-2.522c0-.5.056-1.233.056-1.569A10.728,10.728,0,0,0,331.938,207.885Z"/>
  <path class="cls-9" d="M403.005,214.162a5.729,5.729,0,0,1-3.027-.841l.617-1.065a5.372,5.372,0,0,0,2.41.673c1.345,0,2.073-.673,2.073-1.738a1.522,1.522,0,0,0-1.737-1.569,2.633,2.633,0,0,0-1.681.56l-1.4-.56.281-4.2h5.324v1.233h-4.147l-.169,2.185a3.613,3.613,0,0,1,1.85-.448,2.654,2.654,0,0,1,2.97,2.746C406.367,213.209,404.966,214.162,403.005,214.162Z"/>
  <path class="cls-9" d="M474.856,214.162c-1.794,0-3.251-1.009-3.251-3.419a5.15,5.15,0,0,1,5.325-5.437v1.233a3.96,3.96,0,0,0-3.924,2.8,3.159,3.159,0,0,1,2.242-.673,2.618,2.618,0,0,1,2.915,2.69C478.275,213.153,476.762,214.162,474.856,214.162Zm.112-4.372c-1.233,0-2.018.5-2.018,1.513,0,.841.673,1.57,1.962,1.57s2.018-.617,2.018-1.57C476.93,210.3,476.2,209.79,474.968,209.79Z"/>
  <g>
    <path class="cls-9" d="M177.811,179.31v7.342h-1.289V179.31H174v-1.289h6.333v1.289Z"/>
    <path class="cls-9" d="M182.07,186.652v-8.631h5.549v1.233H183.36v2.13h2.466v1.233H183.36v2.746h4.427V186.6H182.07Z"/>
    <path class="cls-9" d="M192.047,186.764a4.1,4.1,0,0,1-3.083-1.4l.953-.9a3.2,3.2,0,0,0,2.242,1.009c1.233,0,1.793-.392,1.793-1.233,0-.673-.5-1.009-1.961-1.457-1.85-.561-2.691-1.009-2.691-2.522s1.233-2.41,2.859-2.41a3.794,3.794,0,0,1,2.8,1.177l-.9.952a2.664,2.664,0,0,0-2.017-.84c-1.009,0-1.457.5-1.457,1.065,0,.616.392.9,1.905,1.345,1.681.5,2.746,1.065,2.746,2.578C195.241,185.7,194.233,186.764,192.047,186.764Z"/>
    <path class="cls-9" d="M200.117,179.31v7.342h-1.289V179.31h-2.522v-1.289h6.333v1.289Z"/>
  </g>
  <g>
    <path class="cls-9" d="M249.494,179.31v7.342h-1.289V179.31h-2.522v-1.289h6.333v1.289Z"/>
    <path class="cls-9" d="M253.7,186.652v-8.631h5.548v1.233h-4.259v2.13h2.466v1.233h-2.466v2.746h4.427V186.6H253.7Z"/>
    <path class="cls-9" d="M263.674,186.764a4.1,4.1,0,0,1-3.083-1.4l.953-.9a3.2,3.2,0,0,0,2.242,1.009c1.233,0,1.793-.392,1.793-1.233,0-.673-.5-1.009-1.961-1.457-1.85-.561-2.69-1.009-2.69-2.522s1.233-2.41,2.858-2.41a3.794,3.794,0,0,1,2.8,1.177l-.9.952a2.664,2.664,0,0,0-2.017-.84c-1.009,0-1.457.5-1.457,1.065,0,.616.392.9,1.905,1.345,1.682.5,2.746,1.065,2.746,2.578C266.868,185.7,265.86,186.764,263.674,186.764Z"/>
    <path class="cls-9" d="M271.744,179.31v7.342h-1.289V179.31h-2.522v-1.289h6.334v1.289Z"/>
  </g>
  <g>
    <path class="cls-9" d="M321.121,179.31v7.342h-1.289V179.31H317.31v-1.289h6.333v1.289Z"/>
    <path class="cls-9" d="M325.325,186.652v-8.631h5.548v1.233h-4.259v2.13h2.466v1.233h-2.466v2.746h4.427V186.6h-5.716Z"/>
    <path class="cls-9" d="M335.3,186.764a4.1,4.1,0,0,1-3.083-1.4l.953-.9a3.2,3.2,0,0,0,2.242,1.009c1.233,0,1.793-.392,1.793-1.233,0-.673-.5-1.009-1.961-1.457-1.85-.561-2.69-1.009-2.69-2.522s1.233-2.41,2.858-2.41a3.794,3.794,0,0,1,2.8,1.177l-.9.952a2.666,2.666,0,0,0-2.018-.84c-1.009,0-1.457.5-1.457,1.065,0,.616.392.9,1.905,1.345,1.682.5,2.747,1.065,2.747,2.578C338.5,185.7,337.543,186.764,335.3,186.764Z"/>
    <path class="cls-9" d="M343.372,179.31v7.342h-1.29V179.31H339.56v-1.289h6.334v1.289Z"/>
  </g>
  <g>
    <path class="cls-9" d="M392.748,179.31v7.342h-1.289V179.31h-2.522v-1.289h6.333v1.289Z"/>
    <path class="cls-9" d="M396.952,186.652v-8.631H402.5v1.233h-4.259v2.13h2.466v1.233h-2.466v2.746h4.427V186.6h-5.716Z"/>
    <path class="cls-9" d="M406.928,186.764a4.1,4.1,0,0,1-3.083-1.4l.953-.9a3.2,3.2,0,0,0,2.242,1.009c1.233,0,1.793-.392,1.793-1.233,0-.673-.5-1.009-1.961-1.457-1.85-.561-2.69-1.009-2.69-2.522s1.233-2.41,2.858-2.41a3.794,3.794,0,0,1,2.8,1.177l-.9.952a2.666,2.666,0,0,0-2.018-.84c-1.009,0-1.457.5-1.457,1.065,0,.616.392.9,1.9,1.345,1.682.5,2.747,1.065,2.747,2.578C410.123,185.7,409.17,186.764,406.928,186.764Z"/>
    <path class="cls-9" d="M415.055,179.31v7.342h-1.289V179.31h-2.523v-1.289h6.278v1.289Z"/>
  </g>
  <g>
    <path class="cls-9" d="M464.375,179.31v7.342h-1.289V179.31h-2.522v-1.289H466.9v1.289Z"/>
    <path class="cls-9" d="M468.579,186.652v-8.631h5.548v1.233h-4.259v2.13h2.466v1.233h-2.466v2.746H474.3V186.6h-5.717Z"/>
    <path class="cls-9" d="M478.555,186.764a4.1,4.1,0,0,1-3.083-1.4l.953-.9a3.2,3.2,0,0,0,2.242,1.009c1.233,0,1.794-.392,1.794-1.233,0-.673-.5-1.009-1.962-1.457-1.85-.561-2.69-1.009-2.69-2.522s1.233-2.41,2.858-2.41a3.794,3.794,0,0,1,2.8,1.177l-.9.952a2.666,2.666,0,0,0-2.018-.84c-1.009,0-1.457.5-1.457,1.065,0,.616.392.9,1.9,1.345,1.682.5,2.747,1.065,2.747,2.578C481.75,185.7,480.8,186.764,478.555,186.764Z"/>
    <path class="cls-9" d="M486.682,179.31v7.342h-1.289V179.31h-2.522v-1.289H489.2v1.289Z"/>
  </g>
  <g>
    <path class="cls-4" d="M259.022,65.471l-.729-2.074h-3.475l-.728,2.074h-1.345l3.082-8.631h1.345l3.139,8.631Zm-1.85-5.212c-.224-.617-.56-1.626-.672-1.962-.112.393-.392,1.345-.617,2.018l-.672,1.961h2.69Z"/>
    <path class="cls-4" d="M265.523,65.471H262.1V56.84h3.531a2.158,2.158,0,0,1,2.466,2.242,1.8,1.8,0,0,1-1.121,1.737,2.008,2.008,0,0,1,1.458,2.018C268.438,64.574,267.373,65.471,265.523,65.471Zm.112-7.454h-2.3v2.242h2.3a1.122,1.122,0,1,0,0-2.242Zm0,3.419h-2.354v2.858h2.3c1.121,0,1.57-.56,1.57-1.457A1.33,1.33,0,0,0,265.635,61.436Z"/>
    <path class="cls-4" d="M273.538,65.583c-2.242,0-3.643-1.849-3.643-4.427s1.4-4.428,3.643-4.428a3.015,3.015,0,0,1,2.914,1.625l-1.121.729a1.809,1.809,0,0,0-1.793-1.009c-1.513,0-2.3,1.233-2.3,3.139s.841,3.138,2.3,3.138a2.119,2.119,0,0,0,1.9-1.065l1.065.729A3.278,3.278,0,0,1,273.538,65.583Z"/>
    <path class="cls-4" d="M280.768,65.471h-2.354V56.84h2.354c2.3,0,4.2,1.289,4.2,4.316A3.939,3.939,0,0,1,280.768,65.471Zm0-7.4H279.7v6.165h1.065c2.074,0,2.858-1.233,2.858-3.082S282.786,58.073,280.768,58.073Z"/>
    <path class="cls-4" d="M286.765,65.471V56.84h5.548v1.233h-4.259V60.2h2.466v1.233h-2.466v2.746h4.428v1.233h-5.717Z"/>
    <path class="cls-4" d="M295.62,58.129v2.242h2.466V61.66H295.62v3.811h-1.289V56.84h5.549v1.289Z"/>
    <path class="cls-4" d="M304.363,65.583c-2.242,0-3.643-1.849-3.643-4.427s1.4-4.428,3.643-4.428a3.018,3.018,0,0,1,2.915,1.625l-1.121.729a1.812,1.812,0,0,0-1.794-1.009c-1.513,0-2.354,1.233-2.354,3.139s.841,3.138,2.354,3.138a1.82,1.82,0,0,0,1.962-1.961v-.056h-1.4V61.1h2.746v1.008A3.224,3.224,0,0,1,304.363,65.583Z"/>
    <path class="cls-4" d="M314.732,65.471V61.6h-3.979v3.867h-1.289V56.84h1.289v3.475h3.979V56.84h1.289v8.631Z"/>
    <path class="cls-4" d="M318.319,65.471V56.84h1.289v8.631Z"/>
    <path class="cls-4" d="M324.148,65.583a2.921,2.921,0,0,1-3.027-2.3l1.233-.392a1.744,1.744,0,0,0,1.794,1.345c1.233,0,1.737-.728,1.737-2.354V56.728h1.289V61.94C327.174,64.406,326.221,65.583,324.148,65.583Z"/>
    <path class="cls-4" d="M334.74,65.471l-2.466-4.428-1.625,1.962v2.466h-1.233V56.84h1.233v4.484c.168-.224.729-.953,1.009-1.289l2.578-3.195h1.457l-2.522,3.139,3.083,5.492Z"/>
    <path class="cls-4" d="M337.823,65.471V56.84h1.289v7.342h4.316v1.289Z"/>
  </g>
  <g>
    <path class="cls-9" d="M261.208,113.867v-8.631h5.548v1.233H262.5v2.13h2.466v1.233H262.5v2.746h4.427v1.233h-5.716Z"/>
    <path class="cls-9" d="M272.529,113.867v-3.643c0-1.289-.5-1.793-1.345-1.793s-1.345.616-1.345,1.625v3.811H268.55v-6.5h1.289v.616a2.033,2.033,0,0,1,1.625-.728c1.513,0,2.3,1.008,2.3,2.914v3.7Z"/>
    <path class="cls-9" d="M279.7,109.215a2.035,2.035,0,0,0-1.569-.784c-.9,0-1.514.84-1.514,2.129s.561,2.186,1.57,2.186a1.921,1.921,0,0,0,1.457-.785l.841.785a2.776,2.776,0,0,1-2.3,1.233c-1.57,0-2.8-1.345-2.8-3.363,0-2.129,1.233-3.418,2.859-3.418a2.868,2.868,0,0,1,2.3,1.12Z"/>
    <path class="cls-9" d="M284.411,113.979c-1.625,0-2.858-1.345-2.858-3.363,0-2.129,1.233-3.362,2.858-3.362s2.858,1.345,2.858,3.362C287.325,112.746,286.036,113.979,284.411,113.979Zm-.056-5.548c-.953,0-1.569.84-1.569,2.129,0,1.4.672,2.186,1.625,2.186s1.569-.953,1.569-2.186C286.036,109.327,285.42,108.431,284.355,108.431Z"/>
    <path class="cls-9" d="M292.762,113.867v-.616a2.332,2.332,0,0,1-1.682.728c-1.4,0-2.466-1.009-2.466-3.475,0-2.242,1.233-3.25,2.578-3.25a2.221,2.221,0,0,1,1.626.728v-2.466l1.233-.672v8.967h-1.289Zm0-4.6a2.065,2.065,0,0,0-1.513-.84c-.9,0-1.4.672-1.4,2.073,0,1.626.5,2.354,1.458,2.354a1.885,1.885,0,0,0,1.457-.841v-2.746Z"/>
    <path class="cls-9" d="M301.113,111.065h-4.26c.112,1.233.841,1.793,1.626,1.793a2.511,2.511,0,0,0,1.4-.5l.728.84a2.914,2.914,0,0,1-2.242.841c-1.513,0-2.8-1.233-2.8-3.363,0-2.185,1.177-3.362,2.858-3.362,1.85,0,2.747,1.513,2.747,3.25C301.169,110.728,301.113,110.953,301.113,111.065Zm-2.747-2.691c-.84,0-1.345.617-1.457,1.626h3.027C299.824,109.1,299.375,108.374,298.366,108.374Z"/>
    <path class="cls-9" d="M308.231,115.212a6.6,6.6,0,0,1,0-10.2l.616.56a6.313,6.313,0,0,0-1.681,4.54,6.514,6.514,0,0,0,1.681,4.54Z"/>
    <path class="cls-9" d="M315.909,111.905v1.962h-1.233v-1.906h-4.652v-1.233l4.428-5.492h1.457v5.548h1.121v1.121Zm-2.018-4.2-1.681,2.13a7.707,7.707,0,0,1-.841.952h3.251v-2.522c0-.5.056-1.233.056-1.569A8.44,8.44,0,0,1,313.891,107.7Z"/>
    <path class="cls-9" d="M319.047,115.38h-.9l.168-3.25h1.625Z"/>
    <path class="cls-9" d="M324.6,113.867c.112-2.522,1.625-3.643,3.307-4.652,1.177-.672,1.457-1.065,1.457-1.681,0-.673-.448-1.121-1.625-1.121a3.241,3.241,0,0,0-2.074.841l-.841-1.009a4.4,4.4,0,0,1,2.971-1.177c1.793,0,2.914.784,2.914,2.354,0,1.345-.673,1.905-2.186,2.8-1.625.953-2.13,1.513-2.3,2.354h4.6v1.233H324.6Z"/>
    <path class="cls-9" d="M333,115.212l-.617-.56a6.314,6.314,0,0,0,1.682-4.54,6.515,6.515,0,0,0-1.682-4.54l.617-.56a6.6,6.6,0,0,1,0,10.2Z"/>
  </g>
  <g>
    <line class="cls-8" x1="298.703" y1="74.607" x2="298.703" y2="91.559"/>
    <polygon class="cls-9" points="294.963 90.465 298.702 96.941 302.442 90.465 294.963 90.465"/>
  </g>
  <g>
    <g>
      <path class="cls-11" d="M107.262,376.724a3.972,3.972,0,1,1,3.894-3.971A3.9,3.9,0,0,1,107.262,376.724Zm.011-6.765a2.8,2.8,0,0,0,0,5.577,2.8,2.8,0,0,0,0-5.577Z"/>
      <path class="cls-11" d="M112.7,374.5a3.853,3.853,0,0,0,2.585,1.122c1.024,0,1.728-.517,1.728-1.221,0-.627-.375-.913-1.4-1.1l-1.418-.242c-1.332-.241-1.981-.9-1.981-1.958,0-1.385,1.111-2.31,2.838-2.31a5.137,5.137,0,0,1,3.092,1l-.671.989a4,4,0,0,0-2.465-.891c-.924,0-1.529.462-1.529,1.089,0,.551.341.836,1.188.969l1.364.241c1.552.265,2.278.946,2.278,2.112,0,1.409-1.254,2.411-3.092,2.411a4.846,4.846,0,0,1-3.234-1.244Z"/>
      <path class="cls-11" d="M119.647,368.9h2.816a3.851,3.851,0,1,1,0,7.7h-2.816Zm1.32,1.145v5.412H122.5a2.718,2.718,0,0,0,0-5.412Z"/>
      <path class="cls-11" d="M129.855,376.6h-1.2v-6.447l-1.364.595v-1.068l1.8-.781h.759Z"/>
    </g>
    <g>
      <path class="cls-12" d="M98.272,339.58v10.193c0,5.629,8.259,10.192,18.449,10.192s18.449-4.563,18.449-10.192V339.58"/>
      <ellipse class="cls-12" cx="116.721" cy="339.58" rx="18.449" ry="10.192"/>
    </g>
  </g>
  <g>
    <g>
      <path class="cls-11" d="M178.252,376.724a3.972,3.972,0,1,1,3.894-3.971A3.9,3.9,0,0,1,178.252,376.724Zm.01-6.765a2.8,2.8,0,0,0,0,5.577,2.8,2.8,0,0,0,0-5.577Z"/>
      <path class="cls-11" d="M183.685,374.5a3.853,3.853,0,0,0,2.585,1.122c1.024,0,1.728-.517,1.728-1.221,0-.627-.375-.913-1.4-1.1l-1.419-.242c-1.331-.241-1.98-.9-1.98-1.958,0-1.385,1.111-2.31,2.838-2.31a5.134,5.134,0,0,1,3.091,1l-.67.989a4,4,0,0,0-2.465-.891c-.924,0-1.529.462-1.529,1.089,0,.551.341.836,1.188.969l1.364.241c1.551.265,2.278.946,2.278,2.112,0,1.409-1.254,2.411-3.092,2.411a4.846,4.846,0,0,1-3.234-1.244Z"/>
      <path class="cls-11" d="M190.637,368.9h2.816a3.851,3.851,0,1,1,0,7.7h-2.816Zm1.32,1.145v5.412h1.529a2.718,2.718,0,0,0,0-5.412Z"/>
      <path class="cls-11" d="M198.436,375.734l3.157-3.3a2.058,2.058,0,0,0,.748-1.452,1.256,1.256,0,0,0-1.408-1.133,2.772,2.772,0,0,0-1.991.947l-.682-.826a3.9,3.9,0,0,1,2.706-1.166c1.507,0,2.541.858,2.541,2.1a2.939,2.939,0,0,1-1.1,2.146l-2.464,2.542,3.707-.023V376.6h-5.214Z"/>
    </g>
    <g>
      <path class="cls-12" d="M170.515,339.58v10.193c0,5.629,8.26,10.192,18.449,10.192s18.449-4.563,18.449-10.192V339.58"/>
      <ellipse class="cls-12" cx="188.964" cy="339.58" rx="18.449" ry="10.192"/>
    </g>
  </g>
  <g>
    <g>
      <path class="cls-11" d="M248.106,376.724A3.972,3.972,0,1,1,252,372.753,3.9,3.9,0,0,1,248.106,376.724Zm.01-6.765a2.8,2.8,0,0,0,0,5.577,2.8,2.8,0,0,0,0-5.577Z"/>
      <path class="cls-11" d="M253.539,374.5a3.853,3.853,0,0,0,2.585,1.122c1.024,0,1.728-.517,1.728-1.221,0-.627-.374-.913-1.4-1.1l-1.419-.242c-1.331-.241-1.98-.9-1.98-1.958,0-1.385,1.111-2.31,2.839-2.31a5.131,5.131,0,0,1,3.09,1l-.67.989a4,4,0,0,0-2.464-.891c-.925,0-1.53.462-1.53,1.089,0,.551.341.836,1.188.969l1.364.241c1.552.265,2.278.946,2.278,2.112,0,1.409-1.254,2.411-3.091,2.411a4.848,4.848,0,0,1-3.235-1.244Z"/>
      <path class="cls-11" d="M260.491,368.9h2.817a3.851,3.851,0,1,1,0,7.7h-2.817Zm1.32,1.145v5.412h1.529a2.718,2.718,0,0,0,0-5.412Z"/>
      <path class="cls-11" d="M270.942,376.714a3.867,3.867,0,0,1-2.85-1.156l.814-.759a2.526,2.526,0,0,0,2.025.858c.989,0,1.672-.517,1.672-1.276a1.217,1.217,0,0,0-1.365-1.156h-.957v-1h.859a1.115,1.115,0,0,0,1.22-1.155,1.329,1.329,0,0,0-1.462-1.221,2.383,2.383,0,0,0-1.915.913l-.814-.758a3.729,3.729,0,0,1,2.773-1.222c1.529,0,2.628.913,2.628,2.156a1.85,1.85,0,0,1-1.5,1.761,1.908,1.908,0,0,1,1.739,1.76C273.813,375.767,272.613,376.714,270.942,376.714Z"/>
    </g>
    <g>
      <path class="cls-12" d="M240.573,339.58v10.193c0,5.629,8.26,10.192,18.449,10.192s18.449-4.563,18.449-10.192V339.58"/>
      <ellipse class="cls-12" cx="259.022" cy="339.58" rx="18.449" ry="10.192"/>
    </g>
  </g>
  <g>
    <g>
      <path class="cls-11" d="M320.359,376.724a3.972,3.972,0,1,1,3.9-3.971A3.9,3.9,0,0,1,320.359,376.724Zm.011-6.765a2.8,2.8,0,0,0,0,5.577,2.8,2.8,0,0,0,0-5.577Z"/>
      <path class="cls-11" d="M325.792,374.5a3.855,3.855,0,0,0,2.586,1.122c1.023,0,1.728-.517,1.728-1.221,0-.627-.375-.913-1.4-1.1l-1.419-.242c-1.332-.241-1.98-.9-1.98-1.958,0-1.385,1.111-2.31,2.838-2.31a5.136,5.136,0,0,1,3.091,1l-.671.989a3.994,3.994,0,0,0-2.464-.891c-.924,0-1.53.462-1.53,1.089,0,.551.341.836,1.189.969l1.364.241c1.551.265,2.277.946,2.277,2.112,0,1.409-1.253,2.411-3.091,2.411a4.85,4.85,0,0,1-3.235-1.244Z"/>
      <path class="cls-11" d="M332.744,368.9h2.817a3.851,3.851,0,1,1,0,7.7h-2.817Zm1.321,1.145v5.412h1.529a2.718,2.718,0,0,0,0-5.412Z"/>
      <path class="cls-11" d="M345.758,373.666h.99V374.7h-.99v1.9h-1.2v-1.9h-4.137v-.98l3.972-4.818h1.364Zm-1.2,0v-3.477l-2.85,3.477Z"/>
    </g>
    <g>
      <path class="cls-12" d="M313.069,339.58v10.193c0,5.629,8.26,10.192,18.449,10.192s18.449-4.563,18.449-10.192V339.58"/>
      <ellipse class="cls-12" cx="331.518" cy="339.58" rx="18.449" ry="10.192"/>
    </g>
  </g>
  <g>
    <g>
      <path class="cls-11" d="M392.345,376.724a3.972,3.972,0,1,1,3.894-3.971A3.9,3.9,0,0,1,392.345,376.724Zm.011-6.765a2.8,2.8,0,0,0,0,5.577,2.8,2.8,0,0,0,0-5.577Z"/>
      <path class="cls-11" d="M397.777,374.5a3.857,3.857,0,0,0,2.586,1.122c1.024,0,1.728-.517,1.728-1.221,0-.627-.375-.913-1.4-1.1l-1.418-.242c-1.333-.241-1.981-.9-1.981-1.958,0-1.385,1.111-2.31,2.838-2.31a5.139,5.139,0,0,1,3.092,1l-.671.989a4,4,0,0,0-2.465-.891c-.924,0-1.529.462-1.529,1.089,0,.551.341.836,1.188.969l1.364.241c1.551.265,2.278.946,2.278,2.112,0,1.409-1.254,2.411-3.092,2.411a4.846,4.846,0,0,1-3.234-1.244Z"/>
      <path class="cls-11" d="M404.73,368.9h2.816a3.851,3.851,0,1,1,0,7.7H404.73Zm1.32,1.145v5.412h1.529a2.718,2.718,0,0,0,0-5.412Z"/>
      <path class="cls-11" d="M412.87,368.9h4.687v1.034h-3.664l-.1,2.234a3.423,3.423,0,0,1,1.606-.385,2.325,2.325,0,0,1,2.564,2.332,2.634,2.634,0,0,1-2.916,2.607,3.883,3.883,0,0,1-2.706-1.045l.725-.825a2.866,2.866,0,0,0,2.025.825,1.485,1.485,0,1,0-.033-2.949,3.267,3.267,0,0,0-1.53.407l-.836-.253Z"/>
    </g>
    <g>
      <path class="cls-12" d="M384.724,339.58v10.193c0,5.629,8.26,10.192,18.449,10.192s18.449-4.563,18.449-10.192V339.58"/>
      <ellipse class="cls-12" cx="403.173" cy="339.58" rx="18.449" ry="10.192"/>
    </g>
  </g>
  <g>
    <g>
      <path class="cls-11" d="M463.791,376.724a3.972,3.972,0,1,1,3.895-3.971A3.9,3.9,0,0,1,463.791,376.724Zm.011-6.765a2.8,2.8,0,0,0,0,5.577,2.8,2.8,0,0,0,0-5.577Z"/>
      <path class="cls-11" d="M469.225,374.5a3.853,3.853,0,0,0,2.585,1.122c1.023,0,1.727-.517,1.727-1.221,0-.627-.374-.913-1.4-1.1l-1.419-.242c-1.331-.241-1.981-.9-1.981-1.958,0-1.385,1.112-2.31,2.839-2.31a5.136,5.136,0,0,1,3.091,1l-.671.989a3.992,3.992,0,0,0-2.464-.891c-.925,0-1.529.462-1.529,1.089,0,.551.341.836,1.187.969l1.365.241c1.551.265,2.277.946,2.277,2.112,0,1.409-1.254,2.411-3.091,2.411a4.844,4.844,0,0,1-3.234-1.244Z"/>
      <path class="cls-11" d="M476.177,368.9h2.816a3.851,3.851,0,1,1,0,7.7h-2.816Zm1.319,1.145v5.412h1.529a2.718,2.718,0,0,0,0-5.412Z"/>
      <path class="cls-11" d="M483.965,372.951c0-2.5,1.43-4.159,3.586-4.159a3.482,3.482,0,0,1,2.047.66l-.66.891a2.445,2.445,0,0,0-1.486-.473c-1.43,0-2.266,1.123-2.289,3.058a2.674,2.674,0,0,1,2.124-1.122,2.384,2.384,0,0,1,2.574,2.366,2.541,2.541,0,0,1-2.706,2.53C485.263,376.7,483.965,375.173,483.965,372.951Zm1.254.737c.186,1.2.913,1.98,1.892,1.98a1.483,1.483,0,0,0,1.573-1.463,1.452,1.452,0,0,0-1.584-1.442A2.408,2.408,0,0,0,485.219,373.688Z"/>
    </g>
    <g>
      <path class="cls-12" d="M456.407,339.58v10.193c0,5.629,8.26,10.192,18.449,10.192s18.449-4.563,18.449-10.192V339.58"/>
      <ellipse class="cls-12" cx="474.856" cy="339.58" rx="18.449" ry="10.192"/>
    </g>
  </g>
</svg>
