<?xml version="1.0" encoding="UTF-8" standalone="no"?>
<svg
   xmlns:dc="http://purl.org/dc/elements/1.1/"
   xmlns:cc="http://creativecommons.org/ns#"
   xmlns:rdf="http://www.w3.org/1999/02/22-rdf-syntax-ns#"
   xmlns:svg="http://www.w3.org/2000/svg"
   xmlns="http://www.w3.org/2000/svg"
   xmlns:sodipodi="http://sodipodi.sourceforge.net/DTD/sodipodi-0.dtd"
   xmlns:inkscape="http://www.inkscape.org/namespaces/inkscape"
   inkscape:version="1.0 (4035a4f, 2020-05-01)"
   sodipodi:docname="cephadm.svg"
   version="1.1"
   viewBox="0 0 595.276 320.073"
   height="112.915mm"
   width="210mm"
   data-name="Layer 1"
   id="Layer_1">
  <metadata
     id="metadata269">
    <rdf:RDF>
      <cc:Work
         rdf:about="">
        <dc:format>image/svg+xml</dc:format>
        <dc:type
           rdf:resource="http://purl.org/dc/dcmitype/StillImage" />
        <dc:title></dc:title>
        <dc:subject>
          <rdf:Bag>
            <rdf:li>cephadm</rdf:li>
            <rdf:li>ceph orch</rdf:li>
          </rdf:Bag>
        </dc:subject>
      </cc:Work>
    </rdf:RDF>
  </metadata>
  <sodipodi:namedview
     inkscape:current-layer="Layer_1"
     inkscape:window-maximized="0"
     inkscape:window-y="25"
     inkscape:window-x="0"
     inkscape:cy="213.38268"
     inkscape:cx="396.85039"
     inkscape:zoom="0.63122024"
     showgrid="false"
     id="namedview267"
     inkscape:window-height="480"
     inkscape:window-width="987"
     inkscape:pageshadow="2"
     inkscape:pageopacity="0"
     guidetolerance="10"
     gridtolerance="10"
     objecttolerance="10"
     borderopacity="1"
     bordercolor="#666666"
     pagecolor="#ffffff" />
  <defs
     id="defs12">
    <style
       id="style10">
      .cls-1 {
        fill: #dce8f6;
        stroke: #a0c2e7;
      }

      .cls-1, .cls-5 {
        stroke-miterlimit: 10;
      }

      .cls-2 {
        fill: #2764ae;
      }

      .cls-3 {
        fill: #1d1d1b;
      }

      .cls-4 {
        fill: #fff;
      }

      .cls-5 {
        fill: none;
        stroke: #1d1d1b;
      }
    </style>
  </defs>
  <rect
     id="rect14"
     height="50.981"
     width="148.109"
     y="229.972"
     x="21.798"
     class="cls-1" />
  <rect
     id="rect16"
     height="50.981"
     width="148.109"
     y="229.972"
     x="223.584"
     class="cls-1" />
  <rect
     id="rect18"
     height="50.981"
     width="148.109"
     y="229.972"
     x="425.369"
     class="cls-1" />
  <rect
     id="rect20"
     height="50.981"
     width="148.109"
     y="132.558"
     x="223.584"
     class="cls-2" />
  <rect
     id="rect22"
     height="50.981"
     width="148.109"
     y="132.558"
     x="425.369"
     class="cls-1" />
  <rect
     id="rect24"
     height="50.981"
     width="148.109"
     y="35.144"
     x="223.584"
     class="cls-1" />
  <g
     id="g60">
    <path
       id="path26"
       d="M253.026,62.22l.816.816a3.127,3.127,0,0,1-2.351,1.043,3.107,3.107,0,0,1,0-6.213,3.241,3.241,0,0,1,2.4,1.007l-.84.876a1.988,1.988,0,0,0-1.511-.708,1.928,1.928,0,0,0,.036,3.838A1.843,1.843,0,0,0,253.026,62.22Z"
       class="cls-3" />
    <path
       id="path28"
       d="M257.575,57.854a3.114,3.114,0,1,1-3.022,3.106A3,3,0,0,1,257.575,57.854Zm1.679,3.119a1.7,1.7,0,1,0-3.358,0,1.7,1.7,0,1,0,3.358,0Z"
       class="cls-3" />
    <path
       id="path30"
       d="M262,57.95h1.356v.984a2.179,2.179,0,0,1,1.907-1.08A2.023,2.023,0,0,1,267.342,60v3.958h-1.356V60.385a1.293,1.293,0,0,0-1.319-1.439,1.541,1.541,0,0,0-1.307.719v4.294H262Z"
       class="cls-3" />
    <path
       id="path32"
       d="M269.552,59.03H268.34V57.95h1.212V56.3l1.355-.288V57.95h1.679v1.08h-1.679v3.046c0,.587.228.816.84.816a2.49,2.49,0,0,0,.815-.145v1.14a4.258,4.258,0,0,1-1.163.168c-1.211,0-1.847-.576-1.847-1.679Z"
       class="cls-3" />
    <path
       id="path34"
       d="M273.476,62.232c0-1.08.876-1.763,2.291-1.763a3.711,3.711,0,0,1,1.619.372v-.66c0-.791-.456-1.2-1.379-1.2a4.137,4.137,0,0,0-1.751.468l-.48-.984a5.768,5.768,0,0,1,2.5-.612c1.559,0,2.458.792,2.458,2.183v3.922h-1.343v-.612a2.508,2.508,0,0,1-1.787.708A1.9,1.9,0,0,1,273.476,62.232Zm2.5.875a2.139,2.139,0,0,0,1.415-.491v-.984A3.11,3.11,0,0,0,276,61.344c-.768,0-1.247.336-1.247.864C274.748,62.76,275.227,63.107,275.971,63.107Z"
       class="cls-3" />
    <path
       id="path36"
       d="M280.208,55.9a.846.846,0,0,1,1.691,0,.846.846,0,0,1-1.691,0Zm1.523,8.06h-1.355V57.95h1.355Z"
       class="cls-3" />
    <path
       id="path38"
       d="M283.4,57.95h1.355v.984a2.181,2.181,0,0,1,1.907-1.08A2.022,2.022,0,0,1,288.737,60v3.958h-1.355V60.385a1.294,1.294,0,0,0-1.32-1.439,1.542,1.542,0,0,0-1.307.719v4.294H283.4Z"
       class="cls-3" />
    <path
       id="path40"
       d="M293.167,64.079a3.055,3.055,0,0,1-3.059-3.119,2.96,2.96,0,0,1,2.927-3.106,2.884,2.884,0,0,1,2.842,3.095v.336h-4.438a1.836,1.836,0,0,0,1.8,1.643,1.953,1.953,0,0,0,1.428-.564l.887.827A3.474,3.474,0,0,1,293.167,64.079Zm-1.7-3.622h3.131a1.646,1.646,0,0,0-1.572-1.5A1.615,1.615,0,0,0,291.463,60.457Z"
       class="cls-3" />
    <path
       id="path42"
       d="M297.26,57.95h1.355v1.307a1.783,1.783,0,0,1,1.656-1.415,1.6,1.6,0,0,1,.586.12v1.187a1.921,1.921,0,0,0-.743-.143,1.649,1.649,0,0,0-1.5.995v3.958H297.26Z"
       class="cls-3" />
    <path
       id="path44"
       d="M304.675,57.95h1.355v1.307a1.783,1.783,0,0,1,1.656-1.415,1.606,1.606,0,0,1,.587.12v1.187a1.926,1.926,0,0,0-.744-.143,1.649,1.649,0,0,0-1.5.995v3.958h-1.355Z"
       class="cls-3" />
    <path
       id="path46"
       d="M311.886,64.079a3.056,3.056,0,0,1-3.059-3.119,2.96,2.96,0,0,1,2.927-3.106,2.885,2.885,0,0,1,2.843,3.095v.336h-4.438a1.835,1.835,0,0,0,1.8,1.643,1.952,1.952,0,0,0,1.427-.564l.887.827A3.472,3.472,0,0,1,311.886,64.079Zm-1.7-3.622h3.13a1.645,1.645,0,0,0-1.571-1.5A1.614,1.614,0,0,0,310.183,60.457Z"
       class="cls-3" />
    <path
       id="path48"
       d="M315.739,60.949a2.9,2.9,0,0,1,2.807-3.047,2.262,2.262,0,0,1,1.763.816V57.95h1.343v6.213c0,1.547-1.007,2.4-2.831,2.4a5.213,5.213,0,0,1-2.41-.575l.48-1.008a4.086,4.086,0,0,0,1.871.516c1.008,0,1.535-.456,1.535-1.331v-1.02a2.333,2.333,0,0,1-1.835.852A2.879,2.879,0,0,1,315.739,60.949Zm3.13,1.919a1.8,1.8,0,0,0,1.428-.66V59.689a1.867,1.867,0,0,0-1.428-.648,1.793,1.793,0,0,0-1.787,1.908A1.817,1.817,0,0,0,318.869,62.868Z"
       class="cls-3" />
    <path
       id="path50"
       d="M323.155,55.9a.846.846,0,0,1,1.691,0,.846.846,0,0,1-1.691,0Zm1.523,8.06h-1.355V57.95h1.355Z"
       class="cls-3" />
    <path
       id="path52"
       d="M326.443,62.352a3.464,3.464,0,0,0,1.931.684c.72,0,1.212-.325,1.212-.8,0-.372-.252-.576-.828-.684l-1.068-.179c-1.163-.217-1.739-.756-1.739-1.656,0-1.127.924-1.859,2.327-1.859a4.228,4.228,0,0,1,2.363.72l-.636.887a3.287,3.287,0,0,0-1.811-.575c-.624,0-1.031.263-1.031.707,0,.384.216.552.852.66l1.055.192c1.2.228,1.775.78,1.775,1.679a2.2,2.2,0,0,1-2.447,1.955,4.026,4.026,0,0,1-2.59-.816Z"
       class="cls-3" />
    <path
       id="path54"
       d="M332.719,59.03h-1.211V57.95h1.211V56.3l1.355-.288V57.95h1.679v1.08h-1.679v3.046c0,.587.228.816.84.816a2.494,2.494,0,0,0,.815-.145v1.14a4.254,4.254,0,0,1-1.164.168c-1.211,0-1.846-.576-1.846-1.679Z"
       class="cls-3" />
    <path
       id="path56"
       d="M336.943,57.95H338.3v1.307a1.783,1.783,0,0,1,1.655-1.415,1.6,1.6,0,0,1,.588.12v1.187a1.925,1.925,0,0,0-.743-.143,1.649,1.649,0,0,0-1.5.995v3.958h-1.355Z"
       class="cls-3" />
    <path
       id="path58"
       d="M343.314,64l-2.266-6.045h1.511l1.523,4.462,1.679-4.462h1.475l-2.854,6.992a2.031,2.031,0,0,1-2.135,1.583,2.874,2.874,0,0,1-.684-.084V65.278a4.934,4.934,0,0,0,.528.048.958.958,0,0,0,.971-.7Z"
       class="cls-3" />
  </g>
  <g
     id="g72">
    <path
       id="path62"
       d="M232.467,112.666H231.6l1.8-8.575.888-.18Z"
       class="cls-3" />
    <path
       id="path64"
       d="M237.674,106.705a2.52,2.52,0,0,1,2.53,2.735,3.238,3.238,0,0,1-3.082,3.346,2.539,2.539,0,0,1-2.518-2.735A3.22,3.22,0,0,1,237.674,106.705Zm1.667,2.735a1.756,1.756,0,0,0-1.7-1.967,2.4,2.4,0,0,0-2.183,2.566,1.764,1.764,0,0,0,1.715,1.967A2.379,2.379,0,0,0,239.341,109.44Z"
       class="cls-3" />
    <path
       id="path66"
       d="M241.444,110.1a3.215,3.215,0,0,1,3.022-3.347,2.169,2.169,0,0,1,1.859.936l.18-.876h.851l-1.343,6.441a2.3,2.3,0,0,1-2.4,2,4.315,4.315,0,0,1-2.506-.875l.455-.635a3.358,3.358,0,0,0,2,.743,1.537,1.537,0,0,0,1.62-1.307l.228-1.092a2.357,2.357,0,0,1-1.632.648A2.429,2.429,0,0,1,241.444,110.1Zm2.638,1.9a2.177,2.177,0,0,0,1.476-.588l.623-3.023a1.9,1.9,0,0,0-1.607-.863,2.381,2.381,0,0,0-2.279,2.506A1.8,1.8,0,0,0,244.082,112Z"
       class="cls-3" />
    <path
       id="path68"
       d="M251.522,112.666h-.863l1.283-5.853h.852Zm.6-7.856a.719.719,0,0,1,.684-.7.552.552,0,0,1,.551.563.7.7,0,0,1-.683.7A.539.539,0,0,1,252.122,104.81Z"
       class="cls-3" />
    <path
       id="path70"
       d="M254.583,106.813h.851l-.18.851a2.337,2.337,0,0,1,1.835-.935,1.738,1.738,0,0,1,1.739,2.339l-.767,3.6H257.2l.743-3.418c.241-1.08-.251-1.8-1.223-1.8a2.077,2.077,0,0,0-1.595.816l-.959,4.4H253.3Z"
       class="cls-3" />
  </g>
  <g
     id="g110">
    <path
       id="path74"
       d="M339.669,111.431l.407.564a3.294,3.294,0,0,1-2.122.779,2.494,2.494,0,0,1-2.518-2.627,3.331,3.331,0,0,1,3.177-3.406,2.679,2.679,0,0,1,2.2,1.115l-.649.54a1.829,1.829,0,0,0-1.583-.863,2.477,2.477,0,0,0-2.29,2.567,1.829,1.829,0,0,0,1.8,1.906A2.572,2.572,0,0,0,339.669,111.431Z"
       class="cls-3" />
    <path
       id="path76"
       d="M343.906,112.774a2.56,2.56,0,0,1-2.663-2.7,3.2,3.2,0,0,1,3.011-3.359,2.385,2.385,0,0,1,2.35,2.579,5.574,5.574,0,0,1-.036.636h-4.485v.119a1.872,1.872,0,0,0,1.858,1.967,2.545,2.545,0,0,0,1.548-.516l.455.624A3.5,3.5,0,0,1,343.906,112.774Zm-1.739-3.466h3.622a1.671,1.671,0,0,0-1.6-1.823A2.189,2.189,0,0,0,342.167,109.308Z"
       class="cls-3" />
    <path
       id="path78"
       d="M348.707,106.813h.839l-.132.624a2.362,2.362,0,0,1,1.655-.672,2.44,2.44,0,0,1,2.339,2.651,3.215,3.215,0,0,1-3.034,3.346,2.118,2.118,0,0,1-1.871-.984l-.732,3.395h-.863Zm.575,1.3-.636,2.963a1.858,1.858,0,0,0,1.62.924,2.383,2.383,0,0,0,2.291-2.507,1.8,1.8,0,0,0-1.8-1.979A2.189,2.189,0,0,0,349.282,108.108Z"
       class="cls-3" />
    <path
       id="path80"
       d="M356.062,104.091l.9-.18-.791,3.826a2.385,2.385,0,0,1,1.894-1.008,1.739,1.739,0,0,1,1.74,2.339l-.768,3.6h-.863l.743-3.418c.24-1.08-.252-1.8-1.223-1.8a2.075,2.075,0,0,0-1.655.887l-.9,4.33h-.864Z"
       class="cls-3" />
    <path
       id="path82"
       d="M368.169,111.431l.407.564a3.3,3.3,0,0,1-2.123.779,2.494,2.494,0,0,1-2.518-2.627,3.331,3.331,0,0,1,3.178-3.406,2.677,2.677,0,0,1,2.195,1.115l-.648.54a1.83,1.83,0,0,0-1.583-.863,2.478,2.478,0,0,0-2.291,2.567,1.83,1.83,0,0,0,1.8,1.906A2.572,2.572,0,0,0,368.169,111.431Z"
       class="cls-3" />
    <path
       id="path84"
       d="M372.813,106.705a2.521,2.521,0,0,1,2.532,2.735,3.239,3.239,0,0,1-3.083,3.346,2.539,2.539,0,0,1-2.519-2.735A3.222,3.222,0,0,1,372.813,106.705Zm1.667,2.735a1.755,1.755,0,0,0-1.7-1.967,2.4,2.4,0,0,0-2.183,2.566,1.765,1.765,0,0,0,1.716,1.967A2.378,2.378,0,0,0,374.48,109.44Z"
       class="cls-3" />
    <path
       id="path86"
       d="M377.507,106.813h.851l-.179.851a2.333,2.333,0,0,1,1.835-.935,1.738,1.738,0,0,1,1.739,2.339l-.768,3.6h-.864l.744-3.418c.239-1.08-.252-1.8-1.223-1.8a2.074,2.074,0,0,0-1.595.816l-.96,4.4h-.863Z"
       class="cls-3" />
    <path
       id="path88"
       d="M384.323,107.533h-1.176l.168-.72h1.164l.335-1.607.924-.2-.4,1.811H387l-.168.72h-1.642l-.768,3.538c-.145.672.071.935.8.935a2.19,2.19,0,0,0,.671-.12l-.168.78a3.384,3.384,0,0,1-.852.108c-1.067,0-1.559-.54-1.343-1.511Z"
       class="cls-3" />
    <path
       id="path90"
       d="M387.1,111.107a1.986,1.986,0,0,1,2.243-1.883,3.313,3.313,0,0,1,1.931.564l.156-.708c.239-1.08-.216-1.631-1.332-1.631a4.017,4.017,0,0,0-1.679.443l-.24-.683a5.312,5.312,0,0,1,2.075-.48c1.571,0,2.351.864,2.039,2.279l-.815,3.658h-.852l.12-.552a2.688,2.688,0,0,1-1.7.636C387.874,112.75,387.1,112.1,387.1,111.107Zm2.195.983a2.48,2.48,0,0,0,1.595-.6l.252-1.116a2.675,2.675,0,0,0-1.715-.5c-.876,0-1.5.48-1.5,1.14C387.923,111.694,388.426,112.09,389.29,112.09Z"
       class="cls-3" />
    <path
       id="path92"
       d="M394.055,112.666h-.864l1.284-5.853h.851Zm.6-7.856a.72.72,0,0,1,.684-.7.553.553,0,0,1,.552.563.7.7,0,0,1-.684.7A.54.54,0,0,1,394.654,104.81Z"
       class="cls-3" />
    <path
       id="path94"
       d="M397.114,106.813h.852l-.18.851a2.336,2.336,0,0,1,1.835-.935,1.738,1.738,0,0,1,1.739,2.339l-.767,3.6h-.864l.744-3.418c.239-1.08-.252-1.8-1.224-1.8a2.076,2.076,0,0,0-1.6.816l-.96,4.4h-.863Z"
       class="cls-3" />
    <path
       id="path96"
       d="M405.357,112.774a2.56,2.56,0,0,1-2.663-2.7,3.2,3.2,0,0,1,3.011-3.359,2.386,2.386,0,0,1,2.351,2.579,5.812,5.812,0,0,1-.036.636h-4.486v.119a1.872,1.872,0,0,0,1.86,1.967,2.544,2.544,0,0,0,1.546-.516l.456.624A3.5,3.5,0,0,1,405.357,112.774Zm-1.739-3.466h3.622a1.67,1.67,0,0,0-1.594-1.823A2.189,2.189,0,0,0,403.618,109.308Z"
       class="cls-3" />
    <path
       id="path98"
       d="M410.134,106.813H411l-.24,1.068a2.081,2.081,0,0,1,1.763-1.176,1.811,1.811,0,0,1,.612.108l-.18.792a1.5,1.5,0,0,0-.66-.132,2.019,2.019,0,0,0-1.679,1.091l-.9,4.1h-.864Z"
       class="cls-3" />
    <path
       id="path100"
       d="M416.662,112.666H415.8l1.283-5.853h.852Zm.6-7.856a.719.719,0,0,1,.683-.7.552.552,0,0,1,.552.563.7.7,0,0,1-.684.7A.539.539,0,0,1,417.262,104.81Z"
       class="cls-3" />
    <path
       id="path102"
       d="M419.722,106.813h.851l-.192.9a2.29,2.29,0,0,1,1.787-.984,1.558,1.558,0,0,1,1.6,1.187,2.676,2.676,0,0,1,2.087-1.187c1.187,0,1.846.972,1.558,2.267l-.791,3.67h-.851l.767-3.574c.216-.96-.24-1.643-1.08-1.643a2.085,2.085,0,0,0-1.631.971,2.472,2.472,0,0,1-.059.576l-.792,3.67h-.864l.756-3.49c.228-1.019-.216-1.727-1.067-1.727a1.963,1.963,0,0,0-1.548.863l-.947,4.354h-.864Z"
       class="cls-3" />
    <path
       id="path104"
       d="M428.47,111.107a1.986,1.986,0,0,1,2.243-1.883,3.313,3.313,0,0,1,1.931.564l.156-.708c.239-1.08-.216-1.631-1.332-1.631a4.017,4.017,0,0,0-1.679.443l-.24-.683a5.312,5.312,0,0,1,2.075-.48c1.571,0,2.351.864,2.039,2.279l-.815,3.658H432l.12-.552a2.688,2.688,0,0,1-1.7.636C429.249,112.75,428.47,112.1,428.47,111.107Zm2.195.983a2.48,2.48,0,0,0,1.595-.6l.252-1.116a2.675,2.675,0,0,0-1.715-.5c-.876,0-1.5.48-1.5,1.14C429.3,111.694,429.8,112.09,430.665,112.09Z"
       class="cls-3" />
    <path
       id="path106"
       d="M434.926,110.1a3.215,3.215,0,0,1,3.022-3.347,2.172,2.172,0,0,1,1.86.936l.179-.876h.852l-1.344,6.441a2.3,2.3,0,0,1-2.4,2,4.318,4.318,0,0,1-2.507-.875l.456-.635a3.356,3.356,0,0,0,2,.743,1.537,1.537,0,0,0,1.619-1.307l.228-1.092a2.354,2.354,0,0,1-1.631.648A2.429,2.429,0,0,1,434.926,110.1Zm2.638,1.9a2.177,2.177,0,0,0,1.476-.588l.623-3.023a1.892,1.892,0,0,0-1.606-.863,2.381,2.381,0,0,0-2.28,2.506A1.8,1.8,0,0,0,437.564,112Z"
       class="cls-3" />
    <path
       id="path108"
       d="M444.368,112.774a2.56,2.56,0,0,1-2.663-2.7,3.2,3.2,0,0,1,3.011-3.359,2.385,2.385,0,0,1,2.35,2.579,5.574,5.574,0,0,1-.036.636h-4.485v.119a1.872,1.872,0,0,0,1.859,1.967,2.545,2.545,0,0,0,1.547-.516l.456.624A3.5,3.5,0,0,1,444.368,112.774Zm-1.739-3.466h3.622a1.671,1.671,0,0,0-1.595-1.823A2.189,2.189,0,0,0,442.629,109.308Z"
       class="cls-3" />
  </g>
  <g
     id="g126">
    <path
       id="path112"
       d="M275.61,159.2l1.151,1.14a3.257,3.257,0,0,1-2.518,1.151,3.2,3.2,0,1,1,0-6.405,3.349,3.349,0,0,1,2.578,1.14l-1.187,1.187a1.619,1.619,0,0,0-1.32-.671,1.546,1.546,0,0,0,.048,3.07A1.5,1.5,0,0,0,275.61,159.2Z"
       class="cls-4" />
    <path
       id="path114"
       d="M280.591,161.493a3.2,3.2,0,0,1-3.263-3.2,3.105,3.105,0,0,1,3.119-3.213,3.041,3.041,0,0,1,3.046,3.286v.42h-4.258a1.486,1.486,0,0,0,1.452,1.163,1.531,1.531,0,0,0,1.223-.516l1.283,1.067A3.6,3.6,0,0,1,280.591,161.493Zm-1.356-3.814h2.459a1.288,1.288,0,0,0-1.259-1.091A1.229,1.229,0,0,0,279.235,157.679Z"
       class="cls-4" />
    <path
       id="path116"
       d="M284.708,155.184h1.918v.864a2.287,2.287,0,0,1,1.836-.9,2.949,2.949,0,0,1,2.734,3.142,2.984,2.984,0,0,1-2.878,3.119,2.156,2.156,0,0,1-1.667-.72v3.263h-1.943Zm1.943,2.075v2.063a1.592,1.592,0,0,0,1.163.492,1.531,1.531,0,0,0,0-3.059A1.5,1.5,0,0,0,286.651,157.259Z"
       class="cls-4" />
    <path
       id="path118"
       d="M292.436,152.8l1.943-.3v3.694a2.282,2.282,0,0,1,1.954-1.1,2,2,0,0,1,2.051,2.111v4.174h-1.943v-3.61a1.029,1.029,0,0,0-1.031-1.151,1.25,1.25,0,0,0-1.031.515v4.246h-1.943Z"
       class="cls-4" />
    <path
       id="path120"
       d="M299.563,159.6c0-1.14.888-1.8,2.412-1.8a4.03,4.03,0,0,1,1.439.288v-.5c0-.6-.4-.9-1.224-.9a4.608,4.608,0,0,0-1.739.431l-.672-1.355a6.853,6.853,0,0,1,2.843-.672c1.715,0,2.711.852,2.711,2.327v3.958h-1.919v-.54a2.466,2.466,0,0,1-1.716.636A1.926,1.926,0,0,1,299.563,159.6Zm2.735.587a2.113,2.113,0,0,0,1.116-.311v-.792a4.646,4.646,0,0,0-1.068-.132c-.635,0-1,.216-1,.612S301.7,160.185,302.3,160.185Z"
       class="cls-4" />
    <path
       id="path122"
       d="M311.081,160.569a2.336,2.336,0,0,1-1.823.84,2.948,2.948,0,0,1-2.735-3.142,2.985,2.985,0,0,1,2.879-3.119,2.165,2.165,0,0,1,1.655.744V152.8l1.943-.3v8.875h-1.919ZM309.9,159.8a1.505,1.505,0,0,0,1.152-.492v-2.087a1.578,1.578,0,0,0-1.152-.479,1.53,1.53,0,0,0,0,3.058Z"
       class="cls-4" />
    <path
       id="path124"
       d="M314.516,155.184h1.943v.984a2.122,2.122,0,0,1,1.835-1.08,1.834,1.834,0,0,1,1.739,1.152,2.337,2.337,0,0,1,2.027-1.152A1.983,1.983,0,0,1,324,157.259v4.114H322.06v-3.73a.926.926,0,0,0-.924-1.031,1.061,1.061,0,0,0-.9.479v4.282h-1.942v-3.73a.926.926,0,0,0-.924-1.031,1.108,1.108,0,0,0-.911.479v4.282h-1.943Z"
       class="cls-4" />
  </g>
  <g
     id="g134">
    <path
       id="path128"
       d="M104.2,217.562a2.5,2.5,0,0,0,1.895.876,1.256,1.256,0,0,0,1.391-1.079c0-.408-.24-.636-.887-.828l-.924-.24c-.924-.264-1.355-.744-1.355-1.5a1.827,1.827,0,0,1,2.063-1.726,3.461,3.461,0,0,1,2.29.888l-.527.587a2.966,2.966,0,0,0-1.811-.755c-.744,0-1.235.372-1.235.922,0,.433.227.672.839.84l.935.264c1.008.288,1.428.708,1.428,1.439a2.028,2.028,0,0,1-2.219,1.9,3.216,3.216,0,0,1-2.411-1.032Z"
       class="cls-3" />
    <path
       id="path130"
       d="M109.614,217.562a2.5,2.5,0,0,0,1.895.876,1.255,1.255,0,0,0,1.391-1.079c0-.408-.24-.636-.887-.828l-.924-.24c-.923-.264-1.355-.744-1.355-1.5a1.827,1.827,0,0,1,2.063-1.726,3.461,3.461,0,0,1,2.29.888l-.527.587a2.966,2.966,0,0,0-1.811-.755c-.744,0-1.235.372-1.235.922,0,.433.227.672.839.84l.936.264c1.007.288,1.427.708,1.427,1.439a2.028,2.028,0,0,1-2.219,1.9,3.216,3.216,0,0,1-2.411-1.032Z"
       class="cls-3" />
    <path
       id="path132"
       d="M116.405,210.451l.9-.181-.791,3.826a2.384,2.384,0,0,1,1.895-1.007,1.737,1.737,0,0,1,1.738,2.338l-.767,3.6h-.863l.743-3.418c.24-1.08-.252-1.8-1.223-1.8a2.075,2.075,0,0,0-1.656.888l-.9,4.33h-.863Z"
       class="cls-3" />
  </g>
  <g
     id="g142">
    <path
       id="path136"
       d="M304,217.562a2.5,2.5,0,0,0,1.895.876,1.255,1.255,0,0,0,1.391-1.079c0-.408-.24-.636-.888-.828l-.922-.24c-.924-.264-1.356-.744-1.356-1.5a1.827,1.827,0,0,1,2.063-1.726,3.465,3.465,0,0,1,2.291.888l-.528.587a2.966,2.966,0,0,0-1.811-.755c-.743,0-1.236.372-1.236.922,0,.433.228.672.84.84l.936.264c1.007.288,1.427.708,1.427,1.439a2.028,2.028,0,0,1-2.219,1.9,3.214,3.214,0,0,1-2.41-1.032Z"
       class="cls-3" />
    <path
       id="path138"
       d="M309.411,217.562a2.5,2.5,0,0,0,1.895.876,1.255,1.255,0,0,0,1.391-1.079c0-.408-.24-.636-.887-.828l-.923-.24c-.924-.264-1.356-.744-1.356-1.5a1.827,1.827,0,0,1,2.063-1.726,3.463,3.463,0,0,1,2.291.888l-.528.587a2.966,2.966,0,0,0-1.811-.755c-.743,0-1.235.372-1.235.922,0,.433.227.672.839.84l.936.264c1.007.288,1.427.708,1.427,1.439a2.028,2.028,0,0,1-2.219,1.9,3.214,3.214,0,0,1-2.41-1.032Z"
       class="cls-3" />
    <path
       id="path140"
       d="M316.2,210.451l.9-.181-.792,3.826a2.385,2.385,0,0,1,1.895-1.007,1.737,1.737,0,0,1,1.738,2.338l-.767,3.6h-.864l.745-3.418c.239-1.08-.252-1.8-1.224-1.8a2.073,2.073,0,0,0-1.655.888l-.9,4.33h-.863Z"
       class="cls-3" />
  </g>
  <g
     id="g150">
    <path
       id="path144"
       d="M475.964,217.562a2.5,2.5,0,0,0,1.894.876,1.256,1.256,0,0,0,1.392-1.079c0-.408-.24-.636-.888-.828l-.923-.24c-.923-.264-1.355-.744-1.355-1.5a1.827,1.827,0,0,1,2.062-1.726,3.466,3.466,0,0,1,2.292.888l-.528.587a2.966,2.966,0,0,0-1.811-.755c-.744,0-1.236.372-1.236.922,0,.433.228.672.84.84l.936.264c1.007.288,1.426.708,1.426,1.439a2.027,2.027,0,0,1-2.218,1.9,3.212,3.212,0,0,1-2.41-1.032Z"
       class="cls-3" />
    <path
       id="path146"
       d="M481.376,217.562a2.5,2.5,0,0,0,1.9.876,1.255,1.255,0,0,0,1.391-1.079c0-.408-.24-.636-.888-.828l-.922-.24c-.924-.264-1.356-.744-1.356-1.5a1.827,1.827,0,0,1,2.063-1.726,3.465,3.465,0,0,1,2.291.888l-.528.587a2.966,2.966,0,0,0-1.811-.755c-.743,0-1.236.372-1.236.922,0,.433.228.672.84.84l.936.264c1.007.288,1.427.708,1.427,1.439a2.028,2.028,0,0,1-2.219,1.9,3.214,3.214,0,0,1-2.41-1.032Z"
       class="cls-3" />
    <path
       id="path148"
       d="M488.167,210.451l.9-.181-.792,3.826a2.387,2.387,0,0,1,1.9-1.007,1.737,1.737,0,0,1,1.738,2.338l-.767,3.6h-.864l.744-3.418c.24-1.08-.251-1.8-1.223-1.8a2.072,2.072,0,0,0-1.655.888l-.9,4.33h-.863Z"
       class="cls-3" />
  </g>
  <g
     id="g174">
    <path
       id="path152"
       d="M461.258,155.364h1.355v.96a2.052,2.052,0,0,1,1.787-1.056,1.887,1.887,0,0,1,1.763,1.164,2.217,2.217,0,0,1,1.991-1.164,1.991,1.991,0,0,1,1.967,2.183v3.922h-1.354v-3.634a1.216,1.216,0,0,0-1.212-1.379,1.431,1.431,0,0,0-1.211.707c.011.132.023.252.023.384v3.922h-1.355v-3.634a1.215,1.215,0,0,0-1.211-1.379,1.4,1.4,0,0,0-1.188.683v4.33h-1.355Z"
       class="cls-3" />
    <path
       id="path154"
       d="M471.494,158.363a2.9,2.9,0,0,1,2.807-3.047,2.258,2.258,0,0,1,1.762.816v-.768h1.344v6.213c0,1.547-1.008,2.4-2.831,2.4a5.214,5.214,0,0,1-2.41-.576l.48-1.008a4.086,4.086,0,0,0,1.871.516c1.006,0,1.535-.455,1.535-1.331v-1.019a2.335,2.335,0,0,1-1.835.851A2.879,2.879,0,0,1,471.494,158.363Zm3.13,1.919a1.8,1.8,0,0,0,1.428-.66V157.1a1.868,1.868,0,0,0-1.428-.648,1.793,1.793,0,0,0-1.787,1.908A1.817,1.817,0,0,0,474.624,160.282Z"
       class="cls-3" />
    <path
       id="path156"
       d="M479.078,155.364h1.356v1.307a1.781,1.781,0,0,1,1.655-1.415,1.6,1.6,0,0,1,.587.12v1.187a1.925,1.925,0,0,0-.743-.143,1.647,1.647,0,0,0-1.5,1v3.958h-1.356Z"
       class="cls-3" />
    <path
       id="path158"
       d="M486.036,152.977h1.319l-4.8,10.891h-1.32Z"
       class="cls-3" />
    <path
       id="path160"
       d="M491.844,159.634l.815.816a3.125,3.125,0,0,1-2.35,1.043,3.107,3.107,0,0,1,0-6.213,3.237,3.237,0,0,1,2.4,1.008l-.839.875a1.989,1.989,0,0,0-1.512-.708,1.928,1.928,0,0,0,.037,3.838A1.844,1.844,0,0,0,491.844,159.634Z"
       class="cls-3" />
    <path
       id="path162"
       d="M496.429,161.493a3.055,3.055,0,0,1-3.059-3.119,2.96,2.96,0,0,1,2.927-3.106,2.885,2.885,0,0,1,2.842,3.095v.336H494.7a1.836,1.836,0,0,0,1.8,1.643,1.953,1.953,0,0,0,1.428-.564l.887.827A3.472,3.472,0,0,1,496.429,161.493Zm-1.7-3.622h3.129a1.644,1.644,0,0,0-1.571-1.5A1.612,1.612,0,0,0,494.726,157.871Z"
       class="cls-3" />
    <path
       id="path164"
       d="M500.521,155.364h1.333v.864a2.261,2.261,0,0,1,1.871-.912,2.883,2.883,0,0,1,2.721,3.058,2.912,2.912,0,0,1-2.818,3.059,2.247,2.247,0,0,1-1.751-.78v3.262h-1.356Zm1.356,1.763v2.507a1.84,1.84,0,0,0,1.439.659,1.924,1.924,0,0,0,0-3.838A1.767,1.767,0,0,0,501.877,157.127Z"
       class="cls-3" />
    <path
       id="path166"
       d="M507.854,152.8l1.355-.228v3.778a2.18,2.18,0,0,1,1.907-1.08,2.022,2.022,0,0,1,2.075,2.147v3.958h-1.355V157.8a1.294,1.294,0,0,0-1.319-1.439,1.541,1.541,0,0,0-1.308.72v4.293h-1.355Z"
       class="cls-3" />
    <path
       id="path168"
       d="M514.538,159.646c0-1.08.875-1.763,2.291-1.763a3.711,3.711,0,0,1,1.619.372v-.66c0-.791-.456-1.2-1.38-1.2a4.144,4.144,0,0,0-1.751.468l-.479-.984a5.764,5.764,0,0,1,2.494-.612c1.56,0,2.459.792,2.459,2.183v3.922h-1.343v-.612a2.508,2.508,0,0,1-1.787.708A1.894,1.894,0,0,1,514.538,159.646Zm2.494.875a2.143,2.143,0,0,0,1.416-.491v-.984a3.11,3.11,0,0,0-1.391-.288c-.768,0-1.247.336-1.247.864C515.81,160.174,516.289,160.521,517.032,160.521Z"
       class="cls-3" />
    <path
       id="path170"
       d="M525.731,160.569a2.308,2.308,0,0,1-1.846.864,3.074,3.074,0,0,1,.084-6.117,2.293,2.293,0,0,1,1.751.792V152.8l1.355-.228v8.8h-1.344Zm-1.438-.276a1.8,1.8,0,0,0,1.427-.659V157.1a1.868,1.868,0,0,0-1.427-.648,1.924,1.924,0,0,0,0,3.838Z"
       class="cls-3" />
    <path
       id="path172"
       d="M528.758,155.364h1.354v.96a2.052,2.052,0,0,1,1.787-1.056,1.889,1.889,0,0,1,1.764,1.164,2.215,2.215,0,0,1,1.99-1.164,1.992,1.992,0,0,1,1.968,2.183v3.922h-1.355v-3.634a1.216,1.216,0,0,0-1.212-1.379,1.432,1.432,0,0,0-1.211.707c.011.132.024.252.024.384v3.922h-1.355v-3.634a1.216,1.216,0,0,0-1.212-1.379,1.4,1.4,0,0,0-1.188.683v4.33h-1.354Z"
       class="cls-3" />
  </g>
  <g
     id="g186">
    <path
       id="path176"
       d="M279.512,252.778h1.355v.983a2.18,2.18,0,0,1,1.907-1.079,2.022,2.022,0,0,1,2.075,2.147v3.958h-1.355v-3.575a1.294,1.294,0,0,0-1.32-1.439,1.541,1.541,0,0,0-1.307.72v4.294h-1.355Z"
       class="cls-3" />
    <path
       id="path178"
       d="M289.242,252.682a3.114,3.114,0,1,1-3.022,3.106A3,3,0,0,1,289.242,252.682Zm1.679,3.118a1.7,1.7,0,1,0-3.358,0,1.7,1.7,0,1,0,3.358,0Z"
       class="cls-3" />
    <path
       id="path180"
       d="M298,257.983a2.309,2.309,0,0,1-1.847.863,3.074,3.074,0,0,1,.084-6.116,2.291,2.291,0,0,1,1.751.791v-3.31l1.356-.228v8.8H298Zm-1.439-.277a1.8,1.8,0,0,0,1.427-.659v-2.53a1.861,1.861,0,0,0-1.427-.648,1.923,1.923,0,0,0,0,3.837Z"
       class="cls-3" />
    <path
       id="path182"
       d="M303.81,258.907a3.056,3.056,0,0,1-3.059-3.119,2.96,2.96,0,0,1,2.927-3.106,2.884,2.884,0,0,1,2.843,3.094v.336h-4.438a1.835,1.835,0,0,0,1.8,1.643,1.952,1.952,0,0,0,1.427-.564l.887.828A3.477,3.477,0,0,1,303.81,258.907Zm-1.7-3.622h3.131a1.645,1.645,0,0,0-1.571-1.5A1.615,1.615,0,0,0,302.106,255.285Z"
       class="cls-3" />
    <path
       id="path184"
       d="M310.375,257.839l3.442-3.6a2.249,2.249,0,0,0,.816-1.583,1.369,1.369,0,0,0-1.535-1.236,3.023,3.023,0,0,0-2.171,1.032l-.743-.9a4.248,4.248,0,0,1,2.95-1.271c1.642,0,2.77.935,2.77,2.291a3.208,3.208,0,0,1-1.2,2.339l-2.686,2.77,4.041-.024v1.128h-5.685Z"
       class="cls-3" />
  </g>
  <g
     id="g198">
    <path
       id="path188"
       d="M481.076,252.778h1.356v.983a2.178,2.178,0,0,1,1.906-1.079,2.022,2.022,0,0,1,2.075,2.147v3.958h-1.355v-3.575a1.294,1.294,0,0,0-1.32-1.439,1.538,1.538,0,0,0-1.306.72v4.294h-1.356Z"
       class="cls-3" />
    <path
       id="path190"
       d="M490.807,252.682a3.114,3.114,0,1,1-3.023,3.106A3,3,0,0,1,490.807,252.682Zm1.678,3.118a1.7,1.7,0,1,0-3.358,0,1.7,1.7,0,1,0,3.358,0Z"
       class="cls-3" />
    <path
       id="path192"
       d="M499.565,257.983a2.307,2.307,0,0,1-1.846.863,3.074,3.074,0,0,1,.084-6.116,2.294,2.294,0,0,1,1.751.791v-3.31l1.355-.228v8.8h-1.344Zm-1.439-.277a1.8,1.8,0,0,0,1.428-.659v-2.53a1.865,1.865,0,0,0-1.428-.648,1.923,1.923,0,0,0,0,3.837Z"
       class="cls-3" />
    <path
       id="path194"
       d="M505.374,258.907a3.056,3.056,0,0,1-3.059-3.119,2.96,2.96,0,0,1,2.927-3.106,2.884,2.884,0,0,1,2.843,3.094v.336h-4.438a1.835,1.835,0,0,0,1.8,1.643,1.951,1.951,0,0,0,1.427-.564l.888.828A3.479,3.479,0,0,1,505.374,258.907Zm-1.7-3.622H506.8a1.646,1.646,0,0,0-1.572-1.5A1.614,1.614,0,0,0,503.671,255.285Z"
       class="cls-3" />
    <path
       id="path196"
       d="M514.83,258.907a4.216,4.216,0,0,1-3.106-1.26l.887-.827a2.755,2.755,0,0,0,2.207.935c1.079,0,1.823-.564,1.823-1.391a1.326,1.326,0,0,0-1.488-1.26H514.11v-1.091h.936a1.216,1.216,0,0,0,1.331-1.26,1.449,1.449,0,0,0-1.595-1.331,2.6,2.6,0,0,0-2.087,1l-.887-.827a4.068,4.068,0,0,1,3.022-1.331c1.667,0,2.866,1,2.866,2.351a2.017,2.017,0,0,1-1.631,1.919,2.078,2.078,0,0,1,1.895,1.919C517.96,257.874,516.653,258.907,514.83,258.907Z"
       class="cls-3" />
  </g>
  <g
     id="g226">
    <path
       id="path200"
       d="M56.455,258.846a2.233,2.233,0,0,1-1.775-.84v.781H53.348v-8.576l1.356-.228v3.6a2.337,2.337,0,0,1,1.847-.851,2.882,2.882,0,0,1,2.722,3.058A2.912,2.912,0,0,1,56.455,258.846ZM54.7,254.54v2.507a1.839,1.839,0,0,0,1.439.659,1.923,1.923,0,0,0,0-3.837A1.764,1.764,0,0,0,54.7,254.54Z"
       class="cls-3" />
    <path
       id="path202"
       d="M63.462,252.682a3.114,3.114,0,1,1-3.022,3.106A3,3,0,0,1,63.462,252.682Zm1.68,3.118a1.7,1.7,0,1,0-3.359,0,1.7,1.7,0,1,0,3.359,0Z"
       class="cls-3" />
    <path
       id="path204"
       d="M70.674,252.682a3.114,3.114,0,1,1-3.022,3.106A3,3,0,0,1,70.674,252.682Zm1.68,3.118a1.7,1.7,0,1,0-3.359,0,1.7,1.7,0,1,0,3.359,0Z"
       class="cls-3" />
    <path
       id="path206"
       d="M75.56,253.857H74.348v-1.079H75.56v-1.656l1.355-.288v1.944h1.679v1.079H76.915V256.9c0,.587.228.815.839.815a2.491,2.491,0,0,0,.816-.144v1.139a4.22,4.22,0,0,1-1.163.168c-1.212,0-1.847-.576-1.847-1.678Z"
       class="cls-3" />
    <path
       id="path208"
       d="M80,257.179a3.46,3.46,0,0,0,1.931.684c.719,0,1.211-.325,1.211-.8,0-.371-.252-.575-.828-.684l-1.067-.179c-1.163-.216-1.739-.756-1.739-1.656,0-1.127.924-1.858,2.327-1.858a4.237,4.237,0,0,1,2.363.719l-.636.887a3.289,3.289,0,0,0-1.811-.575c-.624,0-1.031.264-1.031.707,0,.384.216.552.851.66l1.055.192c1.2.228,1.775.78,1.775,1.68a2.2,2.2,0,0,1-2.446,1.955,4.027,4.027,0,0,1-2.591-.817Z"
       class="cls-3" />
    <path
       id="path210"
       d="M86.275,253.857H85.064v-1.079h1.211v-1.656l1.356-.288v1.944H89.31v1.079H87.631V256.9c0,.587.227.815.839.815a2.491,2.491,0,0,0,.816-.144v1.139a4.226,4.226,0,0,1-1.163.168c-1.212,0-1.848-.576-1.848-1.678Z"
       class="cls-3" />
    <path
       id="path212"
       d="M90.5,252.778h1.355v1.306a1.783,1.783,0,0,1,1.655-1.415,1.628,1.628,0,0,1,.588.12v1.188a1.912,1.912,0,0,0-.744-.144,1.65,1.65,0,0,0-1.5,1v3.958H90.5Z"
       class="cls-3" />
    <path
       id="path214"
       d="M94.711,257.059c0-1.079.876-1.763,2.291-1.763a3.716,3.716,0,0,1,1.62.372v-.66c0-.791-.456-1.2-1.38-1.2a4.156,4.156,0,0,0-1.751.468l-.48-.984a5.769,5.769,0,0,1,2.5-.611c1.559,0,2.459.791,2.459,2.183v3.922H98.622v-.613a2.51,2.51,0,0,1-1.788.708A1.9,1.9,0,0,1,94.711,257.059Zm2.5.876a2.144,2.144,0,0,0,1.416-.492v-.984a3.114,3.114,0,0,0-1.392-.288c-.768,0-1.247.336-1.247.865C95.983,257.587,96.462,257.935,97.206,257.935Z"
       class="cls-3" />
    <path
       id="path216"
       d="M101.611,252.778h1.331v.863a2.266,2.266,0,0,1,1.871-.911,2.883,2.883,0,0,1,2.723,3.058,2.913,2.913,0,0,1-2.819,3.058,2.246,2.246,0,0,1-1.751-.779v3.262h-1.355Zm1.355,1.762v2.507a1.842,1.842,0,0,0,1.439.659,1.923,1.923,0,0,0,0-3.837A1.766,1.766,0,0,0,102.966,254.54Z"
       class="cls-3" />
    <path
       id="path218"
       d="M111.643,252.778H113v.983a2.178,2.178,0,0,1,1.906-1.079,2.022,2.022,0,0,1,2.075,2.147v3.958h-1.355v-3.575a1.294,1.294,0,0,0-1.319-1.439,1.538,1.538,0,0,0-1.307.72v4.294h-1.356Z"
       class="cls-3" />
    <path
       id="path220"
       d="M121.373,252.682a3.114,3.114,0,1,1-3.022,3.106A3,3,0,0,1,121.373,252.682Zm1.679,3.118a1.7,1.7,0,1,0-3.358,0,1.7,1.7,0,1,0,3.358,0Z"
       class="cls-3" />
    <path
       id="path222"
       d="M130.132,257.983a2.309,2.309,0,0,1-1.847.863,3.074,3.074,0,0,1,.084-6.116,2.291,2.291,0,0,1,1.751.791v-3.31l1.356-.228v8.8h-1.344Zm-1.439-.277a1.8,1.8,0,0,0,1.427-.659v-2.53a1.863,1.863,0,0,0-1.427-.648,1.923,1.923,0,0,0,0,3.837Z"
       class="cls-3" />
    <path
       id="path224"
       d="M135.941,258.907a3.056,3.056,0,0,1-3.058-3.119,2.96,2.96,0,0,1,2.927-3.106,2.884,2.884,0,0,1,2.842,3.094v.336h-4.438a1.837,1.837,0,0,0,1.8,1.643,1.95,1.95,0,0,0,1.426-.564l.888.828A3.477,3.477,0,0,1,135.941,258.907Zm-1.7-3.622h3.13a1.644,1.644,0,0,0-1.57-1.5A1.615,1.615,0,0,0,134.238,255.285Z"
       class="cls-3" />
  </g>
  <g
     id="g240">
    <g
       id="g232">
      <line
         id="line228"
         y2="132.558"
         x2="266.326"
         y1="91.507"
         x1="266.326"
         class="cls-5" />
      <polygon
         id="polygon230"
         points="262.587 92.602 266.326 86.126 270.066 92.602 262.587 92.602"
         class="cls-3" />
    </g>
    <g
       id="g238">
      <line
         id="line234"
         y2="127.176"
         x2="328.949"
         y1="86.126"
         x1="328.949"
         class="cls-5" />
      <polygon
         id="polygon236"
         points="325.21 126.082 328.949 132.558 332.689 126.082 325.21 126.082"
         class="cls-3" />
    </g>
  </g>
  <g
     id="g246">
    <line
       id="line242"
       y2="224.59"
       x2="297.638"
       y1="183.539"
       x1="297.638"
       class="cls-5" />
    <polygon
       id="polygon244"
       points="293.898 223.496 297.637 229.972 301.377 223.496 293.898 223.496"
       class="cls-3" />
  </g>
  <g
     id="g252">
    <line
       id="line248"
       y2="158.049"
       x2="377.074"
       y1="158.049"
       x1="425.369"
       class="cls-5" />
    <polygon
       id="polygon250"
       points="378.168 154.309 371.692 158.048 378.168 161.788 378.168 154.309"
       class="cls-3" />
  </g>
  <g
     id="g258">
    <polyline
       id="polyline254"
       points="297.638 183.539 297.638 205.159 95.852 205.159 95.852 224.59"
       class="cls-5" />
    <polygon
       id="polygon256"
       points="92.113 223.496 95.852 229.972 99.592 223.496 92.113 223.496"
       class="cls-3" />
  </g>
  <g
     id="g264">
    <polyline
       id="polyline260"
       points="297.638 183.539 297.638 205.159 499.423 205.159 499.423 224.59"
       class="cls-5" />
    <polygon
       id="polygon262"
       points="495.684 223.496 499.423 229.972 503.163 223.496 495.684 223.496"
       class="cls-3" />
  </g>
</svg>
