<svg id="Layer_1" data-name="Layer 1" xmlns="http://www.w3.org/2000/svg" width="210mm" height="82.174mm" viewBox="0 0 595.276 232.933">
  <defs>
    <style>
      .cls-1 {
        fill: #dcdcdc;
      }

      .cls-2 {
        fill: #fff;
      }

      .cls-3 {
        fill: #c8c8c8;
      }

      .cls-4 {
        fill: #a6c1e3;
      }

      .cls-5 {
        fill: #000305;
      }

      .cls-6 {
        fill: none;
        stroke: #000;
        stroke-linecap: round;
        stroke-linejoin: round;
        stroke-dasharray: 3 0 0 3 0 0;
      }

      .cls-7 {
        fill: #f9e6cf;
      }

      .cls-8 {
        fill: #be894c;
      }
    </style>
  </defs>
  <rect class="cls-1" x="22.975" y="66.987" width="265.92" height="147.556"/>
  <g>
    <rect class="cls-2" x="23.475" y="17.984" width="264.919" height="34.375"/>
    <path class="cls-3" d="M287.894,18.484V51.858H23.975V18.484H287.894m1-1H22.975V52.858H288.894V17.484Z"/>
  </g>
  <rect class="cls-4" x="37.101" y="79.526" width="237.666" height="107.232"/>
  <g>
    <path class="cls-5" d="M46.914,85.709h3.108a2.131,2.131,0,0,1,2.339,2.118,1.988,1.988,0,0,1-1.379,1.919l1.469,2.959H51.122l-1.35-2.8H48.114v2.8h-1.2Zm1.2,1.009v2.229h1.808a1.12,1.12,0,1,0,0-2.229Z"/>
    <path class="cls-5" d="M55.564,92.805a2.546,2.546,0,0,1-2.549-2.6,2.466,2.466,0,0,1,2.438-2.589A2.4,2.4,0,0,1,57.822,90.2v.28h-3.7a1.53,1.53,0,0,0,1.5,1.369,1.631,1.631,0,0,0,1.19-.469l.739.689A2.894,2.894,0,0,1,55.564,92.805Zm-1.42-3.019h2.608a1.369,1.369,0,0,0-1.309-1.249A1.345,1.345,0,0,0,54.144,89.786Z"/>
    <path class="cls-5" d="M58.975,87.7h1.109v.72a1.886,1.886,0,0,1,1.559-.76,2.561,2.561,0,0,1-.08,5.1,1.871,1.871,0,0,1-1.459-.649v2.718H58.975Zm1.129,1.47v2.088a1.535,1.535,0,0,0,1.2.55,1.6,1.6,0,0,0,0-3.2A1.47,1.47,0,0,0,60.1,89.167Z"/>
    <path class="cls-5" d="M66.214,92.705h-1.13V85.559l1.13-.19Z"/>
    <path class="cls-5" d="M67.464,85.988a.705.705,0,0,1,1.41,0,.705.705,0,0,1-1.41,0Zm1.27,6.717H67.605V87.7h1.129Z"/>
    <path class="cls-5" d="M73.7,91.255l.679.68a2.6,2.6,0,0,1-1.959.87,2.589,2.589,0,0,1,0-5.177,2.7,2.7,0,0,1,2,.839l-.7.729a1.658,1.658,0,0,0-1.26-.589,1.606,1.606,0,0,0,.03,3.2A1.539,1.539,0,0,0,73.7,91.255Z"/>
    <path class="cls-5" d="M75.105,91.265c0-.9.729-1.469,1.909-1.469a3.1,3.1,0,0,1,1.349.31v-.55c0-.659-.38-1-1.15-1a3.462,3.462,0,0,0-1.459.39l-.4-.82a4.8,4.8,0,0,1,2.078-.51c1.3,0,2.049.66,2.049,1.82v3.268H78.363V92.2a2.091,2.091,0,0,1-1.489.59A1.579,1.579,0,0,1,75.105,91.265Zm2.079.73a1.79,1.79,0,0,0,1.179-.409v-.82a2.591,2.591,0,0,0-1.159-.24c-.64,0-1.04.28-1.04.72C76.164,91.705,76.564,92,77.184,92Z"/>
    <path class="cls-5" d="M81.324,88.6h-1.01v-.9h1.01V86.318l1.129-.24V87.7h1.4v.9h-1.4v2.538c0,.49.19.68.7.68a2.084,2.084,0,0,0,.68-.12v.95a3.593,3.593,0,0,1-.97.14c-1.009,0-1.539-.48-1.539-1.4Z"/>
    <path class="cls-5" d="M87.093,92.805a2.546,2.546,0,0,1-2.549-2.6,2.466,2.466,0,0,1,2.438-2.589,2.4,2.4,0,0,1,2.37,2.579v.28h-3.7a1.53,1.53,0,0,0,1.5,1.369,1.631,1.631,0,0,0,1.19-.469l.74.689A2.9,2.9,0,0,1,87.093,92.805Zm-1.42-3.019h2.609a1.37,1.37,0,0,0-1.309-1.249A1.346,1.346,0,0,0,85.673,89.786Z"/>
    <path class="cls-5" d="M94.112,92.035a1.925,1.925,0,0,1-1.539.719,2.562,2.562,0,0,1,.07-5.1,1.913,1.913,0,0,1,1.459.66V85.559l1.129-.19v7.336H94.112Zm-1.2-.23a1.5,1.5,0,0,0,1.189-.55V89.147a1.552,1.552,0,0,0-1.189-.54,1.6,1.6,0,0,0,0,3.2Z"/>
    <path class="cls-5" d="M99.023,85.709h3.129a2.17,2.17,0,1,1,0,4.327h-1.929v2.669h-1.2Zm1.2,1.009v2.339h1.739a1.177,1.177,0,1,0,.01-2.339Z"/>
    <path class="cls-5" d="M107.692,87.617a2.6,2.6,0,1,1-2.518,2.589A2.5,2.5,0,0,1,107.692,87.617Zm1.4,2.6a1.416,1.416,0,1,0-2.8,0,1.413,1.413,0,1,0,2.8,0Z"/>
    <path class="cls-5" d="M113.7,87.617a2.6,2.6,0,1,1-2.518,2.589A2.5,2.5,0,0,1,113.7,87.617Zm1.4,2.6a1.416,1.416,0,1,0-2.8,0,1.413,1.413,0,1,0,2.8,0Z"/>
    <path class="cls-5" d="M118.523,92.705h-1.129V85.559l1.129-.19Z"/>
  </g>
  <g>
    <path d="M143.258,37.521a3.608,3.608,0,1,1,3.608-3.608A3.577,3.577,0,0,1,143.258,37.521Zm-.01-5.687a2.094,2.094,0,1,0,1.839,2.079A1.923,1.923,0,0,0,143.248,31.834Z"/>
    <path d="M150.958,37.441a1.806,1.806,0,0,1-1.409-.66v.63h-1.6V30.265l1.618-.25v2.9a1.949,1.949,0,0,1,1.51-.689,2.457,2.457,0,0,1,2.278,2.618A2.486,2.486,0,0,1,150.958,37.441Zm-1.39-3.459V35.7a1.331,1.331,0,0,0,.97.409,1.275,1.275,0,0,0,0-2.548A1.254,1.254,0,0,0,149.568,33.982Z"/>
    <path d="M153.42,39.54V38.31a2.034,2.034,0,0,0,.45.04c.36,0,.52-.139.52-.44V32.253h1.618v5.728a1.573,1.573,0,0,1-1.788,1.659A2.943,2.943,0,0,1,153.42,39.54Zm.87-8.986a.912.912,0,0,1,.909-.909.922.922,0,0,1,.92.909.915.915,0,0,1-1.829,0Z"/>
    <path d="M159.758,37.511a2.667,2.667,0,0,1-2.718-2.669,2.587,2.587,0,0,1,2.6-2.678,2.534,2.534,0,0,1,2.539,2.738v.35h-3.549a1.237,1.237,0,0,0,1.21.969,1.277,1.277,0,0,0,1.019-.429l1.07.889A3.006,3.006,0,0,1,159.758,37.511Zm-1.13-3.178h2.049a1.073,1.073,0,0,0-1.049-.91A1.024,1.024,0,0,0,158.628,34.333Z"/>
    <path d="M166.817,35.6l.959.949a2.711,2.711,0,0,1-2.1.96,2.669,2.669,0,0,1,0-5.338,2.792,2.792,0,0,1,2.149.95l-.99.989a1.351,1.351,0,0,0-1.1-.559,1.288,1.288,0,0,0,.04,2.558A1.248,1.248,0,0,0,166.817,35.6Z"/>
    <path d="M169.409,33.5h-1v-1.25h1V30.824l1.619-.329v1.758h1.379V33.5h-1.379v2c0,.459.18.62.68.62a2.146,2.146,0,0,0,.659-.111v1.31a4.5,4.5,0,0,1-1.109.16c-1.219,0-1.849-.56-1.849-1.66Z"/>
  </g>
  <g>
    <path d="M108.882,200.358l1.13,1.069a3.582,3.582,0,1,1,.05-4.507l-1.16,1.1a2.037,2.037,0,0,0-1.679-.93,2.07,2.07,0,1,0,1.659,3.269Z"/>
    <path d="M113.253,202.767a2.667,2.667,0,0,1-2.718-2.669,2.587,2.587,0,0,1,2.6-2.678,2.534,2.534,0,0,1,2.538,2.738v.35h-3.548a1.238,1.238,0,0,0,1.21.969,1.276,1.276,0,0,0,1.019-.43l1.069.89A3.007,3.007,0,0,1,113.253,202.767Zm-1.129-3.179h2.049a1.073,1.073,0,0,0-1.049-.909A1.024,1.024,0,0,0,112.124,199.588Z"/>
    <path d="M116.685,197.509h1.6v.72a1.9,1.9,0,0,1,1.529-.749,2.457,2.457,0,0,1,2.279,2.618,2.486,2.486,0,0,1-2.4,2.6,1.8,1.8,0,0,1-1.389-.6v2.719h-1.619Zm1.619,1.729v1.72a1.331,1.331,0,0,0,.969.409,1.275,1.275,0,0,0,0-2.548A1.252,1.252,0,0,0,118.3,199.238Z"/>
    <path d="M123.125,195.521l1.619-.25v3.078a1.9,1.9,0,0,1,1.629-.92,1.667,1.667,0,0,1,1.709,1.76v3.478h-1.619v-3.009a.859.859,0,0,0-.859-.959,1.041,1.041,0,0,0-.86.429v3.539h-1.619Z"/>
    <path d="M131.9,200.438a3.841,3.841,0,0,0,2.269.929c.739,0,1.189-.3,1.189-.729,0-.41-.24-.6-.92-.73l-1.489-.26a1.853,1.853,0,0,1-1.719-1.869c0-1.359,1.039-2.209,2.778-2.209a4.75,4.75,0,0,1,2.869.92l-.87,1.249a3.34,3.34,0,0,0-2.088-.769c-.68,0-1.07.28-1.07.659,0,.35.23.54.79.63l1.4.24c1.309.23,2,.909,2,1.979,0,1.359-1.159,2.289-2.989,2.289a4.962,4.962,0,0,1-3.028-1.06Z"/>
    <path d="M138.534,198.759h-1v-1.25h1V196.08l1.619-.329v1.758h1.38v1.25h-1.38v2c0,.46.181.621.68.621a2.178,2.178,0,0,0,.66-.111v1.31a4.507,4.507,0,0,1-1.11.159c-1.219,0-1.849-.559-1.849-1.659Z"/>
    <path d="M144.894,197.429a2.669,2.669,0,1,1-2.689,2.669A2.626,2.626,0,0,1,144.894,197.429Zm1.119,2.669a1.13,1.13,0,1,0-2.229,0,1.128,1.128,0,1,0,2.229,0Z"/>
    <path d="M148.625,197.509h1.619v1.17c.33-.86.79-1.27,1.4-1.27a1.117,1.117,0,0,1,.54.131v1.389a1.775,1.775,0,0,0-.76-.16,1.425,1.425,0,0,0-1.179.639v3.259h-1.619Z"/>
    <path d="M152.705,201.188c0-.95.739-1.5,2.008-1.5a3.355,3.355,0,0,1,1.2.24v-.42c0-.5-.33-.749-1.019-.749a3.844,3.844,0,0,0-1.45.36l-.559-1.13a5.7,5.7,0,0,1,2.368-.56c1.43,0,2.259.71,2.259,1.939v3.3h-1.6v-.45a2.053,2.053,0,0,1-1.429.53A1.6,1.6,0,0,1,152.705,201.188Zm2.278.489a1.762,1.762,0,0,0,.93-.26v-.66a3.926,3.926,0,0,0-.89-.109c-.529,0-.829.18-.829.509S154.484,201.677,154.983,201.677Z"/>
    <path d="M158.505,200.058a2.474,2.474,0,0,1,2.4-2.578,1.8,1.8,0,0,1,1.4.649v-.62h1.589v5.227c0,1.39-.96,2.16-2.719,2.16a4.947,4.947,0,0,1-2.138-.46l.5-1.17a3.652,3.652,0,0,0,1.579.4c.77,0,1.17-.32,1.17-.95v-.739a1.936,1.936,0,0,1-1.5.68A2.445,2.445,0,0,1,158.505,200.058Zm2.818,1.279a1.254,1.254,0,0,0,.96-.41v-1.718a1.314,1.314,0,0,0-.96-.4,1.2,1.2,0,0,0-1.229,1.259A1.22,1.22,0,0,0,161.323,201.337Z"/>
    <path d="M167.643,202.767a2.667,2.667,0,0,1-2.718-2.669,2.587,2.587,0,0,1,2.6-2.678,2.534,2.534,0,0,1,2.539,2.738v.35h-3.548a1.237,1.237,0,0,0,1.209.969,1.277,1.277,0,0,0,1.02-.43l1.069.89A3.007,3.007,0,0,1,167.643,202.767Zm-1.129-3.179h2.049a1.074,1.074,0,0,0-1.05-.909A1.023,1.023,0,0,0,166.514,199.588Z"/>
    <path d="M178.392,200.358l1.129,1.069a3.582,3.582,0,1,1,.05-4.507l-1.159,1.1a2.038,2.038,0,0,0-1.68-.93,2.07,2.07,0,1,0,1.66,3.269Z"/>
    <path d="M182.043,202.667h-1.619v-7.146l1.619-.25Z"/>
    <path d="M184.883,200.518a.859.859,0,0,0,.86.959,1.042,1.042,0,0,0,.859-.43v-3.538h1.619v5.158H186.6v-.84a1.9,1.9,0,0,1-1.629.92,1.667,1.667,0,0,1-1.709-1.76v-3.478h1.619Z"/>
    <path d="M189.774,201.058a3.346,3.346,0,0,0,1.659.519c.46,0,.74-.16.74-.42,0-.2-.15-.309-.48-.369l-.989-.181c-1-.189-1.52-.7-1.52-1.5,0-1.059.81-1.688,2.159-1.688a4.144,4.144,0,0,1,2.1.589l-.74,1.03a2.913,2.913,0,0,0-1.479-.44c-.389,0-.619.13-.619.36,0,.21.129.3.529.369l.97.18c1.019.19,1.559.71,1.549,1.49.01,1.009-.95,1.769-2.219,1.769a4.224,4.224,0,0,1-2.369-.63Z"/>
    <path d="M195.173,198.759h-1v-1.25h1V196.08l1.62-.329v1.758h1.379v1.25h-1.379v2c0,.46.179.621.679.621a2.174,2.174,0,0,0,.66-.111v1.31a4.5,4.5,0,0,1-1.109.159c-1.22,0-1.85-.559-1.85-1.659Z"/>
    <path d="M201.563,202.767a2.668,2.668,0,0,1-2.719-2.669,2.588,2.588,0,0,1,2.6-2.678,2.534,2.534,0,0,1,2.539,2.738v.35h-3.548a1.237,1.237,0,0,0,1.209.969,1.277,1.277,0,0,0,1.02-.43l1.069.89A3.009,3.009,0,0,1,201.563,202.767Zm-1.129-3.179h2.049a1.074,1.074,0,0,0-1.05-.909A1.023,1.023,0,0,0,200.434,199.588Z"/>
    <path d="M205,197.509h1.619v1.17c.329-.86.789-1.27,1.4-1.27a1.111,1.111,0,0,1,.539.131v1.389a1.767,1.767,0,0,0-.759-.16,1.425,1.425,0,0,0-1.179.639v3.259H205Z"/>
  </g>
  <g>
    <line class="cls-6" x1="155.934" y1="52.858" x2="155.934" y2="74.144"/>
    <polygon points="152.195 73.05 155.934 79.526 159.674 73.05 152.195 73.05"/>
  </g>
  <rect class="cls-1" x="306.381" y="66.987" width="265.92" height="147.556"/>
  <g>
    <rect class="cls-2" x="306.881" y="17.984" width="264.92" height="34.375"/>
    <path class="cls-3" d="M571.3,18.484V51.858H307.381V18.484H571.3m1-1H306.381V52.858H572.3V17.484Z"/>
  </g>
  <rect class="cls-4" x="320.508" y="79.526" width="237.666" height="107.232"/>
  <g>
    <g>
      <rect class="cls-2" x="353.494" y="114.361" width="25.421" height="37.563"/>
      <path class="cls-3" d="M378.414,114.861v36.563h-24.42V114.861h24.42m1-1h-26.42v38.563h26.42V113.861Z"/>
    </g>
    <g>
      <rect class="cls-2" x="381.416" y="114.361" width="25.42" height="37.563"/>
      <path class="cls-3" d="M406.336,114.861v36.563H381.915V114.861h24.421m1-1H380.915v38.563h26.421V113.861Z"/>
    </g>
    <g>
      <rect class="cls-2" x="409.337" y="114.361" width="25.42" height="37.563"/>
      <path class="cls-3" d="M434.257,114.861v36.563h-24.42V114.861h24.42m1-1h-26.42v38.563h26.42V113.861Z"/>
    </g>
    <g>
      <rect class="cls-2" x="437.258" y="114.361" width="25.42" height="37.563"/>
      <path class="cls-3" d="M462.179,114.861v36.563H437.758V114.861h24.421m1-1H436.758v38.563h26.421V113.861Z"/>
    </g>
    <g>
      <rect class="cls-7" x="471.513" y="114.361" width="25.42" height="37.563"/>
      <path class="cls-8" d="M496.433,114.861v36.563h-24.42V114.861h24.42m1-1h-26.42v38.563h26.42V113.861Z"/>
    </g>
    <g>
      <rect class="cls-7" x="499.768" y="114.361" width="25.42" height="37.563"/>
      <path class="cls-8" d="M524.688,114.861v36.563h-24.42V114.861h24.42m1-1h-26.42v38.563h26.42V113.861Z"/>
    </g>
    <path d="M367.517,135.382h-1.539v-5.4l-1.379.57V129.2l1.948-.809h.97Z"/>
    <path d="M391.65,134.282l2.959-2.928a1.308,1.308,0,0,0,.47-.929c0-.45-.441-.79-1.031-.79a2.409,2.409,0,0,0-1.768.86l-.86-1.05A3.843,3.843,0,0,1,394.1,128.3c1.489,0,2.479.81,2.479,2.029a2.446,2.446,0,0,1-.91,1.809l-2.018,1.949,3.027-.01v1.309H391.65Z"/>
    <path d="M421.94,135.482a3.652,3.652,0,0,1-2.758-1.129l1.039-.96a1.982,1.982,0,0,0,1.7.739c.76,0,1.26-.339,1.26-.859,0-.44-.36-.72-.92-.72h-.9v-1.269h.739c.57,0,.91-.29.91-.78s-.469-.859-1.1-.859a1.948,1.948,0,0,0-1.629.8l-1.05-.949a3.67,3.67,0,0,1,2.738-1.219c1.53,0,2.589.83,2.589,2.019a1.691,1.691,0,0,1-1.319,1.6,1.623,1.623,0,0,1,1.5,1.509C424.739,134.612,423.57,135.482,421.94,135.482Z"/>
    <path d="M452.206,132.5h.83v1.31h-.83v1.569h-1.539v-1.569h-3.739v-1.269l3.479-4.158h1.8Zm-1.539,0v-2.578l-2.139,2.578Z"/>
    <path d="M480.543,135.382l2.668-3.608-2.548-3.388h2.048l1.5,2.118,1.5-2.118h1.969l-2.5,3.388,2.709,3.608H485.84l-1.659-2.359-1.669,2.359Z"/>
    <path d="M511.612,132.733l-2.838-4.347h1.978l1.769,2.868,1.789-2.868h1.869l-2.848,4.337v2.659h-1.719Z"/>
  </g>
  <g>
    <path class="cls-5" d="M330.035,85.709h5.007v1.019h-3.808v1.949h2.658v1h-2.658v2.009h3.848v1.02h-5.047Z"/>
    <path class="cls-5" d="M336.305,87.7h1.129v1.09a1.486,1.486,0,0,1,1.379-1.18,1.32,1.32,0,0,1,.49.1V88.7a1.59,1.59,0,0,0-.62-.12,1.375,1.375,0,0,0-1.249.829v3.3h-1.129Z"/>
    <path class="cls-5" d="M339.815,91.265c0-.9.729-1.469,1.909-1.469a3.089,3.089,0,0,1,1.349.31v-.55c0-.659-.38-1-1.15-1a3.462,3.462,0,0,0-1.459.39l-.4-.82a4.8,4.8,0,0,1,2.078-.51c1.3,0,2.049.66,2.049,1.82v3.268h-1.119V92.2a2.088,2.088,0,0,1-1.489.59A1.579,1.579,0,0,1,339.815,91.265Zm2.079.73a1.79,1.79,0,0,0,1.179-.409v-.82a2.591,2.591,0,0,0-1.159-.24c-.64,0-1.039.28-1.039.72C340.875,91.705,341.274,92,341.894,92Z"/>
    <path class="cls-5" d="M345.645,91.365a2.882,2.882,0,0,0,1.608.57c.6,0,1.01-.27,1.01-.67,0-.309-.21-.479-.689-.569l-.89-.15c-.97-.18-1.449-.63-1.449-1.379,0-.94.769-1.55,1.938-1.55a3.523,3.523,0,0,1,1.97.6l-.53.74a2.735,2.735,0,0,0-1.509-.48c-.52,0-.859.22-.859.589,0,.32.179.46.709.55l.88.16c1,.19,1.479.65,1.479,1.4a1.835,1.835,0,0,1-2.039,1.63,3.358,3.358,0,0,1-2.159-.68Z"/>
    <path class="cls-5" d="M351.454,90.676a1.078,1.078,0,0,0,1.1,1.2,1.263,1.263,0,0,0,1.1-.62V87.7h1.13v5.008h-1.13v-.83a1.829,1.829,0,0,1-1.6.91A1.68,1.68,0,0,1,350.324,91V87.7h1.13Z"/>
    <path class="cls-5" d="M356.174,87.7H357.3v1.09a1.486,1.486,0,0,1,1.379-1.18,1.316,1.316,0,0,1,.49.1V88.7a1.59,1.59,0,0,0-.62-.12,1.375,1.375,0,0,0-1.249.829v3.3h-1.129Z"/>
    <path class="cls-5" d="M362.183,92.805a2.546,2.546,0,0,1-2.549-2.6,2.467,2.467,0,0,1,2.439-2.589,2.4,2.4,0,0,1,2.369,2.579v.28h-3.7a1.529,1.529,0,0,0,1.5,1.369,1.628,1.628,0,0,0,1.189-.469l.74.689A2.9,2.9,0,0,1,362.183,92.805Zm-1.419-3.019h2.609a1.37,1.37,0,0,0-1.31-1.249A1.345,1.345,0,0,0,360.764,89.786Z"/>
    <path class="cls-5" d="M373.181,90.816l.789.759A3.59,3.59,0,1,1,374,86.838l-.81.8a2.461,2.461,0,1,0-1.879,4.088A2.371,2.371,0,0,0,373.181,90.816Z"/>
    <path class="cls-5" d="M377.212,87.617a2.6,2.6,0,1,1-2.518,2.589A2.5,2.5,0,0,1,377.212,87.617Zm1.4,2.6a1.415,1.415,0,1,0-2.8,0,1.413,1.413,0,1,0,2.8,0Z"/>
    <path class="cls-5" d="M384.512,92.035a1.927,1.927,0,0,1-1.54.719,2.562,2.562,0,0,1,.071-5.1,1.909,1.909,0,0,1,1.458.66V85.559l1.13-.19v7.336h-1.119Zm-1.2-.23a1.5,1.5,0,0,0,1.189-.55V89.147a1.551,1.551,0,0,0-1.189-.54,1.6,1.6,0,0,0,0,3.2Z"/>
    <path class="cls-5" d="M389.353,92.805a2.546,2.546,0,0,1-2.549-2.6,2.466,2.466,0,0,1,2.439-2.589,2.4,2.4,0,0,1,2.368,2.579v.28h-3.7a1.528,1.528,0,0,0,1.5,1.369,1.63,1.63,0,0,0,1.189-.469l.739.689A2.892,2.892,0,0,1,389.353,92.805Zm-1.42-3.019h2.609a1.37,1.37,0,0,0-1.309-1.249A1.346,1.346,0,0,0,387.933,89.786Z"/>
    <path class="cls-5" d="M396.372,92.035a1.927,1.927,0,0,1-1.539.719,2.562,2.562,0,0,1,.07-5.1,1.914,1.914,0,0,1,1.459.66V85.559l1.129-.19v7.336h-1.119Zm-1.2-.23a1.5,1.5,0,0,0,1.19-.55V89.147a1.554,1.554,0,0,0-1.19-.54,1.6,1.6,0,0,0,0,3.2Z"/>
    <path class="cls-5" d="M401.283,85.709h3.129a2.17,2.17,0,1,1,0,4.327h-1.929v2.669h-1.2Zm1.2,1.009v2.339h1.738a1.178,1.178,0,1,0,.011-2.339Z"/>
    <path class="cls-5" d="M409.952,87.617a2.6,2.6,0,1,1-2.519,2.589A2.5,2.5,0,0,1,409.952,87.617Zm1.4,2.6a1.415,1.415,0,1,0-2.8,0,1.413,1.413,0,1,0,2.8,0Z"/>
    <path class="cls-5" d="M415.961,87.617a2.6,2.6,0,1,1-2.518,2.589A2.5,2.5,0,0,1,415.961,87.617Zm1.4,2.6a1.416,1.416,0,1,0-2.8,0,1.413,1.413,0,1,0,2.8,0Z"/>
    <path class="cls-5" d="M420.783,92.705h-1.13V85.559l1.13-.19Z"/>
  </g>
  <g>
    <path d="M426.665,37.521a3.608,3.608,0,1,1,3.607-3.608A3.577,3.577,0,0,1,426.665,37.521Zm-.011-5.687a2.094,2.094,0,1,0,1.84,2.079A1.923,1.923,0,0,0,426.654,31.834Z"/>
    <path d="M434.365,37.441a1.8,1.8,0,0,1-1.409-.66v.63h-1.6V30.265l1.619-.25v2.9a1.949,1.949,0,0,1,1.509-.689,2.457,2.457,0,0,1,2.279,2.618A2.486,2.486,0,0,1,434.365,37.441Zm-1.39-3.459V35.7a1.331,1.331,0,0,0,.97.409,1.275,1.275,0,0,0,0-2.548A1.251,1.251,0,0,0,432.975,33.982Z"/>
    <path d="M436.827,39.54V38.31a2.019,2.019,0,0,0,.449.04c.36,0,.52-.139.52-.44V32.253h1.619v5.728a1.574,1.574,0,0,1-1.789,1.659A2.94,2.94,0,0,1,436.827,39.54Zm.869-8.986a.915.915,0,0,1,1.829,0,.915.915,0,0,1-1.829,0Z"/>
    <path d="M443.165,37.511a2.667,2.667,0,0,1-2.719-2.669,2.587,2.587,0,0,1,2.6-2.678,2.535,2.535,0,0,1,2.54,2.738v.35h-3.549a1.237,1.237,0,0,0,1.21.969,1.278,1.278,0,0,0,1.019-.429l1.07.889A3.006,3.006,0,0,1,443.165,37.511Zm-1.13-3.178h2.049a1.074,1.074,0,0,0-1.049-.91A1.024,1.024,0,0,0,442.035,34.333Z"/>
    <path d="M450.223,35.6l.96.949a2.713,2.713,0,0,1-2.1.96,2.669,2.669,0,0,1,0-5.338,2.791,2.791,0,0,1,2.149.95l-.989.989a1.351,1.351,0,0,0-1.1-.559,1.288,1.288,0,0,0,.04,2.558A1.248,1.248,0,0,0,450.223,35.6Z"/>
    <path d="M452.815,33.5h-1v-1.25h1V30.824l1.619-.329v1.758h1.38V33.5h-1.38v2c0,.459.181.62.68.62a2.147,2.147,0,0,0,.66-.111v1.31a4.5,4.5,0,0,1-1.109.16c-1.22,0-1.85-.56-1.85-1.66Z"/>
  </g>
  <g>
    <path d="M392.29,200.358l1.128,1.069a3.582,3.582,0,1,1,.05-4.507l-1.159,1.1a2.037,2.037,0,0,0-1.679-.93,2.07,2.07,0,1,0,1.66,3.269Z"/>
    <path d="M396.661,202.767a2.667,2.667,0,0,1-2.719-2.669,2.587,2.587,0,0,1,2.6-2.678,2.534,2.534,0,0,1,2.539,2.738v.35h-3.549a1.238,1.238,0,0,0,1.21.969,1.276,1.276,0,0,0,1.019-.43l1.07.89A3.01,3.01,0,0,1,396.661,202.767Zm-1.13-3.179h2.049a1.073,1.073,0,0,0-1.049-.909A1.024,1.024,0,0,0,395.531,199.588Z"/>
    <path d="M400.092,197.509h1.6v.72a1.9,1.9,0,0,1,1.529-.749A2.457,2.457,0,0,1,405.5,200.1a2.486,2.486,0,0,1-2.4,2.6,1.8,1.8,0,0,1-1.39-.6v2.719h-1.618Zm1.618,1.729v1.72a1.331,1.331,0,0,0,.97.409,1.275,1.275,0,0,0,0-2.548A1.255,1.255,0,0,0,401.71,199.238Z"/>
    <path d="M406.532,195.521l1.619-.25v3.078a1.9,1.9,0,0,1,1.629-.92,1.667,1.667,0,0,1,1.709,1.76v3.478H409.87v-3.009a.859.859,0,0,0-.86-.959,1.04,1.04,0,0,0-.859.429v3.539h-1.619Z"/>
    <path d="M415.3,200.438a3.844,3.844,0,0,0,2.27.929c.739,0,1.188-.3,1.188-.729,0-.41-.239-.6-.919-.73l-1.489-.26a1.854,1.854,0,0,1-1.719-1.869c0-1.359,1.039-2.209,2.779-2.209a4.75,4.75,0,0,1,2.868.92l-.869,1.249a3.345,3.345,0,0,0-2.089-.769c-.68,0-1.07.28-1.07.659,0,.35.23.54.79.63l1.4.24c1.31.23,2,.909,2,1.979,0,1.359-1.159,2.289-2.988,2.289a4.962,4.962,0,0,1-3.029-1.06Z"/>
    <path d="M421.941,198.759h-1v-1.25h1V196.08l1.619-.329v1.758h1.38v1.25h-1.38v2c0,.46.181.621.68.621a2.178,2.178,0,0,0,.66-.111v1.31a4.5,4.5,0,0,1-1.109.159c-1.22,0-1.85-.559-1.85-1.659Z"/>
    <path d="M428.3,197.429a2.669,2.669,0,1,1-2.688,2.669A2.627,2.627,0,0,1,428.3,197.429Zm1.119,2.669a1.13,1.13,0,1,0-2.228,0,1.127,1.127,0,1,0,2.228,0Z"/>
    <path d="M432.032,197.509h1.619v1.17c.33-.86.79-1.27,1.4-1.27a1.111,1.111,0,0,1,.539.131v1.389a1.765,1.765,0,0,0-.758-.16,1.426,1.426,0,0,0-1.18.639v3.259h-1.619Z"/>
    <path d="M436.112,201.188c0-.95.739-1.5,2.009-1.5a3.354,3.354,0,0,1,1.2.24v-.42c0-.5-.33-.749-1.02-.749a3.844,3.844,0,0,0-1.449.36l-.559-1.13a5.7,5.7,0,0,1,2.369-.56c1.428,0,2.258.71,2.258,1.939v3.3h-1.6v-.45a2.051,2.051,0,0,1-1.429.53A1.6,1.6,0,0,1,436.112,201.188Zm2.278.489a1.759,1.759,0,0,0,.93-.26v-.66a3.926,3.926,0,0,0-.89-.109c-.529,0-.829.18-.829.509S437.891,201.677,438.39,201.677Z"/>
    <path d="M441.912,200.058a2.474,2.474,0,0,1,2.4-2.578,1.793,1.793,0,0,1,1.4.649v-.62H447.3v5.227c0,1.39-.959,2.16-2.717,2.16a4.945,4.945,0,0,1-2.139-.46l.5-1.17a3.652,3.652,0,0,0,1.579.4c.77,0,1.17-.32,1.17-.95v-.739a1.934,1.934,0,0,1-1.5.68A2.445,2.445,0,0,1,441.912,200.058Zm2.818,1.279a1.254,1.254,0,0,0,.96-.41v-1.718a1.314,1.314,0,0,0-.96-.4,1.2,1.2,0,0,0-1.229,1.259A1.22,1.22,0,0,0,444.73,201.337Z"/>
    <path d="M451.05,202.767a2.667,2.667,0,0,1-2.718-2.669,2.587,2.587,0,0,1,2.6-2.678,2.534,2.534,0,0,1,2.539,2.738v.35H449.92a1.24,1.24,0,0,0,1.21.969,1.278,1.278,0,0,0,1.02-.43l1.069.89A3.01,3.01,0,0,1,451.05,202.767Zm-1.13-3.179h2.049a1.073,1.073,0,0,0-1.049-.909A1.025,1.025,0,0,0,449.92,199.588Z"/>
    <path d="M461.8,200.358l1.13,1.069a3.582,3.582,0,1,1,.05-4.507l-1.159,1.1a2.038,2.038,0,0,0-1.68-.93,2.07,2.07,0,1,0,1.659,3.269Z"/>
    <path d="M465.45,202.667h-1.618v-7.146l1.618-.25Z"/>
    <path d="M468.291,200.518a.858.858,0,0,0,.859.959,1.041,1.041,0,0,0,.859-.43v-3.538h1.619v5.158h-1.619v-.84a1.9,1.9,0,0,1-1.629.92,1.667,1.667,0,0,1-1.709-1.76v-3.478h1.62Z"/>
    <path d="M473.181,201.058a3.343,3.343,0,0,0,1.659.519c.46,0,.74-.16.74-.42,0-.2-.15-.309-.48-.369l-.989-.181c-1-.189-1.52-.7-1.52-1.5,0-1.059.81-1.688,2.16-1.688a4.146,4.146,0,0,1,2.1.589l-.74,1.03a2.916,2.916,0,0,0-1.479-.44c-.389,0-.62.13-.62.36,0,.21.13.3.531.369l.968.18c1.02.19,1.56.71,1.55,1.49.01,1.009-.95,1.769-2.219,1.769a4.224,4.224,0,0,1-2.369-.63Z"/>
    <path d="M478.581,198.759h-1v-1.25h1V196.08l1.619-.329v1.758h1.38v1.25H480.2v2c0,.46.179.621.679.621a2.184,2.184,0,0,0,.661-.111v1.31a4.514,4.514,0,0,1-1.11.159c-1.22,0-1.849-.559-1.849-1.659Z"/>
    <path d="M484.97,202.767a2.668,2.668,0,0,1-2.719-2.669,2.588,2.588,0,0,1,2.6-2.678,2.534,2.534,0,0,1,2.539,2.738v.35h-3.548a1.237,1.237,0,0,0,1.209.969,1.277,1.277,0,0,0,1.02-.43l1.069.89A3.009,3.009,0,0,1,484.97,202.767Zm-1.129-3.179h2.049a1.074,1.074,0,0,0-1.05-.909A1.024,1.024,0,0,0,483.841,199.588Z"/>
    <path d="M488.4,197.509h1.619v1.17c.329-.86.789-1.27,1.4-1.27a1.111,1.111,0,0,1,.539.131v1.389a1.767,1.767,0,0,0-.759-.16,1.425,1.425,0,0,0-1.179.639v3.259H488.4Z"/>
  </g>
  <g>
    <line class="cls-6" x1="439.341" y1="52.858" x2="439.341" y2="74.144"/>
    <polygon points="435.602 73.05 439.341 79.526 443.081 73.05 435.602 73.05"/>
  </g>
  <g>
    <rect class="cls-2" x="117.612" y="103.758" width="76.646" height="34.375"/>
    <path class="cls-3" d="M193.757,104.258v33.375H118.112V104.258h75.645m1-1H117.112v35.375h77.645V103.258Z"/>
  </g>
  <g>
    <rect class="cls-2" x="76.384" y="143.397" width="76.646" height="34.375"/>
    <path class="cls-3" d="M152.53,143.9v33.375H76.884V143.9H152.53m1-1H75.884v35.375H153.53V142.9Z"/>
  </g>
  <g>
    <rect class="cls-2" x="158.839" y="143.397" width="76.646" height="34.375"/>
    <path class="cls-3" d="M234.985,143.9v33.375H159.339V143.9h75.646m1-1H158.339v35.375h77.646V142.9Z"/>
  </g>
  <g>
    <path d="M149.776,121.741l.79.76a3.591,3.591,0,1,1,.03-4.737l-.809.8a2.461,2.461,0,1,0-1.88,4.088A2.369,2.369,0,0,0,149.776,121.741Z"/>
    <path d="M153.808,118.543a2.6,2.6,0,1,1-2.518,2.589A2.5,2.5,0,0,1,153.808,118.543Zm1.4,2.6a1.416,1.416,0,1,0-2.8,0,1.413,1.413,0,1,0,2.8,0Z"/>
    <path d="M157.5,118.623h1.109v.72a1.886,1.886,0,0,1,1.559-.76,2.561,2.561,0,0,1-.08,5.1,1.871,1.871,0,0,1-1.459-.649v2.718H157.5Zm1.129,1.469v2.089a1.534,1.534,0,0,0,1.2.55,1.6,1.6,0,0,0,0-3.2A1.472,1.472,0,0,0,158.629,120.092Z"/>
    <path d="M164.738,123.66l-1.889-5.037h1.259l1.27,3.718,1.4-3.718h1.229l-2.378,5.827a1.693,1.693,0,0,1-1.779,1.319,2.4,2.4,0,0,1-.57-.07v-.969a4.112,4.112,0,0,0,.44.04.8.8,0,0,0,.809-.58Z"/>
  </g>
  <g>
    <path d="M108.549,161.38l.789.76a3.59,3.59,0,1,1,.031-4.737l-.81.8a2.461,2.461,0,1,0-1.879,4.088A2.371,2.371,0,0,0,108.549,161.38Z"/>
    <path d="M112.581,158.182a2.6,2.6,0,1,1-2.519,2.589A2.5,2.5,0,0,1,112.581,158.182Zm1.4,2.6a1.415,1.415,0,1,0-2.8,0,1.413,1.413,0,1,0,2.8,0Z"/>
    <path d="M116.272,158.262h1.109v.72a1.887,1.887,0,0,1,1.559-.76,2.561,2.561,0,0,1-.08,5.1,1.871,1.871,0,0,1-1.459-.649v2.718h-1.129Zm1.129,1.47v2.088a1.536,1.536,0,0,0,1.2.55,1.6,1.6,0,0,0,0-3.2A1.471,1.471,0,0,0,117.4,159.732Z"/>
    <path d="M123.511,163.3l-1.889-5.037h1.259l1.269,3.719,1.4-3.719h1.23l-2.379,5.827a1.692,1.692,0,0,1-1.779,1.319,2.4,2.4,0,0,1-.57-.07v-.969a4.112,4.112,0,0,0,.44.04.8.8,0,0,0,.81-.58Z"/>
  </g>
  <g>
    <path d="M191,161.38l.789.76a3.59,3.59,0,1,1,.031-4.738l-.81.8a2.461,2.461,0,1,0-1.879,4.088A2.371,2.371,0,0,0,191,161.38Z"/>
    <path d="M195.036,158.182a2.595,2.595,0,1,1-2.519,2.589A2.5,2.5,0,0,1,195.036,158.182Zm1.4,2.6a1.415,1.415,0,1,0-2.8,0,1.413,1.413,0,1,0,2.8,0Z"/>
    <path d="M198.727,158.262h1.109v.72a1.888,1.888,0,0,1,1.56-.76,2.561,2.561,0,0,1-.081,5.1,1.875,1.875,0,0,1-1.459-.649v2.718h-1.129Zm1.129,1.469v2.089a1.536,1.536,0,0,0,1.2.55,1.6,1.6,0,0,0,0-3.2A1.471,1.471,0,0,0,199.856,159.731Z"/>
    <path d="M205.966,163.3l-1.889-5.037h1.259l1.269,3.718,1.4-3.718h1.23l-2.379,5.826a1.692,1.692,0,0,1-1.779,1.32,2.4,2.4,0,0,1-.57-.07v-.969a4,4,0,0,0,.44.039.8.8,0,0,0,.81-.579Z"/>
  </g>
</svg>
