<?xml version="1.0" encoding="UTF-8" standalone="no"?>
<svg
   xmlns:dc="http://purl.org/dc/elements/1.1/"
   xmlns:cc="http://creativecommons.org/ns#"
   xmlns:rdf="http://www.w3.org/1999/02/22-rdf-syntax-ns#"
   xmlns:svg="http://www.w3.org/2000/svg"
   xmlns="http://www.w3.org/2000/svg"
   xmlns:sodipodi="http://sodipodi.sourceforge.net/DTD/sodipodi-0.dtd"
   xmlns:inkscape="http://www.inkscape.org/namespaces/inkscape"
   inkscape:version="1.0 (4035a4f, 2020-05-01)"
   sodipodi:docname="cephmgr.svg"
   version="1.1"
   viewBox="0 0 595.276 320.073"
   height="112.915mm"
   width="210mm"
   data-name="Layer 1"
   id="Layer_1">
  <metadata
     id="metadata231">
    <rdf:RDF>
      <cc:Work
         rdf:about="">
        <dc:format>image/svg+xml</dc:format>
        <dc:type
           rdf:resource="http://purl.org/dc/dcmitype/StillImage" />
        <dc:title></dc:title>
        <dc:subject>
          <rdf:Bag>
            <rdf:li>cephadm</rdf:li>
            <rdf:li>ceph orch</rdf:li>
          </rdf:Bag>
        </dc:subject>
      </cc:Work>
    </rdf:RDF>
  </metadata>
  <sodipodi:namedview
     inkscape:current-layer="Layer_1"
     inkscape:window-maximized="0"
     inkscape:window-y="25"
     inkscape:window-x="0"
     inkscape:cy="213.38268"
     inkscape:cx="396.85039"
     inkscape:zoom="0.63122024"
     showgrid="false"
     id="namedview229"
     inkscape:window-height="480"
     inkscape:window-width="987"
     inkscape:pageshadow="2"
     inkscape:pageopacity="0"
     guidetolerance="10"
     gridtolerance="10"
     objecttolerance="10"
     borderopacity="1"
     bordercolor="#666666"
     pagecolor="#ffffff" />
  <defs
     id="defs12">
    <style
       id="style10">
      .cls-1 {
        fill: #dce8f6;
        stroke: #a0c2e7;
      }

      .cls-1, .cls-5 {
        stroke-miterlimit: 10;
      }

      .cls-2 {
        fill: #2764ae;
      }

      .cls-3 {
        fill: #1d1d1b;
      }

      .cls-4 {
        fill: #fff;
      }

      .cls-5 {
        fill: none;
        stroke: #1d1d1b;
      }
    </style>
  </defs>
  <rect
     id="rect14"
     height="50.981"
     width="148.109"
     y="229.972"
     x="21.798"
     class="cls-1" />
  <rect
     id="rect16"
     height="50.98"
     width="148.109"
     y="35.145"
     x="21.798"
     class="cls-1" />
  <rect
     id="rect18"
     height="50.981"
     width="148.109"
     y="229.972"
     x="425.369"
     class="cls-1" />
  <rect
     id="rect20"
     height="48.205"
     width="148.109"
     y="135.334"
     x="223.584"
     class="cls-2" />
  <rect
     id="rect22"
     height="50.98"
     width="148.109"
     y="35.145"
     x="223.584"
     class="cls-1" />
  <rect
     id="rect24"
     height="50.98"
     width="148.109"
     y="35.145"
     x="425.369"
     class="cls-1" />
  <g
     id="g52">
    <path
       id="path26"
       d="M255.53,57.95h1.356v.96a2.049,2.049,0,0,1,1.787-1.056,1.889,1.889,0,0,1,1.763,1.163,2.217,2.217,0,0,1,1.991-1.163,1.991,1.991,0,0,1,1.967,2.183v3.922h-1.356V60.325a1.215,1.215,0,0,0-1.211-1.379,1.428,1.428,0,0,0-1.211.707c.011.132.024.252.024.384v3.922h-1.356V60.325a1.216,1.216,0,0,0-1.211-1.379,1.4,1.4,0,0,0-1.187.683v4.33H255.53Z"
       class="cls-3" />
    <path
       id="path28"
       d="M265.766,60.949a2.9,2.9,0,0,1,2.807-3.047,2.26,2.26,0,0,1,1.763.816V57.95h1.343v6.213c0,1.547-1.007,2.4-2.83,2.4a5.217,5.217,0,0,1-2.411-.575l.479-1.008a4.093,4.093,0,0,0,1.872.516c1.007,0,1.535-.456,1.535-1.331v-1.02a2.333,2.333,0,0,1-1.835.852A2.88,2.88,0,0,1,265.766,60.949Zm3.13,1.919a1.8,1.8,0,0,0,1.428-.66V59.689a1.868,1.868,0,0,0-1.428-.648,1.793,1.793,0,0,0-1.787,1.908A1.817,1.817,0,0,0,268.9,62.868Z"
       class="cls-3" />
    <path
       id="path30"
       d="M273.35,57.95h1.356v1.307a1.781,1.781,0,0,1,1.655-1.415,1.6,1.6,0,0,1,.587.12v1.187a1.925,1.925,0,0,0-.743-.143,1.647,1.647,0,0,0-1.5.995v3.958H273.35Z"
       class="cls-3" />
    <path
       id="path32"
       d="M280.309,55.563h1.319l-4.8,10.891h-1.32Z"
       class="cls-3" />
    <path
       id="path34"
       d="M286.116,63.155a2.312,2.312,0,0,1-1.847.864,3.074,3.074,0,0,1,.084-6.117,2.292,2.292,0,0,1,1.751.792v-3.31l1.355-.228v8.8h-1.343Zm-1.439-.276a1.8,1.8,0,0,0,1.427-.659V59.689a1.866,1.866,0,0,0-1.427-.648,1.924,1.924,0,0,0,0,3.838Z"
       class="cls-3" />
    <path
       id="path36"
       d="M288.842,62.232c0-1.08.876-1.763,2.291-1.763a3.711,3.711,0,0,1,1.619.372v-.66c0-.791-.456-1.2-1.379-1.2a4.137,4.137,0,0,0-1.751.468l-.48-.984a5.768,5.768,0,0,1,2.5-.612c1.559,0,2.459.792,2.459,2.183v3.922h-1.344v-.612a2.508,2.508,0,0,1-1.787.708A1.9,1.9,0,0,1,288.842,62.232Zm2.5.875a2.139,2.139,0,0,0,1.415-.491v-.984a3.107,3.107,0,0,0-1.391-.288c-.768,0-1.247.336-1.247.864C290.114,62.76,290.593,63.107,291.337,63.107Z"
       class="cls-3" />
    <path
       id="path38"
       d="M295.838,62.352a3.46,3.46,0,0,0,1.931.684c.719,0,1.211-.325,1.211-.8,0-.372-.252-.576-.828-.684l-1.067-.179c-1.163-.217-1.739-.756-1.739-1.656,0-1.127.924-1.859,2.327-1.859a4.224,4.224,0,0,1,2.362.72l-.636.887a3.284,3.284,0,0,0-1.81-.575c-.624,0-1.031.263-1.031.707,0,.384.215.552.851.66l1.055.192c1.2.228,1.775.78,1.775,1.679a2.2,2.2,0,0,1-2.446,1.955,4.033,4.033,0,0,1-2.591-.816Z"
       class="cls-3" />
    <path
       id="path40"
       d="M301.489,55.384l1.356-.228v3.778a2.18,2.18,0,0,1,1.907-1.08A2.022,2.022,0,0,1,306.827,60v3.958h-1.355V60.385a1.294,1.294,0,0,0-1.32-1.439,1.541,1.541,0,0,0-1.307.719v4.294h-1.356Z"
       class="cls-3" />
    <path
       id="path42"
       d="M311.58,64.019a2.233,2.233,0,0,1-1.775-.84v.78h-1.331V55.384l1.355-.228v3.6a2.338,2.338,0,0,1,1.847-.852A2.883,2.883,0,0,1,314.4,60.96,2.912,2.912,0,0,1,311.58,64.019Zm-1.751-4.306V62.22a1.84,1.84,0,0,0,1.439.659,1.924,1.924,0,0,0,0-3.838A1.762,1.762,0,0,0,309.829,59.713Z"
       class="cls-3" />
    <path
       id="path44"
       d="M318.588,57.854a3.114,3.114,0,1,1-3.023,3.106A3,3,0,0,1,318.588,57.854Zm1.679,3.119a1.7,1.7,0,1,0-3.359,0,1.7,1.7,0,1,0,3.359,0Z"
       class="cls-3" />
    <path
       id="path46"
       d="M322.777,62.232c0-1.08.875-1.763,2.29-1.763a3.712,3.712,0,0,1,1.62.372v-.66c0-.791-.456-1.2-1.379-1.2a4.137,4.137,0,0,0-1.751.468l-.48-.984a5.767,5.767,0,0,1,2.494-.612c1.56,0,2.459.792,2.459,2.183v3.922h-1.343v-.612a2.51,2.51,0,0,1-1.788.708A1.9,1.9,0,0,1,322.777,62.232Zm2.494.875a2.141,2.141,0,0,0,1.416-.491v-.984a3.11,3.11,0,0,0-1.391-.288c-.768,0-1.248.336-1.248.864C324.048,62.76,324.528,63.107,325.271,63.107Z"
       class="cls-3" />
    <path
       id="path48"
       d="M329.678,57.95h1.354v1.307a1.784,1.784,0,0,1,1.656-1.415,1.6,1.6,0,0,1,.587.12v1.187a1.921,1.921,0,0,0-.743-.143,1.65,1.65,0,0,0-1.5.995v3.958h-1.354Z"
       class="cls-3" />
    <path
       id="path50"
       d="M338.4,63.155a2.308,2.308,0,0,1-1.846.864,3.074,3.074,0,0,1,.084-6.117,2.293,2.293,0,0,1,1.751.792v-3.31l1.355-.228v8.8H338.4Zm-1.438-.276a1.8,1.8,0,0,0,1.427-.659V59.689a1.868,1.868,0,0,0-1.427-.648,1.924,1.924,0,0,0,0,3.838Z"
       class="cls-3" />
  </g>
  <g
     id="g76">
    <path
       id="path54"
       d="M463.44,57.95H464.8v.96a2.048,2.048,0,0,1,1.787-1.056,1.889,1.889,0,0,1,1.763,1.163,2.217,2.217,0,0,1,1.991-1.163,1.991,1.991,0,0,1,1.967,2.183v3.922h-1.356V60.325a1.216,1.216,0,0,0-1.211-1.379,1.432,1.432,0,0,0-1.212.707c.012.132.025.252.025.384v3.922h-1.356V60.325a1.215,1.215,0,0,0-1.211-1.379,1.394,1.394,0,0,0-1.187.683v4.33H463.44Z"
       class="cls-3" />
    <path
       id="path56"
       d="M473.676,60.949a2.9,2.9,0,0,1,2.806-3.047,2.261,2.261,0,0,1,1.764.816V57.95h1.343v6.213c0,1.547-1.008,2.4-2.83,2.4a5.217,5.217,0,0,1-2.411-.575l.479-1.008a4.092,4.092,0,0,0,1.871.516c1.008,0,1.535-.456,1.535-1.331v-1.02A2.33,2.33,0,0,1,476.4,64,2.88,2.88,0,0,1,473.676,60.949Zm3.131,1.919a1.8,1.8,0,0,0,1.426-.66V59.689a1.864,1.864,0,0,0-1.426-.648,1.793,1.793,0,0,0-1.787,1.908A1.817,1.817,0,0,0,476.807,62.868Z"
       class="cls-3" />
    <path
       id="path58"
       d="M481.26,57.95h1.355v1.307a1.783,1.783,0,0,1,1.656-1.415,1.606,1.606,0,0,1,.587.12v1.187a1.926,1.926,0,0,0-.744-.143,1.649,1.649,0,0,0-1.5.995v3.958H481.26Z"
       class="cls-3" />
    <path
       id="path60"
       d="M488.219,55.563h1.319l-4.8,10.891h-1.319Z"
       class="cls-3" />
    <path
       id="path62"
       d="M489.673,57.95h1.474l1.668,4.39,1.667-4.39h1.427l-2.471,6.009h-1.307Z"
       class="cls-3" />
    <path
       id="path64"
       d="M499.45,57.854a3.114,3.114,0,1,1-3.022,3.106A3,3,0,0,1,499.45,57.854Zm1.68,3.119a1.7,1.7,0,1,0-3.359,0,1.7,1.7,0,1,0,3.359,0Z"
       class="cls-3" />
    <path
       id="path66"
       d="M505.235,63.959H503.88V55.384l1.355-.228Z"
       class="cls-3" />
    <path
       id="path68"
       d="M508.224,61.524a1.293,1.293,0,0,0,1.319,1.439,1.516,1.516,0,0,0,1.319-.743V57.95h1.356v6.009h-1.356v-1a2.2,2.2,0,0,1-1.919,1.092,2.016,2.016,0,0,1-2.075-2.147V57.95h1.356Z"
       class="cls-3" />
    <path
       id="path70"
       d="M513.888,57.95h1.355v.96a2.052,2.052,0,0,1,1.787-1.056,1.888,1.888,0,0,1,1.763,1.163,2.218,2.218,0,0,1,1.991-1.163,1.991,1.991,0,0,1,1.967,2.183v3.922H521.4V60.325a1.215,1.215,0,0,0-1.211-1.379,1.428,1.428,0,0,0-1.211.707c.011.132.023.252.023.384v3.922h-1.355V60.325a1.216,1.216,0,0,0-1.211-1.379,1.4,1.4,0,0,0-1.188.683v4.33h-1.355Z"
       class="cls-3" />
    <path
       id="path72"
       d="M527.183,64.079a3.056,3.056,0,0,1-3.059-3.119,2.96,2.96,0,0,1,2.927-3.106,2.885,2.885,0,0,1,2.842,3.095v.336h-4.438a1.837,1.837,0,0,0,1.8,1.643,1.952,1.952,0,0,0,1.427-.564l.887.827A3.472,3.472,0,0,1,527.183,64.079Zm-1.7-3.622h3.13a1.644,1.644,0,0,0-1.57-1.5A1.616,1.616,0,0,0,525.479,60.457Z"
       class="cls-3" />
    <path
       id="path74"
       d="M531.432,62.352a3.459,3.459,0,0,0,1.93.684c.72,0,1.212-.325,1.212-.8,0-.372-.252-.576-.828-.684l-1.067-.179c-1.163-.217-1.74-.756-1.74-1.656,0-1.127.924-1.859,2.328-1.859a4.227,4.227,0,0,1,2.362.72l-.636.887a3.286,3.286,0,0,0-1.81-.575c-.624,0-1.032.263-1.032.707,0,.384.216.552.852.66l1.056.192c1.2.228,1.774.78,1.774,1.679a2.2,2.2,0,0,1-2.446,1.955,4.031,4.031,0,0,1-2.591-.816Z"
       class="cls-3" />
  </g>
  <g
     id="g110">
    <path
       id="path78"
       d="M48.5,57.95h1.356v.96a2.048,2.048,0,0,1,1.787-1.056A1.887,1.887,0,0,1,53.4,59.017a2.219,2.219,0,0,1,1.992-1.163,1.991,1.991,0,0,1,1.966,2.183v3.922H56V60.325a1.215,1.215,0,0,0-1.211-1.379,1.428,1.428,0,0,0-1.211.707c.011.132.023.252.023.384v3.922H52.249V60.325a1.216,1.216,0,0,0-1.211-1.379,1.4,1.4,0,0,0-1.187.683v4.33H48.5Z"
       class="cls-3" />
    <path
       id="path80"
       d="M58.731,60.949A2.9,2.9,0,0,1,61.538,57.9a2.262,2.262,0,0,1,1.763.816V57.95h1.343v6.213c0,1.547-1.007,2.4-2.831,2.4a5.213,5.213,0,0,1-2.41-.575l.479-1.008a4.092,4.092,0,0,0,1.871.516c1.008,0,1.536-.456,1.536-1.331v-1.02A2.333,2.333,0,0,1,61.454,64,2.88,2.88,0,0,1,58.731,60.949Zm3.13,1.919a1.8,1.8,0,0,0,1.428-.66V59.689a1.868,1.868,0,0,0-1.428-.648,1.793,1.793,0,0,0-1.787,1.908A1.817,1.817,0,0,0,61.861,62.868Z"
       class="cls-3" />
    <path
       id="path82"
       d="M66.315,57.95H67.67v1.307a1.783,1.783,0,0,1,1.656-1.415,1.606,1.606,0,0,1,.587.12v1.187a1.93,1.93,0,0,0-.744-.143,1.649,1.649,0,0,0-1.5.995v3.958H66.315Z"
       class="cls-3" />
    <path
       id="path84"
       d="M73.273,55.563h1.32L69.8,66.454H68.476Z"
       class="cls-3" />
    <path
       id="path86"
       d="M77.534,57.854a3.114,3.114,0,1,1-3.023,3.106A3,3,0,0,1,77.534,57.854Zm1.679,3.119a1.7,1.7,0,1,0-3.359,0,1.7,1.7,0,1,0,3.359,0Z"
       class="cls-3" />
    <path
       id="path88"
       d="M81.963,57.95h1.355v1.307a1.783,1.783,0,0,1,1.656-1.415,1.606,1.606,0,0,1,.587.12v1.187a1.93,1.93,0,0,0-.744-.143,1.649,1.649,0,0,0-1.5.995v3.958H81.963Z"
       class="cls-3" />
    <path
       id="path90"
       d="M90.685,62.22l.815.816a3.125,3.125,0,0,1-2.35,1.043,3.107,3.107,0,0,1,0-6.213,3.239,3.239,0,0,1,2.4,1.007l-.839.876a1.99,1.99,0,0,0-1.511-.708,1.928,1.928,0,0,0,.036,3.838A1.844,1.844,0,0,0,90.685,62.22Z"
       class="cls-3" />
    <path
       id="path92"
       d="M92.667,55.384l1.355-.228v3.778a2.181,2.181,0,0,1,1.907-1.08A2.022,2.022,0,0,1,98,60v3.958H96.649V60.385a1.294,1.294,0,0,0-1.319-1.439,1.543,1.543,0,0,0-1.308.719v4.294H92.667Z"
       class="cls-3" />
    <path
       id="path94"
       d="M102.434,64.079a3.055,3.055,0,0,1-3.059-3.119,2.96,2.96,0,0,1,2.927-3.106,2.884,2.884,0,0,1,2.842,3.095v.336h-4.437a1.834,1.834,0,0,0,1.8,1.643,1.953,1.953,0,0,0,1.428-.564l.887.827A3.472,3.472,0,0,1,102.434,64.079Zm-1.7-3.622h3.131a1.646,1.646,0,0,0-1.571-1.5A1.615,1.615,0,0,0,100.73,60.457Z"
       class="cls-3" />
    <path
       id="path96"
       d="M106.683,62.352a3.459,3.459,0,0,0,1.93.684c.72,0,1.212-.325,1.212-.8,0-.372-.252-.576-.828-.684l-1.067-.179c-1.163-.217-1.739-.756-1.739-1.656,0-1.127.923-1.859,2.327-1.859a4.224,4.224,0,0,1,2.362.72l-.635.887a3.292,3.292,0,0,0-1.811-.575c-.624,0-1.032.263-1.032.707,0,.384.216.552.852.66l1.055.192c1.2.228,1.775.78,1.775,1.679a2.2,2.2,0,0,1-2.446,1.955,4.031,4.031,0,0,1-2.591-.816Z"
       class="cls-3" />
    <path
       id="path98"
       d="M112.958,59.03h-1.211V57.95h1.211V56.3l1.355-.288V57.95h1.68v1.08h-1.68v3.046c0,.587.228.816.84.816a2.485,2.485,0,0,0,.815-.145v1.14a4.253,4.253,0,0,1-1.163.168c-1.211,0-1.847-.576-1.847-1.679Z"
       class="cls-3" />
    <path
       id="path100"
       d="M117.182,57.95h1.355v1.307a1.784,1.784,0,0,1,1.655-1.415,1.6,1.6,0,0,1,.588.12v1.187a1.925,1.925,0,0,0-.743-.143,1.649,1.649,0,0,0-1.5.995v3.958h-1.355Z"
       class="cls-3" />
    <path
       id="path102"
       d="M121.4,62.232c0-1.08.875-1.763,2.29-1.763a3.708,3.708,0,0,1,1.619.372v-.66c0-.791-.455-1.2-1.379-1.2a4.137,4.137,0,0,0-1.751.468l-.48-.984a5.767,5.767,0,0,1,2.494-.612c1.56,0,2.459.792,2.459,2.183v3.922H125.3v-.612a2.508,2.508,0,0,1-1.787.708A1.894,1.894,0,0,1,121.4,62.232Zm2.494.875a2.141,2.141,0,0,0,1.415-.491v-.984a3.11,3.11,0,0,0-1.391-.288c-.767,0-1.248.336-1.248.864C122.665,62.76,123.146,63.107,123.889,63.107Z"
       class="cls-3" />
    <path
       id="path104"
       d="M128.857,59.03h-1.211V57.95h1.211V56.3l1.356-.288V57.95h1.679v1.08h-1.679v3.046c0,.587.227.816.84.816a2.494,2.494,0,0,0,.815-.145v1.14a4.26,4.26,0,0,1-1.164.168c-1.211,0-1.847-.576-1.847-1.679Z"
       class="cls-3" />
    <path
       id="path106"
       d="M135.745,57.854a3.114,3.114,0,1,1-3.022,3.106A3,3,0,0,1,135.745,57.854Zm1.679,3.119a1.7,1.7,0,1,0-3.358,0,1.7,1.7,0,1,0,3.358,0Z"
       class="cls-3" />
    <path
       id="path108"
       d="M140.175,57.95h1.354v1.307a1.785,1.785,0,0,1,1.656-1.415,1.6,1.6,0,0,1,.587.12v1.187a1.921,1.921,0,0,0-.743-.143,1.649,1.649,0,0,0-1.5.995v3.958h-1.354Z"
       class="cls-3" />
  </g>
  <g
     id="g154">
    <path
       id="path112"
       d="M263.7,148.486a3.2,3.2,0,1,1-3.227,3.2A3.152,3.152,0,0,1,263.7,148.486Zm1.343,3.2a1.357,1.357,0,1,0-2.675,0,1.353,1.353,0,1,0,2.675,0Z"
       class="cls-4" />
    <path
       id="path114"
       d="M268.178,148.582h1.943v1.4c.4-1.032.947-1.524,1.679-1.524a1.338,1.338,0,0,1,.648.156v1.668a2.115,2.115,0,0,0-.912-.192,1.708,1.708,0,0,0-1.415.767v3.91h-1.943Z"
       class="cls-4" />
    <path
       id="path116"
       d="M277.6,152.6l1.151,1.14a3.257,3.257,0,0,1-2.518,1.151,3.2,3.2,0,1,1,0-6.405,3.349,3.349,0,0,1,2.578,1.14l-1.187,1.187a1.619,1.619,0,0,0-1.32-.671,1.546,1.546,0,0,0,.048,3.07A1.5,1.5,0,0,0,277.6,152.6Z"
       class="cls-4" />
    <path
       id="path118"
       d="M279.77,146.2l1.943-.3v3.694a2.282,2.282,0,0,1,1.954-1.1,2,2,0,0,1,2.051,2.111v4.174h-1.943v-3.61a1.029,1.029,0,0,0-1.031-1.151,1.251,1.251,0,0,0-1.031.515v4.246H279.77Z"
       class="cls-4" />
    <path
       id="path120"
       d="M290.172,154.891a3.2,3.2,0,0,1-3.262-3.2,3.1,3.1,0,0,1,3.118-3.213,3.042,3.042,0,0,1,3.047,3.286v.42h-4.258a1.485,1.485,0,0,0,1.451,1.163,1.53,1.53,0,0,0,1.223-.516l1.284,1.067A3.608,3.608,0,0,1,290.172,154.891Zm-1.355-3.814h2.458a1.287,1.287,0,0,0-1.259-1.091A1.228,1.228,0,0,0,288.817,151.077Z"
       class="cls-4" />
    <path
       id="path122"
       d="M294.7,152.84a4,4,0,0,0,1.991.624c.552,0,.888-.192.888-.5,0-.24-.18-.372-.576-.444l-1.188-.216c-1.2-.228-1.822-.839-1.822-1.8,0-1.271.971-2.026,2.59-2.026a4.974,4.974,0,0,1,2.519.707l-.888,1.235a3.508,3.508,0,0,0-1.775-.527c-.468,0-.744.155-.744.431,0,.252.157.36.636.444l1.164.216c1.223.228,1.87.851,1.859,1.787.011,1.211-1.14,2.123-2.663,2.123a5.054,5.054,0,0,1-2.842-.756Z"
       class="cls-4" />
    <path
       id="path124"
       d="M301.177,150.081h-1.2v-1.5h1.2v-1.715l1.943-.395v2.11h1.654v1.5H303.12v2.4c0,.552.216.744.816.744a2.6,2.6,0,0,0,.791-.132v1.571a5.408,5.408,0,0,1-1.331.192c-1.463,0-2.219-.672-2.219-1.991Z"
       class="cls-4" />
    <path
       id="path126"
       d="M305.856,148.582H307.8v1.4c.395-1.032.947-1.524,1.679-1.524a1.338,1.338,0,0,1,.648.156v1.668a2.115,2.115,0,0,0-.912-.192,1.708,1.708,0,0,0-1.415.767v3.91h-1.944Z"
       class="cls-4" />
    <path
       id="path128"
       d="M310.753,153c0-1.14.888-1.8,2.411-1.8a4.026,4.026,0,0,1,1.439.288v-.5c0-.6-.4-.9-1.223-.9a4.6,4.6,0,0,0-1.739.432l-.672-1.355a6.846,6.846,0,0,1,2.843-.672c1.714,0,2.709.852,2.709,2.327v3.958H314.6v-.54a2.464,2.464,0,0,1-1.715.636A1.926,1.926,0,0,1,310.753,153Zm2.734.587a2.108,2.108,0,0,0,1.116-.311v-.792a4.639,4.639,0,0,0-1.068-.132c-.635,0-1,.216-1,.612S312.888,153.583,313.487,153.583Z"
       class="cls-4" />
    <path
       id="path130"
       d="M318.625,150.081h-1.2v-1.5h1.2v-1.715l1.942-.395v2.11h1.656v1.5h-1.656v2.4c0,.552.216.744.816.744a2.609,2.609,0,0,0,.792-.132v1.571a5.416,5.416,0,0,1-1.332.192c-1.463,0-2.218-.672-2.218-1.991Z"
       class="cls-4" />
    <path
       id="path132"
       d="M326.255,148.486a3.2,3.2,0,1,1-3.227,3.2A3.151,3.151,0,0,1,326.255,148.486Zm1.343,3.2a1.356,1.356,0,1,0-2.674,0,1.353,1.353,0,1,0,2.674,0Z"
       class="cls-4" />
    <path
       id="path134"
       d="M330.732,148.582h1.943v1.4c.4-1.032.948-1.524,1.679-1.524a1.338,1.338,0,0,1,.648.156v1.668a2.115,2.115,0,0,0-.912-.192,1.709,1.709,0,0,0-1.415.767v3.91h-1.943Z"
       class="cls-4" />
    <path
       id="path136"
       d="M270.986,160.943a1.1,1.1,0,0,1,2.195,0,1.1,1.1,0,0,1-2.195,0Zm2.063,8.228h-1.944v-6.189h1.944Z"
       class="cls-4" />
    <path
       id="path138"
       d="M274.562,162.982h1.943v1.008a2.282,2.282,0,0,1,1.954-1.1A2,2,0,0,1,280.51,165v4.174h-1.943v-3.61a1.029,1.029,0,0,0-1.031-1.151,1.251,1.251,0,0,0-1.031.515v4.246h-1.943Z"
       class="cls-4" />
    <path
       id="path140"
       d="M282.613,164.481h-1.2v-1.5h1.2v-1.715l1.943-.4v2.111h1.655v1.5h-1.655v2.4c0,.552.216.743.816.743a2.591,2.591,0,0,0,.791-.131v1.571a5.4,5.4,0,0,1-1.331.192c-1.463,0-2.219-.672-2.219-1.991Z"
       class="cls-4" />
    <path
       id="path142"
       d="M290.28,169.291a3.2,3.2,0,0,1-3.262-3.2,3.105,3.105,0,0,1,3.118-3.214,3.042,3.042,0,0,1,3.047,3.287v.419h-4.258a1.484,1.484,0,0,0,1.451,1.164,1.53,1.53,0,0,0,1.223-.516l1.284,1.067A3.608,3.608,0,0,1,290.28,169.291Zm-1.355-3.814h2.458a1.287,1.287,0,0,0-1.259-1.091A1.227,1.227,0,0,0,288.925,165.477Z"
       class="cls-4" />
    <path
       id="path144"
       d="M294.4,162.982h1.944v1.4c.395-1.032.947-1.524,1.679-1.524a1.325,1.325,0,0,1,.647.156v1.667a2.125,2.125,0,0,0-.911-.191,1.707,1.707,0,0,0-1.415.767v3.91H294.4Z"
       class="cls-4" />
    <path
       id="path146"
       d="M300.732,162.982v-.815c0-1.476.875-2.279,2.471-2.279a4.423,4.423,0,0,1,1.031.12V161.6a3.88,3.88,0,0,0-.743-.072c-.552,0-.816.216-.816.672v.779h1.559v1.5h-1.559v4.69h-1.943v-4.69h-1.283v-1.5Z"
       class="cls-4" />
    <path
       id="path148"
       d="M305.053,167.4c0-1.14.887-1.8,2.411-1.8a4.017,4.017,0,0,1,1.438.288v-.5c0-.6-.395-.9-1.222-.9a4.612,4.612,0,0,0-1.74.432l-.671-1.355a6.846,6.846,0,0,1,2.842-.672c1.715,0,2.71.852,2.71,2.327v3.958H308.9v-.54a2.46,2.46,0,0,1-1.714.636A1.926,1.926,0,0,1,305.053,167.4Zm2.734.588a2.117,2.117,0,0,0,1.115-.312v-.792a4.631,4.631,0,0,0-1.067-.132c-.635,0-1,.216-1,.612S307.188,167.984,307.787,167.984Z"
       class="cls-4" />
    <path
       id="path150"
       d="M316.583,167l1.151,1.14a3.257,3.257,0,0,1-2.518,1.151,3.2,3.2,0,1,1,0-6.405,3.35,3.35,0,0,1,2.578,1.14l-1.188,1.187a1.617,1.617,0,0,0-1.319-.672,1.546,1.546,0,0,0,.048,3.071A1.5,1.5,0,0,0,316.583,167Z"
       class="cls-4" />
    <path
       id="path152"
       d="M321.562,169.291a3.2,3.2,0,0,1-3.261-3.2,3.105,3.105,0,0,1,3.118-3.214,3.041,3.041,0,0,1,3.046,3.287v.419h-4.258a1.486,1.486,0,0,0,1.451,1.164,1.531,1.531,0,0,0,1.224-.516l1.283,1.067A3.606,3.606,0,0,1,321.562,169.291Zm-1.355-3.814h2.459a1.288,1.288,0,0,0-1.259-1.091A1.228,1.228,0,0,0,320.207,165.477Z"
       class="cls-4" />
  </g>
  <g
     id="g178">
    <path
       id="path156"
       d="M461.258,252.778h1.355v.959a2.051,2.051,0,0,1,1.787-1.055,1.886,1.886,0,0,1,1.763,1.163,2.218,2.218,0,0,1,1.991-1.163,1.991,1.991,0,0,1,1.967,2.183v3.922h-1.354v-3.634a1.217,1.217,0,0,0-1.212-1.38,1.43,1.43,0,0,0-1.211.708c.011.132.023.252.023.384v3.922h-1.355v-3.634a1.216,1.216,0,0,0-1.211-1.38,1.4,1.4,0,0,0-1.188.683v4.331h-1.355Z"
       class="cls-3" />
    <path
       id="path158"
       d="M471.494,255.776a2.9,2.9,0,0,1,2.807-3.046,2.257,2.257,0,0,1,1.762.815v-.767h1.344v6.213c0,1.547-1.008,2.4-2.831,2.4a5.214,5.214,0,0,1-2.41-.576l.48-1.007a4.086,4.086,0,0,0,1.871.516c1.006,0,1.535-.456,1.535-1.331v-1.02a2.336,2.336,0,0,1-1.835.852A2.88,2.88,0,0,1,471.494,255.776Zm3.13,1.919a1.8,1.8,0,0,0,1.428-.659v-2.519a1.865,1.865,0,0,0-1.428-.648,1.792,1.792,0,0,0-1.787,1.907A1.816,1.816,0,0,0,474.624,257.7Z"
       class="cls-3" />
    <path
       id="path160"
       d="M479.078,252.778h1.356v1.306a1.782,1.782,0,0,1,1.655-1.415,1.623,1.623,0,0,1,.587.12v1.188a1.907,1.907,0,0,0-.743-.144,1.648,1.648,0,0,0-1.5,1v3.958h-1.356Z"
       class="cls-3" />
    <path
       id="path162"
       d="M486.036,250.391h1.319l-4.8,10.89h-1.32Z"
       class="cls-3" />
    <path
       id="path164"
       d="M491.844,257.047l.815.816a3.126,3.126,0,0,1-2.35,1.044,3.107,3.107,0,0,1,0-6.213,3.236,3.236,0,0,1,2.4,1.007l-.839.876a1.985,1.985,0,0,0-1.512-.708,1.927,1.927,0,0,0,.037,3.837A1.844,1.844,0,0,0,491.844,257.047Z"
       class="cls-3" />
    <path
       id="path166"
       d="M496.429,258.907a3.056,3.056,0,0,1-3.059-3.119,2.96,2.96,0,0,1,2.927-3.106,2.884,2.884,0,0,1,2.842,3.094v.336H494.7a1.836,1.836,0,0,0,1.8,1.643,1.953,1.953,0,0,0,1.428-.564l.887.828A3.477,3.477,0,0,1,496.429,258.907Zm-1.7-3.622h3.129a1.644,1.644,0,0,0-1.571-1.5A1.612,1.612,0,0,0,494.726,255.285Z"
       class="cls-3" />
    <path
       id="path168"
       d="M500.521,252.778h1.333v.863a2.262,2.262,0,0,1,1.871-.911,2.882,2.882,0,0,1,2.721,3.058,2.912,2.912,0,0,1-2.818,3.058,2.246,2.246,0,0,1-1.751-.779v3.262h-1.356Zm1.356,1.762v2.507a1.84,1.84,0,0,0,1.439.659,1.923,1.923,0,0,0,0-3.837A1.766,1.766,0,0,0,501.877,254.54Z"
       class="cls-3" />
    <path
       id="path170"
       d="M507.854,250.211l1.355-.228v3.778a2.179,2.179,0,0,1,1.907-1.079,2.022,2.022,0,0,1,2.075,2.147v3.958h-1.355v-3.575a1.294,1.294,0,0,0-1.319-1.439,1.541,1.541,0,0,0-1.308.72v4.294h-1.355Z"
       class="cls-3" />
    <path
       id="path172"
       d="M514.538,257.059c0-1.079.875-1.763,2.291-1.763a3.711,3.711,0,0,1,1.619.372v-.66c0-.791-.456-1.2-1.38-1.2a4.159,4.159,0,0,0-1.751.468l-.479-.984a5.762,5.762,0,0,1,2.494-.611c1.56,0,2.459.791,2.459,2.183v3.922h-1.343v-.613a2.508,2.508,0,0,1-1.787.708A1.894,1.894,0,0,1,514.538,257.059Zm2.494.876a2.144,2.144,0,0,0,1.416-.492v-.984a3.11,3.11,0,0,0-1.391-.288c-.768,0-1.247.336-1.247.865C515.81,257.587,516.289,257.935,517.032,257.935Z"
       class="cls-3" />
    <path
       id="path174"
       d="M525.731,257.983a2.307,2.307,0,0,1-1.846.863,3.074,3.074,0,0,1,.084-6.116,2.292,2.292,0,0,1,1.751.791v-3.31l1.355-.228v8.8h-1.344Zm-1.438-.277a1.8,1.8,0,0,0,1.427-.659v-2.53a1.864,1.864,0,0,0-1.427-.648,1.923,1.923,0,0,0,0,3.837Z"
       class="cls-3" />
    <path
       id="path176"
       d="M528.758,252.778h1.354v.959a2.051,2.051,0,0,1,1.787-1.055,1.888,1.888,0,0,1,1.764,1.163,2.216,2.216,0,0,1,1.99-1.163,1.991,1.991,0,0,1,1.968,2.183v3.922h-1.355v-3.634a1.217,1.217,0,0,0-1.212-1.38,1.431,1.431,0,0,0-1.211.708c.011.132.024.252.024.384v3.922h-1.355v-3.634a1.217,1.217,0,0,0-1.212-1.38,1.4,1.4,0,0,0-1.188.683v4.331h-1.354Z"
       class="cls-3" />
  </g>
  <g
     id="g196">
    <path
       id="path180"
       d="M70.64,252.778H72v.959a2.049,2.049,0,0,1,1.787-1.055,1.888,1.888,0,0,1,1.763,1.163,2.218,2.218,0,0,1,1.991-1.163,1.991,1.991,0,0,1,1.967,2.183v3.922H78.147v-3.634a1.216,1.216,0,0,0-1.21-1.38,1.432,1.432,0,0,0-1.212.708c.012.132.024.252.024.384v3.922H74.394v-3.634a1.216,1.216,0,0,0-1.211-1.38,1.4,1.4,0,0,0-1.188.683v4.331H70.64Z"
       class="cls-3" />
    <path
       id="path182"
       d="M80.875,255.776a2.9,2.9,0,0,1,2.807-3.046,2.259,2.259,0,0,1,1.763.815v-.767h1.344v6.213c0,1.547-1.008,2.4-2.831,2.4a5.221,5.221,0,0,1-2.411-.576l.48-1.007a4.089,4.089,0,0,0,1.871.516c1.007,0,1.535-.456,1.535-1.331v-1.02a2.333,2.333,0,0,1-1.835.852A2.881,2.881,0,0,1,80.875,255.776Zm3.131,1.919a1.8,1.8,0,0,0,1.427-.659v-2.519a1.863,1.863,0,0,0-1.427-.648,1.792,1.792,0,0,0-1.787,1.907A1.816,1.816,0,0,0,84.006,257.7Z"
       class="cls-3" />
    <path
       id="path184"
       d="M88.459,252.778h1.356v1.306a1.783,1.783,0,0,1,1.655-1.415,1.628,1.628,0,0,1,.588.12v1.188a1.912,1.912,0,0,0-.744-.144,1.65,1.65,0,0,0-1.5,1v3.958H88.459Z"
       class="cls-3" />
    <path
       id="path186"
       d="M95.418,250.391h1.319l-4.8,10.89H90.621Z"
       class="cls-3" />
    <path
       id="path188"
       d="M97.436,252.778h1.355v1.306a1.783,1.783,0,0,1,1.655-1.415,1.628,1.628,0,0,1,.588.12v1.188a1.912,1.912,0,0,0-.744-.144,1.65,1.65,0,0,0-1.5,1v3.958H97.436Z"
       class="cls-3" />
    <path
       id="path190"
       d="M104.61,252.682a3.114,3.114,0,1,1-3.022,3.106A3,3,0,0,1,104.61,252.682Zm1.68,3.118a1.7,1.7,0,1,0-3.359,0,1.7,1.7,0,1,0,3.359,0Z"
       class="cls-3" />
    <path
       id="path192"
       d="M111.822,252.682a3.114,3.114,0,1,1-3.023,3.106A3,3,0,0,1,111.822,252.682ZM113.5,255.8a1.7,1.7,0,1,0-3.358,0,1.7,1.7,0,1,0,3.358,0Z"
       class="cls-3" />
    <path
       id="path194"
       d="M116.251,250.211l1.356-.228v5.361l2.5-2.566h1.546L118.9,255.56l2.914,3.227h-1.739l-2.47-2.771v2.771h-1.356Z"
       class="cls-3" />
  </g>
  <g
     id="g202">
    <line
       id="line198"
       y2="129.768"
       x2="297.638"
       y1="86.125"
       x1="297.638"
       class="cls-5" />
    <polygon
       id="polygon200"
       points="293.898 128.674 297.637 135.15 301.377 128.674 293.898 128.674"
       class="cls-3" />
  </g>
  <g
     id="g208">
    <polyline
       id="polyline204"
       points="297.638 183.946 297.638 205.376 95.852 205.376 95.852 224.59"
       class="cls-5" />
    <polygon
       id="polygon206"
       points="92.113 223.496 95.852 229.972 99.592 223.496 92.113 223.496"
       class="cls-3" />
  </g>
  <g
     id="g214">
    <polyline
       id="polyline210"
       points="297.638 183.946 297.638 205.376 499.423 205.376 499.423 224.59"
       class="cls-5" />
    <polygon
       id="polygon212"
       points="495.684 223.496 499.423 229.972 503.163 223.496 495.684 223.496"
       class="cls-3" />
  </g>
  <g
     id="g220">
    <polyline
       id="polyline216"
       points="95.852 86.125 95.852 159.437 218.202 159.437"
       class="cls-5" />
    <polygon
       id="polygon218"
       points="217.107 163.176 223.584 159.437 217.107 155.697 217.107 163.176"
       class="cls-3" />
  </g>
  <g
     id="g226">
    <polyline
       id="polyline222"
       points="499.424 86.125 499.424 159.437 377.074 159.437"
       class="cls-5" />
    <polygon
       id="polygon224"
       points="378.168 155.697 371.692 159.436 378.168 163.176 378.168 155.697"
       class="cls-3" />
  </g>
</svg>
