<?xml version="1.0" encoding="UTF-8" standalone="no"?>
<svg
   xmlns:dc="http://purl.org/dc/elements/1.1/"
   xmlns:cc="http://creativecommons.org/ns#"
   xmlns:rdf="http://www.w3.org/1999/02/22-rdf-syntax-ns#"
   xmlns:svg="http://www.w3.org/2000/svg"
   xmlns="http://www.w3.org/2000/svg"
   xmlns:sodipodi="http://sodipodi.sourceforge.net/DTD/sodipodi-0.dtd"
   xmlns:inkscape="http://www.inkscape.org/namespaces/inkscape"
   inkscape:version="1.0 (4035a4f, 2020-05-01)"
   sodipodi:docname="CRUSH placement groups.svg"
   id="svg522"
   version="1.1"
   viewBox="0 0 439.794 408.133"
   height="143.98mm"
   width="155.15mm">
  <metadata
     id="metadata526">
    <rdf:RDF>
      <cc:Work
         rdf:about="">
        <dc:format>image/svg+xml</dc:format>
        <dc:type
           rdf:resource="http://purl.org/dc/dcmitype/StillImage" />
        <dc:title></dc:title>
        <dc:subject>
          <rdf:Bag>
            <rdf:li>Ceph placement</rdf:li>
            <rdf:li>placement groups</rdf:li>
            <rdf:li>OSD placement</rdf:li>
            <rdf:li>ceph pool</rdf:li>
          </rdf:Bag>
        </dc:subject>
      </cc:Work>
    </rdf:RDF>
  </metadata>
  <sodipodi:namedview
     inkscape:current-layer="svg522"
     inkscape:window-maximized="0"
     inkscape:window-y="25"
     inkscape:window-x="0"
     inkscape:cy="272.08818"
     inkscape:cx="293.19684"
     inkscape:zoom="1.3506651"
     showgrid="false"
     id="namedview524"
     inkscape:window-height="480"
     inkscape:window-width="709"
     inkscape:pageshadow="2"
     inkscape:pageopacity="0"
     guidetolerance="10"
     gridtolerance="10"
     objecttolerance="10"
     borderopacity="1"
     bordercolor="#666666"
     pagecolor="#ffffff" />
  <defs
     id="defs12">
    <style
       id="style10">
      .cls-1 {
        fill: #f0f0f0;
      }

      .cls-2, .cls-7 {
        fill: #fff;
      }

      .cls-3 {
        fill: #06c;
      }

      .cls-4 {
        fill: #161616;
      }

      .cls-5 {
        fill: #c2e3c2;
      }

      .cls-6, .cls-9 {
        fill: none;
      }

      .cls-6 {
        stroke: #161616;
        stroke-miterlimit: 10;
      }

      .cls-7, .cls-9 {
        stroke: #5c5c5c;
        stroke-linecap: round;
        stroke-linejoin: round;
      }

      .cls-8 {
        fill: #d9e8f7;
      }

      .cls-10 {
        fill: #99c2eb;
      }
    </style>
  </defs>
  <g
     data-name="Layer 1"
     id="Layer_1">
    <rect
       id="rect14"
       height="70.866"
       width="439.794"
       y="162.483"
       class="cls-1" />
    <g
       id="g30">
      <g
         id="g20">
        <rect
           id="rect16"
           height="27.347"
           width="69.866"
           y="191.33"
           x="14.673"
           class="cls-2" />
        <path
           id="path18"
           transform="translate(-79.254 -25.278)"
           d="M163.293,217.107v26.347H94.427V217.107h68.866m1-1H93.427v28.347h70.866V216.107Z"
           class="cls-3" />
      </g>
      <g
         id="g28">
        <path
           id="path22"
           transform="translate(-79.254 -25.278)"
           d="M120.4,226.472h2.817a1.955,1.955,0,1,1,0,3.9h-1.737v2.4H120.4Zm2.646,3.015a1.06,1.06,0,1,0,.009-2.106h-1.575v2.106Z"
           class="cls-4" />
        <path
           id="path24"
           transform="translate(-79.254 -25.278)"
           d="M126.215,229.622a3.2,3.2,0,0,1,3.231-3.25,3.28,3.28,0,0,1,2.548,1.126l-.756.675a2.264,2.264,0,0,0-1.792-.828,2.287,2.287,0,0,0,.028,4.564,1.88,1.88,0,0,0,1.908-1.647H129.51v-.928h3.016v.352a3.056,3.056,0,0,1-3.07,3.186A3.211,3.211,0,0,1,126.215,229.622Z"
           class="cls-4" />
        <path
           id="path26"
           transform="translate(-79.254 -25.278)"
           d="M136.447,227.507l-1.116.477v-.874l1.477-.638h.621v6.3h-.982Z"
           class="cls-4" />
      </g>
    </g>
    <g
       id="g42">
      <rect
         id="rect32"
         height="28.346"
         width="70.866"
         y="190.83"
         x="99.33"
         class="cls-3" />
      <g
         id="g40">
        <path
           id="path34"
           transform="translate(-79.254 -25.278)"
           d="M204.531,226.472h2.819a1.955,1.955,0,1,1,0,3.9h-1.738v2.4h-1.081Zm2.647,3.015a1.06,1.06,0,1,0,.01-2.106h-1.576v2.106Z"
           class="cls-2" />
        <path
           id="path36"
           transform="translate(-79.254 -25.278)"
           d="M210.345,229.622a3.206,3.206,0,0,1,3.232-3.25,3.282,3.282,0,0,1,2.548,1.126l-.757.675a2.261,2.261,0,0,0-1.791-.828,2.287,2.287,0,0,0,.028,4.564,1.881,1.881,0,0,0,1.908-1.647H213.64v-.928h3.016v.352a3.056,3.056,0,0,1-3.07,3.186A3.212,3.212,0,0,1,210.345,229.622Z"
           class="cls-2" />
        <path
           id="path38"
           transform="translate(-79.254 -25.278)"
           d="M219.588,232.063l2.584-2.7a1.668,1.668,0,0,0,.612-1.206,1.024,1.024,0,0,0-1.143-.919A2.26,2.26,0,0,0,220,228l-.558-.675a3.206,3.206,0,0,1,2.214-.955c1.234,0,2.08.7,2.08,1.729a2.391,2.391,0,0,1-.891,1.764l-2.008,2.072,3.017-.01v.847h-4.268Z"
           class="cls-2" />
      </g>
    </g>
    <g
       id="g58">
      <g
         id="g48">
        <rect
           id="rect44"
           height="27.347"
           width="69.866"
           y="191.33"
           x="184.985"
           class="cls-2" />
        <path
           id="path46"
           transform="translate(-79.254 -25.278)"
           d="M333.606,217.107v26.347H264.74V217.107h68.866m1-1H263.74v28.347h70.866V216.107Z"
           class="cls-3" />
      </g>
      <g
         id="g56">
        <path
           id="path50"
           transform="translate(-79.254 -25.278)"
           d="M289.522,226.472h2.817a1.955,1.955,0,1,1,0,3.9H290.6v2.4h-1.08Zm2.646,3.015a1.06,1.06,0,1,0,.009-2.106H290.6v2.106Z"
           class="cls-4" />
        <path
           id="path52"
           transform="translate(-79.254 -25.278)"
           d="M295.335,229.622a3.205,3.205,0,0,1,3.232-3.25,3.277,3.277,0,0,1,2.547,1.126l-.755.675a2.267,2.267,0,0,0-1.792-.828,2.287,2.287,0,0,0,.027,4.564,1.88,1.88,0,0,0,1.908-1.647H298.63v-.928h3.016v.352a3.056,3.056,0,0,1-3.07,3.186A3.211,3.211,0,0,1,295.335,229.622Z"
           class="cls-4" />
        <path
           id="path54"
           transform="translate(-79.254 -25.278)"
           d="M304.434,231.927l.657-.63a2.045,2.045,0,0,0,1.656.711c.82,0,1.378-.423,1.378-1.044A1,1,0,0,0,307,230.01h-.774v-.828h.693a.915.915,0,0,0,1.009-.937,1.093,1.093,0,0,0-1.2-1,1.933,1.933,0,0,0-1.567.747l-.667-.621a3.036,3.036,0,0,1,2.26-1,1.916,1.916,0,0,1,2.152,1.775,1.527,1.527,0,0,1-1.188,1.43,1.567,1.567,0,0,1,1.395,1.45c0,1.072-.99,1.845-2.349,1.845A3.166,3.166,0,0,1,304.434,231.927Z"
           class="cls-4" />
      </g>
    </g>
    <g
       id="g74">
      <g
         id="g64">
        <rect
           id="rect60"
           height="27.347"
           width="69.866"
           y="191.33"
           x="270.098"
           class="cls-2" />
        <path
           id="path62"
           transform="translate(-79.254 -25.278)"
           d="M418.719,217.107v26.347H349.852V217.107h68.867m1-1H348.852v28.347h70.867V216.107Z"
           class="cls-3" />
      </g>
      <g
         id="g72">
        <path
           id="path66"
           transform="translate(-79.254 -25.278)"
           d="M381.405,232.206a.631.631,0,1,1,1.261,0,.631.631,0,1,1-1.261,0Z"
           class="cls-4" />
        <path
           id="path68"
           transform="translate(-79.254 -25.278)"
           d="M383.655,232.206a.631.631,0,1,1,1.261,0,.631.631,0,1,1-1.261,0Z"
           class="cls-4" />
        <path
           id="path70"
           transform="translate(-79.254 -25.278)"
           d="M385.905,232.206a.631.631,0,1,1,1.261,0,.631.631,0,1,1-1.261,0Z"
           class="cls-4" />
      </g>
    </g>
    <g
       id="g90">
      <g
         id="g80">
        <rect
           id="rect76"
           height="27.347"
           width="69.865"
           y="191.33"
           x="355.255"
           class="cls-2" />
        <path
           id="path78"
           transform="translate(-79.254 -25.278)"
           d="M503.875,217.107v26.347H435.009V217.107h68.866m1-1H434.009v28.347h70.866V216.107Z"
           class="cls-3" />
      </g>
      <g
         id="g88">
        <path
           id="path82"
           transform="translate(-79.254 -25.278)"
           d="M459.1,226.472h2.818a1.955,1.955,0,1,1,0,3.9h-1.738v2.4H459.1Zm2.646,3.015a1.06,1.06,0,1,0,.01-2.106h-1.576v2.106Z"
           class="cls-4" />
        <path
           id="path84"
           transform="translate(-79.254 -25.278)"
           d="M464.911,229.622a3.205,3.205,0,0,1,3.232-3.25,3.284,3.284,0,0,1,2.548,1.126l-.756.675a2.267,2.267,0,0,0-1.792-.828,2.287,2.287,0,0,0,.027,4.564,1.879,1.879,0,0,0,1.908-1.647h-1.872v-.928h3.016v.352a3.056,3.056,0,0,1-3.07,3.186A3.211,3.211,0,0,1,464.911,229.622Z"
           class="cls-4" />
        <path
           id="path86"
           transform="translate(-79.254 -25.278)"
           d="M474.45,226.472H475.5l3.286,4.582-.017-4.582h1.016v6.3h-.964l-3.375-4.708.018,4.708H474.45Z"
           class="cls-4" />
      </g>
    </g>
    <g
       id="g102">
      <path
         id="path92"
         transform="translate(-79.254 -25.278)"
         d="M96.866,197.623h3.418a2.286,2.286,0,1,1,0,4.558h-1.7v2.438H96.866Zm3.109,3.189c.7,0,1.039-.38,1.039-.89s-.34-.88-1.029-.88h-1.4v1.77Z"
         class="cls-4" />
      <path
         id="path94"
         transform="translate(-79.254 -25.278)"
         d="M103.587,202.051a2.689,2.689,0,1,1,2.689,2.668A2.623,2.623,0,0,1,103.587,202.051Zm3.8,0a1.126,1.126,0,1,0-1.109,1.319A1.18,1.18,0,0,0,107.385,202.051Z"
         class="cls-4" />
      <path
         id="path96"
         transform="translate(-79.254 -25.278)"
         d="M109.767,202.051a2.689,2.689,0,1,1,2.688,2.668A2.623,2.623,0,0,1,109.767,202.051Zm3.8,0a1.126,1.126,0,1,0-1.11,1.319A1.18,1.18,0,0,0,113.565,202.051Z"
         class="cls-4" />
      <path
         id="path98"
         transform="translate(-79.254 -25.278)"
         d="M116.177,197.5l1.618-.25v7.366h-1.618Z"
         class="cls-4" />
      <path
         id="path100"
         transform="translate(-79.254 -25.278)"
         d="M122.276,199.222l-1.379.57v-1.359l1.948-.81h.97v7h-1.539Z"
         class="cls-4" />
    </g>
  </g>
  <g
     data-name="Layer 8"
     id="Layer_8">
    <g
       id="g153">
      <rect
         id="rect105"
         height="11.339"
         width="11.339"
         y="396.794"
         x="92.72"
         class="cls-3" />
      <g
         id="g151">
        <path
           id="path107"
           transform="translate(-79.254 -25.278)"
           d="M189.071,424.333h1.252l2.44,6.3H191.6l-.649-1.765h-2.584l-.647,1.765H186.6Zm1.585,3.692-.99-2.666-.981,2.666Z"
           class="cls-4" />
        <path
           id="path109"
           transform="translate(-79.254 -25.278)"
           d="M193.039,430.112l.478-.674a2.621,2.621,0,0,0,1.449.512c.54,0,.909-.252.909-.612,0-.278-.188-.423-.63-.513l-.792-.134c-.882-.163-1.305-.568-1.305-1.243,0-.846.693-1.395,1.747-1.395a3.246,3.246,0,0,1,1.773.54l-.477.675a2.446,2.446,0,0,0-1.36-.432c-.468,0-.774.2-.774.522,0,.288.162.414.631.5l.8.153c.9.162,1.333.576,1.333,1.252a1.656,1.656,0,0,1-1.846,1.467A3.016,3.016,0,0,1,193.039,430.112Z"
           class="cls-4" />
        <path
           id="path111"
           transform="translate(-79.254 -25.278)"
           d="M197.351,430.112l.477-.674a2.621,2.621,0,0,0,1.45.512c.54,0,.909-.252.909-.612,0-.278-.189-.423-.63-.513l-.792-.134c-.883-.163-1.306-.568-1.306-1.243,0-.846.694-1.395,1.747-1.395a3.249,3.249,0,0,1,1.774.54l-.478.675a2.443,2.443,0,0,0-1.359-.432c-.468,0-.775.2-.775.522,0,.288.162.414.63.5l.8.153c.9.162,1.332.576,1.332,1.252a1.656,1.656,0,0,1-1.845,1.467A3.014,3.014,0,0,1,197.351,430.112Z"
           class="cls-4" />
        <path
           id="path113"
           transform="translate(-79.254 -25.278)"
           d="M201.941,424.585a.63.63,0,1,1,.63.621A.624.624,0,0,1,201.941,424.585Zm.117,1.539h1.017v4.511h-1.017Z"
           class="cls-4" />
        <path
           id="path115"
           transform="translate(-79.254 -25.278)"
           d="M204.633,432.165l.351-.747a3.108,3.108,0,0,0,1.413.378c.757,0,1.152-.342,1.152-1v-.766a1.756,1.756,0,0,1-1.386.631,2.3,2.3,0,0,1,.072-4.573,1.69,1.69,0,0,1,1.324.6v-.568h1.008V430.8c0,1.161-.756,1.81-2.125,1.81A3.92,3.92,0,0,1,204.633,432.165Zm2.916-2.845v-1.89a1.4,1.4,0,0,0-1.071-.487,1.437,1.437,0,1,0,1.071,2.377Z"
           class="cls-4" />
        <path
           id="path117"
           transform="translate(-79.254 -25.278)"
           d="M209.816,426.124h1.017v.738a1.643,1.643,0,0,1,1.423-.809,1.522,1.522,0,0,1,1.575,1.611v2.971h-1.026v-2.683a.971.971,0,0,0-.99-1.08,1.126,1.126,0,0,0-.982.549v3.214h-1.017Z"
           class="cls-4" />
        <path
           id="path119"
           transform="translate(-79.254 -25.278)"
           d="M214.847,428.384a2.226,2.226,0,0,1,2.2-2.331,2.167,2.167,0,0,1,2.134,2.331v.243h-3.331a1.379,1.379,0,0,0,1.349,1.261,1.5,1.5,0,0,0,1.072-.423l.667.6a2.617,2.617,0,0,1-1.783.657A2.29,2.29,0,0,1,214.847,428.384Zm3.367-.387a1.227,1.227,0,0,0-1.18-1.116A1.211,1.211,0,0,0,215.856,428Z"
           class="cls-4" />
        <path
           id="path121"
           transform="translate(-79.254 -25.278)"
           d="M220,428.384a2.185,2.185,0,0,1,2.107-2.3,1.726,1.726,0,0,1,1.314.585V424.18l1.018-.18v6.635h-1.008v-.594a1.763,1.763,0,0,1-1.4.639A2.159,2.159,0,0,1,220,428.384Zm3.421.945v-1.9a1.4,1.4,0,0,0-1.071-.487,1.444,1.444,0,0,0,0,2.881A1.324,1.324,0,0,0,223.424,429.329Z"
           class="cls-4" />
        <path
           id="path123"
           transform="translate(-79.254 -25.278)"
           d="M227.852,424.333h2.818a1.955,1.955,0,1,1,0,3.9h-1.737v2.4h-1.081Zm2.647,3.016a1.061,1.061,0,1,0,.009-2.107h-1.575v2.107Z"
           class="cls-4" />
        <path
           id="path125"
           transform="translate(-79.254 -25.278)"
           d="M233.836,424.18l1.018-.18v6.635h-1.018Z"
           class="cls-4" />
        <path
           id="path127"
           transform="translate(-79.254 -25.278)"
           d="M235.871,429.338c0-.81.666-1.323,1.729-1.323a2.663,2.663,0,0,1,1.215.288v-.5c0-.594-.342-.9-1.035-.9a3.127,3.127,0,0,0-1.315.351l-.36-.738a4.447,4.447,0,0,1,1.873-.459c1.178,0,1.845.594,1.845,1.638v2.944h-1.008v-.468a1.822,1.822,0,0,1-1.341.549A1.437,1.437,0,0,1,235.871,429.338Zm1.881.657a1.568,1.568,0,0,0,1.063-.378v-.728a2.313,2.313,0,0,0-1.035-.217c-.585,0-.955.243-.955.648S237.186,430,237.752,430Z"
           class="cls-4" />
        <path
           id="path129"
           transform="translate(-79.254 -25.278)"
           d="M240.847,428.384a2.275,2.275,0,0,1,2.278-2.331,2.434,2.434,0,0,1,1.8.765l-.63.657a1.492,1.492,0,0,0-1.135-.532,1.449,1.449,0,0,0,0,2.881,1.511,1.511,0,0,0,1.135-.521l.63.647a2.435,2.435,0,0,1-1.8.766A2.271,2.271,0,0,1,240.847,428.384Z"
           class="cls-4" />
        <path
           id="path131"
           transform="translate(-79.254 -25.278)"
           d="M245.554,428.384a2.226,2.226,0,0,1,2.2-2.331,2.167,2.167,0,0,1,2.134,2.331v.243h-3.331a1.38,1.38,0,0,0,1.35,1.261,1.5,1.5,0,0,0,1.071-.423l.667.6a2.617,2.617,0,0,1-1.783.657A2.29,2.29,0,0,1,245.554,428.384Zm3.367-.387a1.227,1.227,0,0,0-1.18-1.116A1.211,1.211,0,0,0,246.563,428Z"
           class="cls-4" />
        <path
           id="path133"
           transform="translate(-79.254 -25.278)"
           d="M250.918,426.124h1.018v.712a1.542,1.542,0,0,1,1.332-.783,1.406,1.406,0,0,1,1.333.864,1.681,1.681,0,0,1,1.494-.864,1.491,1.491,0,0,1,1.476,1.629v2.953h-1.017v-2.728a.912.912,0,0,0-.909-1.035,1.014,1.014,0,0,0-.9.54,2.45,2.45,0,0,1,.019.27v2.953h-1.026v-2.728a.913.913,0,0,0-.91-1.035,1.014,1.014,0,0,0-.891.522v3.241h-1.018Z"
           class="cls-4" />
        <path
           id="path135"
           transform="translate(-79.254 -25.278)"
           d="M258.6,428.384a2.226,2.226,0,0,1,2.2-2.331,2.167,2.167,0,0,1,2.134,2.331v.243H259.6a1.38,1.38,0,0,0,1.35,1.261,1.5,1.5,0,0,0,1.071-.423l.667.6a2.617,2.617,0,0,1-1.783.657A2.29,2.29,0,0,1,258.6,428.384Zm3.367-.387a1.227,1.227,0,0,0-1.18-1.116A1.211,1.211,0,0,0,259.6,428Z"
           class="cls-4" />
        <path
           id="path137"
           transform="translate(-79.254 -25.278)"
           d="M263.959,426.124h1.018v.738a1.643,1.643,0,0,1,1.423-.809,1.522,1.522,0,0,1,1.575,1.611v2.971h-1.027v-2.683a.971.971,0,0,0-.99-1.08,1.123,1.123,0,0,0-.981.549v3.214h-1.018Z"
           class="cls-4" />
        <path
           id="path139"
           transform="translate(-79.254 -25.278)"
           d="M269.755,429.465v-2.53h-.9v-.811h.9v-1.242l1.018-.216v1.458h1.251v.811h-1.251v2.3c0,.442.171.613.63.613a1.916,1.916,0,0,0,.612-.109v.856a3.21,3.21,0,0,1-.873.126C270.232,430.725,269.755,430.293,269.755,429.465Z"
           class="cls-4" />
        <path
           id="path141"
           transform="translate(-79.254 -25.278)"
           d="M274.777,427.484a3.2,3.2,0,0,1,3.232-3.25,3.283,3.283,0,0,1,2.548,1.125l-.757.675a2.264,2.264,0,0,0-1.791-.828,2.287,2.287,0,0,0,.026,4.565,1.883,1.883,0,0,0,1.91-1.648h-1.874V427.2h3.017v.352a3.057,3.057,0,0,1-3.07,3.187A3.212,3.212,0,0,1,274.777,427.484Z"
           class="cls-4" />
        <path
           id="path143"
           transform="translate(-79.254 -25.278)"
           d="M282.165,426.124h1.018v.973a1.354,1.354,0,0,1,1.242-1.054,1.206,1.206,0,0,1,.441.091v.891a1.619,1.619,0,0,0-.558-.108,1.226,1.226,0,0,0-1.125.747v2.971h-1.018Z"
           class="cls-4" />
        <path
           id="path145"
           transform="translate(-79.254 -25.278)"
           d="M285.5,428.384a2.265,2.265,0,1,1,2.269,2.332A2.247,2.247,0,0,1,285.5,428.384Zm3.53,0a1.279,1.279,0,1,0-1.261,1.468A1.339,1.339,0,0,0,289.025,428.384Z"
           class="cls-4" />
        <path
           id="path147"
           transform="translate(-79.254 -25.278)"
           d="M291.039,429.1v-2.972h1.027V428.8a.974.974,0,0,0,.99,1.09,1.126,1.126,0,0,0,.981-.54v-3.224h1.018v4.511h-1.018v-.73a1.625,1.625,0,0,1-1.431.8A1.525,1.525,0,0,1,291.039,429.1Z"
           class="cls-4" />
        <path
           id="path149"
           transform="translate(-79.254 -25.278)"
           d="M296.313,426.124h1v.64a1.739,1.739,0,0,1,1.4-.675,2.309,2.309,0,0,1-.063,4.591,1.7,1.7,0,0,1-1.324-.576v2.413h-1.017Zm3.439,2.26a1.364,1.364,0,0,0-1.342-1.441,1.338,1.338,0,0,0-1.08.5v1.881a1.39,1.39,0,0,0,1.08.5A1.362,1.362,0,0,0,299.752,428.384Z"
           class="cls-4" />
      </g>
    </g>
    <g
       id="g179">
      <rect
         id="rect155"
         height="11.339"
         width="11.339"
         y="396.794"
         class="cls-5" />
      <g
         id="g177">
        <path
           id="path157"
           transform="translate(-79.254 -25.278)"
           d="M95.9,424.333h2.818a1.955,1.955,0,1,1,0,3.9H96.98v2.4H95.9Zm2.647,3.016a1.061,1.061,0,1,0,.009-2.107H96.98v2.107Z"
           class="cls-4" />
        <path
           id="path159"
           transform="translate(-79.254 -25.278)"
           d="M101.884,426.124H102.9v.973a1.354,1.354,0,0,1,1.242-1.054,1.206,1.206,0,0,1,.441.091v.891a1.619,1.619,0,0,0-.558-.108,1.224,1.224,0,0,0-1.125.747v2.971h-1.018Z"
           class="cls-4" />
        <path
           id="path161"
           transform="translate(-79.254 -25.278)"
           d="M105.294,424.585a.631.631,0,1,1,.631.621A.624.624,0,0,1,105.294,424.585Zm.117,1.539h1.018v4.511h-1.018Z"
           class="cls-4" />
        <path
           id="path163"
           transform="translate(-79.254 -25.278)"
           d="M107.689,426.124h1.017v.712a1.542,1.542,0,0,1,1.332-.783,1.4,1.4,0,0,1,1.333.864,1.683,1.683,0,0,1,1.494-.864,1.492,1.492,0,0,1,1.477,1.629v2.953h-1.018v-2.728a.911.911,0,0,0-.909-1.035,1.012,1.012,0,0,0-.9.54,2.448,2.448,0,0,1,.018.27v2.953h-1.026v-2.728a.912.912,0,0,0-.909-1.035,1.017,1.017,0,0,0-.892.522v3.241h-1.017Z"
           class="cls-4" />
        <path
           id="path165"
           transform="translate(-79.254 -25.278)"
           d="M115.339,429.338c0-.81.666-1.323,1.729-1.323a2.659,2.659,0,0,1,1.214.288v-.5c0-.594-.341-.9-1.035-.9a3.12,3.12,0,0,0-1.314.351l-.361-.738a4.454,4.454,0,0,1,1.874-.459c1.178,0,1.845.594,1.845,1.638v2.944h-1.009v-.468a1.818,1.818,0,0,1-1.34.549A1.437,1.437,0,0,1,115.339,429.338Zm1.881.657a1.563,1.563,0,0,0,1.062-.378v-.728a2.308,2.308,0,0,0-1.035-.217c-.585,0-.954.243-.954.648S116.654,430,117.22,430Z"
           class="cls-4" />
        <path
           id="path167"
           transform="translate(-79.254 -25.278)"
           d="M120.523,426.124h1.017v.973a1.355,1.355,0,0,1,1.242-1.054,1.211,1.211,0,0,1,.442.091v.891a1.621,1.621,0,0,0-.559-.108,1.226,1.226,0,0,0-1.125.747v2.971h-1.017Z"
           class="cls-4" />
        <path
           id="path169"
           transform="translate(-79.254 -25.278)"
           d="M123.879,432.543v-.882a1.793,1.793,0,0,0,.4.036.727.727,0,0,0,.728-.513l.207-.5-1.7-4.556h1.125l1.152,3.341,1.252-3.341h1.116l-2.161,5.294a1.525,1.525,0,0,1-1.611,1.189A2.145,2.145,0,0,1,123.879,432.543Z"
           class="cls-4" />
        <path
           id="path171"
           transform="translate(-79.254 -25.278)"
           d="M130.755,427.484a3.188,3.188,0,1,1,3.188,3.25A3.19,3.19,0,0,1,130.755,427.484Zm5.267,0a2.092,2.092,0,1,0-2.079,2.278A2.143,2.143,0,0,0,136.022,427.484Z"
           class="cls-4" />
        <path
           id="path173"
           transform="translate(-79.254 -25.278)"
           d="M137.811,429.717l.585-.793a3.153,3.153,0,0,0,2.125.919c.828,0,1.4-.424,1.4-1.009,0-.513-.306-.756-1.144-.9l-1.161-.2c-1.089-.2-1.62-.738-1.62-1.6,0-1.144.909-1.9,2.322-1.9a4.206,4.206,0,0,1,2.531.81l-.55.811a3.3,3.3,0,0,0-2.017-.73c-.756,0-1.259.388-1.259.9,0,.458.288.693.971.8l1.126.19c1.27.225,1.864.783,1.864,1.737,0,1.161-1.027,1.981-2.53,1.981A3.972,3.972,0,0,1,137.811,429.717Z"
           class="cls-4" />
        <path
           id="path175"
           transform="translate(-79.254 -25.278)"
           d="M144.084,424.333h2.305a3.151,3.151,0,1,1,0,6.3h-2.305Zm2.332,5.365a2.223,2.223,0,0,0,0-4.428h-1.251V429.7Z"
           class="cls-4" />
      </g>
    </g>
    <g
       id="g215">
      <path
         id="path181"
         transform="translate(-79.254 -25.278)"
         d="M325.074,424.332h2.818a1.955,1.955,0,1,1,0,3.9h-1.737v2.4h-1.081Zm2.647,3.016a1.061,1.061,0,1,0,.009-2.107h-1.575v2.107Z"
         class="cls-4" />
      <path
         id="path183"
         transform="translate(-79.254 -25.278)"
         d="M330.888,427.483a3.2,3.2,0,0,1,3.231-3.25,3.276,3.276,0,0,1,2.548,1.126l-.756.674a2.266,2.266,0,0,0-1.792-.828,2.287,2.287,0,0,0,.028,4.565,1.881,1.881,0,0,0,1.908-1.648h-1.872v-.928H337.2v.352a3.056,3.056,0,0,1-3.069,3.187A3.212,3.212,0,0,1,330.888,427.483Z"
         class="cls-4" />
      <path
         id="path185"
         transform="translate(-79.254 -25.278)"
         d="M340.482,426.24h3.781v.784h-3.781Zm0,1.621h3.781v.784h-3.781Z"
         class="cls-4" />
      <path
         id="path187"
         transform="translate(-79.254 -25.278)"
         d="M347.853,424.332h2.817a1.955,1.955,0,1,1,0,3.9h-1.737v2.4h-1.08Zm2.646,3.016a1.061,1.061,0,1,0,.009-2.107h-1.575v2.107Z"
         class="cls-4" />
      <path
         id="path189"
         transform="translate(-79.254 -25.278)"
         d="M353.837,424.179l1.018-.18v6.635h-1.018Z"
         class="cls-4" />
      <path
         id="path191"
         transform="translate(-79.254 -25.278)"
         d="M355.871,429.337c0-.81.666-1.323,1.729-1.323a2.663,2.663,0,0,1,1.215.288v-.5c0-.594-.342-.9-1.035-.9a3.127,3.127,0,0,0-1.315.351l-.359-.738a4.439,4.439,0,0,1,1.872-.459c1.179,0,1.845.594,1.845,1.638v2.944h-1.008v-.468a1.822,1.822,0,0,1-1.341.549A1.437,1.437,0,0,1,355.871,429.337Zm1.882.657a1.567,1.567,0,0,0,1.062-.378v-.728a2.308,2.308,0,0,0-1.035-.217c-.585,0-.955.243-.955.648S357.186,429.994,357.753,429.994Z"
         class="cls-4" />
      <path
         id="path193"
         transform="translate(-79.254 -25.278)"
         d="M360.849,428.383a2.275,2.275,0,0,1,2.277-2.331,2.436,2.436,0,0,1,1.8.765l-.631.657a1.489,1.489,0,0,0-1.134-.531,1.448,1.448,0,0,0,0,2.88,1.509,1.509,0,0,0,1.134-.521l.631.647a2.437,2.437,0,0,1-1.8.766A2.27,2.27,0,0,1,360.849,428.383Z"
         class="cls-4" />
      <path
         id="path195"
         transform="translate(-79.254 -25.278)"
         d="M365.556,428.383a2.226,2.226,0,0,1,2.2-2.331,2.167,2.167,0,0,1,2.134,2.331v.243h-3.331a1.38,1.38,0,0,0,1.35,1.261,1.5,1.5,0,0,0,1.072-.423l.666.6a2.611,2.611,0,0,1-1.782.657A2.289,2.289,0,0,1,365.556,428.383Zm3.366-.387a1.226,1.226,0,0,0-1.179-1.116A1.212,1.212,0,0,0,366.564,428Z"
         class="cls-4" />
      <path
         id="path197"
         transform="translate(-79.254 -25.278)"
         d="M370.919,426.123h1.018v.712a1.542,1.542,0,0,1,1.332-.783,1.406,1.406,0,0,1,1.333.864,1.68,1.68,0,0,1,1.494-.864,1.491,1.491,0,0,1,1.476,1.629v2.953h-1.017v-2.728a.913.913,0,0,0-.909-1.035,1.013,1.013,0,0,0-.9.54c.009.09.018.18.018.27v2.953h-1.025v-2.728a.913.913,0,0,0-.911-1.035,1.013,1.013,0,0,0-.89.522v3.241h-1.018Z"
         class="cls-4" />
      <path
         id="path199"
         transform="translate(-79.254 -25.278)"
         d="M378.6,428.383a2.226,2.226,0,0,1,2.2-2.331,2.167,2.167,0,0,1,2.134,2.331v.243H379.6a1.381,1.381,0,0,0,1.351,1.261,1.5,1.5,0,0,0,1.071-.423l.666.6a2.608,2.608,0,0,1-1.782.657A2.29,2.29,0,0,1,378.6,428.383Zm3.367-.387a1.227,1.227,0,0,0-1.18-1.116A1.21,1.21,0,0,0,379.605,428Z"
         class="cls-4" />
      <path
         id="path201"
         transform="translate(-79.254 -25.278)"
         d="M383.96,426.123h1.018v.738a1.642,1.642,0,0,1,1.422-.809,1.522,1.522,0,0,1,1.576,1.611v2.971h-1.027v-2.683a.971.971,0,0,0-.99-1.08,1.122,1.122,0,0,0-.981.549v3.214H383.96Z"
         class="cls-4" />
      <path
         id="path203"
         transform="translate(-79.254 -25.278)"
         d="M389.756,429.464v-2.53h-.9v-.811h.9v-1.242l1.018-.216v1.458h1.251v.811h-1.251v2.3c0,.442.171.613.63.613a1.916,1.916,0,0,0,.612-.109v.856a3.2,3.2,0,0,1-.873.126C390.234,430.724,389.756,430.292,389.756,429.464Z"
         class="cls-4" />
      <path
         id="path205"
         transform="translate(-79.254 -25.278)"
         d="M394.778,427.483a3.205,3.205,0,0,1,3.232-3.25,3.281,3.281,0,0,1,2.548,1.126l-.757.674a2.264,2.264,0,0,0-1.791-.828,2.287,2.287,0,0,0,.027,4.565,1.882,1.882,0,0,0,1.909-1.648h-1.874v-.928h3.017v.352a3.057,3.057,0,0,1-3.07,3.187A3.212,3.212,0,0,1,394.778,427.483Z"
         class="cls-4" />
      <path
         id="path207"
         transform="translate(-79.254 -25.278)"
         d="M402.167,426.123h1.017v.973a1.354,1.354,0,0,1,1.242-1.054,1.2,1.2,0,0,1,.441.091v.891a1.618,1.618,0,0,0-.557-.108,1.228,1.228,0,0,0-1.126.747v2.971h-1.017Z"
         class="cls-4" />
      <path
         id="path209"
         transform="translate(-79.254 -25.278)"
         d="M405.5,428.383a2.265,2.265,0,1,1,2.269,2.332A2.247,2.247,0,0,1,405.5,428.383Zm3.53,0a1.279,1.279,0,1,0-1.261,1.468A1.339,1.339,0,0,0,409.026,428.383Z"
         class="cls-4" />
      <path
         id="path211"
         transform="translate(-79.254 -25.278)"
         d="M411.04,429.1v-2.972h1.027V428.8a.974.974,0,0,0,.99,1.09,1.127,1.127,0,0,0,.981-.54v-3.224h1.018v4.511h-1.018v-.73a1.627,1.627,0,0,1-1.431.8A1.525,1.525,0,0,1,411.04,429.1Z"
         class="cls-4" />
      <path
         id="path213"
         transform="translate(-79.254 -25.278)"
         d="M416.315,426.123h1v.64a1.741,1.741,0,0,1,1.4-.675,2.309,2.309,0,0,1-.063,4.591,1.7,1.7,0,0,1-1.324-.576v2.413h-1.016Zm3.438,2.26a1.363,1.363,0,0,0-1.341-1.44,1.34,1.34,0,0,0-1.081.5v1.881a1.392,1.392,0,0,0,1.081.505A1.361,1.361,0,0,0,419.753,428.383Z"
         class="cls-4" />
    </g>
  </g>
  <g
     data-name="Layer 7"
     id="Layer_7">
    <g
       id="g222">
      <polyline
         id="polyline218"
         points="28.343 311.377 28.343 293.381 134.759 293.381 134.759 219.177"
         class="cls-6" />
      <polygon
         id="polygon220"
         points="32.082 310.282 28.343 316.759 24.603 310.282 32.082 310.282"
         class="cls-4" />
    </g>
    <g
       id="g228">
      <polyline
         id="polyline224"
         points="104.966 311.376 104.966 293.381 134.763 293.381 134.763 219.177"
         class="cls-6" />
      <polygon
         id="polygon226"
         points="108.706 310.282 104.966 316.758 101.227 310.282 108.706 310.282"
         class="cls-4" />
    </g>
    <g
       id="g234">
      <polyline
         id="polyline230"
         points="181.586 311.374 181.586 293.379 134.762 293.379 134.762 219.175"
         class="cls-6" />
      <polygon
         id="polygon232"
         points="185.326 310.28 181.586 316.757 177.847 310.28 185.326 310.28"
         class="cls-4" />
    </g>
    <g
       id="g240">
      <polyline
         id="polyline236"
         points="258.207 311.375 258.207 293.38 134.762 293.38 134.762 219.176"
         class="cls-6" />
      <polygon
         id="polygon238"
         points="261.947 310.281 258.207 316.758 254.467 310.281 261.947 310.281"
         class="cls-4" />
    </g>
  </g>
  <g
     data-name="Layer 6"
     id="Layer_6">
    <g
       id="g263">
      <rect
         id="rect243"
         height="56.693"
         width="56.693"
         y="316.759"
         class="cls-1" />
      <g
         id="g261">
        <path
           id="path245"
           transform="translate(-79.254 -25.278)"
           d="M96.194,359.349v6.3c0,3.481,5.107,6.3,11.406,6.3s11.407-2.821,11.407-6.3v-6.3"
           class="cls-7" />
        <g
           id="g259">
          <g
             id="g255">
            <path
               id="path247"
               transform="translate(-79.254 -25.278)"
               d="M95.657,381.976a3.188,3.188,0,1,1,3.188,3.25A3.19,3.19,0,0,1,95.657,381.976Zm5.268,0a2.093,2.093,0,1,0-2.08,2.278A2.143,2.143,0,0,0,100.925,381.976Z"
               class="cls-4" />
            <path
               id="path249"
               transform="translate(-79.254 -25.278)"
               d="M102.714,384.209l.585-.793a3.154,3.154,0,0,0,2.124.919c.828,0,1.4-.424,1.4-1.009,0-.512-.3-.756-1.142-.9l-1.162-.2c-1.088-.2-1.619-.739-1.619-1.6,0-1.143.908-1.9,2.322-1.9a4.2,4.2,0,0,1,2.529.81l-.549.811a3.3,3.3,0,0,0-2.016-.73c-.757,0-1.261.388-1.261.9,0,.459.289.693.973.8l1.125.19c1.269.226,1.863.783,1.863,1.737,0,1.161-1.026,1.981-2.529,1.981A3.969,3.969,0,0,1,102.714,384.209Z"
               class="cls-4" />
            <path
               id="path251"
               transform="translate(-79.254 -25.278)"
               d="M108.988,378.825h2.3a3.151,3.151,0,1,1,0,6.3h-2.3Zm2.331,5.366a2.223,2.223,0,0,0,0-4.429h-1.251v4.429Z"
               class="cls-4" />
            <path
               id="path253"
               transform="translate(-79.254 -25.278)"
               d="M118.382,379.86l-1.115.478v-.874l1.476-.639h.621v6.3h-.982Z"
               class="cls-4" />
          </g>
          <ellipse
             id="ellipse257"
             ry="6.302"
             rx="11.407"
             cy="334.072"
             cx="28.346"
             class="cls-7" />
        </g>
      </g>
    </g>
    <g
       id="g285">
      <rect
         id="rect265"
         height="56.693"
         width="56.693"
         y="316.759"
         x="76.62"
         class="cls-5" />
      <g
         id="g283">
        <path
           id="path267"
           transform="translate(-79.254 -25.278)"
           d="M172.814,359.349v6.3c0,3.481,5.107,6.3,11.407,6.3s11.406-2.821,11.406-6.3v-6.3"
           class="cls-7" />
        <g
           id="g281">
          <g
             id="g277">
            <path
               id="path269"
               transform="translate(-79.254 -25.278)"
               d="M171.252,381.976a3.188,3.188,0,1,1,3.187,3.25A3.189,3.189,0,0,1,171.252,381.976Zm5.267,0a2.093,2.093,0,1,0-2.08,2.278A2.143,2.143,0,0,0,176.519,381.976Z"
               class="cls-4" />
            <path
               id="path271"
               transform="translate(-79.254 -25.278)"
               d="M178.308,384.209l.585-.793a3.153,3.153,0,0,0,2.125.919c.828,0,1.4-.424,1.4-1.009,0-.512-.306-.756-1.143-.9l-1.162-.2c-1.088-.2-1.62-.739-1.62-1.6,0-1.143.909-1.9,2.323-1.9a4.2,4.2,0,0,1,2.53.81l-.55.811a3.3,3.3,0,0,0-2.017-.73c-.755,0-1.259.388-1.259.9,0,.459.288.693.971.8l1.126.19c1.269.226,1.864.783,1.864,1.737,0,1.161-1.027,1.981-2.531,1.981A3.968,3.968,0,0,1,178.308,384.209Z"
               class="cls-4" />
            <path
               id="path273"
               transform="translate(-79.254 -25.278)"
               d="M184.581,378.825h2.305a3.151,3.151,0,1,1,0,6.3h-2.305Zm2.331,5.366a2.223,2.223,0,0,0,0-4.429h-1.251v4.429Z"
               class="cls-4" />
            <path
               id="path275"
               transform="translate(-79.254 -25.278)"
               d="M192.987,384.416l2.584-2.7a1.67,1.67,0,0,0,.612-1.206,1.024,1.024,0,0,0-1.144-.919,2.257,2.257,0,0,0-1.638.766l-.559-.675a3.2,3.2,0,0,1,2.215-.955c1.233,0,2.08.7,2.08,1.728a2.389,2.389,0,0,1-.892,1.765l-2.007,2.071,3.016-.01v.847h-4.267Z"
               class="cls-4" />
          </g>
          <ellipse
             id="ellipse279"
             ry="6.302"
             rx="11.407"
             cy="334.072"
             cx="104.967"
             class="cls-7" />
        </g>
      </g>
    </g>
    <g
       id="g307">
      <rect
         id="rect287"
         height="56.693"
         width="56.693"
         y="316.759"
         x="153.24"
         class="cls-1" />
      <g
         id="g305">
        <path
           id="path289"
           transform="translate(-79.254 -25.278)"
           d="M249.434,359.349v6.3c0,3.481,5.107,6.3,11.407,6.3s11.406-2.821,11.406-6.3v-6.3"
           class="cls-7" />
        <g
           id="g303">
          <g
             id="g299">
            <path
               id="path291"
               transform="translate(-79.254 -25.278)"
               d="M247.705,381.976a3.188,3.188,0,1,1,3.188,3.25A3.19,3.19,0,0,1,247.705,381.976Zm5.267,0a2.092,2.092,0,1,0-2.079,2.278A2.143,2.143,0,0,0,252.972,381.976Z"
               class="cls-4" />
            <path
               id="path293"
               transform="translate(-79.254 -25.278)"
               d="M254.762,384.209l.585-.793a3.15,3.15,0,0,0,2.124.919c.828,0,1.4-.424,1.4-1.009,0-.512-.305-.756-1.142-.9l-1.162-.2c-1.089-.2-1.621-.739-1.621-1.6,0-1.143.91-1.9,2.324-1.9a4.2,4.2,0,0,1,2.529.81l-.549.811a3.3,3.3,0,0,0-2.016-.73c-.757,0-1.261.388-1.261.9,0,.459.288.693.972.8l1.125.19c1.27.226,1.864.783,1.864,1.737,0,1.161-1.027,1.981-2.53,1.981A3.968,3.968,0,0,1,254.762,384.209Z"
               class="cls-4" />
            <path
               id="path295"
               transform="translate(-79.254 -25.278)"
               d="M261.034,378.825h2.305a3.151,3.151,0,1,1,0,6.3h-2.305Zm2.332,5.366a2.223,2.223,0,0,0,0-4.429h-1.252v4.429Z"
               class="cls-4" />
            <path
               id="path297"
               transform="translate(-79.254 -25.278)"
               d="M269.3,384.28l.657-.629a2.045,2.045,0,0,0,1.657.71c.819,0,1.378-.422,1.378-1.043a1,1,0,0,0-1.126-.955h-.775v-.828h.693a.914.914,0,0,0,1.009-.936,1.092,1.092,0,0,0-1.2-1,1.93,1.93,0,0,0-1.566.747l-.667-.621a3.03,3.03,0,0,1,2.259-1,1.917,1.917,0,0,1,2.153,1.774,1.529,1.529,0,0,1-1.189,1.431,1.566,1.566,0,0,1,1.4,1.45c0,1.071-.99,1.845-2.35,1.845A3.163,3.163,0,0,1,269.3,384.28Z"
               class="cls-4" />
          </g>
          <ellipse
             id="ellipse301"
             ry="6.302"
             rx="11.407"
             cy="334.072"
             cx="181.587"
             class="cls-7" />
        </g>
      </g>
    </g>
    <g
       id="g329">
      <rect
         id="rect309"
         height="56.693"
         width="56.693"
         y="316.759"
         x="229.861"
         class="cls-1" />
      <g
         id="g327">
        <path
           id="path311"
           transform="translate(-79.254 -25.278)"
           d="M326.054,359.349v6.3c0,3.481,5.107,6.3,11.407,6.3s11.407-2.821,11.407-6.3v-6.3"
           class="cls-7" />
        <g
           id="g325">
          <g
             id="g321">
            <path
               id="path313"
               transform="translate(-79.254 -25.278)"
               d="M324.128,381.976a3.188,3.188,0,1,1,3.187,3.25A3.189,3.189,0,0,1,324.128,381.976Zm5.267,0a2.093,2.093,0,1,0-2.08,2.278A2.143,2.143,0,0,0,329.4,381.976Z"
               class="cls-4" />
            <path
               id="path315"
               transform="translate(-79.254 -25.278)"
               d="M331.184,384.209l.585-.793a3.153,3.153,0,0,0,2.125.919c.828,0,1.4-.424,1.4-1.009,0-.512-.306-.756-1.143-.9l-1.162-.2c-1.088-.2-1.62-.739-1.62-1.6,0-1.143.909-1.9,2.323-1.9a4.2,4.2,0,0,1,2.53.81l-.55.811a3.3,3.3,0,0,0-2.017-.73c-.755,0-1.259.388-1.259.9,0,.459.288.693.971.8l1.126.19c1.269.226,1.864.783,1.864,1.737,0,1.161-1.027,1.981-2.531,1.981A3.968,3.968,0,0,1,331.184,384.209Z"
               class="cls-4" />
            <path
               id="path317"
               transform="translate(-79.254 -25.278)"
               d="M337.457,378.825h2.305a3.151,3.151,0,1,1,0,6.3h-2.305Zm2.331,5.366a2.223,2.223,0,0,0,0-4.429h-1.251v4.429Z"
               class="cls-4" />
            <path
               id="path319"
               transform="translate(-79.254 -25.278)"
               d="M349.157,383.569h-3.393v-.8l3.276-3.944h1.072v3.9h.837v.845h-.837v1.558h-.955Zm0-.845v-2.819l-2.322,2.819Z"
               class="cls-4" />
          </g>
          <ellipse
             id="ellipse323"
             ry="6.302"
             rx="11.407"
             cy="334.072"
             cx="258.207"
             class="cls-7" />
        </g>
      </g>
    </g>
    <g
       id="g349">
      <rect
         id="rect331"
         height="56.693"
         width="56.693"
         y="316.759"
         x="306.481"
         class="cls-1" />
      <g
         id="g347">
        <path
           id="path333"
           transform="translate(-79.254 -25.278)"
           d="M402.675,359.349v6.3c0,3.481,5.107,6.3,11.406,6.3s11.407-2.821,11.407-6.3v-6.3"
           class="cls-7" />
        <g
           id="g345">
          <g
             id="g341">
            <path
               id="path335"
               transform="translate(-79.254 -25.278)"
               d="M411.2,384.56a.631.631,0,1,1,1.26,0,.63.63,0,1,1-1.26,0Z"
               class="cls-4" />
            <path
               id="path337"
               transform="translate(-79.254 -25.278)"
               d="M413.451,384.56a.631.631,0,1,1,1.26,0,.63.63,0,1,1-1.26,0Z"
               class="cls-4" />
            <path
               id="path339"
               transform="translate(-79.254 -25.278)"
               d="M415.7,384.56a.631.631,0,1,1,1.26,0,.63.63,0,1,1-1.26,0Z"
               class="cls-4" />
          </g>
          <ellipse
             id="ellipse343"
             ry="6.302"
             rx="11.407"
             cy="334.072"
             cx="334.827"
             class="cls-7" />
        </g>
      </g>
    </g>
    <g
       id="g371">
      <rect
         id="rect351"
         height="56.693"
         width="56.693"
         y="316.759"
         x="383.101"
         class="cls-1" />
      <g
         id="g369">
        <path
           id="path353"
           transform="translate(-79.254 -25.278)"
           d="M479.3,359.349v6.3c0,3.481,5.107,6.3,11.407,6.3s11.406-2.821,11.406-6.3v-6.3"
           class="cls-7" />
        <g
           id="g367">
          <g
             id="g363">
            <path
               id="path355"
               transform="translate(-79.254 -25.278)"
               d="M476.873,381.976a3.188,3.188,0,1,1,3.187,3.25A3.19,3.19,0,0,1,476.873,381.976Zm5.267,0a2.092,2.092,0,1,0-2.08,2.278A2.143,2.143,0,0,0,482.14,381.976Z"
               class="cls-4" />
            <path
               id="path357"
               transform="translate(-79.254 -25.278)"
               d="M483.929,384.209l.586-.793a3.149,3.149,0,0,0,2.124.919c.828,0,1.4-.424,1.4-1.009,0-.512-.305-.756-1.143-.9l-1.162-.2c-1.088-.2-1.62-.739-1.62-1.6,0-1.143.91-1.9,2.323-1.9a4.2,4.2,0,0,1,2.53.81l-.55.811a3.3,3.3,0,0,0-2.016-.73c-.756,0-1.26.388-1.26.9,0,.459.288.693.971.8l1.126.19c1.269.226,1.864.783,1.864,1.737,0,1.161-1.027,1.981-2.531,1.981A3.968,3.968,0,0,1,483.929,384.209Z"
               class="cls-4" />
            <path
               id="path359"
               transform="translate(-79.254 -25.278)"
               d="M490.2,378.825h2.305a3.151,3.151,0,1,1,0,6.3H490.2Zm2.332,5.366a2.223,2.223,0,0,0,0-4.429h-1.252v4.429Z"
               class="cls-4" />
            <path
               id="path361"
               transform="translate(-79.254 -25.278)"
               d="M498.905,378.825h1.053l3.286,4.582-.018-4.582h1.017v6.3h-.963l-3.376-4.708.018,4.708h-1.017Z"
               class="cls-4" />
          </g>
          <ellipse
             id="ellipse365"
             ry="6.302"
             rx="11.407"
             cy="334.072"
             cx="411.448"
             class="cls-7" />
        </g>
      </g>
    </g>
  </g>
  <g
     data-name="Layer 2"
     id="Layer_2">
    <g
       id="g404">
      <rect
         id="rect374"
         height="56.693"
         width="70.866"
         x="99.332"
         class="cls-8" />
      <g
         id="g402">
        <g
           id="g388">
          <path
             id="path376"
             transform="translate(-79.254 -25.278)"
             d="M201.894,69.818a3.211,3.211,0,0,1,3.26-3.25,3.171,3.171,0,0,1,2.457,1.125l-.72.7a2.205,2.205,0,0,0-1.737-.856,2.282,2.282,0,0,0,0,4.556,2.205,2.205,0,0,0,1.737-.856l.72.7a3.171,3.171,0,0,1-2.457,1.125A3.211,3.211,0,0,1,201.894,69.818Z"
             class="cls-4" />
          <path
             id="path378"
             transform="translate(-79.254 -25.278)"
             d="M208.572,66.514l1.017-.18v6.635h-1.017Z"
             class="cls-4" />
          <path
             id="path380"
             transform="translate(-79.254 -25.278)"
             d="M210.714,66.919a.631.631,0,1,1,.63.621A.624.624,0,0,1,210.714,66.919Zm.117,1.539h1.018v4.511h-1.018Z"
             class="cls-4" />
          <path
             id="path382"
             transform="translate(-79.254 -25.278)"
             d="M212.9,70.718a2.226,2.226,0,0,1,2.2-2.331,2.167,2.167,0,0,1,2.134,2.331v.243H213.9a1.38,1.38,0,0,0,1.35,1.261,1.5,1.5,0,0,0,1.071-.423l.666.6a2.609,2.609,0,0,1-1.782.658A2.289,2.289,0,0,1,212.9,70.718Zm3.366-.387a1.227,1.227,0,0,0-1.179-1.116,1.213,1.213,0,0,0-1.18,1.116Z"
             class="cls-4" />
          <path
             id="path384"
             transform="translate(-79.254 -25.278)"
             d="M218.265,68.458h1.017V69.2a1.642,1.642,0,0,1,1.422-.809A1.522,1.522,0,0,1,222.28,70v2.971h-1.026V70.286a.972.972,0,0,0-.99-1.08,1.125,1.125,0,0,0-.982.549v3.214h-1.017Z"
             class="cls-4" />
          <path
             id="path386"
             transform="translate(-79.254 -25.278)"
             d="M224.062,71.8v-2.53h-.9v-.811h.9V67.216L225.078,67v1.458h1.252v.811h-1.252v2.3c0,.442.171.613.631.613a1.916,1.916,0,0,0,.612-.109v.856a3.2,3.2,0,0,1-.874.126C224.538,73.059,224.062,72.627,224.062,71.8Z"
             class="cls-4" />
        </g>
        <g
           id="g400">
          <rect
             id="rect390"
             height="25.209"
             width="32.885"
             y="9.192"
             x="118.321"
             class="cls-7" />
          <line
             id="line392"
             y2="12.976"
             x2="147.411"
             y1="12.976"
             x1="147.411"
             class="cls-9" />
          <line
             id="line394"
             y2="12.976"
             x2="144.882"
             y1="12.976"
             x1="144.882"
             class="cls-9" />
          <line
             id="line396"
             y2="12.976"
             x2="142.352"
             y1="12.976"
             x1="142.352"
             class="cls-9" />
          <line
             id="line398"
             y2="12.976"
             x2="132.234"
             y1="12.976"
             x1="122.115"
             class="cls-9" />
        </g>
      </g>
    </g>
  </g>
  <g
     data-name="Layer 4"
     id="Layer_4">
    <g
       id="g411">
      <line
         id="line407"
         y2="72.533"
         x2="134.762"
         y1="56.558"
         x1="134.762"
         class="cls-6" />
      <polygon
         id="polygon409"
         points="131.022 71.438 134.762 77.915 138.502 71.438 131.022 71.438"
         class="cls-4" />
    </g>
  </g>
  <g
     data-name="Layer 5"
     id="Layer_5">
    <g
       id="g418">
      <line
         id="line414"
         y2="185.448"
         x2="134.763"
         y1="106.261"
         x1="134.763"
         class="cls-6" />
      <polygon
         id="polygon416"
         points="131.023 184.353 134.763 190.83 138.502 184.353 131.023 184.353"
         class="cls-4" />
    </g>
  </g>
  <g
     data-name="Layer 3"
     id="Layer_3">
    <g
       id="g441">
      <g
         id="g425">
        <rect
           id="rect421"
           height="27.347"
           width="69.866"
           y="78.415"
           x="100.029"
           class="cls-2" />
        <path
           id="path423"
           transform="translate(-79.254 -25.278)"
           d="M248.65,104.193v26.346H179.784V104.193H248.65m1-1H178.784v28.346H249.65V103.193Z"
           class="cls-10" />
      </g>
      <g
         id="g439">
        <path
           id="path427"
           transform="translate(-79.254 -25.278)"
           d="M200.353,116.707a3.188,3.188,0,1,1,3.187,3.25A3.19,3.19,0,0,1,200.353,116.707Zm5.266,0a2.093,2.093,0,1,0-2.079,2.278A2.142,2.142,0,0,0,205.619,116.707Z"
           class="cls-4" />
        <path
           id="path429"
           transform="translate(-79.254 -25.278)"
           d="M207.823,113.431l1.017-.171v2.691a1.754,1.754,0,0,1,1.386-.638,2.308,2.308,0,0,1-.063,4.59,1.713,1.713,0,0,1-1.342-.621v.577h-1Zm3.439,4.177a1.364,1.364,0,0,0-1.341-1.441,1.338,1.338,0,0,0-1.081.5v1.881a1.392,1.392,0,0,0,1.081.505A1.361,1.361,0,0,0,211.262,117.608Z"
           class="cls-4" />
        <path
           id="path431"
           transform="translate(-79.254 -25.278)"
           d="M212.458,121.758v-.811a1.418,1.418,0,0,0,.36.037c.351,0,.5-.153.5-.5v-5.14h1.018v5.185a1.2,1.2,0,0,1-1.332,1.3A1.884,1.884,0,0,1,212.458,121.758Zm.738-7.949a.635.635,0,1,1,.629.621A.63.63,0,0,1,213.2,113.809Z"
           class="cls-4" />
        <path
           id="path433"
           transform="translate(-79.254 -25.278)"
           d="M215.382,117.608a2.227,2.227,0,0,1,2.2-2.332,2.167,2.167,0,0,1,2.133,2.332v.243h-3.33a1.38,1.38,0,0,0,1.35,1.26,1.507,1.507,0,0,0,1.072-.422l.666.6a2.612,2.612,0,0,1-1.783.657A2.289,2.289,0,0,1,215.382,117.608Zm3.367-.387a1.226,1.226,0,0,0-1.179-1.116,1.211,1.211,0,0,0-1.179,1.116Z"
           class="cls-4" />
        <path
           id="path435"
           transform="translate(-79.254 -25.278)"
           d="M220.54,117.608a2.276,2.276,0,0,1,2.278-2.332,2.441,2.441,0,0,1,1.8.765l-.63.657a1.5,1.5,0,0,0-1.135-.531,1.449,1.449,0,0,0,0,2.881,1.513,1.513,0,0,0,1.135-.522l.63.648a2.442,2.442,0,0,1-1.8.766A2.271,2.271,0,0,1,220.54,117.608Z"
           class="cls-4" />
        <path
           id="path437"
           transform="translate(-79.254 -25.278)"
           d="M226.012,118.689v-2.531h-.9v-.81h.9v-1.242l1.017-.216v1.458h1.251v.81h-1.251v2.3c0,.441.171.612.63.612a1.917,1.917,0,0,0,.613-.108v.855a3.206,3.206,0,0,1-.874.126C226.489,119.948,226.012,119.517,226.012,118.689Z"
           class="cls-4" />
      </g>
    </g>
  </g>
  <g
     data-name="Layer 9"
     id="Layer_9">
    <g
       id="g502">
      <rect
         id="rect444"
         height="19.843"
         width="136.063"
         y="125.906"
         x="66.732"
         class="cls-2" />
      <g
         id="g500">
        <path
           id="path446"
           transform="translate(-79.254 -25.278)"
           d="M152.706,158H154.8a1.4,1.4,0,0,1,1.575,1.439,1.852,1.852,0,0,1-1.959,1.871H152.6l-.488,2.287h-.6Zm1.687,2.782a1.282,1.282,0,0,0,1.384-1.3c0-.583-.409-.935-1.081-.935h-1.5l-.48,2.238Z"
           class="cls-4" />
        <path
           id="path448"
           transform="translate(-79.254 -25.278)"
           d="M156.954,161.031a3.1,3.1,0,0,1,3-3.118,2.618,2.618,0,0,1,2.2,1.055l-.472.4a2.08,2.08,0,0,0-1.768-.895,2.452,2.452,0,0,0-2.35,2.542,2,2,0,0,0,2,2.111,2.212,2.212,0,0,0,2.119-1.911h-1.848l.089-.544h2.462l-.071.416a2.926,2.926,0,0,1-2.791,2.591A2.559,2.559,0,0,1,156.954,161.031Z"
           class="cls-4" />
        <path
           id="path450"
           transform="translate(-79.254 -25.278)"
           d="M165.434,161.159h3.15l-.1.48H165.33Zm.28-1.3h3.15l-.1.48h-3.15Z"
           class="cls-4" />
        <path
           id="path452"
           transform="translate(-79.254 -25.278)"
           d="M172.545,157.825l.6-.12-.535,2.607a1.586,1.586,0,0,1,1.262-.672,1.159,1.159,0,0,1,1.16,1.559l-.511,2.4h-.576l.5-2.279c.16-.719-.168-1.2-.816-1.2a1.383,1.383,0,0,0-1.1.592l-.6,2.887h-.576Z"
           class="cls-4" />
        <path
           id="path454"
           transform="translate(-79.254 -25.278)"
           d="M175.746,162.559a1.324,1.324,0,0,1,1.5-1.256,2.209,2.209,0,0,1,1.288.376l.1-.472c.16-.72-.144-1.088-.887-1.088a2.683,2.683,0,0,0-1.12.3l-.159-.455a3.542,3.542,0,0,1,1.383-.32c1.048,0,1.567.576,1.359,1.519l-.544,2.439H178.1l.08-.368a1.792,1.792,0,0,1-1.136.423C176.266,163.653,175.746,163.222,175.746,162.559Zm2.527.256.168-.745a1.791,1.791,0,0,0-1.144-.336c-.584,0-1,.321-1,.76,0,.456.336.72.911.72A1.655,1.655,0,0,0,178.273,162.815Z"
           class="cls-4" />
        <path
           id="path456"
           transform="translate(-79.254 -25.278)"
           d="M179.666,162.99l.352-.368a1.666,1.666,0,0,0,1.263.584.837.837,0,0,0,.927-.72c0-.271-.159-.423-.591-.551l-.616-.16c-.615-.176-.9-.5-.9-1a1.218,1.218,0,0,1,1.375-1.152,2.31,2.31,0,0,1,1.527.592l-.351.392a1.976,1.976,0,0,0-1.208-.5c-.5,0-.824.248-.824.615,0,.288.153.448.56.56l.624.176c.672.192.951.472.951.959a1.351,1.351,0,0,1-1.478,1.264A2.145,2.145,0,0,1,179.666,162.99Z"
           class="cls-4" />
        <path
           id="path458"
           transform="translate(-79.254 -25.278)"
           d="M184.553,157.825l.6-.12-.536,2.607a1.589,1.589,0,0,1,1.263-.672,1.159,1.159,0,0,1,1.16,1.559l-.511,2.4h-.577l.5-2.279c.161-.719-.168-1.2-.815-1.2a1.383,1.383,0,0,0-1.1.592l-.6,2.887h-.576Z"
           class="cls-4" />
        <path
           id="path460"
           transform="translate(-79.254 -25.278)"
           d="M188.01,162.5a5.044,5.044,0,0,1,2.7-4.589l.224.432a4.6,4.6,0,0,0-2.374,4.109,3.1,3.1,0,0,0,1.023,2.5l-.384.367A3.459,3.459,0,0,1,188.01,162.5Z"
           class="cls-4" />
        <path
           id="path462"
           transform="translate(-79.254 -25.278)"
           d="M191.073,161.855a2.147,2.147,0,0,1,2.047-2.231,1.68,1.68,0,0,1,1.688,1.823,2.16,2.16,0,0,1-2.055,2.231A1.693,1.693,0,0,1,191.073,161.855Zm3.159-.408a1.17,1.17,0,0,0-1.135-1.311,1.6,1.6,0,0,0-1.455,1.711,1.177,1.177,0,0,0,1.142,1.311A1.586,1.586,0,0,0,194.232,161.447Z"
           class="cls-4" />
        <path
           id="path464"
           transform="translate(-79.254 -25.278)"
           d="M196.1,162.974l-.136.624h-.567l1.207-5.773.592-.12-.5,2.431a1.587,1.587,0,0,1,1.135-.472,1.626,1.626,0,0,1,1.559,1.767,2.144,2.144,0,0,1-2.022,2.231A1.424,1.424,0,0,1,196.1,162.974Zm2.719-1.495a1.2,1.2,0,0,0-1.2-1.32,1.426,1.426,0,0,0-1.023.441l-.4,1.91a1.239,1.239,0,0,0,1.095.641A1.59,1.59,0,0,0,198.816,161.479Z"
           class="cls-4" />
        <path
           id="path466"
           transform="translate(-79.254 -25.278)"
           d="M198.874,165.285l.113-.5a.835.835,0,0,0,.319.048c.288,0,.448-.136.52-.488l.992-4.646h.575l-1.016,4.7a1.07,1.07,0,0,1-1.087.951A1.336,1.336,0,0,1,198.874,165.285Zm2.064-6.925a.479.479,0,0,1,.455-.463.369.369,0,0,1,.368.376.467.467,0,0,1-.456.463A.359.359,0,0,1,200.938,158.36Z"
           class="cls-4" />
        <path
           id="path468"
           transform="translate(-79.254 -25.278)"
           d="M201.961,161.871a2.134,2.134,0,0,1,2.007-2.239,1.59,1.59,0,0,1,1.567,1.719,3.869,3.869,0,0,1-.023.424h-2.991a1.267,1.267,0,0,0,1.24,1.391,1.7,1.7,0,0,0,1.031-.344l.3.416a2.337,2.337,0,0,1-1.359.432A1.707,1.707,0,0,1,201.961,161.871Zm3.03-.512a1.113,1.113,0,0,0-1.063-1.215,1.459,1.459,0,0,0-1.351,1.215Z"
           class="cls-4" />
        <path
           id="path470"
           transform="translate(-79.254 -25.278)"
           d="M206.321,161.919a2.222,2.222,0,0,1,2.12-2.271,1.784,1.784,0,0,1,1.463.744l-.432.359a1.221,1.221,0,0,0-1.056-.575,1.652,1.652,0,0,0-1.527,1.711,1.22,1.22,0,0,0,1.2,1.271,1.717,1.717,0,0,0,1.056-.383l.271.376a2.2,2.2,0,0,1-1.415.519A1.663,1.663,0,0,1,206.321,161.919Z"
           class="cls-4" />
        <path
           id="path472"
           transform="translate(-79.254 -25.278)"
           d="M210.713,162.662l.527-2.486h-.783l.113-.481h.775l.224-1.071.616-.136-.265,1.207h1.1l-.112.481h-1.095l-.512,2.358c-.1.449.048.624.536.624a1.45,1.45,0,0,0,.447-.08l-.112.52a2.248,2.248,0,0,1-.567.072C210.9,163.67,210.577,163.31,210.713,162.662Z"
           class="cls-4" />
        <path
           id="path474"
           transform="translate(-79.254 -25.278)"
           d="M212.281,164.237h3.6l-.1.456h-3.6Z"
           class="cls-4" />
        <path
           id="path476"
           transform="translate(-79.254 -25.278)"
           d="M217.457,159.7h.568l-.12.569a1.554,1.554,0,0,1,1.223-.624,1.158,1.158,0,0,1,1.159,1.559l-.511,2.4H219.2l.5-2.279c.16-.719-.168-1.2-.816-1.2a1.388,1.388,0,0,0-1.063.544l-.64,2.935H216.6Z"
           class="cls-4" />
        <path
           id="path478"
           transform="translate(-79.254 -25.278)"
           d="M221,162.559a1.324,1.324,0,0,1,1.5-1.256,2.2,2.2,0,0,1,1.287.376l.105-.472c.16-.72-.144-1.088-.888-1.088a2.683,2.683,0,0,0-1.119.3l-.16-.455a3.547,3.547,0,0,1,1.384-.32c1.047,0,1.566.576,1.358,1.519l-.543,2.439h-.568l.08-.368a1.79,1.79,0,0,1-1.135.423C221.521,163.653,221,163.222,221,162.559Zm2.527.256.168-.745a1.79,1.79,0,0,0-1.143-.336c-.584,0-1,.321-1,.76,0,.456.336.72.912.72A1.653,1.653,0,0,0,223.528,162.815Z"
           class="cls-4" />
        <path
           id="path480"
           transform="translate(-79.254 -25.278)"
           d="M225.921,159.7h.567l-.127.6a1.526,1.526,0,0,1,1.191-.656,1.035,1.035,0,0,1,1.063.792,1.785,1.785,0,0,1,1.392-.792c.791,0,1.231.647,1.039,1.511l-.527,2.447h-.569l.512-2.383c.145-.64-.159-1.1-.72-1.1a1.389,1.389,0,0,0-1.087.649,1.6,1.6,0,0,1-.04.383l-.527,2.447h-.576l.5-2.327c.151-.679-.144-1.152-.712-1.152a1.308,1.308,0,0,0-1.031.576l-.632,2.9h-.575Z"
           class="cls-4" />
        <path
           id="path482"
           transform="translate(-79.254 -25.278)"
           d="M231.929,161.871a2.134,2.134,0,0,1,2.007-2.239,1.59,1.59,0,0,1,1.567,1.719,4.134,4.134,0,0,1-.023.424h-2.992a1.267,1.267,0,0,0,1.241,1.391,1.7,1.7,0,0,0,1.031-.344l.3.416a2.338,2.338,0,0,1-1.36.432A1.706,1.706,0,0,1,231.929,161.871Zm3.03-.512a1.113,1.113,0,0,0-1.063-1.215,1.459,1.459,0,0,0-1.351,1.215Z"
           class="cls-4" />
        <path
           id="path484"
           transform="translate(-79.254 -25.278)"
           d="M238.528,160.735a5.038,5.038,0,0,1-2.7,4.589l-.223-.431a4.6,4.6,0,0,0,2.374-4.11,3.1,3.1,0,0,0-1.024-2.5l.384-.367A3.462,3.462,0,0,1,238.528,160.735Z"
           class="cls-4" />
        <path
           id="path486"
           transform="translate(-79.254 -25.278)"
           d="M241.553,159.735a1.628,1.628,0,0,1,1.375-1.774.989.989,0,0,1,1,1.1,1.628,1.628,0,0,1-1.376,1.774A.988.988,0,0,1,241.553,159.735ZM246.014,158h.456l-4.294,5.6h-.432Zm-2.479,1.071c0-.463-.247-.752-.655-.752-.5,0-.935.648-.935,1.4,0,.472.248.752.647.752C243.1,160.472,243.535,159.832,243.535,159.072Zm.728,3.462a1.629,1.629,0,0,1,1.376-1.775.988.988,0,0,1,1,1.1,1.629,1.629,0,0,1-1.375,1.776A.988.988,0,0,1,244.263,162.534Zm1.983-.663c0-.464-.248-.752-.655-.752-.5,0-.936.648-.936,1.4,0,.471.248.751.648.751C245.815,163.27,246.246,162.63,246.246,161.871Z"
           class="cls-4" />
        <path
           id="path488"
           transform="translate(-79.254 -25.278)"
           d="M249.864,159.7h.56l-.088.416a1.579,1.579,0,0,1,1.1-.447A1.626,1.626,0,0,1,253,161.431a2.144,2.144,0,0,1-2.022,2.231,1.411,1.411,0,0,1-1.247-.656l-.489,2.263h-.575Zm.384.865-.424,1.974a1.238,1.238,0,0,0,1.08.617,1.59,1.59,0,0,0,1.527-1.672,1.2,1.2,0,0,0-1.2-1.32A1.456,1.456,0,0,0,250.248,160.56Z"
           class="cls-4" />
        <path
           id="path490"
           transform="translate(-79.254 -25.278)"
           d="M253.584,164.765l.305-.424a2.231,2.231,0,0,0,1.335.5,1.024,1.024,0,0,0,1.079-.871l.16-.752a1.571,1.571,0,0,1-1.088.432,1.619,1.619,0,0,1-1.558-1.759,2.142,2.142,0,0,1,2.014-2.231,1.449,1.449,0,0,1,1.24.623l.12-.584h.567l-.9,4.319a1.534,1.534,0,0,1-1.6,1.335A2.881,2.881,0,0,1,253.584,164.765Zm2.975-2.007.416-2.015a1.265,1.265,0,0,0-1.071-.575,1.587,1.587,0,0,0-1.52,1.671,1.2,1.2,0,0,0,1.191,1.312A1.446,1.446,0,0,0,256.559,162.758Z"
           class="cls-4" />
        <path
           id="path492"
           transform="translate(-79.254 -25.278)"
           d="M257.353,164.237h3.6l-.1.456h-3.6Z"
           class="cls-4" />
        <path
           id="path494"
           transform="translate(-79.254 -25.278)"
           d="M262.529,159.7h.567l-.12.569a1.557,1.557,0,0,1,1.223-.624,1.159,1.159,0,0,1,1.16,1.559l-.512,2.4h-.575l.5-2.279c.16-.719-.168-1.2-.816-1.2a1.388,1.388,0,0,0-1.063.544l-.64,2.935h-.575Z"
           class="cls-4" />
        <path
           id="path496"
           transform="translate(-79.254 -25.278)"
           d="M266.305,162.087l.519-2.392h.576l-.5,2.28c-.16.719.175,1.2.815,1.2a1.361,1.361,0,0,0,1.064-.544l.639-2.935h.575l-.847,3.9h-.575l.12-.56a1.587,1.587,0,0,1-1.224.615A1.169,1.169,0,0,1,266.305,162.087Z"
           class="cls-4" />
        <path
           id="path498"
           transform="translate(-79.254 -25.278)"
           d="M271.192,159.7h.568l-.128.6a1.524,1.524,0,0,1,1.191-.656,1.037,1.037,0,0,1,1.063.792,1.787,1.787,0,0,1,1.392-.792c.792,0,1.231.647,1.039,1.511l-.528,2.447h-.567l.512-2.383c.143-.64-.161-1.1-.72-1.1a1.391,1.391,0,0,0-1.088.649,1.647,1.647,0,0,1-.04.383l-.527,2.447h-.576l.5-2.327c.153-.679-.143-1.152-.711-1.152a1.31,1.31,0,0,0-1.031.576l-.632,2.9h-.576Z"
           class="cls-4" />
      </g>
    </g>
  </g>
  <g
     data-name="Layer 10"
     id="Layer_10">
    <g
       id="g519">
      <rect
         id="rect505"
         height="19.843"
         width="116.22"
         y="251.406"
         x="78.053"
         class="cls-2" />
      <g
         id="g517">
        <path
           id="path507"
           transform="translate(-79.254 -25.278)"
           d="M201.229,286.539a3.078,3.078,0,0,1,3-3.118,2.407,2.407,0,0,1,2.07,1.007l-.455.4a1.913,1.913,0,0,0-1.647-.847,2.429,2.429,0,0,0-2.351,2.534,2.01,2.01,0,0,0,2.022,2.119,2.482,2.482,0,0,0,1.7-.712l.319.416a3.074,3.074,0,0,1-2.063.848A2.566,2.566,0,0,1,201.229,286.539Z"
           class="cls-4" />
        <path
           id="path509"
           transform="translate(-79.254 -25.278)"
           d="M207.788,283.5h2.1a1.388,1.388,0,0,1,1.551,1.415,1.756,1.756,0,0,1-1.512,1.751l.728,2.431h-.631l-.7-2.391h-1.615L207.2,289.1h-.6ZM209.5,286.2a1.243,1.243,0,0,0,1.344-1.239.912.912,0,0,0-1.039-.911h-1.527l-.464,2.15Z"
           class="cls-4" />
        <path
           id="path511"
           transform="translate(-79.254 -25.278)"
           d="M212.077,286.675l.671-3.174h.609l-.688,3.206c-.24,1.127.311,1.919,1.326,1.919.912,0,1.6-.695,1.856-1.871l.695-3.254h.6l-.7,3.286c-.329,1.543-1.207,2.4-2.471,2.4A1.871,1.871,0,0,1,212.077,286.675Z"
           class="cls-4" />
        <path
           id="path513"
           transform="translate(-79.254 -25.278)"
           d="M217.116,288.05l.409-.415a2.614,2.614,0,0,0,1.919,1.031c.839,0,1.463-.488,1.463-1.151,0-.464-.288-.712-1.08-.936l-.855-.216c-.832-.215-1.255-.679-1.255-1.351,0-.951.768-1.583,1.927-1.583a3.178,3.178,0,0,1,2.23.88l-.384.439a2.681,2.681,0,0,0-1.87-.8c-.792,0-1.312.392-1.312.984,0,.456.289.736.912.9l.84.207c1.008.28,1.447.7,1.447,1.384a1.843,1.843,0,0,1-2.079,1.751A2.994,2.994,0,0,1,217.116,288.05Z"
           class="cls-4" />
        <path
           id="path515"
           transform="translate(-79.254 -25.278)"
           d="M223.324,283.5h.608L223.4,286h3.15l.536-2.5h.609l-1.192,5.6h-.608l.544-2.543h-3.151l-.544,2.543h-.607Z"
           class="cls-4" />
      </g>
    </g>
  </g>
</svg>
