<?xml version="1.0" encoding="UTF-8" standalone="no"?>
<svg
   xmlns:dc="http://purl.org/dc/elements/1.1/"
   xmlns:cc="http://creativecommons.org/ns#"
   xmlns:rdf="http://www.w3.org/1999/02/22-rdf-syntax-ns#"
   xmlns:svg="http://www.w3.org/2000/svg"
   xmlns="http://www.w3.org/2000/svg"
   xmlns:sodipodi="http://sodipodi.sourceforge.net/DTD/sodipodi-0.dtd"
   xmlns:inkscape="http://www.inkscape.org/namespaces/inkscape"
   inkscape:version="1.0 (4035a4f, 2020-05-01)"
   sodipodi:docname="ModuleA06-RBDLayout.svg"
   id="svg748"
   version="1.1"
   viewBox="0 0 753.564 547.6"
   height="193.181mm"
   width="265.84mm">
  <metadata
     id="metadata752">
    <rdf:RDF>
      <cc:Work
         rdf:about="">
        <dc:format>image/svg+xml</dc:format>
        <dc:type
           rdf:resource="http://purl.org/dc/dcmitype/StillImage" />
        <dc:title></dc:title>
        <dc:subject>
          <rdf:Bag>
            <rdf:li>rbd</rdf:li>
            <rdf:li>layout</rdf:li>
          </rdf:Bag>
        </dc:subject>
      </cc:Work>
    </rdf:RDF>
  </metadata>
  <sodipodi:namedview
     inkscape:current-layer="svg748"
     inkscape:window-maximized="0"
     inkscape:window-y="25"
     inkscape:window-x="0"
     inkscape:cy="365.06646"
     inkscape:cx="502.3748"
     inkscape:zoom="0.4986317"
     showgrid="false"
     id="namedview750"
     inkscape:window-height="480"
     inkscape:window-width="987"
     inkscape:pageshadow="2"
     inkscape:pageopacity="0"
     guidetolerance="10"
     gridtolerance="10"
     objecttolerance="10"
     borderopacity="1"
     bordercolor="#666666"
     pagecolor="#ffffff" />
  <defs
     id="defs12">
    <style
       id="style10">
      .cls-1 {
        fill: #e6e6e6;
      }

      .cls-2, .cls-4, .cls-7 {
        fill: none;
      }

      .cls-2 {
        stroke: #151515;
      }

      .cls-2, .cls-5, .cls-7 {
        stroke-miterlimit: 10;
      }

      .cls-3 {
        fill: #151515;
      }

      .cls-4 {
        stroke: #fff;
        stroke-width: 8px;
      }

      .cls-4, .cls-6 {
        stroke-linecap: round;
        stroke-linejoin: round;
      }

      .cls-5, .cls-6, .cls-9 {
        fill: #fff;
      }

      .cls-5, .cls-7 {
        stroke: #06c;
      }

      .cls-6 {
        stroke: #5b5b5b;
        stroke-width: 1.5px;
      }

      .cls-8 {
        fill: #06c;
      }

      .cls-10 {
        fill: #d9e8f7;
      }
    </style>
  </defs>
  <g
     data-name="4MB GREY BG"
     id="_4MB_GREY_BG">
    <path
       d="M733.349,233.5H20.323V155.043H733.349Z"
       class="cls-1"
       id="path12" />
  </g>
  <g
     data-name="6"
     id="_6">
    <g
       id="g20">
      <polyline
         id="polyline16"
         points="506.187 220.8 506.187 265.896 441.728 265.903 441.728 322.268"
         class="cls-2" />
      <polygon
         id="polygon18"
         points="436.742 320.809 441.728 329.444 446.714 320.809 436.742 320.809"
         class="cls-3" />
    </g>
  </g>
  <g
     data-name="7"
     id="_7">
    <g
       id="g27">
      <line
         id="line23"
         y2="323.658"
         x2="592.468"
         y1="220.8"
         x1="592.468"
         class="cls-2" />
      <polygon
         id="polygon25"
         points="587.482 322.199 592.468 330.834 597.455 322.199 587.482 322.199"
         class="cls-3" />
    </g>
  </g>
  <g
     data-name="5_BG"
     id="_5_BG">
    <line
       id="line30"
       y2="284.596"
       x2="669.914"
       y1="284.596"
       x1="409.594"
       class="cls-4" />
  </g>
  <g
     data-name="5"
     id="_5">
    <g
       id="g37">
      <polyline
         id="polyline33"
         points="660.154 220.8 660.154 284.321 420.102 284.328 420.1 322.268"
         class="cls-2" />
      <polygon
         id="polygon35"
         points="415.114 320.809 420.1 329.444 425.087 320.809 415.114 320.809"
         class="cls-3" />
    </g>
  </g>
  <g
     data-name="3"
     id="_3">
    <g
       id="g44">
      <line
         id="line40"
         y2="323.658"
         x2="247.775"
         y1="220.8"
         x1="247.775"
         class="cls-2" />
      <polygon
         id="polygon42"
         points="242.789 322.199 247.775 330.834 252.762 322.199 242.789 322.199"
         class="cls-3" />
    </g>
  </g>
  <g
     data-name="4_BG"
     id="_4_BG">
    <line
       id="line47"
       y2="265.604"
       x2="346.252"
       y1="265.604"
       x1="151.358"
       class="cls-4" />
  </g>
  <g
     data-name="4"
     id="_4">
    <g
       id="g54">
      <polyline
         id="polyline50"
         points="161.728 220.444 161.728 265.944 333.728 265.951 333.729 322.268"
         class="cls-2" />
      <polygon
         id="polygon52"
         points="328.743 320.809 333.729 329.444 338.715 320.809 328.743 320.809"
         class="cls-3" />
    </g>
  </g>
  <g
     data-name="2_BG"
     id="_2_BG">
    <line
       id="line57"
       y2="284.596"
       x2="411.678"
       y1="284.596"
       x1="151.358"
       class="cls-4" />
  </g>
  <g
     data-name="2"
     id="_2">
    <g
       id="g64">
      <polyline
         id="polyline60"
         points="405.388 220.8 405.388 284.321 161.711 284.328 161.709 322.268"
         class="cls-2" />
      <polygon
         id="polygon62"
         points="156.723 320.809 161.709 329.444 166.695 320.809 156.723 320.809"
         class="cls-3" />
    </g>
  </g>
  <g
     data-name="8_BG"
     id="_8_BG">
    <line
       id="line67"
       y2="248.88"
       x2="690.207"
       y1="248.88"
       x1="324.272"
       class="cls-4" />
  </g>
  <g
     data-name="8"
     id="_8">
    <g
       id="g74">
      <polyline
         id="polyline70"
         points="333.772 220.8 333.772 248.888 678.6 248.895 678.603 322.268"
         class="cls-2" />
      <polygon
         id="polygon72"
         points="673.616 320.809 678.603 329.444 683.589 320.809 673.616 320.809"
         class="cls-3" />
    </g>
  </g>
  <g
     data-name="1"
     id="_1">
    <g
       id="g81">
      <line
         id="line77"
         y2="323.658"
         x2="75.429"
         y1="220.8"
         x1="75.429"
         class="cls-2" />
      <polygon
         id="polygon79"
         points="70.443 322.199 75.429 330.834 80.415 322.199 70.443 322.199"
         class="cls-3" />
    </g>
  </g>
  <g
     data-name="RBD Image 32MB"
     id="RBD_Image_32MB">
    <path
       d="M733.349,118.483H20.323V19.823H733.349Z"
       class="cls-1"
       id="path22" />
    <rect
       id="rect85"
       height="71.95"
       width="165.315"
       y="34.171"
       x="294.734"
       class="cls-5" />
    <g
       id="g119">
      <g
         id="g111">
        <path
           id="path87"
           d="M331.541,88.141h3.422a2.346,2.346,0,0,1,2.574,2.332,2.188,2.188,0,0,1-1.518,2.112l1.617,3.257h-1.463l-1.485-3.08h-1.827v3.08h-1.32Zm1.32,1.111v2.454h1.992a1.233,1.233,0,1,0,0-2.454Z"
           class="cls-3" />
        <path
           id="path89"
           d="M342.355,88.141c1.452,0,2.431.815,2.431,2.025a1.846,1.846,0,0,1-1.232,1.7,1.926,1.926,0,0,1,1.5,1.826c0,1.276-1.023,2.145-2.541,2.145h-3.576v-7.7Zm-2.1,1.078v2.156h1.97c.759,0,1.243-.417,1.243-1.078s-.484-1.078-1.243-1.078Zm3.466,4.357a1.2,1.2,0,0,0-1.364-1.177h-2.1v2.365h2.1A1.209,1.209,0,0,0,343.719,93.576Z"
           class="cls-3" />
        <path
           id="path91"
           d="M346.589,88.141h2.817a3.851,3.851,0,1,1,0,7.7h-2.817Zm1.32,1.145V94.7h1.529a2.718,2.718,0,0,0,0-5.412Z"
           class="cls-3" />
        <path
           id="path93"
           d="M357.16,88.141h1.32v7.7h-1.32Z"
           class="cls-3" />
        <path
           id="path95"
           d="M360.119,90.331h1.243v.879A1.881,1.881,0,0,1,363,90.243a1.732,1.732,0,0,1,1.617,1.067,2.033,2.033,0,0,1,1.827-1.067,1.826,1.826,0,0,1,1.8,2v3.6h-1.243V92.509a1.115,1.115,0,0,0-1.112-1.265,1.311,1.311,0,0,0-1.111.649c.011.121.023.231.023.352v3.6h-1.244V92.509a1.115,1.115,0,0,0-1.111-1.265,1.279,1.279,0,0,0-1.089.627v3.971h-1.243Z"
           class="cls-3" />
        <path
           id="path97"
           d="M369.48,94.258c0-.99.8-1.617,2.1-1.617a3.392,3.392,0,0,1,1.485.341v-.606c0-.725-.418-1.1-1.265-1.1a3.813,3.813,0,0,0-1.606.429l-.44-.9a5.289,5.289,0,0,1,2.288-.56c1.43,0,2.256.725,2.256,2v3.6h-1.233v-.561a2.3,2.3,0,0,1-1.639.649A1.737,1.737,0,0,1,369.48,94.258Zm2.288.8a1.965,1.965,0,0,0,1.3-.451v-.9a2.852,2.852,0,0,0-1.276-.264c-.7,0-1.144.308-1.144.792C370.646,94.742,371.086,95.061,371.768,95.061Z"
           class="cls-3" />
        <path
           id="path99"
           d="M375.552,93.081a2.659,2.659,0,0,1,2.574-2.794,2.07,2.07,0,0,1,1.617.748v-.7h1.232v5.7c0,1.419-.924,2.2-2.6,2.2a4.8,4.8,0,0,1-2.211-.528l.44-.924a3.762,3.762,0,0,0,1.716.472c.924,0,1.408-.417,1.408-1.22v-.936a2.136,2.136,0,0,1-1.683.781A2.641,2.641,0,0,1,375.552,93.081Zm2.871,1.76a1.649,1.649,0,0,0,1.309-.6V91.925a1.709,1.709,0,0,0-1.309-.593,1.644,1.644,0,0,0-1.639,1.749A1.666,1.666,0,0,0,378.423,94.841Z"
           class="cls-3" />
        <path
           id="path101"
           d="M385.056,95.953a2.8,2.8,0,0,1-2.806-2.861,2.715,2.715,0,0,1,2.685-2.849,2.645,2.645,0,0,1,2.607,2.838v.308h-4.07a1.683,1.683,0,0,0,1.65,1.507,1.79,1.79,0,0,0,1.309-.517l.814.759A3.183,3.183,0,0,1,385.056,95.953Zm-1.562-3.324h2.871a1.509,1.509,0,0,0-1.441-1.375A1.48,1.48,0,0,0,383.494,92.629Z"
           class="cls-3" />
        <path
           id="path103"
           d="M393.723,95.953a3.866,3.866,0,0,1-2.849-1.156l.814-.759a2.523,2.523,0,0,0,2.025.858c.99,0,1.672-.517,1.672-1.276a1.217,1.217,0,0,0-1.365-1.156h-.957v-1h.859a1.116,1.116,0,0,0,1.221-1.155,1.33,1.33,0,0,0-1.463-1.221,2.384,2.384,0,0,0-1.915.913l-.814-.758a3.73,3.73,0,0,1,2.772-1.222c1.53,0,2.63.913,2.63,2.156a1.851,1.851,0,0,1-1.5,1.761A1.907,1.907,0,0,1,396.6,93.7C396.6,95.006,395.4,95.953,393.723,95.953Z"
           class="cls-3" />
        <path
           id="path105"
           d="M397.749,94.973l3.158-3.3a2.058,2.058,0,0,0,.748-1.452,1.256,1.256,0,0,0-1.408-1.133,2.772,2.772,0,0,0-1.991.947l-.682-.826a3.9,3.9,0,0,1,2.706-1.166c1.507,0,2.541.858,2.541,2.1a2.942,2.942,0,0,1-1.1,2.146l-2.464,2.542,3.707-.023v1.034h-5.215Z"
           class="cls-3" />
        <path
           id="path107"
           d="M405.6,89.8v6.04h-1.221v-7.7H406.1l2.256,4.665,2.244-4.665h1.717v7.7h-1.243V89.835l-2.729,5.457Z"
           class="cls-3" />
        <path
           id="path109"
           d="M417.594,88.141c1.452,0,2.431.815,2.431,2.025a1.846,1.846,0,0,1-1.232,1.7,1.926,1.926,0,0,1,1.5,1.826c0,1.276-1.023,2.145-2.542,2.145h-3.575v-7.7Zm-2.1,1.078v2.156h1.969c.76,0,1.244-.417,1.244-1.078s-.484-1.078-1.244-1.078Zm3.466,4.357a1.2,1.2,0,0,0-1.364-1.177h-2.1v2.365h2.1A1.209,1.209,0,0,0,418.958,93.576Z"
           class="cls-3" />
      </g>
      <g
         id="g117">
        <path
           id="path113"
           d="M358.549,58.819V69.012c0,5.629,8.26,10.192,18.449,10.192s18.449-4.563,18.449-10.192V58.819"
           class="cls-6" />
        <ellipse
           id="ellipse115"
           ry="10.192"
           rx="18.449"
           cy="58.819"
           cx="376.998"
           class="cls-6" />
      </g>
    </g>
    <g
       id="g301">
      <path
         id="path121"
         d="M36.1,43.268h1.243v1.2a1.633,1.633,0,0,1,1.519-1.3,1.473,1.473,0,0,1,.539.109v1.089a1.756,1.756,0,0,0-.682-.132,1.514,1.514,0,0,0-1.376.913v3.631H36.1Z"
         class="cls-3" />
      <path
         id="path123"
         d="M43.273,48.834a2.047,2.047,0,0,1-1.628-.77v.715H40.424V40.913l1.243-.209v3.3a2.142,2.142,0,0,1,1.694-.781,2.645,2.645,0,0,1,2.5,2.805A2.671,2.671,0,0,1,43.273,48.834Zm-1.606-3.949v2.3a1.69,1.69,0,0,0,1.32.605,1.764,1.764,0,0,0,0-3.52A1.618,1.618,0,0,0,41.667,44.885Z"
         class="cls-3" />
      <path
         id="path125"
         d="M51.083,48.042a2.119,2.119,0,0,1-1.693.792,2.82,2.82,0,0,1,.076-5.61,2.105,2.105,0,0,1,1.607.725V40.913l1.243-.209v8.075H51.083Zm-1.319-.253a1.651,1.651,0,0,0,1.309-.605V44.862a1.71,1.71,0,0,0-1.309-.593,1.764,1.764,0,0,0,0,3.52Z"
         class="cls-3" />
      <path
         id="path127"
         d="M56.176,41.387a.776.776,0,0,1,1.551,0,.776.776,0,0,1-1.551,0Zm1.4,7.392H56.329V43.268h1.244Z"
         class="cls-3" />
      <path
         id="path129"
         d="M59.1,43.268h1.244v.879a1.881,1.881,0,0,1,1.639-.967A1.732,1.732,0,0,1,63.6,44.247a2.033,2.033,0,0,1,1.827-1.067,1.826,1.826,0,0,1,1.8,2v3.6H65.989V45.446a1.116,1.116,0,0,0-1.112-1.265,1.311,1.311,0,0,0-1.111.649c.011.121.022.231.022.352v3.6H62.545V45.446a1.115,1.115,0,0,0-1.111-1.265,1.279,1.279,0,0,0-1.089.627v3.971H59.1Z"
         class="cls-3" />
      <path
         id="path131"
         d="M68.462,47.2c0-.99.8-1.617,2.1-1.617a3.4,3.4,0,0,1,1.486.341v-.606c0-.725-.418-1.1-1.265-1.1a3.817,3.817,0,0,0-1.607.429l-.44-.9a5.29,5.29,0,0,1,2.289-.56c1.43,0,2.255.725,2.255,2v3.6H72.049v-.561a2.3,2.3,0,0,1-1.639.649A1.737,1.737,0,0,1,68.462,47.2Zm2.288.8a1.968,1.968,0,0,0,1.3-.451v-.9a2.853,2.853,0,0,0-1.277-.264c-.7,0-1.144.308-1.144.792C69.628,47.679,70.068,48,70.75,48Z"
         class="cls-3" />
      <path
         id="path133"
         d="M74.535,46.018a2.659,2.659,0,0,1,2.574-2.794,2.07,2.07,0,0,1,1.617.748v-.7h1.232v5.7c0,1.419-.924,2.2-2.6,2.2a4.8,4.8,0,0,1-2.211-.528l.44-.924a3.762,3.762,0,0,0,1.716.472c.924,0,1.408-.417,1.408-1.22v-.936a2.136,2.136,0,0,1-1.683.781A2.641,2.641,0,0,1,74.535,46.018Zm2.871,1.76a1.649,1.649,0,0,0,1.309-.6V44.862a1.709,1.709,0,0,0-1.309-.593,1.645,1.645,0,0,0-1.64,1.749A1.666,1.666,0,0,0,77.406,47.778Z"
         class="cls-3" />
      <path
         id="path135"
         d="M84.038,48.89a2.8,2.8,0,0,1-2.8-2.861,2.715,2.715,0,0,1,2.685-2.849,2.645,2.645,0,0,1,2.607,2.838v.308H82.454a1.685,1.685,0,0,0,1.651,1.507,1.79,1.79,0,0,0,1.309-.517l.814.759A3.184,3.184,0,0,1,84.038,48.89Zm-1.562-3.324h2.872a1.509,1.509,0,0,0-1.441-1.375A1.481,1.481,0,0,0,82.476,45.566Z"
         class="cls-3" />
      <path
         id="path137"
         d="M91.694,45.974l-2.013-2.706h1.452l1.287,1.815,1.287-1.815h1.387l-1.98,2.672,2.134,2.839H93.785L92.4,46.832l-1.386,1.947H89.626Z"
         class="cls-3" />
      <path
         id="path139"
         d="M97.568,45.974l-2.013-2.706h1.452l1.287,1.815,1.287-1.815h1.387l-1.98,2.672,2.134,2.839H99.659l-1.387-1.947-1.386,1.947H95.5Z"
         class="cls-3" />
      <path
         id="path141"
         d="M103.442,45.974l-2.013-2.706h1.452l1.287,1.815,1.287-1.815h1.387l-1.98,2.672L107,48.779h-1.463l-1.387-1.947-1.386,1.947h-1.386Z"
         class="cls-3" />
      <path
         id="path143"
         d="M36.189,60.505a3.178,3.178,0,0,0,1.771.628c.66,0,1.112-.3,1.112-.738,0-.34-.232-.528-.76-.626l-.979-.165c-1.067-.2-1.595-.694-1.595-1.519,0-1.034.847-1.7,2.134-1.7a3.878,3.878,0,0,1,2.167.66l-.583.814a3.01,3.01,0,0,0-1.661-.528c-.572,0-.946.241-.946.649,0,.352.2.506.781.6l.968.176c1.1.209,1.628.715,1.628,1.54a2.019,2.019,0,0,1-2.244,1.794,3.7,3.7,0,0,1-2.376-.748Z"
         class="cls-3" />
      <path
         id="path145"
         d="M41.216,54.586a.776.776,0,0,1,1.551,0,.776.776,0,0,1-1.551,0Zm1.4,7.393H41.37V56.468h1.243Z"
         class="cls-3" />
      <path
         id="path147"
         d="M43.8,61.066l2.839-3.531-2.817.011V56.468h4.346v.913l-2.861,3.543,2.927-.012v1.067H43.8Z"
         class="cls-3" />
      <path
         id="path149"
         d="M52,62.09a2.8,2.8,0,0,1-2.8-2.861,2.714,2.714,0,0,1,2.684-2.849,2.645,2.645,0,0,1,2.607,2.838v.308h-4.07a1.683,1.683,0,0,0,1.65,1.507,1.79,1.79,0,0,0,1.309-.516l.814.758A3.182,3.182,0,0,1,52,62.09Zm-1.562-3.323h2.872a1.51,1.51,0,0,0-1.442-1.375A1.48,1.48,0,0,0,50.434,58.767Z"
         class="cls-3" />
      <path
         id="path151"
         d="M60.664,62.09a3.869,3.869,0,0,1-2.849-1.155l.814-.76a2.521,2.521,0,0,0,2.024.858c.99,0,1.672-.516,1.672-1.276A1.216,1.216,0,0,0,60.961,58.6H60v-1h.858a1.116,1.116,0,0,0,1.221-1.156,1.329,1.329,0,0,0-1.463-1.22,2.38,2.38,0,0,0-1.914.913l-.815-.759a3.735,3.735,0,0,1,2.773-1.222c1.529,0,2.629.913,2.629,2.156a1.851,1.851,0,0,1-1.5,1.761,1.908,1.908,0,0,1,1.739,1.76C63.536,61.144,62.336,62.09,60.664,62.09Z"
         class="cls-3" />
      <path
         id="path153"
         d="M64.69,61.11l3.158-3.3a2.066,2.066,0,0,0,.748-1.453,1.256,1.256,0,0,0-1.409-1.132,2.77,2.77,0,0,0-1.991.946l-.682-.825A3.893,3.893,0,0,1,67.22,54.18c1.507,0,2.542.857,2.542,2.1a2.937,2.937,0,0,1-1.1,2.146L66.2,60.968l3.708-.023v1.034H64.69Z"
         class="cls-3" />
      <path
         id="path155"
         d="M72.544,55.939v6.04H71.323v-7.7h1.716l2.255,4.665,2.244-4.665h1.717v7.7H78.012V55.973L75.283,61.43Z"
         class="cls-3" />
      <path
         id="path157"
         d="M84.534,54.278c1.452,0,2.431.815,2.431,2.025a1.846,1.846,0,0,1-1.232,1.705,1.926,1.926,0,0,1,1.5,1.826c0,1.276-1.023,2.145-2.541,2.145H81.113v-7.7Zm-2.1,1.078v2.157H84.4c.759,0,1.243-.418,1.243-1.078s-.484-1.079-1.243-1.079ZM85.9,59.713a1.2,1.2,0,0,0-1.364-1.177h-2.1V60.9h2.1A1.208,1.208,0,0,0,85.9,59.713Z"
         class="cls-3" />
      <path
         id="path159"
         d="M90.935,54.586a.776.776,0,0,1,1.552,0,.776.776,0,0,1-1.552,0Zm1.4,7.393H91.089V56.468h1.243Z"
         class="cls-3" />
      <path
         id="path161"
         d="M93.861,56.468H95.1v.9a2,2,0,0,1,1.75-.99,1.854,1.854,0,0,1,1.9,1.969v3.63H97.514V58.7a1.186,1.186,0,0,0-1.21-1.32,1.414,1.414,0,0,0-1.2.66v3.938H93.861Z"
         class="cls-3" />
      <path
         id="path163"
         d="M102.551,59.856a2.029,2.029,0,0,1,1.661-1.881,1.876,1.876,0,0,1-1.408-1.716,2.661,2.661,0,0,1,5.2,0,1.879,1.879,0,0,1-1.4,1.716,2.029,2.029,0,0,1,1.661,1.881c0,1.309-1.188,2.245-2.861,2.245S102.551,61.165,102.551,59.856Zm4.511-.087c0-.749-.7-1.31-1.651-1.31s-1.661.561-1.661,1.31a1.7,1.7,0,0,0,3.312,0Zm-.231-3.433a1.449,1.449,0,1,0-1.42,1.187A1.3,1.3,0,0,0,106.831,56.336Z"
         class="cls-3" />
      <path
         id="path165"
         d="M114.607,56.38a2.856,2.856,0,1,1-2.772,2.849A2.752,2.752,0,0,1,114.607,56.38Zm1.54,2.86a1.558,1.558,0,1,0-3.08,0,1.555,1.555,0,1,0,3.08,0Z"
         class="cls-3" />
      <path
         id="path167"
         d="M121.515,62.034a2.049,2.049,0,0,1-1.628-.769v.714h-1.221V54.113l1.243-.209v3.3a2.147,2.147,0,0,1,1.694-.781,2.819,2.819,0,0,1-.088,5.61Zm-1.606-3.949v2.3a1.686,1.686,0,0,0,1.32.6,1.764,1.764,0,0,0,0-3.52A1.618,1.618,0,0,0,119.909,58.085Z"
         class="cls-3" />
      <path
         id="path169"
         d="M124.33,64.29v-1a1.809,1.809,0,0,0,.44.044c.43,0,.617-.177.617-.595v-6.27h1.243v6.326A1.452,1.452,0,0,1,125,64.367,2.9,2.9,0,0,1,124.33,64.29Zm.9-9.7a.776.776,0,0,1,1.551,0,.776.776,0,0,1-1.551,0Z"
         class="cls-3" />
      <path
         id="path171"
         d="M130.711,62.09a2.8,2.8,0,0,1-2.805-2.861,2.714,2.714,0,0,1,2.684-2.849,2.645,2.645,0,0,1,2.607,2.838v.308h-4.07a1.683,1.683,0,0,0,1.65,1.507,1.79,1.79,0,0,0,1.309-.516l.814.758A3.183,3.183,0,0,1,130.711,62.09Zm-1.562-3.323h2.871a1.509,1.509,0,0,0-1.441-1.375A1.48,1.48,0,0,0,129.149,58.767Z"
         class="cls-3" />
      <path
         id="path173"
         d="M138.4,60.384l.748.749a2.865,2.865,0,0,1-2.156.957,2.85,2.85,0,0,1,0-5.7,2.977,2.977,0,0,1,2.2.923l-.771.8a1.818,1.818,0,0,0-1.386-.649,1.768,1.768,0,0,0,.033,3.52A1.692,1.692,0,0,0,138.4,60.384Z"
         class="cls-3" />
      <path
         id="path175"
         d="M140.9,57.458h-1.111v-.99H140.9V54.949l1.243-.263v1.782h1.541v.99H142.14v2.794c0,.539.209.748.77.748a2.257,2.257,0,0,0,.748-.132v1.045a3.872,3.872,0,0,1-1.067.154c-1.111,0-1.694-.528-1.694-1.54Z"
         class="cls-3" />
      <path
         id="path177"
         d="M144.856,60.505a3.184,3.184,0,0,0,1.772.628c.66,0,1.111-.3,1.111-.738,0-.34-.231-.528-.759-.626L146,59.6c-1.068-.2-1.595-.694-1.595-1.519,0-1.034.847-1.7,2.134-1.7a3.878,3.878,0,0,1,2.167.66l-.583.814a3.012,3.012,0,0,0-1.661-.528c-.573,0-.947.241-.947.649,0,.352.2.506.782.6l.968.176c1.1.209,1.628.715,1.628,1.54a2.019,2.019,0,0,1-2.244,1.794,3.706,3.706,0,0,1-2.377-.748Z"
         class="cls-3" />
      <path
         id="path179"
         d="M38.62,69.58a2.856,2.856,0,1,1-2.772,2.85A2.753,2.753,0,0,1,38.62,69.58Zm1.541,2.86a1.558,1.558,0,1,0-3.081,0,1.556,1.556,0,1,0,3.081,0Z"
         class="cls-3" />
      <path
         id="path181"
         d="M42.679,69.668h1.243v1.2a1.635,1.635,0,0,1,1.519-1.3,1.473,1.473,0,0,1,.539.11v1.089a1.753,1.753,0,0,0-.682-.132,1.514,1.514,0,0,0-1.376.913V75.18H42.679Z"
         class="cls-3" />
      <path
         id="path183"
         d="M50.94,74.442a2.119,2.119,0,0,1-1.694.792,2.82,2.82,0,0,1,.077-5.61,2.106,2.106,0,0,1,1.607.726V67.313l1.243-.209V75.18H50.94Zm-1.32-.253a1.653,1.653,0,0,0,1.31-.6V71.263a1.712,1.712,0,0,0-1.31-.594,1.764,1.764,0,0,0,0,3.52Z"
         class="cls-3" />
      <path
         id="path185"
         d="M56.264,75.29a2.8,2.8,0,0,1-2.8-2.86,2.715,2.715,0,0,1,2.684-2.85,2.646,2.646,0,0,1,2.608,2.838v.309H54.68a1.682,1.682,0,0,0,1.65,1.506,1.792,1.792,0,0,0,1.31-.516l.813.759A3.185,3.185,0,0,1,56.264,75.29ZM54.7,71.967h2.872a1.509,1.509,0,0,0-1.442-1.375A1.48,1.48,0,0,0,54.7,71.967Z"
         class="cls-3" />
      <path
         id="path187"
         d="M60.015,69.668h1.243v1.2a1.634,1.634,0,0,1,1.518-1.3,1.473,1.473,0,0,1,.539.11v1.089a1.753,1.753,0,0,0-.682-.132,1.514,1.514,0,0,0-1.375.913V75.18H60.015Z"
         class="cls-3" />
      <path
         id="path189"
         d="M66.6,74.311l3.158-3.3a2.062,2.062,0,0,0,.748-1.452A1.255,1.255,0,0,0,69.1,68.425a2.77,2.77,0,0,0-1.991.946l-.682-.825a3.9,3.9,0,0,1,2.706-1.166c1.507,0,2.541.857,2.541,2.1a2.939,2.939,0,0,1-1.1,2.146l-2.464,2.542,3.707-.023V75.18H66.6Z"
         class="cls-3" />
      <path
         id="path191"
         d="M72.873,74.311l3.158-3.3a2.062,2.062,0,0,0,.748-1.452,1.255,1.255,0,0,0-1.408-1.133,2.77,2.77,0,0,0-1.991.946l-.682-.825A3.9,3.9,0,0,1,75.4,67.38c1.507,0,2.541.857,2.541,2.1a2.939,2.939,0,0,1-1.1,2.146l-2.464,2.542,3.707-.023V75.18H72.873Z"
         class="cls-3" />
      <path
         id="path193"
         d="M86.953,67.357l.661.792a5.37,5.37,0,0,0,0,8.67l-.661.8a6.279,6.279,0,0,1,0-10.265Z"
         class="cls-3" />
      <path
         id="path195"
         d="M93.862,72.242h.99v1.034h-.99v1.9h-1.2v-1.9H88.526V72.3L92.5,67.479h1.365Zm-1.2,0V68.766l-2.849,3.476Z"
         class="cls-3" />
      <path
         id="path197"
         d="M95.807,71.318c0-2.343,1.277-3.961,3.147-3.961s3.146,1.618,3.146,3.961c0,2.366-1.265,3.972-3.146,3.972S95.807,73.684,95.807,71.318Zm5.094,0c0-1.771-.759-2.893-1.947-2.893s-1.947,1.133-1.947,2.893c0,1.783.759,2.905,1.947,2.905S100.9,73.111,100.9,71.318Z"
         class="cls-3" />
      <path
         id="path199"
         d="M109.053,71.12c0,2.5-1.431,4.158-3.587,4.158a3.469,3.469,0,0,1-2.046-.66l.66-.89a2.439,2.439,0,0,0,1.485.472c1.43,0,2.266-1.122,2.288-3.057a2.67,2.67,0,0,1-2.123,1.122,2.384,2.384,0,0,1-2.574-2.367,2.542,2.542,0,0,1,2.706-2.53C107.754,67.368,109.053,68.9,109.053,71.12Zm-1.255-.737c-.187-1.2-.913-1.981-1.892-1.981a1.484,1.484,0,0,0-1.573,1.464,1.451,1.451,0,0,0,1.584,1.441A2.408,2.408,0,0,0,107.8,70.383Z"
         class="cls-3" />
      <path
         id="path201"
         d="M110.152,71.527c0-2.5,1.43-4.159,3.586-4.159a3.482,3.482,0,0,1,2.047.66l-.661.892a2.441,2.441,0,0,0-1.485-.474c-1.43,0-2.266,1.123-2.289,3.059a2.671,2.671,0,0,1,2.124-1.122,2.383,2.383,0,0,1,2.574,2.365,2.541,2.541,0,0,1-2.706,2.53C111.45,75.278,110.152,73.749,110.152,71.527Zm1.254.738c.187,1.2.913,1.979,1.892,1.979a1.483,1.483,0,0,0,1.573-1.463,1.452,1.452,0,0,0-1.584-1.441A2.409,2.409,0,0,0,111.406,72.265Z"
         class="cls-3" />
      <path
         id="path203"
         d="M119.974,67.479h1.32V71l3.345-3.52h1.606l-3.652,3.708,3.8,3.993h-1.749l-3.345-3.619V75.18h-1.32Z"
         class="cls-3" />
      <path
         id="path205"
         d="M130.744,67.479c1.452,0,2.431.814,2.431,2.024a1.846,1.846,0,0,1-1.232,1.7,1.926,1.926,0,0,1,1.5,1.826c0,1.277-1.023,2.146-2.541,2.146h-3.575v-7.7Zm-2.1,1.078v2.156h1.97c.759,0,1.243-.418,1.243-1.078s-.484-1.078-1.243-1.078Zm3.466,4.356a1.2,1.2,0,0,0-1.364-1.177h-2.1V74.1h2.1A1.209,1.209,0,0,0,132.108,72.913Z"
         class="cls-3" />
      <path
         id="path207"
         d="M139.819,69.58a2.856,2.856,0,1,1-2.773,2.85A2.752,2.752,0,0,1,139.819,69.58Zm1.54,2.86a1.558,1.558,0,1,0-3.081,0,1.556,1.556,0,1,0,3.081,0Z"
         class="cls-3" />
      <path
         id="path209"
         d="M146.727,75.234a2.051,2.051,0,0,1-1.629-.769v.715h-1.221V67.313l1.243-.209v3.3a2.149,2.149,0,0,1,1.695-.781,2.819,2.819,0,0,1-.088,5.61Zm-1.607-3.949v2.3a1.688,1.688,0,0,0,1.321.6,1.764,1.764,0,0,0,0-3.52A1.62,1.62,0,0,0,145.12,71.285Z"
         class="cls-3" />
      <path
         id="path211"
         d="M149.542,77.49v-1a1.8,1.8,0,0,0,.44.044c.429,0,.616-.177.616-.595v-6.27h1.243v6.326a1.452,1.452,0,0,1-1.628,1.573A2.888,2.888,0,0,1,149.542,77.49Zm.9-9.7a.776.776,0,0,1,1.551,0,.776.776,0,0,1-1.551,0Z"
         class="cls-3" />
      <path
         id="path213"
         d="M155.922,75.29a2.8,2.8,0,0,1-2.805-2.86,2.715,2.715,0,0,1,2.685-2.85,2.646,2.646,0,0,1,2.607,2.838v.309h-4.071a1.683,1.683,0,0,0,1.651,1.506,1.79,1.79,0,0,0,1.309-.516l.814.759A3.188,3.188,0,0,1,155.922,75.29Zm-1.562-3.323h2.872a1.509,1.509,0,0,0-1.442-1.375A1.48,1.48,0,0,0,154.36,71.967Z"
         class="cls-3" />
      <path
         id="path215"
         d="M163.612,73.584l.748.749a2.867,2.867,0,0,1-2.157.957,2.85,2.85,0,0,1,0-5.7,2.971,2.971,0,0,1,2.2.924l-.77.8a1.821,1.821,0,0,0-1.386-.649,1.768,1.768,0,0,0,.033,3.52A1.693,1.693,0,0,0,163.612,73.584Z"
         class="cls-3" />
      <path
         id="path217"
         d="M166.108,70.658H165v-.99h1.111V68.149l1.243-.263v1.782h1.541v.99h-1.541v2.794c0,.539.209.748.77.748a2.249,2.249,0,0,0,.748-.132v1.045a3.86,3.86,0,0,1-1.066.155c-1.112,0-1.695-.529-1.695-1.54Z"
         class="cls-3" />
      <path
         id="path219"
         d="M170.068,73.705a3.178,3.178,0,0,0,1.771.628c.66,0,1.112-.3,1.112-.737,0-.341-.232-.529-.76-.627l-.979-.165c-1.067-.2-1.595-.694-1.595-1.519,0-1.034.847-1.7,2.134-1.7a3.878,3.878,0,0,1,2.167.66l-.583.814a3.01,3.01,0,0,0-1.661-.528c-.572,0-.946.242-.946.649,0,.352.2.507.781.605l.968.176c1.1.209,1.628.715,1.628,1.54a2.019,2.019,0,0,1-2.244,1.794,3.7,3.7,0,0,1-2.376-.748Z"
         class="cls-3" />
      <path
         id="path221"
         d="M175.612,77.622l-.66-.792a5.37,5.37,0,0,0,0-8.669l.66-.8a6.279,6.279,0,0,1,0,10.265Z"
         class="cls-3" />
      <path
         id="path223"
         d="M38.951,88.434a2.05,2.05,0,0,1-1.629-.77v.715H36.1V80.513l1.243-.209v3.3a2.147,2.147,0,0,1,1.694-.781,2.82,2.82,0,0,1-.087,5.611Zm-1.607-3.95v2.3a1.687,1.687,0,0,0,1.32.606,1.765,1.765,0,0,0,0-3.521A1.618,1.618,0,0,0,37.344,84.484Z"
         class="cls-3" />
      <path
         id="path225"
         d="M44.065,88.379H42.822V80.513l1.243-.209Z"
         class="cls-3" />
      <path
         id="path227"
         d="M48.113,82.779a2.856,2.856,0,1,1-2.772,2.85A2.753,2.753,0,0,1,48.113,82.779Zm1.54,2.861a1.558,1.558,0,1,0-3.08,0,1.555,1.555,0,1,0,3.08,0Z"
         class="cls-3" />
      <path
         id="path229"
         d="M56.11,86.783l.748.749a2.865,2.865,0,0,1-2.156.957,2.85,2.85,0,0,1,0-5.7,2.974,2.974,0,0,1,2.2.924l-.771.8a1.819,1.819,0,0,0-1.386-.65,1.769,1.769,0,0,0,.033,3.521A1.691,1.691,0,0,0,56.11,86.783Z"
         class="cls-3" />
      <path
         id="path231"
         d="M57.925,80.513l1.243-.209v4.918l2.288-2.355h1.419L60.356,85.42l2.674,2.959h-1.6l-2.266-2.541v2.541H57.925Z"
         class="cls-3" />
      <path
         id="path233"
         d="M68.232,90.161H63.094v-.9h5.138Z"
         class="cls-3" />
      <path
         id="path235"
         d="M68.979,82.867h1.244v.9a2,2,0,0,1,1.749-.991,1.855,1.855,0,0,1,1.9,1.969v3.631H72.632V85.1a1.187,1.187,0,0,0-1.21-1.321,1.415,1.415,0,0,0-1.2.66v3.939H68.979Z"
         class="cls-3" />
      <path
         id="path237"
         d="M75.106,86.8c0-.99.8-1.617,2.1-1.617a3.4,3.4,0,0,1,1.486.341v-.606c0-.726-.418-1.1-1.265-1.1a3.817,3.817,0,0,0-1.607.429l-.44-.9a5.292,5.292,0,0,1,2.289-.561c1.43,0,2.255.726,2.255,2v3.6H78.693v-.562a2.3,2.3,0,0,1-1.639.65A1.738,1.738,0,0,1,75.106,86.8Zm2.288.8a1.962,1.962,0,0,0,1.3-.452v-.9a2.867,2.867,0,0,0-1.277-.264c-.7,0-1.144.309-1.144.792C76.272,87.278,76.712,87.6,77.394,87.6Z"
         class="cls-3" />
      <path
         id="path239"
         d="M81.431,82.867h1.243v.88a1.88,1.88,0,0,1,1.639-.968,1.731,1.731,0,0,1,1.618,1.068,2.034,2.034,0,0,1,1.826-1.068,1.826,1.826,0,0,1,1.8,2v3.6H88.318V85.046a1.116,1.116,0,0,0-1.111-1.266,1.312,1.312,0,0,0-1.111.65c.011.121.022.23.022.351v3.6H84.874V85.046a1.115,1.115,0,0,0-1.11-1.266,1.281,1.281,0,0,0-1.09.627v3.972H81.431Z"
         class="cls-3" />
      <path
         id="path241"
         d="M93.619,88.489a2.8,2.8,0,0,1-2.805-2.86,2.716,2.716,0,0,1,2.685-2.85,2.646,2.646,0,0,1,2.607,2.838v.309h-4.07a1.683,1.683,0,0,0,1.65,1.507A1.79,1.79,0,0,0,95,86.916l.814.759A3.188,3.188,0,0,1,93.619,88.489Zm-1.562-3.323h2.872a1.509,1.509,0,0,0-1.441-1.375A1.481,1.481,0,0,0,92.057,85.166Z"
         class="cls-3" />
      <path
         id="path243"
         d="M101.727,90.161H96.589v-.9h5.138Z"
         class="cls-3" />
      <path
         id="path245"
         d="M102.474,82.867H103.7v.792a2.076,2.076,0,0,1,1.716-.836,2.82,2.82,0,0,1-.087,5.611,2.061,2.061,0,0,1-1.607-.715v2.992h-1.243Zm1.243,1.617v2.3a1.687,1.687,0,0,0,1.32.606,1.765,1.765,0,0,0,0-3.521A1.618,1.618,0,0,0,103.717,84.484Z"
         class="cls-3" />
      <path
         id="path247"
         d="M109.2,82.867h1.243v1.2a1.633,1.633,0,0,1,1.518-1.3,1.452,1.452,0,0,1,.539.109v1.089a1.753,1.753,0,0,0-.682-.132,1.514,1.514,0,0,0-1.375.913v3.631H109.2Z"
         class="cls-3" />
      <path
         id="path249"
         d="M116.07,88.489a2.8,2.8,0,0,1-2.8-2.86,2.715,2.715,0,0,1,2.685-2.85,2.646,2.646,0,0,1,2.607,2.838v.309h-4.071a1.683,1.683,0,0,0,1.651,1.507,1.79,1.79,0,0,0,1.309-.517l.814.759A3.188,3.188,0,0,1,116.07,88.489Zm-1.562-3.323h2.872a1.51,1.51,0,0,0-1.442-1.375A1.48,1.48,0,0,0,114.508,85.166Z"
         class="cls-3" />
      <path
         id="path251"
         d="M120.569,82.867v-.979a1.692,1.692,0,0,1,1.9-1.848,3.038,3.038,0,0,1,.825.109v1.057a2.539,2.539,0,0,0-.66-.088c-.572,0-.825.253-.825.792v.957H123.3v.99h-1.485v4.522h-1.243V83.857h-1.188v-.99Z"
         class="cls-3" />
      <path
         id="path253"
         d="M124.188,80.986a.776.776,0,0,1,1.551,0,.776.776,0,0,1-1.551,0Zm1.4,7.393h-1.243V82.867h1.243Z"
         class="cls-3" />
      <path
         id="path255"
         d="M128.544,85.573l-2.013-2.706h1.452l1.287,1.816,1.287-1.816h1.386l-1.98,2.673,2.135,2.839h-1.464l-1.386-1.947-1.386,1.947h-1.387Z"
         class="cls-3" />
      <path
         id="path257"
         d="M134.33,83.549a.771.771,0,1,1-.77-.8A.788.788,0,0,1,134.33,83.549Zm0,4.126a.771.771,0,1,1-.77-.8A.787.787,0,0,1,134.33,87.675Z"
         class="cls-3" />
      <path
         id="path259"
         d="M138.158,82.867H139.4v1.2a1.633,1.633,0,0,1,1.518-1.3,1.452,1.452,0,0,1,.539.109v1.089a1.753,1.753,0,0,0-.682-.132,1.514,1.514,0,0,0-1.375.913v3.631h-1.243Z"
         class="cls-3" />
      <path
         id="path261"
         d="M145.33,88.434a2.05,2.05,0,0,1-1.628-.77v.715H142.48V80.513l1.243-.209v3.3a2.149,2.149,0,0,1,1.695-.781,2.82,2.82,0,0,1-.088,5.611Zm-1.607-3.95v2.3a1.689,1.689,0,0,0,1.321.606,1.765,1.765,0,0,0,0-3.521A1.621,1.621,0,0,0,143.723,84.484Z"
         class="cls-3" />
      <path
         id="path263"
         d="M150.543,87.675a.771.771,0,1,1-.77-.8A.787.787,0,0,1,150.543,87.675Z"
         class="cls-3" />
      <path
         id="path265"
         d="M151.687,84.518c0-2.344,1.277-3.961,3.147-3.961s3.146,1.617,3.146,3.961c0,2.365-1.265,3.971-3.146,3.971S151.687,86.883,151.687,84.518Zm5.094,0c0-1.772-.759-2.894-1.947-2.894s-1.947,1.133-1.947,2.894c0,1.782.759,2.9,1.947,2.9S156.781,86.311,156.781,84.518Z"
         class="cls-3" />
      <path
         id="path267"
         d="M160.652,87.675a.771.771,0,1,1-.77-.8A.787.787,0,0,1,160.652,87.675Z"
         class="cls-3" />
      <path
         id="path269"
         d="M161.8,84.518c0-2.344,1.277-3.961,3.147-3.961s3.146,1.617,3.146,3.961c0,2.365-1.265,3.971-3.146,3.971S161.8,86.883,161.8,84.518Zm5.094,0c0-1.772-.759-2.894-1.947-2.894S163,82.757,163,84.518c0,1.782.76,2.9,1.948,2.9S166.89,86.311,166.89,84.518Z"
         class="cls-3" />
      <path
         id="path271"
         d="M36.1,96.067h1.221v.792a2.076,2.076,0,0,1,1.716-.836,2.82,2.82,0,0,1-.087,5.611,2.061,2.061,0,0,1-1.607-.715v2.992H36.1Zm1.243,1.618v2.3a1.687,1.687,0,0,0,1.32.606,1.765,1.765,0,0,0,0-3.521A1.616,1.616,0,0,0,37.344,97.685Z"
         class="cls-3" />
      <path
         id="path273"
         d="M42.547,100c0-.99.8-1.617,2.1-1.617a3.392,3.392,0,0,1,1.485.341v-.606c0-.725-.418-1.1-1.265-1.1a3.81,3.81,0,0,0-1.606.428l-.44-.9a5.291,5.291,0,0,1,2.288-.561c1.43,0,2.256.726,2.256,2v3.6H46.133v-.561a2.3,2.3,0,0,1-1.639.649A1.738,1.738,0,0,1,42.547,100Zm2.288.8a1.965,1.965,0,0,0,1.3-.451v-.9a2.865,2.865,0,0,0-1.276-.263c-.7,0-1.144.308-1.144.792C43.713,100.479,44.153,100.8,44.835,100.8Z"
         class="cls-3" />
      <path
         id="path275"
         d="M48.872,96.067h1.243v1.2a1.633,1.633,0,0,1,1.519-1.3,1.452,1.452,0,0,1,.539.109v1.089a1.756,1.756,0,0,0-.682-.132,1.514,1.514,0,0,0-1.376.913v3.631H48.872Z"
         class="cls-3" />
      <path
         id="path277"
         d="M55.747,101.689a2.8,2.8,0,0,1-2.8-2.86,2.715,2.715,0,0,1,2.684-2.85,2.646,2.646,0,0,1,2.607,2.838v.309h-4.07a1.683,1.683,0,0,0,1.65,1.507,1.79,1.79,0,0,0,1.309-.517l.814.759A3.182,3.182,0,0,1,55.747,101.689Zm-1.562-3.323h2.872a1.511,1.511,0,0,0-1.442-1.375A1.48,1.48,0,0,0,54.185,98.366Z"
         class="cls-3" />
      <path
         id="path279"
         d="M59.5,96.067h1.244v.9a2,2,0,0,1,1.749-.991,1.855,1.855,0,0,1,1.9,1.969v3.631H63.15V98.3a1.187,1.187,0,0,0-1.21-1.321,1.414,1.414,0,0,0-1.2.661v3.938H59.5Z"
         class="cls-3" />
      <path
         id="path281"
         d="M66.581,97.058H65.47v-.991h1.111V94.549l1.244-.264v1.782h1.54v.991h-1.54v2.794c0,.539.209.748.77.748a2.283,2.283,0,0,0,.748-.132v1.045a3.91,3.91,0,0,1-1.067.154c-1.112,0-1.695-.528-1.695-1.54Z"
         class="cls-3" />
      <path
         id="path283"
         d="M71.8,96.749a.771.771,0,1,1-.77-.8A.788.788,0,0,1,71.8,96.749Zm0,4.126a.771.771,0,1,1-.77-.8A.787.787,0,0,1,71.8,100.875Z"
         class="cls-3" />
      <path
         id="path285"
         d="M78.274,93.757l.66.792a5.371,5.371,0,0,0,0,8.67l-.66.8a6.278,6.278,0,0,1,0-10.264Z"
         class="cls-3" />
      <path
         id="path287"
         d="M80.177,96.067H81.4v.792a2.078,2.078,0,0,1,1.717-.836,2.82,2.82,0,0,1-.088,5.611,2.061,2.061,0,0,1-1.607-.715v2.992H80.177Zm1.243,1.618v2.3a1.689,1.689,0,0,0,1.321.606,1.765,1.765,0,0,0,0-3.521A1.616,1.616,0,0,0,81.42,97.685Z"
         class="cls-3" />
      <path
         id="path289"
         d="M89.417,95.979a2.856,2.856,0,1,1-2.772,2.85A2.753,2.753,0,0,1,89.417,95.979Zm1.54,2.861a1.558,1.558,0,1,0-3.08,0,1.555,1.555,0,1,0,3.08,0Z"
         class="cls-3" />
      <path
         id="path291"
         d="M96,95.979a2.856,2.856,0,1,1-2.772,2.85A2.753,2.753,0,0,1,96,95.979Zm1.541,2.861a1.558,1.558,0,1,0-3.081,0,1.556,1.556,0,1,0,3.081,0Z"
         class="cls-3" />
      <path
         id="path293"
         d="M101.3,101.579h-1.243V93.713L101.3,93.5Z"
         class="cls-3" />
      <path
         id="path295"
         d="M108.986,97.937v1.045h-3.828V97.937Z"
         class="cls-3" />
      <path
         id="path297"
         d="M115.057,101.579h-1.2V95.132l-1.365.595V94.659l1.805-.781h.758Z"
         class="cls-3" />
      <path
         id="path299"
         d="M116.983,104.021l-.66-.792a5.369,5.369,0,0,0,0-8.668l.66-.8a6.278,6.278,0,0,1,0,10.264Z"
         class="cls-3" />
    </g>
  </g>
  <g
     data-name="Blue connector 2"
     id="Blue_connector_2">
    <g
       id="g308">
      <line
         id="line304"
         y2="146.928"
         x2="376.836"
         y1="118.483"
         x1="376.836"
         class="cls-7" />
      <polygon
         id="polygon306"
         points="371.85 145.469 376.836 154.105 381.823 145.469 371.85 145.469"
         class="cls-8" />
    </g>
  </g>
  <g
     data-name="4MB"
     id="_4MB">
    <g
       id="g320">
      <path
         d="M115.228,220.8h-79.9V167.535h79.9Z"
         class="cls-8"
         id="path642" />
      <g
         id="g318">
        <path
           id="path312"
           d="M68.348,195.082h.991v1.034h-.991v1.9h-1.2v-1.9H63.013v-.98l3.971-4.818h1.364Zm-1.2,0v-3.477L64.3,195.082Z"
           class="cls-9" />
        <path
           id="path314"
           d="M71.879,191.979v6.04H70.658v-7.7h1.716l2.255,4.665,2.244-4.665H78.59v7.7H77.347v-6.007l-2.729,5.457Z"
           class="cls-9" />
        <path
           id="path316"
           d="M83.869,190.318c1.452,0,2.431.814,2.431,2.024a1.844,1.844,0,0,1-1.232,1.7,1.926,1.926,0,0,1,1.5,1.827c0,1.276-1.023,2.145-2.541,2.145H80.448v-7.7Zm-2.1,1.078v2.156h1.97c.759,0,1.243-.418,1.243-1.078S84.5,191.4,83.737,191.4Zm3.466,4.356a1.2,1.2,0,0,0-1.364-1.176h-2.1v2.365h2.1A1.209,1.209,0,0,0,85.233,195.752Z"
           class="cls-9" />
      </g>
    </g>
    <g
       id="g331">
      <path
         d="M201.433,220.8h-79.9V167.535h79.9Z"
         class="cls-8"
         id="path644" />
      <g
         id="g329">
        <path
           id="path323"
           d="M154.583,195.082h.991v1.034h-.991v1.9h-1.2v-1.9h-4.137v-.98l3.972-4.818h1.364Zm-1.2,0v-3.477l-2.849,3.477Z"
           class="cls-9" />
        <path
           id="path325"
           d="M158.114,191.979v6.04h-1.222v-7.7h1.717l2.255,4.665,2.244-4.665h1.717v7.7h-1.244v-6.007l-2.728,5.457Z"
           class="cls-9" />
        <path
           id="path327"
           d="M170.1,190.318c1.452,0,2.431.814,2.431,2.024a1.844,1.844,0,0,1-1.232,1.7,1.926,1.926,0,0,1,1.5,1.827c0,1.276-1.023,2.145-2.541,2.145h-3.576v-7.7ZM168,191.4v2.156h1.97c.759,0,1.243-.418,1.243-1.078s-.484-1.078-1.243-1.078Zm3.466,4.356a1.2,1.2,0,0,0-1.364-1.176H168v2.365h2.1A1.209,1.209,0,0,0,171.468,195.752Z"
           class="cls-9" />
      </g>
    </g>
    <g
       id="g342">
      <path
         d="M287.639,220.8h-79.9V167.535h79.9Z"
         class="cls-8"
         id="path646" />
      <g
         id="g340">
        <path
           id="path334"
           d="M240.818,195.082h.99v1.034h-.99v1.9h-1.2v-1.9h-4.137v-.98l3.972-4.818h1.364Zm-1.2,0v-3.477l-2.85,3.477Z"
           class="cls-9" />
        <path
           id="path336"
           d="M244.348,191.979v6.04h-1.221v-7.7h1.717l2.254,4.665,2.245-4.665h1.716v7.7h-1.243v-6.007l-2.728,5.457Z"
           class="cls-9" />
        <path
           id="path338"
           d="M256.339,190.318c1.452,0,2.431.814,2.431,2.024a1.844,1.844,0,0,1-1.232,1.7,1.926,1.926,0,0,1,1.5,1.827c0,1.276-1.023,2.145-2.541,2.145h-3.576v-7.7Zm-2.1,1.078v2.156h1.969c.76,0,1.244-.418,1.244-1.078s-.484-1.078-1.244-1.078Zm3.466,4.356a1.2,1.2,0,0,0-1.364-1.176h-2.1v2.365h2.1A1.209,1.209,0,0,0,257.7,195.752Z"
           class="cls-9" />
      </g>
    </g>
    <g
       id="g353">
      <path
         d="M373.844,220.8h-79.9V167.535h79.9Z"
         class="cls-8"
         id="path648" />
      <g
         id="g351">
        <path
           id="path345"
           d="M327.053,195.082h.99v1.034h-.99v1.9h-1.2v-1.9h-4.137v-.98l3.972-4.818h1.364Zm-1.2,0v-3.477L323,195.082Z"
           class="cls-9" />
        <path
           id="path347"
           d="M330.583,191.979v6.04h-1.221v-7.7h1.716l2.255,4.665,2.245-4.665h1.716v7.7h-1.243v-6.007l-2.728,5.457Z"
           class="cls-9" />
        <path
           id="path349"
           d="M342.574,190.318c1.452,0,2.431.814,2.431,2.024a1.844,1.844,0,0,1-1.232,1.7,1.926,1.926,0,0,1,1.5,1.827c0,1.276-1.023,2.145-2.542,2.145h-3.575v-7.7Zm-2.1,1.078v2.156h1.969c.76,0,1.244-.418,1.244-1.078s-.484-1.078-1.244-1.078Zm3.466,4.356a1.2,1.2,0,0,0-1.364-1.176h-2.1v2.365h2.1A1.209,1.209,0,0,0,343.938,195.752Z"
           class="cls-9" />
      </g>
    </g>
    <g
       id="g364">
      <path
         d="M460.049,220.8h-79.9V167.535h79.9Z"
         class="cls-8"
         id="path650" />
      <g
         id="g362">
        <path
           id="path356"
           d="M413.288,195.082h.99v1.034h-.99v1.9h-1.2v-1.9h-4.137v-.98l3.972-4.818h1.364Zm-1.2,0v-3.477l-2.85,3.477Z"
           class="cls-9" />
        <path
           id="path358"
           d="M416.818,191.979v6.04H415.6v-7.7h1.716l2.255,4.665,2.245-4.665h1.716v7.7h-1.243v-6.007l-2.729,5.457Z"
           class="cls-9" />
        <path
           id="path360"
           d="M428.808,190.318c1.453,0,2.432.814,2.432,2.024a1.844,1.844,0,0,1-1.232,1.7,1.926,1.926,0,0,1,1.5,1.827c0,1.276-1.023,2.145-2.542,2.145h-3.575v-7.7Zm-2.1,1.078v2.156h1.969c.759,0,1.244-.418,1.244-1.078s-.485-1.078-1.244-1.078Zm3.466,4.356a1.2,1.2,0,0,0-1.365-1.176h-2.1v2.365h2.1A1.209,1.209,0,0,0,430.173,195.752Z"
           class="cls-9" />
      </g>
    </g>
    <g
       id="g375">
      <path
         d="M546.254,220.8h-79.9V167.535h79.9Z"
         class="cls-8"
         id="path652" />
      <g
         id="g373">
        <path
           id="path367"
           d="M499.523,195.082h.99v1.034h-.99v1.9h-1.2v-1.9h-4.137v-.98l3.972-4.818h1.364Zm-1.2,0v-3.477l-2.85,3.477Z"
           class="cls-9" />
        <path
           id="path369"
           d="M503.053,191.979v6.04h-1.222v-7.7h1.717l2.255,4.665,2.244-4.665h1.717v7.7h-1.243v-6.007l-2.729,5.457Z"
           class="cls-9" />
        <path
           id="path371"
           d="M515.043,190.318c1.452,0,2.431.814,2.431,2.024a1.843,1.843,0,0,1-1.231,1.7,1.926,1.926,0,0,1,1.5,1.827c0,1.276-1.024,2.145-2.542,2.145h-3.576v-7.7Zm-2.1,1.078v2.156h1.969c.759,0,1.244-.418,1.244-1.078s-.485-1.078-1.244-1.078Zm3.466,4.356a1.2,1.2,0,0,0-1.365-1.176h-2.1v2.365h2.1A1.209,1.209,0,0,0,516.408,195.752Z"
           class="cls-9" />
      </g>
    </g>
    <g
       id="g386">
      <path
         d="M632.46,220.8h-79.9V167.535h79.9Z"
         class="cls-8"
         id="path654" />
      <g
         id="g384">
        <path
           id="path378"
           d="M585.757,195.082h.99v1.034h-.99v1.9h-1.2v-1.9h-4.137v-.98l3.972-4.818h1.364Zm-1.2,0v-3.477l-2.85,3.477Z"
           class="cls-9" />
        <path
           id="path380"
           d="M589.287,191.979v6.04h-1.22v-7.7h1.716l2.254,4.665,2.246-4.665H596v7.7h-1.243v-6.007l-2.728,5.457Z"
           class="cls-9" />
        <path
           id="path382"
           d="M601.278,190.318c1.452,0,2.431.814,2.431,2.024a1.844,1.844,0,0,1-1.232,1.7,1.926,1.926,0,0,1,1.5,1.827c0,1.276-1.022,2.145-2.541,2.145h-3.575v-7.7Zm-2.1,1.078v2.156h1.97c.759,0,1.243-.418,1.243-1.078s-.484-1.078-1.243-1.078Zm3.466,4.356a1.2,1.2,0,0,0-1.364-1.176h-2.1v2.365h2.1A1.209,1.209,0,0,0,602.642,195.752Z"
           class="cls-9" />
      </g>
    </g>
    <g
       id="g397">
      <path
         d="M718.665,221.084h-79.9V167.818h79.9Z"
         class="cls-8"
         id="path656" />
      <g
         id="g395">
        <path
           id="path389"
           d="M671.993,195.365h.99V196.4h-.99v1.9h-1.2v-1.9h-4.136v-.98l3.971-4.818h1.365Zm-1.2,0v-3.477l-2.849,3.477Z"
           class="cls-9" />
        <path
           id="path391"
           d="M675.523,192.262v6.04H674.3v-7.7h1.717l2.255,4.665,2.244-4.665h1.717v7.7h-1.243V192.3l-2.729,5.457Z"
           class="cls-9" />
        <path
           id="path393"
           d="M687.513,190.6c1.452,0,2.431.815,2.431,2.024a1.846,1.846,0,0,1-1.232,1.706,1.926,1.926,0,0,1,1.5,1.826c0,1.276-1.023,2.145-2.542,2.145h-3.575v-7.7Zm-2.1,1.078v2.156h1.969c.76,0,1.244-.418,1.244-1.078s-.484-1.078-1.244-1.078Zm3.466,4.357a1.2,1.2,0,0,0-1.364-1.177h-2.1v2.365h2.1A1.209,1.209,0,0,0,688.877,196.036Z"
           class="cls-9" />
      </g>
    </g>
  </g>
  <g
     data-name="PG 0.aaabac"
     id="PG_0.aaabac">
    <g
       id="g415">
      <path
         d="M115.228,384.1h-79.9V330.834h79.9Z"
         class="cls-10"
         id="path14" />
      <g
         id="g413">
        <path
           id="path401"
           d="M68.208,344.076h3.444a2.389,2.389,0,1,1,0,4.764H69.528v2.937h-1.32Zm1.32,1.111v2.575h1.915a1.3,1.3,0,1,0,.01-2.575Z"
           class="cls-3" />
        <path
           id="path403"
           d="M79.286,351.9a3.972,3.972,0,0,1-.022-7.943,4.036,4.036,0,0,1,3.113,1.364l-.924.848a2.752,2.752,0,0,0-2.189-1.034,2.806,2.806,0,0,0,.032,5.6A2.319,2.319,0,0,0,81.64,348.7h-2.3v-1.122h3.674V348A3.724,3.724,0,0,1,79.286,351.9Z"
           class="cls-3" />
        <path
           id="path405"
           d="M64.886,365.916c0-2.344,1.276-3.961,3.147-3.961s3.146,1.617,3.146,3.961c0,2.365-1.265,3.972-3.146,3.972S64.886,368.281,64.886,365.916Zm5.094,0c0-1.771-.759-2.894-1.947-2.894s-1.948,1.133-1.948,2.894c0,1.782.76,2.9,1.948,2.9S69.98,367.709,69.98,365.916Z"
           class="cls-3" />
        <path
           id="path407"
           d="M73.851,369.073a.771.771,0,1,1-.77-.8A.787.787,0,0,1,73.851,369.073Z"
           class="cls-3" />
        <path
           id="path409"
           d="M74.929,368.193c0-.99.8-1.617,2.1-1.617a3.406,3.406,0,0,1,1.485.341v-.6c0-.726-.417-1.1-1.265-1.1a3.813,3.813,0,0,0-1.606.429l-.44-.9a5.3,5.3,0,0,1,2.289-.56c1.43,0,2.255.725,2.255,2v3.6H78.515v-.561a2.3,2.3,0,0,1-1.639.649A1.737,1.737,0,0,1,74.929,368.193Zm2.288.8a1.96,1.96,0,0,0,1.3-.451v-.9a2.852,2.852,0,0,0-1.276-.264c-.7,0-1.144.308-1.144.792C76.1,368.677,76.535,369,77.217,369Z"
           class="cls-3" />
        <path
           id="path411"
           d="M80.979,368.193c0-.99.8-1.617,2.1-1.617a3.406,3.406,0,0,1,1.485.341v-.6c0-.726-.418-1.1-1.265-1.1a3.813,3.813,0,0,0-1.606.429l-.44-.9a5.3,5.3,0,0,1,2.288-.56c1.431,0,2.256.725,2.256,2v3.6H84.565v-.561a2.3,2.3,0,0,1-1.639.649A1.737,1.737,0,0,1,80.979,368.193Zm2.288.8a1.96,1.96,0,0,0,1.3-.451v-.9a2.852,2.852,0,0,0-1.276-.264c-.7,0-1.144.308-1.144.792C82.145,368.677,82.585,369,83.267,369Z"
           class="cls-3" />
      </g>
    </g>
    <g
       id="g432">
      <path
         d="M201.433,384.1h-79.9V330.834h79.9Z"
         class="cls-10"
         id="path16" />
      <g
         id="g430">
        <path
           id="path418"
           d="M154.864,344.076h3.443a2.389,2.389,0,1,1,0,4.763h-2.124v2.938h-1.319Zm1.319,1.111v2.574H158.1a1.3,1.3,0,1,0,.011-2.574Z"
           class="cls-3" />
        <path
           id="path420"
           d="M165.941,351.9a3.972,3.972,0,0,1-.022-7.943,4.036,4.036,0,0,1,3.113,1.364l-.924.847a2.753,2.753,0,0,0-2.189-1.034,2.807,2.807,0,0,0,.033,5.6A2.319,2.319,0,0,0,168.3,348.7H166v-1.122h3.674V348A3.725,3.725,0,0,1,165.941,351.9Z"
           class="cls-3" />
        <path
           id="path422"
           d="M151.206,365.916c0-2.344,1.276-3.961,3.146-3.961s3.147,1.617,3.147,3.961c0,2.365-1.265,3.971-3.147,3.971S151.206,368.281,151.206,365.916Zm5.094,0c0-1.772-.76-2.894-1.948-2.894s-1.947,1.133-1.947,2.894c0,1.782.759,2.9,1.947,2.9S156.3,367.708,156.3,365.916Z"
           class="cls-3" />
        <path
           id="path424"
           d="M160.171,369.073a.771.771,0,1,1-.77-.8A.786.786,0,0,1,160.171,369.073Z"
           class="cls-3" />
        <path
           id="path426"
           d="M161.249,368.193c0-.99.8-1.617,2.1-1.617a3.4,3.4,0,0,1,1.485.34v-.605c0-.726-.418-1.1-1.265-1.1a3.813,3.813,0,0,0-1.606.429l-.44-.9a5.291,5.291,0,0,1,2.288-.561c1.431,0,2.256.726,2.256,2v3.6h-1.233v-.562a2.3,2.3,0,0,1-1.639.65A1.738,1.738,0,0,1,161.249,368.193Zm2.288.8a1.961,1.961,0,0,0,1.3-.452v-.9a2.866,2.866,0,0,0-1.276-.264c-.7,0-1.144.309-1.144.792C162.415,368.676,162.855,369,163.537,369Z"
           class="cls-3" />
        <path
           id="path428"
           d="M170.423,369.832a2.05,2.05,0,0,1-1.628-.77v.715h-1.221v-7.866l1.243-.209V365a2.145,2.145,0,0,1,1.694-.781,2.82,2.82,0,0,1-.088,5.611Zm-1.606-3.95v2.3a1.687,1.687,0,0,0,1.32.606,1.765,1.765,0,0,0,0-3.521A1.618,1.618,0,0,0,168.817,365.882Z"
           class="cls-3" />
      </g>
    </g>
    <g
       id="g449">
      <path
         d="M287.639,384.1h-79.9V330.834h79.9Z"
         class="cls-10"
         id="path18" />
      <g
         id="g447">
        <path
           id="path435"
           d="M240.469,344.076h3.443a2.389,2.389,0,1,1,0,4.763h-2.124v2.938h-1.319Zm1.319,1.111v2.574H243.7a1.3,1.3,0,1,0,.011-2.574Z"
           class="cls-3" />
        <path
           id="path437"
           d="M251.546,351.9a3.972,3.972,0,0,1-.022-7.943,4.036,4.036,0,0,1,3.113,1.364l-.924.847a2.753,2.753,0,0,0-2.189-1.034,2.807,2.807,0,0,0,.033,5.6A2.319,2.319,0,0,0,253.9,348.7h-2.3v-1.122h3.674V348A3.725,3.725,0,0,1,251.546,351.9Z"
           class="cls-3" />
        <path
           id="path439"
           d="M237.3,365.916c0-2.344,1.276-3.961,3.146-3.961s3.147,1.617,3.147,3.961c0,2.365-1.265,3.971-3.147,3.971S237.3,368.281,237.3,365.916Zm5.094,0c0-1.772-.76-2.894-1.948-2.894s-1.947,1.133-1.947,2.894c0,1.782.759,2.9,1.947,2.9S242.389,367.708,242.389,365.916Z"
           class="cls-3" />
        <path
           id="path441"
           d="M246.26,369.073a.771.771,0,1,1-.77-.8A.786.786,0,0,1,246.26,369.073Z"
           class="cls-3" />
        <path
           id="path443"
           d="M247.338,368.193c0-.99.8-1.617,2.1-1.617a3.4,3.4,0,0,1,1.485.34v-.605c0-.726-.418-1.1-1.265-1.1a3.813,3.813,0,0,0-1.606.429l-.44-.9a5.291,5.291,0,0,1,2.288-.561c1.43,0,2.256.726,2.256,2v3.6h-1.233v-.562a2.3,2.3,0,0,1-1.639.65A1.738,1.738,0,0,1,247.338,368.193Zm2.288.8a1.961,1.961,0,0,0,1.3-.452v-.9a2.866,2.866,0,0,0-1.276-.264c-.7,0-1.144.309-1.144.792C248.5,368.676,248.944,369,249.626,369Z"
           class="cls-3" />
        <path
           id="path445"
           d="M257.6,368.181l.748.749a2.866,2.866,0,0,1-2.156.957,2.85,2.85,0,0,1,0-5.7,2.97,2.97,0,0,1,2.2.924l-.77.8a1.819,1.819,0,0,0-1.386-.65,1.769,1.769,0,0,0,.033,3.521A1.691,1.691,0,0,0,257.6,368.181Z"
           class="cls-3" />
      </g>
    </g>
    <g
       id="g466">
      <path
         d="M373.844,384.1h-79.9V330.834h79.9Z"
         class="cls-10"
         id="path20" />
      <g
         id="g464">
        <path
           id="path452"
           d="M326.074,344.076h3.443a2.389,2.389,0,1,1,0,4.764h-2.124v2.937h-1.319Zm1.319,1.111v2.575h1.915a1.3,1.3,0,1,0,.011-2.575Z"
           class="cls-3" />
        <path
           id="path454"
           d="M337.151,351.9a3.972,3.972,0,0,1-.022-7.943,4.036,4.036,0,0,1,3.113,1.364l-.924.848a2.75,2.75,0,0,0-2.189-1.034,2.806,2.806,0,0,0,.032,5.6,2.319,2.319,0,0,0,2.344-2.035h-2.3v-1.122h3.674V348A3.724,3.724,0,0,1,337.151,351.9Z"
           class="cls-3" />
        <path
           id="path456"
           d="M322.422,365.916c0-2.344,1.276-3.961,3.146-3.961s3.147,1.617,3.147,3.961c0,2.365-1.265,3.972-3.147,3.972S322.422,368.281,322.422,365.916Zm5.093,0c0-1.771-.759-2.894-1.947-2.894s-1.947,1.133-1.947,2.894c0,1.782.759,2.9,1.947,2.9S327.515,367.709,327.515,365.916Z"
           class="cls-3" />
        <path
           id="path458"
           d="M331.387,369.073a.771.771,0,1,1-.77-.8A.787.787,0,0,1,331.387,369.073Z"
           class="cls-3" />
        <path
           id="path460"
           d="M332.465,368.193c0-.99.8-1.617,2.1-1.617a3.406,3.406,0,0,1,1.485.341v-.6c0-.726-.418-1.1-1.265-1.1a3.813,3.813,0,0,0-1.606.429l-.44-.9a5.3,5.3,0,0,1,2.288-.56c1.43,0,2.256.725,2.256,2v3.6h-1.233v-.561a2.3,2.3,0,0,1-1.639.649A1.737,1.737,0,0,1,332.465,368.193Zm2.288.8a1.96,1.96,0,0,0,1.3-.451v-.9a2.852,2.852,0,0,0-1.276-.264c-.7,0-1.144.308-1.144.792C333.631,368.677,334.071,369,334.753,369Z"
           class="cls-3" />
        <path
           id="path462"
           d="M342.728,369.04a2.121,2.121,0,0,1-1.694.792,2.82,2.82,0,0,1,.077-5.61,2.1,2.1,0,0,1,1.606.725v-3.036l1.243-.209v8.075h-1.232Zm-1.32-.253a1.649,1.649,0,0,0,1.309-.6V365.86a1.709,1.709,0,0,0-1.309-.593,1.764,1.764,0,0,0,0,3.52Z"
           class="cls-3" />
      </g>
    </g>
    <g
       id="g483">
      <path
         d="M460.049,384.1h-79.9V330.834h79.9Z"
         class="cls-10"
         id="path28" />
      <g
         id="g481">
        <path
           id="path469"
           d="M411.678,344.076h3.443a2.389,2.389,0,1,1,0,4.764H413v2.937h-1.32Zm1.32,1.111v2.575h1.914a1.3,1.3,0,1,0,.011-2.575Z"
           class="cls-3" />
        <path
           id="path471"
           d="M422.755,351.9a3.972,3.972,0,0,1-.021-7.943,4.037,4.037,0,0,1,3.113,1.364l-.924.848a2.752,2.752,0,0,0-2.189-1.034,2.806,2.806,0,0,0,.032,5.6,2.32,2.32,0,0,0,2.344-2.035h-2.3v-1.122h3.674V348A3.724,3.724,0,0,1,422.755,351.9Z"
           class="cls-3" />
        <path
           id="path473"
           d="M408.23,365.916c0-2.344,1.276-3.961,3.146-3.961s3.147,1.617,3.147,3.961c0,2.365-1.266,3.972-3.147,3.972S408.23,368.281,408.23,365.916Zm5.094,0c0-1.771-.76-2.894-1.948-2.894s-1.947,1.133-1.947,2.894c0,1.782.759,2.9,1.947,2.9S413.324,367.709,413.324,365.916Z"
           class="cls-3" />
        <path
           id="path475"
           d="M417.2,369.073a.771.771,0,1,1-.77-.8A.787.787,0,0,1,417.2,369.073Z"
           class="cls-3" />
        <path
           id="path477"
           d="M418.273,368.193c0-.99.8-1.617,2.1-1.617a3.407,3.407,0,0,1,1.486.341v-.6c0-.726-.418-1.1-1.265-1.1a3.809,3.809,0,0,0-1.606.429l-.441-.9a5.307,5.307,0,0,1,2.289-.56c1.43,0,2.255.725,2.255,2v3.6h-1.232v-.561a2.3,2.3,0,0,1-1.639.649A1.737,1.737,0,0,1,418.273,368.193Zm2.288.8a1.96,1.96,0,0,0,1.3-.451v-.9a2.853,2.853,0,0,0-1.277-.264c-.7,0-1.143.308-1.143.792C419.439,368.677,419.878,369,420.561,369Z"
           class="cls-3" />
        <path
           id="path479"
           d="M427.15,369.888a2.8,2.8,0,0,1-2.806-2.861,2.714,2.714,0,0,1,2.685-2.849,2.645,2.645,0,0,1,2.607,2.838v.308h-4.07a1.683,1.683,0,0,0,1.65,1.507,1.786,1.786,0,0,0,1.309-.517l.814.759A3.183,3.183,0,0,1,427.15,369.888Zm-1.563-3.324h2.872a1.509,1.509,0,0,0-1.441-1.375A1.483,1.483,0,0,0,425.587,366.564Z"
           class="cls-3" />
      </g>
    </g>
    <g
       id="g500">
      <path
         d="M546.254,384.1h-79.9V330.834h79.9Z"
         class="cls-10"
         id="path30" />
      <g
         id="g498">
        <path
           id="path486"
           d="M497.284,344.076h3.443a2.389,2.389,0,1,1,0,4.764H498.6v2.937h-1.319Zm1.319,1.111v2.575h1.915a1.3,1.3,0,1,0,.011-2.575Z"
           class="cls-3" />
        <path
           id="path488"
           d="M508.361,351.9a3.972,3.972,0,0,1-.023-7.943,4.036,4.036,0,0,1,3.114,1.364l-.924.848a2.752,2.752,0,0,0-2.19-1.034,2.806,2.806,0,0,0,.033,5.6,2.319,2.319,0,0,0,2.344-2.035h-2.3v-1.122h3.675V348A3.725,3.725,0,0,1,508.361,351.9Z"
           class="cls-3" />
        <path
           id="path490"
           d="M494.726,365.916c0-2.344,1.276-3.961,3.146-3.961s3.147,1.617,3.147,3.961c0,2.365-1.266,3.972-3.147,3.972S494.726,368.281,494.726,365.916Zm5.094,0c0-1.771-.76-2.894-1.948-2.894s-1.947,1.133-1.947,2.894c0,1.782.759,2.9,1.947,2.9S499.82,367.709,499.82,365.916Z"
           class="cls-3" />
        <path
           id="path492"
           d="M503.691,369.073a.771.771,0,1,1-.77-.8A.787.787,0,0,1,503.691,369.073Z"
           class="cls-3" />
        <path
           id="path494"
           d="M504.769,368.193c0-.99.8-1.617,2.1-1.617a3.407,3.407,0,0,1,1.486.341v-.6c0-.726-.418-1.1-1.265-1.1a3.809,3.809,0,0,0-1.606.429l-.441-.9a5.31,5.31,0,0,1,2.289-.56c1.43,0,2.255.725,2.255,2v3.6h-1.232v-.561a2.3,2.3,0,0,1-1.639.649A1.737,1.737,0,0,1,504.769,368.193Zm2.288.8a1.96,1.96,0,0,0,1.3-.451v-.9a2.853,2.853,0,0,0-1.277-.264c-.7,0-1.143.308-1.143.792C505.935,368.677,506.374,369,507.057,369Z"
           class="cls-3" />
        <path
           id="path496"
           d="M511.841,364.266v-.98a1.693,1.693,0,0,1,1.9-1.848,3,3,0,0,1,.826.11V362.6a2.534,2.534,0,0,0-.66-.087c-.572,0-.826.253-.826.792v.957h1.486v.99h-1.486v4.521h-1.243v-4.521h-1.187v-.99Z"
           class="cls-3" />
      </g>
    </g>
    <g
       id="g517">
      <path
         d="M632.46,384.1h-79.9V330.834h79.9Z"
         class="cls-10"
         id="path32" />
      <g
         id="g515">
        <path
           id="path503"
           d="M582.888,344.077h3.443a2.389,2.389,0,1,1,0,4.763h-2.123v2.938h-1.32Zm1.32,1.111v2.574h1.914a1.3,1.3,0,1,0,.011-2.574Z"
           class="cls-3" />
        <path
           id="path505"
           d="M593.965,351.9a3.972,3.972,0,0,1-.021-7.943,4.037,4.037,0,0,1,3.113,1.364l-.924.847a2.755,2.755,0,0,0-2.189-1.034,2.807,2.807,0,0,0,.032,5.6,2.321,2.321,0,0,0,2.344-2.035h-2.3v-1.122H597.7V348A3.725,3.725,0,0,1,593.965,351.9Z"
           class="cls-3" />
        <path
           id="path507"
           d="M579.242,365.916c0-2.343,1.276-3.96,3.146-3.96s3.147,1.617,3.147,3.96c0,2.366-1.265,3.972-3.147,3.972S579.242,368.282,579.242,365.916Zm5.093,0c0-1.771-.758-2.893-1.947-2.893s-1.947,1.133-1.947,2.893c0,1.783.76,2.905,1.947,2.905S584.335,367.709,584.335,365.916Z"
           class="cls-3" />
        <path
           id="path509"
           d="M588.207,369.074a.771.771,0,1,1-.77-.8A.786.786,0,0,1,588.207,369.074Z"
           class="cls-3" />
        <path
           id="path511"
           d="M589.285,368.194c0-.99.8-1.617,2.1-1.617a3.4,3.4,0,0,1,1.485.34v-.6c0-.726-.418-1.1-1.265-1.1a3.82,3.82,0,0,0-1.607.429l-.439-.9a5.291,5.291,0,0,1,2.288-.561c1.431,0,2.256.726,2.256,2v3.6h-1.233v-.562a2.3,2.3,0,0,1-1.639.65A1.738,1.738,0,0,1,589.285,368.194Zm2.288.8a1.961,1.961,0,0,0,1.3-.452v-.9a2.866,2.866,0,0,0-1.276-.264c-.7,0-1.144.309-1.144.792C590.451,368.677,590.891,369,591.573,369Z"
           class="cls-3" />
        <path
           id="path513"
           d="M595.357,367.016a2.66,2.66,0,0,1,2.574-2.794,2.074,2.074,0,0,1,1.617.748v-.7h1.233v5.7c0,1.419-.925,2.2-2.6,2.2a4.785,4.785,0,0,1-2.211-.529l.439-.924a3.755,3.755,0,0,0,1.717.473c.924,0,1.408-.418,1.408-1.221v-.935a2.139,2.139,0,0,1-1.683.781A2.641,2.641,0,0,1,595.357,367.016Zm2.871,1.761a1.647,1.647,0,0,0,1.309-.606v-2.31a1.71,1.71,0,0,0-1.309-.594,1.645,1.645,0,0,0-1.64,1.749A1.667,1.667,0,0,0,598.228,368.777Z"
           class="cls-3" />
      </g>
    </g>
    <g
       id="g534">
      <path
         d="M718.665,384.1h-79.9V330.834h79.9Z"
         class="cls-10"
         id="path34" />
      <g
         id="g532">
        <path
           id="path520"
           d="M668.494,344.077h3.443a2.389,2.389,0,1,1,0,4.763h-2.124v2.938h-1.319Zm1.319,1.111v2.574h1.915a1.3,1.3,0,1,0,.01-2.574Z"
           class="cls-3" />
        <path
           id="path522"
           d="M679.57,351.9a3.972,3.972,0,0,1-.022-7.943,4.034,4.034,0,0,1,3.113,1.364l-.923.847a2.757,2.757,0,0,0-2.19-1.034,2.807,2.807,0,0,0,.033,5.6,2.321,2.321,0,0,0,2.344-2.035h-2.3v-1.122H683.3V348A3.726,3.726,0,0,1,679.57,351.9Z"
           class="cls-3" />
        <path
           id="path524"
           d="M665,365.916c0-2.343,1.276-3.96,3.147-3.96s3.146,1.617,3.146,3.96c0,2.366-1.265,3.972-3.146,3.972S665,368.282,665,365.916Zm5.094,0c0-1.771-.76-2.893-1.947-2.893s-1.947,1.133-1.947,2.893c0,1.783.758,2.905,1.947,2.905S670.089,367.709,670.089,365.916Z"
           class="cls-3" />
        <path
           id="path526"
           d="M673.96,369.074a.771.771,0,1,1-1.54,0,.771.771,0,1,1,1.54,0Z"
           class="cls-3" />
        <path
           id="path528"
           d="M675.038,368.194c0-.99.8-1.617,2.1-1.617a3.4,3.4,0,0,1,1.485.34v-.6c0-.726-.418-1.1-1.265-1.1a3.817,3.817,0,0,0-1.606.429l-.44-.9a5.294,5.294,0,0,1,2.288-.561c1.431,0,2.256.726,2.256,2v3.6h-1.233v-.562a2.3,2.3,0,0,1-1.638.65A1.737,1.737,0,0,1,675.038,368.194Zm2.288.8a1.959,1.959,0,0,0,1.3-.452v-.9a2.866,2.866,0,0,0-1.276-.264c-.7,0-1.144.309-1.144.792C676.2,368.677,676.644,369,677.326,369Z"
           class="cls-3" />
        <path
           id="path530"
           d="M681.363,361.912l1.243-.209v3.465a2,2,0,0,1,1.749-.99,1.855,1.855,0,0,1,1.9,1.969v3.631h-1.244V366.5a1.187,1.187,0,0,0-1.21-1.32,1.416,1.416,0,0,0-1.2.66v3.939h-1.243Z"
           class="cls-3" />
      </g>
    </g>
  </g>
  <g
     data-name="Blue Connectors"
     id="Blue_Connectors">
    <g
       id="g541">
      <line
         id="line537"
         y2="458.924"
         x2="75.429"
         y1="384.099"
         x1="75.429"
         class="cls-7" />
      <polygon
         id="polygon539"
         points="70.443 457.465 75.429 466.1 80.415 457.465 70.443 457.465"
         class="cls-8" />
    </g>
    <g
       id="g547">
      <line
         id="line543"
         y2="458.692"
         x2="161.485"
         y1="383.868"
         x1="161.485"
         class="cls-7" />
      <polygon
         id="polygon545"
         points="156.498 457.233 161.485 465.869 166.471 457.233 156.498 457.233"
         class="cls-8" />
    </g>
    <g
       id="g553">
      <line
         id="line549"
         y2="458.692"
         x2="247.69"
         y1="383.868"
         x1="247.69"
         class="cls-7" />
      <polygon
         id="polygon551"
         points="242.703 457.233 247.69 465.869 252.676 457.233 242.703 457.233"
         class="cls-8" />
    </g>
    <g
       id="g559">
      <line
         id="line555"
         y2="458.692"
         x2="333.895"
         y1="383.868"
         x1="333.895"
         class="cls-7" />
      <polygon
         id="polygon557"
         points="328.909 457.233 333.895 465.869 338.881 457.233 328.909 457.233"
         class="cls-8" />
    </g>
    <g
       id="g565">
      <line
         id="line561"
         y2="458.692"
         x2="420.1"
         y1="383.868"
         x1="420.1"
         class="cls-7" />
      <polygon
         id="polygon563"
         points="415.114 457.233 420.1 465.869 425.086 457.233 415.114 457.233"
         class="cls-8" />
    </g>
    <g
       id="g571">
      <line
         id="line567"
         y2="458.692"
         x2="506.305"
         y1="383.868"
         x1="506.305"
         class="cls-7" />
      <polygon
         id="polygon569"
         points="501.319 457.233 506.305 465.869 511.292 457.233 501.319 457.233"
         class="cls-8" />
    </g>
    <g
       id="g577">
      <line
         id="line573"
         y2="458.692"
         x2="592.511"
         y1="383.868"
         x1="592.511"
         class="cls-7" />
      <polygon
         id="polygon575"
         points="587.524 457.233 592.511 465.869 597.497 457.233 587.524 457.233"
         class="cls-8" />
    </g>
    <g
       id="g583">
      <line
         id="line579"
         y2="458.692"
         x2="678.716"
         y1="383.868"
         x1="678.716"
         class="cls-7" />
      <polygon
         id="polygon581"
         points="673.729 457.233 678.716 465.869 683.702 457.233 673.729 457.233"
         class="cls-8" />
    </g>
  </g>
  <g
     data-name="osd STORAGES"
     id="osd_STORAGES">
    <g
       id="g604">
      <g
         id="g596">
        <path
           id="path586"
           d="M64.785,510.2a2.856,2.856,0,1,1-2.773,2.849A2.752,2.752,0,0,1,64.785,510.2Zm1.54,2.86a1.558,1.558,0,1,0-3.081,0,1.556,1.556,0,1,0,3.081,0Z"
           class="cls-3" />
        <path
           id="path588"
           d="M68.931,514.322a3.179,3.179,0,0,0,1.772.628c.66,0,1.111-.3,1.111-.738,0-.34-.232-.528-.759-.627l-.979-.165c-1.068-.2-1.6-.693-1.6-1.518,0-1.034.848-1.7,2.135-1.7a3.878,3.878,0,0,1,2.167.66l-.583.813a3.022,3.022,0,0,0-1.662-.527c-.572,0-.946.241-.946.648,0,.353.2.507.781.606l.969.176c1.1.209,1.628.715,1.628,1.54a2.02,2.02,0,0,1-2.245,1.794,3.7,3.7,0,0,1-2.376-.748Z"
           class="cls-3" />
        <path
           id="path590"
           d="M78.05,515.059a2.121,2.121,0,0,1-1.694.792,2.82,2.82,0,0,1,.077-5.61,2.1,2.1,0,0,1,1.606.725V507.93l1.244-.209V515.8H78.05Zm-1.32-.253a1.649,1.649,0,0,0,1.309-.605v-2.322a1.709,1.709,0,0,0-1.309-.593,1.764,1.764,0,0,0,0,3.52Z"
           class="cls-3" />
        <path
           id="path592"
           d="M82.164,515.092a.771.771,0,1,1-.77-.8A.787.787,0,0,1,82.164,515.092Z"
           class="cls-3" />
        <path
           id="path594"
           d="M83.242,514.212c0-.99.8-1.617,2.1-1.617a3.406,3.406,0,0,1,1.485.341v-.605c0-.726-.418-1.1-1.265-1.1a3.82,3.82,0,0,0-1.607.429l-.44-.9a5.31,5.31,0,0,1,2.289-.56c1.43,0,2.255.725,2.255,2v3.6H86.828v-.561a2.3,2.3,0,0,1-1.639.649A1.737,1.737,0,0,1,83.242,514.212Zm2.288.8a1.96,1.96,0,0,0,1.3-.451v-.9a2.852,2.852,0,0,0-1.276-.264c-.7,0-1.144.309-1.144.792C84.408,514.7,84.848,515.015,85.53,515.015Z"
           class="cls-3" />
      </g>
      <g
         id="g602">
        <path
           id="path598"
           d="M56.7,478.773v10.192c0,5.629,8.26,10.193,18.449,10.193s18.449-4.564,18.449-10.193V478.773"
           class="cls-6" />
        <ellipse
           id="ellipse600"
           ry="10.192"
           rx="18.449"
           cy="478.773"
           cx="75.145"
           class="cls-6" />
      </g>
    </g>
    <g
       id="g624">
      <g
         id="g616">
        <path
           id="path606"
           d="M150.7,510.2a2.856,2.856,0,1,1-2.773,2.849A2.752,2.752,0,0,1,150.7,510.2Zm1.54,2.86a1.558,1.558,0,1,0-3.081,0,1.556,1.556,0,1,0,3.081,0Z"
           class="cls-3" />
        <path
           id="path608"
           d="M154.844,514.322a3.181,3.181,0,0,0,1.772.628c.66,0,1.111-.3,1.111-.738,0-.34-.232-.528-.759-.627l-.979-.165c-1.068-.2-1.6-.693-1.6-1.518,0-1.034.848-1.7,2.135-1.7a3.878,3.878,0,0,1,2.167.66l-.583.813a3.019,3.019,0,0,0-1.661-.527c-.573,0-.947.241-.947.648,0,.353.2.507.782.606l.968.176c1.1.209,1.628.715,1.628,1.54a2.02,2.02,0,0,1-2.244,1.794,3.706,3.706,0,0,1-2.377-.748Z"
           class="cls-3" />
        <path
           id="path610"
           d="M163.963,515.059a2.121,2.121,0,0,1-1.694.792,2.82,2.82,0,0,1,.077-5.61,2.105,2.105,0,0,1,1.607.725V507.93l1.243-.209V515.8h-1.233Zm-1.32-.253a1.653,1.653,0,0,0,1.31-.605v-2.322a1.711,1.711,0,0,0-1.31-.593,1.764,1.764,0,0,0,0,3.52Z"
           class="cls-3" />
        <path
           id="path612"
           d="M168.077,515.092a.771.771,0,1,1-.77-.8A.787.787,0,0,1,168.077,515.092Z"
           class="cls-3" />
        <path
           id="path614"
           d="M172.279,515.851a2.049,2.049,0,0,1-1.628-.769v.714H169.43V507.93l1.243-.209v3.3a2.145,2.145,0,0,1,1.694-.781,2.645,2.645,0,0,1,2.5,2.805A2.671,2.671,0,0,1,172.279,515.851Zm-1.606-3.949v2.3a1.69,1.69,0,0,0,1.32.605,1.764,1.764,0,0,0,0-3.52A1.618,1.618,0,0,0,170.673,511.9Z"
           class="cls-3" />
      </g>
      <g
         id="g622">
        <path
           id="path618"
           d="M142.945,478.773v10.192c0,5.629,8.26,10.193,18.449,10.193s18.449-4.564,18.449-10.193V478.773"
           class="cls-6" />
        <ellipse
           id="ellipse620"
           ry="10.192"
           rx="18.449"
           cy="478.773"
           cx="161.394"
           class="cls-6" />
      </g>
    </g>
    <g
       id="g644">
      <g
         id="g636">
        <path
           id="path626"
           d="M237.714,510.2a2.856,2.856,0,1,1-2.773,2.849A2.752,2.752,0,0,1,237.714,510.2Zm1.54,2.86a1.558,1.558,0,1,0-3.081,0,1.556,1.556,0,1,0,3.081,0Z"
           class="cls-3" />
        <path
           id="path628"
           d="M241.86,514.322a3.184,3.184,0,0,0,1.772.628c.66,0,1.111-.3,1.111-.738,0-.34-.231-.528-.759-.627l-.979-.165c-1.068-.2-1.595-.693-1.595-1.518,0-1.034.847-1.7,2.134-1.7a3.878,3.878,0,0,1,2.167.66l-.583.813a3.019,3.019,0,0,0-1.661-.527c-.573,0-.947.241-.947.648,0,.353.2.507.782.606l.968.176c1.1.209,1.628.715,1.628,1.54a2.02,2.02,0,0,1-2.244,1.794,3.706,3.706,0,0,1-2.377-.748Z"
           class="cls-3" />
        <path
           id="path630"
           d="M250.979,515.059a2.119,2.119,0,0,1-1.693.792,2.82,2.82,0,0,1,.076-5.61,2.105,2.105,0,0,1,1.607.725V507.93l1.243-.209V515.8h-1.233Zm-1.319-.253a1.651,1.651,0,0,0,1.309-.605v-2.322a1.71,1.71,0,0,0-1.309-.593,1.764,1.764,0,0,0,0,3.52Z"
           class="cls-3" />
        <path
           id="path632"
           d="M255.093,515.092a.771.771,0,1,1-.77-.8A.787.787,0,0,1,255.093,515.092Z"
           class="cls-3" />
        <path
           id="path634"
           d="M260.384,514.2l.749.749a2.872,2.872,0,0,1-2.157.957,2.85,2.85,0,0,1,0-5.7,2.977,2.977,0,0,1,2.2.923l-.771.8a1.818,1.818,0,0,0-1.386-.649,1.768,1.768,0,0,0,.033,3.52A1.693,1.693,0,0,0,260.384,514.2Z"
           class="cls-3" />
      </g>
      <g
         id="g642">
        <path
           id="path638"
           d="M229.477,478.773v10.192c0,5.629,8.26,10.193,18.449,10.193s18.449-4.564,18.449-10.193V478.773"
           class="cls-6" />
        <ellipse
           id="ellipse640"
           ry="10.192"
           rx="18.449"
           cy="478.773"
           cx="247.926"
           class="cls-6" />
      </g>
    </g>
    <g
       id="g665">
      <g
         id="g657">
        <path
           id="path647"
           d="M323.2,510.2a2.856,2.856,0,1,1-2.772,2.849A2.752,2.752,0,0,1,323.2,510.2Zm1.54,2.86a1.558,1.558,0,1,0-3.08,0,1.555,1.555,0,1,0,3.08,0Z"
           class="cls-3" />
        <path
           id="path649"
           d="M327.348,514.322a3.178,3.178,0,0,0,1.771.628c.66,0,1.111-.3,1.111-.738,0-.34-.231-.528-.759-.627l-.979-.165c-1.067-.2-1.6-.693-1.6-1.518,0-1.034.847-1.7,2.134-1.7a3.878,3.878,0,0,1,2.167.66l-.583.813a3.019,3.019,0,0,0-1.661-.527c-.572,0-.946.241-.946.648,0,.353.2.507.781.606l.968.176c1.1.209,1.628.715,1.628,1.54a2.02,2.02,0,0,1-2.244,1.794,3.7,3.7,0,0,1-2.376-.748Z"
           class="cls-3" />
        <path
           id="path651"
           d="M336.467,515.059a2.121,2.121,0,0,1-1.694.792,2.82,2.82,0,0,1,.076-5.61,2.1,2.1,0,0,1,1.607.725V507.93l1.243-.209V515.8h-1.232Zm-1.32-.253a1.649,1.649,0,0,0,1.309-.605v-2.322a1.709,1.709,0,0,0-1.309-.593,1.764,1.764,0,0,0,0,3.52Z"
           class="cls-3" />
        <path
           id="path653"
           d="M340.58,515.092a.771.771,0,1,1-.77-.8A.787.787,0,0,1,340.58,515.092Z"
           class="cls-3" />
        <path
           id="path655"
           d="M345.871,515.059a2.119,2.119,0,0,1-1.693.792,2.82,2.82,0,0,1,.076-5.61,2.105,2.105,0,0,1,1.607.725V507.93l1.243-.209V515.8h-1.233Zm-1.319-.253a1.651,1.651,0,0,0,1.309-.605v-2.322a1.71,1.71,0,0,0-1.309-.593,1.764,1.764,0,0,0,0,3.52Z"
           class="cls-3" />
      </g>
      <g
         id="g663">
        <path
           id="path659"
           d="M315.442,478.773v10.192c0,5.629,8.26,10.193,18.449,10.193s18.449-4.564,18.449-10.193V478.773"
           class="cls-6" />
        <ellipse
           id="ellipse661"
           ry="10.192"
           rx="18.449"
           cy="478.773"
           cx="333.891"
           class="cls-6" />
      </g>
    </g>
    <g
       id="g685">
      <g
         id="g677">
        <path
           id="path667"
           d="M409.653,510.2a2.856,2.856,0,1,1-2.773,2.849A2.752,2.752,0,0,1,409.653,510.2Zm1.54,2.86a1.558,1.558,0,1,0-3.081,0,1.556,1.556,0,1,0,3.081,0Z"
           class="cls-3" />
        <path
           id="path669"
           d="M413.8,514.322a3.184,3.184,0,0,0,1.772.628c.66,0,1.111-.3,1.111-.738,0-.34-.231-.528-.759-.627l-.979-.165c-1.068-.2-1.6-.693-1.6-1.518,0-1.034.848-1.7,2.135-1.7a3.878,3.878,0,0,1,2.167.66l-.583.813a3.019,3.019,0,0,0-1.661-.527c-.573,0-.947.241-.947.648,0,.353.2.507.782.606l.968.176c1.1.209,1.628.715,1.628,1.54a2.02,2.02,0,0,1-2.244,1.794,3.706,3.706,0,0,1-2.377-.748Z"
           class="cls-3" />
        <path
           id="path671"
           d="M422.918,515.059a2.119,2.119,0,0,1-1.694.792,2.82,2.82,0,0,1,.077-5.61,2.105,2.105,0,0,1,1.607.725V507.93l1.243-.209V515.8h-1.233Zm-1.32-.253a1.651,1.651,0,0,0,1.31-.605v-2.322a1.711,1.711,0,0,0-1.31-.593,1.764,1.764,0,0,0,0,3.52Z"
           class="cls-3" />
        <path
           id="path673"
           d="M427.032,515.092a.771.771,0,1,1-.77-.8A.787.787,0,0,1,427.032,515.092Z"
           class="cls-3" />
        <path
           id="path675"
           d="M430.937,515.907a2.8,2.8,0,0,1-2.805-2.861,2.714,2.714,0,0,1,2.684-2.849,2.646,2.646,0,0,1,2.608,2.838v.308h-4.071A1.683,1.683,0,0,0,431,514.85a1.786,1.786,0,0,0,1.309-.517l.814.759A3.183,3.183,0,0,1,430.937,515.907Zm-1.562-3.324h2.871a1.509,1.509,0,0,0-1.441-1.375A1.481,1.481,0,0,0,429.375,512.583Z"
           class="cls-3" />
      </g>
      <g
         id="g683">
        <path
           id="path679"
           d="M401.691,478.773v10.192c0,5.629,8.26,10.193,18.449,10.193s18.449-4.564,18.449-10.193V478.773"
           class="cls-6" />
        <ellipse
           id="ellipse681"
           ry="10.192"
           rx="18.449"
           cy="478.773"
           cx="420.14"
           class="cls-6" />
      </g>
    </g>
    <g
       id="g705">
      <g
         id="g697">
        <path
           id="path687"
           d="M496.792,510.2a2.856,2.856,0,1,1-2.772,2.849A2.752,2.752,0,0,1,496.792,510.2Zm1.54,2.86a1.558,1.558,0,1,0-3.081,0,1.556,1.556,0,1,0,3.081,0Z"
           class="cls-3" />
        <path
           id="path689"
           d="M500.939,514.322a3.181,3.181,0,0,0,1.771.628c.66,0,1.112-.3,1.112-.738,0-.34-.232-.528-.76-.627l-.979-.165c-1.067-.2-1.6-.693-1.6-1.518,0-1.034.847-1.7,2.134-1.7a3.878,3.878,0,0,1,2.167.66l-.583.813a3.016,3.016,0,0,0-1.661-.527c-.572,0-.946.241-.946.648,0,.353.2.507.781.606l.969.176c1.1.209,1.627.715,1.627,1.54a2.019,2.019,0,0,1-2.244,1.794,3.7,3.7,0,0,1-2.376-.748Z"
           class="cls-3" />
        <path
           id="path691"
           d="M510.058,515.059a2.12,2.12,0,0,1-1.693.792,2.82,2.82,0,0,1,.076-5.61,2.1,2.1,0,0,1,1.606.725V507.93l1.243-.209V515.8h-1.232Zm-1.32-.253a1.649,1.649,0,0,0,1.309-.605v-2.322a1.709,1.709,0,0,0-1.309-.593,1.764,1.764,0,0,0,0,3.52Z"
           class="cls-3" />
        <path
           id="path693"
           d="M514.171,515.092a.77.77,0,1,1-.769-.8A.786.786,0,0,1,514.171,515.092Z"
           class="cls-3" />
        <path
           id="path695"
           d="M516.273,510.285v-.98a1.691,1.691,0,0,1,1.9-1.847,3,3,0,0,1,.826.109v1.057a2.5,2.5,0,0,0-.66-.088c-.572,0-.826.253-.826.792v.957H519v.99h-1.486V515.8h-1.242v-4.521h-1.189v-.99Z"
           class="cls-3" />
      </g>
      <g
         id="g703">
        <path
           id="path699"
           d="M487.94,478.773v10.192c0,5.629,8.26,10.193,18.449,10.193s18.449-4.564,18.449-10.193V478.773"
           class="cls-6" />
        <ellipse
           id="ellipse701"
           ry="10.192"
           rx="18.449"
           cy="478.773"
           cx="506.389"
           class="cls-6" />
      </g>
    </g>
    <g
       id="g725">
      <g
         id="g717">
        <path
           id="path707"
           d="M581.953,510.2a2.856,2.856,0,1,1-2.773,2.849A2.752,2.752,0,0,1,581.953,510.2Zm1.54,2.86a1.559,1.559,0,1,0-3.082,0,1.556,1.556,0,1,0,3.082,0Z"
           class="cls-3" />
        <path
           id="path709"
           d="M586.1,514.322a3.178,3.178,0,0,0,1.771.628c.661,0,1.112-.3,1.112-.738,0-.34-.232-.528-.76-.627l-.978-.165c-1.068-.2-1.6-.693-1.6-1.518,0-1.034.847-1.7,2.135-1.7a3.883,3.883,0,0,1,2.167.66l-.583.813a3.024,3.024,0,0,0-1.662-.527c-.572,0-.946.241-.946.648,0,.353.2.507.781.606l.968.176c1.1.209,1.628.715,1.628,1.54a2.02,2.02,0,0,1-2.244,1.794,3.7,3.7,0,0,1-2.376-.748Z"
           class="cls-3" />
        <path
           id="path711"
           d="M595.218,515.059a2.121,2.121,0,0,1-1.694.792,2.82,2.82,0,0,1,.077-5.61,2.1,2.1,0,0,1,1.606.725V507.93l1.244-.209V515.8h-1.233Zm-1.32-.253a1.649,1.649,0,0,0,1.309-.605v-2.322a1.709,1.709,0,0,0-1.309-.593,1.764,1.764,0,0,0,0,3.52Z"
           class="cls-3" />
        <path
           id="path713"
           d="M599.331,515.092a.771.771,0,1,1-.769-.8A.786.786,0,0,1,599.331,515.092Z"
           class="cls-3" />
        <path
           id="path715"
           d="M600.431,513.035a2.66,2.66,0,0,1,2.574-2.794,2.067,2.067,0,0,1,1.617.748v-.7h1.233v5.7c0,1.419-.924,2.2-2.6,2.2a4.791,4.791,0,0,1-2.212-.528l.441-.924a3.76,3.76,0,0,0,1.715.473c.924,0,1.409-.418,1.409-1.221v-.936a2.137,2.137,0,0,1-1.683.782A2.643,2.643,0,0,1,600.431,513.035Zm2.872,1.76a1.651,1.651,0,0,0,1.309-.6v-2.311a1.71,1.71,0,0,0-1.309-.593,1.645,1.645,0,0,0-1.64,1.749A1.666,1.666,0,0,0,603.3,514.795Z"
           class="cls-3" />
      </g>
      <g
         id="g723">
        <path
           id="path719"
           d="M574.189,478.773v10.192c0,5.629,8.259,10.193,18.449,10.193s18.449-4.564,18.449-10.193V478.773"
           class="cls-6" />
        <ellipse
           id="ellipse721"
           ry="10.192"
           rx="18.449"
           cy="478.773"
           cx="592.638"
           class="cls-6" />
      </g>
    </g>
    <g
       id="g745">
      <g
         id="g737">
        <path
           id="path727"
           d="M668.066,510.2a2.856,2.856,0,1,1-2.773,2.849A2.752,2.752,0,0,1,668.066,510.2Zm1.54,2.86a1.558,1.558,0,1,0-3.081,0,1.556,1.556,0,1,0,3.081,0Z"
           class="cls-3" />
        <path
           id="path729"
           d="M672.212,514.322a3.181,3.181,0,0,0,1.772.628c.66,0,1.111-.3,1.111-.738,0-.34-.231-.528-.76-.627l-.978-.165c-1.068-.2-1.6-.693-1.6-1.518,0-1.034.848-1.7,2.135-1.7a3.881,3.881,0,0,1,2.167.66l-.583.813a3.019,3.019,0,0,0-1.661-.527c-.573,0-.947.241-.947.648,0,.353.2.507.782.606l.968.176c1.1.209,1.627.715,1.627,1.54a2.019,2.019,0,0,1-2.244,1.794,3.7,3.7,0,0,1-2.376-.748Z"
           class="cls-3" />
        <path
           id="path731"
           d="M681.331,515.059a2.119,2.119,0,0,1-1.693.792,2.82,2.82,0,0,1,.076-5.61,2.1,2.1,0,0,1,1.607.725V507.93l1.243-.209V515.8h-1.233Zm-1.32-.253a1.651,1.651,0,0,0,1.31-.605v-2.322a1.711,1.711,0,0,0-1.31-.593,1.764,1.764,0,0,0,0,3.52Z"
           class="cls-3" />
        <path
           id="path733"
           d="M685.445,515.092a.77.77,0,1,1-.77-.8A.787.787,0,0,1,685.445,515.092Z"
           class="cls-3" />
        <path
           id="path735"
           d="M686.8,507.93l1.242-.209v3.466a2,2,0,0,1,1.75-.99,1.855,1.855,0,0,1,1.9,1.969v3.63h-1.243v-3.278a1.187,1.187,0,0,0-1.211-1.32,1.416,1.416,0,0,0-1.2.66V515.8H686.8Z"
           class="cls-3" />
      </g>
      <g
         id="g743">
        <path
           id="path739"
           d="M660.154,478.773v10.192c0,5.629,8.26,10.193,18.449,10.193s18.449-4.564,18.449-10.193V478.773"
           class="cls-6" />
        <ellipse
           id="ellipse741"
           ry="10.192"
           rx="18.449"
           cy="478.773"
           cx="678.603"
           class="cls-6" />
      </g>
    </g>
  </g>
</svg>
