<?xml version="1.0" encoding="UTF-8" standalone="no"?>
<svg
   xmlns:dc="http://purl.org/dc/elements/1.1/"
   xmlns:cc="http://creativecommons.org/ns#"
   xmlns:rdf="http://www.w3.org/1999/02/22-rdf-syntax-ns#"
   xmlns:svg="http://www.w3.org/2000/svg"
   xmlns="http://www.w3.org/2000/svg"
   xmlns:sodipodi="http://sodipodi.sourceforge.net/DTD/sodipodi-0.dtd"
   xmlns:inkscape="http://www.inkscape.org/namespaces/inkscape"
   inkscape:version="1.0 (4035a4f, 2020-05-01)"
   sodipodi:docname="Access-RBD-VM-300dpi-01.svg"
   version="1.1"
   viewBox="0 0 595.276 386.949"
   height="5.374in"
   width="8.268in"
   id="svg2">
  <metadata
     id="metadata747">
    <rdf:RDF>
      <cc:Work
         rdf:about="">
        <dc:format>image/svg+xml</dc:format>
        <dc:type
           rdf:resource="http://purl.org/dc/dcmitype/StillImage" />
        <dc:title></dc:title>
        <dc:subject>
          <rdf:Bag>
            <rdf:li>rbd</rdf:li>
            <rdf:li>vm</rdf:li>
          </rdf:Bag>
        </dc:subject>
      </cc:Work>
    </rdf:RDF>
  </metadata>
  <sodipodi:namedview
     inkscape:current-layer="svg2"
     inkscape:window-maximized="0"
     inkscape:window-y="25"
     inkscape:window-x="0"
     inkscape:cy="257.952"
     inkscape:cx="396.86398"
     inkscape:zoom="0.63119862"
     showgrid="false"
     id="namedview745"
     inkscape:window-height="480"
     inkscape:window-width="987"
     inkscape:pageshadow="2"
     inkscape:pageopacity="0"
     guidetolerance="10"
     gridtolerance="10"
     objecttolerance="10"
     borderopacity="1"
     bordercolor="#666666"
     pagecolor="#ffffff" />
  <defs
     id="defs12">
    <style
       id="style10">
      .cls-1 {
        fill: #dbe8f5;
      }

      .cls-2 {
        fill: #a1c2e7;
      }

      .cls-3 {
        fill: #dcdcdc;
      }

      .cls-4 {
        fill: #bebebe;
      }

      .cls-5 {
        fill: #fff;
      }

      .cls-6 {
        fill: #4c4c4c;
      }

      .cls-7 {
        fill: #151515;
      }

      .cls-8 {
        fill: none;
        stroke: #4c4c4c;
        stroke-linecap: round;
        stroke-linejoin: round;
        stroke-dasharray: 3 0 0 3 0 0;
      }

      .cls-9 {
        stroke: #fff;
        stroke-miterlimit: 10;
      }
    </style>
  </defs>
  <rect
     id="rect14"
     height="53.875"
     width="121.429"
     y="114.47"
     x="237.321"
     class="cls-1" />
  <rect
     id="rect16"
     height="32.213"
     width="121.429"
     y="10.295"
     x="237.321"
     class="cls-2" />
  <rect
     id="rect18"
     height="22.075"
     width="104.59"
     y="137.85"
     x="245.741"
     class="cls-2" />
  <rect
     id="rect20"
     height="122.425"
     width="572.43"
     y="252.883"
     x="11.821"
     class="cls-3" />
  <rect
     id="rect22"
     height="37.003"
     width="34.282"
     y="268.48"
     x="25.395"
     class="cls-4" />
  <rect
     id="rect24"
     height="37.003"
     width="34.282"
     y="268.48"
     x="64.702"
     class="cls-4" />
  <rect
     id="rect26"
     height="37.003"
     width="34.282"
     y="268.48"
     x="104.01"
     class="cls-4" />
  <rect
     id="rect28"
     height="37.003"
     width="34.282"
     y="268.48"
     x="143.318"
     class="cls-4" />
  <rect
     id="rect30"
     height="37.003"
     width="34.282"
     y="268.48"
     x="182.625"
     class="cls-4" />
  <rect
     id="rect32"
     height="37.003"
     width="34.282"
     y="268.48"
     x="221.933"
     class="cls-4" />
  <rect
     id="rect34"
     height="37.003"
     width="34.282"
     y="268.48"
     x="261.241"
     class="cls-4" />
  <rect
     id="rect36"
     height="37.003"
     width="34.282"
     y="268.48"
     x="300.548"
     class="cls-4" />
  <rect
     id="rect38"
     height="37.003"
     width="34.282"
     y="268.48"
     x="339.856"
     class="cls-4" />
  <rect
     id="rect40"
     height="37.003"
     width="34.282"
     y="268.48"
     x="379.164"
     class="cls-4" />
  <rect
     id="rect42"
     height="37.003"
     width="34.282"
     y="268.48"
     x="418.471"
     class="cls-4" />
  <rect
     id="rect44"
     height="37.003"
     width="34.282"
     y="268.48"
     x="457.779"
     class="cls-4" />
  <rect
     id="rect46"
     height="37.003"
     width="34.282"
     y="268.48"
     x="497.087"
     class="cls-4" />
  <rect
     id="rect48"
     height="37.003"
     width="34.282"
     y="268.48"
     x="536.394"
     class="cls-4" />
  <rect
     id="rect50"
     height="37.003"
     width="34.282"
     y="310.508"
     x="25.395"
     class="cls-4" />
  <rect
     id="rect52"
     height="37.003"
     width="34.282"
     y="310.508"
     x="64.702"
     class="cls-4" />
  <rect
     id="rect54"
     height="37.003"
     width="34.282"
     y="310.508"
     x="104.01"
     class="cls-4" />
  <rect
     id="rect56"
     height="37.003"
     width="34.282"
     y="310.508"
     x="143.318"
     class="cls-4" />
  <rect
     id="rect58"
     height="37.003"
     width="34.282"
     y="310.508"
     x="182.625"
     class="cls-4" />
  <rect
     id="rect60"
     height="37.003"
     width="34.282"
     y="310.508"
     x="221.933"
     class="cls-4" />
  <rect
     id="rect62"
     height="37.003"
     width="34.282"
     y="310.508"
     x="261.241"
     class="cls-4" />
  <rect
     id="rect64"
     height="37.003"
     width="34.282"
     y="310.508"
     x="300.548"
     class="cls-4" />
  <rect
     id="rect66"
     height="37.003"
     width="34.282"
     y="310.508"
     x="339.856"
     class="cls-4" />
  <rect
     id="rect68"
     height="37.003"
     width="34.282"
     y="310.508"
     x="379.164"
     class="cls-4" />
  <rect
     id="rect70"
     height="37.003"
     width="34.282"
     y="310.508"
     x="418.471"
     class="cls-4" />
  <rect
     id="rect72"
     height="37.003"
     width="34.282"
     y="310.508"
     x="457.779"
     class="cls-4" />
  <rect
     id="rect74"
     height="37.003"
     width="34.282"
     y="310.508"
     x="497.087"
     class="cls-4" />
  <rect
     id="rect76"
     height="37.003"
     width="34.282"
     y="310.508"
     x="536.394"
     class="cls-4" />
  <g
     id="g84">
    <ellipse
       id="ellipse78"
       ry="4.199"
       rx="8.167"
       cy="279.673"
       cx="42.536"
       class="cls-5" />
    <path
       id="path80"
       d="M42.536,284.732c-3.664,0-6.739-1.164-8.167-2.883v1.792c0,2.275,3.736,4.2,8.167,4.2s8.167-1.924,8.167-4.2v-1.792C49.275,283.568,46.2,284.732,42.536,284.732Z"
       class="cls-5" />
    <path
       id="path82"
       d="M42.536,274.614c-5.059,0-9.027,2.222-9.027,5.059v3.968c0,2.837,3.968,5.059,9.027,5.059s9.027-2.222,9.027-5.059v-3.968C51.563,276.836,47.6,274.614,42.536,274.614Zm8.167,9.027c0,2.275-3.736,4.2-8.167,4.2s-8.167-1.924-8.167-4.2v-1.792c1.428,1.719,4.5,2.883,8.167,2.883s6.739-1.164,8.167-2.883Zm-8.167.231c-4.431,0-8.167-1.924-8.167-4.2s3.736-4.2,8.167-4.2,8.167,1.924,8.167,4.2S46.967,283.872,42.536,283.872Z"
       class="cls-6" />
  </g>
  <g
     id="g92">
    <path
       id="path86"
       d="M37.74,298.663a2.529,2.529,0,1,1,2.6-2.528A2.538,2.538,0,0,1,37.74,298.663Zm0-4.126a1.6,1.6,0,1,0,1.555,1.6A1.543,1.543,0,0,0,37.74,294.537Z"
       class="cls-6" />
    <path
       id="path88"
       d="M41.19,297.08a2.428,2.428,0,0,0,1.66.714c.609,0,1-.238,1-.616,0-.336-.223-.5-.8-.6l-.974-.167c-.84-.141-1.281-.6-1.281-1.31,0-.918.742-1.485,1.932-1.485a3.4,3.4,0,0,1,2.025.687l-.546.756a2.5,2.5,0,0,0-1.548-.588c-.547,0-.9.217-.9.553,0,.3.2.455.7.532l.925.154c.98.161,1.462.623,1.462,1.38,0,.96-.8,1.569-2.065,1.569a3.25,3.25,0,0,1-2.171-.848Z"
       class="cls-6" />
    <path
       id="path90"
       d="M45.453,293.683h1.884a2.455,2.455,0,1,1,0,4.9H45.453Zm1.016.9v3.1h.861a1.548,1.548,0,1,0,0-3.1Z"
       class="cls-6" />
  </g>
  <g
     id="g100">
    <ellipse
       id="ellipse94"
       ry="4.199"
       rx="8.167"
       cy="279.673"
       cx="121.151"
       class="cls-5" />
    <path
       id="path96"
       d="M121.151,284.732c-3.663,0-6.739-1.164-8.167-2.883v1.792c0,2.275,3.736,4.2,8.167,4.2s8.167-1.924,8.167-4.2v-1.792C127.89,283.568,124.815,284.732,121.151,284.732Z"
       class="cls-5" />
    <path
       id="path98"
       d="M121.151,274.614c-5.059,0-9.027,2.222-9.027,5.059v3.968c0,2.837,3.968,5.059,9.027,5.059s9.027-2.222,9.027-5.059v-3.968C130.178,276.836,126.21,274.614,121.151,274.614Zm8.167,9.027c0,2.275-3.736,4.2-8.167,4.2s-8.167-1.924-8.167-4.2v-1.792c1.428,1.719,4.5,2.883,8.167,2.883s6.739-1.164,8.167-2.883Zm-8.167.231c-4.431,0-8.167-1.924-8.167-4.2s3.736-4.2,8.167-4.2,8.167,1.924,8.167,4.2S125.582,283.872,121.151,283.872Z"
       class="cls-6" />
  </g>
  <g
     id="g108">
    <path
       id="path102"
       d="M116.355,298.663a2.529,2.529,0,1,1,2.6-2.528A2.538,2.538,0,0,1,116.355,298.663Zm0-4.126a1.6,1.6,0,1,0,1.555,1.6A1.543,1.543,0,0,0,116.355,294.537Z"
       class="cls-6" />
    <path
       id="path104"
       d="M119.805,297.08a2.432,2.432,0,0,0,1.661.714c.608,0,1-.238,1-.616,0-.336-.224-.5-.806-.6l-.974-.167c-.84-.141-1.281-.6-1.281-1.31,0-.918.742-1.485,1.933-1.485a3.4,3.4,0,0,1,2.024.687l-.546.756a2.494,2.494,0,0,0-1.548-.588c-.547,0-.9.217-.9.553,0,.3.2.455.7.532l.925.154c.98.161,1.463.623,1.463,1.38,0,.96-.8,1.569-2.066,1.569a3.25,3.25,0,0,1-2.171-.848Z"
       class="cls-6" />
    <path
       id="path106"
       d="M124.068,293.683h1.884a2.455,2.455,0,1,1,0,4.9h-1.884Zm1.016.9v3.1h.861a1.548,1.548,0,1,0,0-3.1Z"
       class="cls-6" />
  </g>
  <g
     id="g116">
    <ellipse
       id="ellipse110"
       ry="4.199"
       rx="8.167"
       cy="279.673"
       cx="278.382"
       class="cls-5" />
    <path
       id="path112"
       d="M278.382,284.732c-3.664,0-6.739-1.164-8.167-2.883v1.792c0,2.275,3.736,4.2,8.167,4.2s8.167-1.924,8.167-4.2v-1.792C285.121,283.568,282.046,284.732,278.382,284.732Z"
       class="cls-5" />
    <path
       id="path114"
       d="M278.382,274.614c-5.059,0-9.027,2.222-9.027,5.059v3.968c0,2.837,3.968,5.059,9.027,5.059s9.027-2.222,9.027-5.059v-3.968C287.409,276.836,283.441,274.614,278.382,274.614Zm8.167,9.027c0,2.275-3.736,4.2-8.167,4.2s-8.167-1.924-8.167-4.2v-1.792c1.428,1.719,4.5,2.883,8.167,2.883s6.739-1.164,8.167-2.883Zm-8.167.231c-4.431,0-8.167-1.924-8.167-4.2s3.736-4.2,8.167-4.2,8.167,1.924,8.167,4.2S282.813,283.872,278.382,283.872Z"
       class="cls-6" />
  </g>
  <g
     id="g124">
    <path
       id="path118"
       d="M273.586,298.663a2.529,2.529,0,1,1,2.6-2.528A2.538,2.538,0,0,1,273.586,298.663Zm0-4.126a1.6,1.6,0,1,0,1.554,1.6A1.543,1.543,0,0,0,273.586,294.537Z"
       class="cls-6" />
    <path
       id="path120"
       d="M277.036,297.08a2.428,2.428,0,0,0,1.66.714c.608,0,1-.238,1-.616,0-.336-.224-.5-.806-.6l-.973-.167c-.84-.141-1.282-.6-1.282-1.31,0-.918.743-1.485,1.933-1.485a3.4,3.4,0,0,1,2.025.687l-.546.756a2.5,2.5,0,0,0-1.548-.588c-.547,0-.9.217-.9.553,0,.3.2.455.7.532l.925.154c.981.161,1.463.623,1.463,1.38,0,.96-.8,1.569-2.065,1.569a3.25,3.25,0,0,1-2.171-.848Z"
       class="cls-6" />
    <path
       id="path122"
       d="M281.3,293.683h1.883a2.455,2.455,0,1,1,0,4.9H281.3Zm1.015.9v3.1h.862a1.548,1.548,0,0,0,0-3.1Z"
       class="cls-6" />
  </g>
  <g
     id="g132">
    <ellipse
       id="ellipse126"
       ry="4.199"
       rx="8.167"
       cy="279.673"
       cx="317.69"
       class="cls-5" />
    <path
       id="path128"
       d="M317.69,284.732c-3.664,0-6.739-1.164-8.168-2.883v1.792c0,2.275,3.737,4.2,8.168,4.2s8.167-1.924,8.167-4.2v-1.792C324.428,283.568,321.353,284.732,317.69,284.732Z"
       class="cls-5" />
    <path
       id="path130"
       d="M317.69,274.614c-5.059,0-9.027,2.222-9.027,5.059v3.968c0,2.837,3.968,5.059,9.027,5.059s9.026-2.222,9.026-5.059v-3.968C326.716,276.836,322.749,274.614,317.69,274.614Zm8.167,9.027c0,2.275-3.737,4.2-8.167,4.2s-8.168-1.924-8.168-4.2v-1.792c1.429,1.719,4.5,2.883,8.168,2.883s6.738-1.164,8.167-2.883Zm-8.167.231c-4.431,0-8.168-1.924-8.168-4.2s3.737-4.2,8.168-4.2,8.167,1.924,8.167,4.2S322.12,283.872,317.69,283.872Z"
       class="cls-6" />
  </g>
  <g
     id="g140">
    <path
       id="path134"
       d="M312.893,298.663a2.529,2.529,0,1,1,2.6-2.528A2.537,2.537,0,0,1,312.893,298.663Zm0-4.126a1.6,1.6,0,1,0,1.555,1.6A1.543,1.543,0,0,0,312.893,294.537Z"
       class="cls-6" />
    <path
       id="path136"
       d="M316.343,297.08a2.428,2.428,0,0,0,1.66.714c.608,0,1-.238,1-.616,0-.336-.224-.5-.806-.6l-.974-.167c-.839-.141-1.281-.6-1.281-1.31,0-.918.742-1.485,1.933-1.485a3.4,3.4,0,0,1,2.024.687l-.546.756a2.494,2.494,0,0,0-1.548-.588c-.546,0-.9.217-.9.553,0,.3.2.455.7.532l.925.154c.98.161,1.463.623,1.463,1.38,0,.96-.805,1.569-2.066,1.569a3.25,3.25,0,0,1-2.171-.848Z"
       class="cls-6" />
    <path
       id="path138"
       d="M320.606,293.683h1.884a2.455,2.455,0,1,1,0,4.9h-1.884Zm1.016.9v3.1h.861a1.548,1.548,0,1,0,0-3.1Z"
       class="cls-6" />
  </g>
  <g
     id="g148">
    <ellipse
       id="ellipse142"
       ry="4.199"
       rx="8.167"
       cy="279.673"
       cx="435.613"
       class="cls-5" />
    <path
       id="path144"
       d="M435.613,284.732c-3.664,0-6.739-1.164-8.168-2.883v1.792c0,2.275,3.737,4.2,8.168,4.2s8.167-1.924,8.167-4.2v-1.792C442.351,283.568,439.276,284.732,435.613,284.732Z"
       class="cls-5" />
    <path
       id="path146"
       d="M435.613,274.614c-5.059,0-9.027,2.222-9.027,5.059v3.968c0,2.837,3.968,5.059,9.027,5.059s9.027-2.222,9.027-5.059v-3.968C444.64,276.836,440.672,274.614,435.613,274.614Zm8.167,9.027c0,2.275-3.737,4.2-8.167,4.2s-8.168-1.924-8.168-4.2v-1.792c1.429,1.719,4.5,2.883,8.168,2.883s6.738-1.164,8.167-2.883Zm-8.167.231c-4.431,0-8.168-1.924-8.168-4.2s3.737-4.2,8.168-4.2,8.167,1.924,8.167,4.2S440.043,283.872,435.613,283.872Z"
       class="cls-6" />
  </g>
  <g
     id="g156">
    <path
       id="path150"
       d="M430.816,298.663a2.529,2.529,0,1,1,2.6-2.528A2.538,2.538,0,0,1,430.816,298.663Zm0-4.126a1.6,1.6,0,1,0,1.555,1.6A1.543,1.543,0,0,0,430.816,294.537Z"
       class="cls-6" />
    <path
       id="path152"
       d="M434.266,297.08a2.432,2.432,0,0,0,1.661.714c.608,0,1-.238,1-.616,0-.336-.224-.5-.806-.6l-.974-.167c-.84-.141-1.281-.6-1.281-1.31,0-.918.742-1.485,1.933-1.485a3.4,3.4,0,0,1,2.024.687l-.546.756a2.5,2.5,0,0,0-1.548-.588c-.547,0-.9.217-.9.553,0,.3.2.455.7.532l.925.154c.98.161,1.463.623,1.463,1.38,0,.96-.805,1.569-2.066,1.569a3.25,3.25,0,0,1-2.171-.848Z"
       class="cls-6" />
    <path
       id="path154"
       d="M438.529,293.683h1.884a2.455,2.455,0,1,1,0,4.9h-1.884Zm1.016.9v3.1h.861a1.548,1.548,0,1,0,0-3.1Z"
       class="cls-6" />
  </g>
  <g
     id="g164">
    <ellipse
       id="ellipse158"
       ry="4.199"
       rx="8.167"
       cy="279.673"
       cx="474.92"
       class="cls-5" />
    <path
       id="path160"
       d="M474.92,284.732c-3.663,0-6.739-1.164-8.167-2.883v1.792c0,2.275,3.736,4.2,8.167,4.2s8.168-1.924,8.168-4.2v-1.792C481.659,283.568,478.584,284.732,474.92,284.732Z"
       class="cls-5" />
    <path
       id="path162"
       d="M474.92,274.614c-5.059,0-9.027,2.222-9.027,5.059v3.968c0,2.837,3.968,5.059,9.027,5.059s9.027-2.222,9.027-5.059v-3.968C483.947,276.836,479.979,274.614,474.92,274.614Zm8.168,9.027c0,2.275-3.737,4.2-8.168,4.2s-8.167-1.924-8.167-4.2v-1.792c1.428,1.719,4.5,2.883,8.167,2.883s6.739-1.164,8.168-2.883Zm-8.168.231c-4.431,0-8.167-1.924-8.167-4.2s3.736-4.2,8.167-4.2,8.168,1.924,8.168,4.2S479.351,283.872,474.92,283.872Z"
       class="cls-6" />
  </g>
  <g
     id="g172">
    <path
       id="path166"
       d="M470.124,298.663a2.529,2.529,0,1,1,2.6-2.528A2.538,2.538,0,0,1,470.124,298.663Zm0-4.126a1.6,1.6,0,1,0,1.554,1.6A1.543,1.543,0,0,0,470.124,294.537Z"
       class="cls-6" />
    <path
       id="path168"
       d="M473.573,297.08a2.428,2.428,0,0,0,1.66.714c.609,0,1-.238,1-.616,0-.336-.223-.5-.806-.6l-.973-.167c-.84-.141-1.281-.6-1.281-1.31,0-.918.742-1.485,1.932-1.485a3.4,3.4,0,0,1,2.025.687l-.546.756a2.5,2.5,0,0,0-1.548-.588c-.547,0-.9.217-.9.553,0,.3.2.455.7.532l.924.154c.981.161,1.463.623,1.463,1.38,0,.96-.8,1.569-2.065,1.569a3.25,3.25,0,0,1-2.171-.848Z"
       class="cls-6" />
    <path
       id="path170"
       d="M477.837,293.683h1.883a2.455,2.455,0,1,1,0,4.9h-1.883Zm1.015.9v3.1h.862a1.548,1.548,0,0,0,0-3.1Z"
       class="cls-6" />
  </g>
  <g
     id="g180">
    <ellipse
       id="ellipse174"
       ry="4.199"
       rx="8.167"
       cy="279.673"
       cx="553.536"
       class="cls-5" />
    <path
       id="path176"
       d="M553.536,284.732c-3.664,0-6.739-1.164-8.168-2.883v1.792c0,2.275,3.737,4.2,8.168,4.2s8.167-1.924,8.167-4.2v-1.792C560.274,283.568,557.2,284.732,553.536,284.732Z"
       class="cls-5" />
    <path
       id="path178"
       d="M553.536,274.614c-5.059,0-9.027,2.222-9.027,5.059v3.968c0,2.837,3.968,5.059,9.027,5.059s9.027-2.222,9.027-5.059v-3.968C562.563,276.836,558.6,274.614,553.536,274.614Zm8.167,9.027c0,2.275-3.737,4.2-8.167,4.2s-8.168-1.924-8.168-4.2v-1.792c1.429,1.719,4.5,2.883,8.168,2.883s6.738-1.164,8.167-2.883Zm-8.167.231c-4.431,0-8.168-1.924-8.168-4.2s3.737-4.2,8.168-4.2,8.167,1.924,8.167,4.2S557.966,283.872,553.536,283.872Z"
       class="cls-6" />
  </g>
  <g
     id="g188">
    <path
       id="path182"
       d="M548.739,298.663a2.529,2.529,0,1,1,2.6-2.528A2.538,2.538,0,0,1,548.739,298.663Zm0-4.126a1.6,1.6,0,1,0,1.555,1.6A1.543,1.543,0,0,0,548.739,294.537Z"
       class="cls-6" />
    <path
       id="path184"
       d="M552.188,297.08a2.429,2.429,0,0,0,1.66.714c.609,0,1-.238,1-.616,0-.336-.223-.5-.805-.6l-.974-.167c-.84-.141-1.281-.6-1.281-1.31,0-.918.742-1.485,1.932-1.485a3.4,3.4,0,0,1,2.025.687l-.546.756a2.5,2.5,0,0,0-1.548-.588c-.547,0-.9.217-.9.553,0,.3.2.455.7.532l.925.154c.98.161,1.463.623,1.463,1.38,0,.96-.805,1.569-2.066,1.569a3.25,3.25,0,0,1-2.171-.848Z"
       class="cls-6" />
    <path
       id="path186"
       d="M556.452,293.683h1.884a2.455,2.455,0,1,1,0,4.9h-1.884Zm1.016.9v3.1h.861a1.548,1.548,0,1,0,0-3.1Z"
       class="cls-6" />
  </g>
  <g
     id="g196">
    <ellipse
       id="ellipse190"
       ry="4.199"
       rx="8.167"
       cy="321.701"
       cx="42.536"
       class="cls-5" />
    <path
       id="path192"
       d="M42.536,326.76c-3.664,0-6.739-1.164-8.167-2.883v1.792c0,2.275,3.736,4.2,8.167,4.2s8.167-1.925,8.167-4.2v-1.792C49.275,325.6,46.2,326.76,42.536,326.76Z"
       class="cls-5" />
    <path
       id="path194"
       d="M42.536,316.642c-5.059,0-9.027,2.222-9.027,5.059v3.968c0,2.837,3.968,5.059,9.027,5.059s9.027-2.222,9.027-5.059V321.7C51.563,318.864,47.6,316.642,42.536,316.642Zm8.167,9.027c0,2.275-3.736,4.2-8.167,4.2s-8.167-1.925-8.167-4.2v-1.792c1.428,1.719,4.5,2.883,8.167,2.883s6.739-1.164,8.167-2.883Zm-8.167.232c-4.431,0-8.167-1.925-8.167-4.2s3.736-4.2,8.167-4.2,8.167,1.924,8.167,4.2S46.967,325.9,42.536,325.9Z"
       class="cls-6" />
  </g>
  <g
     id="g204">
    <path
       id="path198"
       d="M37.74,339.665a2.529,2.529,0,1,1,2.6-2.528A2.537,2.537,0,0,1,37.74,339.665Zm0-4.125a1.6,1.6,0,1,0,1.555,1.6A1.542,1.542,0,0,0,37.74,335.54Z"
       class="cls-6" />
    <path
       id="path200"
       d="M41.19,338.082a2.425,2.425,0,0,0,1.66.715c.609,0,1-.239,1-.617,0-.336-.223-.5-.8-.6l-.974-.168c-.84-.14-1.281-.6-1.281-1.31,0-.917.742-1.484,1.932-1.484a3.408,3.408,0,0,1,2.025.686l-.546.756a2.5,2.5,0,0,0-1.548-.588c-.547,0-.9.217-.9.553,0,.3.2.455.7.532l.925.155c.98.161,1.462.623,1.462,1.379,0,.96-.8,1.569-2.065,1.569a3.249,3.249,0,0,1-2.171-.847Z"
       class="cls-6" />
    <path
       id="path202"
       d="M45.453,334.685h1.884a2.455,2.455,0,1,1,0,4.9H45.453Zm1.016.9v3.1h.861a1.548,1.548,0,1,0,0-3.1Z"
       class="cls-6" />
  </g>
  <g
     id="g212">
    <ellipse
       id="ellipse206"
       ry="4.199"
       rx="8.167"
       cy="321.701"
       cx="81.844"
       class="cls-5" />
    <path
       id="path208"
       d="M81.844,326.76c-3.664,0-6.739-1.164-8.168-2.883v1.792c0,2.275,3.737,4.2,8.168,4.2s8.167-1.924,8.167-4.2v-1.792C88.582,325.6,85.507,326.76,81.844,326.76Z"
       class="cls-5" />
    <path
       id="path210"
       d="M81.844,316.642c-5.059,0-9.027,2.222-9.027,5.059v3.968c0,2.837,3.968,5.059,9.027,5.059s9.026-2.222,9.026-5.059V321.7C90.87,318.864,86.9,316.642,81.844,316.642Zm8.167,9.027c0,2.275-3.737,4.2-8.167,4.2s-8.168-1.924-8.168-4.2v-1.792c1.429,1.719,4.5,2.883,8.168,2.883s6.738-1.164,8.167-2.883Zm-8.167.231c-4.431,0-8.168-1.924-8.168-4.2s3.737-4.2,8.168-4.2,8.167,1.924,8.167,4.2S86.274,325.9,81.844,325.9Z"
       class="cls-6" />
  </g>
  <g
     id="g220">
    <path
       id="path214"
       d="M77.047,339.665a2.529,2.529,0,1,1,2.6-2.528A2.537,2.537,0,0,1,77.047,339.665Zm0-4.126a1.6,1.6,0,1,0,1.554,1.6A1.543,1.543,0,0,0,77.047,335.539Z"
       class="cls-6" />
    <path
       id="path216"
       d="M80.5,338.082a2.428,2.428,0,0,0,1.66.714c.608,0,1-.238,1-.616,0-.336-.224-.5-.806-.6l-.973-.168c-.84-.14-1.282-.595-1.282-1.309,0-.918.743-1.485,1.933-1.485a3.4,3.4,0,0,1,2.024.687l-.545.756a2.5,2.5,0,0,0-1.548-.588c-.547,0-.9.217-.9.553,0,.3.2.455.7.532l.925.154c.981.161,1.463.623,1.463,1.38,0,.96-.805,1.569-2.065,1.569a3.25,3.25,0,0,1-2.171-.848Z"
       class="cls-6" />
    <path
       id="path218"
       d="M84.76,334.685h1.883a2.455,2.455,0,1,1,0,4.9H84.76Zm1.015.9v3.1h.861a1.548,1.548,0,1,0,0-3.1Z"
       class="cls-6" />
  </g>
  <g
     id="g228">
    <ellipse
       id="ellipse222"
       ry="4.199"
       rx="8.167"
       cy="321.701"
       cx="121.151"
       class="cls-5" />
    <path
       id="path224"
       d="M121.151,326.76c-3.663,0-6.739-1.164-8.167-2.883v1.792c0,2.275,3.736,4.2,8.167,4.2s8.167-1.924,8.167-4.2v-1.792C127.89,325.6,124.815,326.76,121.151,326.76Z"
       class="cls-5" />
    <path
       id="path226"
       d="M121.151,316.642c-5.059,0-9.027,2.222-9.027,5.059v3.968c0,2.837,3.968,5.059,9.027,5.059s9.027-2.222,9.027-5.059V321.7C130.178,318.864,126.21,316.642,121.151,316.642Zm8.167,9.027c0,2.275-3.736,4.2-8.167,4.2s-8.167-1.924-8.167-4.2v-1.792c1.428,1.719,4.5,2.883,8.167,2.883s6.739-1.164,8.167-2.883Zm-8.167.231c-4.431,0-8.167-1.924-8.167-4.2s3.736-4.2,8.167-4.2,8.167,1.924,8.167,4.2S125.582,325.9,121.151,325.9Z"
       class="cls-6" />
  </g>
  <g
     id="g236">
    <path
       id="path230"
       d="M116.355,339.665a2.529,2.529,0,1,1,2.6-2.528A2.538,2.538,0,0,1,116.355,339.665Zm0-4.126a1.6,1.6,0,1,0,1.555,1.6A1.543,1.543,0,0,0,116.355,335.539Z"
       class="cls-6" />
    <path
       id="path232"
       d="M119.805,338.082a2.432,2.432,0,0,0,1.661.714c.608,0,1-.238,1-.616,0-.336-.224-.5-.806-.6l-.974-.168c-.84-.14-1.281-.595-1.281-1.309,0-.918.742-1.485,1.933-1.485a3.4,3.4,0,0,1,2.024.687l-.546.756a2.494,2.494,0,0,0-1.548-.588c-.547,0-.9.217-.9.553,0,.3.2.455.7.532l.925.154c.98.161,1.463.623,1.463,1.38,0,.96-.8,1.569-2.066,1.569a3.25,3.25,0,0,1-2.171-.848Z"
       class="cls-6" />
    <path
       id="path234"
       d="M124.068,334.685h1.884a2.455,2.455,0,1,1,0,4.9h-1.884Zm1.016.9v3.1h.861a1.548,1.548,0,1,0,0-3.1Z"
       class="cls-6" />
  </g>
  <g
     id="g244">
    <ellipse
       id="ellipse238"
       ry="4.199"
       rx="8.167"
       cy="321.701"
       cx="160.459"
       class="cls-5" />
    <path
       id="path240"
       d="M160.459,326.76c-3.664,0-6.739-1.164-8.167-2.883v1.792c0,2.275,3.736,4.2,8.167,4.2s8.167-1.924,8.167-4.2v-1.792C167.2,325.6,164.123,326.76,160.459,326.76Z"
       class="cls-5" />
    <path
       id="path242"
       d="M160.459,316.642c-5.059,0-9.027,2.222-9.027,5.059v3.968c0,2.837,3.968,5.059,9.027,5.059s9.027-2.222,9.027-5.059V321.7C169.486,318.864,165.518,316.642,160.459,316.642Zm8.167,9.027c0,2.275-3.736,4.2-8.167,4.2s-8.167-1.924-8.167-4.2v-1.792c1.428,1.719,4.5,2.883,8.167,2.883s6.739-1.164,8.167-2.883Zm-8.167.231c-4.431,0-8.167-1.924-8.167-4.2s3.736-4.2,8.167-4.2,8.167,1.924,8.167,4.2S164.89,325.9,160.459,325.9Z"
       class="cls-6" />
  </g>
  <g
     id="g252">
    <path
       id="path246"
       d="M155.662,339.665a2.529,2.529,0,1,1,2.6-2.528A2.538,2.538,0,0,1,155.662,339.665Zm0-4.126a1.6,1.6,0,1,0,1.555,1.6A1.543,1.543,0,0,0,155.662,335.539Z"
       class="cls-6" />
    <path
       id="path248"
       d="M159.112,338.082a2.428,2.428,0,0,0,1.66.714c.609,0,1-.238,1-.616,0-.336-.223-.5-.805-.6l-.974-.168c-.84-.14-1.281-.595-1.281-1.309,0-.918.742-1.485,1.932-1.485a3.4,3.4,0,0,1,2.025.687l-.546.756a2.5,2.5,0,0,0-1.548-.588c-.547,0-.9.217-.9.553,0,.3.2.455.7.532l.924.154c.981.161,1.463.623,1.463,1.38,0,.96-.8,1.569-2.065,1.569a3.25,3.25,0,0,1-2.171-.848Z"
       class="cls-6" />
    <path
       id="path250"
       d="M163.375,334.685h1.884a2.455,2.455,0,1,1,0,4.9h-1.884Zm1.015.9v3.1h.862a1.548,1.548,0,1,0,0-3.1Z"
       class="cls-6" />
  </g>
  <g
     id="g260">
    <ellipse
       id="ellipse254"
       ry="4.199"
       rx="8.167"
       cy="321.701"
       cx="199.767"
       class="cls-5" />
    <path
       id="path256"
       d="M199.767,326.76c-3.664,0-6.739-1.164-8.168-2.883v1.792c0,2.275,3.737,4.2,8.168,4.2s8.167-1.924,8.167-4.2v-1.792C206.505,325.6,203.43,326.76,199.767,326.76Z"
       class="cls-5" />
    <path
       id="path258"
       d="M199.767,316.642c-5.059,0-9.027,2.222-9.027,5.059v3.968c0,2.837,3.968,5.059,9.027,5.059s9.026-2.222,9.026-5.059V321.7C208.793,318.864,204.826,316.642,199.767,316.642Zm8.167,9.027c0,2.275-3.737,4.2-8.167,4.2s-8.168-1.924-8.168-4.2v-1.792c1.429,1.719,4.5,2.883,8.168,2.883s6.738-1.164,8.167-2.883Zm-8.167.231c-4.431,0-8.168-1.924-8.168-4.2s3.737-4.2,8.168-4.2,8.167,1.924,8.167,4.2S204.2,325.9,199.767,325.9Z"
       class="cls-6" />
  </g>
  <g
     id="g268">
    <path
       id="path262"
       d="M194.97,339.665a2.529,2.529,0,1,1,2.6-2.528A2.537,2.537,0,0,1,194.97,339.665Zm0-4.126a1.6,1.6,0,1,0,1.555,1.6A1.542,1.542,0,0,0,194.97,335.539Z"
       class="cls-6" />
    <path
       id="path264"
       d="M198.421,338.082a2.428,2.428,0,0,0,1.66.714c.608,0,1-.238,1-.616,0-.336-.224-.5-.806-.6l-.973-.168c-.84-.14-1.282-.595-1.282-1.309,0-.918.742-1.485,1.933-1.485a3.4,3.4,0,0,1,2.024.687l-.546.756a2.493,2.493,0,0,0-1.547-.588c-.547,0-.9.217-.9.553,0,.3.2.455.7.532l.925.154c.981.161,1.463.623,1.463,1.38,0,.96-.805,1.569-2.065,1.569a3.25,3.25,0,0,1-2.171-.848Z"
       class="cls-6" />
    <path
       id="path266"
       d="M202.683,334.685h1.884a2.455,2.455,0,1,1,0,4.9h-1.884Zm1.016.9v3.1h.861a1.548,1.548,0,1,0,0-3.1Z"
       class="cls-6" />
  </g>
  <g
     id="g276">
    <ellipse
       id="ellipse270"
       ry="4.199"
       rx="8.167"
       cy="321.701"
       cx="239.074"
       class="cls-5" />
    <path
       id="path272"
       d="M239.074,326.76c-3.663,0-6.739-1.164-8.167-2.883v1.792c0,2.275,3.736,4.2,8.167,4.2s8.167-1.924,8.167-4.2v-1.792C245.813,325.6,242.738,326.76,239.074,326.76Z"
       class="cls-5" />
    <path
       id="path274"
       d="M239.074,316.642c-5.059,0-9.027,2.222-9.027,5.059v3.968c0,2.837,3.968,5.059,9.027,5.059s9.027-2.222,9.027-5.059V321.7C248.1,318.864,244.133,316.642,239.074,316.642Zm8.167,9.027c0,2.275-3.736,4.2-8.167,4.2s-8.167-1.924-8.167-4.2v-1.792c1.428,1.719,4.5,2.883,8.167,2.883s6.739-1.164,8.167-2.883Zm-8.167.231c-4.431,0-8.167-1.924-8.167-4.2s3.736-4.2,8.167-4.2,8.167,1.924,8.167,4.2S243.505,325.9,239.074,325.9Z"
       class="cls-6" />
  </g>
  <g
     id="g284">
    <path
       id="path278"
       d="M234.277,339.665a2.529,2.529,0,1,1,2.6-2.528A2.538,2.538,0,0,1,234.277,339.665Zm0-4.126a1.6,1.6,0,1,0,1.555,1.6A1.543,1.543,0,0,0,234.277,335.539Z"
       class="cls-6" />
    <path
       id="path280"
       d="M237.727,338.082a2.431,2.431,0,0,0,1.66.714c.609,0,1-.238,1-.616,0-.336-.223-.5-.805-.6l-.974-.168c-.84-.14-1.281-.595-1.281-1.309,0-.918.742-1.485,1.933-1.485a3.4,3.4,0,0,1,2.024.687l-.546.756a2.5,2.5,0,0,0-1.548-.588c-.547,0-.9.217-.9.553,0,.3.2.455.7.532l.925.154c.98.161,1.463.623,1.463,1.38,0,.96-.805,1.569-2.066,1.569a3.25,3.25,0,0,1-2.171-.848Z"
       class="cls-6" />
    <path
       id="path282"
       d="M241.99,334.685h1.884a2.455,2.455,0,1,1,0,4.9H241.99Zm1.016.9v3.1h.861a1.548,1.548,0,1,0,0-3.1Z"
       class="cls-6" />
  </g>
  <g
     id="g292">
    <ellipse
       id="ellipse286"
       ry="4.199"
       rx="8.167"
       cy="321.701"
       cx="278.382"
       class="cls-5" />
    <path
       id="path288"
       d="M278.382,326.76c-3.664,0-6.739-1.164-8.167-2.883v1.792c0,2.275,3.736,4.2,8.167,4.2s8.167-1.924,8.167-4.2v-1.792C285.121,325.6,282.046,326.76,278.382,326.76Z"
       class="cls-5" />
    <path
       id="path290"
       d="M278.382,316.642c-5.059,0-9.027,2.222-9.027,5.059v3.968c0,2.837,3.968,5.059,9.027,5.059s9.027-2.222,9.027-5.059V321.7C287.409,318.864,283.441,316.642,278.382,316.642Zm8.167,9.027c0,2.275-3.736,4.2-8.167,4.2s-8.167-1.924-8.167-4.2v-1.792c1.428,1.719,4.5,2.883,8.167,2.883s6.739-1.164,8.167-2.883Zm-8.167.231c-4.431,0-8.167-1.924-8.167-4.2s3.736-4.2,8.167-4.2,8.167,1.924,8.167,4.2S282.813,325.9,278.382,325.9Z"
       class="cls-6" />
  </g>
  <g
     id="g300">
    <path
       id="path294"
       d="M273.586,339.665a2.529,2.529,0,1,1,2.6-2.528A2.538,2.538,0,0,1,273.586,339.665Zm0-4.126a1.6,1.6,0,1,0,1.554,1.6A1.543,1.543,0,0,0,273.586,335.539Z"
       class="cls-6" />
    <path
       id="path296"
       d="M277.036,338.082a2.428,2.428,0,0,0,1.66.714c.608,0,1-.238,1-.616,0-.336-.224-.5-.806-.6l-.973-.168c-.84-.14-1.282-.595-1.282-1.309,0-.918.743-1.485,1.933-1.485a3.4,3.4,0,0,1,2.025.687l-.546.756a2.5,2.5,0,0,0-1.548-.588c-.547,0-.9.217-.9.553,0,.3.2.455.7.532l.925.154c.981.161,1.463.623,1.463,1.38,0,.96-.8,1.569-2.065,1.569a3.25,3.25,0,0,1-2.171-.848Z"
       class="cls-6" />
    <path
       id="path298"
       d="M281.3,334.685h1.883a2.455,2.455,0,1,1,0,4.9H281.3Zm1.015.9v3.1h.862a1.548,1.548,0,0,0,0-3.1Z"
       class="cls-6" />
  </g>
  <g
     id="g308">
    <ellipse
       id="ellipse302"
       ry="4.199"
       rx="8.167"
       cy="321.701"
       cx="317.69"
       class="cls-5" />
    <path
       id="path304"
       d="M317.69,326.76c-3.664,0-6.739-1.164-8.168-2.883v1.792c0,2.275,3.737,4.2,8.168,4.2s8.167-1.924,8.167-4.2v-1.792C324.428,325.6,321.353,326.76,317.69,326.76Z"
       class="cls-5" />
    <path
       id="path306"
       d="M317.69,316.642c-5.059,0-9.027,2.222-9.027,5.059v3.968c0,2.837,3.968,5.059,9.027,5.059s9.026-2.222,9.026-5.059V321.7C326.716,318.864,322.749,316.642,317.69,316.642Zm8.167,9.027c0,2.275-3.737,4.2-8.167,4.2s-8.168-1.924-8.168-4.2v-1.792c1.429,1.719,4.5,2.883,8.168,2.883s6.738-1.164,8.167-2.883Zm-8.167.231c-4.431,0-8.168-1.924-8.168-4.2s3.737-4.2,8.168-4.2,8.167,1.924,8.167,4.2S322.12,325.9,317.69,325.9Z"
       class="cls-6" />
  </g>
  <g
     id="g316">
    <path
       id="path310"
       d="M312.893,339.665a2.529,2.529,0,1,1,2.6-2.528A2.537,2.537,0,0,1,312.893,339.665Zm0-4.126a1.6,1.6,0,1,0,1.555,1.6A1.543,1.543,0,0,0,312.893,335.539Z"
       class="cls-6" />
    <path
       id="path312"
       d="M316.343,338.082a2.428,2.428,0,0,0,1.66.714c.608,0,1-.238,1-.616,0-.336-.224-.5-.806-.6l-.974-.168c-.839-.14-1.281-.595-1.281-1.309,0-.918.742-1.485,1.933-1.485a3.4,3.4,0,0,1,2.024.687l-.546.756a2.494,2.494,0,0,0-1.548-.588c-.546,0-.9.217-.9.553,0,.3.2.455.7.532l.925.154c.98.161,1.463.623,1.463,1.38,0,.96-.805,1.569-2.066,1.569a3.25,3.25,0,0,1-2.171-.848Z"
       class="cls-6" />
    <path
       id="path314"
       d="M320.606,334.685h1.884a2.455,2.455,0,1,1,0,4.9h-1.884Zm1.016.9v3.1h.861a1.548,1.548,0,1,0,0-3.1Z"
       class="cls-6" />
  </g>
  <g
     id="g324">
    <ellipse
       id="ellipse318"
       ry="4.199"
       rx="8.167"
       cy="321.701"
       cx="396.305"
       class="cls-5" />
    <path
       id="path320"
       d="M396.305,326.76c-3.664,0-6.739-1.164-8.167-2.883v1.792c0,2.275,3.736,4.2,8.167,4.2s8.167-1.924,8.167-4.2v-1.792C403.044,325.6,399.969,326.76,396.305,326.76Z"
       class="cls-5" />
    <path
       id="path322"
       d="M396.305,316.642c-5.059,0-9.027,2.222-9.027,5.059v3.968c0,2.837,3.968,5.059,9.027,5.059s9.027-2.222,9.027-5.059V321.7C405.332,318.864,401.364,316.642,396.305,316.642Zm8.167,9.027c0,2.275-3.736,4.2-8.167,4.2s-8.167-1.924-8.167-4.2v-1.792c1.428,1.719,4.5,2.883,8.167,2.883s6.739-1.164,8.167-2.883Zm-8.167.231c-4.431,0-8.167-1.924-8.167-4.2s3.736-4.2,8.167-4.2,8.167,1.924,8.167,4.2S400.736,325.9,396.305,325.9Z"
       class="cls-6" />
  </g>
  <g
     id="g332">
    <path
       id="path326"
       d="M391.509,339.665a2.529,2.529,0,1,1,2.6-2.528A2.537,2.537,0,0,1,391.509,339.665Zm0-4.126a1.6,1.6,0,1,0,1.554,1.6A1.543,1.543,0,0,0,391.509,335.539Z"
       class="cls-6" />
    <path
       id="path328"
       d="M394.958,338.082a2.428,2.428,0,0,0,1.66.714c.608,0,1-.238,1-.616,0-.336-.224-.5-.806-.6l-.973-.168c-.84-.14-1.282-.595-1.282-1.309,0-.918.743-1.485,1.933-1.485a3.4,3.4,0,0,1,2.024.687l-.546.756a2.493,2.493,0,0,0-1.547-.588c-.547,0-.9.217-.9.553,0,.3.2.455.7.532l.925.154c.981.161,1.463.623,1.463,1.38,0,.96-.805,1.569-2.065,1.569a3.25,3.25,0,0,1-2.171-.848Z"
       class="cls-6" />
    <path
       id="path330"
       d="M399.221,334.685h1.884a2.455,2.455,0,1,1,0,4.9h-1.884Zm1.016.9v3.1h.861a1.548,1.548,0,1,0,0-3.1Z"
       class="cls-6" />
  </g>
  <g
     id="g340">
    <ellipse
       id="ellipse334"
       ry="4.199"
       rx="8.167"
       cy="321.701"
       cx="356.997"
       class="cls-5" />
    <path
       id="path336"
       d="M357,326.76c-3.663,0-6.739-1.164-8.167-2.883v1.792c0,2.275,3.736,4.2,8.167,4.2s8.167-1.924,8.167-4.2v-1.792C363.736,325.6,360.661,326.76,357,326.76Z"
       class="cls-5" />
    <path
       id="path338"
       d="M357,316.642c-5.059,0-9.027,2.222-9.027,5.059v3.968c0,2.837,3.968,5.059,9.027,5.059s9.027-2.222,9.027-5.059V321.7C366.024,318.864,362.056,316.642,357,316.642Zm8.167,9.027c0,2.275-3.736,4.2-8.167,4.2s-8.167-1.924-8.167-4.2v-1.792c1.428,1.719,4.5,2.883,8.167,2.883s6.739-1.164,8.167-2.883ZM357,325.9c-4.431,0-8.167-1.924-8.167-4.2s3.736-4.2,8.167-4.2,8.167,1.924,8.167,4.2S361.428,325.9,357,325.9Z"
       class="cls-6" />
  </g>
  <g
     id="g348">
    <path
       id="path342"
       d="M352.2,339.665a2.529,2.529,0,1,1,2.6-2.528A2.538,2.538,0,0,1,352.2,339.665Zm0-4.126a1.6,1.6,0,1,0,1.555,1.6A1.543,1.543,0,0,0,352.2,335.539Z"
       class="cls-6" />
    <path
       id="path344"
       d="M355.65,338.082a2.428,2.428,0,0,0,1.66.714c.609,0,1-.238,1-.616,0-.336-.223-.5-.805-.6l-.974-.168c-.84-.14-1.281-.595-1.281-1.309,0-.918.742-1.485,1.932-1.485a3.4,3.4,0,0,1,2.025.687l-.546.756a2.5,2.5,0,0,0-1.548-.588c-.547,0-.9.217-.9.553,0,.3.2.455.7.532l.925.154c.98.161,1.462.623,1.462,1.38,0,.96-.8,1.569-2.065,1.569a3.25,3.25,0,0,1-2.171-.848Z"
       class="cls-6" />
    <path
       id="path346"
       d="M359.914,334.685H361.8a2.455,2.455,0,1,1,0,4.9h-1.884Zm1.015.9v3.1h.862a1.548,1.548,0,1,0,0-3.1Z"
       class="cls-6" />
  </g>
  <g
     id="g356">
    <ellipse
       id="ellipse350"
       ry="4.199"
       rx="8.167"
       cy="321.701"
       cx="435.613"
       class="cls-5" />
    <path
       id="path352"
       d="M435.613,326.76c-3.664,0-6.739-1.164-8.168-2.883v1.792c0,2.275,3.737,4.2,8.168,4.2s8.167-1.924,8.167-4.2v-1.792C442.351,325.6,439.276,326.76,435.613,326.76Z"
       class="cls-5" />
    <path
       id="path354"
       d="M435.613,316.642c-5.059,0-9.027,2.222-9.027,5.059v3.968c0,2.837,3.968,5.059,9.027,5.059s9.027-2.222,9.027-5.059V321.7C444.64,318.864,440.672,316.642,435.613,316.642Zm8.167,9.027c0,2.275-3.737,4.2-8.167,4.2s-8.168-1.924-8.168-4.2v-1.792c1.429,1.719,4.5,2.883,8.168,2.883s6.738-1.164,8.167-2.883Zm-8.167.231c-4.431,0-8.168-1.924-8.168-4.2s3.737-4.2,8.168-4.2,8.167,1.924,8.167,4.2S440.043,325.9,435.613,325.9Z"
       class="cls-6" />
  </g>
  <g
     id="g364">
    <path
       id="path358"
       d="M430.816,339.665a2.529,2.529,0,1,1,2.6-2.528A2.538,2.538,0,0,1,430.816,339.665Zm0-4.126a1.6,1.6,0,1,0,1.555,1.6A1.543,1.543,0,0,0,430.816,335.539Z"
       class="cls-6" />
    <path
       id="path360"
       d="M434.266,338.082a2.432,2.432,0,0,0,1.661.714c.608,0,1-.238,1-.616,0-.336-.224-.5-.806-.6l-.974-.168c-.84-.14-1.281-.595-1.281-1.309,0-.918.742-1.485,1.933-1.485a3.4,3.4,0,0,1,2.024.687l-.546.756a2.5,2.5,0,0,0-1.548-.588c-.547,0-.9.217-.9.553,0,.3.2.455.7.532l.925.154c.98.161,1.463.623,1.463,1.38,0,.96-.805,1.569-2.066,1.569a3.25,3.25,0,0,1-2.171-.848Z"
       class="cls-6" />
    <path
       id="path362"
       d="M438.529,334.685h1.884a2.455,2.455,0,1,1,0,4.9h-1.884Zm1.016.9v3.1h.861a1.548,1.548,0,1,0,0-3.1Z"
       class="cls-6" />
  </g>
  <g
     id="g372">
    <ellipse
       id="ellipse366"
       ry="4.199"
       rx="8.167"
       cy="321.701"
       cx="474.92"
       class="cls-5" />
    <path
       id="path368"
       d="M474.92,326.76c-3.663,0-6.739-1.164-8.167-2.883v1.792c0,2.275,3.736,4.2,8.167,4.2s8.168-1.924,8.168-4.2v-1.792C481.659,325.6,478.584,326.76,474.92,326.76Z"
       class="cls-5" />
    <path
       id="path370"
       d="M474.92,316.642c-5.059,0-9.027,2.222-9.027,5.059v3.968c0,2.837,3.968,5.059,9.027,5.059s9.027-2.222,9.027-5.059V321.7C483.947,318.864,479.979,316.642,474.92,316.642Zm8.168,9.027c0,2.275-3.737,4.2-8.168,4.2s-8.167-1.924-8.167-4.2v-1.792c1.428,1.719,4.5,2.883,8.167,2.883s6.739-1.164,8.168-2.883Zm-8.168.231c-4.431,0-8.167-1.924-8.167-4.2s3.736-4.2,8.167-4.2,8.168,1.924,8.168,4.2S479.351,325.9,474.92,325.9Z"
       class="cls-6" />
  </g>
  <g
     id="g380">
    <path
       id="path374"
       d="M470.124,339.665a2.529,2.529,0,1,1,2.6-2.528A2.538,2.538,0,0,1,470.124,339.665Zm0-4.126a1.6,1.6,0,1,0,1.554,1.6A1.543,1.543,0,0,0,470.124,335.539Z"
       class="cls-6" />
    <path
       id="path376"
       d="M473.573,338.082a2.428,2.428,0,0,0,1.66.714c.609,0,1-.238,1-.616,0-.336-.223-.5-.806-.6l-.973-.168c-.84-.14-1.281-.595-1.281-1.309,0-.918.742-1.485,1.932-1.485a3.4,3.4,0,0,1,2.025.687l-.546.756a2.5,2.5,0,0,0-1.548-.588c-.547,0-.9.217-.9.553,0,.3.2.455.7.532l.924.154c.981.161,1.463.623,1.463,1.38,0,.96-.8,1.569-2.065,1.569a3.25,3.25,0,0,1-2.171-.848Z"
       class="cls-6" />
    <path
       id="path378"
       d="M477.837,334.685h1.883a2.455,2.455,0,1,1,0,4.9h-1.883Zm1.015.9v3.1h.862a1.548,1.548,0,0,0,0-3.1Z"
       class="cls-6" />
  </g>
  <g
     id="g388">
    <ellipse
       id="ellipse382"
       ry="4.199"
       rx="8.167"
       cy="321.701"
       cx="514.228"
       class="cls-5" />
    <path
       id="path384"
       d="M514.228,326.76c-3.664,0-6.739-1.164-8.167-2.883v1.792c0,2.275,3.736,4.2,8.167,4.2s8.167-1.924,8.167-4.2v-1.792C520.967,325.6,517.892,326.76,514.228,326.76Z"
       class="cls-5" />
    <path
       id="path386"
       d="M514.228,316.642c-5.059,0-9.027,2.222-9.027,5.059v3.968c0,2.837,3.968,5.059,9.027,5.059s9.027-2.222,9.027-5.059V321.7C523.255,318.864,519.287,316.642,514.228,316.642Zm8.167,9.027c0,2.275-3.736,4.2-8.167,4.2s-8.167-1.924-8.167-4.2v-1.792c1.428,1.719,4.5,2.883,8.167,2.883s6.739-1.164,8.167-2.883Zm-8.167.231c-4.431,0-8.167-1.924-8.167-4.2s3.736-4.2,8.167-4.2,8.167,1.924,8.167,4.2S518.659,325.9,514.228,325.9Z"
       class="cls-6" />
  </g>
  <g
     id="g396">
    <path
       id="path390"
       d="M509.431,339.665a2.529,2.529,0,1,1,2.6-2.528A2.537,2.537,0,0,1,509.431,339.665Zm0-4.126a1.6,1.6,0,1,0,1.555,1.6A1.542,1.542,0,0,0,509.431,335.539Z"
       class="cls-6" />
    <path
       id="path392"
       d="M512.882,338.082a2.428,2.428,0,0,0,1.66.714c.608,0,1-.238,1-.616,0-.336-.224-.5-.806-.6l-.974-.168c-.839-.14-1.281-.595-1.281-1.309,0-.918.742-1.485,1.933-1.485a3.4,3.4,0,0,1,2.024.687l-.546.756a2.494,2.494,0,0,0-1.548-.588c-.546,0-.9.217-.9.553,0,.3.2.455.7.532l.925.154c.98.161,1.463.623,1.463,1.38,0,.96-.805,1.569-2.066,1.569a3.246,3.246,0,0,1-2.17-.848Z"
       class="cls-6" />
    <path
       id="path394"
       d="M517.144,334.685h1.884a2.455,2.455,0,1,1,0,4.9h-1.884Zm1.016.9v3.1h.861a1.548,1.548,0,1,0,0-3.1Z"
       class="cls-6" />
  </g>
  <g
     id="g404">
    <ellipse
       id="ellipse398"
       ry="4.199"
       rx="8.167"
       cy="321.701"
       cx="553.536"
       class="cls-5" />
    <path
       id="path400"
       d="M553.536,326.76c-3.664,0-6.739-1.164-8.168-2.883v1.792c0,2.275,3.737,4.2,8.168,4.2s8.167-1.924,8.167-4.2v-1.792C560.274,325.6,557.2,326.76,553.536,326.76Z"
       class="cls-5" />
    <path
       id="path402"
       d="M553.536,316.642c-5.059,0-9.027,2.222-9.027,5.059v3.968c0,2.837,3.968,5.059,9.027,5.059s9.027-2.222,9.027-5.059V321.7C562.563,318.864,558.6,316.642,553.536,316.642Zm8.167,9.027c0,2.275-3.737,4.2-8.167,4.2s-8.168-1.924-8.168-4.2v-1.792c1.429,1.719,4.5,2.883,8.168,2.883s6.738-1.164,8.167-2.883Zm-8.167.231c-4.431,0-8.168-1.924-8.168-4.2s3.737-4.2,8.168-4.2,8.167,1.924,8.167,4.2S557.966,325.9,553.536,325.9Z"
       class="cls-6" />
  </g>
  <g
     id="g412">
    <path
       id="path406"
       d="M548.739,339.665a2.529,2.529,0,1,1,2.6-2.528A2.538,2.538,0,0,1,548.739,339.665Zm0-4.126a1.6,1.6,0,1,0,1.555,1.6A1.543,1.543,0,0,0,548.739,335.539Z"
       class="cls-6" />
    <path
       id="path408"
       d="M552.188,338.082a2.429,2.429,0,0,0,1.66.714c.609,0,1-.238,1-.616,0-.336-.223-.5-.805-.6l-.974-.168c-.84-.14-1.281-.595-1.281-1.309,0-.918.742-1.485,1.932-1.485a3.4,3.4,0,0,1,2.025.687l-.546.756a2.5,2.5,0,0,0-1.548-.588c-.547,0-.9.217-.9.553,0,.3.2.455.7.532l.925.154c.98.161,1.463.623,1.463,1.38,0,.96-.805,1.569-2.066,1.569a3.25,3.25,0,0,1-2.171-.848Z"
       class="cls-6" />
    <path
       id="path410"
       d="M556.452,334.685h1.884a2.455,2.455,0,1,1,0,4.9h-1.884Zm1.016.9v3.1h.861a1.548,1.548,0,1,0,0-3.1Z"
       class="cls-6" />
  </g>
  <g
     id="g426">
    <path
       id="path414"
       d="M280.335,144.27h1.2v5.956h3.727v1.04h-4.926Z"
       class="cls-7" />
    <path
       id="path416"
       d="M286.524,144.27h1.2v7h-1.2Z"
       class="cls-7" />
    <path
       id="path418"
       d="M292.463,144.27c1.319,0,2.208.74,2.208,1.839a1.678,1.678,0,0,1-1.119,1.549,1.75,1.75,0,0,1,1.359,1.659,2.041,2.041,0,0,1-2.309,1.949h-3.248v-7Zm-1.91.979v1.959h1.79c.689,0,1.128-.38,1.128-.979s-.439-.98-1.128-.98Zm3.149,3.958a1.091,1.091,0,0,0-1.239-1.069h-1.91v2.148h1.91A1.1,1.1,0,0,0,293.7,149.207Z"
       class="cls-7" />
    <path
       id="path420"
       d="M296.314,144.27h3.109a2.131,2.131,0,0,1,2.338,2.118,1.988,1.988,0,0,1-1.379,1.919l1.469,2.959h-1.33l-1.348-2.8h-1.66v2.8h-1.2Zm1.2,1.009v2.229h1.809a1.12,1.12,0,1,0,0-2.229Z"
       class="cls-7" />
    <path
       id="path422"
       d="M306.143,144.27c1.32,0,2.208.74,2.208,1.839a1.677,1.677,0,0,1-1.119,1.549,1.751,1.751,0,0,1,1.36,1.659,2.041,2.041,0,0,1-2.309,1.949h-3.248v-7Zm-1.909.979v1.959h1.789c.69,0,1.129-.38,1.129-.979s-.439-.98-1.129-.98Zm3.149,3.958a1.092,1.092,0,0,0-1.24-1.069h-1.909v2.148h1.909A1.1,1.1,0,0,0,307.383,149.207Z"
       class="cls-7" />
    <path
       id="path424"
       d="M310,144.27h2.558a3.5,3.5,0,1,1,0,7H310Zm1.2,1.039v4.917h1.389a2.469,2.469,0,0,0,0-4.917Z"
       class="cls-7" />
  </g>
  <g
     id="g432">
    <path
       id="path428"
       d="M290.161,22.176h1.29l2.148,5.786,2.169-5.786h1.24l-2.739,7H292.88Z"
       class="cls-7" />
    <path
       id="path430"
       d="M299.02,23.685v5.487h-1.109v-7h1.558l2.049,4.237,2.039-4.237h1.56v7h-1.13V23.715l-2.478,4.957Z"
       class="cls-7" />
  </g>
  <g
     id="g454">
    <path
       id="path434"
       d="M246.531,122.419h1.2v2.948h3.478v-2.948h1.2v7h-1.2v-3H247.73v3h-1.2Z"
       class="cls-7" />
    <path
       id="path436"
       d="M255.179,129.445l-1.888-5.037h1.26l1.268,3.718,1.4-3.718h1.229l-2.379,5.826a1.693,1.693,0,0,1-1.778,1.32,2.409,2.409,0,0,1-.571-.07v-.97a4.122,4.122,0,0,0,.441.04.8.8,0,0,0,.808-.58Z"
       class="cls-7" />
    <path
       id="path438"
       d="M259.27,124.408h1.11v.719a1.887,1.887,0,0,1,1.559-.76,2.4,2.4,0,0,1,2.269,2.549,2.427,2.427,0,0,1-2.349,2.549,1.871,1.871,0,0,1-1.459-.65v2.719h-1.13Zm1.13,1.469v2.089a1.538,1.538,0,0,0,1.2.549,1.6,1.6,0,0,0,0-3.2A1.469,1.469,0,0,0,260.4,125.877Z"
       class="cls-7" />
    <path
       id="path440"
       d="M267.7,129.515a2.546,2.546,0,0,1-2.549-2.6,2.467,2.467,0,0,1,2.439-2.589,2.4,2.4,0,0,1,2.369,2.579v.28h-3.7a1.529,1.529,0,0,0,1.5,1.369,1.624,1.624,0,0,0,1.189-.469l.739.689A2.892,2.892,0,0,1,267.7,129.515ZM266.28,126.5h2.608a1.37,1.37,0,0,0-1.309-1.249A1.345,1.345,0,0,0,266.28,126.5Z"
       class="cls-7" />
    <path
       id="path442"
       d="M271.11,124.408h1.13V125.5a1.484,1.484,0,0,1,1.379-1.179,1.3,1.3,0,0,1,.49.1v.989a1.6,1.6,0,0,0-.62-.12,1.375,1.375,0,0,0-1.249.83v3.3h-1.13Z"
       class="cls-7" />
    <path
       id="path444"
       d="M274.451,124.408h1.228l1.39,3.658,1.39-3.658h1.188l-2.058,5.007H276.5Z"
       class="cls-7" />
    <path
       id="path446"
       d="M280.32,122.7a.7.7,0,0,1,1.409,0,.7.7,0,0,1-1.409,0Zm1.27,6.716h-1.13v-5.007h1.13Z"
       class="cls-7" />
    <path
       id="path448"
       d="M283.059,128.075a2.89,2.89,0,0,0,1.61.57c.6,0,1.009-.27,1.009-.67,0-.309-.209-.479-.689-.569l-.89-.15c-.969-.18-1.449-.63-1.449-1.379,0-.94.77-1.55,1.939-1.55a3.51,3.51,0,0,1,1.968.6l-.529.739a2.736,2.736,0,0,0-1.51-.48c-.519,0-.859.22-.859.59,0,.319.181.46.71.549l.88.161c1,.19,1.478.649,1.478,1.4a1.835,1.835,0,0,1-2.039,1.629,3.355,3.355,0,0,1-2.158-.68Z"
       class="cls-7" />
    <path
       id="path450"
       d="M290.058,124.327a2.6,2.6,0,1,1-2.518,2.589A2.5,2.5,0,0,1,290.058,124.327Zm1.4,2.6a1.416,1.416,0,1,0-2.8,0,1.413,1.413,0,1,0,2.8,0Z"
       class="cls-7" />
    <path
       id="path452"
       d="M293.75,124.408h1.13V125.5a1.483,1.483,0,0,1,1.379-1.179,1.3,1.3,0,0,1,.49.1v.989a1.593,1.593,0,0,0-.62-.12,1.375,1.375,0,0,0-1.249.83v3.3h-1.13Z"
       class="cls-7" />
  </g>
  <g
     id="g480">
    <path
       id="path456"
       d="M259.856,357.682h3.763a2.428,2.428,0,0,1,2.662,2.388,2.286,2.286,0,0,1-1.508,2.145l1.706,3.169H264.7l-1.508-2.949h-1.738v2.949h-1.6Zm1.6,1.376v2.068h2.024a1.044,1.044,0,1,0,0-2.068Z" />
    <path
       id="path458"
       d="M269.866,357.682h1.849l3.124,7.7h-1.727l-.781-2.025h-3.18l-.792,2.025H266.7Zm1.98,4.4-1.088-2.838-1.112,2.838Z" />
    <path
       id="path460"
       d="M275.487,357.682h2.959a3.857,3.857,0,1,1,0,7.7h-2.959Zm1.595,1.42v4.862h1.353a2.431,2.431,0,1,0,0-4.862Z" />
    <path
       id="path462"
       d="M287.389,365.505a3.973,3.973,0,1,1,4.081-3.972A3.986,3.986,0,0,1,287.389,365.505Zm0-6.48a2.509,2.509,0,1,0,2.443,2.508A2.423,2.423,0,0,0,287.389,359.025Z" />
    <path
       id="path464"
       d="M292.811,363.018a3.812,3.812,0,0,0,2.608,1.122c.957,0,1.573-.374,1.573-.968,0-.528-.353-.792-1.266-.946l-1.529-.264c-1.32-.22-2.013-.935-2.013-2.057,0-1.441,1.166-2.332,3.036-2.332a5.344,5.344,0,0,1,3.18,1.078l-.858,1.188a3.919,3.919,0,0,0-2.432-.924c-.857,0-1.408.341-1.408.869,0,.473.309.715,1.1.836l1.452.242c1.54.253,2.3.979,2.3,2.167,0,1.507-1.264,2.464-3.245,2.464a5.1,5.1,0,0,1-3.41-1.331Z" />
    <path
       id="path466"
       d="M305.792,363.535l.9.936a3.186,3.186,0,0,1-2.333,1.022,2.976,2.976,0,1,1,0-5.951,3.224,3.224,0,0,1,2.377,1.023l-.924.979a1.863,1.863,0,0,0-1.42-.693,1.665,1.665,0,0,0,.034,3.323A1.78,1.78,0,0,0,305.792,363.535Z" />
    <path
       id="path468"
       d="M308.981,365.384h-1.508v-7.7l1.508-.33Z" />
    <path
       id="path470"
       d="M311.622,362.985a1.126,1.126,0,0,0,1.187,1.211,1.381,1.381,0,0,0,1.189-.573v-3.971h1.507v5.732H314v-.462a2.441,2.441,0,0,1-1.617.571,2.183,2.183,0,0,1-2.267-2.288v-3.553h1.508Z" />
    <path
       id="path472"
       d="M316.945,363.7a3.337,3.337,0,0,0,1.859.649c.671,0,1.111-.242,1.111-.6,0-.3-.22-.461-.715-.539l-1.1-.165c-1.133-.176-1.738-.737-1.738-1.661,0-1.111.924-1.815,2.387-1.815a4.228,4.228,0,0,1,2.354.715l-.725.968a3.389,3.389,0,0,0-1.772-.55c-.55,0-.9.22-.9.561,0,.308.22.462.781.539l1.1.165c1.123.165,1.75.748,1.75,1.639,0,1.078-1.068,1.892-2.509,1.892a4.215,4.215,0,0,1-2.629-.792Z" />
    <path
       id="path474"
       d="M322.753,360.917h-1.177v-1.265h1.177v-1.463l1.508-.342v1.805h1.627v1.265h-1.627v2.541c0,.539.208.738.792.738a2.315,2.315,0,0,0,.8-.133V365.3a4.674,4.674,0,0,1-1.166.175c-1.276,0-1.936-.583-1.936-1.7Z" />
    <path
       id="path476"
       d="M329.4,365.493a2.983,2.983,0,0,1-3.08-2.97,2.925,2.925,0,0,1,2.948-2.97,2.893,2.893,0,0,1,2.839,3.08v.4h-4.268a1.651,1.651,0,0,0,1.628,1.2,1.8,1.8,0,0,0,1.264-.462l.991.9A3.435,3.435,0,0,1,329.4,365.493Zm-1.573-3.542h2.806a1.48,1.48,0,0,0-1.4-1.155A1.44,1.44,0,0,0,327.824,361.951Z" />
    <path
       id="path478"
       d="M333.026,359.652h1.508v.627a1.823,1.823,0,0,1,1.529-.759,1.3,1.3,0,0,1,.627.132v1.32a1.927,1.927,0,0,0-.77-.154,1.517,1.517,0,0,0-1.386.858v3.708h-1.508Z" />
  </g>
  <g
     id="g488">
    <polyline
       id="polyline482"
       points="81.065 263.098 81.065 212.62 298.036 212.62 298.036 165.307"
       class="cls-8" />
    <polygon
       id="polygon484"
       points="84.805 262.004 81.066 268.48 77.326 262.004 84.805 262.004"
       class="cls-6" />
    <polygon
       id="polygon486"
       points="301.775 166.402 298.036 159.926 294.296 166.402 301.775 166.402"
       class="cls-6" />
  </g>
  <g
     id="g496">
    <polyline
       id="polyline490"
       points="514.229 263.098 514.229 212.62 298.036 212.62 298.036 165.307"
       class="cls-8" />
    <polygon
       id="polygon492"
       points="517.968 262.004 514.229 268.48 510.489 262.004 517.968 262.004"
       class="cls-6" />
    <polygon
       id="polygon494"
       points="301.775 166.402 298.036 159.926 294.296 166.402 301.775 166.402"
       class="cls-6" />
  </g>
  <g
     id="g502">
    <line
       id="line498"
       y2="83.573"
       x2="298.036"
       y1="108.686"
       x1="298.036"
       class="cls-8" />
    <polygon
       id="polygon500"
       points="301.775 107.591 298.036 114.067 294.296 107.591 301.775 107.591"
       class="cls-6" />
  </g>
  <g
     id="g508">
    <line
       id="line504"
       y2="47.89"
       x2="298.036"
       y1="73.003"
       x1="298.036"
       class="cls-8" />
    <polygon
       id="polygon506"
       points="301.775 48.984 298.036 42.509 294.296 48.984 301.775 48.984"
       class="cls-6" />
  </g>
  <g
     id="g514">
    <line
       id="line510"
       y2="212.62"
       x2="199.767"
       y1="263.098"
       x1="199.767"
       class="cls-8" />
    <polygon
       id="polygon512"
       points="203.506 262.004 199.767 268.48 196.027 262.004 203.506 262.004"
       class="cls-6" />
  </g>
  <g
     id="g520">
    <line
       id="line516"
       y2="212.62"
       x2="239.074"
       y1="263.098"
       x1="239.074"
       class="cls-8" />
    <polygon
       id="polygon518"
       points="242.813 262.004 239.074 268.48 235.335 262.004 242.813 262.004"
       class="cls-6" />
  </g>
  <g
     id="g526">
    <line
       id="line522"
       y2="212.62"
       x2="356.997"
       y1="263.098"
       x1="356.997"
       class="cls-8" />
    <polygon
       id="polygon524"
       points="360.737 262.004 356.998 268.48 353.258 262.004 360.737 262.004"
       class="cls-6" />
  </g>
  <g
     id="g534">
    <path
       id="path528"
       d="M389.455,294.978v3.608h-.939v-4.9h1.3l1.345,2.633,1.345-2.633h1.3v4.9h-.96v-3.6l-1.7,3.249Z"
       class="cls-6" />
    <path
       id="path530"
       d="M397.093,298.663a2.529,2.529,0,1,1,2.6-2.528A2.536,2.536,0,0,1,397.093,298.663Zm0-4.125a1.6,1.6,0,1,0,1.554,1.6A1.542,1.542,0,0,0,397.093,294.538Z"
       class="cls-6" />
    <path
       id="path532"
       d="M401.347,293.683l2.438,3.173v-3.173h.952v4.9h-.9l-2.5-3.278v3.278h-.959v-4.9Z"
       class="cls-6" />
  </g>
  <g
     id="g558">
    <path
       id="path536"
       d="M405.59,274.305H391.52v12.57h14.07Zm-10.035,3.75h-.285v7.035a.465.465,0,0,1-.93,0v-7.035h-.285a.465.465,0,1,1,0-.93h.285V276.09h0a.465.465,0,0,1,.93,0v1.035h.285a.465.465,0,1,1,0,.93Zm3.75,5.25h-.285v1.785a.465.465,0,0,1-.93,0v-1.785h-.285a.465.465,0,1,1,0-.93h.285V276.09a.465.465,0,0,1,.93,0v6.285h.285a.465.465,0,1,1,0,.93Zm3.75-2.25h-.285v4.035a.465.465,0,0,1-.93,0v-4.035h-.285a.465.465,0,1,1,0-.93h.285V276.09a.465.465,0,0,1,.93,0v4.035h.285a.465.465,0,1,1,0,.93Z"
       class="cls-5" />
    <path
       id="path538"
       d="M390.59,274.305h-3.57v12.57h3.57Zm-1.785,11.25a.465.465,0,1,1,.465-.465A.465.465,0,0,1,388.805,285.555Zm0-2.25a.465.465,0,1,1,.465-.465A.465.465,0,0,1,388.805,283.305Zm0-2.25a.465.465,0,1,1,.465-.465A.465.465,0,0,1,388.805,281.055Zm0-2.25a.465.465,0,1,1,.465-.465A.465.465,0,0,1,388.805,278.805Zm0-2.25a.465.465,0,1,1,.465-.465A.465.465,0,0,1,388.805,276.555Z"
       class="cls-5" />
    <path
       id="path540"
       d="M406.055,287.805a.465.465,0,0,0,.465-.465v-13.5a.465.465,0,0,0-.465-.465h-19.5a.465.465,0,0,0-.465.465v13.5a.465.465,0,0,0,.465.465Zm-14.535-13.5h14.07v12.57H391.52Zm-4.5,0h3.57v12.57h-3.57Z"
       class="cls-6" />
    <path
       id="path542"
       d="M395.555,277.125h-.285V276.09a.465.465,0,0,0-.93,0h0v1.035h-.285a.465.465,0,1,0,0,.93h.285v7.035a.465.465,0,0,0,.93,0v-7.035h.285a.465.465,0,1,0,0-.93Z"
       class="cls-6" />
    <path
       id="path544"
       d="M399.305,282.375h-.285V276.09a.465.465,0,0,0-.93,0v6.285h-.285a.465.465,0,1,0,0,.93h.285v1.785a.465.465,0,0,0,.93,0v-1.785h.285a.465.465,0,1,0,0-.93Z"
       class="cls-6" />
    <path
       id="path546"
       d="M403.055,280.125h-.285V276.09a.465.465,0,0,0-.93,0v4.035h-.285a.465.465,0,1,0,0,.93h.285v4.035a.465.465,0,0,0,.93,0v-4.035h.285a.465.465,0,1,0,0-.93Z"
       class="cls-6" />
    <path
       id="path548"
       d="M388.805,275.625a.465.465,0,1,0,.465.465A.465.465,0,0,0,388.805,275.625Z"
       class="cls-6" />
    <circle
       id="circle550"
       r="0.465"
       cy="285.09"
       cx="388.805"
       class="cls-6" />
    <circle
       id="circle552"
       r="0.465"
       cy="282.84"
       cx="388.805"
       class="cls-6" />
    <circle
       id="circle554"
       r="0.465"
       cy="280.59"
       cx="388.805"
       class="cls-6" />
    <path
       id="path556"
       d="M388.805,277.875a.465.465,0,1,0,.465.465A.465.465,0,0,0,388.805,277.875Z"
       class="cls-6" />
  </g>
  <g
     id="g566">
    <path
       id="path560"
       d="M153.609,294.978v3.608h-.938v-4.9h1.3l1.345,2.633,1.345-2.633h1.3v4.9h-.96v-3.6l-1.7,3.249Z"
       class="cls-6" />
    <path
       id="path562"
       d="M161.247,298.663a2.529,2.529,0,1,1,2.6-2.528A2.537,2.537,0,0,1,161.247,298.663Zm0-4.125a1.6,1.6,0,1,0,1.555,1.6A1.542,1.542,0,0,0,161.247,294.538Z"
       class="cls-6" />
    <path
       id="path564"
       d="M165.5,293.683l2.437,3.173v-3.173h.952v4.9H168l-2.5-3.278v3.278h-.96v-4.9Z"
       class="cls-6" />
  </g>
  <g
     id="g590">
    <path
       id="path568"
       d="M169.744,274.305h-14.07v12.57h14.07Zm-10.035,3.75h-.285v7.035a.465.465,0,0,1-.93,0v-7.035h-.285a.465.465,0,1,1,0-.93h.285V276.09h0a.465.465,0,0,1,.93,0v1.035h.285a.465.465,0,0,1,0,.93Zm3.75,5.25h-.285v1.785a.465.465,0,0,1-.93,0v-1.785h-.285a.465.465,0,1,1,0-.93h.285V276.09a.465.465,0,0,1,.93,0v6.285h.285a.465.465,0,0,1,0,.93Zm3.75-2.25h-.285v4.035a.465.465,0,0,1-.93,0v-4.035h-.285a.465.465,0,1,1,0-.93h.285V276.09a.465.465,0,0,1,.93,0v4.035h.285a.465.465,0,0,1,0,.93Z"
       class="cls-5" />
    <path
       id="path570"
       d="M154.744,274.305h-3.57v12.57h3.57Zm-1.785,11.25a.465.465,0,1,1,.465-.465A.465.465,0,0,1,152.959,285.555Zm0-2.25a.465.465,0,1,1,.465-.465A.465.465,0,0,1,152.959,283.305Zm0-2.25a.465.465,0,1,1,.465-.465A.465.465,0,0,1,152.959,281.055Zm0-2.25a.465.465,0,1,1,.465-.465A.465.465,0,0,1,152.959,278.805Zm0-2.25a.465.465,0,1,1,.465-.465A.465.465,0,0,1,152.959,276.555Z"
       class="cls-5" />
    <path
       id="path572"
       d="M170.209,287.805a.465.465,0,0,0,.465-.465v-13.5a.465.465,0,0,0-.465-.465h-19.5a.465.465,0,0,0-.465.465v13.5a.465.465,0,0,0,.465.465Zm-14.535-13.5h14.07v12.57h-14.07Zm-4.5,0h3.57v12.57h-3.57Z"
       class="cls-6" />
    <path
       id="path574"
       d="M159.709,277.125h-.285V276.09a.465.465,0,0,0-.93,0h0v1.035h-.285a.465.465,0,1,0,0,.93h.285v7.035a.465.465,0,0,0,.93,0v-7.035h.285a.465.465,0,0,0,0-.93Z"
       class="cls-6" />
    <path
       id="path576"
       d="M163.459,282.375h-.285V276.09a.465.465,0,0,0-.93,0v6.285h-.285a.465.465,0,1,0,0,.93h.285v1.785a.465.465,0,0,0,.93,0v-1.785h.285a.465.465,0,0,0,0-.93Z"
       class="cls-6" />
    <path
       id="path578"
       d="M167.209,280.125h-.285V276.09a.465.465,0,0,0-.93,0v4.035h-.285a.465.465,0,1,0,0,.93h.285v4.035a.465.465,0,0,0,.93,0v-4.035h.285a.465.465,0,0,0,0-.93Z"
       class="cls-6" />
    <path
       id="path580"
       d="M152.959,275.625a.465.465,0,1,0,.465.465A.465.465,0,0,0,152.959,275.625Z"
       class="cls-6" />
    <circle
       id="circle582"
       r="0.465"
       cy="285.09"
       cx="152.959"
       class="cls-6" />
    <circle
       id="circle584"
       r="0.465"
       cy="282.84"
       cx="152.959"
       class="cls-6" />
    <circle
       id="circle586"
       r="0.465"
       cy="280.59"
       cx="152.959"
       class="cls-6" />
    <path
       id="path588"
       d="M152.959,277.875a.465.465,0,1,0,.465.465A.465.465,0,0,0,152.959,277.875Z"
       class="cls-6" />
  </g>
  <g
     id="g620">
    <g
       id="g598">
      <path
         id="path592"
         d="M74.981,294.979v3.607h-.938v-4.9h1.3l1.345,2.634,1.345-2.634h1.3v4.9h-.96v-3.6l-1.7,3.25Z"
         class="cls-6" />
      <path
         id="path594"
         d="M82.626,298.663a2.529,2.529,0,1,1-.014-5.057,2.627,2.627,0,0,1,2.038.918l-.708.651a1.692,1.692,0,0,0-1.33-.638,1.533,1.533,0,0,0-1.541,1.6,1.556,1.556,0,0,0,1.568,1.6A1.32,1.32,0,0,0,84,296.716h-1.45v-.883h2.535v.308A2.421,2.421,0,0,1,82.626,298.663Z"
         class="cls-6" />
      <path
         id="path596"
         d="M85.774,293.683h2.4a1.545,1.545,0,0,1,1.694,1.52,1.456,1.456,0,0,1-.959,1.366l1.085,2.017H88.855l-.959-1.877H86.79v1.877H85.774Zm1.016.875v1.317h1.288a.665.665,0,1,0,0-1.317Z"
         class="cls-6" />
    </g>
    <g
       id="g618">
      <path
         id="path600"
         d="M83.755,284.114a.382.382,0,0,1-.37-.29,4.348,4.348,0,0,0-.426-1.023.384.384,0,0,1,.062-.463l.962-.961a6.054,6.054,0,0,0-1.067-1.073l-.955.955a.383.383,0,0,1-.469.056,4.156,4.156,0,0,0-1.035-.438.381.381,0,0,1-.284-.37v-1.356a5.379,5.379,0,0,0-1.51,0V280.5a.388.388,0,0,1-.29.376,4.121,4.121,0,0,0-1.067.432.383.383,0,0,1-.462-.062l-.962-.962a6.082,6.082,0,0,0-1.072,1.067l.955.955a.384.384,0,0,1,.056.469,4.091,4.091,0,0,0-.45,1.072.383.383,0,0,1-.37.284h-1.35a5.2,5.2,0,0,0,0,1.516H75a.384.384,0,0,1,.37.284,4.112,4.112,0,0,0,.45,1.073.383.383,0,0,1-.056.468l-.955.956a6.043,6.043,0,0,0,1.072,1.066l.962-.962a.381.381,0,0,1,.462-.061,4.119,4.119,0,0,0,1.067.431.389.389,0,0,1,.29.376v1.332a5.379,5.379,0,0,0,1.51,0v-1.356a.382.382,0,0,1,.284-.37,4.156,4.156,0,0,0,1.035-.438.383.383,0,0,1,.469.056l.955.955a6.082,6.082,0,0,0,1.067-1.072l-.962-.962a.383.383,0,0,1-.062-.462,4.372,4.372,0,0,0,.426-1.024.382.382,0,0,1,.37-.29h1.35v-.012a5.2,5.2,0,0,0,0-1.516Zm-4.377,2.915a2.145,2.145,0,1,1,2.145-2.145A2.145,2.145,0,0,1,79.378,287.029Z"
         class="cls-5" />
      <path
         id="path602"
         d="M79.378,283.51a1.375,1.375,0,1,0,1.374,1.374A1.374,1.374,0,0,0,79.378,283.51Z"
         class="cls-5" />
      <path
         id="path604"
         d="M86.387,281.839a3.235,3.235,0,0,0,.807-.339.382.382,0,0,1,.469.055l.715.715a4.5,4.5,0,0,0,.746-.752L88.4,280.8a.387.387,0,0,1-.062-.468,3.1,3.1,0,0,0,.333-.8.382.382,0,0,1,.37-.283h1.011a3.847,3.847,0,0,0,0-1.061H89.044a.381.381,0,0,1-.37-.283,3.092,3.092,0,0,0-.333-.8.389.389,0,0,1,.062-.469l.721-.715a4.5,4.5,0,0,0-.746-.752l-.715.715a.382.382,0,0,1-.469.055,3.235,3.235,0,0,0-.807-.339.388.388,0,0,1-.284-.376V274.2a4.322,4.322,0,0,0-1.054,0v1.011a.389.389,0,0,1-.3.37,3.055,3.055,0,0,0-.826.339.387.387,0,0,1-.468-.062l-.715-.721a4.5,4.5,0,0,0-.752.746l.715.715a.382.382,0,0,1,.055.469,3.315,3.315,0,0,0-.351.838h0a.33.33,0,0,1-.036.073l1.809,1.076c.538-1.609.917-2.021,2.363-1.275.971,1.333.508,1.831-1.34,2.4l1.01,1.8A.379.379,0,0,1,86.387,281.839Zm-1.181-1.662a.388.388,0,0,1,.336-.434,1.024,1.024,0,1,0-1.023-1.023.389.389,0,0,1-.771,0,1.794,1.794,0,1,1,1.794,1.794A.389.389,0,0,1,85.206,280.177Z"
         class="cls-5" />
      <path
         id="path606"
         d="M85.431,283.355H84.044a5.12,5.12,0,0,0-.271-.665l.986-.987a.383.383,0,0,0,.044-.487,6.57,6.57,0,0,0-1.727-1.72.382.382,0,0,0-.493.044l-.98.98a5.063,5.063,0,0,0-.678-.29v-1.393a.375.375,0,0,0-.308-.376,6.283,6.283,0,0,0-2.429,0,.387.387,0,0,0-.314.382v1.381a5.427,5.427,0,0,0-.709.283l-.987-.986a.382.382,0,0,0-.487-.043,6.574,6.574,0,0,0-1.7,1.707.383.383,0,0,0,.043.494l.98.98a4.989,4.989,0,0,0-.3.715H73.324a.4.4,0,0,0-.382.314,6.7,6.7,0,0,0,0,2.429.4.4,0,0,0,.382.315h1.387a4.989,4.989,0,0,0,.3.715l-.98.961a.382.382,0,0,0-.043.493,6.382,6.382,0,0,0,1.72,1.708.382.382,0,0,0,.487-.043l.986-.986a5.631,5.631,0,0,0,.709.283v1.381a.389.389,0,0,0,.314.382,6.583,6.583,0,0,0,1.172.1,6.3,6.3,0,0,0,1.233-.123.377.377,0,0,0,.308-.376v-1.394a5.058,5.058,0,0,0,.678-.289l.98.98a.383.383,0,0,0,.493.043,6.582,6.582,0,0,0,1.733-1.689.383.383,0,0,0-.044-.487l-.986-.986a5.191,5.191,0,0,0,.271-.666h1.387a.4.4,0,0,0,.383-.315,6.739,6.739,0,0,0,0-2.428A.4.4,0,0,0,85.431,283.355Zm-.326,2.275v.012h-1.35a.382.382,0,0,0-.37.29,4.372,4.372,0,0,1-.426,1.024.383.383,0,0,0,.062.462l.962.962a6.082,6.082,0,0,1-1.067,1.072l-.955-.955a.383.383,0,0,0-.469-.056,4.156,4.156,0,0,1-1.035.438.382.382,0,0,0-.284.37v1.356a5.379,5.379,0,0,1-1.51,0v-1.332a.389.389,0,0,0-.29-.376,4.119,4.119,0,0,1-1.067-.431.381.381,0,0,0-.462.061l-.962.962a6.043,6.043,0,0,1-1.072-1.066l.955-.956a.383.383,0,0,0,.056-.468,4.112,4.112,0,0,1-.45-1.073.384.384,0,0,0-.37-.284h-1.35a5.2,5.2,0,0,1,0-1.516H75a.383.383,0,0,0,.37-.284,4.091,4.091,0,0,1,.45-1.072.384.384,0,0,0-.056-.469l-.955-.955a6.082,6.082,0,0,1,1.072-1.067l.962.962a.383.383,0,0,0,.462.062,4.121,4.121,0,0,1,1.067-.432.388.388,0,0,0,.29-.376v-1.344a5.379,5.379,0,0,1,1.51,0v1.356a.381.381,0,0,0,.284.37,4.156,4.156,0,0,1,1.035.438.383.383,0,0,0,.469-.056l.955-.955a6.054,6.054,0,0,1,1.067,1.073l-.962.961a.384.384,0,0,0-.062.463,4.348,4.348,0,0,1,.426,1.023.382.382,0,0,0,.37.29h1.35A5.2,5.2,0,0,1,85.105,285.63Z"
         class="cls-6" />
      <path
         id="path608"
         d="M79.378,282.739a2.145,2.145,0,1,0,2.145,2.145A2.145,2.145,0,0,0,79.378,282.739Zm0,3.52a1.375,1.375,0,1,1,1.374-1.375A1.375,1.375,0,0,1,79.378,286.259Z"
         class="cls-6" />
      <path
         id="path610"
         d="M86.161,282.34a.389.389,0,0,0,.429.245c.054-.015.106-.035.159-.051l-.533-.556A.383.383,0,0,0,86.161,282.34Z"
         class="cls-6" />
      <path
         id="path612"
         d="M81.665,277.709a.387.387,0,0,0,.277.468.375.375,0,0,0,.432-.2l-.583-.607C81.75,277.485,81.7,277.593,81.665,277.709Z"
         class="cls-6" />
      <path
         id="path614"
         d="M88.07,283.035a.385.385,0,0,0,.271.111.426.426,0,0,0,.222-.068,5.426,5.426,0,0,0,1.387-1.4.389.389,0,0,0-.049-.487l-.752-.752a3.939,3.939,0,0,0,.178-.438h1.061a.383.383,0,0,0,.376-.315,5.315,5.315,0,0,0,0-1.972v.018a.382.382,0,0,0-.376-.314H89.327a3.788,3.788,0,0,0-.178-.438l.752-.727a.389.389,0,0,0,.049-.487,5.429,5.429,0,0,0-1.387-1.424.388.388,0,0,0-.493.043l-.746.746a3.868,3.868,0,0,0-.45-.191V273.88a.377.377,0,0,0-.315-.376,5.16,5.16,0,0,0-1.966,0,.377.377,0,0,0-.314.376v1.042a3.206,3.206,0,0,0-.475.191l-.728-.752a.389.389,0,0,0-.487-.049,5.46,5.46,0,0,0-1.424,1.387.389.389,0,0,0,.044.493l.746.746c-.067.14-.111.289-.164.435l.583.607a.33.33,0,0,0,.036-.073h0a3.315,3.315,0,0,1,.351-.838.382.382,0,0,0-.055-.469l-.715-.715a4.5,4.5,0,0,1,.752-.746l.715.721a.387.387,0,0,0,.468.062,3.055,3.055,0,0,1,.826-.339.389.389,0,0,0,.3-.37V274.2a4.322,4.322,0,0,1,1.054,0v1.023a.388.388,0,0,0,.284.376,3.235,3.235,0,0,1,.807.339.382.382,0,0,0,.469-.055l.715-.715a4.5,4.5,0,0,1,.746.752l-.721.715a.389.389,0,0,0-.062.469,3.092,3.092,0,0,1,.333.8.381.381,0,0,0,.37.283h1.011a3.847,3.847,0,0,1,0,1.061H89.044a.382.382,0,0,0-.37.283,3.1,3.1,0,0,1-.333.8.387.387,0,0,0,.062.468l.721.715a4.5,4.5,0,0,1-.746.752l-.715-.715a.382.382,0,0,0-.469-.055,3.235,3.235,0,0,1-.807.339.379.379,0,0,0-.171.139l.533.556a3.949,3.949,0,0,0,.575-.227Z"
         class="cls-6" />
      <path
         id="path616"
         d="M87.336,278.72a1.794,1.794,0,1,0-3.588,0,.389.389,0,0,0,.771,0,1.024,1.024,0,1,1,1.023,1.023.389.389,0,0,0,0,.771A1.794,1.794,0,0,0,87.336,278.72Z"
         class="cls-6" />
    </g>
  </g>
  <g
     id="g650">
    <g
       id="g628">
      <path
         id="path622"
         d="M350.135,294.979v3.607H349.2v-4.9h1.3l1.345,2.634,1.344-2.634h1.3v4.9h-.96v-3.6l-1.7,3.25Z"
         class="cls-6" />
      <path
         id="path624"
         d="M357.779,298.663a2.529,2.529,0,1,1-.014-5.057,2.626,2.626,0,0,1,2.038.918l-.708.651a1.69,1.69,0,0,0-1.33-.638,1.534,1.534,0,0,0-1.541,1.6,1.556,1.556,0,0,0,1.569,1.6,1.32,1.32,0,0,0,1.359-1.022H357.7v-.883h2.535v.308A2.421,2.421,0,0,1,357.779,298.663Z"
         class="cls-6" />
      <path
         id="path626"
         d="M360.928,293.683h2.395a1.545,1.545,0,0,1,1.694,1.52,1.456,1.456,0,0,1-.959,1.366l1.085,2.017h-1.134l-.959-1.877h-1.107v1.877h-1.015Zm1.015.875v1.317h1.288a.665.665,0,1,0,0-1.317Z"
         class="cls-6" />
    </g>
    <g
       id="g648">
      <path
         id="path630"
         d="M358.908,284.114a.384.384,0,0,1-.37-.29,4.3,4.3,0,0,0-.425-1.023.383.383,0,0,1,.062-.463l.961-.961a6.015,6.015,0,0,0-1.066-1.073l-.956.955a.381.381,0,0,1-.468.056,4.147,4.147,0,0,0-1.036-.438.38.38,0,0,1-.283-.37v-1.356a5.386,5.386,0,0,0-1.511,0V280.5a.388.388,0,0,1-.289.376,4.121,4.121,0,0,0-1.067.432.383.383,0,0,1-.462-.062l-.962-.962a6.088,6.088,0,0,0-1.073,1.067l.956.955a.382.382,0,0,1,.055.469,4.125,4.125,0,0,0-.45,1.072.381.381,0,0,1-.369.284h-1.35a5.2,5.2,0,0,0,0,1.516h1.35a.382.382,0,0,1,.369.284,4.146,4.146,0,0,0,.45,1.073.381.381,0,0,1-.055.468l-.956.956a6.048,6.048,0,0,0,1.073,1.066l.962-.962a.381.381,0,0,1,.462-.061,4.119,4.119,0,0,0,1.067.431.388.388,0,0,1,.289.376v1.332a5.386,5.386,0,0,0,1.511,0v-1.356a.381.381,0,0,1,.283-.37,4.147,4.147,0,0,0,1.036-.438.381.381,0,0,1,.468.056l.956.955a6.043,6.043,0,0,0,1.066-1.072l-.961-.962a.382.382,0,0,1-.062-.462,4.327,4.327,0,0,0,.425-1.024.384.384,0,0,1,.37-.29h1.35v-.012a5.2,5.2,0,0,0,0-1.516Zm-4.377,2.915a2.145,2.145,0,1,1,2.146-2.145A2.145,2.145,0,0,1,354.531,287.029Z"
         class="cls-5" />
      <path
         id="path632"
         d="M354.531,283.51a1.375,1.375,0,1,0,1.375,1.374A1.374,1.374,0,0,0,354.531,283.51Z"
         class="cls-5" />
      <path
         id="path634"
         d="M361.541,281.839a3.235,3.235,0,0,0,.807-.339.383.383,0,0,1,.469.055l.715.715a4.536,4.536,0,0,0,.746-.752l-.722-.715a.387.387,0,0,1-.061-.468,3.1,3.1,0,0,0,.333-.8.381.381,0,0,1,.369-.283h1.011a3.771,3.771,0,0,0,0-1.061H364.2a.38.38,0,0,1-.369-.283,3.092,3.092,0,0,0-.333-.8.389.389,0,0,1,.061-.469l.722-.715a4.536,4.536,0,0,0-.746-.752l-.715.715a.383.383,0,0,1-.469.055,3.235,3.235,0,0,0-.807-.339.388.388,0,0,1-.284-.376V274.2a4.322,4.322,0,0,0-1.054,0v1.011a.39.39,0,0,1-.3.37,3.042,3.042,0,0,0-.826.339.389.389,0,0,1-.469-.062l-.715-.721a4.536,4.536,0,0,0-.752.746l.715.715a.384.384,0,0,1,.056.469,3.355,3.355,0,0,0-.352.838h0a.381.381,0,0,1-.036.073l1.808,1.076c.539-1.609.918-2.021,2.363-1.275.971,1.333.509,1.831-1.339,2.4l1.01,1.8A.374.374,0,0,1,361.541,281.839Zm-1.181-1.662a.388.388,0,0,1,.336-.434,1.024,1.024,0,1,0-1.023-1.023.389.389,0,0,1-.771,0,1.794,1.794,0,1,1,1.794,1.794A.388.388,0,0,1,360.36,280.177Z"
         class="cls-5" />
      <path
         id="path636"
         d="M360.585,283.355H359.2a5.265,5.265,0,0,0-.271-.665l.986-.987a.382.382,0,0,0,.043-.487,6.566,6.566,0,0,0-1.726-1.72.382.382,0,0,0-.493.044l-.98.98a5.119,5.119,0,0,0-.678-.29v-1.393a.376.376,0,0,0-.309-.376,6.278,6.278,0,0,0-2.428,0,.389.389,0,0,0-.315.382v1.381a5.541,5.541,0,0,0-.709.283l-.986-.986a.382.382,0,0,0-.487-.043,6.543,6.543,0,0,0-1.7,1.707.382.382,0,0,0,.043.494l.98.98a4.772,4.772,0,0,0-.3.715h-1.387a.394.394,0,0,0-.382.314,6.7,6.7,0,0,0,0,2.429.394.394,0,0,0,.382.315h1.387a4.772,4.772,0,0,0,.3.715l-.98.961a.381.381,0,0,0-.043.493,6.368,6.368,0,0,0,1.72,1.708.381.381,0,0,0,.486-.043l.987-.986a5.571,5.571,0,0,0,.709.283v1.381a.387.387,0,0,0,.314.382,6.58,6.58,0,0,0,1.171.1,6.3,6.3,0,0,0,1.233-.123.377.377,0,0,0,.309-.376v-1.394a5.114,5.114,0,0,0,.678-.289l.98.98a.383.383,0,0,0,.493.043,6.578,6.578,0,0,0,1.732-1.689.382.382,0,0,0-.043-.487l-.986-.986a5.34,5.34,0,0,0,.271-.666h1.387a.394.394,0,0,0,.382-.315,6.694,6.694,0,0,0,0-2.428A.4.4,0,0,0,360.585,283.355Zm-.327,2.275v.012h-1.35a.384.384,0,0,0-.37.29,4.327,4.327,0,0,1-.425,1.024.382.382,0,0,0,.062.462l.961.962a6.043,6.043,0,0,1-1.066,1.072l-.956-.955a.381.381,0,0,0-.468-.056,4.147,4.147,0,0,1-1.036.438.381.381,0,0,0-.283.37v1.356a5.386,5.386,0,0,1-1.511,0v-1.332a.388.388,0,0,0-.289-.376,4.119,4.119,0,0,1-1.067-.431.381.381,0,0,0-.462.061l-.962.962a6.048,6.048,0,0,1-1.073-1.066l.956-.956a.381.381,0,0,0,.055-.468,4.146,4.146,0,0,1-.45-1.073.382.382,0,0,0-.369-.284h-1.35a5.2,5.2,0,0,1,0-1.516h1.35a.381.381,0,0,0,.369-.284,4.125,4.125,0,0,1,.45-1.072.382.382,0,0,0-.055-.469l-.956-.955a6.088,6.088,0,0,1,1.073-1.067l.962.962a.383.383,0,0,0,.462.062,4.121,4.121,0,0,1,1.067-.432.388.388,0,0,0,.289-.376v-1.344a5.386,5.386,0,0,1,1.511,0v1.356a.38.38,0,0,0,.283.37,4.147,4.147,0,0,1,1.036.438.381.381,0,0,0,.468-.056l.956-.955a6.015,6.015,0,0,1,1.066,1.073l-.961.961a.383.383,0,0,0-.062.463,4.3,4.3,0,0,1,.425,1.023.384.384,0,0,0,.37.29h1.35A5.2,5.2,0,0,1,360.258,285.63Z"
         class="cls-6" />
      <path
         id="path638"
         d="M354.531,282.739a2.145,2.145,0,1,0,2.146,2.145A2.145,2.145,0,0,0,354.531,282.739Zm0,3.52a1.375,1.375,0,1,1,1.375-1.375A1.375,1.375,0,0,1,354.531,286.259Z"
         class="cls-6" />
      <path
         id="path640"
         d="M361.315,282.34a.389.389,0,0,0,.429.245c.054-.015.106-.035.159-.051l-.533-.556A.383.383,0,0,0,361.315,282.34Z"
         class="cls-6" />
      <path
         id="path642"
         d="M356.818,277.709a.389.389,0,0,0,.278.468.376.376,0,0,0,.432-.2l-.583-.607C356.9,277.485,356.851,277.593,356.818,277.709Z"
         class="cls-6" />
      <path
         id="path644"
         d="M363.223,283.035a.389.389,0,0,0,.272.111.429.429,0,0,0,.222-.068,5.458,5.458,0,0,0,1.387-1.4.389.389,0,0,0-.05-.487l-.752-.752a3.945,3.945,0,0,0,.179-.438h1.06a.382.382,0,0,0,.376-.315,5.273,5.273,0,0,0,0-1.972v.018a.381.381,0,0,0-.376-.314h-1.06a3.794,3.794,0,0,0-.179-.438l.752-.727a.389.389,0,0,0,.05-.487,5.445,5.445,0,0,0-1.387-1.424.389.389,0,0,0-.494.043l-.745.746a4.02,4.02,0,0,0-.45-.191V273.88a.378.378,0,0,0-.315-.376,5.16,5.16,0,0,0-1.966,0,.377.377,0,0,0-.315.376v1.042a3.194,3.194,0,0,0-.474.191l-.728-.752a.389.389,0,0,0-.487-.049,5.445,5.445,0,0,0-1.424,1.387.388.388,0,0,0,.043.493l.746.746c-.067.14-.11.289-.163.435l.583.607a.381.381,0,0,0,.036-.073h0a3.355,3.355,0,0,1,.352-.838.384.384,0,0,0-.056-.469l-.715-.715a4.536,4.536,0,0,1,.752-.746l.715.721a.389.389,0,0,0,.469.062,3.042,3.042,0,0,1,.826-.339.39.39,0,0,0,.3-.37V274.2a4.322,4.322,0,0,1,1.054,0v1.023a.388.388,0,0,0,.284.376,3.235,3.235,0,0,1,.807.339.383.383,0,0,0,.469-.055l.715-.715a4.536,4.536,0,0,1,.746.752l-.722.715a.389.389,0,0,0-.061.469,3.092,3.092,0,0,1,.333.8.38.38,0,0,0,.369.283h1.011a3.771,3.771,0,0,1,0,1.061H364.2a.381.381,0,0,0-.369.283,3.1,3.1,0,0,1-.333.8.387.387,0,0,0,.061.468l.722.715a4.536,4.536,0,0,1-.746.752l-.715-.715a.383.383,0,0,0-.469-.055,3.235,3.235,0,0,1-.807.339.374.374,0,0,0-.171.139l.533.556a3.949,3.949,0,0,0,.575-.227Z"
         class="cls-6" />
      <path
         id="path646"
         d="M362.49,278.72a1.794,1.794,0,1,0-3.588,0,.389.389,0,0,0,.771,0,1.023,1.023,0,1,1,1.023,1.023.389.389,0,0,0,0,.771A1.794,1.794,0,0,0,362.49,278.72Z"
         class="cls-6" />
    </g>
  </g>
  <g
     id="g680">
    <g
       id="g658">
      <path
         id="path652"
         d="M507.366,294.979v3.607h-.938v-4.9h1.3l1.345,2.634,1.345-2.634h1.3v4.9h-.96v-3.6l-1.7,3.25Z"
         class="cls-6" />
      <path
         id="path654"
         d="M515.011,298.663a2.529,2.529,0,1,1-.014-5.057,2.629,2.629,0,0,1,2.038.918l-.708.651a1.692,1.692,0,0,0-1.33-.638,1.533,1.533,0,0,0-1.541,1.6,1.556,1.556,0,0,0,1.568,1.6,1.321,1.321,0,0,0,1.36-1.022h-1.451v-.883h2.536v.308A2.421,2.421,0,0,1,515.011,298.663Z"
         class="cls-6" />
      <path
         id="path656"
         d="M518.159,293.683h2.395a1.545,1.545,0,0,1,1.7,1.52,1.456,1.456,0,0,1-.959,1.366l1.085,2.017H521.24l-.959-1.877h-1.106v1.877h-1.016Zm1.016.875v1.317h1.288a.665.665,0,1,0,0-1.317Z"
         class="cls-6" />
    </g>
    <g
       id="g678">
      <path
         id="path660"
         d="M516.139,284.114a.383.383,0,0,1-.37-.29,4.387,4.387,0,0,0-.425-1.023.383.383,0,0,1,.061-.463l.962-.961A6.049,6.049,0,0,0,515.3,280.3l-.956.955a.381.381,0,0,1-.468.056,4.163,4.163,0,0,0-1.036-.438.381.381,0,0,1-.284-.37v-1.356a5.379,5.379,0,0,0-1.51,0V280.5a.388.388,0,0,1-.29.376,4.1,4.1,0,0,0-1.066.432.385.385,0,0,1-.463-.062l-.961-.962a6.088,6.088,0,0,0-1.073,1.067l.956.955a.382.382,0,0,1,.055.469,4.125,4.125,0,0,0-.45,1.072.382.382,0,0,1-.37.284h-1.35a5.2,5.2,0,0,0,0,1.516h1.35a.383.383,0,0,1,.37.284,4.146,4.146,0,0,0,.45,1.073.381.381,0,0,1-.055.468l-.956.956a6.048,6.048,0,0,0,1.073,1.066l.961-.962a.383.383,0,0,1,.463-.061,4.1,4.1,0,0,0,1.066.431.389.389,0,0,1,.29.376v1.332a5.379,5.379,0,0,0,1.51,0v-1.356a.382.382,0,0,1,.284-.37,4.163,4.163,0,0,0,1.036-.438.381.381,0,0,1,.468.056l.956.955a6.043,6.043,0,0,0,1.066-1.072l-.962-.962a.381.381,0,0,1-.061-.462,4.412,4.412,0,0,0,.425-1.024.383.383,0,0,1,.37-.29h1.35v-.012a5.2,5.2,0,0,0,0-1.516Zm-4.377,2.915a2.145,2.145,0,1,1,2.145-2.145A2.145,2.145,0,0,1,511.762,287.029Z"
         class="cls-5" />
      <path
         id="path662"
         d="M511.762,283.51a1.375,1.375,0,1,0,1.375,1.374A1.375,1.375,0,0,0,511.762,283.51Z"
         class="cls-5" />
      <path
         id="path664"
         d="M518.771,281.839a3.242,3.242,0,0,0,.808-.339.381.381,0,0,1,.468.055l.715.715a4.46,4.46,0,0,0,.746-.752l-.721-.715a.389.389,0,0,1-.062-.468,3.03,3.03,0,0,0,.333-.8.383.383,0,0,1,.37-.283h1.011a3.847,3.847,0,0,0,0-1.061h-1.011a.382.382,0,0,1-.37-.283,3.024,3.024,0,0,0-.333-.8.39.39,0,0,1,.062-.469l.721-.715a4.46,4.46,0,0,0-.746-.752l-.715.715a.381.381,0,0,1-.468.055,3.242,3.242,0,0,0-.808-.339.388.388,0,0,1-.283-.376V274.2a4.33,4.33,0,0,0-1.055,0v1.011a.388.388,0,0,1-.295.37,3.042,3.042,0,0,0-.826.339.389.389,0,0,1-.469-.062l-.715-.721a4.536,4.536,0,0,0-.752.746l.715.715a.382.382,0,0,1,.055.469,3.39,3.39,0,0,0-.351.838h0a.45.45,0,0,1-.036.073l1.808,1.076c.538-1.609.917-2.021,2.363-1.275.971,1.333.508,1.831-1.34,2.4l1.01,1.8A.379.379,0,0,1,518.771,281.839Zm-1.181-1.662a.388.388,0,0,1,.337-.434,1.024,1.024,0,1,0-1.024-1.023.388.388,0,0,1-.77,0,1.794,1.794,0,1,1,1.794,1.794A.389.389,0,0,1,517.59,280.177Z"
         class="cls-5" />
      <path
         id="path666"
         d="M517.816,283.355h-1.387a5.125,5.125,0,0,0-.272-.665l.987-.987a.382.382,0,0,0,.043-.487,6.581,6.581,0,0,0-1.726-1.72.382.382,0,0,0-.493.044l-.98.98a5.076,5.076,0,0,0-.679-.29v-1.393a.375.375,0,0,0-.308-.376,6.283,6.283,0,0,0-2.429,0,.388.388,0,0,0-.314.382v1.381a5.427,5.427,0,0,0-.709.283l-.986-.986a.382.382,0,0,0-.487-.043,6.562,6.562,0,0,0-1.7,1.707.384.384,0,0,0,.043.494l.981.98a4.772,4.772,0,0,0-.3.715h-1.387a.4.4,0,0,0-.383.314,6.7,6.7,0,0,0,0,2.429.4.4,0,0,0,.383.315H507.1a4.772,4.772,0,0,0,.3.715l-.981.961a.383.383,0,0,0-.043.493,6.382,6.382,0,0,0,1.72,1.708.382.382,0,0,0,.487-.043l.987-.986a5.617,5.617,0,0,0,.708.283v1.381a.389.389,0,0,0,.315.382,6.563,6.563,0,0,0,1.171.1,6.3,6.3,0,0,0,1.233-.123.376.376,0,0,0,.308-.376v-1.394a5,5,0,0,0,.678-.289l.981.98a.383.383,0,0,0,.493.043,6.578,6.578,0,0,0,1.732-1.689.382.382,0,0,0-.043-.487l-.987-.986a5.2,5.2,0,0,0,.272-.666h1.387a.4.4,0,0,0,.382-.315,6.694,6.694,0,0,0,0-2.428A.4.4,0,0,0,517.816,283.355Zm-.327,2.275v.012h-1.35a.383.383,0,0,0-.37.29,4.412,4.412,0,0,1-.425,1.024.381.381,0,0,0,.061.462l.962.962a6.043,6.043,0,0,1-1.066,1.072l-.956-.955a.381.381,0,0,0-.468-.056,4.163,4.163,0,0,1-1.036.438.382.382,0,0,0-.284.37v1.356a5.379,5.379,0,0,1-1.51,0v-1.332a.389.389,0,0,0-.29-.376,4.1,4.1,0,0,1-1.066-.431.383.383,0,0,0-.463.061l-.961.962a6.048,6.048,0,0,1-1.073-1.066l.956-.956a.381.381,0,0,0,.055-.468,4.146,4.146,0,0,1-.45-1.073.383.383,0,0,0-.37-.284h-1.35a5.2,5.2,0,0,1,0-1.516h1.35a.382.382,0,0,0,.37-.284,4.125,4.125,0,0,1,.45-1.072.382.382,0,0,0-.055-.469l-.956-.955a6.088,6.088,0,0,1,1.073-1.067l.961.962a.385.385,0,0,0,.463.062,4.1,4.1,0,0,1,1.066-.432.388.388,0,0,0,.29-.376v-1.344a5.379,5.379,0,0,1,1.51,0v1.356a.381.381,0,0,0,.284.37,4.163,4.163,0,0,1,1.036.438.381.381,0,0,0,.468-.056l.956-.955a6.049,6.049,0,0,1,1.066,1.073l-.962.961a.383.383,0,0,0-.061.463,4.387,4.387,0,0,1,.425,1.023.383.383,0,0,0,.37.29h1.35A5.2,5.2,0,0,1,517.489,285.63Z"
         class="cls-6" />
      <path
         id="path668"
         d="M511.762,282.739a2.145,2.145,0,1,0,2.145,2.145A2.145,2.145,0,0,0,511.762,282.739Zm0,3.52a1.375,1.375,0,1,1,1.375-1.375A1.376,1.376,0,0,1,511.762,286.259Z"
         class="cls-6" />
      <path
         id="path670"
         d="M518.546,282.34a.388.388,0,0,0,.429.245c.054-.015.106-.035.159-.051l-.534-.556A.383.383,0,0,0,518.546,282.34Z"
         class="cls-6" />
      <path
         id="path672"
         d="M514.049,277.709a.388.388,0,0,0,.278.468.376.376,0,0,0,.432-.2l-.584-.607C514.135,277.485,514.082,277.593,514.049,277.709Z"
         class="cls-6" />
      <path
         id="path674"
         d="M520.454,283.035a.387.387,0,0,0,.271.111.426.426,0,0,0,.222-.068,5.426,5.426,0,0,0,1.387-1.4.387.387,0,0,0-.049-.487l-.752-.752a3.945,3.945,0,0,0,.179-.438h1.06a.383.383,0,0,0,.376-.315,5.315,5.315,0,0,0,0-1.972v.018a.382.382,0,0,0-.376-.314h-1.06a3.981,3.981,0,0,0-.179-.438l.752-.727a.388.388,0,0,0,.049-.487,5.429,5.429,0,0,0-1.387-1.424.388.388,0,0,0-.493.043l-.746.746a3.868,3.868,0,0,0-.45-.191V273.88a.377.377,0,0,0-.314-.376,5.165,5.165,0,0,0-1.967,0,.377.377,0,0,0-.314.376v1.042a3.25,3.25,0,0,0-.475.191l-.727-.752a.389.389,0,0,0-.487-.049,5.429,5.429,0,0,0-1.424,1.387.388.388,0,0,0,.043.493l.746.746c-.067.14-.111.289-.164.435l.584.607a.45.45,0,0,0,.036-.073h0a3.39,3.39,0,0,1,.351-.838.382.382,0,0,0-.055-.469l-.715-.715a4.536,4.536,0,0,1,.752-.746l.715.721a.389.389,0,0,0,.469.062,3.042,3.042,0,0,1,.826-.339.388.388,0,0,0,.295-.37V274.2a4.33,4.33,0,0,1,1.055,0v1.023a.388.388,0,0,0,.283.376,3.242,3.242,0,0,1,.808.339.381.381,0,0,0,.468-.055l.715-.715a4.46,4.46,0,0,1,.746.752l-.721.715a.39.39,0,0,0-.062.469,3.024,3.024,0,0,1,.333.8.382.382,0,0,0,.37.283h1.011a3.847,3.847,0,0,1,0,1.061h-1.011a.383.383,0,0,0-.37.283,3.03,3.03,0,0,1-.333.8.389.389,0,0,0,.062.468l.721.715a4.46,4.46,0,0,1-.746.752l-.715-.715a.381.381,0,0,0-.468-.055,3.242,3.242,0,0,1-.808.339.379.379,0,0,0-.171.139l.534.556a3.937,3.937,0,0,0,.574-.227Z"
         class="cls-6" />
      <path
         id="path676"
         d="M519.721,278.72a1.794,1.794,0,1,0-3.588,0,.388.388,0,0,0,.77,0,1.024,1.024,0,1,1,1.024,1.023.389.389,0,0,0,0,.771A1.8,1.8,0,0,0,519.721,278.72Z"
         class="cls-6" />
    </g>
  </g>
  <g
     id="g688">
    <path
       id="path682"
       d="M192.9,294.979v3.607h-.938v-4.9h1.3l1.345,2.634,1.345-2.634h1.3v4.9h-.96v-3.6l-1.7,3.25Z"
       class="cls-6" />
    <path
       id="path684"
       d="M200.549,298.663a2.529,2.529,0,1,1-.014-5.057,2.629,2.629,0,0,1,2.038.918l-.708.651a1.692,1.692,0,0,0-1.33-.638,1.533,1.533,0,0,0-1.541,1.6,1.556,1.556,0,0,0,1.568,1.6,1.32,1.32,0,0,0,1.36-1.022h-1.451v-.883h2.536v.308A2.421,2.421,0,0,1,200.549,298.663Z"
       class="cls-6" />
    <path
       id="path686"
       d="M203.7,293.683h2.4a1.545,1.545,0,0,1,1.694,1.52,1.456,1.456,0,0,1-.959,1.366l1.085,2.017h-1.135l-.959-1.877h-1.106v1.877H203.7Zm1.016.875v1.317H206a.665.665,0,1,0,0-1.317Z"
       class="cls-6" />
  </g>
  <g
     id="g708">
    <path
       id="path690"
       d="M201.678,284.114a.382.382,0,0,1-.37-.29,4.348,4.348,0,0,0-.426-1.023.384.384,0,0,1,.062-.463l.962-.961a6.054,6.054,0,0,0-1.067-1.073l-.955.955a.383.383,0,0,1-.469.056,4.156,4.156,0,0,0-1.035-.438.381.381,0,0,1-.284-.37v-1.356a5.379,5.379,0,0,0-1.51,0V280.5a.388.388,0,0,1-.29.376,4.121,4.121,0,0,0-1.067.432.383.383,0,0,1-.462-.062l-.962-.962a6.082,6.082,0,0,0-1.072,1.067l.955.955a.384.384,0,0,1,.056.469,4.091,4.091,0,0,0-.45,1.072.383.383,0,0,1-.37.284h-1.35a5.2,5.2,0,0,0,0,1.516h1.35a.384.384,0,0,1,.37.284,4.112,4.112,0,0,0,.45,1.073.383.383,0,0,1-.056.468l-.955.956a6.043,6.043,0,0,0,1.072,1.066l.962-.962a.381.381,0,0,1,.462-.061,4.119,4.119,0,0,0,1.067.431.389.389,0,0,1,.29.376v1.332a5.379,5.379,0,0,0,1.51,0v-1.356a.382.382,0,0,1,.284-.37,4.156,4.156,0,0,0,1.035-.438.383.383,0,0,1,.469.056l.955.955a6.082,6.082,0,0,0,1.067-1.072l-.962-.962a.383.383,0,0,1-.062-.462,4.372,4.372,0,0,0,.426-1.024.382.382,0,0,1,.37-.29h1.35v-.012a5.2,5.2,0,0,0,0-1.516Zm-4.377,2.915a2.145,2.145,0,1,1,2.145-2.145A2.145,2.145,0,0,1,197.3,287.029Z"
       class="cls-5" />
    <path
       id="path692"
       d="M197.3,283.51a1.375,1.375,0,1,0,1.374,1.374A1.375,1.375,0,0,0,197.3,283.51Z"
       class="cls-5" />
    <path
       id="path694"
       d="M204.31,281.839a3.235,3.235,0,0,0,.807-.339.382.382,0,0,1,.469.055l.715.715a4.5,4.5,0,0,0,.746-.752l-.721-.715a.387.387,0,0,1-.062-.468,3.1,3.1,0,0,0,.333-.8.382.382,0,0,1,.37-.283h1.011a3.847,3.847,0,0,0,0-1.061h-1.011a.381.381,0,0,1-.37-.283,3.092,3.092,0,0,0-.333-.8.389.389,0,0,1,.062-.469l.721-.715a4.5,4.5,0,0,0-.746-.752l-.715.715a.382.382,0,0,1-.469.055,3.235,3.235,0,0,0-.807-.339.388.388,0,0,1-.284-.376V274.2a4.322,4.322,0,0,0-1.054,0v1.011a.389.389,0,0,1-.3.37,3.055,3.055,0,0,0-.826.339.387.387,0,0,1-.468-.062l-.715-.721a4.5,4.5,0,0,0-.752.746l.715.715a.382.382,0,0,1,.055.469,3.315,3.315,0,0,0-.351.838h0a.33.33,0,0,1-.036.073l1.809,1.076c.538-1.609.917-2.021,2.363-1.275.971,1.333.508,1.831-1.34,2.4l1.01,1.8A.379.379,0,0,1,204.31,281.839Zm-1.181-1.662a.388.388,0,0,1,.336-.434,1.024,1.024,0,1,0-1.023-1.023.389.389,0,0,1-.771,0,1.794,1.794,0,1,1,1.794,1.794A.389.389,0,0,1,203.129,280.177Z"
       class="cls-5" />
    <path
       id="path696"
       d="M203.354,283.355h-1.387a5.12,5.12,0,0,0-.271-.665l.986-.987a.383.383,0,0,0,.044-.487A6.57,6.57,0,0,0,201,279.5a.382.382,0,0,0-.493.044l-.98.98a5.063,5.063,0,0,0-.678-.29v-1.393a.375.375,0,0,0-.308-.376,6.283,6.283,0,0,0-2.429,0,.387.387,0,0,0-.314.382v1.381a5.427,5.427,0,0,0-.709.283l-.987-.986a.382.382,0,0,0-.487-.043,6.574,6.574,0,0,0-1.7,1.707.383.383,0,0,0,.043.494l.98.98a4.989,4.989,0,0,0-.3.715h-1.387a.4.4,0,0,0-.382.314,6.7,6.7,0,0,0,0,2.429.4.4,0,0,0,.382.315h1.387a4.989,4.989,0,0,0,.3.715l-.98.961a.382.382,0,0,0-.043.493,6.382,6.382,0,0,0,1.72,1.708.382.382,0,0,0,.487-.043l.986-.986a5.631,5.631,0,0,0,.709.283v1.381a.389.389,0,0,0,.314.382,6.583,6.583,0,0,0,1.172.1,6.3,6.3,0,0,0,1.233-.123.377.377,0,0,0,.308-.376v-1.394a5.058,5.058,0,0,0,.678-.289l.98.98a.383.383,0,0,0,.493.043,6.582,6.582,0,0,0,1.733-1.689.383.383,0,0,0-.044-.487l-.986-.986a5.191,5.191,0,0,0,.271-.666h1.387a.4.4,0,0,0,.383-.315,6.694,6.694,0,0,0,0-2.428A.4.4,0,0,0,203.354,283.355Zm-.326,2.275v.012h-1.35a.382.382,0,0,0-.37.29,4.372,4.372,0,0,1-.426,1.024.383.383,0,0,0,.062.462l.962.962a6.082,6.082,0,0,1-1.067,1.072l-.955-.955a.383.383,0,0,0-.469-.056,4.156,4.156,0,0,1-1.035.438.382.382,0,0,0-.284.37v1.356a5.379,5.379,0,0,1-1.51,0v-1.332a.389.389,0,0,0-.29-.376,4.119,4.119,0,0,1-1.067-.431.381.381,0,0,0-.462.061l-.962.962a6.043,6.043,0,0,1-1.072-1.066l.955-.956a.383.383,0,0,0,.056-.468,4.112,4.112,0,0,1-.45-1.073.384.384,0,0,0-.37-.284h-1.35a5.2,5.2,0,0,1,0-1.516h1.35a.383.383,0,0,0,.37-.284,4.091,4.091,0,0,1,.45-1.072.384.384,0,0,0-.056-.469l-.955-.955a6.082,6.082,0,0,1,1.072-1.067l.962.962a.383.383,0,0,0,.462.062,4.121,4.121,0,0,1,1.067-.432.388.388,0,0,0,.29-.376v-1.344a5.379,5.379,0,0,1,1.51,0v1.356a.381.381,0,0,0,.284.37,4.156,4.156,0,0,1,1.035.438.383.383,0,0,0,.469-.056l.955-.955a6.054,6.054,0,0,1,1.067,1.073l-.962.961a.384.384,0,0,0-.062.463,4.348,4.348,0,0,1,.426,1.023.382.382,0,0,0,.37.29h1.35A5.2,5.2,0,0,1,203.028,285.63Z"
       class="cls-6" />
    <path
       id="path698"
       d="M197.3,282.739a2.145,2.145,0,1,0,2.145,2.145A2.145,2.145,0,0,0,197.3,282.739Zm0,3.52a1.375,1.375,0,1,1,1.374-1.375A1.376,1.376,0,0,1,197.3,286.259Z"
       class="cls-6" />
    <path
       id="path700"
       d="M204.084,282.34a.389.389,0,0,0,.429.245c.054-.015.106-.035.159-.051l-.533-.556A.383.383,0,0,0,204.084,282.34Z"
       class="cls-6" />
    <path
       id="path702"
       d="M199.588,277.709a.387.387,0,0,0,.277.468.375.375,0,0,0,.432-.2l-.583-.607C199.673,277.485,199.62,277.593,199.588,277.709Z"
       class="cls-6" />
    <path
       id="path704"
       d="M205.993,283.035a.385.385,0,0,0,.271.111.426.426,0,0,0,.222-.068,5.426,5.426,0,0,0,1.387-1.4.389.389,0,0,0-.049-.487l-.752-.752a3.939,3.939,0,0,0,.178-.438h1.061a.383.383,0,0,0,.376-.315,5.315,5.315,0,0,0,0-1.972v.018a.382.382,0,0,0-.376-.314H207.25a3.788,3.788,0,0,0-.178-.438l.752-.727a.389.389,0,0,0,.049-.487,5.429,5.429,0,0,0-1.387-1.424.388.388,0,0,0-.493.043l-.746.746a3.868,3.868,0,0,0-.45-.191V273.88a.377.377,0,0,0-.315-.376,5.16,5.16,0,0,0-1.966,0,.377.377,0,0,0-.314.376v1.042a3.206,3.206,0,0,0-.475.191l-.728-.752a.389.389,0,0,0-.487-.049,5.46,5.46,0,0,0-1.424,1.387.389.389,0,0,0,.044.493l.746.746c-.067.14-.111.289-.164.435l.583.607a.33.33,0,0,0,.036-.073h0a3.315,3.315,0,0,1,.351-.838.382.382,0,0,0-.055-.469l-.715-.715a4.5,4.5,0,0,1,.752-.746l.715.721a.387.387,0,0,0,.468.062,3.055,3.055,0,0,1,.826-.339.389.389,0,0,0,.3-.37V274.2a4.322,4.322,0,0,1,1.054,0v1.023a.388.388,0,0,0,.284.376,3.235,3.235,0,0,1,.807.339.382.382,0,0,0,.469-.055l.715-.715a4.5,4.5,0,0,1,.746.752l-.721.715a.389.389,0,0,0-.062.469,3.092,3.092,0,0,1,.333.8.381.381,0,0,0,.37.283h1.011a3.847,3.847,0,0,1,0,1.061h-1.011a.382.382,0,0,0-.37.283,3.1,3.1,0,0,1-.333.8.387.387,0,0,0,.062.468l.721.715a4.5,4.5,0,0,1-.746.752l-.715-.715a.382.382,0,0,0-.469-.055,3.235,3.235,0,0,1-.807.339.379.379,0,0,0-.171.139l.533.556a3.949,3.949,0,0,0,.575-.227Z"
       class="cls-6" />
    <path
       id="path706"
       d="M205.259,278.72a1.794,1.794,0,0,0-3.588,0,.389.389,0,0,0,.771,0,1.024,1.024,0,1,1,1.023,1.023.389.389,0,0,0,0,.771A1.794,1.794,0,0,0,205.259,278.72Z"
       class="cls-6" />
  </g>
  <g
     id="g716">
    <path
       id="path710"
       d="M232.212,294.979v3.607h-.939v-4.9h1.3l1.345,2.634,1.344-2.634h1.3v4.9h-.96v-3.6l-1.7,3.25Z"
       class="cls-6" />
    <path
       id="path712"
       d="M239.856,298.663a2.529,2.529,0,1,1-.013-5.057,2.629,2.629,0,0,1,2.038.918l-.708.651a1.692,1.692,0,0,0-1.33-.638,1.533,1.533,0,0,0-1.541,1.6,1.556,1.556,0,0,0,1.568,1.6,1.32,1.32,0,0,0,1.359-1.022h-1.45v-.883h2.535v.308A2.421,2.421,0,0,1,239.856,298.663Z"
       class="cls-6" />
    <path
       id="path714"
       d="M243.005,293.683h2.4a1.545,1.545,0,0,1,1.694,1.52,1.456,1.456,0,0,1-.958,1.366l1.084,2.017h-1.134l-.959-1.877H244.02v1.877h-1.015Zm1.015.875v1.317h1.288a.665.665,0,1,0,0-1.317Z"
       class="cls-6" />
  </g>
  <g
     id="g736">
    <path
       id="path718"
       d="M240.985,284.114a.382.382,0,0,1-.369-.29,4.348,4.348,0,0,0-.426-1.023.383.383,0,0,1,.062-.463l.961-.961a6.015,6.015,0,0,0-1.066-1.073l-.956.955a.381.381,0,0,1-.468.056,4.147,4.147,0,0,0-1.036-.438.38.38,0,0,1-.283-.37v-1.356a5.386,5.386,0,0,0-1.511,0V280.5a.386.386,0,0,1-.289.376,4.121,4.121,0,0,0-1.067.432.383.383,0,0,1-.462-.062l-.962-.962a6.082,6.082,0,0,0-1.072,1.067l.955.955a.384.384,0,0,1,.056.469,4.091,4.091,0,0,0-.45,1.072.383.383,0,0,1-.37.284h-1.35a5.2,5.2,0,0,0,0,1.516h1.35a.384.384,0,0,1,.37.284,4.112,4.112,0,0,0,.45,1.073.383.383,0,0,1-.056.468l-.955.956a6.043,6.043,0,0,0,1.072,1.066l.962-.962a.381.381,0,0,1,.462-.061,4.119,4.119,0,0,0,1.067.431.387.387,0,0,1,.289.376v1.332a5.386,5.386,0,0,0,1.511,0v-1.356a.381.381,0,0,1,.283-.37,4.147,4.147,0,0,0,1.036-.438.383.383,0,0,1,.469.056l.955.955a6.043,6.043,0,0,0,1.066-1.072l-.961-.962a.382.382,0,0,1-.062-.462,4.372,4.372,0,0,0,.426-1.024.382.382,0,0,1,.369-.29h1.35v-.012a5.2,5.2,0,0,0,0-1.516Zm-4.376,2.915a2.145,2.145,0,1,1,2.145-2.145A2.145,2.145,0,0,1,236.609,287.029Z"
       class="cls-5" />
    <path
       id="path720"
       d="M236.609,283.51a1.375,1.375,0,1,0,1.374,1.374A1.374,1.374,0,0,0,236.609,283.51Z"
       class="cls-5" />
    <path
       id="path722"
       d="M243.618,281.839a3.235,3.235,0,0,0,.807-.339.382.382,0,0,1,.469.055l.715.715a4.536,4.536,0,0,0,.746-.752l-.722-.715a.387.387,0,0,1-.061-.468,3.1,3.1,0,0,0,.333-.8.381.381,0,0,1,.37-.283h1.011a3.847,3.847,0,0,0,0-1.061h-1.011a.38.38,0,0,1-.37-.283,3.092,3.092,0,0,0-.333-.8.389.389,0,0,1,.061-.469l.722-.715a4.536,4.536,0,0,0-.746-.752l-.715.715a.382.382,0,0,1-.469.055,3.235,3.235,0,0,0-.807-.339.388.388,0,0,1-.284-.376V274.2a4.322,4.322,0,0,0-1.054,0v1.011a.389.389,0,0,1-.3.37,3.042,3.042,0,0,0-.826.339.387.387,0,0,1-.468-.062l-.716-.721a4.536,4.536,0,0,0-.752.746l.715.715a.383.383,0,0,1,.056.469,3.315,3.315,0,0,0-.351.838h0a.33.33,0,0,1-.036.073l1.808,1.076c.539-1.609.918-2.021,2.364-1.275.97,1.333.508,1.831-1.34,2.4l1.01,1.8A.379.379,0,0,1,243.618,281.839Zm-1.181-1.662a.388.388,0,0,1,.336-.434,1.024,1.024,0,1,0-1.023-1.023.389.389,0,0,1-.771,0,1.794,1.794,0,1,1,1.794,1.794A.388.388,0,0,1,242.437,280.177Z"
       class="cls-5" />
    <path
       id="path724"
       d="M242.662,283.355h-1.387a5.12,5.12,0,0,0-.271-.665l.986-.987a.382.382,0,0,0,.043-.487,6.566,6.566,0,0,0-1.726-1.72.382.382,0,0,0-.493.044l-.98.98a5.063,5.063,0,0,0-.678-.29v-1.393a.376.376,0,0,0-.308-.376,6.283,6.283,0,0,0-2.429,0,.389.389,0,0,0-.315.382v1.381a5.541,5.541,0,0,0-.709.283l-.986-.986a.382.382,0,0,0-.487-.043,6.558,6.558,0,0,0-1.7,1.707.383.383,0,0,0,.043.494l.98.98a4.772,4.772,0,0,0-.3.715h-1.387a.394.394,0,0,0-.382.314,6.7,6.7,0,0,0,0,2.429.394.394,0,0,0,.382.315h1.387a4.772,4.772,0,0,0,.3.715l-.98.961a.382.382,0,0,0-.043.493,6.382,6.382,0,0,0,1.72,1.708.382.382,0,0,0,.487-.043l.986-.986a5.571,5.571,0,0,0,.709.283v1.381a.387.387,0,0,0,.314.382,6.583,6.583,0,0,0,1.172.1,6.286,6.286,0,0,0,1.232-.123.377.377,0,0,0,.309-.376v-1.394a5.114,5.114,0,0,0,.678-.289l.98.98a.383.383,0,0,0,.493.043,6.563,6.563,0,0,0,1.732-1.689.382.382,0,0,0-.043-.487L241,287.11a5.191,5.191,0,0,0,.271-.666h1.387a.394.394,0,0,0,.382-.315,6.694,6.694,0,0,0,0-2.428A.4.4,0,0,0,242.662,283.355Zm-.327,2.275v.012h-1.35a.382.382,0,0,0-.369.29,4.372,4.372,0,0,1-.426,1.024.382.382,0,0,0,.062.462l.961.962a6.043,6.043,0,0,1-1.066,1.072l-.955-.955a.383.383,0,0,0-.469-.056,4.147,4.147,0,0,1-1.036.438.381.381,0,0,0-.283.37v1.356a5.386,5.386,0,0,1-1.511,0v-1.332a.387.387,0,0,0-.289-.376,4.119,4.119,0,0,1-1.067-.431.381.381,0,0,0-.462.061l-.962.962a6.043,6.043,0,0,1-1.072-1.066l.955-.956a.383.383,0,0,0,.056-.468,4.112,4.112,0,0,1-.45-1.073.384.384,0,0,0-.37-.284h-1.35a5.2,5.2,0,0,1,0-1.516h1.35a.383.383,0,0,0,.37-.284,4.091,4.091,0,0,1,.45-1.072A.384.384,0,0,0,233,282.3l-.955-.955a6.082,6.082,0,0,1,1.072-1.067l.962.962a.383.383,0,0,0,.462.062,4.121,4.121,0,0,1,1.067-.432.386.386,0,0,0,.289-.376v-1.344a5.386,5.386,0,0,1,1.511,0v1.356a.38.38,0,0,0,.283.37,4.147,4.147,0,0,1,1.036.438.381.381,0,0,0,.468-.056l.956-.955a6.015,6.015,0,0,1,1.066,1.073l-.961.961a.383.383,0,0,0-.062.463,4.348,4.348,0,0,1,.426,1.023.382.382,0,0,0,.369.29h1.35A5.2,5.2,0,0,1,242.335,285.63Z"
       class="cls-6" />
    <path
       id="path726"
       d="M236.609,282.739a2.145,2.145,0,1,0,2.145,2.145A2.145,2.145,0,0,0,236.609,282.739Zm0,3.52a1.375,1.375,0,1,1,1.374-1.375A1.375,1.375,0,0,1,236.609,286.259Z"
       class="cls-6" />
    <path
       id="path728"
       d="M243.392,282.34a.389.389,0,0,0,.429.245c.054-.015.106-.035.159-.051l-.533-.556A.383.383,0,0,0,243.392,282.34Z"
       class="cls-6" />
    <path
       id="path730"
       d="M238.9,277.709a.387.387,0,0,0,.277.468.376.376,0,0,0,.432-.2l-.583-.607C238.981,277.485,238.928,277.593,238.9,277.709Z"
       class="cls-6" />
    <path
       id="path732"
       d="M245.3,283.035a.385.385,0,0,0,.271.111.429.429,0,0,0,.222-.068,5.458,5.458,0,0,0,1.387-1.4.388.388,0,0,0-.05-.487l-.752-.752a3.762,3.762,0,0,0,.179-.438h1.06a.384.384,0,0,0,.377-.315,5.315,5.315,0,0,0,0-1.972v.018a.383.383,0,0,0-.377-.314h-1.06a3.624,3.624,0,0,0-.179-.438l.752-.727a.388.388,0,0,0,.05-.487,5.429,5.429,0,0,0-1.387-1.424.388.388,0,0,0-.493.043l-.746.746a3.943,3.943,0,0,0-.45-.191V273.88a.377.377,0,0,0-.315-.376,5.16,5.16,0,0,0-1.966,0,.377.377,0,0,0-.315.376v1.042a3.238,3.238,0,0,0-.474.191l-.728-.752a.389.389,0,0,0-.487-.049A5.46,5.46,0,0,0,238.4,275.7a.389.389,0,0,0,.043.493l.746.746c-.066.14-.11.289-.163.435l.583.607a.33.33,0,0,0,.036-.073h0a3.315,3.315,0,0,1,.351-.838.383.383,0,0,0-.056-.469l-.715-.715a4.536,4.536,0,0,1,.752-.746l.716.721a.387.387,0,0,0,.468.062,3.042,3.042,0,0,1,.826-.339.389.389,0,0,0,.3-.37V274.2a4.322,4.322,0,0,1,1.054,0v1.023a.388.388,0,0,0,.284.376,3.235,3.235,0,0,1,.807.339.382.382,0,0,0,.469-.055l.715-.715a4.536,4.536,0,0,1,.746.752l-.722.715a.389.389,0,0,0-.061.469,3.092,3.092,0,0,1,.333.8.38.38,0,0,0,.37.283h1.011a3.847,3.847,0,0,1,0,1.061h-1.011a.381.381,0,0,0-.37.283,3.1,3.1,0,0,1-.333.8.387.387,0,0,0,.061.468l.722.715a4.536,4.536,0,0,1-.746.752l-.715-.715a.382.382,0,0,0-.469-.055,3.235,3.235,0,0,1-.807.339.379.379,0,0,0-.171.139l.533.556a3.949,3.949,0,0,0,.575-.227Z"
       class="cls-6" />
    <path
       id="path734"
       d="M244.567,278.72a1.794,1.794,0,1,0-3.588,0,.389.389,0,0,0,.771,0,1.023,1.023,0,1,1,1.023,1.023.389.389,0,0,0,0,.771A1.794,1.794,0,0,0,244.567,278.72Z"
       class="cls-6" />
  </g>
  <path
     id="path738"
     d="M312.694,79a.875.875,0,0,0,.373-.08,1.082,1.082,0,0,0,.333-.213,1,1,0,0,0,.293-.706.964.964,0,0,0-.08-.386,1.047,1.047,0,0,0-.213-.32.986.986,0,0,0-.333-.227,1.04,1.04,0,0,0-1.333.547,1.475,1.475,0,0,0,.293,1.092A1,1,0,0,0,312.694,79Z"
     class="cls-9" />
  <path
     id="path740"
     d="M316.691,73h-37.31a1.012,1.012,0,0,0-1,1V83.33a1.012,1.012,0,0,0,1,1h37.31a1.012,1.012,0,0,0,1-1V74A1.012,1.012,0,0,0,316.691,73Zm-1,9.328H280.38V75h35.312Z"
     class="cls-9" />
  <path
     id="path742"
     d="M283.379,80.332h3.544a1,1,0,0,0,0-2h-3.544a1,1,0,1,0,0,2Z"
     class="cls-9" />
</svg>
