<?xml version="1.0" encoding="UTF-8" standalone="no"?>
<svg
   xmlns:dc="http://purl.org/dc/elements/1.1/"
   xmlns:cc="http://creativecommons.org/ns#"
   xmlns:rdf="http://www.w3.org/1999/02/22-rdf-syntax-ns#"
   xmlns:svg="http://www.w3.org/2000/svg"
   xmlns="http://www.w3.org/2000/svg"
   xmlns:sodipodi="http://sodipodi.sourceforge.net/DTD/sodipodi-0.dtd"
   xmlns:inkscape="http://www.inkscape.org/namespaces/inkscape"
   inkscape:version="1.0 (4035a4f, 2020-05-01)"
   sodipodi:docname="Access-RBD-Kernel-300dpi.svg"
   version="1.1"
   viewBox="0 0 595.276 341.655"
   height="4.745in"
   width="8.268in"
   id="svg2">
  <metadata
     id="metadata743">
    <rdf:RDF>
      <cc:Work
         rdf:about="">
        <dc:format>image/svg+xml</dc:format>
        <dc:type
           rdf:resource="http://purl.org/dc/dcmitype/StillImage" />
        <dc:title></dc:title>
        <dc:source>rbd</dc:source>
      </cc:Work>
    </rdf:RDF>
  </metadata>
  <sodipodi:namedview
     inkscape:current-layer="svg2"
     inkscape:window-maximized="0"
     inkscape:window-y="25"
     inkscape:window-x="0"
     inkscape:cy="227.75999"
     inkscape:cx="396.86398"
     inkscape:zoom="0.63119862"
     showgrid="false"
     id="namedview741"
     inkscape:window-height="480"
     inkscape:window-width="987"
     inkscape:pageshadow="2"
     inkscape:pageopacity="0"
     guidetolerance="10"
     gridtolerance="10"
     objecttolerance="10"
     borderopacity="1"
     bordercolor="#666666"
     pagecolor="#ffffff" />
  <defs
     id="defs12">
    <style
       id="style10">
      .cls-1 {
        fill: #dbe8f5;
      }

      .cls-2 {
        fill: #a1c2e7;
      }

      .cls-3 {
        fill: #dcdcdc;
      }

      .cls-4 {
        fill: #bebebe;
      }

      .cls-5, .cls-8 {
        fill: #fff;
      }

      .cls-6 {
        fill: #4c4c4c;
      }

      .cls-7 {
        fill: #151515;
      }

      .cls-8, .cls-9 {
        stroke: #5b5b5b;
        stroke-width: 0.75px;
      }

      .cls-10, .cls-8, .cls-9 {
        stroke-linecap: round;
        stroke-linejoin: round;
      }

      .cls-10, .cls-9 {
        fill: none;
      }

      .cls-10 {
        stroke: #4c4c4c;
        stroke-dasharray: 3 0 0 3 0 0;
      }
    </style>
  </defs>
  <rect
     id="rect14"
     height="113.01"
     width="121.429"
     y="10.041"
     x="237.321"
     class="cls-1" />
  <rect
     id="rect16"
     height="22.075"
     width="104.59"
     y="92.556"
     x="245.741"
     class="cls-2" />
  <rect
     id="rect18"
     height="122.425"
     width="572.43"
     y="207.588"
     x="11.821"
     class="cls-3" />
  <rect
     id="rect20"
     height="37.003"
     width="34.282"
     y="223.186"
     x="25.395"
     class="cls-4" />
  <rect
     id="rect22"
     height="37.003"
     width="34.282"
     y="223.186"
     x="64.702"
     class="cls-4" />
  <rect
     id="rect24"
     height="37.003"
     width="34.282"
     y="223.186"
     x="104.01"
     class="cls-4" />
  <rect
     id="rect26"
     height="37.003"
     width="34.282"
     y="223.186"
     x="143.318"
     class="cls-4" />
  <rect
     id="rect28"
     height="37.003"
     width="34.282"
     y="223.186"
     x="182.625"
     class="cls-4" />
  <rect
     id="rect30"
     height="37.003"
     width="34.282"
     y="223.186"
     x="221.933"
     class="cls-4" />
  <rect
     id="rect32"
     height="37.003"
     width="34.282"
     y="223.186"
     x="261.241"
     class="cls-4" />
  <rect
     id="rect34"
     height="37.003"
     width="34.282"
     y="223.186"
     x="300.548"
     class="cls-4" />
  <rect
     id="rect36"
     height="37.003"
     width="34.282"
     y="223.186"
     x="339.856"
     class="cls-4" />
  <rect
     id="rect38"
     height="37.003"
     width="34.282"
     y="223.186"
     x="379.164"
     class="cls-4" />
  <rect
     id="rect40"
     height="37.003"
     width="34.282"
     y="223.186"
     x="418.471"
     class="cls-4" />
  <rect
     id="rect42"
     height="37.003"
     width="34.282"
     y="223.186"
     x="457.779"
     class="cls-4" />
  <rect
     id="rect44"
     height="37.003"
     width="34.282"
     y="223.186"
     x="497.087"
     class="cls-4" />
  <rect
     id="rect46"
     height="37.003"
     width="34.282"
     y="223.186"
     x="536.394"
     class="cls-4" />
  <rect
     id="rect48"
     height="37.003"
     width="34.282"
     y="265.214"
     x="25.395"
     class="cls-4" />
  <rect
     id="rect50"
     height="37.003"
     width="34.282"
     y="265.214"
     x="64.702"
     class="cls-4" />
  <rect
     id="rect52"
     height="37.003"
     width="34.282"
     y="265.214"
     x="104.01"
     class="cls-4" />
  <rect
     id="rect54"
     height="37.003"
     width="34.282"
     y="265.214"
     x="143.318"
     class="cls-4" />
  <rect
     id="rect56"
     height="37.003"
     width="34.282"
     y="265.214"
     x="182.625"
     class="cls-4" />
  <rect
     id="rect58"
     height="37.003"
     width="34.282"
     y="265.214"
     x="221.933"
     class="cls-4" />
  <rect
     id="rect60"
     height="37.003"
     width="34.282"
     y="265.214"
     x="261.241"
     class="cls-4" />
  <rect
     id="rect62"
     height="37.003"
     width="34.282"
     y="265.214"
     x="300.548"
     class="cls-4" />
  <rect
     id="rect64"
     height="37.003"
     width="34.282"
     y="265.214"
     x="339.856"
     class="cls-4" />
  <rect
     id="rect66"
     height="37.003"
     width="34.282"
     y="265.214"
     x="379.164"
     class="cls-4" />
  <rect
     id="rect68"
     height="37.003"
     width="34.282"
     y="265.214"
     x="418.471"
     class="cls-4" />
  <rect
     id="rect70"
     height="37.003"
     width="34.282"
     y="265.214"
     x="457.779"
     class="cls-4" />
  <rect
     id="rect72"
     height="37.003"
     width="34.282"
     y="265.214"
     x="497.087"
     class="cls-4" />
  <rect
     id="rect74"
     height="37.003"
     width="34.282"
     y="265.214"
     x="536.394"
     class="cls-4" />
  <g
     id="g82">
    <ellipse
       id="ellipse76"
       ry="4.199"
       rx="8.167"
       cy="234.378"
       cx="42.536"
       class="cls-5" />
    <path
       id="path78"
       d="M42.536,239.438c-3.664,0-6.739-1.164-8.167-2.884v1.792c0,2.275,3.736,4.2,8.167,4.2s8.167-1.925,8.167-4.2v-1.792C49.275,238.274,46.2,239.438,42.536,239.438Z"
       class="cls-5" />
    <path
       id="path80"
       d="M42.536,229.319c-5.059,0-9.027,2.222-9.027,5.059v3.968c0,2.837,3.968,5.059,9.027,5.059s9.027-2.222,9.027-5.059v-3.968C51.563,231.541,47.6,229.319,42.536,229.319Zm8.167,9.027c0,2.275-3.736,4.2-8.167,4.2s-8.167-1.925-8.167-4.2v-1.792c1.428,1.72,4.5,2.884,8.167,2.884s6.739-1.164,8.167-2.884Zm-8.167.232c-4.431,0-8.167-1.925-8.167-4.2s3.736-4.2,8.167-4.2,8.167,1.925,8.167,4.2S46.967,238.578,42.536,238.578Z"
       class="cls-6" />
  </g>
  <g
     id="g90">
    <path
       id="path84"
       d="M37.74,253.368a2.529,2.529,0,1,1,2.6-2.528A2.537,2.537,0,0,1,37.74,253.368Zm0-4.125a1.6,1.6,0,1,0,1.555,1.6A1.542,1.542,0,0,0,37.74,249.243Z"
       class="cls-6" />
    <path
       id="path86"
       d="M41.19,251.785a2.425,2.425,0,0,0,1.66.715c.609,0,1-.239,1-.617,0-.336-.223-.5-.8-.6l-.974-.168c-.84-.14-1.281-.595-1.281-1.31,0-.917.742-1.484,1.932-1.484a3.408,3.408,0,0,1,2.025.686l-.546.756a2.5,2.5,0,0,0-1.548-.588c-.547,0-.9.217-.9.553,0,.3.2.455.7.532l.925.155c.98.161,1.462.623,1.462,1.379,0,.96-.8,1.569-2.065,1.569a3.249,3.249,0,0,1-2.171-.847Z"
       class="cls-6" />
    <path
       id="path88"
       d="M45.453,248.388h1.884a2.455,2.455,0,1,1,0,4.9H45.453Zm1.016.9v3.1h.861a1.548,1.548,0,1,0,0-3.1Z"
       class="cls-6" />
  </g>
  <g
     id="g98">
    <ellipse
       id="ellipse92"
       ry="4.199"
       rx="8.167"
       cy="234.378"
       cx="121.151"
       class="cls-5" />
    <path
       id="path94"
       d="M121.151,239.437c-3.663,0-6.739-1.164-8.167-2.883v1.792c0,2.275,3.736,4.2,8.167,4.2s8.167-1.925,8.167-4.2v-1.792C127.89,238.273,124.815,239.437,121.151,239.437Z"
       class="cls-5" />
    <path
       id="path96"
       d="M121.151,229.319c-5.059,0-9.027,2.222-9.027,5.059v3.968c0,2.837,3.968,5.059,9.027,5.059s9.027-2.222,9.027-5.059v-3.968C130.178,231.541,126.21,229.319,121.151,229.319Zm8.167,9.027c0,2.275-3.736,4.2-8.167,4.2s-8.167-1.925-8.167-4.2v-1.792c1.428,1.719,4.5,2.883,8.167,2.883s6.739-1.164,8.167-2.883Zm-8.167.232c-4.431,0-8.167-1.925-8.167-4.2s3.736-4.2,8.167-4.2,8.167,1.924,8.167,4.2S125.582,238.578,121.151,238.578Z"
       class="cls-6" />
  </g>
  <g
     id="g106">
    <path
       id="path100"
       d="M116.355,253.368a2.529,2.529,0,1,1,2.6-2.528A2.537,2.537,0,0,1,116.355,253.368Zm0-4.125a1.6,1.6,0,1,0,1.555,1.6A1.542,1.542,0,0,0,116.355,249.243Z"
       class="cls-6" />
    <path
       id="path102"
       d="M119.805,251.785a2.429,2.429,0,0,0,1.661.715c.608,0,1-.239,1-.617,0-.336-.224-.5-.806-.6l-.974-.168c-.84-.14-1.281-.595-1.281-1.31,0-.917.742-1.484,1.933-1.484a3.407,3.407,0,0,1,2.024.686l-.546.756a2.494,2.494,0,0,0-1.548-.588c-.547,0-.9.217-.9.553,0,.3.2.455.7.532l.925.155c.98.161,1.463.623,1.463,1.379,0,.96-.8,1.569-2.066,1.569a3.249,3.249,0,0,1-2.171-.847Z"
       class="cls-6" />
    <path
       id="path104"
       d="M124.068,248.388h1.884a2.455,2.455,0,1,1,0,4.9h-1.884Zm1.016.9v3.1h.861a1.548,1.548,0,1,0,0-3.1Z"
       class="cls-6" />
  </g>
  <g
     id="g114">
    <ellipse
       id="ellipse108"
       ry="4.199"
       rx="8.167"
       cy="234.378"
       cx="278.382"
       class="cls-5" />
    <path
       id="path110"
       d="M278.382,239.437c-3.664,0-6.739-1.164-8.167-2.883v1.792c0,2.275,3.736,4.2,8.167,4.2s8.167-1.925,8.167-4.2v-1.792C285.121,238.273,282.046,239.437,278.382,239.437Z"
       class="cls-5" />
    <path
       id="path112"
       d="M278.382,229.319c-5.059,0-9.027,2.222-9.027,5.059v3.968c0,2.837,3.968,5.059,9.027,5.059s9.027-2.222,9.027-5.059v-3.968C287.409,231.541,283.441,229.319,278.382,229.319Zm8.167,9.027c0,2.275-3.736,4.2-8.167,4.2s-8.167-1.925-8.167-4.2v-1.792c1.428,1.719,4.5,2.883,8.167,2.883s6.739-1.164,8.167-2.883Zm-8.167.232c-4.431,0-8.167-1.925-8.167-4.2s3.736-4.2,8.167-4.2,8.167,1.924,8.167,4.2S282.813,238.578,278.382,238.578Z"
       class="cls-6" />
  </g>
  <g
     id="g122">
    <path
       id="path116"
       d="M273.586,253.368a2.529,2.529,0,1,1,2.6-2.528A2.537,2.537,0,0,1,273.586,253.368Zm0-4.125a1.6,1.6,0,1,0,1.554,1.6A1.542,1.542,0,0,0,273.586,249.243Z"
       class="cls-6" />
    <path
       id="path118"
       d="M277.036,251.785a2.425,2.425,0,0,0,1.66.715c.608,0,1-.239,1-.617,0-.336-.224-.5-.806-.6l-.973-.168c-.84-.14-1.282-.595-1.282-1.31,0-.917.743-1.484,1.933-1.484a3.408,3.408,0,0,1,2.025.686l-.546.756a2.5,2.5,0,0,0-1.548-.588c-.547,0-.9.217-.9.553,0,.3.2.455.7.532l.925.155c.981.161,1.463.623,1.463,1.379,0,.96-.8,1.569-2.065,1.569a3.249,3.249,0,0,1-2.171-.847Z"
       class="cls-6" />
    <path
       id="path120"
       d="M281.3,248.388h1.883a2.455,2.455,0,1,1,0,4.9H281.3Zm1.015.9v3.1h.862a1.548,1.548,0,0,0,0-3.1Z"
       class="cls-6" />
  </g>
  <g
     id="g130">
    <ellipse
       id="ellipse124"
       ry="4.199"
       rx="8.167"
       cy="234.378"
       cx="317.69"
       class="cls-5" />
    <path
       id="path126"
       d="M317.69,239.437c-3.664,0-6.739-1.164-8.168-2.883v1.792c0,2.275,3.737,4.2,8.168,4.2s8.167-1.925,8.167-4.2v-1.792C324.428,238.273,321.353,239.437,317.69,239.437Z"
       class="cls-5" />
    <path
       id="path128"
       d="M317.69,229.319c-5.059,0-9.027,2.222-9.027,5.059v3.968c0,2.837,3.968,5.059,9.027,5.059s9.026-2.222,9.026-5.059v-3.968C326.716,231.541,322.749,229.319,317.69,229.319Zm8.167,9.027c0,2.275-3.737,4.2-8.167,4.2s-8.168-1.925-8.168-4.2v-1.792c1.429,1.719,4.5,2.883,8.168,2.883s6.738-1.164,8.167-2.883Zm-8.167.232c-4.431,0-8.168-1.925-8.168-4.2s3.737-4.2,8.168-4.2,8.167,1.924,8.167,4.2S322.12,238.578,317.69,238.578Z"
       class="cls-6" />
  </g>
  <g
     id="g138">
    <path
       id="path132"
       d="M312.893,253.368a2.529,2.529,0,1,1,2.6-2.528A2.536,2.536,0,0,1,312.893,253.368Zm0-4.125a1.6,1.6,0,1,0,1.555,1.6A1.542,1.542,0,0,0,312.893,249.243Z"
       class="cls-6" />
    <path
       id="path134"
       d="M316.343,251.785a2.425,2.425,0,0,0,1.66.715c.608,0,1-.239,1-.617,0-.336-.224-.5-.806-.6l-.974-.168c-.839-.14-1.281-.595-1.281-1.31,0-.917.742-1.484,1.933-1.484a3.405,3.405,0,0,1,2.024.686l-.546.756a2.494,2.494,0,0,0-1.548-.588c-.546,0-.9.217-.9.553,0,.3.2.455.7.532l.925.155c.98.161,1.463.623,1.463,1.379,0,.96-.805,1.569-2.066,1.569a3.249,3.249,0,0,1-2.171-.847Z"
       class="cls-6" />
    <path
       id="path136"
       d="M320.606,248.388h1.884a2.455,2.455,0,1,1,0,4.9h-1.884Zm1.016.9v3.1h.861a1.548,1.548,0,1,0,0-3.1Z"
       class="cls-6" />
  </g>
  <g
     id="g146">
    <ellipse
       id="ellipse140"
       ry="4.199"
       rx="8.167"
       cy="234.378"
       cx="435.613"
       class="cls-5" />
    <path
       id="path142"
       d="M435.613,239.437c-3.664,0-6.739-1.164-8.168-2.883v1.792c0,2.275,3.737,4.2,8.168,4.2s8.167-1.925,8.167-4.2v-1.792C442.351,238.273,439.276,239.437,435.613,239.437Z"
       class="cls-5" />
    <path
       id="path144"
       d="M435.613,229.319c-5.059,0-9.027,2.222-9.027,5.059v3.968c0,2.837,3.968,5.059,9.027,5.059s9.027-2.222,9.027-5.059v-3.968C444.64,231.541,440.672,229.319,435.613,229.319Zm8.167,9.027c0,2.275-3.737,4.2-8.167,4.2s-8.168-1.925-8.168-4.2v-1.792c1.429,1.719,4.5,2.883,8.168,2.883s6.738-1.164,8.167-2.883Zm-8.167.232c-4.431,0-8.168-1.925-8.168-4.2s3.737-4.2,8.168-4.2,8.167,1.924,8.167,4.2S440.043,238.578,435.613,238.578Z"
       class="cls-6" />
  </g>
  <g
     id="g154">
    <path
       id="path148"
       d="M430.816,253.368a2.529,2.529,0,1,1,2.6-2.528A2.537,2.537,0,0,1,430.816,253.368Zm0-4.125a1.6,1.6,0,1,0,1.555,1.6A1.542,1.542,0,0,0,430.816,249.243Z"
       class="cls-6" />
    <path
       id="path150"
       d="M434.266,251.785a2.429,2.429,0,0,0,1.661.715c.608,0,1-.239,1-.617,0-.336-.224-.5-.806-.6l-.974-.168c-.84-.14-1.281-.595-1.281-1.31,0-.917.742-1.484,1.933-1.484a3.407,3.407,0,0,1,2.024.686l-.546.756a2.5,2.5,0,0,0-1.548-.588c-.547,0-.9.217-.9.553,0,.3.2.455.7.532l.925.155c.98.161,1.463.623,1.463,1.379,0,.96-.805,1.569-2.066,1.569a3.249,3.249,0,0,1-2.171-.847Z"
       class="cls-6" />
    <path
       id="path152"
       d="M438.529,248.388h1.884a2.455,2.455,0,1,1,0,4.9h-1.884Zm1.016.9v3.1h.861a1.548,1.548,0,1,0,0-3.1Z"
       class="cls-6" />
  </g>
  <g
     id="g162">
    <ellipse
       id="ellipse156"
       ry="4.199"
       rx="8.167"
       cy="234.378"
       cx="474.92"
       class="cls-5" />
    <path
       id="path158"
       d="M474.92,239.437c-3.663,0-6.739-1.164-8.167-2.883v1.792c0,2.275,3.736,4.2,8.167,4.2s8.168-1.925,8.168-4.2v-1.792C481.659,238.273,478.584,239.437,474.92,239.437Z"
       class="cls-5" />
    <path
       id="path160"
       d="M474.92,229.319c-5.059,0-9.027,2.222-9.027,5.059v3.968c0,2.837,3.968,5.059,9.027,5.059s9.027-2.222,9.027-5.059v-3.968C483.947,231.541,479.979,229.319,474.92,229.319Zm8.168,9.027c0,2.275-3.737,4.2-8.168,4.2s-8.167-1.925-8.167-4.2v-1.792c1.428,1.719,4.5,2.883,8.167,2.883s6.739-1.164,8.168-2.883Zm-8.168.232c-4.431,0-8.167-1.925-8.167-4.2s3.736-4.2,8.167-4.2,8.168,1.924,8.168,4.2S479.351,238.578,474.92,238.578Z"
       class="cls-6" />
  </g>
  <g
     id="g170">
    <path
       id="path164"
       d="M470.124,253.368a2.529,2.529,0,1,1,2.6-2.528A2.537,2.537,0,0,1,470.124,253.368Zm0-4.125a1.6,1.6,0,1,0,1.554,1.6A1.542,1.542,0,0,0,470.124,249.243Z"
       class="cls-6" />
    <path
       id="path166"
       d="M473.573,251.785a2.425,2.425,0,0,0,1.66.715c.609,0,1-.239,1-.617,0-.336-.223-.5-.806-.6l-.973-.168c-.84-.14-1.281-.595-1.281-1.31,0-.917.742-1.484,1.932-1.484a3.408,3.408,0,0,1,2.025.686l-.546.756a2.5,2.5,0,0,0-1.548-.588c-.547,0-.9.217-.9.553,0,.3.2.455.7.532l.924.155c.981.161,1.463.623,1.463,1.379,0,.96-.8,1.569-2.065,1.569a3.249,3.249,0,0,1-2.171-.847Z"
       class="cls-6" />
    <path
       id="path168"
       d="M477.837,248.388h1.883a2.455,2.455,0,1,1,0,4.9h-1.883Zm1.015.9v3.1h.862a1.548,1.548,0,0,0,0-3.1Z"
       class="cls-6" />
  </g>
  <g
     id="g178">
    <ellipse
       id="ellipse172"
       ry="4.199"
       rx="8.167"
       cy="234.378"
       cx="553.536"
       class="cls-5" />
    <path
       id="path174"
       d="M553.536,239.437c-3.664,0-6.739-1.164-8.168-2.883v1.792c0,2.275,3.737,4.2,8.168,4.2s8.167-1.925,8.167-4.2v-1.792C560.274,238.273,557.2,239.437,553.536,239.437Z"
       class="cls-5" />
    <path
       id="path176"
       d="M553.536,229.319c-5.059,0-9.027,2.222-9.027,5.059v3.968c0,2.837,3.968,5.059,9.027,5.059s9.027-2.222,9.027-5.059v-3.968C562.563,231.541,558.6,229.319,553.536,229.319Zm8.167,9.027c0,2.275-3.737,4.2-8.167,4.2s-8.168-1.925-8.168-4.2v-1.792c1.429,1.719,4.5,2.883,8.168,2.883s6.738-1.164,8.167-2.883Zm-8.167.232c-4.431,0-8.168-1.925-8.168-4.2s3.737-4.2,8.168-4.2,8.167,1.924,8.167,4.2S557.966,238.578,553.536,238.578Z"
       class="cls-6" />
  </g>
  <g
     id="g186">
    <path
       id="path180"
       d="M548.739,253.368a2.529,2.529,0,1,1,2.6-2.528A2.537,2.537,0,0,1,548.739,253.368Zm0-4.125a1.6,1.6,0,1,0,1.555,1.6A1.542,1.542,0,0,0,548.739,249.243Z"
       class="cls-6" />
    <path
       id="path182"
       d="M552.188,251.785a2.426,2.426,0,0,0,1.66.715c.609,0,1-.239,1-.617,0-.336-.223-.5-.805-.6l-.974-.168c-.84-.14-1.281-.595-1.281-1.31,0-.917.742-1.484,1.932-1.484a3.408,3.408,0,0,1,2.025.686l-.546.756a2.5,2.5,0,0,0-1.548-.588c-.547,0-.9.217-.9.553,0,.3.2.455.7.532l.925.155c.98.161,1.463.623,1.463,1.379,0,.96-.805,1.569-2.066,1.569a3.249,3.249,0,0,1-2.171-.847Z"
       class="cls-6" />
    <path
       id="path184"
       d="M556.452,248.388h1.884a2.455,2.455,0,1,1,0,4.9h-1.884Zm1.016.9v3.1h.861a1.548,1.548,0,1,0,0-3.1Z"
       class="cls-6" />
  </g>
  <g
     id="g194">
    <ellipse
       id="ellipse188"
       ry="4.199"
       rx="8.167"
       cy="276.407"
       cx="42.536"
       class="cls-5" />
    <path
       id="path190"
       d="M42.536,281.466c-3.664,0-6.739-1.164-8.167-2.884v1.793c0,2.275,3.736,4.2,8.167,4.2s8.167-1.924,8.167-4.2v-1.793C49.275,280.3,46.2,281.466,42.536,281.466Z"
       class="cls-5" />
    <path
       id="path192"
       d="M42.536,271.348c-5.059,0-9.027,2.222-9.027,5.059v3.968c0,2.837,3.968,5.059,9.027,5.059s9.027-2.222,9.027-5.059v-3.968C51.563,273.57,47.6,271.348,42.536,271.348Zm8.167,9.027c0,2.275-3.736,4.2-8.167,4.2s-8.167-1.924-8.167-4.2v-1.793c1.428,1.72,4.5,2.884,8.167,2.884s6.739-1.164,8.167-2.884Zm-8.167.231c-4.431,0-8.167-1.924-8.167-4.2s3.736-4.2,8.167-4.2,8.167,1.925,8.167,4.2S46.967,280.606,42.536,280.606Z"
       class="cls-6" />
  </g>
  <g
     id="g202">
    <path
       id="path196"
       d="M37.74,294.371a2.529,2.529,0,1,1,2.6-2.529A2.538,2.538,0,0,1,37.74,294.371Zm0-4.126a1.6,1.6,0,1,0,1.555,1.6A1.543,1.543,0,0,0,37.74,290.245Z"
       class="cls-6" />
    <path
       id="path198"
       d="M41.19,292.788a2.428,2.428,0,0,0,1.66.714c.609,0,1-.238,1-.616,0-.337-.223-.5-.8-.6l-.974-.168c-.84-.14-1.281-.6-1.281-1.309,0-.918.742-1.485,1.932-1.485a3.408,3.408,0,0,1,2.025.686l-.546.757a2.492,2.492,0,0,0-1.548-.589c-.547,0-.9.218-.9.554,0,.3.2.455.7.532l.925.154c.98.161,1.462.623,1.462,1.38,0,.96-.8,1.568-2.065,1.568a3.249,3.249,0,0,1-2.171-.847Z"
       class="cls-6" />
    <path
       id="path200"
       d="M45.453,289.391h1.884a2.455,2.455,0,1,1,0,4.9H45.453Zm1.016.9v3.095h.861a1.548,1.548,0,1,0,0-3.095Z"
       class="cls-6" />
  </g>
  <g
     id="g210">
    <ellipse
       id="ellipse204"
       ry="4.199"
       rx="8.167"
       cy="276.407"
       cx="81.844"
       class="cls-5" />
    <path
       id="path206"
       d="M81.844,281.466c-3.664,0-6.739-1.164-8.168-2.884v1.792c0,2.275,3.737,4.2,8.168,4.2s8.167-1.925,8.167-4.2v-1.792C88.582,280.3,85.507,281.466,81.844,281.466Z"
       class="cls-5" />
    <path
       id="path208"
       d="M81.844,271.348c-5.059,0-9.027,2.221-9.027,5.059v3.967c0,2.837,3.968,5.059,9.027,5.059s9.026-2.222,9.026-5.059v-3.967C90.87,273.569,86.9,271.348,81.844,271.348Zm8.167,9.026c0,2.275-3.737,4.2-8.167,4.2s-8.168-1.925-8.168-4.2v-1.792c1.429,1.72,4.5,2.884,8.168,2.884s6.738-1.164,8.167-2.884Zm-8.167.232c-4.431,0-8.168-1.925-8.168-4.2s3.737-4.2,8.168-4.2,8.167,1.925,8.167,4.2S86.274,280.606,81.844,280.606Z"
       class="cls-6" />
  </g>
  <g
     id="g218">
    <path
       id="path212"
       d="M77.047,294.37a2.529,2.529,0,1,1,2.6-2.528A2.536,2.536,0,0,1,77.047,294.37Zm0-4.125a1.6,1.6,0,1,0,1.554,1.6A1.542,1.542,0,0,0,77.047,290.245Z"
       class="cls-6" />
    <path
       id="path214"
       d="M80.5,292.787a2.429,2.429,0,0,0,1.66.715c.608,0,1-.239,1-.617,0-.336-.224-.5-.806-.6l-.973-.168c-.84-.14-1.282-.6-1.282-1.31,0-.917.743-1.485,1.933-1.485a3.4,3.4,0,0,1,2.024.687l-.545.756a2.5,2.5,0,0,0-1.548-.588c-.547,0-.9.217-.9.553,0,.3.2.455.7.532l.925.155c.981.161,1.463.623,1.463,1.379,0,.96-.805,1.569-2.065,1.569a3.249,3.249,0,0,1-2.171-.847Z"
       class="cls-6" />
    <path
       id="path216"
       d="M84.76,289.39h1.883a2.455,2.455,0,1,1,0,4.9H84.76Zm1.015.9v3.1h.861a1.548,1.548,0,1,0,0-3.1Z"
       class="cls-6" />
  </g>
  <g
     id="g226">
    <ellipse
       id="ellipse220"
       ry="4.199"
       rx="8.167"
       cy="276.407"
       cx="121.151"
       class="cls-5" />
    <path
       id="path222"
       d="M121.151,281.466c-3.663,0-6.739-1.164-8.167-2.884v1.792c0,2.275,3.736,4.2,8.167,4.2s8.167-1.925,8.167-4.2v-1.792C127.89,280.3,124.815,281.466,121.151,281.466Z"
       class="cls-5" />
    <path
       id="path224"
       d="M121.151,271.348c-5.059,0-9.027,2.221-9.027,5.059v3.967c0,2.837,3.968,5.059,9.027,5.059s9.027-2.222,9.027-5.059v-3.967C130.178,273.569,126.21,271.348,121.151,271.348Zm8.167,9.026c0,2.275-3.736,4.2-8.167,4.2s-8.167-1.925-8.167-4.2v-1.792c1.428,1.72,4.5,2.884,8.167,2.884s6.739-1.164,8.167-2.884Zm-8.167.232c-4.431,0-8.167-1.925-8.167-4.2s3.736-4.2,8.167-4.2,8.167,1.925,8.167,4.2S125.582,280.606,121.151,280.606Z"
       class="cls-6" />
  </g>
  <g
     id="g234">
    <path
       id="path228"
       d="M116.355,294.37a2.529,2.529,0,1,1,2.6-2.528A2.537,2.537,0,0,1,116.355,294.37Zm0-4.125a1.6,1.6,0,1,0,1.555,1.6A1.542,1.542,0,0,0,116.355,290.245Z"
       class="cls-6" />
    <path
       id="path230"
       d="M119.805,292.787a2.433,2.433,0,0,0,1.661.715c.608,0,1-.239,1-.617,0-.336-.224-.5-.806-.6l-.974-.168c-.84-.14-1.281-.6-1.281-1.31,0-.917.742-1.485,1.933-1.485a3.408,3.408,0,0,1,2.024.687l-.546.756a2.494,2.494,0,0,0-1.548-.588c-.547,0-.9.217-.9.553,0,.3.2.455.7.532l.925.155c.98.161,1.463.623,1.463,1.379,0,.96-.8,1.569-2.066,1.569a3.249,3.249,0,0,1-2.171-.847Z"
       class="cls-6" />
    <path
       id="path232"
       d="M124.068,289.39h1.884a2.455,2.455,0,1,1,0,4.9h-1.884Zm1.016.9v3.1h.861a1.548,1.548,0,1,0,0-3.1Z"
       class="cls-6" />
  </g>
  <g
     id="g242">
    <ellipse
       id="ellipse236"
       ry="4.199"
       rx="8.167"
       cy="276.407"
       cx="160.459"
       class="cls-5" />
    <path
       id="path238"
       d="M160.459,281.466c-3.664,0-6.739-1.164-8.167-2.884v1.792c0,2.275,3.736,4.2,8.167,4.2s8.167-1.925,8.167-4.2v-1.792C167.2,280.3,164.123,281.466,160.459,281.466Z"
       class="cls-5" />
    <path
       id="path240"
       d="M160.459,271.348c-5.059,0-9.027,2.221-9.027,5.059v3.967c0,2.837,3.968,5.059,9.027,5.059s9.027-2.222,9.027-5.059v-3.967C169.486,273.569,165.518,271.348,160.459,271.348Zm8.167,9.026c0,2.275-3.736,4.2-8.167,4.2s-8.167-1.925-8.167-4.2v-1.792c1.428,1.72,4.5,2.884,8.167,2.884s6.739-1.164,8.167-2.884Zm-8.167.232c-4.431,0-8.167-1.925-8.167-4.2s3.736-4.2,8.167-4.2,8.167,1.925,8.167,4.2S164.89,280.606,160.459,280.606Z"
       class="cls-6" />
  </g>
  <g
     id="g250">
    <path
       id="path244"
       d="M155.662,294.37a2.529,2.529,0,1,1,2.6-2.528A2.537,2.537,0,0,1,155.662,294.37Zm0-4.125a1.6,1.6,0,1,0,1.555,1.6A1.542,1.542,0,0,0,155.662,290.245Z"
       class="cls-6" />
    <path
       id="path246"
       d="M159.112,292.787a2.429,2.429,0,0,0,1.66.715c.609,0,1-.239,1-.617,0-.336-.223-.5-.805-.6l-.974-.168c-.84-.14-1.281-.6-1.281-1.31,0-.917.742-1.485,1.932-1.485a3.409,3.409,0,0,1,2.025.687l-.546.756a2.5,2.5,0,0,0-1.548-.588c-.547,0-.9.217-.9.553,0,.3.2.455.7.532l.924.155c.981.161,1.463.623,1.463,1.379,0,.96-.8,1.569-2.065,1.569a3.249,3.249,0,0,1-2.171-.847Z"
       class="cls-6" />
    <path
       id="path248"
       d="M163.375,289.39h1.884a2.455,2.455,0,1,1,0,4.9h-1.884Zm1.015.9v3.1h.862a1.548,1.548,0,1,0,0-3.1Z"
       class="cls-6" />
  </g>
  <g
     id="g258">
    <ellipse
       id="ellipse252"
       ry="4.199"
       rx="8.167"
       cy="276.407"
       cx="199.767"
       class="cls-5" />
    <path
       id="path254"
       d="M199.767,281.466c-3.664,0-6.739-1.164-8.168-2.884v1.792c0,2.275,3.737,4.2,8.168,4.2s8.167-1.925,8.167-4.2v-1.792C206.505,280.3,203.43,281.466,199.767,281.466Z"
       class="cls-5" />
    <path
       id="path256"
       d="M199.767,271.348c-5.059,0-9.027,2.221-9.027,5.059v3.967c0,2.837,3.968,5.059,9.027,5.059s9.026-2.222,9.026-5.059v-3.967C208.793,273.569,204.826,271.348,199.767,271.348Zm8.167,9.026c0,2.275-3.737,4.2-8.167,4.2s-8.168-1.925-8.168-4.2v-1.792c1.429,1.72,4.5,2.884,8.168,2.884s6.738-1.164,8.167-2.884Zm-8.167.232c-4.431,0-8.168-1.925-8.168-4.2s3.737-4.2,8.168-4.2,8.167,1.925,8.167,4.2S204.2,280.606,199.767,280.606Z"
       class="cls-6" />
  </g>
  <g
     id="g266">
    <path
       id="path260"
       d="M194.97,294.37a2.529,2.529,0,1,1,2.6-2.528A2.536,2.536,0,0,1,194.97,294.37Zm0-4.125a1.6,1.6,0,1,0,1.555,1.6A1.541,1.541,0,0,0,194.97,290.245Z"
       class="cls-6" />
    <path
       id="path262"
       d="M198.421,292.787a2.429,2.429,0,0,0,1.66.715c.608,0,1-.239,1-.617,0-.336-.224-.5-.806-.6l-.973-.168c-.84-.14-1.282-.6-1.282-1.31,0-.917.742-1.485,1.933-1.485a3.406,3.406,0,0,1,2.024.687l-.546.756a2.493,2.493,0,0,0-1.547-.588c-.547,0-.9.217-.9.553,0,.3.2.455.7.532l.925.155c.981.161,1.463.623,1.463,1.379,0,.96-.805,1.569-2.065,1.569a3.249,3.249,0,0,1-2.171-.847Z"
       class="cls-6" />
    <path
       id="path264"
       d="M202.683,289.39h1.884a2.455,2.455,0,1,1,0,4.9h-1.884Zm1.016.9v3.1h.861a1.548,1.548,0,1,0,0-3.1Z"
       class="cls-6" />
  </g>
  <g
     id="g274">
    <ellipse
       id="ellipse268"
       ry="4.199"
       rx="8.167"
       cy="276.407"
       cx="239.074"
       class="cls-5" />
    <path
       id="path270"
       d="M239.074,281.466c-3.663,0-6.739-1.164-8.167-2.884v1.792c0,2.275,3.736,4.2,8.167,4.2s8.167-1.925,8.167-4.2v-1.792C245.813,280.3,242.738,281.466,239.074,281.466Z"
       class="cls-5" />
    <path
       id="path272"
       d="M239.074,271.348c-5.059,0-9.027,2.221-9.027,5.059v3.967c0,2.837,3.968,5.059,9.027,5.059s9.027-2.222,9.027-5.059v-3.967C248.1,273.569,244.133,271.348,239.074,271.348Zm8.167,9.026c0,2.275-3.736,4.2-8.167,4.2s-8.167-1.925-8.167-4.2v-1.792c1.428,1.72,4.5,2.884,8.167,2.884s6.739-1.164,8.167-2.884Zm-8.167.232c-4.431,0-8.167-1.925-8.167-4.2s3.736-4.2,8.167-4.2,8.167,1.925,8.167,4.2S243.505,280.606,239.074,280.606Z"
       class="cls-6" />
  </g>
  <g
     id="g282">
    <path
       id="path276"
       d="M234.277,294.37a2.529,2.529,0,1,1,2.6-2.528A2.537,2.537,0,0,1,234.277,294.37Zm0-4.125a1.6,1.6,0,1,0,1.555,1.6A1.542,1.542,0,0,0,234.277,290.245Z"
       class="cls-6" />
    <path
       id="path278"
       d="M237.727,292.787a2.433,2.433,0,0,0,1.66.715c.609,0,1-.239,1-.617,0-.336-.223-.5-.805-.6l-.974-.168c-.84-.14-1.281-.6-1.281-1.31,0-.917.742-1.485,1.933-1.485a3.408,3.408,0,0,1,2.024.687l-.546.756a2.5,2.5,0,0,0-1.548-.588c-.547,0-.9.217-.9.553,0,.3.2.455.7.532l.925.155c.98.161,1.463.623,1.463,1.379,0,.96-.805,1.569-2.066,1.569a3.249,3.249,0,0,1-2.171-.847Z"
       class="cls-6" />
    <path
       id="path280"
       d="M241.99,289.39h1.884a2.455,2.455,0,1,1,0,4.9H241.99Zm1.016.9v3.1h.861a1.548,1.548,0,1,0,0-3.1Z"
       class="cls-6" />
  </g>
  <g
     id="g290">
    <ellipse
       id="ellipse284"
       ry="4.199"
       rx="8.167"
       cy="276.407"
       cx="278.382"
       class="cls-5" />
    <path
       id="path286"
       d="M278.382,281.466c-3.664,0-6.739-1.164-8.167-2.884v1.792c0,2.275,3.736,4.2,8.167,4.2s8.167-1.925,8.167-4.2v-1.792C285.121,280.3,282.046,281.466,278.382,281.466Z"
       class="cls-5" />
    <path
       id="path288"
       d="M278.382,271.348c-5.059,0-9.027,2.221-9.027,5.059v3.967c0,2.837,3.968,5.059,9.027,5.059s9.027-2.222,9.027-5.059v-3.967C287.409,273.569,283.441,271.348,278.382,271.348Zm8.167,9.026c0,2.275-3.736,4.2-8.167,4.2s-8.167-1.925-8.167-4.2v-1.792c1.428,1.72,4.5,2.884,8.167,2.884s6.739-1.164,8.167-2.884Zm-8.167.232c-4.431,0-8.167-1.925-8.167-4.2s3.736-4.2,8.167-4.2,8.167,1.925,8.167,4.2S282.813,280.606,278.382,280.606Z"
       class="cls-6" />
  </g>
  <g
     id="g298">
    <path
       id="path292"
       d="M273.586,294.37a2.529,2.529,0,1,1,2.6-2.528A2.537,2.537,0,0,1,273.586,294.37Zm0-4.125a1.6,1.6,0,1,0,1.554,1.6A1.542,1.542,0,0,0,273.586,290.245Z"
       class="cls-6" />
    <path
       id="path294"
       d="M277.036,292.787a2.429,2.429,0,0,0,1.66.715c.608,0,1-.239,1-.617,0-.336-.224-.5-.806-.6l-.973-.168c-.84-.14-1.282-.6-1.282-1.31,0-.917.743-1.485,1.933-1.485a3.409,3.409,0,0,1,2.025.687l-.546.756a2.5,2.5,0,0,0-1.548-.588c-.547,0-.9.217-.9.553,0,.3.2.455.7.532l.925.155c.981.161,1.463.623,1.463,1.379,0,.96-.8,1.569-2.065,1.569a3.249,3.249,0,0,1-2.171-.847Z"
       class="cls-6" />
    <path
       id="path296"
       d="M281.3,289.39h1.883a2.455,2.455,0,1,1,0,4.9H281.3Zm1.015.9v3.1h.862a1.548,1.548,0,0,0,0-3.1Z"
       class="cls-6" />
  </g>
  <g
     id="g306">
    <ellipse
       id="ellipse300"
       ry="4.199"
       rx="8.167"
       cy="276.407"
       cx="317.69"
       class="cls-5" />
    <path
       id="path302"
       d="M317.69,281.466c-3.664,0-6.739-1.164-8.168-2.884v1.792c0,2.275,3.737,4.2,8.168,4.2s8.167-1.925,8.167-4.2v-1.792C324.428,280.3,321.353,281.466,317.69,281.466Z"
       class="cls-5" />
    <path
       id="path304"
       d="M317.69,271.348c-5.059,0-9.027,2.221-9.027,5.059v3.967c0,2.837,3.968,5.059,9.027,5.059s9.026-2.222,9.026-5.059v-3.967C326.716,273.569,322.749,271.348,317.69,271.348Zm8.167,9.026c0,2.275-3.737,4.2-8.167,4.2s-8.168-1.925-8.168-4.2v-1.792c1.429,1.72,4.5,2.884,8.168,2.884s6.738-1.164,8.167-2.884Zm-8.167.232c-4.431,0-8.168-1.925-8.168-4.2s3.737-4.2,8.168-4.2,8.167,1.925,8.167,4.2S322.12,280.606,317.69,280.606Z"
       class="cls-6" />
  </g>
  <g
     id="g314">
    <path
       id="path308"
       d="M312.893,294.37a2.529,2.529,0,1,1,2.6-2.528A2.536,2.536,0,0,1,312.893,294.37Zm0-4.125a1.6,1.6,0,1,0,1.555,1.6A1.542,1.542,0,0,0,312.893,290.245Z"
       class="cls-6" />
    <path
       id="path310"
       d="M316.343,292.787a2.429,2.429,0,0,0,1.66.715c.608,0,1-.239,1-.617,0-.336-.224-.5-.806-.6l-.974-.168c-.839-.14-1.281-.6-1.281-1.31,0-.917.742-1.485,1.933-1.485a3.406,3.406,0,0,1,2.024.687l-.546.756a2.494,2.494,0,0,0-1.548-.588c-.546,0-.9.217-.9.553,0,.3.2.455.7.532l.925.155c.98.161,1.463.623,1.463,1.379,0,.96-.805,1.569-2.066,1.569a3.249,3.249,0,0,1-2.171-.847Z"
       class="cls-6" />
    <path
       id="path312"
       d="M320.606,289.39h1.884a2.455,2.455,0,1,1,0,4.9h-1.884Zm1.016.9v3.1h.861a1.548,1.548,0,1,0,0-3.1Z"
       class="cls-6" />
  </g>
  <g
     id="g322">
    <ellipse
       id="ellipse316"
       ry="4.199"
       rx="8.167"
       cy="276.407"
       cx="396.305"
       class="cls-5" />
    <path
       id="path318"
       d="M396.305,281.466c-3.664,0-6.739-1.164-8.167-2.884v1.792c0,2.275,3.736,4.2,8.167,4.2s8.167-1.925,8.167-4.2v-1.792C403.044,280.3,399.969,281.466,396.305,281.466Z"
       class="cls-5" />
    <path
       id="path320"
       d="M396.305,271.348c-5.059,0-9.027,2.221-9.027,5.059v3.967c0,2.837,3.968,5.059,9.027,5.059s9.027-2.222,9.027-5.059v-3.967C405.332,273.569,401.364,271.348,396.305,271.348Zm8.167,9.026c0,2.275-3.736,4.2-8.167,4.2s-8.167-1.925-8.167-4.2v-1.792c1.428,1.72,4.5,2.884,8.167,2.884s6.739-1.164,8.167-2.884Zm-8.167.232c-4.431,0-8.167-1.925-8.167-4.2s3.736-4.2,8.167-4.2,8.167,1.925,8.167,4.2S400.736,280.606,396.305,280.606Z"
       class="cls-6" />
  </g>
  <g
     id="g330">
    <path
       id="path324"
       d="M391.509,294.37a2.529,2.529,0,1,1,2.6-2.528A2.536,2.536,0,0,1,391.509,294.37Zm0-4.125a1.6,1.6,0,1,0,1.554,1.6A1.542,1.542,0,0,0,391.509,290.245Z"
       class="cls-6" />
    <path
       id="path326"
       d="M394.958,292.787a2.429,2.429,0,0,0,1.66.715c.608,0,1-.239,1-.617,0-.336-.224-.5-.806-.6l-.973-.168c-.84-.14-1.282-.6-1.282-1.31,0-.917.743-1.485,1.933-1.485a3.406,3.406,0,0,1,2.024.687l-.546.756a2.493,2.493,0,0,0-1.547-.588c-.547,0-.9.217-.9.553,0,.3.2.455.7.532l.925.155c.981.161,1.463.623,1.463,1.379,0,.96-.805,1.569-2.065,1.569a3.249,3.249,0,0,1-2.171-.847Z"
       class="cls-6" />
    <path
       id="path328"
       d="M399.221,289.39h1.884a2.455,2.455,0,1,1,0,4.9h-1.884Zm1.016.9v3.1h.861a1.548,1.548,0,1,0,0-3.1Z"
       class="cls-6" />
  </g>
  <g
     id="g338">
    <ellipse
       id="ellipse332"
       ry="4.199"
       rx="8.167"
       cy="276.407"
       cx="356.997"
       class="cls-5" />
    <path
       id="path334"
       d="M357,281.466c-3.663,0-6.739-1.164-8.167-2.884v1.792c0,2.275,3.736,4.2,8.167,4.2s8.167-1.925,8.167-4.2v-1.792C363.736,280.3,360.661,281.466,357,281.466Z"
       class="cls-5" />
    <path
       id="path336"
       d="M357,271.348c-5.059,0-9.027,2.221-9.027,5.059v3.967c0,2.837,3.968,5.059,9.027,5.059s9.027-2.222,9.027-5.059v-3.967C366.024,273.569,362.056,271.348,357,271.348Zm8.167,9.026c0,2.275-3.736,4.2-8.167,4.2s-8.167-1.925-8.167-4.2v-1.792c1.428,1.72,4.5,2.884,8.167,2.884s6.739-1.164,8.167-2.884Zm-8.167.232c-4.431,0-8.167-1.925-8.167-4.2s3.736-4.2,8.167-4.2,8.167,1.925,8.167,4.2S361.428,280.606,357,280.606Z"
       class="cls-6" />
  </g>
  <g
     id="g346">
    <path
       id="path340"
       d="M352.2,294.37a2.529,2.529,0,1,1,2.6-2.528A2.537,2.537,0,0,1,352.2,294.37Zm0-4.125a1.6,1.6,0,1,0,1.555,1.6A1.542,1.542,0,0,0,352.2,290.245Z"
       class="cls-6" />
    <path
       id="path342"
       d="M355.65,292.787a2.429,2.429,0,0,0,1.66.715c.609,0,1-.239,1-.617,0-.336-.223-.5-.805-.6l-.974-.168c-.84-.14-1.281-.6-1.281-1.31,0-.917.742-1.485,1.932-1.485a3.409,3.409,0,0,1,2.025.687l-.546.756a2.5,2.5,0,0,0-1.548-.588c-.547,0-.9.217-.9.553,0,.3.2.455.7.532l.925.155c.98.161,1.462.623,1.462,1.379,0,.96-.8,1.569-2.065,1.569a3.249,3.249,0,0,1-2.171-.847Z"
       class="cls-6" />
    <path
       id="path344"
       d="M359.914,289.39H361.8a2.455,2.455,0,1,1,0,4.9h-1.884Zm1.015.9v3.1h.862a1.548,1.548,0,1,0,0-3.1Z"
       class="cls-6" />
  </g>
  <g
     id="g354">
    <ellipse
       id="ellipse348"
       ry="4.199"
       rx="8.167"
       cy="276.407"
       cx="435.613"
       class="cls-5" />
    <path
       id="path350"
       d="M435.613,281.466c-3.664,0-6.739-1.164-8.168-2.884v1.792c0,2.275,3.737,4.2,8.168,4.2s8.167-1.925,8.167-4.2v-1.792C442.351,280.3,439.276,281.466,435.613,281.466Z"
       class="cls-5" />
    <path
       id="path352"
       d="M435.613,271.348c-5.059,0-9.027,2.221-9.027,5.059v3.967c0,2.837,3.968,5.059,9.027,5.059s9.027-2.222,9.027-5.059v-3.967C444.64,273.569,440.672,271.348,435.613,271.348Zm8.167,9.026c0,2.275-3.737,4.2-8.167,4.2s-8.168-1.925-8.168-4.2v-1.792c1.429,1.72,4.5,2.884,8.168,2.884s6.738-1.164,8.167-2.884Zm-8.167.232c-4.431,0-8.168-1.925-8.168-4.2s3.737-4.2,8.168-4.2,8.167,1.925,8.167,4.2S440.043,280.606,435.613,280.606Z"
       class="cls-6" />
  </g>
  <g
     id="g362">
    <path
       id="path356"
       d="M430.816,294.37a2.529,2.529,0,1,1,2.6-2.528A2.537,2.537,0,0,1,430.816,294.37Zm0-4.125a1.6,1.6,0,1,0,1.555,1.6A1.542,1.542,0,0,0,430.816,290.245Z"
       class="cls-6" />
    <path
       id="path358"
       d="M434.266,292.787a2.433,2.433,0,0,0,1.661.715c.608,0,1-.239,1-.617,0-.336-.224-.5-.806-.6l-.974-.168c-.84-.14-1.281-.6-1.281-1.31,0-.917.742-1.485,1.933-1.485a3.408,3.408,0,0,1,2.024.687l-.546.756a2.5,2.5,0,0,0-1.548-.588c-.547,0-.9.217-.9.553,0,.3.2.455.7.532l.925.155c.98.161,1.463.623,1.463,1.379,0,.96-.805,1.569-2.066,1.569a3.249,3.249,0,0,1-2.171-.847Z"
       class="cls-6" />
    <path
       id="path360"
       d="M438.529,289.39h1.884a2.455,2.455,0,1,1,0,4.9h-1.884Zm1.016.9v3.1h.861a1.548,1.548,0,1,0,0-3.1Z"
       class="cls-6" />
  </g>
  <g
     id="g370">
    <ellipse
       id="ellipse364"
       ry="4.199"
       rx="8.167"
       cy="276.407"
       cx="474.92"
       class="cls-5" />
    <path
       id="path366"
       d="M474.92,281.466c-3.663,0-6.739-1.164-8.167-2.884v1.792c0,2.275,3.736,4.2,8.167,4.2s8.168-1.925,8.168-4.2v-1.792C481.659,280.3,478.584,281.466,474.92,281.466Z"
       class="cls-5" />
    <path
       id="path368"
       d="M474.92,271.348c-5.059,0-9.027,2.221-9.027,5.059v3.967c0,2.837,3.968,5.059,9.027,5.059s9.027-2.222,9.027-5.059v-3.967C483.947,273.569,479.979,271.348,474.92,271.348Zm8.168,9.026c0,2.275-3.737,4.2-8.168,4.2s-8.167-1.925-8.167-4.2v-1.792c1.428,1.72,4.5,2.884,8.167,2.884s6.739-1.164,8.168-2.884Zm-8.168.232c-4.431,0-8.167-1.925-8.167-4.2s3.736-4.2,8.167-4.2,8.168,1.925,8.168,4.2S479.351,280.606,474.92,280.606Z"
       class="cls-6" />
  </g>
  <g
     id="g378">
    <path
       id="path372"
       d="M470.124,294.37a2.529,2.529,0,1,1,2.6-2.528A2.537,2.537,0,0,1,470.124,294.37Zm0-4.125a1.6,1.6,0,1,0,1.554,1.6A1.542,1.542,0,0,0,470.124,290.245Z"
       class="cls-6" />
    <path
       id="path374"
       d="M473.573,292.787a2.429,2.429,0,0,0,1.66.715c.609,0,1-.239,1-.617,0-.336-.223-.5-.806-.6l-.973-.168c-.84-.14-1.281-.6-1.281-1.31,0-.917.742-1.485,1.932-1.485a3.409,3.409,0,0,1,2.025.687l-.546.756a2.5,2.5,0,0,0-1.548-.588c-.547,0-.9.217-.9.553,0,.3.2.455.7.532l.924.155c.981.161,1.463.623,1.463,1.379,0,.96-.8,1.569-2.065,1.569a3.249,3.249,0,0,1-2.171-.847Z"
       class="cls-6" />
    <path
       id="path376"
       d="M477.837,289.39h1.883a2.455,2.455,0,1,1,0,4.9h-1.883Zm1.015.9v3.1h.862a1.548,1.548,0,0,0,0-3.1Z"
       class="cls-6" />
  </g>
  <g
     id="g386">
    <ellipse
       id="ellipse380"
       ry="4.199"
       rx="8.167"
       cy="276.407"
       cx="514.228"
       class="cls-5" />
    <path
       id="path382"
       d="M514.228,281.466c-3.664,0-6.739-1.164-8.167-2.884v1.792c0,2.275,3.736,4.2,8.167,4.2s8.167-1.925,8.167-4.2v-1.792C520.967,280.3,517.892,281.466,514.228,281.466Z"
       class="cls-5" />
    <path
       id="path384"
       d="M514.228,271.348c-5.059,0-9.027,2.221-9.027,5.059v3.967c0,2.837,3.968,5.059,9.027,5.059s9.027-2.222,9.027-5.059v-3.967C523.255,273.569,519.287,271.348,514.228,271.348Zm8.167,9.026c0,2.275-3.736,4.2-8.167,4.2s-8.167-1.925-8.167-4.2v-1.792c1.428,1.72,4.5,2.884,8.167,2.884s6.739-1.164,8.167-2.884Zm-8.167.232c-4.431,0-8.167-1.925-8.167-4.2s3.736-4.2,8.167-4.2,8.167,1.925,8.167,4.2S518.659,280.606,514.228,280.606Z"
       class="cls-6" />
  </g>
  <g
     id="g394">
    <path
       id="path388"
       d="M509.431,294.37a2.529,2.529,0,1,1,2.6-2.528A2.536,2.536,0,0,1,509.431,294.37Zm0-4.125a1.6,1.6,0,1,0,1.555,1.6A1.541,1.541,0,0,0,509.431,290.245Z"
       class="cls-6" />
    <path
       id="path390"
       d="M512.882,292.787a2.429,2.429,0,0,0,1.66.715c.608,0,1-.239,1-.617,0-.336-.224-.5-.806-.6l-.974-.168c-.839-.14-1.281-.6-1.281-1.31,0-.917.742-1.485,1.933-1.485a3.406,3.406,0,0,1,2.024.687l-.546.756a2.494,2.494,0,0,0-1.548-.588c-.546,0-.9.217-.9.553,0,.3.2.455.7.532l.925.155c.98.161,1.463.623,1.463,1.379,0,.96-.805,1.569-2.066,1.569a3.245,3.245,0,0,1-2.17-.847Z"
       class="cls-6" />
    <path
       id="path392"
       d="M517.144,289.39h1.884a2.455,2.455,0,1,1,0,4.9h-1.884Zm1.016.9v3.1h.861a1.548,1.548,0,1,0,0-3.1Z"
       class="cls-6" />
  </g>
  <g
     id="g402">
    <ellipse
       id="ellipse396"
       ry="4.199"
       rx="8.167"
       cy="276.407"
       cx="553.536"
       class="cls-5" />
    <path
       id="path398"
       d="M553.536,281.466c-3.664,0-6.739-1.164-8.168-2.884v1.792c0,2.275,3.737,4.2,8.168,4.2s8.167-1.925,8.167-4.2v-1.792C560.274,280.3,557.2,281.466,553.536,281.466Z"
       class="cls-5" />
    <path
       id="path400"
       d="M553.536,271.348c-5.059,0-9.027,2.221-9.027,5.059v3.967c0,2.837,3.968,5.059,9.027,5.059s9.027-2.222,9.027-5.059v-3.967C562.563,273.569,558.6,271.348,553.536,271.348Zm8.167,9.026c0,2.275-3.737,4.2-8.167,4.2s-8.168-1.925-8.168-4.2v-1.792c1.429,1.72,4.5,2.884,8.168,2.884s6.738-1.164,8.167-2.884Zm-8.167.232c-4.431,0-8.168-1.925-8.168-4.2s3.737-4.2,8.168-4.2,8.167,1.925,8.167,4.2S557.966,280.606,553.536,280.606Z"
       class="cls-6" />
  </g>
  <g
     id="g410">
    <path
       id="path404"
       d="M548.739,294.37a2.529,2.529,0,1,1,2.6-2.528A2.537,2.537,0,0,1,548.739,294.37Zm0-4.125a1.6,1.6,0,1,0,1.555,1.6A1.542,1.542,0,0,0,548.739,290.245Z"
       class="cls-6" />
    <path
       id="path406"
       d="M552.188,292.787a2.431,2.431,0,0,0,1.66.715c.609,0,1-.239,1-.617,0-.336-.223-.5-.805-.6l-.974-.168c-.84-.14-1.281-.6-1.281-1.31,0-.917.742-1.485,1.932-1.485a3.409,3.409,0,0,1,2.025.687l-.546.756a2.5,2.5,0,0,0-1.548-.588c-.547,0-.9.217-.9.553,0,.3.2.455.7.532l.925.155c.98.161,1.463.623,1.463,1.379,0,.96-.805,1.569-2.066,1.569a3.249,3.249,0,0,1-2.171-.847Z"
       class="cls-6" />
    <path
       id="path408"
       d="M556.452,289.39h1.884a2.455,2.455,0,1,1,0,4.9h-1.884Zm1.016.9v3.1h.861a1.548,1.548,0,1,0,0-3.1Z"
       class="cls-6" />
  </g>
  <g
     id="g458">
    <g
       id="g430">
      <path
         id="path412"
         d="M273.69,72.844h1.2V78.8h3.728v1.04H273.69Z"
         class="cls-7" />
      <path
         id="path414"
         d="M279.66,73.124a.7.7,0,0,1,1.409,0,.7.7,0,0,1-1.409,0Zm1.269,6.716H279.8V74.833h1.129Z"
         class="cls-7" />
      <path
         id="path416"
         d="M282.319,74.833h1.13v.82a1.817,1.817,0,0,1,1.589-.9,1.685,1.685,0,0,1,1.729,1.789v3.3h-1.13V76.861a1.078,1.078,0,0,0-1.1-1.2,1.284,1.284,0,0,0-1.089.6V79.84h-1.13Z"
         class="cls-7" />
      <path
         id="path418"
         d="M289.239,77.811a1.078,1.078,0,0,0,1.1,1.2,1.263,1.263,0,0,0,1.1-.619V74.833h1.129V79.84h-1.129v-.83a1.831,1.831,0,0,1-1.6.91,1.679,1.679,0,0,1-1.729-1.789v-3.3h1.129Z"
         class="cls-7" />
      <path
         id="path420"
         d="M295.26,77.291l-1.83-2.458h1.32l1.169,1.649,1.17-1.649h1.258l-1.8,2.428,1.939,2.579h-1.33L295.9,78.071l-1.26,1.769h-1.258Z"
         class="cls-7" />
      <path
         id="path422"
         d="M301.64,72.844h1.2v2.948h3.477V72.844h1.2v7h-1.2v-3H302.84v3h-1.2Z"
         class="cls-7" />
      <path
         id="path424"
         d="M311.3,74.753a2.595,2.595,0,1,1-2.519,2.588A2.5,2.5,0,0,1,311.3,74.753Zm1.4,2.6a1.416,1.416,0,1,0-2.8,0,1.413,1.413,0,1,0,2.8,0Z"
         class="cls-7" />
      <path
         id="path426"
         d="M315.069,78.5a2.893,2.893,0,0,0,1.609.569c.6,0,1.01-.27,1.01-.669,0-.31-.21-.48-.689-.57l-.89-.15c-.97-.18-1.449-.63-1.449-1.379,0-.94.769-1.549,1.938-1.549a3.518,3.518,0,0,1,1.969.6l-.529.739a2.738,2.738,0,0,0-1.509-.48c-.52,0-.86.22-.86.59,0,.32.18.46.71.55l.88.16c1,.19,1.478.649,1.478,1.4A1.835,1.835,0,0,1,316.7,79.94a3.355,3.355,0,0,1-2.158-.68Z"
         class="cls-7" />
      <path
         id="path428"
         d="M320.4,75.732h-1.01v-.9h1.01v-1.38l1.129-.239v1.619h1.4v.9h-1.4v2.539c0,.489.191.679.7.679a2.071,2.071,0,0,0,.68-.119v.949a3.554,3.554,0,0,1-.97.14c-1.01,0-1.539-.48-1.539-1.4Z"
         class="cls-7" />
    </g>
    <g
       id="g456">
      <g
         id="g438">
        <rect
           id="rect432"
           height="10.731"
           width="42.924"
           y="56.158"
           x="276.573"
           class="cls-8" />
        <line
           id="line434"
           y2="61.523"
           x2="314.909"
           y1="61.523"
           x1="314.909"
           class="cls-9" />
        <line
           id="line436"
           y2="61.523"
           x2="288.268"
           y1="61.523"
           x1="281.83"
           class="cls-9" />
      </g>
      <g
         id="g446">
        <rect
           id="rect440"
           height="10.731"
           width="42.924"
           y="41.33"
           x="276.573"
           class="cls-8" />
        <line
           id="line442"
           y2="46.695"
           x2="314.909"
           y1="46.695"
           x1="314.909"
           class="cls-9" />
        <line
           id="line444"
           y2="46.695"
           x2="288.268"
           y1="46.695"
           x1="281.83"
           class="cls-9" />
      </g>
      <g
         id="g454">
        <rect
           id="rect448"
           height="10.731"
           width="42.924"
           y="26.501"
           x="276.573"
           class="cls-8" />
        <line
           id="line450"
           y2="31.867"
           x2="314.909"
           y1="31.867"
           x1="314.909"
           class="cls-9" />
        <line
           id="line452"
           y2="31.867"
           x2="288.268"
           y1="31.867"
           x1="281.83"
           class="cls-9" />
      </g>
    </g>
  </g>
  <g
     id="g468">
    <path
       id="path460"
       d="M284.985,98.975h1.2v3.2l3.038-3.2h1.459l-3.318,3.368,3.448,3.628h-1.589l-3.038-3.288v3.288h-1.2Z"
       class="cls-7" />
    <path
       id="path462"
       d="M291.665,98.975h3.108a2.132,2.132,0,0,1,2.338,2.119,1.988,1.988,0,0,1-1.379,1.919l1.47,2.958h-1.33l-1.349-2.8h-1.659v2.8h-1.2Zm1.2,1.01v2.229h1.809a1.12,1.12,0,1,0,0-2.229Z"
       class="cls-7" />
    <path
       id="path464"
       d="M301.494,98.975c1.319,0,2.208.74,2.208,1.839a1.676,1.676,0,0,1-1.119,1.549,1.75,1.75,0,0,1,1.359,1.66,2.04,2.04,0,0,1-2.308,1.948h-3.248v-7Zm-1.909.98v1.959h1.789c.689,0,1.129-.38,1.129-.98s-.44-.979-1.129-.979Zm3.148,3.957a1.092,1.092,0,0,0-1.239-1.069h-1.909v2.149h1.909A1.1,1.1,0,0,0,302.733,103.912Z"
       class="cls-7" />
    <path
       id="path466"
       d="M305.345,98.975H307.9a3.5,3.5,0,1,1,0,7h-2.559Zm1.2,1.04v4.917h1.388a2.469,2.469,0,0,0,0-4.917Z"
       class="cls-7" />
  </g>
  <g
     id="g494">
    <path
       id="path470"
       d="M259.856,312.388h3.763a2.427,2.427,0,0,1,2.662,2.387,2.287,2.287,0,0,1-1.508,2.146l1.706,3.168H264.7l-1.508-2.948h-1.738v2.948h-1.6Zm1.6,1.375v2.068h2.024a1.044,1.044,0,1,0,0-2.068Z" />
    <path
       id="path472"
       d="M269.866,312.388h1.849l3.124,7.7h-1.727l-.781-2.024h-3.18l-.792,2.024H266.7Zm1.98,4.4-1.088-2.839-1.112,2.839Z" />
    <path
       id="path474"
       d="M275.487,312.388h2.959a3.856,3.856,0,1,1,0,7.7h-2.959Zm1.595,1.419v4.863h1.353a2.432,2.432,0,1,0,0-4.863Z" />
    <path
       id="path476"
       d="M287.389,320.21a3.973,3.973,0,1,1,4.081-3.972A3.985,3.985,0,0,1,287.389,320.21Zm0-6.48a2.509,2.509,0,1,0,2.443,2.508A2.423,2.423,0,0,0,287.389,313.73Z" />
    <path
       id="path478"
       d="M292.811,317.724a3.816,3.816,0,0,0,2.608,1.122c.957,0,1.573-.374,1.573-.968,0-.528-.353-.792-1.266-.946l-1.529-.264c-1.32-.221-2.013-.935-2.013-2.058,0-1.441,1.166-2.332,3.036-2.332a5.35,5.35,0,0,1,3.18,1.078l-.858,1.188a3.919,3.919,0,0,0-2.432-.924c-.857,0-1.408.341-1.408.869,0,.473.309.715,1.1.836l1.452.243c1.54.252,2.3.979,2.3,2.167,0,1.507-1.264,2.464-3.245,2.464a5.105,5.105,0,0,1-3.41-1.331Z" />
    <path
       id="path480"
       d="M305.792,318.241l.9.935a3.183,3.183,0,0,1-2.333,1.023,2.976,2.976,0,1,1,0-5.952,3.224,3.224,0,0,1,2.377,1.023l-.924.98a1.861,1.861,0,0,0-1.42-.694,1.665,1.665,0,0,0,.034,3.323A1.779,1.779,0,0,0,305.792,318.241Z" />
    <path
       id="path482"
       d="M308.981,320.089h-1.508v-7.7l1.508-.33Z" />
    <path
       id="path484"
       d="M311.622,317.691a1.125,1.125,0,0,0,1.187,1.21,1.38,1.38,0,0,0,1.189-.572v-3.972h1.507v5.732H314v-.462a2.442,2.442,0,0,1-1.617.572,2.184,2.184,0,0,1-2.267-2.288v-3.554h1.508Z" />
    <path
       id="path486"
       d="M316.945,318.406a3.337,3.337,0,0,0,1.859.649c.671,0,1.111-.242,1.111-.605,0-.3-.22-.462-.715-.539l-1.1-.165c-1.133-.177-1.738-.738-1.738-1.661,0-1.112.924-1.816,2.387-1.816a4.221,4.221,0,0,1,2.354.716l-.725.967a3.387,3.387,0,0,0-1.772-.549c-.55,0-.9.219-.9.561,0,.308.22.461.781.539l1.1.165c1.123.165,1.75.748,1.75,1.639,0,1.078-1.068,1.892-2.509,1.892a4.221,4.221,0,0,1-2.629-.792Z" />
    <path
       id="path488"
       d="M322.753,315.622h-1.177v-1.265h1.177v-1.463l1.508-.341v1.8h1.627v1.265h-1.627v2.542c0,.539.208.737.792.737a2.313,2.313,0,0,0,.8-.132V320a4.675,4.675,0,0,1-1.166.176c-1.276,0-1.936-.583-1.936-1.705Z" />
    <path
       id="path490"
       d="M329.4,320.2a2.984,2.984,0,0,1-3.08-2.97,2.926,2.926,0,0,1,2.948-2.971,2.894,2.894,0,0,1,2.839,3.081v.4h-4.268a1.651,1.651,0,0,0,1.628,1.2,1.8,1.8,0,0,0,1.264-.462l.991.9A3.44,3.44,0,0,1,329.4,320.2Zm-1.573-3.543h2.806a1.48,1.48,0,0,0-1.4-1.155A1.44,1.44,0,0,0,327.824,316.656Z" />
    <path
       id="path492"
       d="M333.026,314.357h1.508v.628a1.821,1.821,0,0,1,1.529-.76,1.3,1.3,0,0,1,.627.132v1.32a1.927,1.927,0,0,0-.77-.153,1.515,1.515,0,0,0-1.386.858v3.707h-1.508Z" />
  </g>
  <g
     id="g502">
    <polyline
       id="polyline496"
       points="81.065 217.804 81.065 167.326 298.036 167.326 298.036 120.013"
       class="cls-10" />
    <polygon
       id="polygon498"
       points="84.805 216.71 81.066 223.186 77.326 216.71 84.805 216.71"
       class="cls-6" />
    <polygon
       id="polygon500"
       points="301.775 121.107 298.036 114.631 294.296 121.107 301.775 121.107"
       class="cls-6" />
  </g>
  <g
     id="g510">
    <polyline
       id="polyline504"
       points="514.229 217.804 514.229 167.326 298.036 167.326 298.036 120.013"
       class="cls-10" />
    <polygon
       id="polygon506"
       points="517.968 216.71 514.229 223.186 510.489 216.71 517.968 216.71"
       class="cls-6" />
    <polygon
       id="polygon508"
       points="301.775 121.107 298.036 114.631 294.296 121.107 301.775 121.107"
       class="cls-6" />
  </g>
  <g
     id="g516">
    <line
       id="line512"
       y2="167.326"
       x2="199.767"
       y1="217.804"
       x1="199.767"
       class="cls-10" />
    <polygon
       id="polygon514"
       points="203.506 216.71 199.767 223.186 196.027 216.71 203.506 216.71"
       class="cls-6" />
  </g>
  <g
     id="g522">
    <line
       id="line518"
       y2="167.326"
       x2="239.074"
       y1="217.804"
       x1="239.074"
       class="cls-10" />
    <polygon
       id="polygon520"
       points="242.813 216.71 239.074 223.186 235.335 216.71 242.813 216.71"
       class="cls-6" />
  </g>
  <g
     id="g528">
    <line
       id="line524"
       y2="167.326"
       x2="356.997"
       y1="217.804"
       x1="356.997"
       class="cls-10" />
    <polygon
       id="polygon526"
       points="360.737 216.71 356.998 223.186 353.258 216.71 360.737 216.71"
       class="cls-6" />
  </g>
  <g
     id="g536">
    <path
       id="path530"
       d="M389.455,249.684v3.607h-.939v-4.9h1.3l1.345,2.633,1.345-2.633h1.3v4.9h-.96v-3.6l-1.7,3.249Z"
       class="cls-6" />
    <path
       id="path532"
       d="M397.093,253.368a2.529,2.529,0,1,1,2.6-2.528A2.536,2.536,0,0,1,397.093,253.368Zm0-4.125a1.6,1.6,0,1,0,1.554,1.6A1.543,1.543,0,0,0,397.093,249.243Z"
       class="cls-6" />
    <path
       id="path534"
       d="M401.347,248.389l2.438,3.173v-3.173h.952v4.9h-.9l-2.5-3.277v3.277h-.959v-4.9Z"
       class="cls-6" />
  </g>
  <g
     id="g560">
    <path
       id="path538"
       d="M405.59,229.011H391.52v12.57h14.07Zm-10.035,3.75h-.285V239.8a.465.465,0,0,1-.93,0v-7.035h-.285a.465.465,0,1,1,0-.93h.285V230.8h0a.465.465,0,0,1,.93,0v1.035h.285a.465.465,0,1,1,0,.93Zm3.75,5.25h-.285V239.8a.465.465,0,0,1-.93,0v-1.785h-.285a.465.465,0,1,1,0-.93h.285V230.8a.465.465,0,0,1,.93,0v6.285h.285a.465.465,0,1,1,0,.93Zm3.75-2.25h-.285V239.8a.465.465,0,0,1-.93,0v-4.035h-.285a.465.465,0,1,1,0-.93h.285V230.8a.465.465,0,0,1,.93,0v4.035h.285a.465.465,0,1,1,0,.93Z"
       class="cls-5" />
    <path
       id="path540"
       d="M390.59,229.011h-3.57v12.57h3.57Zm-1.785,11.25a.465.465,0,1,1,.465-.465A.465.465,0,0,1,388.805,240.261Zm0-2.25a.465.465,0,1,1,.465-.465A.465.465,0,0,1,388.805,238.011Zm0-2.25a.465.465,0,1,1,.465-.465A.465.465,0,0,1,388.805,235.761Zm0-2.25a.465.465,0,1,1,.465-.465A.465.465,0,0,1,388.805,233.511Zm0-2.25a.465.465,0,1,1,.465-.465A.465.465,0,0,1,388.805,231.261Z"
       class="cls-5" />
    <path
       id="path542"
       d="M406.055,242.511a.465.465,0,0,0,.465-.465v-13.5a.465.465,0,0,0-.465-.465h-19.5a.465.465,0,0,0-.465.465v13.5a.465.465,0,0,0,.465.465Zm-14.535-13.5h14.07v12.57H391.52Zm-4.5,0h3.57v12.57h-3.57Z"
       class="cls-6" />
    <path
       id="path544"
       d="M395.555,231.831h-.285V230.8a.465.465,0,0,0-.93,0h0v1.035h-.285a.465.465,0,1,0,0,.93h.285V239.8a.465.465,0,0,0,.93,0v-7.035h.285a.465.465,0,1,0,0-.93Z"
       class="cls-6" />
    <path
       id="path546"
       d="M399.305,237.081h-.285V230.8a.465.465,0,0,0-.93,0v6.285h-.285a.465.465,0,1,0,0,.93h.285V239.8a.465.465,0,0,0,.93,0v-1.785h.285a.465.465,0,1,0,0-.93Z"
       class="cls-6" />
    <path
       id="path548"
       d="M403.055,234.831h-.285V230.8a.465.465,0,0,0-.93,0v4.035h-.285a.465.465,0,1,0,0,.93h.285V239.8a.465.465,0,0,0,.93,0v-4.035h.285a.465.465,0,1,0,0-.93Z"
       class="cls-6" />
    <path
       id="path550"
       d="M388.805,230.331a.465.465,0,1,0,.465.465A.465.465,0,0,0,388.805,230.331Z"
       class="cls-6" />
    <circle
       id="circle552"
       r="0.465"
       cy="239.796"
       cx="388.805"
       class="cls-6" />
    <circle
       id="circle554"
       r="0.465"
       cy="237.546"
       cx="388.805"
       class="cls-6" />
    <circle
       id="circle556"
       r="0.465"
       cy="235.296"
       cx="388.805"
       class="cls-6" />
    <path
       id="path558"
       d="M388.805,232.581a.465.465,0,1,0,.465.465A.465.465,0,0,0,388.805,232.581Z"
       class="cls-6" />
  </g>
  <g
     id="g568">
    <path
       id="path562"
       d="M153.609,249.684v3.607h-.938v-4.9h1.3l1.345,2.633,1.345-2.633h1.3v4.9h-.96v-3.6l-1.7,3.249Z"
       class="cls-6" />
    <path
       id="path564"
       d="M161.247,253.368a2.529,2.529,0,1,1,2.6-2.528A2.537,2.537,0,0,1,161.247,253.368Zm0-4.125a1.6,1.6,0,1,0,1.555,1.6A1.542,1.542,0,0,0,161.247,249.243Z"
       class="cls-6" />
    <path
       id="path566"
       d="M165.5,248.389l2.437,3.173v-3.173h.952v4.9H168l-2.5-3.277v3.277h-.96v-4.9Z"
       class="cls-6" />
  </g>
  <g
     id="g592">
    <path
       id="path570"
       d="M169.744,229.011h-14.07v12.57h14.07Zm-10.035,3.75h-.285V239.8a.465.465,0,0,1-.93,0v-7.035h-.285a.465.465,0,0,1,0-.93h.285V230.8h0a.465.465,0,0,1,.93,0v1.035h.285a.465.465,0,0,1,0,.93Zm3.75,5.25h-.285V239.8a.465.465,0,0,1-.93,0v-1.785h-.285a.465.465,0,0,1,0-.93h.285V230.8a.465.465,0,0,1,.93,0v6.285h.285a.465.465,0,0,1,0,.93Zm3.75-2.25h-.285V239.8a.465.465,0,0,1-.93,0v-4.035h-.285a.465.465,0,0,1,0-.93h.285V230.8a.465.465,0,0,1,.93,0v4.035h.285a.465.465,0,0,1,0,.93Z"
       class="cls-5" />
    <path
       id="path572"
       d="M154.744,229.011h-3.57v12.57h3.57Zm-1.785,11.25a.465.465,0,1,1,.465-.465A.465.465,0,0,1,152.959,240.261Zm0-2.25a.465.465,0,1,1,.465-.465A.465.465,0,0,1,152.959,238.011Zm0-2.25a.465.465,0,1,1,.465-.465A.465.465,0,0,1,152.959,235.761Zm0-2.25a.465.465,0,1,1,.465-.465A.465.465,0,0,1,152.959,233.511Zm0-2.25a.465.465,0,1,1,.465-.465A.465.465,0,0,1,152.959,231.261Z"
       class="cls-5" />
    <path
       id="path574"
       d="M170.209,242.511a.465.465,0,0,0,.465-.465v-13.5a.465.465,0,0,0-.465-.465h-19.5a.465.465,0,0,0-.465.465v13.5a.465.465,0,0,0,.465.465Zm-14.535-13.5h14.07v12.57h-14.07Zm-4.5,0h3.57v12.57h-3.57Z"
       class="cls-6" />
    <path
       id="path576"
       d="M159.709,231.831h-.285V230.8a.465.465,0,0,0-.93,0h0v1.035h-.285a.465.465,0,0,0,0,.93h.285V239.8a.465.465,0,0,0,.93,0v-7.035h.285a.465.465,0,0,0,0-.93Z"
       class="cls-6" />
    <path
       id="path578"
       d="M163.459,237.081h-.285V230.8a.465.465,0,0,0-.93,0v6.285h-.285a.465.465,0,0,0,0,.93h.285V239.8a.465.465,0,0,0,.93,0v-1.785h.285a.465.465,0,0,0,0-.93Z"
       class="cls-6" />
    <path
       id="path580"
       d="M167.209,234.831h-.285V230.8a.465.465,0,0,0-.93,0v4.035h-.285a.465.465,0,0,0,0,.93h.285V239.8a.465.465,0,0,0,.93,0v-4.035h.285a.465.465,0,0,0,0-.93Z"
       class="cls-6" />
    <path
       id="path582"
       d="M152.959,230.331a.465.465,0,1,0,.465.465A.465.465,0,0,0,152.959,230.331Z"
       class="cls-6" />
    <circle
       id="circle584"
       r="0.465"
       cy="239.796"
       cx="152.959"
       class="cls-6" />
    <circle
       id="circle586"
       r="0.465"
       cy="237.546"
       cx="152.959"
       class="cls-6" />
    <circle
       id="circle588"
       r="0.465"
       cy="235.296"
       cx="152.959"
       class="cls-6" />
    <path
       id="path590"
       d="M152.959,232.581a.465.465,0,1,0,.465.465A.465.465,0,0,0,152.959,232.581Z"
       class="cls-6" />
  </g>
  <g
     id="g622">
    <g
       id="g600">
      <path
         id="path594"
         d="M74.981,249.684v3.607h-.938v-4.9h1.3l1.345,2.634,1.345-2.634h1.3v4.9h-.96v-3.6l-1.7,3.25Z"
         class="cls-6" />
      <path
         id="path596"
         d="M82.626,253.368a2.529,2.529,0,1,1-.014-5.056,2.626,2.626,0,0,1,2.038.917l-.708.652a1.689,1.689,0,0,0-1.33-.638,1.532,1.532,0,0,0-1.541,1.6,1.557,1.557,0,0,0,1.568,1.6A1.32,1.32,0,0,0,84,251.421h-1.45v-.882h2.535v.308A2.42,2.42,0,0,1,82.626,253.368Z"
         class="cls-6" />
      <path
         id="path598"
         d="M85.774,248.388h2.4a1.545,1.545,0,0,1,1.694,1.52,1.455,1.455,0,0,1-.959,1.366l1.085,2.017H88.855l-.959-1.877H86.79v1.877H85.774Zm1.016.876v1.317h1.288a.665.665,0,1,0,0-1.317Z"
         class="cls-6" />
    </g>
    <g
       id="g620">
      <path
         id="path602"
         d="M83.755,238.819a.381.381,0,0,1-.37-.29,4.383,4.383,0,0,0-.426-1.023.383.383,0,0,1,.062-.462l.962-.962a6.088,6.088,0,0,0-1.067-1.073l-.955.956a.383.383,0,0,1-.469.055,4.153,4.153,0,0,0-1.035-.437.383.383,0,0,1-.284-.37v-1.356a5.379,5.379,0,0,0-1.51,0V235.2a.39.39,0,0,1-.29.377,4.119,4.119,0,0,0-1.067.431.382.382,0,0,1-.462-.062l-.962-.961a6.043,6.043,0,0,0-1.072,1.066l.955.956a.383.383,0,0,1,.056.468,4.112,4.112,0,0,0-.45,1.073.382.382,0,0,1-.37.283h-1.35a5.211,5.211,0,0,0,0,1.517H75a.383.383,0,0,1,.37.283,4.1,4.1,0,0,0,.45,1.073.384.384,0,0,1-.056.469l-.955.955a6.082,6.082,0,0,0,1.072,1.067l.962-.962a.382.382,0,0,1,.462-.062,4.121,4.121,0,0,0,1.067.432.388.388,0,0,1,.29.376v1.331a5.379,5.379,0,0,0,1.51,0v-1.356a.383.383,0,0,1,.284-.37,4.153,4.153,0,0,0,1.035-.437.383.383,0,0,1,.469.055l.955.956a6.088,6.088,0,0,0,1.067-1.073l-.962-.962a.383.383,0,0,1-.062-.462,4.383,4.383,0,0,0,.426-1.023.381.381,0,0,1,.37-.29h1.35v-.012a5.211,5.211,0,0,0,0-1.517Zm-4.377,2.916a2.146,2.146,0,1,1,2.145-2.145A2.146,2.146,0,0,1,79.378,241.735Z"
         class="cls-5" />
      <path
         id="path604"
         d="M79.378,238.215a1.375,1.375,0,1,0,1.374,1.375A1.374,1.374,0,0,0,79.378,238.215Z"
         class="cls-5" />
      <path
         id="path606"
         d="M86.387,236.544a3.162,3.162,0,0,0,.807-.339.384.384,0,0,1,.469.056l.715.715a4.536,4.536,0,0,0,.746-.752l-.721-.715a.389.389,0,0,1-.062-.469,3.106,3.106,0,0,0,.333-.8.382.382,0,0,1,.37-.284h1.011a3.84,3.84,0,0,0,0-1.06H89.044a.382.382,0,0,1-.37-.284,3.106,3.106,0,0,0-.333-.8.389.389,0,0,1,.062-.469l.721-.715a4.536,4.536,0,0,0-.746-.752l-.715.715a.383.383,0,0,1-.469.056,3.162,3.162,0,0,0-.807-.339.388.388,0,0,1-.284-.376v-1.024a4.322,4.322,0,0,0-1.054,0v1.011a.388.388,0,0,1-.3.37,3.055,3.055,0,0,0-.826.339.387.387,0,0,1-.468-.061l-.715-.722a4.536,4.536,0,0,0-.752.746l.715.715a.383.383,0,0,1,.055.469,3.315,3.315,0,0,0-.351.838h0a.31.31,0,0,1-.036.073l1.809,1.077c.538-1.61.917-2.022,2.363-1.275.971,1.332.508,1.83-1.34,2.4l1.01,1.8A.375.375,0,0,1,86.387,236.544Zm-1.181-1.661a.389.389,0,0,1,.336-.435,1.023,1.023,0,1,0-1.023-1.023.389.389,0,0,1-.771,0,1.794,1.794,0,1,1,1.794,1.794A.388.388,0,0,1,85.206,234.883Z"
         class="cls-5" />
      <path
         id="path608"
         d="M85.431,238.061H84.044a5.133,5.133,0,0,0-.271-.666l.986-.986a.383.383,0,0,0,.044-.487,6.555,6.555,0,0,0-1.727-1.72.382.382,0,0,0-.493.043l-.98.98a5.063,5.063,0,0,0-.678-.29v-1.393a.375.375,0,0,0-.308-.376,6.322,6.322,0,0,0-2.429,0,.388.388,0,0,0-.314.382v1.381a5.432,5.432,0,0,0-.709.284l-.987-.987a.383.383,0,0,0-.487-.043,6.593,6.593,0,0,0-1.7,1.708.382.382,0,0,0,.043.493l.98.98a4.989,4.989,0,0,0-.3.715H73.324a.4.4,0,0,0-.382.315,6.7,6.7,0,0,0,0,2.429.4.4,0,0,0,.382.314h1.387a4.989,4.989,0,0,0,.3.715l-.98.962a.382.382,0,0,0-.043.493,6.378,6.378,0,0,0,1.72,1.707.382.382,0,0,0,.487-.043l.986-.986a5.489,5.489,0,0,0,.709.284v1.38a.39.39,0,0,0,.314.383,6.49,6.49,0,0,0,1.172.1,6.228,6.228,0,0,0,1.233-.123.376.376,0,0,0,.308-.376v-1.393a5.063,5.063,0,0,0,.678-.29l.98.98a.381.381,0,0,0,.493.043,6.551,6.551,0,0,0,1.733-1.689.383.383,0,0,0-.044-.487l-.986-.986a5.133,5.133,0,0,0,.271-.666h1.387a.4.4,0,0,0,.383-.314,6.745,6.745,0,0,0,0-2.429A.394.394,0,0,0,85.431,238.061Zm-.326,2.275v.012h-1.35a.381.381,0,0,0-.37.29,4.383,4.383,0,0,1-.426,1.023.383.383,0,0,0,.062.462l.962.962a6.088,6.088,0,0,1-1.067,1.073l-.955-.956a.383.383,0,0,0-.469-.055,4.153,4.153,0,0,1-1.035.437.383.383,0,0,0-.284.37v1.356a5.379,5.379,0,0,1-1.51,0v-1.331a.388.388,0,0,0-.29-.376,4.121,4.121,0,0,1-1.067-.432.382.382,0,0,0-.462.062l-.962.962a6.082,6.082,0,0,1-1.072-1.067l.955-.955a.384.384,0,0,0,.056-.469,4.1,4.1,0,0,1-.45-1.073.383.383,0,0,0-.37-.283h-1.35a5.211,5.211,0,0,1,0-1.517H75a.382.382,0,0,0,.37-.283,4.112,4.112,0,0,1,.45-1.073.383.383,0,0,0-.056-.468l-.955-.956a6.043,6.043,0,0,1,1.072-1.066l.962.961a.382.382,0,0,0,.462.062,4.119,4.119,0,0,1,1.067-.431.39.39,0,0,0,.29-.377v-1.343a5.379,5.379,0,0,1,1.51,0v1.356a.383.383,0,0,0,.284.37,4.153,4.153,0,0,1,1.035.437.383.383,0,0,0,.469-.055l.955-.956a6.088,6.088,0,0,1,1.067,1.073l-.962.962a.383.383,0,0,0-.062.462,4.383,4.383,0,0,1,.426,1.023.381.381,0,0,0,.37.29h1.35A5.211,5.211,0,0,1,85.105,240.336Z"
         class="cls-6" />
      <path
         id="path610"
         d="M79.378,237.444a2.146,2.146,0,1,0,2.145,2.146A2.146,2.146,0,0,0,79.378,237.444Zm0,3.52a1.375,1.375,0,1,1,1.374-1.374A1.374,1.374,0,0,1,79.378,240.964Z"
         class="cls-6" />
      <path
         id="path612"
         d="M86.161,237.045a.388.388,0,0,0,.429.245c.054-.014.106-.034.159-.051l-.533-.555A.381.381,0,0,0,86.161,237.045Z"
         class="cls-6" />
      <path
         id="path614"
         d="M81.665,232.414a.388.388,0,0,0,.277.469.377.377,0,0,0,.432-.2l-.583-.607C81.75,232.191,81.7,232.3,81.665,232.414Z"
         class="cls-6" />
      <path
         id="path616"
         d="M88.07,237.74a.377.377,0,0,0,.271.111.417.417,0,0,0,.222-.068,5.426,5.426,0,0,0,1.387-1.4.389.389,0,0,0-.049-.487l-.752-.752a3.788,3.788,0,0,0,.178-.438h1.061a.382.382,0,0,0,.376-.314,5.321,5.321,0,0,0,0-1.973v.019a.383.383,0,0,0-.376-.315H89.327a3.847,3.847,0,0,0-.178-.437l.752-.728a.389.389,0,0,0,.049-.487,5.445,5.445,0,0,0-1.387-1.424.389.389,0,0,0-.493.043l-.746.746a4.247,4.247,0,0,0-.45-.191v-1.06a.376.376,0,0,0-.315-.376,5.12,5.12,0,0,0-1.966,0,.375.375,0,0,0-.314.376v1.042a3.1,3.1,0,0,0-.475.191l-.728-.752a.389.389,0,0,0-.487-.05,5.476,5.476,0,0,0-1.424,1.387.39.39,0,0,0,.044.494l.746.746a4.611,4.611,0,0,0-.164.434l.583.607a.31.31,0,0,0,.036-.073h0a3.315,3.315,0,0,1,.351-.838.383.383,0,0,0-.055-.469l-.715-.715a4.536,4.536,0,0,1,.752-.746l.715.722a.387.387,0,0,0,.468.061,3.055,3.055,0,0,1,.826-.339.388.388,0,0,0,.3-.37v-1.011a4.322,4.322,0,0,1,1.054,0v1.024a.388.388,0,0,0,.284.376,3.162,3.162,0,0,1,.807.339.383.383,0,0,0,.469-.056l.715-.715a4.536,4.536,0,0,1,.746.752l-.721.715a.389.389,0,0,0-.062.469,3.106,3.106,0,0,1,.333.8.382.382,0,0,0,.37.284h1.011a3.84,3.84,0,0,1,0,1.06H89.044a.382.382,0,0,0-.37.284,3.106,3.106,0,0,1-.333.8.389.389,0,0,0,.062.469l.721.715a4.536,4.536,0,0,1-.746.752l-.715-.715a.384.384,0,0,0-.469-.056,3.162,3.162,0,0,1-.807.339.375.375,0,0,0-.171.14l.533.555a3.944,3.944,0,0,0,.575-.226Z"
         class="cls-6" />
      <path
         id="path618"
         d="M87.336,233.425a1.794,1.794,0,1,0-3.588,0,.389.389,0,0,0,.771,0,1.024,1.024,0,1,1,1.023,1.023.389.389,0,0,0,0,.771A1.794,1.794,0,0,0,87.336,233.425Z"
         class="cls-6" />
    </g>
  </g>
  <g
     id="g652">
    <g
       id="g630">
      <path
         id="path624"
         d="M350.135,249.684v3.607H349.2v-4.9h1.3l1.345,2.634,1.344-2.634h1.3v4.9h-.96v-3.6l-1.7,3.25Z"
         class="cls-6" />
      <path
         id="path626"
         d="M357.779,253.368a2.529,2.529,0,1,1-.014-5.056,2.625,2.625,0,0,1,2.038.917l-.708.652a1.686,1.686,0,0,0-1.33-.638,1.533,1.533,0,0,0-1.541,1.6,1.557,1.557,0,0,0,1.569,1.6,1.32,1.32,0,0,0,1.359-1.023H357.7v-.882h2.535v.308A2.42,2.42,0,0,1,357.779,253.368Z"
         class="cls-6" />
      <path
         id="path628"
         d="M360.928,248.388h2.395a1.545,1.545,0,0,1,1.694,1.52,1.455,1.455,0,0,1-.959,1.366l1.085,2.017h-1.134l-.959-1.877h-1.107v1.877h-1.015Zm1.015.876v1.317h1.288a.665.665,0,1,0,0-1.317Z"
         class="cls-6" />
    </g>
    <g
       id="g650">
      <path
         id="path632"
         d="M358.908,238.819a.383.383,0,0,1-.37-.29,4.337,4.337,0,0,0-.425-1.023.382.382,0,0,1,.062-.462l.961-.962a6.048,6.048,0,0,0-1.066-1.073l-.956.956a.381.381,0,0,1-.468.055,4.144,4.144,0,0,0-1.036-.437.382.382,0,0,1-.283-.37v-1.356a5.386,5.386,0,0,0-1.511,0V235.2a.389.389,0,0,1-.289.377,4.119,4.119,0,0,0-1.067.431.382.382,0,0,1-.462-.062l-.962-.961a6.048,6.048,0,0,0-1.073,1.066l.956.956a.381.381,0,0,1,.055.468,4.146,4.146,0,0,0-.45,1.073.38.38,0,0,1-.369.283h-1.35a5.211,5.211,0,0,0,0,1.517h1.35a.381.381,0,0,1,.369.283,4.132,4.132,0,0,0,.45,1.073.383.383,0,0,1-.055.469l-.956.955a6.088,6.088,0,0,0,1.073,1.067l.962-.962a.382.382,0,0,1,.462-.062,4.121,4.121,0,0,0,1.067.432.388.388,0,0,1,.289.376v1.331a5.386,5.386,0,0,0,1.511,0v-1.356a.382.382,0,0,1,.283-.37,4.144,4.144,0,0,0,1.036-.437.381.381,0,0,1,.468.055l.956.956a6.048,6.048,0,0,0,1.066-1.073l-.961-.962a.382.382,0,0,1-.062-.462,4.337,4.337,0,0,0,.425-1.023.383.383,0,0,1,.37-.29h1.35v-.012a5.211,5.211,0,0,0,0-1.517Zm-4.377,2.916a2.146,2.146,0,1,1,2.146-2.145A2.146,2.146,0,0,1,354.531,241.735Z"
         class="cls-5" />
      <path
         id="path634"
         d="M354.531,238.215a1.375,1.375,0,1,0,1.375,1.375A1.374,1.374,0,0,0,354.531,238.215Z"
         class="cls-5" />
      <path
         id="path636"
         d="M361.541,236.544a3.162,3.162,0,0,0,.807-.339.384.384,0,0,1,.469.056l.715.715a4.575,4.575,0,0,0,.746-.752l-.722-.715a.389.389,0,0,1-.061-.469,3.106,3.106,0,0,0,.333-.8.381.381,0,0,1,.369-.284h1.011a3.764,3.764,0,0,0,0-1.06H364.2a.381.381,0,0,1-.369-.284,3.106,3.106,0,0,0-.333-.8.389.389,0,0,1,.061-.469l.722-.715a4.575,4.575,0,0,0-.746-.752l-.715.715a.383.383,0,0,1-.469.056,3.162,3.162,0,0,0-.807-.339.388.388,0,0,1-.284-.376v-1.024a4.322,4.322,0,0,0-1.054,0v1.011a.389.389,0,0,1-.3.37,3.042,3.042,0,0,0-.826.339.389.389,0,0,1-.469-.061l-.715-.722a4.575,4.575,0,0,0-.752.746l.715.715a.384.384,0,0,1,.056.469,3.355,3.355,0,0,0-.352.838h0a.354.354,0,0,1-.036.073l1.808,1.077c.539-1.61.918-2.022,2.363-1.275.971,1.332.509,1.83-1.339,2.4l1.01,1.8A.37.37,0,0,1,361.541,236.544Zm-1.181-1.661a.389.389,0,0,1,.336-.435,1.023,1.023,0,1,0-1.023-1.023.389.389,0,0,1-.771,0,1.794,1.794,0,1,1,1.794,1.794A.387.387,0,0,1,360.36,234.883Z"
         class="cls-5" />
      <path
         id="path638"
         d="M360.585,238.061H359.2a5.278,5.278,0,0,0-.271-.666l.986-.986a.382.382,0,0,0,.043-.487,6.551,6.551,0,0,0-1.726-1.72.382.382,0,0,0-.493.043l-.98.98a5.119,5.119,0,0,0-.678-.29v-1.393a.376.376,0,0,0-.309-.376,6.317,6.317,0,0,0-2.428,0,.39.39,0,0,0-.315.382v1.381a5.547,5.547,0,0,0-.709.284l-.986-.987a.383.383,0,0,0-.487-.043,6.562,6.562,0,0,0-1.7,1.708.38.38,0,0,0,.043.493l.98.98a4.772,4.772,0,0,0-.3.715h-1.387a.394.394,0,0,0-.382.315,6.7,6.7,0,0,0,0,2.429.394.394,0,0,0,.382.314h1.387a4.772,4.772,0,0,0,.3.715l-.98.962a.38.38,0,0,0-.043.493,6.364,6.364,0,0,0,1.72,1.707.381.381,0,0,0,.486-.043l.987-.986a5.432,5.432,0,0,0,.709.284v1.38a.388.388,0,0,0,.314.383,6.487,6.487,0,0,0,1.171.1,6.228,6.228,0,0,0,1.233-.123.376.376,0,0,0,.309-.376v-1.393a5.119,5.119,0,0,0,.678-.29l.98.98a.38.38,0,0,0,.493.043,6.547,6.547,0,0,0,1.732-1.689.382.382,0,0,0-.043-.487l-.986-.986a5.278,5.278,0,0,0,.271-.666h1.387a.394.394,0,0,0,.382-.314,6.7,6.7,0,0,0,0-2.429A.393.393,0,0,0,360.585,238.061Zm-.327,2.275v.012h-1.35a.383.383,0,0,0-.37.29,4.337,4.337,0,0,1-.425,1.023.382.382,0,0,0,.062.462l.961.962a6.048,6.048,0,0,1-1.066,1.073l-.956-.956a.381.381,0,0,0-.468-.055,4.144,4.144,0,0,1-1.036.437.382.382,0,0,0-.283.37v1.356a5.386,5.386,0,0,1-1.511,0v-1.331a.388.388,0,0,0-.289-.376,4.121,4.121,0,0,1-1.067-.432.382.382,0,0,0-.462.062l-.962.962a6.088,6.088,0,0,1-1.073-1.067l.956-.955a.383.383,0,0,0,.055-.469,4.132,4.132,0,0,1-.45-1.073.381.381,0,0,0-.369-.283h-1.35a5.211,5.211,0,0,1,0-1.517h1.35a.38.38,0,0,0,.369-.283,4.146,4.146,0,0,1,.45-1.073.381.381,0,0,0-.055-.468l-.956-.956a6.048,6.048,0,0,1,1.073-1.066l.962.961a.382.382,0,0,0,.462.062,4.119,4.119,0,0,1,1.067-.431.389.389,0,0,0,.289-.377v-1.343a5.386,5.386,0,0,1,1.511,0v1.356a.382.382,0,0,0,.283.37,4.144,4.144,0,0,1,1.036.437.381.381,0,0,0,.468-.055l.956-.956a6.048,6.048,0,0,1,1.066,1.073l-.961.962a.382.382,0,0,0-.062.462,4.337,4.337,0,0,1,.425,1.023.383.383,0,0,0,.37.29h1.35A5.211,5.211,0,0,1,360.258,240.336Z"
         class="cls-6" />
      <path
         id="path640"
         d="M354.531,237.444a2.146,2.146,0,1,0,2.146,2.146A2.146,2.146,0,0,0,354.531,237.444Zm0,3.52a1.375,1.375,0,1,1,1.375-1.374A1.374,1.374,0,0,1,354.531,240.964Z"
         class="cls-6" />
      <path
         id="path642"
         d="M361.315,237.045a.388.388,0,0,0,.429.245c.054-.014.106-.034.159-.051l-.533-.555A.381.381,0,0,0,361.315,237.045Z"
         class="cls-6" />
      <path
         id="path644"
         d="M356.818,232.414a.39.39,0,0,0,.278.469.378.378,0,0,0,.432-.2l-.583-.607C356.9,232.191,356.851,232.3,356.818,232.414Z"
         class="cls-6" />
      <path
         id="path646"
         d="M363.223,237.74a.381.381,0,0,0,.272.111.42.42,0,0,0,.222-.068,5.458,5.458,0,0,0,1.387-1.4.389.389,0,0,0-.05-.487l-.752-.752a3.794,3.794,0,0,0,.179-.438h1.06a.381.381,0,0,0,.376-.314,5.279,5.279,0,0,0,0-1.973v.019a.382.382,0,0,0-.376-.315h-1.06a3.853,3.853,0,0,0-.179-.437l.752-.728a.389.389,0,0,0,.05-.487,5.46,5.46,0,0,0-1.387-1.424.39.39,0,0,0-.494.043l-.745.746a4.431,4.431,0,0,0-.45-.191v-1.06a.377.377,0,0,0-.315-.376,5.12,5.12,0,0,0-1.966,0,.376.376,0,0,0-.315.376v1.042a3.089,3.089,0,0,0-.474.191l-.728-.752a.389.389,0,0,0-.487-.05,5.46,5.46,0,0,0-1.424,1.387.389.389,0,0,0,.043.494l.746.746a4.6,4.6,0,0,0-.163.434l.583.607a.354.354,0,0,0,.036-.073h0a3.355,3.355,0,0,1,.352-.838.384.384,0,0,0-.056-.469l-.715-.715a4.575,4.575,0,0,1,.752-.746l.715.722a.389.389,0,0,0,.469.061,3.042,3.042,0,0,1,.826-.339.389.389,0,0,0,.3-.37v-1.011a4.322,4.322,0,0,1,1.054,0v1.024a.388.388,0,0,0,.284.376,3.162,3.162,0,0,1,.807.339.383.383,0,0,0,.469-.056l.715-.715a4.575,4.575,0,0,1,.746.752l-.722.715a.389.389,0,0,0-.061.469,3.106,3.106,0,0,1,.333.8.381.381,0,0,0,.369.284h1.011a3.764,3.764,0,0,1,0,1.06H364.2a.381.381,0,0,0-.369.284,3.106,3.106,0,0,1-.333.8.389.389,0,0,0,.061.469l.722.715a4.575,4.575,0,0,1-.746.752l-.715-.715a.384.384,0,0,0-.469-.056,3.162,3.162,0,0,1-.807.339.37.37,0,0,0-.171.14l.533.555a3.944,3.944,0,0,0,.575-.226Z"
         class="cls-6" />
      <path
         id="path648"
         d="M362.49,233.425a1.794,1.794,0,1,0-3.588,0,.389.389,0,0,0,.771,0,1.023,1.023,0,1,1,1.023,1.023.389.389,0,0,0,0,.771A1.794,1.794,0,0,0,362.49,233.425Z"
         class="cls-6" />
    </g>
  </g>
  <g
     id="g682">
    <g
       id="g660">
      <path
         id="path654"
         d="M507.366,249.684v3.607h-.938v-4.9h1.3l1.345,2.634,1.345-2.634h1.3v4.9h-.96v-3.6l-1.7,3.25Z"
         class="cls-6" />
      <path
         id="path656"
         d="M515.011,253.368a2.529,2.529,0,1,1-.014-5.056,2.628,2.628,0,0,1,2.038.917l-.708.652a1.689,1.689,0,0,0-1.33-.638,1.532,1.532,0,0,0-1.541,1.6,1.557,1.557,0,0,0,1.568,1.6,1.321,1.321,0,0,0,1.36-1.023h-1.451v-.882h2.536v.308A2.42,2.42,0,0,1,515.011,253.368Z"
         class="cls-6" />
      <path
         id="path658"
         d="M518.159,248.388h2.395a1.545,1.545,0,0,1,1.7,1.52,1.455,1.455,0,0,1-.959,1.366l1.085,2.017H521.24l-.959-1.877h-1.106v1.877h-1.016Zm1.016.876v1.317h1.288a.665.665,0,1,0,0-1.317Z"
         class="cls-6" />
    </g>
    <g
       id="g680">
      <path
         id="path662"
         d="M516.139,238.819a.382.382,0,0,1-.37-.29,4.423,4.423,0,0,0-.425-1.023.381.381,0,0,1,.061-.462l.962-.962a6.082,6.082,0,0,0-1.066-1.073l-.956.956a.381.381,0,0,1-.468.055,4.16,4.16,0,0,0-1.036-.437.383.383,0,0,1-.284-.37v-1.356a5.379,5.379,0,0,0-1.51,0V235.2a.39.39,0,0,1-.29.377,4.1,4.1,0,0,0-1.066.431.383.383,0,0,1-.463-.062l-.961-.961a6.048,6.048,0,0,0-1.073,1.066l.956.956a.381.381,0,0,1,.055.468,4.146,4.146,0,0,0-.45,1.073.381.381,0,0,1-.37.283h-1.35a5.211,5.211,0,0,0,0,1.517h1.35a.382.382,0,0,1,.37.283,4.132,4.132,0,0,0,.45,1.073.383.383,0,0,1-.055.469l-.956.955a6.088,6.088,0,0,0,1.073,1.067l.961-.962a.383.383,0,0,1,.463-.062,4.1,4.1,0,0,0,1.066.432.388.388,0,0,1,.29.376v1.331a5.379,5.379,0,0,0,1.51,0v-1.356a.383.383,0,0,1,.284-.37,4.16,4.16,0,0,0,1.036-.437.381.381,0,0,1,.468.055l.956.956a6.048,6.048,0,0,0,1.066-1.073l-.962-.962a.381.381,0,0,1-.061-.462,4.423,4.423,0,0,0,.425-1.023.382.382,0,0,1,.37-.29h1.35v-.012a5.211,5.211,0,0,0,0-1.517Zm-4.377,2.916a2.146,2.146,0,1,1,2.145-2.145A2.145,2.145,0,0,1,511.762,241.735Z"
         class="cls-5" />
      <path
         id="path664"
         d="M511.762,238.215a1.375,1.375,0,1,0,1.375,1.375A1.375,1.375,0,0,0,511.762,238.215Z"
         class="cls-5" />
      <path
         id="path666"
         d="M518.771,236.544a3.169,3.169,0,0,0,.808-.339.383.383,0,0,1,.468.056l.715.715a4.5,4.5,0,0,0,.746-.752l-.721-.715a.391.391,0,0,1-.062-.469,3.038,3.038,0,0,0,.333-.8.383.383,0,0,1,.37-.284h1.011a3.84,3.84,0,0,0,0-1.06h-1.011a.383.383,0,0,1-.37-.284,3.038,3.038,0,0,0-.333-.8.391.391,0,0,1,.062-.469l.721-.715a4.5,4.5,0,0,0-.746-.752l-.715.715a.381.381,0,0,1-.468.056,3.169,3.169,0,0,0-.808-.339.388.388,0,0,1-.283-.376v-1.024a4.33,4.33,0,0,0-1.055,0v1.011a.387.387,0,0,1-.295.37,3.042,3.042,0,0,0-.826.339.389.389,0,0,1-.469-.061l-.715-.722a4.575,4.575,0,0,0-.752.746l.715.715a.383.383,0,0,1,.055.469,3.39,3.39,0,0,0-.351.838h0a.413.413,0,0,1-.036.073l1.808,1.077c.538-1.61.917-2.022,2.363-1.275.971,1.332.508,1.83-1.34,2.4l1.01,1.8A.375.375,0,0,1,518.771,236.544Zm-1.181-1.661a.389.389,0,0,1,.337-.435,1.023,1.023,0,1,0-1.024-1.023.388.388,0,0,1-.77,0,1.794,1.794,0,1,1,1.794,1.794A.388.388,0,0,1,517.59,234.883Z"
         class="cls-5" />
      <path
         id="path668"
         d="M517.816,238.061h-1.387a5.138,5.138,0,0,0-.272-.666l.987-.986a.382.382,0,0,0,.043-.487,6.566,6.566,0,0,0-1.726-1.72.382.382,0,0,0-.493.043l-.98.98a5.076,5.076,0,0,0-.679-.29v-1.393a.375.375,0,0,0-.308-.376,6.322,6.322,0,0,0-2.429,0,.389.389,0,0,0-.314.382v1.381a5.432,5.432,0,0,0-.709.284l-.986-.987a.383.383,0,0,0-.487-.043,6.581,6.581,0,0,0-1.7,1.708.383.383,0,0,0,.043.493l.981.98a4.772,4.772,0,0,0-.3.715h-1.387a.4.4,0,0,0-.383.315,6.7,6.7,0,0,0,0,2.429.4.4,0,0,0,.383.314H507.1a4.772,4.772,0,0,0,.3.715l-.981.962a.383.383,0,0,0-.043.493,6.378,6.378,0,0,0,1.72,1.707.382.382,0,0,0,.487-.043l.987-.986a5.476,5.476,0,0,0,.708.284v1.38a.39.39,0,0,0,.315.383,6.471,6.471,0,0,0,1.171.1,6.228,6.228,0,0,0,1.233-.123.375.375,0,0,0,.308-.376v-1.393a5.008,5.008,0,0,0,.678-.29l.981.98a.38.38,0,0,0,.493.043,6.547,6.547,0,0,0,1.732-1.689.382.382,0,0,0-.043-.487l-.987-.986a5.138,5.138,0,0,0,.272-.666h1.387a.4.4,0,0,0,.382-.314,6.7,6.7,0,0,0,0-2.429A.393.393,0,0,0,517.816,238.061Zm-.327,2.275v.012h-1.35a.382.382,0,0,0-.37.29,4.423,4.423,0,0,1-.425,1.023.381.381,0,0,0,.061.462l.962.962a6.048,6.048,0,0,1-1.066,1.073l-.956-.956a.381.381,0,0,0-.468-.055,4.16,4.16,0,0,1-1.036.437.383.383,0,0,0-.284.37v1.356a5.379,5.379,0,0,1-1.51,0v-1.331a.388.388,0,0,0-.29-.376,4.1,4.1,0,0,1-1.066-.432.383.383,0,0,0-.463.062l-.961.962a6.088,6.088,0,0,1-1.073-1.067l.956-.955a.383.383,0,0,0,.055-.469,4.132,4.132,0,0,1-.45-1.073.382.382,0,0,0-.37-.283h-1.35a5.211,5.211,0,0,1,0-1.517h1.35a.381.381,0,0,0,.37-.283,4.146,4.146,0,0,1,.45-1.073.381.381,0,0,0-.055-.468l-.956-.956a6.048,6.048,0,0,1,1.073-1.066l.961.961a.383.383,0,0,0,.463.062,4.1,4.1,0,0,1,1.066-.431.39.39,0,0,0,.29-.377v-1.343a5.379,5.379,0,0,1,1.51,0v1.356a.383.383,0,0,0,.284.37,4.16,4.16,0,0,1,1.036.437.381.381,0,0,0,.468-.055l.956-.956a6.082,6.082,0,0,1,1.066,1.073l-.962.962a.381.381,0,0,0-.061.462,4.423,4.423,0,0,1,.425,1.023.382.382,0,0,0,.37.29h1.35A5.211,5.211,0,0,1,517.489,240.336Z"
         class="cls-6" />
      <path
         id="path670"
         d="M511.762,237.444a2.146,2.146,0,1,0,2.145,2.146A2.145,2.145,0,0,0,511.762,237.444Zm0,3.52a1.375,1.375,0,1,1,1.375-1.374A1.375,1.375,0,0,1,511.762,240.964Z"
         class="cls-6" />
      <path
         id="path672"
         d="M518.546,237.045a.387.387,0,0,0,.429.245c.054-.014.106-.034.159-.051l-.534-.555A.38.38,0,0,0,518.546,237.045Z"
         class="cls-6" />
      <path
         id="path674"
         d="M514.049,232.414a.389.389,0,0,0,.278.469.378.378,0,0,0,.432-.2l-.584-.607C514.135,232.191,514.082,232.3,514.049,232.414Z"
         class="cls-6" />
      <path
         id="path676"
         d="M520.454,237.74a.379.379,0,0,0,.271.111.417.417,0,0,0,.222-.068,5.426,5.426,0,0,0,1.387-1.4.387.387,0,0,0-.049-.487l-.752-.752a3.794,3.794,0,0,0,.179-.438h1.06a.382.382,0,0,0,.376-.314,5.321,5.321,0,0,0,0-1.973v.019a.383.383,0,0,0-.376-.315h-1.06a4.047,4.047,0,0,0-.179-.437l.752-.728a.387.387,0,0,0,.049-.487,5.445,5.445,0,0,0-1.387-1.424.389.389,0,0,0-.493.043l-.746.746a4.247,4.247,0,0,0-.45-.191v-1.06a.375.375,0,0,0-.314-.376,5.125,5.125,0,0,0-1.967,0,.375.375,0,0,0-.314.376v1.042a3.142,3.142,0,0,0-.475.191l-.727-.752a.389.389,0,0,0-.487-.05,5.445,5.445,0,0,0-1.424,1.387.389.389,0,0,0,.043.494l.746.746a4.611,4.611,0,0,0-.164.434l.584.607a.413.413,0,0,0,.036-.073h0a3.39,3.39,0,0,1,.351-.838.383.383,0,0,0-.055-.469l-.715-.715a4.575,4.575,0,0,1,.752-.746l.715.722a.389.389,0,0,0,.469.061,3.042,3.042,0,0,1,.826-.339.387.387,0,0,0,.295-.37v-1.011a4.33,4.33,0,0,1,1.055,0v1.024a.388.388,0,0,0,.283.376,3.169,3.169,0,0,1,.808.339.381.381,0,0,0,.468-.056l.715-.715a4.5,4.5,0,0,1,.746.752l-.721.715a.391.391,0,0,0-.062.469,3.038,3.038,0,0,1,.333.8.383.383,0,0,0,.37.284h1.011a3.84,3.84,0,0,1,0,1.06h-1.011a.383.383,0,0,0-.37.284,3.038,3.038,0,0,1-.333.8.391.391,0,0,0,.062.469l.721.715a4.5,4.5,0,0,1-.746.752l-.715-.715a.383.383,0,0,0-.468-.056,3.169,3.169,0,0,1-.808.339.375.375,0,0,0-.171.14l.534.555a3.932,3.932,0,0,0,.574-.226Z"
         class="cls-6" />
      <path
         id="path678"
         d="M519.721,233.425a1.794,1.794,0,0,0-3.588,0,.388.388,0,0,0,.77,0,1.024,1.024,0,1,1,1.024,1.023.389.389,0,0,0,0,.771A1.794,1.794,0,0,0,519.721,233.425Z"
         class="cls-6" />
    </g>
  </g>
  <g
     id="g690">
    <path
       id="path684"
       d="M192.9,249.684v3.607h-.938v-4.9h1.3l1.345,2.634,1.345-2.634h1.3v4.9h-.96v-3.6l-1.7,3.25Z"
       class="cls-6" />
    <path
       id="path686"
       d="M200.549,253.368a2.529,2.529,0,1,1-.014-5.056,2.628,2.628,0,0,1,2.038.917l-.708.652a1.689,1.689,0,0,0-1.33-.638,1.532,1.532,0,0,0-1.541,1.6,1.557,1.557,0,0,0,1.568,1.6,1.32,1.32,0,0,0,1.36-1.023h-1.451v-.882h2.536v.308A2.42,2.42,0,0,1,200.549,253.368Z"
       class="cls-6" />
    <path
       id="path688"
       d="M203.7,248.388h2.4a1.545,1.545,0,0,1,1.694,1.52,1.455,1.455,0,0,1-.959,1.366l1.085,2.017h-1.135l-.959-1.877h-1.106v1.877H203.7Zm1.016.876v1.317H206a.665.665,0,1,0,0-1.317Z"
       class="cls-6" />
  </g>
  <g
     id="g710">
    <path
       id="path692"
       d="M201.678,238.819a.381.381,0,0,1-.37-.29,4.383,4.383,0,0,0-.426-1.023.383.383,0,0,1,.062-.462l.962-.962a6.088,6.088,0,0,0-1.067-1.073l-.955.956a.382.382,0,0,1-.469.055,4.153,4.153,0,0,0-1.035-.437.383.383,0,0,1-.284-.37v-1.356a5.379,5.379,0,0,0-1.51,0V235.2a.39.39,0,0,1-.29.377,4.119,4.119,0,0,0-1.067.431.382.382,0,0,1-.462-.062l-.962-.961a6.043,6.043,0,0,0-1.072,1.066l.955.956a.383.383,0,0,1,.056.468,4.112,4.112,0,0,0-.45,1.073.382.382,0,0,1-.37.283h-1.35a5.211,5.211,0,0,0,0,1.517h1.35a.383.383,0,0,1,.37.283,4.1,4.1,0,0,0,.45,1.073.384.384,0,0,1-.056.469l-.955.955a6.082,6.082,0,0,0,1.072,1.067l.962-.962a.382.382,0,0,1,.462-.062,4.121,4.121,0,0,0,1.067.432.388.388,0,0,1,.29.376v1.331a5.379,5.379,0,0,0,1.51,0v-1.356a.383.383,0,0,1,.284-.37,4.153,4.153,0,0,0,1.035-.437.382.382,0,0,1,.469.055l.955.956a6.088,6.088,0,0,0,1.067-1.073l-.962-.962a.383.383,0,0,1-.062-.462,4.383,4.383,0,0,0,.426-1.023.381.381,0,0,1,.37-.29h1.35v-.012a5.211,5.211,0,0,0,0-1.517Zm-4.377,2.916a2.146,2.146,0,1,1,2.145-2.145A2.146,2.146,0,0,1,197.3,241.735Z"
       class="cls-5" />
    <path
       id="path694"
       d="M197.3,238.215a1.375,1.375,0,1,0,1.374,1.375A1.375,1.375,0,0,0,197.3,238.215Z"
       class="cls-5" />
    <path
       id="path696"
       d="M204.31,236.544a3.162,3.162,0,0,0,.807-.339.384.384,0,0,1,.469.056l.715.715a4.536,4.536,0,0,0,.746-.752l-.721-.715a.389.389,0,0,1-.062-.469,3.106,3.106,0,0,0,.333-.8.382.382,0,0,1,.37-.284h1.011a3.84,3.84,0,0,0,0-1.06h-1.011a.382.382,0,0,1-.37-.284,3.106,3.106,0,0,0-.333-.8.389.389,0,0,1,.062-.469l.721-.715a4.536,4.536,0,0,0-.746-.752l-.715.715a.383.383,0,0,1-.469.056,3.162,3.162,0,0,0-.807-.339.388.388,0,0,1-.284-.376v-1.024a4.322,4.322,0,0,0-1.054,0v1.011a.388.388,0,0,1-.3.37,3.055,3.055,0,0,0-.826.339.387.387,0,0,1-.468-.061l-.715-.722a4.536,4.536,0,0,0-.752.746l.715.715a.383.383,0,0,1,.055.469,3.315,3.315,0,0,0-.351.838h0a.31.31,0,0,1-.036.073l1.809,1.077c.538-1.61.917-2.022,2.363-1.275.971,1.332.508,1.83-1.34,2.4l1.01,1.8A.375.375,0,0,1,204.31,236.544Zm-1.181-1.661a.389.389,0,0,1,.336-.435,1.023,1.023,0,1,0-1.023-1.023.389.389,0,0,1-.771,0,1.794,1.794,0,1,1,1.794,1.794A.388.388,0,0,1,203.129,234.883Z"
       class="cls-5" />
    <path
       id="path698"
       d="M203.354,238.061h-1.387a5.133,5.133,0,0,0-.271-.666l.986-.986a.383.383,0,0,0,.044-.487A6.555,6.555,0,0,0,201,234.2a.382.382,0,0,0-.493.043l-.98.98a5.063,5.063,0,0,0-.678-.29v-1.393a.375.375,0,0,0-.308-.376,6.322,6.322,0,0,0-2.429,0,.388.388,0,0,0-.314.382v1.381a5.432,5.432,0,0,0-.709.284l-.987-.987a.383.383,0,0,0-.487-.043,6.593,6.593,0,0,0-1.7,1.708.382.382,0,0,0,.043.493l.98.98a4.989,4.989,0,0,0-.3.715h-1.387a.4.4,0,0,0-.382.315,6.7,6.7,0,0,0,0,2.429.4.4,0,0,0,.382.314h1.387a4.989,4.989,0,0,0,.3.715l-.98.962a.382.382,0,0,0-.043.493,6.378,6.378,0,0,0,1.72,1.707.382.382,0,0,0,.487-.043l.986-.986a5.489,5.489,0,0,0,.709.284v1.38a.39.39,0,0,0,.314.383,6.49,6.49,0,0,0,1.172.1,6.228,6.228,0,0,0,1.233-.123.376.376,0,0,0,.308-.376v-1.393a5.063,5.063,0,0,0,.678-.29l.98.98a.381.381,0,0,0,.493.043,6.551,6.551,0,0,0,1.733-1.689.383.383,0,0,0-.044-.487l-.986-.986a5.133,5.133,0,0,0,.271-.666h1.387a.4.4,0,0,0,.383-.314,6.7,6.7,0,0,0,0-2.429A.394.394,0,0,0,203.354,238.061Zm-.326,2.275v.012h-1.35a.381.381,0,0,0-.37.29,4.383,4.383,0,0,1-.426,1.023.383.383,0,0,0,.062.462l.962.962a6.088,6.088,0,0,1-1.067,1.073l-.955-.956a.382.382,0,0,0-.469-.055,4.153,4.153,0,0,1-1.035.437.383.383,0,0,0-.284.37v1.356a5.379,5.379,0,0,1-1.51,0v-1.331a.388.388,0,0,0-.29-.376,4.121,4.121,0,0,1-1.067-.432.382.382,0,0,0-.462.062l-.962.962a6.082,6.082,0,0,1-1.072-1.067l.955-.955a.384.384,0,0,0,.056-.469,4.1,4.1,0,0,1-.45-1.073.383.383,0,0,0-.37-.283h-1.35a5.211,5.211,0,0,1,0-1.517h1.35a.382.382,0,0,0,.37-.283,4.112,4.112,0,0,1,.45-1.073.383.383,0,0,0-.056-.468l-.955-.956a6.043,6.043,0,0,1,1.072-1.066l.962.961a.382.382,0,0,0,.462.062,4.119,4.119,0,0,1,1.067-.431.39.39,0,0,0,.29-.377v-1.343a5.379,5.379,0,0,1,1.51,0v1.356a.383.383,0,0,0,.284.37,4.153,4.153,0,0,1,1.035.437.382.382,0,0,0,.469-.055l.955-.956a6.088,6.088,0,0,1,1.067,1.073l-.962.962a.383.383,0,0,0-.062.462,4.383,4.383,0,0,1,.426,1.023.381.381,0,0,0,.37.29h1.35A5.211,5.211,0,0,1,203.028,240.336Z"
       class="cls-6" />
    <path
       id="path700"
       d="M197.3,237.444a2.146,2.146,0,1,0,2.145,2.146A2.146,2.146,0,0,0,197.3,237.444Zm0,3.52a1.375,1.375,0,1,1,1.374-1.374A1.375,1.375,0,0,1,197.3,240.964Z"
       class="cls-6" />
    <path
       id="path702"
       d="M204.084,237.045a.388.388,0,0,0,.429.245c.054-.014.106-.034.159-.051l-.533-.555A.381.381,0,0,0,204.084,237.045Z"
       class="cls-6" />
    <path
       id="path704"
       d="M199.588,232.414a.388.388,0,0,0,.277.469.377.377,0,0,0,.432-.2l-.583-.607C199.673,232.191,199.62,232.3,199.588,232.414Z"
       class="cls-6" />
    <path
       id="path706"
       d="M205.993,237.74a.377.377,0,0,0,.271.111.417.417,0,0,0,.222-.068,5.426,5.426,0,0,0,1.387-1.4.389.389,0,0,0-.049-.487l-.752-.752a3.788,3.788,0,0,0,.178-.438h1.061a.382.382,0,0,0,.376-.314,5.321,5.321,0,0,0,0-1.973v.019a.383.383,0,0,0-.376-.315H207.25a3.847,3.847,0,0,0-.178-.437l.752-.728a.389.389,0,0,0,.049-.487,5.445,5.445,0,0,0-1.387-1.424.389.389,0,0,0-.493.043l-.746.746a4.247,4.247,0,0,0-.45-.191v-1.06a.376.376,0,0,0-.315-.376,5.12,5.12,0,0,0-1.966,0,.375.375,0,0,0-.314.376v1.042a3.1,3.1,0,0,0-.475.191l-.728-.752a.389.389,0,0,0-.487-.05,5.476,5.476,0,0,0-1.424,1.387.39.39,0,0,0,.044.494l.746.746a4.611,4.611,0,0,0-.164.434l.583.607a.31.31,0,0,0,.036-.073h0a3.315,3.315,0,0,1,.351-.838.383.383,0,0,0-.055-.469l-.715-.715a4.536,4.536,0,0,1,.752-.746l.715.722a.387.387,0,0,0,.468.061,3.055,3.055,0,0,1,.826-.339.388.388,0,0,0,.3-.37v-1.011a4.322,4.322,0,0,1,1.054,0v1.024a.388.388,0,0,0,.284.376,3.162,3.162,0,0,1,.807.339.383.383,0,0,0,.469-.056l.715-.715a4.536,4.536,0,0,1,.746.752l-.721.715a.389.389,0,0,0-.062.469,3.106,3.106,0,0,1,.333.8.382.382,0,0,0,.37.284h1.011a3.84,3.84,0,0,1,0,1.06h-1.011a.382.382,0,0,0-.37.284,3.106,3.106,0,0,1-.333.8.389.389,0,0,0,.062.469l.721.715a4.536,4.536,0,0,1-.746.752l-.715-.715a.384.384,0,0,0-.469-.056,3.162,3.162,0,0,1-.807.339.375.375,0,0,0-.171.14l.533.555a3.944,3.944,0,0,0,.575-.226Z"
       class="cls-6" />
    <path
       id="path708"
       d="M205.259,233.425a1.794,1.794,0,1,0-3.588,0,.389.389,0,0,0,.771,0,1.024,1.024,0,1,1,1.023,1.023.389.389,0,0,0,0,.771A1.794,1.794,0,0,0,205.259,233.425Z"
       class="cls-6" />
  </g>
  <g
     id="g718">
    <path
       id="path712"
       d="M232.212,249.684v3.607h-.939v-4.9h1.3l1.345,2.634,1.344-2.634h1.3v4.9h-.96v-3.6l-1.7,3.25Z"
       class="cls-6" />
    <path
       id="path714"
       d="M239.856,253.368a2.529,2.529,0,1,1-.013-5.056,2.628,2.628,0,0,1,2.038.917l-.708.652a1.689,1.689,0,0,0-1.33-.638,1.532,1.532,0,0,0-1.541,1.6,1.556,1.556,0,0,0,1.568,1.6,1.32,1.32,0,0,0,1.359-1.023h-1.45v-.882h2.535v.308A2.42,2.42,0,0,1,239.856,253.368Z"
       class="cls-6" />
    <path
       id="path716"
       d="M243.005,248.388h2.4a1.545,1.545,0,0,1,1.694,1.52,1.455,1.455,0,0,1-.958,1.366l1.084,2.017h-1.134l-.959-1.877H244.02v1.877h-1.015Zm1.015.876v1.317h1.288a.665.665,0,1,0,0-1.317Z"
       class="cls-6" />
  </g>
  <g
     id="g738">
    <path
       id="path720"
       d="M240.985,238.819a.381.381,0,0,1-.369-.29,4.383,4.383,0,0,0-.426-1.023.382.382,0,0,1,.062-.462l.961-.962a6.048,6.048,0,0,0-1.066-1.073l-.956.956a.381.381,0,0,1-.468.055,4.144,4.144,0,0,0-1.036-.437.382.382,0,0,1-.283-.37v-1.356a5.386,5.386,0,0,0-1.511,0V235.2a.388.388,0,0,1-.289.377,4.119,4.119,0,0,0-1.067.431.382.382,0,0,1-.462-.062l-.962-.961a6.043,6.043,0,0,0-1.072,1.066l.955.956a.383.383,0,0,1,.056.468,4.112,4.112,0,0,0-.45,1.073.382.382,0,0,1-.37.283h-1.35a5.211,5.211,0,0,0,0,1.517h1.35a.383.383,0,0,1,.37.283,4.1,4.1,0,0,0,.45,1.073.384.384,0,0,1-.056.469l-.955.955a6.082,6.082,0,0,0,1.072,1.067l.962-.962a.382.382,0,0,1,.462-.062,4.121,4.121,0,0,0,1.067.432.386.386,0,0,1,.289.376v1.331a5.386,5.386,0,0,0,1.511,0v-1.356a.382.382,0,0,1,.283-.37,4.144,4.144,0,0,0,1.036-.437.383.383,0,0,1,.469.055l.955.956a6.048,6.048,0,0,0,1.066-1.073l-.961-.962a.382.382,0,0,1-.062-.462,4.383,4.383,0,0,0,.426-1.023.381.381,0,0,1,.369-.29h1.35v-.012a5.211,5.211,0,0,0,0-1.517Zm-4.376,2.916a2.146,2.146,0,1,1,2.145-2.145A2.146,2.146,0,0,1,236.609,241.735Z"
       class="cls-5" />
    <path
       id="path722"
       d="M236.609,238.215a1.375,1.375,0,1,0,1.374,1.375A1.374,1.374,0,0,0,236.609,238.215Z"
       class="cls-5" />
    <path
       id="path724"
       d="M243.618,236.544a3.162,3.162,0,0,0,.807-.339.384.384,0,0,1,.469.056l.715.715a4.575,4.575,0,0,0,.746-.752l-.722-.715a.389.389,0,0,1-.061-.469,3.106,3.106,0,0,0,.333-.8.381.381,0,0,1,.37-.284h1.011a3.84,3.84,0,0,0,0-1.06h-1.011a.381.381,0,0,1-.37-.284,3.106,3.106,0,0,0-.333-.8.389.389,0,0,1,.061-.469l.722-.715a4.575,4.575,0,0,0-.746-.752l-.715.715a.383.383,0,0,1-.469.056,3.162,3.162,0,0,0-.807-.339.388.388,0,0,1-.284-.376v-1.024a4.322,4.322,0,0,0-1.054,0v1.011a.388.388,0,0,1-.3.37,3.042,3.042,0,0,0-.826.339.387.387,0,0,1-.468-.061l-.716-.722a4.575,4.575,0,0,0-.752.746l.715.715a.383.383,0,0,1,.056.469,3.315,3.315,0,0,0-.351.838h0a.31.31,0,0,1-.036.073l1.808,1.077c.539-1.61.918-2.022,2.364-1.275.97,1.332.508,1.83-1.34,2.4l1.01,1.8A.375.375,0,0,1,243.618,236.544Zm-1.181-1.661a.389.389,0,0,1,.336-.435,1.023,1.023,0,1,0-1.023-1.023.389.389,0,0,1-.771,0,1.794,1.794,0,1,1,1.794,1.794A.387.387,0,0,1,242.437,234.883Z"
       class="cls-5" />
    <path
       id="path726"
       d="M242.662,238.061h-1.387A5.133,5.133,0,0,0,241,237.4l.986-.986a.382.382,0,0,0,.043-.487,6.551,6.551,0,0,0-1.726-1.72.382.382,0,0,0-.493.043l-.98.98a5.063,5.063,0,0,0-.678-.29v-1.393a.376.376,0,0,0-.308-.376,6.322,6.322,0,0,0-2.429,0,.39.39,0,0,0-.315.382v1.381a5.547,5.547,0,0,0-.709.284l-.986-.987a.383.383,0,0,0-.487-.043,6.577,6.577,0,0,0-1.7,1.708.382.382,0,0,0,.043.493l.98.98a4.772,4.772,0,0,0-.3.715h-1.387a.394.394,0,0,0-.382.315,6.7,6.7,0,0,0,0,2.429.394.394,0,0,0,.382.314h1.387a4.772,4.772,0,0,0,.3.715l-.98.962a.382.382,0,0,0-.043.493,6.378,6.378,0,0,0,1.72,1.707.382.382,0,0,0,.487-.043l.986-.986a5.432,5.432,0,0,0,.709.284v1.38a.388.388,0,0,0,.314.383,6.49,6.49,0,0,0,1.172.1,6.21,6.21,0,0,0,1.232-.123.376.376,0,0,0,.309-.376v-1.393a5.119,5.119,0,0,0,.678-.29l.98.98a.38.38,0,0,0,.493.043,6.532,6.532,0,0,0,1.732-1.689.382.382,0,0,0-.043-.487l-.986-.986a5.133,5.133,0,0,0,.271-.666h1.387a.394.394,0,0,0,.382-.314,6.7,6.7,0,0,0,0-2.429A.393.393,0,0,0,242.662,238.061Zm-.327,2.275v.012h-1.35a.381.381,0,0,0-.369.29,4.383,4.383,0,0,1-.426,1.023.382.382,0,0,0,.062.462l.961.962a6.048,6.048,0,0,1-1.066,1.073l-.955-.956a.383.383,0,0,0-.469-.055,4.144,4.144,0,0,1-1.036.437.382.382,0,0,0-.283.37v1.356a5.386,5.386,0,0,1-1.511,0v-1.331a.386.386,0,0,0-.289-.376,4.121,4.121,0,0,1-1.067-.432.382.382,0,0,0-.462.062l-.962.962a6.082,6.082,0,0,1-1.072-1.067l.955-.955a.384.384,0,0,0,.056-.469,4.1,4.1,0,0,1-.45-1.073.383.383,0,0,0-.37-.283h-1.35a5.211,5.211,0,0,1,0-1.517h1.35a.382.382,0,0,0,.37-.283,4.112,4.112,0,0,1,.45-1.073.383.383,0,0,0-.056-.468l-.955-.956a6.043,6.043,0,0,1,1.072-1.066l.962.961a.382.382,0,0,0,.462.062,4.119,4.119,0,0,1,1.067-.431.388.388,0,0,0,.289-.377v-1.343a5.386,5.386,0,0,1,1.511,0v1.356a.382.382,0,0,0,.283.37,4.144,4.144,0,0,1,1.036.437.381.381,0,0,0,.468-.055l.956-.956a6.048,6.048,0,0,1,1.066,1.073l-.961.962a.382.382,0,0,0-.062.462,4.383,4.383,0,0,1,.426,1.023.381.381,0,0,0,.369.29h1.35A5.211,5.211,0,0,1,242.335,240.336Z"
       class="cls-6" />
    <path
       id="path728"
       d="M236.609,237.444a2.146,2.146,0,1,0,2.145,2.146A2.146,2.146,0,0,0,236.609,237.444Zm0,3.52a1.375,1.375,0,1,1,1.374-1.374A1.374,1.374,0,0,1,236.609,240.964Z"
       class="cls-6" />
    <path
       id="path730"
       d="M243.392,237.045a.388.388,0,0,0,.429.245c.054-.014.106-.034.159-.051l-.533-.555A.381.381,0,0,0,243.392,237.045Z"
       class="cls-6" />
    <path
       id="path732"
       d="M238.9,232.414a.388.388,0,0,0,.277.469.377.377,0,0,0,.432-.2l-.583-.607C238.981,232.191,238.928,232.3,238.9,232.414Z"
       class="cls-6" />
    <path
       id="path734"
       d="M245.3,237.74a.377.377,0,0,0,.271.111.42.42,0,0,0,.222-.068,5.458,5.458,0,0,0,1.387-1.4.388.388,0,0,0-.05-.487l-.752-.752a3.624,3.624,0,0,0,.179-.438h1.06a.383.383,0,0,0,.377-.314,5.321,5.321,0,0,0,0-1.973v.019a.384.384,0,0,0-.377-.315h-1.06a3.677,3.677,0,0,0-.179-.437l.752-.728a.388.388,0,0,0,.05-.487,5.445,5.445,0,0,0-1.387-1.424.389.389,0,0,0-.493.043l-.746.746a4.337,4.337,0,0,0-.45-.191v-1.06a.376.376,0,0,0-.315-.376,5.12,5.12,0,0,0-1.966,0,.376.376,0,0,0-.315.376v1.042a3.131,3.131,0,0,0-.474.191l-.728-.752a.389.389,0,0,0-.487-.05A5.476,5.476,0,0,0,238.4,230.4a.39.39,0,0,0,.043.494l.746.746c-.066.139-.11.288-.163.434l.583.607a.31.31,0,0,0,.036-.073h0a3.315,3.315,0,0,1,.351-.838.383.383,0,0,0-.056-.469l-.715-.715a4.575,4.575,0,0,1,.752-.746l.716.722a.387.387,0,0,0,.468.061,3.042,3.042,0,0,1,.826-.339.388.388,0,0,0,.3-.37v-1.011a4.322,4.322,0,0,1,1.054,0v1.024a.388.388,0,0,0,.284.376,3.162,3.162,0,0,1,.807.339.383.383,0,0,0,.469-.056l.715-.715a4.575,4.575,0,0,1,.746.752l-.722.715a.389.389,0,0,0-.061.469,3.106,3.106,0,0,1,.333.8.381.381,0,0,0,.37.284h1.011a3.84,3.84,0,0,1,0,1.06h-1.011a.381.381,0,0,0-.37.284,3.106,3.106,0,0,1-.333.8.389.389,0,0,0,.061.469l.722.715a4.575,4.575,0,0,1-.746.752l-.715-.715a.384.384,0,0,0-.469-.056,3.162,3.162,0,0,1-.807.339.375.375,0,0,0-.171.14l.533.555a3.944,3.944,0,0,0,.575-.226Z"
       class="cls-6" />
    <path
       id="path736"
       d="M244.567,233.425a1.794,1.794,0,0,0-3.588,0,.389.389,0,0,0,.771,0,1.023,1.023,0,1,1,1.023,1.023.389.389,0,0,0,0,.771A1.794,1.794,0,0,0,244.567,233.425Z"
       class="cls-6" />
  </g>
</svg>
