<?xml version="1.0" encoding="utf-8"?>
<!-- Generator: Adobe Illustrator 21.0.0, SVG Export Plug-In . SVG Version: 6.00 Build 0)  -->
<svg version="1.1" id="Layer_1" xmlns="http://www.w3.org/2000/svg" xmlns:xlink="http://www.w3.org/1999/xlink" x="0px" y="0px"
	 width="704.3px" height="852.5px" viewBox="0 0 704.3 852.5" style="enable-background:new 0 0 704.3 852.5;" xml:space="preserve"
	>
<style type="text/css">
	.st0{fill:#0F87C9;}
	.st1{fill:#70CDE6;}
	.st2{fill:#A4DCE8;}
	.st3{fill:#FFFFFF;}
	.st4{fill:#D0ECF3;}
	.st5{fill:none;stroke:#0F87C9;stroke-miterlimit:10;}
	.st6{fill:#4C4C4C;}
	.st7{fill:none;stroke:#4C4C4C;stroke-miterlimit:10;}
</style>
<g>
	<rect x="10.5" y="7.3" class="st0" width="139.9" height="834.2"/>
	<rect x="14.4" y="782.7" class="st1" width="132.5" height="55.2"/>
	<rect x="14.4" y="10.6" class="st2" width="30.1" height="17.5"/>
	<rect x="48.5" y="10.6" class="st2" width="30.1" height="17.5"/>
	<rect x="82.7" y="10.6" class="st2" width="30.1" height="17.5"/>
	<rect x="116.8" y="10.6" class="st2" width="30.1" height="17.5"/>
	<rect x="14.4" y="32" class="st2" width="30.1" height="17.5"/>
	<rect x="48.5" y="32" class="st2" width="30.1" height="17.5"/>
	<rect x="82.7" y="32" class="st2" width="30.1" height="17.5"/>
	<rect x="116.8" y="32" class="st2" width="30.1" height="17.5"/>
	<rect x="14.4" y="53.5" class="st2" width="30.1" height="17.5"/>
	<rect x="48.5" y="53.5" class="st2" width="30.1" height="17.5"/>
	<rect x="82.7" y="53.5" class="st2" width="30.1" height="17.5"/>
	<rect x="116.8" y="53.5" class="st2" width="30.1" height="17.5"/>
	<rect x="14.4" y="74.9" class="st2" width="30.1" height="17.5"/>
	<rect x="48.5" y="74.9" class="st2" width="30.1" height="17.5"/>
	<rect x="82.7" y="74.9" class="st2" width="30.1" height="17.5"/>
	<rect x="116.8" y="74.9" class="st2" width="30.1" height="17.5"/>
	<rect x="14.4" y="96.4" class="st2" width="30.1" height="17.5"/>
	<rect x="48.5" y="96.4" class="st2" width="30.1" height="17.5"/>
	<rect x="82.7" y="96.4" class="st2" width="30.1" height="17.5"/>
	<rect x="116.8" y="96.4" class="st2" width="30.1" height="17.5"/>
	<rect x="14.4" y="117.9" class="st2" width="30.1" height="17.5"/>
	<rect x="48.5" y="117.9" class="st2" width="30.1" height="17.5"/>
	<rect x="82.7" y="117.9" class="st2" width="30.1" height="17.5"/>
	<rect x="116.8" y="117.9" class="st2" width="30.1" height="17.5"/>
	<rect x="14.4" y="139.3" class="st2" width="30.1" height="17.5"/>
	<rect x="48.5" y="139.3" class="st2" width="30.1" height="17.5"/>
	<rect x="82.7" y="139.3" class="st2" width="30.1" height="17.5"/>
	<rect x="116.8" y="139.3" class="st2" width="30.1" height="17.5"/>
	<rect x="14.4" y="160.8" class="st2" width="30.1" height="17.5"/>
	<rect x="48.5" y="160.8" class="st2" width="30.1" height="17.5"/>
	<rect x="82.7" y="160.8" class="st2" width="30.1" height="17.5"/>
	<rect x="116.8" y="160.8" class="st2" width="30.1" height="17.5"/>
	<rect x="14.4" y="182.2" class="st2" width="30.1" height="17.5"/>
	<rect x="48.5" y="182.2" class="st2" width="30.1" height="17.5"/>
	<rect x="82.7" y="182.2" class="st2" width="30.1" height="17.5"/>
	<rect x="116.8" y="182.2" class="st2" width="30.1" height="17.5"/>
	<rect x="14.4" y="203.7" class="st2" width="30.1" height="17.5"/>
	<rect x="48.5" y="203.7" class="st2" width="30.1" height="17.5"/>
	<rect x="82.7" y="203.7" class="st2" width="30.1" height="17.5"/>
	<rect x="116.8" y="203.7" class="st2" width="30.1" height="17.5"/>
	<rect x="14.4" y="225.1" class="st2" width="30.1" height="17.5"/>
	<rect x="48.5" y="225.1" class="st2" width="30.1" height="17.5"/>
	<rect x="82.7" y="225.1" class="st2" width="30.1" height="17.5"/>
	<rect x="116.8" y="225.1" class="st2" width="30.1" height="17.5"/>
	<rect x="14.4" y="246.6" class="st2" width="30.1" height="17.5"/>
	<rect x="48.5" y="246.6" class="st2" width="30.1" height="17.5"/>
	<rect x="82.7" y="246.6" class="st2" width="30.1" height="17.5"/>
	<rect x="116.8" y="246.6" class="st2" width="30.1" height="17.5"/>
	<rect x="14.4" y="268.1" class="st2" width="30.1" height="17.5"/>
	<rect x="48.5" y="268.1" class="st2" width="30.1" height="17.5"/>
	<rect x="82.7" y="268.1" class="st2" width="30.1" height="17.5"/>
	<rect x="116.8" y="268.1" class="st2" width="30.1" height="17.5"/>
	<rect x="14.4" y="289.5" class="st2" width="30.1" height="17.5"/>
	<rect x="48.5" y="289.5" class="st2" width="30.1" height="17.5"/>
	<rect x="82.7" y="289.5" class="st2" width="30.1" height="17.5"/>
	<rect x="116.8" y="289.5" class="st2" width="30.1" height="17.5"/>
	<rect x="14.4" y="311" class="st2" width="30.1" height="17.5"/>
	<rect x="48.5" y="311" class="st2" width="30.1" height="17.5"/>
	<rect x="82.7" y="311" class="st2" width="30.1" height="17.5"/>
	<rect x="116.8" y="311" class="st2" width="30.1" height="17.5"/>
	<rect x="14.4" y="332.4" class="st2" width="30.1" height="17.5"/>
	<rect x="48.5" y="332.4" class="st2" width="30.1" height="17.5"/>
	<rect x="82.7" y="332.4" class="st2" width="30.1" height="17.5"/>
	<rect x="116.8" y="332.4" class="st2" width="30.1" height="17.5"/>
	<rect x="14.4" y="353.9" class="st2" width="30.1" height="17.5"/>
	<rect x="48.5" y="353.9" class="st2" width="30.1" height="17.5"/>
	<rect x="82.7" y="353.9" class="st2" width="30.1" height="17.5"/>
	<rect x="116.8" y="353.9" class="st2" width="30.1" height="17.5"/>
	<rect x="14.4" y="375.4" class="st2" width="30.1" height="17.5"/>
	<rect x="48.5" y="375.4" class="st2" width="30.1" height="17.5"/>
	<rect x="82.7" y="375.4" class="st2" width="30.1" height="17.5"/>
	<rect x="116.8" y="375.4" class="st2" width="30.1" height="17.5"/>
	<rect x="14.4" y="396.8" class="st2" width="30.1" height="17.5"/>
	<rect x="48.5" y="396.8" class="st2" width="30.1" height="17.5"/>
	<rect x="82.7" y="396.8" class="st2" width="30.1" height="17.5"/>
	<rect x="116.8" y="396.8" class="st2" width="30.1" height="17.5"/>
	<rect x="14.4" y="418.3" class="st2" width="30.1" height="17.5"/>
	<rect x="48.5" y="418.3" class="st2" width="30.1" height="17.5"/>
	<rect x="82.7" y="418.3" class="st2" width="30.1" height="17.5"/>
	<rect x="116.8" y="418.3" class="st2" width="30.1" height="17.5"/>
	<rect x="14.4" y="439.7" class="st2" width="30.1" height="17.5"/>
	<rect x="48.5" y="439.7" class="st2" width="30.1" height="17.5"/>
	<rect x="82.7" y="439.7" class="st2" width="30.1" height="17.5"/>
	<rect x="116.8" y="439.7" class="st2" width="30.1" height="17.5"/>
	<rect x="14.4" y="461.2" class="st2" width="30.1" height="17.5"/>
	<rect x="48.5" y="461.2" class="st2" width="30.1" height="17.5"/>
	<rect x="82.7" y="461.2" class="st2" width="30.1" height="17.5"/>
	<rect x="116.8" y="461.2" class="st2" width="30.1" height="17.5"/>
	<rect x="14.4" y="482.6" class="st2" width="30.1" height="17.5"/>
	<rect x="48.5" y="482.6" class="st2" width="30.1" height="17.5"/>
	<rect x="82.7" y="482.6" class="st2" width="30.1" height="17.5"/>
	<rect x="116.8" y="482.6" class="st2" width="30.1" height="17.5"/>
	<rect x="14.4" y="504.1" class="st2" width="30.1" height="17.5"/>
	<rect x="48.5" y="504.1" class="st2" width="30.1" height="17.5"/>
	<rect x="82.7" y="504.1" class="st2" width="30.1" height="17.5"/>
	<rect x="116.8" y="504.1" class="st2" width="30.1" height="17.5"/>
	<rect x="14.4" y="525.6" class="st2" width="30.1" height="17.5"/>
	<rect x="48.5" y="525.6" class="st2" width="30.1" height="17.5"/>
	<rect x="82.7" y="525.6" class="st2" width="30.1" height="17.5"/>
	<rect x="116.8" y="525.6" class="st2" width="30.1" height="17.5"/>
	<rect x="14.4" y="547" class="st2" width="30.1" height="17.5"/>
	<rect x="48.5" y="547" class="st2" width="30.1" height="17.5"/>
	<rect x="82.7" y="547" class="st2" width="30.1" height="17.5"/>
	<rect x="116.8" y="547" class="st2" width="30.1" height="17.5"/>
	<rect x="14.4" y="568.5" class="st2" width="30.1" height="17.5"/>
	<rect x="48.5" y="568.5" class="st2" width="30.1" height="17.5"/>
	<rect x="82.7" y="568.5" class="st2" width="30.1" height="17.5"/>
	<rect x="116.8" y="568.5" class="st2" width="30.1" height="17.5"/>
	<rect x="14.4" y="589.9" class="st2" width="30.1" height="17.5"/>
	<rect x="48.5" y="589.9" class="st2" width="30.1" height="17.5"/>
	<rect x="82.7" y="589.9" class="st2" width="30.1" height="17.5"/>
	<rect x="116.8" y="589.9" class="st2" width="30.1" height="17.5"/>
	<rect x="14.4" y="611.4" class="st2" width="30.1" height="17.5"/>
	<rect x="48.5" y="611.4" class="st2" width="30.1" height="17.5"/>
	<rect x="82.7" y="611.4" class="st2" width="30.1" height="17.5"/>
	<rect x="116.8" y="611.4" class="st2" width="30.1" height="17.5"/>
	<rect x="14.4" y="632.9" class="st2" width="30.1" height="17.5"/>
	<rect x="48.5" y="632.9" class="st2" width="30.1" height="17.5"/>
	<rect x="82.7" y="632.9" class="st2" width="30.1" height="17.5"/>
	<rect x="116.8" y="632.9" class="st2" width="30.1" height="17.5"/>
	<rect x="14.4" y="654.3" class="st2" width="30.1" height="17.5"/>
	<rect x="48.5" y="654.3" class="st2" width="30.1" height="17.5"/>
	<rect x="82.7" y="654.3" class="st2" width="30.1" height="17.5"/>
	<rect x="116.8" y="654.3" class="st2" width="30.1" height="17.5"/>
	<rect x="14.4" y="675.8" class="st2" width="30.1" height="17.5"/>
	<rect x="48.5" y="675.8" class="st2" width="30.1" height="17.5"/>
	<rect x="82.7" y="675.8" class="st2" width="30.1" height="17.5"/>
	<rect x="116.8" y="675.8" class="st2" width="30.1" height="17.5"/>
	<rect x="14.4" y="697.2" class="st2" width="30.1" height="17.5"/>
	<rect x="48.5" y="697.2" class="st2" width="30.1" height="17.5"/>
	<rect x="82.7" y="697.2" class="st2" width="30.1" height="17.5"/>
	<rect x="116.8" y="697.2" class="st2" width="30.1" height="17.5"/>
	<rect x="14.4" y="718.7" class="st2" width="30.1" height="17.5"/>
	<rect x="48.5" y="718.7" class="st2" width="30.1" height="17.5"/>
	<rect x="82.7" y="718.7" class="st2" width="30.1" height="17.5"/>
	<rect x="116.8" y="718.7" class="st2" width="30.1" height="17.5"/>
	<rect x="14.4" y="740.1" class="st2" width="30.1" height="17.5"/>
	<rect x="48.5" y="740.1" class="st2" width="30.1" height="17.5"/>
	<rect x="82.7" y="740.1" class="st2" width="30.1" height="17.5"/>
	<rect x="116.8" y="740.1" class="st2" width="30.1" height="17.5"/>
	<rect x="14.4" y="761.6" class="st2" width="30.1" height="17.5"/>
	<rect x="48.5" y="761.6" class="st2" width="30.1" height="17.5"/>
	<rect x="82.7" y="761.6" class="st2" width="30.1" height="17.5"/>
	<rect x="116.8" y="761.6" class="st2" width="30.1" height="17.5"/>
</g>
<g>
	<path class="st3" d="M63.8,818.7v-12.9h-3V804c1.7-0.1,3.1-0.7,3.5-2.2h2v16.8h-2.5V818.7z"/>
	<path class="st3" d="M81.1,814.9v3.8h-2.4V815h-9.1v-2.4l8.7-10.7h2.9v10.8h2.2v2.2L81.1,814.9L81.1,814.9z M77.2,806.7l-3.2,4.1
		c-0.5,0.6-1.2,1.5-1.6,1.9c0.6,0,1.8,0,2.7,0h3.6v-4.9c0-1,0.1-2.4,0.1-3.1C78.4,805.1,77.8,806,77.2,806.7z"/>
	<path class="st3" d="M97.1,814.9v3.8h-2.4V815h-9.1v-2.4l8.7-10.7h2.9v10.8h2.2v2.2L97.1,814.9L97.1,814.9z M93.2,806.7l-3.2,4.1
		c-0.5,0.6-1.2,1.5-1.6,1.9c0.6,0,1.8,0,2.7,0h3.6v-4.9c0-1,0.1-2.4,0.1-3.1C94.4,805.1,93.8,806,93.2,806.7z"/>
</g>
<g>
	<path class="st0" d="M331.3,809.1V806h10.9v3.1H331.3z M331.3,814.8v-3.1h10.9v3.1H331.3z"/>
	<path class="st0" d="M354.9,818.7v-12.1H352v-2.5c1.9-0.1,3.1-0.8,3.4-2.2h2.8v16.8H354.9z"/>
	<path class="st0" d="M373.8,815.2v3.4h-3.2v-3.4h-9.2v-3l8.9-10.3h3.5v10.2h2.2v3.1H373.8z M369.1,807.6l-2.4,2.8
		c-0.5,0.6-1.2,1.4-1.6,1.8c0.6,0,2.4,0,3.3,0h2.1v-2.7c0-1,0.1-3,0.1-3.7C370.3,806.1,369.7,807,369.1,807.6z"/>
	<path class="st0" d="M385.1,818.9c-4.3,0-7-2-7-5.3c0-2.3,1.4-3.5,2.7-4.1c-1.2-0.6-1.9-1.7-1.9-3c0-3.3,2.8-5,6.3-5
		c3.3,0,6.3,1.6,6.3,4.8c0,1.2-0.6,2.4-1.9,3.1c1.3,0.6,2.7,1.8,2.7,3.9C392.2,816.9,389.5,818.9,385.1,818.9z M385.1,811.2
		c-2.5,0-3.7,0.9-3.7,2.4s1.5,2.4,3.7,2.4c2.3,0,3.7-0.9,3.7-2.4S387.7,811.2,385.1,811.2z M385.1,804.5c-2.1,0-3,0.9-3,2
		s1,1.9,3,1.9c2.1,0,3-0.8,3-1.9C388.1,805.5,387.4,804.5,385.1,804.5z"/>
</g>
<rect x="174" y="7.3" class="st0" width="139.9" height="834.2"/>
<rect x="177.8" y="782.7" class="st1" width="132.5" height="55.2"/>
<g>
	<rect x="177.8" y="10.6" class="st4" width="30.1" height="17.5"/>
	<rect x="212" y="10.6" class="st4" width="30.1" height="17.5"/>
	<rect x="246.1" y="10.6" class="st4" width="30.1" height="17.5"/>
	<rect x="280.2" y="10.6" class="st4" width="30.1" height="17.5"/>
	<rect x="177.8" y="32" class="st4" width="30.1" height="17.5"/>
	<rect x="212" y="32" class="st4" width="30.1" height="17.5"/>
	<rect x="246.1" y="32" class="st4" width="30.1" height="17.5"/>
	<rect x="280.2" y="32" class="st4" width="30.1" height="17.5"/>
	<rect x="177.8" y="53.5" class="st4" width="30.1" height="17.5"/>
	<rect x="212" y="53.5" class="st4" width="30.1" height="17.5"/>
	<rect x="246.1" y="53.5" class="st4" width="30.1" height="17.5"/>
	<rect x="280.2" y="53.5" class="st4" width="30.1" height="17.5"/>
	<rect x="177.8" y="74.9" class="st4" width="30.1" height="17.5"/>
	<rect x="212" y="74.9" class="st4" width="30.1" height="17.5"/>
	<rect x="246.1" y="74.9" class="st4" width="30.1" height="17.5"/>
	<rect x="280.2" y="74.9" class="st4" width="30.1" height="17.5"/>
	<rect x="177.8" y="96.4" class="st4" width="30.1" height="17.5"/>
	<rect x="212" y="96.4" class="st4" width="30.1" height="17.5"/>
	<rect x="246.1" y="96.4" class="st4" width="30.1" height="17.5"/>
	<rect x="280.2" y="96.4" class="st4" width="30.1" height="17.5"/>
	<rect x="177.8" y="117.9" class="st4" width="30.1" height="17.5"/>
	<rect x="212" y="117.9" class="st4" width="30.1" height="17.5"/>
	<rect x="246.1" y="117.9" class="st4" width="30.1" height="17.5"/>
	<rect x="280.2" y="117.9" class="st4" width="30.1" height="17.5"/>
	<rect x="177.8" y="139.3" class="st4" width="30.1" height="17.5"/>
	<rect x="212" y="139.3" class="st4" width="30.1" height="17.5"/>
	<rect x="246.1" y="139.3" class="st4" width="30.1" height="17.5"/>
	<rect x="280.2" y="139.3" class="st4" width="30.1" height="17.5"/>
	<rect x="177.8" y="160.8" class="st4" width="30.1" height="17.5"/>
	<rect x="212" y="160.8" class="st4" width="30.1" height="17.5"/>
	<rect x="246.1" y="160.8" class="st4" width="30.1" height="17.5"/>
	<rect x="280.2" y="160.8" class="st4" width="30.1" height="17.5"/>
	<rect x="177.8" y="182.2" class="st4" width="30.1" height="17.5"/>
	<rect x="212" y="182.2" class="st4" width="30.1" height="17.5"/>
	<rect x="246.1" y="182.2" class="st4" width="30.1" height="17.5"/>
	<rect x="280.2" y="182.2" class="st4" width="30.1" height="17.5"/>
	<rect x="177.8" y="203.7" class="st4" width="30.1" height="17.5"/>
	<rect x="212" y="203.7" class="st4" width="30.1" height="17.5"/>
	<rect x="246.1" y="203.7" class="st4" width="30.1" height="17.5"/>
	<rect x="280.2" y="203.7" class="st4" width="30.1" height="17.5"/>
	<rect x="177.8" y="225.1" class="st4" width="30.1" height="17.5"/>
	<rect x="212" y="225.1" class="st4" width="30.1" height="17.5"/>
	<rect x="246.1" y="225.1" class="st4" width="30.1" height="17.5"/>
	<rect x="280.2" y="225.1" class="st4" width="30.1" height="17.5"/>
	<rect x="177.8" y="246.6" class="st4" width="30.1" height="17.5"/>
	<rect x="212" y="246.6" class="st4" width="30.1" height="17.5"/>
	<rect x="246.1" y="246.6" class="st4" width="30.1" height="17.5"/>
	<rect x="280.2" y="246.6" class="st4" width="30.1" height="17.5"/>
	<rect x="177.8" y="268.1" class="st4" width="30.1" height="17.5"/>
	<rect x="212" y="268.1" class="st4" width="30.1" height="17.5"/>
	<rect x="246.1" y="268.1" class="st4" width="30.1" height="17.5"/>
	<rect x="280.2" y="268.1" class="st4" width="30.1" height="17.5"/>
	<rect x="177.8" y="289.5" class="st4" width="30.1" height="17.5"/>
	<rect x="212" y="289.5" class="st1" width="30.1" height="17.5"/>
	<rect x="246.1" y="289.5" class="st4" width="30.1" height="17.5"/>
	<rect x="280.2" y="289.5" class="st4" width="30.1" height="17.5"/>
	<rect x="177.8" y="311" class="st4" width="30.1" height="17.5"/>
	<rect x="212" y="311" class="st4" width="30.1" height="17.5"/>
	<rect x="246.1" y="311" class="st4" width="30.1" height="17.5"/>
	<rect x="280.2" y="311" class="st4" width="30.1" height="17.5"/>
	<rect x="177.8" y="332.4" class="st4" width="30.1" height="17.5"/>
	<rect x="212" y="332.4" class="st4" width="30.1" height="17.5"/>
	<rect x="246.1" y="332.4" class="st4" width="30.1" height="17.5"/>
	<rect x="280.2" y="332.4" class="st4" width="30.1" height="17.5"/>
	<rect x="177.8" y="353.9" class="st4" width="30.1" height="17.5"/>
	<rect x="212" y="353.9" class="st4" width="30.1" height="17.5"/>
	<rect x="246.1" y="353.9" class="st4" width="30.1" height="17.5"/>
	<rect x="280.2" y="353.9" class="st4" width="30.1" height="17.5"/>
	<rect x="177.8" y="375.4" class="st4" width="30.1" height="17.5"/>
	<rect x="212" y="375.4" class="st4" width="30.1" height="17.5"/>
	<rect x="246.1" y="375.4" class="st4" width="30.1" height="17.5"/>
	<rect x="280.2" y="375.4" class="st4" width="30.1" height="17.5"/>
	<rect x="177.8" y="396.8" class="st4" width="30.1" height="17.5"/>
	<rect x="212" y="396.8" class="st4" width="30.1" height="17.5"/>
	<rect x="246.1" y="396.8" class="st1" width="30.1" height="17.5"/>
	<rect x="280.2" y="396.8" class="st4" width="30.1" height="17.5"/>
	<rect x="177.8" y="418.3" class="st4" width="30.1" height="17.5"/>
	<rect x="212" y="418.3" class="st4" width="30.1" height="17.5"/>
	<rect x="246.1" y="418.3" class="st4" width="30.1" height="17.5"/>
	<rect x="280.2" y="418.3" class="st4" width="30.1" height="17.5"/>
	<rect x="177.8" y="439.7" class="st4" width="30.1" height="17.5"/>
	<rect x="212" y="439.7" class="st4" width="30.1" height="17.5"/>
	<rect x="246.1" y="439.7" class="st4" width="30.1" height="17.5"/>
	<rect x="280.2" y="439.7" class="st4" width="30.1" height="17.5"/>
	<rect x="177.8" y="461.2" class="st4" width="30.1" height="17.5"/>
	<rect x="212" y="461.2" class="st4" width="30.1" height="17.5"/>
	<rect x="246.1" y="461.2" class="st4" width="30.1" height="17.5"/>
	<rect x="280.2" y="461.2" class="st4" width="30.1" height="17.5"/>
	<rect x="177.8" y="482.6" class="st4" width="30.1" height="17.5"/>
	<rect x="212" y="482.6" class="st4" width="30.1" height="17.5"/>
	<rect x="246.1" y="482.6" class="st4" width="30.1" height="17.5"/>
	<rect x="280.2" y="482.6" class="st4" width="30.1" height="17.5"/>
	<rect x="177.8" y="504.1" class="st4" width="30.1" height="17.5"/>
	<rect x="212" y="504.1" class="st4" width="30.1" height="17.5"/>
	<rect x="246.1" y="504.1" class="st4" width="30.1" height="17.5"/>
	<rect x="280.2" y="504.1" class="st1" width="30.1" height="17.5"/>
	<rect x="177.8" y="525.6" class="st4" width="30.1" height="17.5"/>
	<rect x="212" y="525.6" class="st4" width="30.1" height="17.5"/>
	<rect x="246.1" y="525.6" class="st4" width="30.1" height="17.5"/>
	<rect x="280.2" y="525.6" class="st4" width="30.1" height="17.5"/>
	<rect x="177.8" y="547" class="st4" width="30.1" height="17.5"/>
	<rect x="212" y="547" class="st4" width="30.1" height="17.5"/>
	<rect x="246.1" y="547" class="st4" width="30.1" height="17.5"/>
	<rect x="280.2" y="547" class="st4" width="30.1" height="17.5"/>
	<rect x="177.8" y="568.5" class="st4" width="30.1" height="17.5"/>
	<rect x="212" y="568.5" class="st4" width="30.1" height="17.5"/>
	<rect x="246.1" y="568.5" class="st4" width="30.1" height="17.5"/>
	<rect x="280.2" y="568.5" class="st4" width="30.1" height="17.5"/>
	<rect x="177.8" y="589.9" class="st4" width="30.1" height="17.5"/>
	<rect x="212" y="589.9" class="st4" width="30.1" height="17.5"/>
	<rect x="246.1" y="589.9" class="st4" width="30.1" height="17.5"/>
	<rect x="280.2" y="589.9" class="st4" width="30.1" height="17.5"/>
	<rect x="177.8" y="611.4" class="st1" width="30.1" height="17.5"/>
	<rect x="212" y="611.4" class="st4" width="30.1" height="17.5"/>
	<rect x="246.1" y="611.4" class="st4" width="30.1" height="17.5"/>
	<rect x="280.2" y="611.4" class="st4" width="30.1" height="17.5"/>
	<rect x="177.8" y="632.9" class="st4" width="30.1" height="17.5"/>
	<rect x="212" y="632.9" class="st4" width="30.1" height="17.5"/>
	<rect x="246.1" y="632.9" class="st4" width="30.1" height="17.5"/>
	<rect x="280.2" y="632.9" class="st4" width="30.1" height="17.5"/>
	<rect x="177.8" y="654.3" class="st4" width="30.1" height="17.5"/>
	<rect x="212" y="654.3" class="st4" width="30.1" height="17.5"/>
	<rect x="246.1" y="654.3" class="st4" width="30.1" height="17.5"/>
	<rect x="280.2" y="654.3" class="st4" width="30.1" height="17.5"/>
	<rect x="177.8" y="675.8" class="st4" width="30.1" height="17.5"/>
	<rect x="212" y="675.8" class="st4" width="30.1" height="17.5"/>
	<rect x="246.1" y="675.8" class="st4" width="30.1" height="17.5"/>
	<rect x="280.2" y="675.8" class="st4" width="30.1" height="17.5"/>
	<rect x="177.8" y="697.2" class="st4" width="30.1" height="17.5"/>
	<rect x="212" y="697.2" class="st4" width="30.1" height="17.5"/>
	<rect x="246.1" y="697.2" class="st4" width="30.1" height="17.5"/>
	<rect x="280.2" y="697.2" class="st4" width="30.1" height="17.5"/>
	<rect x="177.8" y="718.7" class="st4" width="30.1" height="17.5"/>
	<rect x="212" y="718.7" class="st4" width="30.1" height="17.5"/>
	<rect x="246.1" y="718.7" class="st4" width="30.1" height="17.5"/>
	<rect x="280.2" y="718.7" class="st4" width="30.1" height="17.5"/>
	<rect x="177.8" y="740.1" class="st4" width="30.1" height="17.5"/>
	<rect x="212" y="740.1" class="st4" width="30.1" height="17.5"/>
	<rect x="246.1" y="740.1" class="st4" width="30.1" height="17.5"/>
	<rect x="280.2" y="740.1" class="st4" width="30.1" height="17.5"/>
	<rect x="177.8" y="761.6" class="st4" width="30.1" height="17.5"/>
	<rect x="212" y="761.6" class="st4" width="30.1" height="17.5"/>
	<rect x="246.1" y="761.6" class="st4" width="30.1" height="17.5"/>
	<rect x="280.2" y="761.6" class="st4" width="30.1" height="17.5"/>
</g>
<g>
	<path class="st3" d="M248.6,814.9v3.8h-2.4V815h-9.1v-2.4l8.7-10.7h2.9v10.8h2.2v2.2L248.6,814.9L248.6,814.9z M244.7,806.7
		l-3.2,4.1c-0.5,0.6-1.2,1.5-1.6,1.9c0.6,0,1.8,0,2.7,0h3.6v-4.9c0-1,0.1-2.4,0.1-3.1C245.9,805.1,245.3,806,244.7,806.7z"/>
</g>
<rect x="526.3" y="165.4" class="st5" width="161.2" height="55.2"/>
<g>
	<path class="st0" d="M574.7,189.2c-0.6-1.2-1.6-1.8-3.1-1.8c-2.5,0-4,2.2-4,5.3c0,3,1.5,5.3,4,5.3c1.5,0,2.4-0.6,3.3-2.1l2.8,1.7
		c-1.2,2.4-3.2,3.8-6.2,3.8c-4.4,0-7.3-3.4-7.3-8.7c0-5.1,3.1-8.7,7.5-8.7c3.2,0,5.1,1.5,6.1,3.7L574.7,189.2z"/>
	<path class="st0" d="M581.2,201.1v-16.8h3.4v13.5h8.4v3.3H581.2z"/>
	<path class="st0" d="M596.3,201.1v-16.8h3.4v16.8H596.3z"/>
	<path class="st0" d="M604.2,201.1v-16.8h11.7v3.3h-8.3v2.9h4.8v3.3h-4.8v4.1h8.7v3.3h-12.1V201.1z"/>
	<path class="st0" d="M630.4,201.1l-6.2-9.2c-0.4-0.6-1-1.5-1.2-1.9c0,0.6,0,2.7,0,3.7v7.4h-3.3v-16.8h3.2l6,8.9
		c0.4,0.6,1,1.5,1.2,1.9c0-0.6,0-2.7,0-3.7v-7.1h3.3v16.8L630.4,201.1L630.4,201.1z"/>
	<path class="st0" d="M644.9,187.6v13.5h-3.4v-13.5h-4.8v-3.3h13v3.3H644.9z"/>
</g>
<g>
	<path class="st6" d="M345,68c-0.5-0.3-1.1-0.5-1.9-0.5c-1.6,0-2.5,1.1-2.5,3.2v7.2h-2.5V65.3h2.5v1.2c0.6-0.8,1.6-1.5,2.9-1.5
		c1,0,1.6,0.2,2.1,0.5L345,68z"/>
	<path class="st6" d="M357.8,72.5h-8.3c0.3,2.4,1.6,3.5,3.2,3.5c1.1,0,1.9-0.4,2.7-1l1.5,1.6c-1.1,1.1-2.4,1.7-4.3,1.7
		c-3,0-5.4-2.4-5.4-6.6c0-4.3,2.3-6.6,5.5-6.6c3.6,0,5.3,2.9,5.3,6.3C357.9,71.8,357.8,72.2,357.8,72.5z M352.4,67.3
		c-1.7,0-2.7,1.2-2.9,3.2h5.9C355.2,68.7,354.4,67.3,352.4,67.3z"/>
	<path class="st6" d="M368,77.9v-1.2c-0.9,0.9-2.1,1.5-3.5,1.5c-2,0-4.4-1.2-4.4-4.2c0-2.8,2.2-4.1,5-4.1c1.2,0,2.1,0.2,2.8,0.5
		v-0.9c0-1.4-0.8-2.1-2.4-2.1c-1.3,0-2.3,0.2-3.3,0.8l-1-1.9c1.2-0.7,2.5-1.1,4.3-1.1c2.8,0,4.7,1.4,4.7,4.2V78H368V77.9z M368,72.6
		c-0.7-0.3-1.5-0.6-2.9-0.6c-1.6,0-2.6,0.7-2.6,1.9c0,1.2,0.8,2.1,2.4,2.1c1.3,0,2.5-0.8,3-1.6v-1.8H368z"/>
	<path class="st6" d="M381.5,77.9v-1.2c-0.9,0.8-2,1.5-3.3,1.5c-2.7,0-4.8-2-4.8-6.8c0-4.3,2.4-6.4,5-6.4c1.3,0,2.5,0.7,3.2,1.4
		v-4.8l2.4-1.3v17.5L381.5,77.9L381.5,77.9z M381.6,69c-0.6-0.7-1.7-1.7-3-1.7c-1.8,0-2.7,1.3-2.7,4c0,3.2,1,4.6,2.8,4.6
		c1.2,0,2.2-0.8,2.9-1.6L381.6,69L381.6,69z"/>
</g>
<g>
	<path class="st6" d="M345,177c-0.5-0.3-1.1-0.5-1.9-0.5c-1.6,0-2.5,1.1-2.5,3.2v7.2h-2.5v-12.6h2.5v1.2c0.6-0.8,1.6-1.5,2.9-1.5
		c1,0,1.6,0.2,2.1,0.5L345,177z"/>
	<path class="st6" d="M357.8,181.5h-8.3c0.3,2.4,1.6,3.5,3.2,3.5c1.1,0,1.9-0.4,2.7-1l1.5,1.6c-1.1,1.1-2.4,1.7-4.3,1.7
		c-3,0-5.4-2.4-5.4-6.6c0-4.3,2.3-6.6,5.5-6.6c3.6,0,5.3,2.9,5.3,6.3C357.9,180.9,357.8,181.3,357.8,181.5z M352.4,176.3
		c-1.7,0-2.7,1.2-2.9,3.2h5.9C355.2,177.8,354.4,176.3,352.4,176.3z"/>
	<path class="st6" d="M368,187v-1.2c-0.9,0.9-2.1,1.5-3.5,1.5c-2,0-4.4-1.2-4.4-4.2c0-2.8,2.2-4.1,5-4.1c1.2,0,2.1,0.2,2.8,0.5v-0.9
		c0-1.4-0.8-2.1-2.4-2.1c-1.3,0-2.3,0.2-3.3,0.8l-1-1.9c1.2-0.7,2.5-1.1,4.3-1.1c2.8,0,4.7,1.4,4.7,4.2v8.6H368V187z M368,181.6
		c-0.7-0.3-1.5-0.6-2.9-0.6c-1.6,0-2.6,0.7-2.6,1.9s0.8,2.1,2.4,2.1c1.3,0,2.5-0.8,3-1.6v-1.8H368z"/>
	<path class="st6" d="M381.5,187v-1.2c-0.9,0.8-2,1.5-3.3,1.5c-2.7,0-4.8-2-4.8-6.8c0-4.3,2.4-6.4,5-6.4c1.3,0,2.5,0.7,3.2,1.4v-4.8
		l2.4-1.3V187H381.5z M381.6,178c-0.6-0.7-1.7-1.7-3-1.7c-1.8,0-2.7,1.3-2.7,4c0,3.2,1,4.6,2.8,4.6c1.2,0,2.2-0.8,2.9-1.6L381.6,178
		L381.6,178z"/>
</g>
<g>
	<path class="st6" d="M345,283.5c-0.5-0.3-1.1-0.5-1.9-0.5c-1.6,0-2.5,1.1-2.5,3.2v7.2h-2.5v-12.6h2.5v1.2c0.6-0.8,1.6-1.5,2.9-1.5
		c1,0,1.6,0.2,2.1,0.5L345,283.5z"/>
	<path class="st6" d="M357.8,288.1h-8.3c0.3,2.4,1.6,3.5,3.2,3.5c1.1,0,1.9-0.4,2.7-1l1.5,1.6c-1.1,1.1-2.4,1.7-4.3,1.7
		c-3,0-5.4-2.4-5.4-6.6c0-4.3,2.3-6.6,5.5-6.6c3.6,0,5.3,2.9,5.3,6.3C357.9,287.4,357.8,287.8,357.8,288.1z M352.4,282.9
		c-1.7,0-2.7,1.2-2.9,3.2h5.9C355.2,284.3,354.4,282.9,352.4,282.9z"/>
	<path class="st6" d="M368,293.5v-1.2c-0.9,0.9-2.1,1.5-3.5,1.5c-2,0-4.4-1.2-4.4-4.2c0-2.8,2.2-4.1,5-4.1c1.2,0,2.1,0.2,2.8,0.5v-1
		c0-1.4-0.8-2.1-2.4-2.1c-1.3,0-2.3,0.2-3.3,0.8l-1-1.9c1.2-0.7,2.5-1.1,4.3-1.1c2.8,0,4.7,1.4,4.7,4.2v8.6H368z M368,288.1
		c-0.7-0.3-1.5-0.6-2.9-0.6c-1.6,0-2.6,0.7-2.6,1.9c0,1.2,0.8,2.1,2.4,2.1c1.3,0,2.5-0.8,3-1.6v-1.8H368z"/>
	<path class="st6" d="M381.5,293.5v-1.2c-0.9,0.8-2,1.5-3.3,1.5c-2.7,0-4.8-2-4.8-6.8c0-4.3,2.4-6.4,5-6.4c1.3,0,2.5,0.7,3.2,1.4
		v-4.8l2.4-1.3v17.5L381.5,293.5L381.5,293.5z M381.6,284.6c-0.6-0.7-1.7-1.7-3-1.7c-1.8,0-2.7,1.3-2.7,4c0,3.2,1,4.6,2.8,4.6
		c1.2,0,2.2-0.8,2.9-1.6L381.6,284.6L381.6,284.6z"/>
</g>
<g>
	<g>
		<polyline class="st7" points="526.3,192.4 432.4,192.4 432.4,83.7 143.1,83.7 		"/>
		<g>
			<polygon class="st6" points="144.5,78.7 135.9,83.7 144.5,88.7 			"/>
		</g>
	</g>
</g>
<g>
	<g>
		<line class="st7" x1="526.3" y1="192.4" x2="143.1" y2="192.4"/>
		<g>
			<polygon class="st6" points="144.5,187.4 135.9,192.4 144.5,197.4 			"/>
		</g>
	</g>
</g>
<g>
	<g>
		<polyline class="st7" points="526.3,192.4 432.4,192.4 432.4,298.2 238.3,298.2 		"/>
		<g>
			<polygon class="st6" points="239.7,293.3 231.1,298.2 239.7,303.2 			"/>
		</g>
	</g>
</g>
</svg>
