<?xml version="1.0" encoding="UTF-8" standalone="no"?>
<svg
   xmlns:dc="http://purl.org/dc/elements/1.1/"
   xmlns:cc="http://creativecommons.org/ns#"
   xmlns:rdf="http://www.w3.org/1999/02/22-rdf-syntax-ns#"
   xmlns:svg="http://www.w3.org/2000/svg"
   xmlns="http://www.w3.org/2000/svg"
   xmlns:sodipodi="http://sodipodi.sourceforge.net/DTD/sodipodi-0.dtd"
   xmlns:inkscape="http://www.inkscape.org/namespaces/inkscape"
   inkscape:version="1.0 (4035a4f, 2020-05-01)"
   sodipodi:docname="RBD_mirror_one-way_diagram.svg"
   version="1.1"
   viewBox="0 0 595.276 254.927"
   height="89.933mm"
   width="210mm"
   data-name="Layer 1"
   id="Layer_1">
  <metadata
     id="metadata243">
    <rdf:RDF>
      <cc:Work
         rdf:about="">
        <dc:format>image/svg+xml</dc:format>
        <dc:type
           rdf:resource="http://purl.org/dc/dcmitype/StillImage" />
        <dc:title></dc:title>
        <dc:subject>
          <rdf:Bag>
            <rdf:li>Red Hat Ceph Storage</rdf:li>
            <rdf:li>RBD Mirror</rdf:li>
            <rdf:li>Mirroring</rdf:li>
            <rdf:li>one-way mirroring</rdf:li>
          </rdf:Bag>
        </dc:subject>
      </cc:Work>
    </rdf:RDF>
  </metadata>
  <sodipodi:namedview
     inkscape:current-layer="Layer_1"
     inkscape:window-maximized="0"
     inkscape:window-y="25"
     inkscape:window-x="0"
     inkscape:cy="169.95212"
     inkscape:cx="396.85039"
     inkscape:zoom="0.63122024"
     showgrid="false"
     id="namedview241"
     inkscape:window-height="480"
     inkscape:window-width="987"
     inkscape:pageshadow="2"
     inkscape:pageopacity="0"
     guidetolerance="10"
     gridtolerance="10"
     objecttolerance="10"
     borderopacity="1"
     bordercolor="#666666"
     pagecolor="#ffffff" />
  <defs
     id="defs12">
    <style
       id="style10">
      .cls-1 {
        fill: #e8e7e7;
      }

      .cls-10, .cls-11, .cls-2 {
        fill: none;
      }

      .cls-2 {
        stroke: #000;
      }

      .cls-2, .cls-5, .cls-7 {
        stroke-miterlimit: 10;
        stroke-width: 0.75px;
      }

      .cls-3, .cls-5, .cls-9 {
        fill: #fff;
      }

      .cls-4 {
        fill: #06c;
      }

      .cls-5, .cls-7 {
        stroke: #06c;
      }

      .cls-6 {
        fill: #f0f0f0;
      }

      .cls-7 {
        fill: #dbe8f5;
      }

      .cls-8 {
        fill: #151515;
      }

      .cls-10, .cls-11, .cls-9 {
        stroke: #5b5b5b;
        stroke-linecap: round;
        stroke-linejoin: round;
      }

      .cls-10 {
        stroke-width: 2px;
      }
    </style>
  </defs>
  <rect
     id="rect14"
     height="122.598"
     width="268.608"
     y="112.337"
     x="19.687"
     class="cls-1" />
  <g
     id="g20">
    <line
       id="line16"
       y2="119.168"
       x2="154.346"
       y1="65.655"
       x1="154.346"
       class="cls-2" />
    <polygon
       id="polygon18"
       points="150.607 118.073 154.346 124.549 158.085 118.073 150.607 118.073" />
  </g>
  <rect
     id="rect22"
     height="11.134"
     width="48.5"
     y="84.782"
     x="130.096"
     class="cls-3" />
  <rect
     id="rect24"
     height="37.136"
     width="113.613"
     y="187.423"
     x="30.621"
     class="cls-4" />
  <rect
     id="rect26"
     height="37.136"
     width="113.613"
     y="187.423"
     x="164.457"
     class="cls-5" />
  <rect
     id="rect28"
     height="37.136"
     width="113.613"
     y="124.549"
     x="97.185"
     class="cls-3" />
  <rect
     id="rect30"
     height="122.598"
     width="268.608"
     y="112.337"
     x="306.98"
     class="cls-1" />
  <rect
     id="rect32"
     height="37.136"
     width="113.613"
     y="187.423"
     x="317.914"
     class="cls-6" />
  <rect
     id="rect34"
     height="37.136"
     width="113.613"
     y="187.423"
     x="451.75"
     class="cls-7" />
  <g
     id="g40">
    <polyline
       id="polyline36"
       points="153.991 161.685 153.991 174.855 87.428 174.855 87.428 182.041"
       class="cls-2" />
    <polygon
       id="polygon38"
       points="83.689 180.947 87.428 187.423 91.167 180.947 83.689 180.947" />
  </g>
  <g
     id="g46">
    <polyline
       id="polyline42"
       points="153.991 161.685 153.991 174.855 221.264 174.855 221.264 182.041"
       class="cls-2" />
    <polygon
       id="polygon44"
       points="217.524 180.947 221.263 187.423 225.003 180.947 217.524 180.947" />
  </g>
  <g
     id="g62">
    <path
       id="path48"
       d="M71.58,202.529H74.4a1.955,1.955,0,1,1,0,3.9H72.66v2.4H71.58Zm1.08.909v2.106h1.567a1.06,1.06,0,1,0,.009-2.106Z"
       class="cls-3" />
    <path
       id="path50"
       d="M77.565,204.32h1.017v.982a1.337,1.337,0,0,1,1.242-1.063,1.211,1.211,0,0,1,.442.09v.892a1.42,1.42,0,0,0-.558-.109,1.239,1.239,0,0,0-1.126.748v2.971H77.565Z"
       class="cls-3" />
    <path
       id="path52"
       d="M80.976,202.781a.635.635,0,0,1,1.269,0,.635.635,0,0,1-1.269,0Zm1.143,6.05H81.1V204.32h1.017Z"
       class="cls-3" />
    <path
       id="path54"
       d="M83.37,204.32h1.017v.721a1.537,1.537,0,0,1,1.341-.793,1.417,1.417,0,0,1,1.324.874,1.662,1.662,0,0,1,1.494-.874,1.494,1.494,0,0,1,1.476,1.639v2.944H89.005V206.1a.913.913,0,0,0-.909-1.036,1.075,1.075,0,0,0-.909.532c.009.1.018.189.018.288v2.944H86.188V206.1a.914.914,0,0,0-.91-1.036,1.045,1.045,0,0,0-.891.514v3.25H83.37Z"
       class="cls-3" />
    <path
       id="path56"
       d="M91.029,207.534c0-.81.657-1.323,1.719-1.323a2.784,2.784,0,0,1,1.215.279V206c0-.595-.341-.9-1.035-.9a3.135,3.135,0,0,0-1.314.351l-.36-.737a4.317,4.317,0,0,1,1.872-.46c1.171,0,1.846.594,1.846,1.639v2.944H93.963v-.459a1.88,1.88,0,0,1-1.341.53A1.422,1.422,0,0,1,91.029,207.534Zm1.872.657a1.608,1.608,0,0,0,1.062-.369v-.738a2.331,2.331,0,0,0-1.044-.216c-.576,0-.936.252-.936.648C91.983,207.93,92.343,208.191,92.9,208.191Z"
       class="cls-3" />
    <path
       id="path58"
       d="M96.2,204.32h1.017v.982a1.337,1.337,0,0,1,1.242-1.063,1.205,1.205,0,0,1,.441.09v.892a1.417,1.417,0,0,0-.558-.109,1.238,1.238,0,0,0-1.125.748v2.971H96.2Z"
       class="cls-3" />
    <path
       id="path60"
       d="M100.983,208.857l-1.7-4.537h1.135l1.143,3.349,1.26-3.349h1.108l-2.143,5.249a1.524,1.524,0,0,1-1.6,1.188,2.163,2.163,0,0,1-.514-.063v-.873a3.744,3.744,0,0,0,.4.036.718.718,0,0,0,.729-.522Z"
       class="cls-3" />
  </g>
  <g
     id="g88">
    <path
       id="path64"
       d="M193.531,202.245h1.08v6.3h-1.08Z" />
    <path
       id="path66"
       d="M195.952,204.036h1.017v.72a1.538,1.538,0,0,1,1.342-.792,1.417,1.417,0,0,1,1.323.873,1.663,1.663,0,0,1,1.494-.873,1.494,1.494,0,0,1,1.477,1.639v2.943h-1.018v-2.728a.912.912,0,0,0-.909-1.035,1.074,1.074,0,0,0-.909.531c.009.1.018.189.018.289v2.943H198.77v-2.728a.913.913,0,0,0-.91-1.035,1.046,1.046,0,0,0-.891.513v3.25h-1.017Z" />
    <path
       id="path68"
       d="M203.611,207.25c0-.81.657-1.323,1.719-1.323a2.784,2.784,0,0,1,1.215.279v-.5c0-.594-.341-.9-1.035-.9a3.12,3.12,0,0,0-1.314.351l-.36-.738a4.329,4.329,0,0,1,1.872-.459c1.17,0,1.846.594,1.846,1.639v2.943h-1.009v-.459a1.877,1.877,0,0,1-1.341.531A1.422,1.422,0,0,1,203.611,207.25Zm1.872.657a1.608,1.608,0,0,0,1.062-.369V206.8a2.331,2.331,0,0,0-1.044-.216c-.576,0-.936.252-.936.648C204.565,207.646,204.925,207.907,205.483,207.907Z" />
    <path
       id="path70"
       d="M208.579,206.287A2.177,2.177,0,0,1,210.685,204a1.7,1.7,0,0,1,1.323.612v-.576h1.009V208.7c0,1.162-.757,1.8-2.125,1.8a3.917,3.917,0,0,1-1.809-.432l.36-.756a3.07,3.07,0,0,0,1.4.387c.757,0,1.153-.343,1.153-1v-.765a1.753,1.753,0,0,1-1.378.639A2.161,2.161,0,0,1,208.579,206.287Zm2.349,1.44a1.353,1.353,0,0,0,1.072-.5v-1.891a1.4,1.4,0,0,0-1.072-.486,1.345,1.345,0,0,0-1.341,1.432A1.363,1.363,0,0,0,210.928,207.727Z" />
    <path
       id="path72"
       d="M216.355,208.636a2.292,2.292,0,0,1-2.295-2.34,2.22,2.22,0,0,1,2.2-2.332,2.165,2.165,0,0,1,2.134,2.323v.252h-3.331a1.377,1.377,0,0,0,1.35,1.233,1.463,1.463,0,0,0,1.071-.423l.666.621A2.608,2.608,0,0,1,216.355,208.636Zm-1.278-2.719h2.349a1.234,1.234,0,0,0-1.179-1.125A1.211,1.211,0,0,0,215.077,205.917Z" />
    <path
       id="path74"
       d="M220.584,210.437v-.819a1.432,1.432,0,0,0,.36.036c.351,0,.505-.144.505-.487v-5.131h1.017v5.176a1.189,1.189,0,0,1-1.333,1.288A2.37,2.37,0,0,1,220.584,210.437Zm.739-7.94a.635.635,0,0,1,1.269,0,.635.635,0,0,1-1.269,0Z" />
    <path
       id="path76"
       d="M225.778,203.964a2.337,2.337,0,1,1-2.268,2.332A2.252,2.252,0,0,1,225.778,203.964Zm1.261,2.341a1.275,1.275,0,1,0-2.521,0,1.273,1.273,0,1,0,2.521,0Z" />
    <path
       id="path78"
       d="M230.089,206.719a.971.971,0,0,0,.99,1.08,1.137,1.137,0,0,0,.99-.558v-3.205h1.017v4.51h-1.017V207.8a1.649,1.649,0,0,1-1.44.819,1.513,1.513,0,0,1-1.558-1.611v-2.971h1.018Z" />
    <path
       id="path80"
       d="M234.336,204.036h1.018v.982a1.337,1.337,0,0,1,1.242-1.063,1.205,1.205,0,0,1,.441.09v.892a1.417,1.417,0,0,0-.558-.109,1.237,1.237,0,0,0-1.125.748v2.97h-1.018Z" />
    <path
       id="path82"
       d="M237.873,204.036h1.017v.738a1.637,1.637,0,0,1,1.432-.81,1.518,1.518,0,0,1,1.557,1.612v2.97h-1.017v-2.682a.972.972,0,0,0-.99-1.081,1.156,1.156,0,0,0-.982.54v3.223h-1.017Z" />
    <path
       id="path84"
       d="M242.886,207.25c0-.81.657-1.323,1.719-1.323a2.788,2.788,0,0,1,1.216.279v-.5c0-.594-.342-.9-1.035-.9a3.127,3.127,0,0,0-1.315.351l-.36-.738a4.33,4.33,0,0,1,1.873-.459c1.17,0,1.845.594,1.845,1.639v2.943h-1.008v-.459a1.879,1.879,0,0,1-1.342.531A1.422,1.422,0,0,1,242.886,207.25Zm1.873.657a1.608,1.608,0,0,0,1.062-.369V206.8a2.333,2.333,0,0,0-1.044-.216c-.576,0-.937.252-.937.648C243.84,207.646,244.2,207.907,244.759,207.907Z" />
    <path
       id="path86"
       d="M249.078,208.546h-1.017v-6.437l1.017-.171Z" />
  </g>
  <g
     id="g108">
    <path
       id="path90"
       d="M486.809,206.827a3.153,3.153,0,0,0,2.116.918c.837,0,1.413-.423,1.413-1,0-.513-.306-.747-1.144-.9l-1.161-.2c-1.09-.2-1.62-.738-1.62-1.6,0-1.134.909-1.891,2.322-1.891a4.2,4.2,0,0,1,2.53.82l-.549.81a3.271,3.271,0,0,0-2.017-.729c-.756,0-1.251.378-1.251.891,0,.45.28.684.972.792l1.116.2c1.27.215,1.864.773,1.864,1.728,0,1.152-1.026,1.971-2.53,1.971a3.966,3.966,0,0,1-2.646-1.017Z" />
    <path
       id="path92"
       d="M494.549,208.636a2.292,2.292,0,0,1-2.295-2.34,2.22,2.22,0,0,1,2.2-2.332,2.165,2.165,0,0,1,2.134,2.323v.252h-3.331a1.377,1.377,0,0,0,1.351,1.233,1.466,1.466,0,0,0,1.071-.423l.666.621A2.612,2.612,0,0,1,494.549,208.636Zm-1.278-2.719h2.349a1.234,1.234,0,0,0-1.179-1.125A1.211,1.211,0,0,0,493.271,205.917Z" />
    <path
       id="path94"
       d="M500.867,207.241l.612.612a2.344,2.344,0,0,1-1.764.783,2.332,2.332,0,0,1,0-4.663,2.434,2.434,0,0,1,1.8.756l-.63.657a1.492,1.492,0,0,0-1.135-.531,1.447,1.447,0,0,0,.027,2.881A1.384,1.384,0,0,0,500.867,207.241Z" />
    <path
       id="path96"
       d="M504.278,203.964a2.337,2.337,0,1,1-2.268,2.332A2.252,2.252,0,0,1,504.278,203.964Zm1.26,2.341a1.275,1.275,0,1,0-2.52,0,1.272,1.272,0,1,0,2.52,0Z" />
    <path
       id="path98"
       d="M507.6,204.036h1.016v.738a1.638,1.638,0,0,1,1.432-.81,1.518,1.518,0,0,1,1.557,1.612v2.97h-1.017v-2.682a.972.972,0,0,0-.99-1.081,1.156,1.156,0,0,0-.982.54v3.223H507.6Z" />
    <path
       id="path100"
       d="M516.06,207.943a1.739,1.739,0,0,1-1.387.648,2.308,2.308,0,0,1,.063-4.591,1.723,1.723,0,0,1,1.315.594v-2.485l1.016-.171v6.608H516.06Zm-1.081-.207a1.353,1.353,0,0,0,1.072-.495v-1.9a1.4,1.4,0,0,0-1.072-.486,1.444,1.444,0,0,0,0,2.881Z" />
    <path
       id="path102"
       d="M518.1,207.25c0-.81.657-1.323,1.718-1.323a2.788,2.788,0,0,1,1.216.279v-.5c0-.594-.342-.9-1.035-.9a3.116,3.116,0,0,0-1.314.351l-.361-.738a4.333,4.333,0,0,1,1.873-.459c1.17,0,1.845.594,1.845,1.639v2.943h-1.008v-.459a1.879,1.879,0,0,1-1.342.531A1.421,1.421,0,0,1,518.1,207.25Zm1.872.657a1.61,1.61,0,0,0,1.062-.369V206.8a2.333,2.333,0,0,0-1.044-.216c-.576,0-.936.252-.936.648C519.056,207.646,519.416,207.907,519.974,207.907Z" />
    <path
       id="path104"
       d="M523.276,204.036h1.017v.982a1.338,1.338,0,0,1,1.242-1.063,1.211,1.211,0,0,1,.442.09v.892a1.424,1.424,0,0,0-.558-.109,1.239,1.239,0,0,0-1.126.748v2.97h-1.017Z" />
    <path
       id="path106"
       d="M528.056,208.573l-1.7-4.537h1.134l1.144,3.349,1.26-3.349H531l-2.143,5.249a1.524,1.524,0,0,1-1.6,1.188,2.155,2.155,0,0,1-.513-.063v-.873c.243.026.306.036.4.036a.718.718,0,0,0,.729-.522Z" />
  </g>
  <g
     id="g130">
    <path
       id="path110"
       d="M353.031,204.036h1.018v.982a1.337,1.337,0,0,1,1.242-1.063,1.205,1.205,0,0,1,.441.09v.892a1.417,1.417,0,0,0-.558-.109,1.236,1.236,0,0,0-1.125.748v2.97h-1.018Z" />
    <path
       id="path112"
       d="M358.9,208.591a1.68,1.68,0,0,1-1.333-.63v.585h-1v-6.437l1.018-.171v2.7a1.754,1.754,0,0,1,1.386-.639,2.307,2.307,0,0,1-.072,4.591Zm-1.314-3.232v1.882a1.382,1.382,0,0,0,1.08.495,1.444,1.444,0,0,0,0-2.881A1.322,1.322,0,0,0,357.586,205.359Z" />
    <path
       id="path114"
       d="M365.317,207.943a1.735,1.735,0,0,1-1.386.648,2.308,2.308,0,0,1,.063-4.591,1.723,1.723,0,0,1,1.315.594v-2.485l1.016-.171v6.608h-1.008Zm-1.08-.207a1.353,1.353,0,0,0,1.072-.495v-1.9a1.4,1.4,0,0,0-1.072-.486,1.444,1.444,0,0,0,0,2.881Z" />
    <path
       id="path116"
       d="M370.6,205.566v.856h-3.133v-.856Z" />
    <path
       id="path118"
       d="M371.742,204.036h1.017v.72a1.538,1.538,0,0,1,1.342-.792,1.418,1.418,0,0,1,1.323.873,1.663,1.663,0,0,1,1.494-.873A1.494,1.494,0,0,1,378.4,205.6v2.943h-1.017v-2.728a.913.913,0,0,0-.91-1.035,1.074,1.074,0,0,0-.909.531c.009.1.018.189.018.289v2.943H374.56v-2.728a.913.913,0,0,0-.91-1.035,1.046,1.046,0,0,0-.891.513v3.25h-1.017Z" />
    <path
       id="path120"
       d="M379.5,202.5a.635.635,0,0,1,1.269,0,.635.635,0,0,1-1.269,0Zm1.143,6.049h-1.017v-4.51h1.017Z" />
    <path
       id="path122"
       d="M381.894,204.036h1.017v.982a1.337,1.337,0,0,1,1.242-1.063,1.215,1.215,0,0,1,.442.09v.892a1.418,1.418,0,0,0-.559-.109,1.237,1.237,0,0,0-1.125.748v2.97h-1.017Z" />
    <path
       id="path124"
       d="M385.431,204.036h1.017v.982a1.337,1.337,0,0,1,1.242-1.063,1.211,1.211,0,0,1,.442.09v.892a1.418,1.418,0,0,0-.559-.109,1.237,1.237,0,0,0-1.125.748v2.97h-1.017Z" />
    <path
       id="path126"
       d="M390.813,203.964a2.337,2.337,0,1,1-2.268,2.332A2.252,2.252,0,0,1,390.813,203.964Zm1.26,2.341a1.275,1.275,0,1,0-2.52,0,1.272,1.272,0,1,0,2.52,0Z" />
    <path
       id="path128"
       d="M394.134,204.036h1.017v.982a1.338,1.338,0,0,1,1.243-1.063,1.21,1.21,0,0,1,.441.09v.892a1.418,1.418,0,0,0-.559-.109,1.237,1.237,0,0,0-1.125.748v2.97h-1.017Z" />
  </g>
  <g
     id="g144">
    <path
       id="path132"
       d="M143.345,145.61h-1.017v-6.437l1.017-.171Z" />
    <path
       id="path134"
       d="M144.469,139.561a.635.635,0,0,1,1.27,0,.635.635,0,0,1-1.27,0Zm1.144,6.049H144.6V141.1h1.017Z" />
    <path
       id="path136"
       d="M149.2,145.655a1.677,1.677,0,0,1-1.332-.63v.585h-1v-6.437l1.017-.171v2.7a1.755,1.755,0,0,1,1.386-.639,2.307,2.307,0,0,1-.072,4.591Zm-1.314-3.232v1.882a1.382,1.382,0,0,0,1.08.5,1.444,1.444,0,0,0,0-2.881A1.324,1.324,0,0,0,147.881,142.423Z" />
    <path
       id="path138"
       d="M152.362,141.1h1.017v.982a1.339,1.339,0,0,1,1.243-1.063,1.205,1.205,0,0,1,.441.09V142a1.434,1.434,0,0,0-.558-.108,1.238,1.238,0,0,0-1.126.748v2.97h-1.017Z" />
    <path
       id="path140"
       d="M158.231,145.655a1.68,1.68,0,0,1-1.333-.63v.585h-1v-6.437l1.018-.171v2.7a1.754,1.754,0,0,1,1.386-.639,2.307,2.307,0,0,1-.072,4.591Zm-1.314-3.232v1.882a1.382,1.382,0,0,0,1.08.5,1.444,1.444,0,0,0,0-2.881A1.324,1.324,0,0,0,156.917,142.423Z" />
    <path
       id="path142"
       d="M164.648,145.007a1.735,1.735,0,0,1-1.386.648,2.307,2.307,0,0,1,.063-4.591,1.72,1.72,0,0,1,1.314.594v-2.485l1.017-.171v6.608h-1.008Zm-1.08-.207a1.349,1.349,0,0,0,1.071-.5v-1.9a1.4,1.4,0,0,0-1.071-.486,1.444,1.444,0,0,0,0,2.881Z" />
  </g>
  <g
     id="g162">
    <path
       id="path146"
       d="M323.711,130.661l1.129,1.069a3.582,3.582,0,1,1,.051-4.508l-1.161,1.1a2.034,2.034,0,0,0-1.678-.93,2.07,2.07,0,1,0,1.659,3.269Z" />
    <path
       id="path148"
       d="M327.363,132.969h-1.619v-7.146l1.619-.25Z" />
    <path
       id="path150"
       d="M330.2,130.82a.859.859,0,0,0,.859.96,1.043,1.043,0,0,0,.86-.43v-3.538h1.619v5.157h-1.619v-.839a1.9,1.9,0,0,1-1.629.919,1.666,1.666,0,0,1-1.709-1.759v-3.478H330.2Z" />
    <path
       id="path152"
       d="M335.094,131.36a3.336,3.336,0,0,0,1.658.52c.46,0,.74-.16.74-.42,0-.2-.15-.31-.479-.37l-.991-.18c-1-.189-1.518-.7-1.518-1.5,0-1.059.809-1.689,2.158-1.689a4.149,4.149,0,0,1,2.1.59l-.741,1.029a2.922,2.922,0,0,0-1.478-.44c-.391,0-.62.13-.62.36,0,.21.13.3.529.37l.97.18c1.019.19,1.559.71,1.55,1.489.009,1.01-.951,1.769-2.22,1.769a4.208,4.208,0,0,1-2.368-.63Z" />
    <path
       id="path154"
       d="M340.493,129.062h-1v-1.25h1v-1.429l1.619-.33v1.759h1.379v1.25h-1.379v2c0,.46.18.62.68.62a2.165,2.165,0,0,0,.659-.11v1.309a4.5,4.5,0,0,1-1.109.16c-1.22,0-1.849-.56-1.849-1.659Z" />
    <path
       id="path156"
       d="M346.882,133.069a2.666,2.666,0,0,1-2.719-2.668,2.588,2.588,0,0,1,2.6-2.679,2.535,2.535,0,0,1,2.539,2.738v.351h-3.548a1.236,1.236,0,0,0,1.209.969,1.273,1.273,0,0,0,1.019-.43l1.07.89A3.008,3.008,0,0,1,346.882,133.069Zm-1.129-3.178H347.8a1.075,1.075,0,0,0-1.05-.91A1.024,1.024,0,0,0,345.753,129.891Z" />
    <path
       id="path158"
       d="M350.313,127.812h1.62v1.169c.329-.859.789-1.269,1.4-1.269a1.1,1.1,0,0,1,.539.13v1.389a1.768,1.768,0,0,0-.76-.16,1.422,1.422,0,0,0-1.178.64v3.258h-1.62Z" />
    <path
       id="path160"
       d="M360.491,125.973a2.07,2.07,0,0,1,2.329,1.909A1.744,1.744,0,0,1,361.8,129.4a1.774,1.774,0,0,1,1.22,1.609,2.1,2.1,0,0,1-2.37,1.959h-3.618v-7Zm-1.738,1.369v1.44h1.539a.722.722,0,0,0,.8-.72.711.711,0,0,0-.8-.72Zm2.528,3.489a.758.758,0,0,0-.849-.77h-1.679V131.6h1.679A.758.758,0,0,0,361.281,130.831Z" />
  </g>
  <g
     id="g180">
    <path
       id="path164"
       d="M36.417,130.661l1.129,1.069a3.582,3.582,0,1,1,.051-4.508l-1.16,1.1a2.035,2.035,0,0,0-1.679-.93,2.07,2.07,0,1,0,1.659,3.269Z" />
    <path
       id="path166"
       d="M40.07,132.969H38.451v-7.146l1.619-.25Z" />
    <path
       id="path168"
       d="M42.91,130.82a.859.859,0,0,0,.859.96,1.04,1.04,0,0,0,.859-.43v-3.538h1.62v5.157h-1.62v-.839a1.9,1.9,0,0,1-1.628.919,1.666,1.666,0,0,1-1.709-1.759v-3.478H42.91Z" />
    <path
       id="path170"
       d="M47.8,131.36a3.338,3.338,0,0,0,1.658.52c.46,0,.741-.16.741-.42,0-.2-.151-.31-.48-.37l-.99-.18c-1-.189-1.519-.7-1.519-1.5,0-1.059.81-1.689,2.159-1.689a4.148,4.148,0,0,1,2.1.59l-.74,1.029a2.925,2.925,0,0,0-1.478-.44c-.391,0-.621.13-.621.36,0,.21.13.3.53.37l.969.18c1.02.19,1.56.71,1.55,1.489.01,1.01-.95,1.769-2.22,1.769a4.213,4.213,0,0,1-2.368-.63Z" />
    <path
       id="path172"
       d="M53.2,129.062h-1v-1.25h1v-1.429l1.619-.33v1.759H56.2v1.25H54.819v2c0,.46.18.62.68.62a2.169,2.169,0,0,0,.659-.11v1.309a4.507,4.507,0,0,1-1.11.16c-1.219,0-1.848-.56-1.848-1.659Z" />
    <path
       id="path174"
       d="M59.588,133.069A2.666,2.666,0,0,1,56.87,130.4a2.588,2.588,0,0,1,2.6-2.679,2.534,2.534,0,0,1,2.539,2.738v.351H58.459a1.238,1.238,0,0,0,1.209.969,1.277,1.277,0,0,0,1.02-.43l1.069.89A3.008,3.008,0,0,1,59.588,133.069Zm-1.129-3.178h2.049a1.074,1.074,0,0,0-1.05-.91A1.024,1.024,0,0,0,58.459,129.891Z" />
    <path
       id="path176"
       d="M63.02,127.812h1.619v1.169c.329-.859.789-1.269,1.4-1.269a1.1,1.1,0,0,1,.539.13v1.389a1.775,1.775,0,0,0-.76-.16,1.424,1.424,0,0,0-1.179.64v3.258H63.02Z" />
    <path
       id="path178"
       d="M71.708,125.973h1.959l2.689,7H74.5l-.581-1.669H71.359l-.59,1.669H68.98Zm1.75,4-.81-2.319-.819,2.319Z" />
  </g>
  <g
     id="g198">
    <path
       id="path182"
       d="M139.091,93.276l-1.207-5.6h.623l.952,4.629,1.383-4.629h.6l1.383,4.613.959-4.613h.6l-1.207,5.6h-.624l-1.415-4.749-1.423,4.749Z"
       class="cls-8" />
    <path
       id="path184"
       d="M145.323,89.374h.584v.792a1.165,1.165,0,0,1,1.087-.863,1.108,1.108,0,0,1,.368.055v.528a1.49,1.49,0,0,0-.407-.072,1.114,1.114,0,0,0-1.048.791v2.671h-.584Z"
       class="cls-8" />
    <path
       id="path186"
       d="M148.011,87.991a.42.42,0,0,1,.84,0,.42.42,0,1,1-.84,0Zm.712,5.285h-.584v-3.9h.584Z"
       class="cls-8" />
    <path
       id="path188"
       d="M150.387,89.854h-.807v-.48h.807V88.3l.584-.136v1.207h1.119v.48h-1.119v2.391c0,.416.16.584.568.584a1.4,1.4,0,0,0,.551-.1v.519a2.188,2.188,0,0,1-.679.105c-.672,0-1.024-.328-1.024-.953Z"
       class="cls-8" />
    <path
       id="path190"
       d="M154.707,93.349a1.948,1.948,0,0,1-1.936-2.024,1.9,1.9,0,0,1,1.839-2.014,1.842,1.842,0,0,1,1.791,1.966v.176h-3.062a1.422,1.422,0,0,0,1.391,1.384,1.6,1.6,0,0,0,1.072-.4l.367.392A2.274,2.274,0,0,1,154.707,93.349Zm-1.352-2.311h2.471a1.289,1.289,0,0,0-1.223-1.224A1.3,1.3,0,0,0,153.355,91.038Z"
       class="cls-8" />
    <path
       id="path192"
       d="M159.363,87.68h.616v5.6h-.616Z"
       class="cls-8" />
    <path
       id="path194"
       d="M163.49,87.68h.584l-3.2,7.235H160.3Z"
       class="cls-8" />
    <path
       id="path196"
       d="M167.649,93.364a2.888,2.888,0,1,1,2.783-2.886A2.813,2.813,0,0,1,167.649,93.364Zm0-5.213a2.334,2.334,0,1,0,2.159,2.327A2.217,2.217,0,0,0,167.649,88.151Z"
       class="cls-8" />
  </g>
  <g
     id="g226">
    <g
       id="g212">
      <path
         id="path200"
         d="M146.048,60.447l.789.76a3.591,3.591,0,1,1,.031-4.739l-.81.8a2.461,2.461,0,1,0-1.879,4.088A2.37,2.37,0,0,0,146.048,60.447Z"
         class="cls-8" />
      <path
         id="path202"
         d="M149.07,62.335h-1.129V55.189L149.07,55Z"
         class="cls-8" />
      <path
         id="path204"
         d="M150.321,55.619a.7.7,0,0,1,1.409,0,.7.7,0,0,1-1.409,0Zm1.269,6.716h-1.129V57.329h1.129Z"
         class="cls-8" />
      <path
         id="path206"
         d="M155.3,62.435a2.546,2.546,0,0,1-2.549-2.6,2.465,2.465,0,0,1,2.438-2.587,2.4,2.4,0,0,1,2.37,2.578v.28h-3.7a1.53,1.53,0,0,0,1.5,1.369,1.628,1.628,0,0,0,1.19-.47l.74.69A2.9,2.9,0,0,1,155.3,62.435Zm-1.42-3.018h2.609a1.371,1.371,0,0,0-1.309-1.25A1.347,1.347,0,0,0,153.88,59.417Z"
         class="cls-8" />
      <path
         id="path208"
         d="M158.711,57.329h1.129v.819a1.817,1.817,0,0,1,1.589-.9,1.684,1.684,0,0,1,1.729,1.789v3.3h-1.129V59.357a1.078,1.078,0,0,0-1.1-1.2,1.286,1.286,0,0,0-1.09.6v3.578h-1.129Z"
         class="cls-8" />
      <path
         id="path210"
         d="M165.15,58.228h-1.009v-.9h1.009v-1.38l1.13-.24v1.62h1.4v.9h-1.4v2.538c0,.49.19.68.7.68a2.076,2.076,0,0,0,.68-.12v.95a3.554,3.554,0,0,1-.97.14c-1.009,0-1.539-.48-1.539-1.4Z"
         class="cls-8" />
    </g>
    <g
       id="g224">
      <rect
         id="rect214"
         height="31.684"
         width="41.331"
         y="16.309"
         x="133.326"
         class="cls-9" />
      <line
         id="line216"
         y2="21.065"
         x2="169.888"
         y1="21.065"
         x1="169.888"
         class="cls-10" />
      <line
         id="line218"
         y2="21.065"
         x2="166.709"
         y1="21.065"
         x1="166.709"
         class="cls-10" />
      <line
         id="line220"
         y2="21.065"
         x2="163.529"
         y1="21.065"
         x1="163.529"
         class="cls-10" />
      <line
         id="line222"
         y2="21.065"
         x2="150.812"
         y1="21.065"
         x1="138.095"
         class="cls-11" />
    </g>
  </g>
  <g
     id="g232">
    <line
       id="line228"
       y2="205.991"
       x2="312.532"
       y1="205.991"
       x1="278.071"
       class="cls-2" />
    <polygon
       id="polygon230"
       points="311.438 209.73 317.914 205.991 311.438 202.251 311.438 209.73" />
  </g>
  <g
     id="g238">
    <line
       id="line234"
       y2="205.991"
       x2="446.068"
       y1="205.991"
       x1="431.528"
       class="cls-2" />
    <polygon
       id="polygon236"
       points="444.973 209.73 451.449 205.991 444.973 202.251 444.973 209.73" />
  </g>
</svg>
