<?xml version="1.0" encoding="UTF-8" standalone="no"?>
<svg
   xmlns:dc="http://purl.org/dc/elements/1.1/"
   xmlns:cc="http://creativecommons.org/ns#"
   xmlns:rdf="http://www.w3.org/1999/02/22-rdf-syntax-ns#"
   xmlns:svg="http://www.w3.org/2000/svg"
   xmlns="http://www.w3.org/2000/svg"
   xmlns:sodipodi="http://sodipodi.sourceforge.net/DTD/sodipodi-0.dtd"
   xmlns:inkscape="http://www.inkscape.org/namespaces/inkscape"
   inkscape:version="1.0 (4035a4f, 2020-05-01)"
   sodipodi:docname="RBD_mirror_two-way_diagram.svg"
   version="1.1"
   viewBox="0 0 595.276 333.141"
   height="117.525mm"
   width="210mm"
   data-name="Layer 1"
   id="Layer_1">
  <metadata
     id="metadata409">
    <rdf:RDF>
      <cc:Work
         rdf:about="">
        <dc:format>image/svg+xml</dc:format>
        <dc:type
           rdf:resource="http://purl.org/dc/dcmitype/StillImage" />
        <dc:title></dc:title>
        <dc:subject>
          <rdf:Bag>
            <rdf:li>Red Hat Ceph Storage</rdf:li>
            <rdf:li>RBD Mirror</rdf:li>
            <rdf:li>Mirroring</rdf:li>
            <rdf:li>two-way mirroring</rdf:li>
          </rdf:Bag>
        </dc:subject>
      </cc:Work>
    </rdf:RDF>
  </metadata>
  <sodipodi:namedview
     inkscape:current-layer="Layer_1"
     inkscape:window-maximized="0"
     inkscape:window-y="25"
     inkscape:window-x="0"
     inkscape:cy="222.09449"
     inkscape:cx="396.85039"
     inkscape:zoom="0.63122024"
     showgrid="false"
     id="namedview407"
     inkscape:window-height="480"
     inkscape:window-width="987"
     inkscape:pageshadow="2"
     inkscape:pageopacity="0"
     guidetolerance="10"
     gridtolerance="10"
     objecttolerance="10"
     borderopacity="1"
     bordercolor="#666666"
     pagecolor="#ffffff" />
  <defs
     id="defs12">
    <style
       id="style10">
      .cls-1 {
        fill: #e8e7e7;
      }

      .cls-10, .cls-11, .cls-2 {
        fill: none;
      }

      .cls-2 {
        stroke: #000;
      }

      .cls-2, .cls-5, .cls-7 {
        stroke-miterlimit: 10;
        stroke-width: 0.75px;
      }

      .cls-3, .cls-5, .cls-9 {
        fill: #fff;
      }

      .cls-4 {
        fill: #06c;
      }

      .cls-5, .cls-7 {
        stroke: #06c;
      }

      .cls-6 {
        fill: #f0f0f0;
      }

      .cls-7 {
        fill: #dbe8f5;
      }

      .cls-8 {
        fill: #151515;
      }

      .cls-10, .cls-11, .cls-9 {
        stroke: #5b5b5b;
        stroke-linecap: round;
        stroke-linejoin: round;
      }

      .cls-10 {
        stroke-width: 2px;
      }
    </style>
  </defs>
  <rect
     id="rect14"
     height="198.847"
     width="268.608"
     y="112.337"
     x="19.687"
     class="cls-1" />
  <g
     id="g20">
    <polyline
       id="polyline16"
       points="297.249 69.282 297.249 91.562 154.346 91.562 154.346 119.168"
       class="cls-2" />
    <polygon
       id="polygon18"
       points="150.607 118.073 154.346 124.549 158.085 118.073 150.607 118.073" />
  </g>
  <rect
     id="rect22"
     height="11.134"
     width="40.224"
     y="85.782"
     x="205.811"
     class="cls-3" />
  <rect
     id="rect24"
     height="37.136"
     width="113.613"
     y="187.423"
     x="30.621"
     class="cls-4" />
  <rect
     id="rect26"
     height="37.136"
     width="113.613"
     y="187.423"
     x="164.457"
     class="cls-5" />
  <rect
     id="rect28"
     height="37.136"
     width="113.613"
     y="124.549"
     x="97.185"
     class="cls-3" />
  <rect
     id="rect30"
     height="37.136"
     width="113.613"
     y="264.636"
     x="30.621"
     class="cls-4" />
  <rect
     id="rect32"
     height="37.136"
     width="113.613"
     y="264.636"
     x="164.457"
     class="cls-6" />
  <rect
     id="rect34"
     height="198.847"
     width="268.608"
     y="112.337"
     x="306.98"
     class="cls-1" />
  <rect
     id="rect36"
     height="37.136"
     width="113.613"
     y="187.423"
     x="317.914"
     class="cls-5" />
  <rect
     id="rect38"
     height="37.136"
     width="113.613"
     y="187.423"
     x="451.75"
     class="cls-7" />
  <rect
     id="rect40"
     height="37.136"
     width="113.613"
     y="124.549"
     x="384.478"
     class="cls-3" />
  <rect
     id="rect42"
     height="37.136"
     width="113.613"
     y="264.636"
     x="317.914"
     class="cls-6" />
  <rect
     id="rect44"
     height="37.136"
     width="113.613"
     y="264.636"
     x="451.75"
     class="cls-7" />
  <g
     id="g50">
    <polyline
       id="polyline46"
       points="153.991 161.685 153.991 174.855 87.428 174.855 87.428 182.041"
       class="cls-2" />
    <polygon
       id="polygon48"
       points="83.689 180.947 87.428 187.423 91.167 180.947 83.689 180.947" />
  </g>
  <g
     id="g56">
    <polyline
       id="polyline52"
       points="153.991 161.685 153.991 174.855 221.264 174.855 221.264 182.041"
       class="cls-2" />
    <polygon
       id="polygon54"
       points="217.524 180.947 221.263 187.423 225.003 180.947 217.524 180.947" />
  </g>
  <g
     id="g62">
    <polyline
       id="polyline58"
       points="297.249 69.282 297.249 91.562 441.206 91.562 441.206 119.168"
       class="cls-2" />
    <polygon
       id="polygon60"
       points="437.466 118.073 441.206 124.549 444.945 118.073 437.466 118.073" />
  </g>
  <g
     id="g68">
    <polyline
       id="polyline64"
       points="441.206 161.961 441.206 175.131 374.643 175.131 374.643 182.317"
       class="cls-2" />
    <polygon
       id="polygon66"
       points="370.903 181.223 374.642 187.699 378.382 181.223 370.903 181.223" />
  </g>
  <g
     id="g74">
    <polyline
       id="polyline70"
       points="441.206 161.961 441.206 175.131 508.478 175.131 508.478 182.317"
       class="cls-2" />
    <polygon
       id="polygon72"
       points="504.739 181.223 508.478 187.699 512.218 181.223 504.739 181.223" />
  </g>
  <g
     id="g80">
    <polyline
       id="polyline76"
       points="377.502 224.559 377.502 250.296 221.264 250.296 221.264 259.254"
       class="cls-2" />
    <polygon
       id="polygon78"
       points="217.524 258.16 221.263 264.636 225.003 258.16 217.524 258.16" />
  </g>
  <g
     id="g86">
    <line
       id="line82"
       y2="283.204"
       x2="149.616"
       y1="283.204"
       x1="164.457"
       class="cls-2" />
    <polygon
       id="polygon84"
       points="150.711 279.464 144.235 283.203 150.711 286.943 150.711 279.464" />
  </g>
  <g
     id="g92">
    <line
       id="line88"
       y2="283.204"
       x2="431.173"
       y1="283.204"
       x1="446.014"
       class="cls-2" />
    <polygon
       id="polygon90"
       points="444.919 279.464 451.395 283.203 444.919 286.943 444.919 279.464" />
  </g>
  <rect
     id="rect94"
     height="5.253"
     width="5.253"
     y="235.029"
     x="374.721"
     class="cls-1" />
  <g
     id="g100">
    <polyline
       id="polyline96"
       points="221.264 224.559 221.264 237.066 389.502 237.066 389.502 259.254"
       class="cls-2" />
    <polygon
       id="polygon98"
       points="385.763 258.16 389.502 264.636 393.242 258.16 385.763 258.16" />
  </g>
  <g
     id="g118">
    <path
       id="path102"
       d="M67.431,202.529h2.818a1.955,1.955,0,1,1,0,3.9H68.511v2.4h-1.08Zm1.08.909v2.106h1.567a1.06,1.06,0,1,0,.009-2.106Z"
       class="cls-3" />
    <path
       id="path104"
       d="M73.416,204.32h1.017v.982a1.337,1.337,0,0,1,1.242-1.063,1.211,1.211,0,0,1,.442.09v.892a1.417,1.417,0,0,0-.558-.109,1.239,1.239,0,0,0-1.126.748v2.971H73.416Z"
       class="cls-3" />
    <path
       id="path106"
       d="M76.827,202.781a.635.635,0,0,1,1.269,0,.635.635,0,0,1-1.269,0Zm1.143,6.05H76.953V204.32H77.97Z"
       class="cls-3" />
    <path
       id="path108"
       d="M79.221,204.32h1.017v.721a1.537,1.537,0,0,1,1.342-.793,1.416,1.416,0,0,1,1.323.874,1.662,1.662,0,0,1,1.494-.874,1.494,1.494,0,0,1,1.477,1.639v2.944H84.856V206.1a.913.913,0,0,0-.909-1.036,1.075,1.075,0,0,0-.909.532c.009.1.018.189.018.288v2.944H82.039V206.1a.913.913,0,0,0-.91-1.036,1.046,1.046,0,0,0-.891.514v3.25H79.221Z"
       class="cls-3" />
    <path
       id="path110"
       d="M86.88,207.534c0-.81.657-1.323,1.719-1.323a2.784,2.784,0,0,1,1.215.279V206c0-.595-.341-.9-1.035-.9a3.135,3.135,0,0,0-1.314.351l-.36-.737a4.318,4.318,0,0,1,1.873-.46c1.169,0,1.845.594,1.845,1.639v2.944H89.814v-.459a1.88,1.88,0,0,1-1.341.53A1.422,1.422,0,0,1,86.88,207.534Zm1.872.657a1.608,1.608,0,0,0,1.062-.369v-.738a2.326,2.326,0,0,0-1.043-.216c-.577,0-.937.252-.937.648C87.834,207.93,88.194,208.191,88.752,208.191Z"
       class="cls-3" />
    <path
       id="path112"
       d="M92.055,204.32h1.017v.982a1.337,1.337,0,0,1,1.242-1.063,1.205,1.205,0,0,1,.441.09v.892a1.417,1.417,0,0,0-.558-.109,1.238,1.238,0,0,0-1.125.748v2.971H92.055Z"
       class="cls-3" />
    <path
       id="path114"
       d="M96.834,208.857l-1.7-4.537h1.135l1.143,3.349,1.26-3.349h1.108l-2.143,5.249a1.524,1.524,0,0,1-1.6,1.188,2.143,2.143,0,0,1-.513-.063v-.873a3.7,3.7,0,0,0,.4.036.72.72,0,0,0,.729-.522Z"
       class="cls-3" />
    <path
       id="path116"
       d="M104.439,202.529h1.251l2.44,6.3h-1.161l-.639-1.765h-2.593l-.649,1.765h-1.125Zm1.576,3.691-.973-2.683-.99,2.683Z"
       class="cls-3" />
  </g>
  <g
     id="g144">
    <path
       id="path120"
       d="M193.531,202.245h1.08v6.3h-1.08Z" />
    <path
       id="path122"
       d="M195.952,204.036h1.017v.72a1.538,1.538,0,0,1,1.342-.792,1.417,1.417,0,0,1,1.323.873,1.663,1.663,0,0,1,1.494-.873,1.494,1.494,0,0,1,1.477,1.639v2.943h-1.018v-2.728a.912.912,0,0,0-.909-1.035,1.074,1.074,0,0,0-.909.531c.009.1.018.189.018.289v2.943H198.77v-2.728a.913.913,0,0,0-.91-1.035,1.046,1.046,0,0,0-.891.513v3.25h-1.017Z" />
    <path
       id="path124"
       d="M203.611,207.25c0-.81.657-1.323,1.719-1.323a2.784,2.784,0,0,1,1.215.279v-.5c0-.594-.341-.9-1.035-.9a3.12,3.12,0,0,0-1.314.351l-.36-.738a4.329,4.329,0,0,1,1.872-.459c1.17,0,1.846.594,1.846,1.639v2.943h-1.009v-.459a1.877,1.877,0,0,1-1.341.531A1.422,1.422,0,0,1,203.611,207.25Zm1.872.657a1.608,1.608,0,0,0,1.062-.369V206.8a2.331,2.331,0,0,0-1.044-.216c-.576,0-.936.252-.936.648C204.565,207.646,204.925,207.907,205.483,207.907Z" />
    <path
       id="path126"
       d="M208.579,206.287A2.177,2.177,0,0,1,210.685,204a1.7,1.7,0,0,1,1.323.612v-.576h1.009V208.7c0,1.162-.757,1.8-2.125,1.8a3.917,3.917,0,0,1-1.809-.432l.36-.756a3.07,3.07,0,0,0,1.4.387c.757,0,1.153-.343,1.153-1v-.765a1.753,1.753,0,0,1-1.378.639A2.161,2.161,0,0,1,208.579,206.287Zm2.349,1.44a1.353,1.353,0,0,0,1.072-.5v-1.891a1.4,1.4,0,0,0-1.072-.486,1.345,1.345,0,0,0-1.341,1.432A1.363,1.363,0,0,0,210.928,207.727Z" />
    <path
       id="path128"
       d="M216.355,208.636a2.292,2.292,0,0,1-2.295-2.34,2.22,2.22,0,0,1,2.2-2.332,2.165,2.165,0,0,1,2.134,2.323v.252h-3.331a1.377,1.377,0,0,0,1.35,1.233,1.463,1.463,0,0,0,1.071-.423l.666.621A2.608,2.608,0,0,1,216.355,208.636Zm-1.278-2.719h2.349a1.234,1.234,0,0,0-1.179-1.125A1.211,1.211,0,0,0,215.077,205.917Z" />
    <path
       id="path130"
       d="M220.584,210.437v-.819a1.432,1.432,0,0,0,.36.036c.351,0,.505-.144.505-.487v-5.131h1.017v5.176a1.189,1.189,0,0,1-1.333,1.288A2.37,2.37,0,0,1,220.584,210.437Zm.739-7.94a.635.635,0,0,1,1.269,0,.635.635,0,0,1-1.269,0Z" />
    <path
       id="path132"
       d="M225.778,203.964a2.337,2.337,0,1,1-2.268,2.332A2.252,2.252,0,0,1,225.778,203.964Zm1.261,2.341a1.275,1.275,0,1,0-2.521,0,1.273,1.273,0,1,0,2.521,0Z" />
    <path
       id="path134"
       d="M230.089,206.719a.971.971,0,0,0,.99,1.08,1.137,1.137,0,0,0,.99-.558v-3.205h1.017v4.51h-1.017V207.8a1.649,1.649,0,0,1-1.44.819,1.513,1.513,0,0,1-1.558-1.611v-2.971h1.018Z" />
    <path
       id="path136"
       d="M234.336,204.036h1.018v.982a1.337,1.337,0,0,1,1.242-1.063,1.205,1.205,0,0,1,.441.09v.892a1.417,1.417,0,0,0-.558-.109,1.237,1.237,0,0,0-1.125.748v2.97h-1.018Z" />
    <path
       id="path138"
       d="M237.873,204.036h1.017v.738a1.637,1.637,0,0,1,1.432-.81,1.518,1.518,0,0,1,1.557,1.612v2.97h-1.017v-2.682a.972.972,0,0,0-.99-1.081,1.156,1.156,0,0,0-.982.54v3.223h-1.017Z" />
    <path
       id="path140"
       d="M242.886,207.25c0-.81.657-1.323,1.719-1.323a2.788,2.788,0,0,1,1.216.279v-.5c0-.594-.342-.9-1.035-.9a3.127,3.127,0,0,0-1.315.351l-.36-.738a4.33,4.33,0,0,1,1.873-.459c1.17,0,1.845.594,1.845,1.639v2.943h-1.008v-.459a1.879,1.879,0,0,1-1.342.531A1.422,1.422,0,0,1,242.886,207.25Zm1.873.657a1.608,1.608,0,0,0,1.062-.369V206.8a2.333,2.333,0,0,0-1.044-.216c-.576,0-.937.252-.937.648C243.84,207.646,244.2,207.907,244.759,207.907Z" />
    <path
       id="path142"
       d="M249.078,208.546h-1.017v-6.437l1.017-.171Z" />
  </g>
  <g
     id="g162">
    <path
       id="path146"
       d="M488.563,202.245h2.819a1.955,1.955,0,1,1,0,3.9h-1.738v2.4h-1.081Zm1.081.909v2.106h1.566a1.06,1.06,0,1,0,.01-2.106Z" />
    <path
       id="path148"
       d="M494.549,204.036h1.016v.982a1.339,1.339,0,0,1,1.243-1.063,1.205,1.205,0,0,1,.441.09v.892a1.417,1.417,0,0,0-.558-.109,1.239,1.239,0,0,0-1.126.748v2.97h-1.016Z" />
    <path
       id="path150"
       d="M497.959,202.5a.635.635,0,0,1,1.27,0,.635.635,0,0,1-1.27,0Zm1.144,6.049h-1.017v-4.51H499.1Z" />
    <path
       id="path152"
       d="M500.354,204.036h1.016v.72a1.538,1.538,0,0,1,1.342-.792,1.417,1.417,0,0,1,1.323.873,1.664,1.664,0,0,1,1.494-.873,1.494,1.494,0,0,1,1.477,1.639v2.943h-1.018v-2.728a.912.912,0,0,0-.909-1.035,1.074,1.074,0,0,0-.909.531,2.8,2.8,0,0,1,.018.289v2.943h-1.017v-2.728a.913.913,0,0,0-.909-1.035,1.047,1.047,0,0,0-.892.513v3.25h-1.016Z" />
    <path
       id="path154"
       d="M508.013,207.25c0-.81.657-1.323,1.718-1.323a2.788,2.788,0,0,1,1.216.279v-.5c0-.594-.342-.9-1.035-.9a3.116,3.116,0,0,0-1.314.351l-.361-.738a4.333,4.333,0,0,1,1.873-.459c1.17,0,1.845.594,1.845,1.639v2.943h-1.008v-.459a1.879,1.879,0,0,1-1.342.531A1.421,1.421,0,0,1,508.013,207.25Zm1.872.657a1.608,1.608,0,0,0,1.062-.369V206.8a2.333,2.333,0,0,0-1.044-.216c-.576,0-.936.252-.936.648C508.967,207.646,509.327,207.907,509.885,207.907Z" />
    <path
       id="path156"
       d="M513.188,204.036H514.2v.982a1.338,1.338,0,0,1,1.242-1.063,1.211,1.211,0,0,1,.442.09v.892a1.417,1.417,0,0,0-.558-.109,1.239,1.239,0,0,0-1.126.748v2.97h-1.016Z" />
    <path
       id="path158"
       d="M517.967,208.573l-1.7-4.537H517.4l1.144,3.349,1.26-3.349h1.107l-2.142,5.249a1.525,1.525,0,0,1-1.6,1.188,2.155,2.155,0,0,1-.513-.063v-.873c.244.026.306.036.4.036a.718.718,0,0,0,.729-.522Z" />
    <path
       id="path160"
       d="M526.6,202.245c1.188,0,1.989.666,1.989,1.656a1.51,1.51,0,0,1-1.008,1.395,1.578,1.578,0,0,1,1.225,1.5,1.838,1.838,0,0,1-2.08,1.755H523.8v-6.3Zm-1.72.882v1.764h1.612c.621,0,1.017-.342,1.017-.882s-.4-.882-1.017-.882Zm2.836,3.565a.982.982,0,0,0-1.116-.963h-1.72v1.935h1.72A.989.989,0,0,0,527.714,206.692Z" />
  </g>
  <g
     id="g188">
    <path
       id="path164"
       d="M346.988,202.245h1.08v6.3h-1.08Z" />
    <path
       id="path166"
       d="M349.409,204.036h1.018v.72a1.538,1.538,0,0,1,1.341-.792,1.419,1.419,0,0,1,1.324.873,1.662,1.662,0,0,1,1.494-.873,1.494,1.494,0,0,1,1.476,1.639v2.943h-1.017v-2.728a.913.913,0,0,0-.909-1.035,1.074,1.074,0,0,0-.909.531c.008.1.017.189.017.289v2.943h-1.016v-2.728a.913.913,0,0,0-.911-1.035,1.045,1.045,0,0,0-.89.513v3.25h-1.018Z" />
    <path
       id="path168"
       d="M357.068,207.25c0-.81.658-1.323,1.719-1.323a2.788,2.788,0,0,1,1.216.279v-.5c0-.594-.342-.9-1.035-.9a3.127,3.127,0,0,0-1.315.351l-.36-.738a4.33,4.33,0,0,1,1.873-.459c1.17,0,1.845.594,1.845,1.639v2.943H360v-.459a1.879,1.879,0,0,1-1.342.531A1.422,1.422,0,0,1,357.068,207.25Zm1.872.657a1.611,1.611,0,0,0,1.063-.369V206.8a2.336,2.336,0,0,0-1.044-.216c-.576,0-.937.252-.937.648C358.022,207.646,358.383,207.907,358.94,207.907Z" />
    <path
       id="path170"
       d="M362.036,206.287A2.177,2.177,0,0,1,364.143,204a1.7,1.7,0,0,1,1.323.612v-.576h1.008V208.7c0,1.162-.756,1.8-2.124,1.8a3.918,3.918,0,0,1-1.81-.432l.36-.756a3.07,3.07,0,0,0,1.405.387c.756,0,1.152-.343,1.152-1v-.765a1.751,1.751,0,0,1-1.378.639A2.161,2.161,0,0,1,362.036,206.287Zm2.35,1.44a1.351,1.351,0,0,0,1.071-.5v-1.891a1.4,1.4,0,0,0-1.071-.486,1.345,1.345,0,0,0-1.342,1.432A1.364,1.364,0,0,0,364.386,207.727Z" />
    <path
       id="path172"
       d="M369.812,208.636a2.292,2.292,0,0,1-2.3-2.34,2.221,2.221,0,0,1,2.2-2.332,2.165,2.165,0,0,1,2.134,2.323v.252h-3.331a1.377,1.377,0,0,0,1.35,1.233,1.467,1.467,0,0,0,1.072-.423l.666.621A2.608,2.608,0,0,1,369.812,208.636Zm-1.278-2.719h2.35a1.234,1.234,0,0,0-1.18-1.125A1.212,1.212,0,0,0,368.534,205.917Z" />
    <path
       id="path174"
       d="M374.042,210.437v-.819a1.424,1.424,0,0,0,.359.036c.352,0,.5-.144.5-.487v-5.131h1.017v5.176a1.188,1.188,0,0,1-1.332,1.288A2.363,2.363,0,0,1,374.042,210.437Zm.738-7.94a.635.635,0,0,1,1.269,0,.635.635,0,0,1-1.269,0Z" />
    <path
       id="path176"
       d="M379.235,203.964a2.337,2.337,0,1,1-2.268,2.332A2.252,2.252,0,0,1,379.235,203.964Zm1.261,2.341a1.275,1.275,0,1,0-2.52,0,1.272,1.272,0,1,0,2.52,0Z" />
    <path
       id="path178"
       d="M383.546,206.719a.972.972,0,0,0,.99,1.08,1.137,1.137,0,0,0,.99-.558v-3.205h1.018v4.51h-1.018V207.8a1.648,1.648,0,0,1-1.44.819,1.513,1.513,0,0,1-1.558-1.611v-2.971h1.018Z" />
    <path
       id="path180"
       d="M387.794,204.036h1.017v.982a1.337,1.337,0,0,1,1.242-1.063,1.2,1.2,0,0,1,.441.09v.892a1.415,1.415,0,0,0-.557-.109,1.237,1.237,0,0,0-1.126.748v2.97h-1.017Z" />
    <path
       id="path182"
       d="M391.33,204.036h1.018v.738a1.635,1.635,0,0,1,1.431-.81,1.518,1.518,0,0,1,1.557,1.612v2.97h-1.017v-2.682a.972.972,0,0,0-.99-1.081,1.156,1.156,0,0,0-.981.54v3.223H391.33Z" />
    <path
       id="path184"
       d="M396.344,207.25c0-.81.657-1.323,1.718-1.323a2.788,2.788,0,0,1,1.216.279v-.5c0-.594-.341-.9-1.035-.9a3.12,3.12,0,0,0-1.314.351l-.361-.738a4.333,4.333,0,0,1,1.873-.459c1.17,0,1.845.594,1.845,1.639v2.943h-1.008v-.459a1.878,1.878,0,0,1-1.341.531A1.421,1.421,0,0,1,396.344,207.25Zm1.872.657a1.608,1.608,0,0,0,1.062-.369V206.8a2.333,2.333,0,0,0-1.044-.216c-.576,0-.936.252-.936.648C397.3,207.646,397.658,207.907,398.216,207.907Z" />
    <path
       id="path186"
       d="M402.535,208.546h-1.016v-6.437l1.016-.171Z" />
  </g>
  <g
     id="g210">
    <path
       id="path190"
       d="M482.66,283.977a3.151,3.151,0,0,0,2.115.919c.837,0,1.413-.423,1.413-1,0-.513-.305-.747-1.142-.9l-1.162-.2c-1.089-.2-1.62-.738-1.62-1.6,0-1.134.909-1.89,2.323-1.89a4.209,4.209,0,0,1,2.529.819l-.549.811a3.263,3.263,0,0,0-2.016-.73c-.757,0-1.252.378-1.252.891,0,.45.279.685.972.793l1.117.2c1.269.216,1.863.774,1.863,1.728,0,1.153-1.026,1.972-2.529,1.972a3.973,3.973,0,0,1-2.648-1.017Z" />
    <path
       id="path192"
       d="M490.4,285.787a2.293,2.293,0,0,1-2.3-2.341,2.222,2.222,0,0,1,2.2-2.332,2.166,2.166,0,0,1,2.134,2.323v.252H489.1a1.377,1.377,0,0,0,1.35,1.233,1.464,1.464,0,0,0,1.071-.422l.666.621A2.6,2.6,0,0,1,490.4,285.787Zm-1.278-2.719h2.35a1.235,1.235,0,0,0-1.18-1.125A1.211,1.211,0,0,0,489.122,283.068Z" />
    <path
       id="path194"
       d="M496.719,284.392l.612.611a2.345,2.345,0,0,1-1.765.784,2.332,2.332,0,0,1,0-4.663,2.431,2.431,0,0,1,1.8.756l-.631.657a1.488,1.488,0,0,0-1.133-.531,1.447,1.447,0,0,0,.026,2.881A1.391,1.391,0,0,0,496.719,284.392Z" />
    <path
       id="path196"
       d="M500.129,281.114a2.338,2.338,0,1,1-2.269,2.332A2.252,2.252,0,0,1,500.129,281.114Zm1.261,2.341a1.275,1.275,0,1,0-2.521,0,1.273,1.273,0,1,0,2.521,0Z" />
    <path
       id="path198"
       d="M503.449,281.187h1.018v.738a1.637,1.637,0,0,1,1.431-.811,1.518,1.518,0,0,1,1.557,1.612V285.7h-1.017v-2.683a.971.971,0,0,0-.99-1.08,1.156,1.156,0,0,0-.981.54V285.7h-1.018Z" />
    <path
       id="path200"
       d="M511.91,285.094a1.734,1.734,0,0,1-1.386.648,2.308,2.308,0,0,1,.063-4.592,1.721,1.721,0,0,1,1.314.6V279.26l1.018-.171V285.7H511.91Zm-1.08-.207a1.35,1.35,0,0,0,1.071-.5v-1.9a1.4,1.4,0,0,0-1.071-.486,1.444,1.444,0,0,0,0,2.881Z" />
    <path
       id="path202"
       d="M513.952,284.4c0-.81.657-1.323,1.72-1.323a2.787,2.787,0,0,1,1.215.279v-.5c0-.594-.342-.9-1.035-.9a3.131,3.131,0,0,0-1.315.352l-.359-.738a4.314,4.314,0,0,1,1.872-.46c1.17,0,1.846.594,1.846,1.639V285.7h-1.009v-.459a1.882,1.882,0,0,1-1.341.531A1.423,1.423,0,0,1,513.952,284.4Zm1.873.658a1.611,1.611,0,0,0,1.062-.37v-.738a2.333,2.333,0,0,0-1.044-.216c-.576,0-.937.252-.937.648C514.906,284.8,515.267,285.058,515.825,285.058Z" />
    <path
       id="path204"
       d="M519.127,281.187h1.018v.981a1.337,1.337,0,0,1,1.242-1.063,1.205,1.205,0,0,1,.441.09v.892a1.434,1.434,0,0,0-.558-.108,1.235,1.235,0,0,0-1.125.747V285.7h-1.018Z" />
    <path
       id="path206"
       d="M523.906,285.724l-1.7-4.537h1.134l1.143,3.349,1.261-3.349h1.108l-2.143,5.248a1.527,1.527,0,0,1-1.6,1.189,2.2,2.2,0,0,1-.513-.063v-.874a3.7,3.7,0,0,0,.4.036.718.718,0,0,0,.729-.522Z" />
    <path
       id="path208"
       d="M531.512,279.4h1.251l2.439,6.3h-1.161l-.639-1.765H530.81l-.649,1.765h-1.125Zm1.575,3.691-.973-2.683-.99,2.683Z" />
  </g>
  <g
     id="g232">
    <path
       id="path212"
       d="M353.031,281.187h1.018v.981a1.338,1.338,0,0,1,1.242-1.063,1.205,1.205,0,0,1,.441.09v.892a1.434,1.434,0,0,0-.558-.108,1.236,1.236,0,0,0-1.125.747V285.7h-1.018Z" />
    <path
       id="path214"
       d="M358.9,285.742a1.68,1.68,0,0,1-1.333-.63v.585h-1V279.26l1.018-.171v2.7a1.754,1.754,0,0,1,1.386-.64,2.308,2.308,0,0,1-.072,4.592Zm-1.314-3.232v1.882a1.382,1.382,0,0,0,1.08.5,1.444,1.444,0,0,0,0-2.881A1.322,1.322,0,0,0,357.586,282.51Z" />
    <path
       id="path216"
       d="M365.317,285.094a1.735,1.735,0,0,1-1.386.648,2.308,2.308,0,0,1,.063-4.592,1.723,1.723,0,0,1,1.315.6V279.26l1.016-.171V285.7h-1.008Zm-1.08-.207a1.356,1.356,0,0,0,1.072-.5v-1.9a1.4,1.4,0,0,0-1.072-.486,1.444,1.444,0,0,0,0,2.881Z" />
    <path
       id="path218"
       d="M370.6,282.717v.855h-3.133v-.855Z" />
    <path
       id="path220"
       d="M371.742,281.187h1.017v.72a1.537,1.537,0,0,1,1.342-.793,1.419,1.419,0,0,1,1.323.874,1.664,1.664,0,0,1,1.494-.874,1.5,1.5,0,0,1,1.477,1.639V285.7h-1.017v-2.728a.913.913,0,0,0-.91-1.035,1.074,1.074,0,0,0-.909.531c.009.1.018.189.018.288V285.7H374.56v-2.728a.913.913,0,0,0-.91-1.035,1.044,1.044,0,0,0-.891.513v3.25h-1.017Z" />
    <path
       id="path222"
       d="M379.5,279.647a.635.635,0,0,1,1.269,0,.635.635,0,0,1-1.269,0Zm1.143,6.05h-1.017v-4.51h1.017Z" />
    <path
       id="path224"
       d="M381.894,281.187h1.017v.981a1.338,1.338,0,0,1,1.242-1.063,1.215,1.215,0,0,1,.442.09v.892a1.435,1.435,0,0,0-.559-.108,1.237,1.237,0,0,0-1.125.747V285.7h-1.017Z" />
    <path
       id="path226"
       d="M385.431,281.187h1.017v.981a1.338,1.338,0,0,1,1.242-1.063,1.211,1.211,0,0,1,.442.09v.892a1.435,1.435,0,0,0-.559-.108,1.237,1.237,0,0,0-1.125.747V285.7h-1.017Z" />
    <path
       id="path228"
       d="M390.813,281.114a2.338,2.338,0,1,1-2.268,2.332A2.253,2.253,0,0,1,390.813,281.114Zm1.26,2.341a1.275,1.275,0,1,0-2.52,0,1.272,1.272,0,1,0,2.52,0Z" />
    <path
       id="path230"
       d="M394.134,281.187h1.017v.981a1.339,1.339,0,0,1,1.243-1.063,1.21,1.21,0,0,1,.441.09v.892a1.435,1.435,0,0,0-.559-.108,1.237,1.237,0,0,0-1.125.747V285.7h-1.017Z" />
  </g>
  <g
     id="g254">
    <path
       id="path234"
       d="M199.574,281.187h1.017v.981a1.339,1.339,0,0,1,1.242-1.063,1.206,1.206,0,0,1,.442.09v.892a1.434,1.434,0,0,0-.558-.108,1.238,1.238,0,0,0-1.126.747V285.7h-1.017Z" />
    <path
       id="path236"
       d="M205.443,285.742a1.68,1.68,0,0,1-1.333-.63v.585h-1V279.26l1.017-.171v2.7a1.758,1.758,0,0,1,1.387-.64,2.308,2.308,0,0,1-.072,4.592Zm-1.315-3.232v1.882a1.386,1.386,0,0,0,1.081.5,1.444,1.444,0,0,0,0-2.881A1.326,1.326,0,0,0,204.128,282.51Z" />
    <path
       id="path238"
       d="M211.86,285.094a1.735,1.735,0,0,1-1.386.648,2.308,2.308,0,0,1,.063-4.592,1.721,1.721,0,0,1,1.314.6V279.26l1.017-.171V285.7H211.86Zm-1.08-.207a1.352,1.352,0,0,0,1.071-.5v-1.9a1.4,1.4,0,0,0-1.071-.486,1.444,1.444,0,0,0,0,2.881Z" />
    <path
       id="path240"
       d="M217.143,282.717v.855H214.01v-.855Z" />
    <path
       id="path242"
       d="M218.285,281.187H219.3v.72a1.537,1.537,0,0,1,1.341-.793,1.419,1.419,0,0,1,1.324.874,1.664,1.664,0,0,1,1.494-.874,1.5,1.5,0,0,1,1.477,1.639V285.7H223.92v-2.728a.912.912,0,0,0-.909-1.035,1.074,1.074,0,0,0-.909.531c.009.1.018.189.018.288V285.7H221.1v-2.728a.913.913,0,0,0-.91-1.035,1.044,1.044,0,0,0-.891.513v3.25h-1.017Z" />
    <path
       id="path244"
       d="M226.042,279.647a.635.635,0,0,1,1.27,0,.635.635,0,0,1-1.27,0Zm1.144,6.05h-1.018v-4.51h1.018Z" />
    <path
       id="path246"
       d="M228.437,281.187h1.017v.981a1.338,1.338,0,0,1,1.242-1.063,1.205,1.205,0,0,1,.441.09v.892a1.434,1.434,0,0,0-.558-.108,1.237,1.237,0,0,0-1.125.747V285.7h-1.017Z" />
    <path
       id="path248"
       d="M231.974,281.187h1.017v.981a1.338,1.338,0,0,1,1.242-1.063,1.205,1.205,0,0,1,.441.09v.892a1.434,1.434,0,0,0-.558-.108,1.237,1.237,0,0,0-1.125.747V285.7h-1.017Z" />
    <path
       id="path250"
       d="M237.356,281.114a2.338,2.338,0,1,1-2.269,2.332A2.253,2.253,0,0,1,237.356,281.114Zm1.26,2.341a1.275,1.275,0,1,0-2.52,0,1.272,1.272,0,1,0,2.52,0Z" />
    <path
       id="path252"
       d="M240.677,281.187h1.017v.981a1.338,1.338,0,0,1,1.242-1.063,1.205,1.205,0,0,1,.441.09v.892a1.434,1.434,0,0,0-.558-.108,1.237,1.237,0,0,0-1.125.747V285.7h-1.017Z" />
  </g>
  <g
     id="g268">
    <path
       id="path256"
       d="M143.345,145.61h-1.017v-6.437l1.017-.171Z" />
    <path
       id="path258"
       d="M144.469,139.561a.635.635,0,0,1,1.27,0,.635.635,0,0,1-1.27,0Zm1.144,6.049H144.6V141.1h1.017Z" />
    <path
       id="path260"
       d="M149.2,145.655a1.677,1.677,0,0,1-1.332-.63v.585h-1v-6.437l1.017-.171v2.7a1.755,1.755,0,0,1,1.386-.639,2.307,2.307,0,0,1-.072,4.591Zm-1.314-3.232v1.882a1.382,1.382,0,0,0,1.08.5,1.444,1.444,0,0,0,0-2.881A1.324,1.324,0,0,0,147.881,142.423Z" />
    <path
       id="path262"
       d="M152.362,141.1h1.017v.982a1.339,1.339,0,0,1,1.243-1.063,1.205,1.205,0,0,1,.441.09V142a1.434,1.434,0,0,0-.558-.108,1.238,1.238,0,0,0-1.126.748v2.97h-1.017Z" />
    <path
       id="path264"
       d="M158.231,145.655a1.68,1.68,0,0,1-1.333-.63v.585h-1v-6.437l1.018-.171v2.7a1.754,1.754,0,0,1,1.386-.639,2.307,2.307,0,0,1-.072,4.591Zm-1.314-3.232v1.882a1.382,1.382,0,0,0,1.08.5,1.444,1.444,0,0,0,0-2.881A1.324,1.324,0,0,0,156.917,142.423Z" />
    <path
       id="path266"
       d="M164.648,145.007a1.735,1.735,0,0,1-1.386.648,2.307,2.307,0,0,1,.063-4.591,1.72,1.72,0,0,1,1.314.594v-2.485l1.017-.171v6.608h-1.008Zm-1.08-.207a1.349,1.349,0,0,0,1.071-.5v-1.9a1.4,1.4,0,0,0-1.071-.486,1.444,1.444,0,0,0,0,2.881Z" />
  </g>
  <g
     id="g282">
    <path
       id="path270"
       d="M430.639,145.61h-1.018v-6.437l1.018-.171Z" />
    <path
       id="path272"
       d="M431.763,139.561a.635.635,0,0,1,1.269,0,.635.635,0,0,1-1.269,0Zm1.143,6.049H431.89V141.1h1.016Z" />
    <path
       id="path274"
       d="M436.489,145.655a1.679,1.679,0,0,1-1.333-.63v.585h-1v-6.437l1.018-.171v2.7a1.754,1.754,0,0,1,1.386-.639,2.307,2.307,0,0,1-.072,4.591Zm-1.314-3.232v1.882a1.382,1.382,0,0,0,1.08.5,1.444,1.444,0,0,0,0-2.881A1.322,1.322,0,0,0,435.175,142.423Z" />
    <path
       id="path276"
       d="M439.656,141.1h1.017v.982a1.338,1.338,0,0,1,1.242-1.063,1.2,1.2,0,0,1,.441.09V142a1.433,1.433,0,0,0-.557-.108,1.237,1.237,0,0,0-1.126.748v2.97h-1.017Z" />
    <path
       id="path278"
       d="M445.524,145.655a1.678,1.678,0,0,1-1.332-.63v.585h-1v-6.437L444.21,139v2.7a1.756,1.756,0,0,1,1.387-.639,2.307,2.307,0,0,1-.073,4.591Zm-1.314-3.232v1.882a1.384,1.384,0,0,0,1.081.5,1.444,1.444,0,0,0,0-2.881A1.326,1.326,0,0,0,444.21,142.423Z" />
    <path
       id="path280"
       d="M451.941,145.007a1.733,1.733,0,0,1-1.385.648,2.307,2.307,0,0,1,.062-4.591,1.721,1.721,0,0,1,1.315.594v-2.485L452.95,139v6.608h-1.009Zm-1.08-.207a1.35,1.35,0,0,0,1.072-.5v-1.9a1.4,1.4,0,0,0-1.072-.486,1.444,1.444,0,0,0,0,2.881Z" />
  </g>
  <g
     id="g304">
    <path
       id="path284"
       d="M61.536,284.324a3.154,3.154,0,0,0,2.116.918c.837,0,1.413-.423,1.413-1,0-.513-.306-.747-1.143-.9l-1.162-.2c-1.089-.2-1.62-.739-1.62-1.6,0-1.134.909-1.891,2.323-1.891a4.2,4.2,0,0,1,2.529.82l-.549.81a3.268,3.268,0,0,0-2.016-.729c-.757,0-1.252.378-1.252.891,0,.45.28.684.972.792l1.117.2c1.269.215,1.863.774,1.863,1.728,0,1.152-1.026,1.971-2.529,1.971a3.964,3.964,0,0,1-2.647-1.017Z"
       class="cls-3" />
    <path
       id="path286"
       d="M69.276,286.133a2.292,2.292,0,0,1-2.3-2.34,2.221,2.221,0,0,1,2.2-2.332,2.165,2.165,0,0,1,2.134,2.323v.252H67.98a1.377,1.377,0,0,0,1.351,1.233,1.466,1.466,0,0,0,1.071-.423l.666.621A2.608,2.608,0,0,1,69.276,286.133ZM68,283.415h2.35a1.236,1.236,0,0,0-1.18-1.125A1.21,1.21,0,0,0,68,283.415Z"
       class="cls-3" />
    <path
       id="path288"
       d="M75.6,284.738l.612.612a2.346,2.346,0,0,1-1.765.783,2.332,2.332,0,0,1,0-4.663,2.428,2.428,0,0,1,1.8.757l-.63.656a1.489,1.489,0,0,0-1.134-.53,1.447,1.447,0,0,0,.026,2.88A1.386,1.386,0,0,0,75.6,284.738Z"
       class="cls-3" />
    <path
       id="path290"
       d="M79.005,281.461a2.337,2.337,0,1,1-2.268,2.332A2.252,2.252,0,0,1,79.005,281.461Zm1.261,2.341a1.275,1.275,0,1,0-2.521,0,1.273,1.273,0,1,0,2.521,0Z"
       class="cls-3" />
    <path
       id="path292"
       d="M82.326,281.533h1.017v.738a1.636,1.636,0,0,1,1.431-.81,1.518,1.518,0,0,1,1.558,1.612v2.97H85.314v-2.682a.972.972,0,0,0-.99-1.081,1.156,1.156,0,0,0-.981.54v3.223H82.326Z"
       class="cls-3" />
    <path
       id="path294"
       d="M90.787,285.44a1.737,1.737,0,0,1-1.387.648,2.308,2.308,0,0,1,.063-4.591,1.723,1.723,0,0,1,1.315.594v-2.485l1.017-.17v6.607H90.787Zm-1.08-.207a1.349,1.349,0,0,0,1.071-.5v-1.9a1.4,1.4,0,0,0-1.071-.485,1.444,1.444,0,0,0,0,2.88Z"
       class="cls-3" />
    <path
       id="path296"
       d="M92.829,284.747c0-.81.657-1.323,1.719-1.323a2.787,2.787,0,0,1,1.215.279v-.495c0-.6-.342-.9-1.035-.9a3.135,3.135,0,0,0-1.314.351l-.36-.738a4.329,4.329,0,0,1,1.872-.459c1.171,0,1.845.594,1.845,1.639v2.943H95.763v-.459a1.878,1.878,0,0,1-1.341.531A1.422,1.422,0,0,1,92.829,284.747Zm1.872.657a1.608,1.608,0,0,0,1.062-.369V284.3a2.333,2.333,0,0,0-1.044-.216c-.576,0-.936.252-.936.648C93.783,285.143,94.143,285.4,94.7,285.4Z"
       class="cls-3" />
    <path
       id="path298"
       d="M98,281.533h1.018v.982a1.337,1.337,0,0,1,1.242-1.063,1.205,1.205,0,0,1,.441.09v.892a1.417,1.417,0,0,0-.558-.109,1.237,1.237,0,0,0-1.125.748v2.97H98Z"
       class="cls-3" />
    <path
       id="path300"
       d="M102.783,286.07l-1.7-4.537h1.134l1.144,3.349,1.26-3.349h1.108l-2.143,5.249a1.525,1.525,0,0,1-1.6,1.188,2.155,2.155,0,0,1-.513-.063v-.873a3.7,3.7,0,0,0,.4.036.718.718,0,0,0,.729-.522Z"
       class="cls-3" />
    <path
       id="path302"
       d="M111.414,279.742c1.189,0,1.989.666,1.989,1.656a1.51,1.51,0,0,1-1.007,1.395,1.577,1.577,0,0,1,1.224,1.5,1.838,1.838,0,0,1-2.08,1.755h-2.926v-6.3Zm-1.72.882v1.764h1.612c.621,0,1.017-.342,1.017-.882s-.4-.882-1.017-.882Zm2.836,3.565a.983.983,0,0,0-1.116-.963h-1.72v1.935h1.72A.989.989,0,0,0,112.53,284.189Z"
       class="cls-3" />
  </g>
  <g
     id="g322">
    <path
       id="path306"
       d="M323.711,130.661l1.129,1.069a3.582,3.582,0,1,1,.051-4.508l-1.161,1.1a2.034,2.034,0,0,0-1.678-.93,2.07,2.07,0,1,0,1.659,3.269Z" />
    <path
       id="path308"
       d="M327.363,132.969h-1.619v-7.146l1.619-.25Z" />
    <path
       id="path310"
       d="M330.2,130.82a.859.859,0,0,0,.859.96,1.043,1.043,0,0,0,.86-.43v-3.538h1.619v5.157h-1.619v-.839a1.9,1.9,0,0,1-1.629.919,1.666,1.666,0,0,1-1.709-1.759v-3.478H330.2Z" />
    <path
       id="path312"
       d="M335.094,131.36a3.336,3.336,0,0,0,1.658.52c.46,0,.74-.16.74-.42,0-.2-.15-.31-.479-.37l-.991-.18c-1-.189-1.518-.7-1.518-1.5,0-1.059.809-1.689,2.158-1.689a4.149,4.149,0,0,1,2.1.59l-.741,1.029a2.922,2.922,0,0,0-1.478-.44c-.391,0-.62.13-.62.36,0,.21.13.3.529.37l.97.18c1.019.19,1.559.71,1.55,1.489.009,1.01-.951,1.769-2.22,1.769a4.208,4.208,0,0,1-2.368-.63Z" />
    <path
       id="path314"
       d="M340.493,129.062h-1v-1.25h1v-1.429l1.619-.33v1.759h1.379v1.25h-1.379v2c0,.46.18.62.68.62a2.165,2.165,0,0,0,.659-.11v1.309a4.5,4.5,0,0,1-1.109.16c-1.22,0-1.849-.56-1.849-1.659Z" />
    <path
       id="path316"
       d="M346.882,133.069a2.666,2.666,0,0,1-2.719-2.668,2.588,2.588,0,0,1,2.6-2.679,2.535,2.535,0,0,1,2.539,2.738v.351h-3.548a1.236,1.236,0,0,0,1.209.969,1.273,1.273,0,0,0,1.019-.43l1.07.89A3.008,3.008,0,0,1,346.882,133.069Zm-1.129-3.178H347.8a1.075,1.075,0,0,0-1.05-.91A1.024,1.024,0,0,0,345.753,129.891Z" />
    <path
       id="path318"
       d="M350.313,127.812h1.62v1.169c.329-.859.789-1.269,1.4-1.269a1.1,1.1,0,0,1,.539.13v1.389a1.768,1.768,0,0,0-.76-.16,1.422,1.422,0,0,0-1.178.64v3.258h-1.62Z" />
    <path
       id="path320"
       d="M360.491,125.973a2.07,2.07,0,0,1,2.329,1.909A1.744,1.744,0,0,1,361.8,129.4a1.774,1.774,0,0,1,1.22,1.609,2.1,2.1,0,0,1-2.37,1.959h-3.618v-7Zm-1.738,1.369v1.44h1.539a.722.722,0,0,0,.8-.72.711.711,0,0,0-.8-.72Zm2.528,3.489a.758.758,0,0,0-.849-.77h-1.679V131.6h1.679A.758.758,0,0,0,361.281,130.831Z" />
  </g>
  <g
     id="g340">
    <path
       id="path324"
       d="M36.417,130.661l1.129,1.069a3.582,3.582,0,1,1,.051-4.508l-1.16,1.1a2.035,2.035,0,0,0-1.679-.93,2.07,2.07,0,1,0,1.659,3.269Z" />
    <path
       id="path326"
       d="M40.07,132.969H38.451v-7.146l1.619-.25Z" />
    <path
       id="path328"
       d="M42.91,130.82a.859.859,0,0,0,.859.96,1.04,1.04,0,0,0,.859-.43v-3.538h1.62v5.157h-1.62v-.839a1.9,1.9,0,0,1-1.628.919,1.666,1.666,0,0,1-1.709-1.759v-3.478H42.91Z" />
    <path
       id="path330"
       d="M47.8,131.36a3.338,3.338,0,0,0,1.658.52c.46,0,.741-.16.741-.42,0-.2-.151-.31-.48-.37l-.99-.18c-1-.189-1.519-.7-1.519-1.5,0-1.059.81-1.689,2.159-1.689a4.148,4.148,0,0,1,2.1.59l-.74,1.029a2.925,2.925,0,0,0-1.478-.44c-.391,0-.621.13-.621.36,0,.21.13.3.53.37l.969.18c1.02.19,1.56.71,1.55,1.489.01,1.01-.95,1.769-2.22,1.769a4.213,4.213,0,0,1-2.368-.63Z" />
    <path
       id="path332"
       d="M53.2,129.062h-1v-1.25h1v-1.429l1.619-.33v1.759H56.2v1.25H54.819v2c0,.46.18.62.68.62a2.169,2.169,0,0,0,.659-.11v1.309a4.507,4.507,0,0,1-1.11.16c-1.219,0-1.848-.56-1.848-1.659Z" />
    <path
       id="path334"
       d="M59.588,133.069A2.666,2.666,0,0,1,56.87,130.4a2.588,2.588,0,0,1,2.6-2.679,2.534,2.534,0,0,1,2.539,2.738v.351H58.459a1.238,1.238,0,0,0,1.209.969,1.277,1.277,0,0,0,1.02-.43l1.069.89A3.008,3.008,0,0,1,59.588,133.069Zm-1.129-3.178h2.049a1.074,1.074,0,0,0-1.05-.91A1.024,1.024,0,0,0,58.459,129.891Z" />
    <path
       id="path336"
       d="M63.02,127.812h1.619v1.169c.329-.859.789-1.269,1.4-1.269a1.1,1.1,0,0,1,.539.13v1.389a1.775,1.775,0,0,0-.76-.16,1.424,1.424,0,0,0-1.179.64v3.258H63.02Z" />
    <path
       id="path338"
       d="M71.708,125.973h1.959l2.689,7H74.5l-.581-1.669H71.359l-.59,1.669H68.98Zm1.75,4-.81-2.319-.819,2.319Z" />
  </g>
  <g
     id="g354">
    <path
       id="path342"
       d="M289.305,60.447l.79.76a3.591,3.591,0,1,1,.03-4.739l-.81.8a2.461,2.461,0,1,0-1.879,4.088A2.368,2.368,0,0,0,289.305,60.447Z"
       class="cls-8" />
    <path
       id="path344"
       d="M292.328,62.335H291.2V55.189l1.13-.189Z"
       class="cls-8" />
    <path
       id="path346"
       d="M293.578,55.619a.7.7,0,0,1,1.409,0,.7.7,0,0,1-1.409,0Zm1.27,6.716h-1.13V57.329h1.13Z"
       class="cls-8" />
    <path
       id="path348"
       d="M298.557,62.435a2.546,2.546,0,0,1-2.549-2.6,2.466,2.466,0,0,1,2.439-2.587,2.4,2.4,0,0,1,2.369,2.578v.28h-3.7a1.529,1.529,0,0,0,1.5,1.369,1.629,1.629,0,0,0,1.19-.47l.739.69A2.892,2.892,0,0,1,298.557,62.435Zm-1.419-3.018h2.608a1.371,1.371,0,0,0-1.309-1.25A1.346,1.346,0,0,0,297.138,59.417Z"
       class="cls-8" />
    <path
       id="path350"
       d="M301.969,57.329H303.1v.819a1.817,1.817,0,0,1,1.589-.9,1.685,1.685,0,0,1,1.729,1.789v3.3h-1.13V59.357a1.078,1.078,0,0,0-1.1-1.2,1.283,1.283,0,0,0-1.09.6v3.578h-1.129Z"
       class="cls-8" />
    <path
       id="path352"
       d="M308.408,58.228H307.4v-.9h1.01v-1.38l1.129-.24v1.62h1.4v.9h-1.4v2.538c0,.49.191.68.7.68a2.08,2.08,0,0,0,.68-.12v.95a3.554,3.554,0,0,1-.97.14c-1.009,0-1.539-.48-1.539-1.4Z"
       class="cls-8" />
  </g>
  <g
     id="g372">
    <path
       id="path356"
       d="M210.668,94.276l-1.207-5.6h.623l.952,4.629,1.383-4.629h.6l1.383,4.613.959-4.613h.6l-1.207,5.6h-.624l-1.415-4.749-1.423,4.749Z"
       class="cls-8" />
    <path
       id="path358"
       d="M216.9,90.374h.584v.792a1.165,1.165,0,0,1,1.087-.863,1.1,1.1,0,0,1,.368.055v.528a1.483,1.483,0,0,0-.407-.072,1.114,1.114,0,0,0-1.048.791v2.671H216.9Z"
       class="cls-8" />
    <path
       id="path360"
       d="M219.588,88.991a.42.42,0,0,1,.84,0,.42.42,0,1,1-.84,0Zm.712,5.285h-.584v-3.9h.584Z"
       class="cls-8" />
    <path
       id="path362"
       d="M221.964,90.854h-.807v-.48h.807V89.3l.584-.136v1.207h1.119v.48h-1.119v2.391c0,.416.16.584.568.584a1.4,1.4,0,0,0,.551-.1v.519a2.188,2.188,0,0,1-.679.105c-.672,0-1.024-.328-1.024-.953Z"
       class="cls-8" />
    <path
       id="path364"
       d="M226.284,94.349a1.948,1.948,0,0,1-1.935-2.024,1.9,1.9,0,0,1,1.839-2.014,1.843,1.843,0,0,1,1.791,1.966v.176h-3.063a1.423,1.423,0,0,0,1.392,1.384,1.6,1.6,0,0,0,1.071-.4l.368.392A2.279,2.279,0,0,1,226.284,94.349Zm-1.352-2.311H227.4a1.289,1.289,0,0,0-1.223-1.224A1.3,1.3,0,0,0,224.932,92.038Z"
       class="cls-8" />
    <path
       id="path366"
       d="M230.94,88.68h.616v5.6h-.616Z"
       class="cls-8" />
    <path
       id="path368"
       d="M235.067,88.68h.584l-3.2,7.235h-.576Z"
       class="cls-8" />
    <path
       id="path370"
       d="M239.227,94.364a2.888,2.888,0,1,1,2.782-2.886A2.813,2.813,0,0,1,239.227,94.364Zm0-5.213a2.334,2.334,0,1,0,2.158,2.327A2.217,2.217,0,0,0,239.227,89.151Z"
       class="cls-8" />
  </g>
  <rect
     id="rect374"
     height="11.134"
     width="41.195"
     y="85.782"
     x="351.947"
     class="cls-3" />
  <g
     id="g392">
    <path
       id="path376"
       d="M357.29,94.276l-1.207-5.6h.623l.952,4.629,1.383-4.629h.6l1.383,4.613.959-4.613h.6l-1.207,5.6h-.624l-1.415-4.749-1.423,4.749Z"
       class="cls-8" />
    <path
       id="path378"
       d="M363.522,90.374h.584v.792a1.164,1.164,0,0,1,1.087-.863,1.118,1.118,0,0,1,.369.055v.528a1.5,1.5,0,0,0-.409-.072,1.114,1.114,0,0,0-1.047.791v2.671h-.584Z"
       class="cls-8" />
    <path
       id="path380"
       d="M366.21,88.991a.42.42,0,0,1,.84,0,.42.42,0,1,1-.84,0Zm.712,5.285h-.584v-3.9h.584Z"
       class="cls-8" />
    <path
       id="path382"
       d="M368.586,90.854h-.808v-.48h.808V89.3l.584-.136v1.207h1.119v.48H369.17v2.391c0,.416.16.584.567.584a1.4,1.4,0,0,0,.552-.1v.519a2.194,2.194,0,0,1-.68.105c-.671,0-1.023-.328-1.023-.953Z"
       class="cls-8" />
    <path
       id="path384"
       d="M372.905,94.349a1.947,1.947,0,0,1-1.934-2.024,1.9,1.9,0,0,1,1.839-2.014,1.843,1.843,0,0,1,1.791,1.966v.176h-3.063a1.423,1.423,0,0,0,1.392,1.384,1.6,1.6,0,0,0,1.071-.4l.367.392A2.275,2.275,0,0,1,372.905,94.349Zm-1.351-2.311h2.47a1.288,1.288,0,0,0-1.222-1.224A1.3,1.3,0,0,0,371.554,92.038Z"
       class="cls-8" />
    <path
       id="path386"
       d="M377.562,88.68h.616v5.6h-.616Z"
       class="cls-8" />
    <path
       id="path388"
       d="M381.689,88.68h.583l-3.2,7.235H378.5Z"
       class="cls-8" />
    <path
       id="path390"
       d="M385.849,94.364a2.888,2.888,0,1,1,2.782-2.886A2.814,2.814,0,0,1,385.849,94.364Zm0-5.213a2.334,2.334,0,1,0,2.158,2.327A2.217,2.217,0,0,0,385.849,89.151Z"
       class="cls-8" />
  </g>
  <g
     id="g404">
    <rect
       id="rect394"
       height="31.684"
       width="41.331"
       y="16.309"
       x="276.584"
       class="cls-9" />
    <line
       id="line396"
       y2="21.065"
       x2="313.146"
       y1="21.065"
       x1="313.146"
       class="cls-10" />
    <line
       id="line398"
       y2="21.065"
       x2="309.966"
       y1="21.065"
       x1="309.966"
       class="cls-10" />
    <line
       id="line400"
       y2="21.065"
       x2="306.787"
       y1="21.065"
       x1="306.787"
       class="cls-10" />
    <line
       id="line402"
       y2="21.065"
       x2="294.07"
       y1="21.065"
       x1="281.353"
       class="cls-11" />
  </g>
</svg>
