<svg xmlns="http://www.w3.org/2000/svg" width="210mm" height="138.614mm" viewBox="0 0 595.276 392.922">
  <defs>
    <style>
      .cls-1 {
        fill: #151515;
      }

      .cls-11, .cls-12, .cls-13, .cls-14, .cls-15, .cls-16, .cls-2, .cls-6 {
        fill: none;
      }

      .cls-11, .cls-12, .cls-13, .cls-14, .cls-15, .cls-16, .cls-2 {
        stroke: #151515;
      }

      .cls-10, .cls-2, .cls-6 {
        stroke-miterlimit: 10;
      }

      .cls-3, .cls-8 {
        fill: #e8e8e8;
      }

      .cls-4, .cls-9 {
        fill: #fff;
      }

      .cls-10, .cls-5 {
        fill: #5b5b5b;
      }

      .cls-6 {
        stroke: #06c;
      }

      .cls-7 {
        fill: #06c;
      }

      .cls-8 {
        opacity: 0.5;
      }

      .cls-9 {
        stroke: #5b5b5b;
      }

      .cls-11, .cls-12, .cls-13, .cls-14, .cls-15, .cls-16, .cls-9 {
        stroke-linecap: round;
        stroke-linejoin: round;
      }

      .cls-10 {
        stroke: #f0f0f0;
        stroke-width: 0.25px;
      }

      .cls-12 {
        stroke-dasharray: 2.995 2.995;
      }

      .cls-13 {
        stroke-dasharray: 2.949 2.949;
      }

      .cls-14 {
        stroke-dasharray: 3.068 3.068;
      }

      .cls-15 {
        stroke-dasharray: 2.939 2.939;
      }

      .cls-16 {
        stroke-dasharray: 2.981 2.981;
      }
    </style>
  </defs>
  <g id="Persistent_storage" data-name="Persistent storage">
    <g>
      <path class="cls-1" d="M237.989,314.117h1.868a1.3,1.3,0,1,1,0,2.584h-1.151v1.592h-.717Zm.717.6v1.4h1.038a.7.7,0,1,0,0-1.4Z"/>
      <path class="cls-1" d="M243.34,318.353a1.52,1.52,0,0,1-1.522-1.551,1.473,1.473,0,0,1,1.456-1.546,1.435,1.435,0,0,1,1.414,1.54v.167h-2.207a.913.913,0,0,0,.894.818.967.967,0,0,0,.71-.282l.442.412A1.726,1.726,0,0,1,243.34,318.353Zm-.847-1.8h1.557a.819.819,0,0,0-.782-.746A.8.8,0,0,0,242.493,316.551Z"/>
      <path class="cls-1" d="M245.374,315.3h.674v.65a.886.886,0,0,1,.823-.7.824.824,0,0,1,.293.06v.591a.951.951,0,0,0-.371-.072.82.82,0,0,0-.745.5v1.968h-.674Z"/>
      <path class="cls-1" d="M247.765,317.493a1.714,1.714,0,0,0,.961.341c.357,0,.6-.161.6-.4,0-.185-.125-.286-.412-.34l-.53-.09c-.579-.107-.866-.376-.866-.823,0-.561.46-.925,1.158-.925a2.09,2.09,0,0,1,1.175.359l-.316.441a1.633,1.633,0,0,0-.9-.286c-.31,0-.513.131-.513.351,0,.192.107.275.424.329l.525.1c.6.114.883.388.883.835a1.1,1.1,0,0,1-1.217.973,2.014,2.014,0,0,1-1.289-.405Z"/>
      <path class="cls-1" d="M250.491,314.284a.421.421,0,0,1,.841,0,.421.421,0,0,1-.841,0Zm.758,4.009h-.675V315.3h.675Z"/>
      <path class="cls-1" d="M252.125,317.493a1.714,1.714,0,0,0,.96.341c.358,0,.6-.161.6-.4,0-.185-.125-.286-.412-.34l-.53-.09c-.579-.107-.866-.376-.866-.823,0-.561.46-.925,1.158-.925a2.09,2.09,0,0,1,1.175.359l-.316.441a1.633,1.633,0,0,0-.9-.286c-.31,0-.513.131-.513.351,0,.192.107.275.424.329l.525.1c.6.114.882.388.882.835a1.094,1.094,0,0,1-1.216.973,2.014,2.014,0,0,1-1.289-.405Z"/>
      <path class="cls-1" d="M255.305,315.841h-.6V315.3h.6v-.823l.674-.144v.967h.835v.537h-.835v1.516c0,.292.113.4.417.4a1.253,1.253,0,0,0,.406-.071v.566a2.11,2.11,0,0,1-.578.084c-.6,0-.919-.286-.919-.835Z"/>
      <path class="cls-1" d="M258.788,318.353a1.519,1.519,0,0,1-1.521-1.551,1.473,1.473,0,0,1,1.456-1.546,1.436,1.436,0,0,1,1.414,1.54v.167h-2.208a.914.914,0,0,0,.9.818.969.969,0,0,0,.71-.282l.442.412A1.73,1.73,0,0,1,258.788,318.353Zm-.847-1.8H259.5a.819.819,0,0,0-.782-.746A.8.8,0,0,0,257.941,316.551Z"/>
      <path class="cls-1" d="M260.821,315.3h.675v.489a1.085,1.085,0,0,1,.948-.537,1.007,1.007,0,0,1,1.033,1.069v1.968H262.8v-1.778a.643.643,0,0,0-.656-.716.765.765,0,0,0-.65.359v2.135h-.675Z"/>
      <path class="cls-1" d="M264.663,315.841h-.6V315.3h.6v-.823l.674-.144v.967h.835v.537h-.835v1.516c0,.292.113.4.417.4a1.253,1.253,0,0,0,.406-.071v.566a2.11,2.11,0,0,1-.578.084c-.6,0-.919-.286-.919-.835Z"/>
      <path class="cls-1" d="M268.152,317.493a1.714,1.714,0,0,0,.96.341c.358,0,.6-.161.6-.4,0-.185-.125-.286-.412-.34l-.531-.09c-.578-.107-.865-.376-.865-.823,0-.561.46-.925,1.158-.925a2.1,2.1,0,0,1,1.175.359l-.316.441a1.633,1.633,0,0,0-.9-.286c-.31,0-.513.131-.513.351,0,.192.107.275.424.329l.524.1c.6.114.883.388.883.835a1.1,1.1,0,0,1-1.217.973,2.016,2.016,0,0,1-1.289-.405Z"/>
      <path class="cls-1" d="M271.331,315.841h-.6V315.3h.6v-.823l.674-.144v.967h.835v.537h-.835v1.516c0,.292.114.4.418.4a1.261,1.261,0,0,0,.406-.071v.566a2.117,2.117,0,0,1-.579.084c-.6,0-.919-.286-.919-.835Z"/>
      <path class="cls-1" d="M274.8,315.256a1.549,1.549,0,1,1-1.5,1.546A1.493,1.493,0,0,1,274.8,315.256Zm.836,1.552a.845.845,0,1,0-1.671,0,.844.844,0,1,0,1.671,0Z"/>
      <path class="cls-1" d="M277,315.3h.674v.65a.886.886,0,0,1,.823-.7.824.824,0,0,1,.293.06v.591a.951.951,0,0,0-.371-.072.82.82,0,0,0-.745.5v1.968H277Z"/>
      <path class="cls-1" d="M279.192,317.434c0-.537.435-.877,1.14-.877a1.84,1.84,0,0,1,.805.186v-.329c0-.394-.227-.6-.686-.6a2.065,2.065,0,0,0-.871.232l-.239-.489a2.87,2.87,0,0,1,1.241-.305c.775,0,1.223.4,1.223,1.086v1.951h-.668v-.3a1.247,1.247,0,0,1-.889.352A.943.943,0,0,1,279.192,317.434Zm1.241.435a1.067,1.067,0,0,0,.7-.244v-.489a1.554,1.554,0,0,0-.692-.143c-.382,0-.621.167-.621.429S280.063,317.869,280.433,317.869Z"/>
      <path class="cls-1" d="M282.484,316.8a1.443,1.443,0,0,1,1.4-1.515,1.121,1.121,0,0,1,.877.4V315.3h.668V318.4c0,.769-.5,1.193-1.407,1.193a2.586,2.586,0,0,1-1.2-.287l.239-.5a2.034,2.034,0,0,0,.93.257c.5,0,.764-.227.764-.662v-.507a1.162,1.162,0,0,1-.913.423A1.433,1.433,0,0,1,282.484,316.8Zm1.557.954a.893.893,0,0,0,.71-.328v-1.253a.926.926,0,0,0-.71-.322.891.891,0,0,0-.889.949A.9.9,0,0,0,284.041,317.75Z"/>
      <path class="cls-1" d="M287.638,318.353a1.519,1.519,0,0,1-1.521-1.551,1.473,1.473,0,0,1,1.456-1.546,1.435,1.435,0,0,1,1.413,1.54v.167h-2.207a.914.914,0,0,0,.895.818.967.967,0,0,0,.71-.282l.442.412A1.73,1.73,0,0,1,287.638,318.353Zm-.847-1.8h1.557a.819.819,0,0,0-.782-.746A.8.8,0,0,0,286.791,316.551Z"/>
    </g>
    <polyline class="cls-2" points="300.456 298.025 300.456 309.772 229.556 309.772 229.556 297.998"/>
  </g>
  <g id="Stores_images" data-name="Stores images">
    <g>
      <path class="cls-1" d="M325.033,317.154a2.092,2.092,0,0,0,1.4.608c.554,0,.936-.28.936-.662,0-.34-.2-.5-.758-.6l-.769-.131c-.722-.131-1.074-.489-1.074-1.062,0-.751.6-1.253,1.539-1.253a2.793,2.793,0,0,1,1.677.543l-.364.537a2.17,2.17,0,0,0-1.337-.483c-.5,0-.829.251-.829.59,0,.3.185.454.645.526l.739.131c.842.143,1.235.513,1.235,1.145,0,.764-.68,1.307-1.676,1.307a2.635,2.635,0,0,1-1.755-.674Z"/>
      <path class="cls-1" d="M329.089,315.841h-.6V315.3h.6v-.823l.675-.144v.967h.835v.537h-.835v1.516c0,.292.113.4.417.4a1.257,1.257,0,0,0,.406-.071v.566a2.111,2.111,0,0,1-.579.084c-.6,0-.919-.286-.919-.835Z"/>
      <path class="cls-1" d="M332.555,315.256a1.549,1.549,0,1,1-1.5,1.546A1.494,1.494,0,0,1,332.555,315.256Zm.835,1.552a.845.845,0,1,0-1.67,0,.843.843,0,1,0,1.67,0Z"/>
      <path class="cls-1" d="M334.755,315.3h.675v.65a.886.886,0,0,1,.823-.7.814.814,0,0,1,.292.06v.591a.943.943,0,0,0-.37-.072.819.819,0,0,0-.745.5v1.968h-.675Z"/>
      <path class="cls-1" d="M338.484,318.353a1.52,1.52,0,0,1-1.522-1.551,1.473,1.473,0,0,1,1.456-1.546,1.435,1.435,0,0,1,1.414,1.54v.167h-2.207a.914.914,0,0,0,.895.818.966.966,0,0,0,.709-.282l.442.412A1.726,1.726,0,0,1,338.484,318.353Zm-.847-1.8h1.557a.819.819,0,0,0-.782-.746A.8.8,0,0,0,337.637,316.551Z"/>
      <path class="cls-1" d="M340.565,317.493a1.714,1.714,0,0,0,.96.341c.358,0,.6-.161.6-.4,0-.185-.125-.286-.412-.34l-.53-.09c-.579-.107-.866-.376-.866-.823,0-.561.46-.925,1.158-.925a2.1,2.1,0,0,1,1.175.359l-.316.441a1.633,1.633,0,0,0-.9-.286c-.31,0-.513.131-.513.351,0,.192.107.275.424.329l.525.1c.6.114.882.388.882.835a1.1,1.1,0,0,1-1.216.973,2.014,2.014,0,0,1-1.289-.405Z"/>
      <path class="cls-1" d="M344.632,314.284a.421.421,0,0,1,.842,0,.421.421,0,0,1-.842,0Zm.758,4.009h-.674V315.3h.674Z"/>
      <path class="cls-1" d="M346.219,315.3h.675v.478a1.02,1.02,0,0,1,.889-.526.941.941,0,0,1,.877.579,1.1,1.1,0,0,1,.99-.579.991.991,0,0,1,.978,1.086v1.951h-.674v-1.807a.6.6,0,0,0-.6-.687.71.71,0,0,0-.6.353c.006.065.012.125.012.19v1.951h-.674v-1.807a.606.606,0,0,0-.6-.687.691.691,0,0,0-.59.341v2.153h-.675Z"/>
      <path class="cls-1" d="M351.3,317.434c0-.537.435-.877,1.14-.877a1.84,1.84,0,0,1,.805.186v-.329c0-.394-.227-.6-.686-.6a2.065,2.065,0,0,0-.871.232l-.239-.489a2.87,2.87,0,0,1,1.241-.305c.775,0,1.223.4,1.223,1.086v1.951h-.668v-.3a1.247,1.247,0,0,1-.889.352A.943.943,0,0,1,351.3,317.434Zm1.241.435a1.067,1.067,0,0,0,.7-.244v-.489a1.554,1.554,0,0,0-.692-.143c-.382,0-.621.167-.621.429S352.166,317.869,352.536,317.869Z"/>
      <path class="cls-1" d="M354.587,316.8a1.443,1.443,0,0,1,1.4-1.515,1.123,1.123,0,0,1,.878.4V315.3h.668V318.4c0,.769-.5,1.193-1.408,1.193a2.579,2.579,0,0,1-1.2-.287l.238-.5a2.035,2.035,0,0,0,.931.257c.5,0,.763-.227.763-.662v-.507a1.16,1.16,0,0,1-.912.423A1.433,1.433,0,0,1,354.587,316.8Zm1.558.954a.891.891,0,0,0,.709-.328v-1.253a.924.924,0,0,0-.709-.322.891.891,0,0,0-.889.949A.9.9,0,0,0,356.145,317.75Z"/>
      <path class="cls-1" d="M359.741,318.353a1.519,1.519,0,0,1-1.521-1.551,1.473,1.473,0,0,1,1.456-1.546,1.436,1.436,0,0,1,1.414,1.54v.167h-2.208a.914.914,0,0,0,.895.818.967.967,0,0,0,.71-.282l.442.412A1.728,1.728,0,0,1,359.741,318.353Zm-.847-1.8h1.557a.819.819,0,0,0-.782-.746A.8.8,0,0,0,358.894,316.551Z"/>
      <path class="cls-1" d="M361.823,317.493a1.714,1.714,0,0,0,.96.341c.359,0,.6-.161.6-.4,0-.185-.125-.286-.411-.34l-.532-.09c-.579-.107-.865-.376-.865-.823,0-.561.459-.925,1.157-.925a2.1,2.1,0,0,1,1.176.359l-.316.441a1.636,1.636,0,0,0-.9-.286c-.309,0-.512.131-.512.351,0,.192.107.275.423.329l.525.1c.6.114.884.388.884.835a1.1,1.1,0,0,1-1.218.973,2.011,2.011,0,0,1-1.288-.405Z"/>
    </g>
    <polyline class="cls-2" points="377.3 298.025 377.3 309.772 312.027 309.772 312.027 297.998"/>
  </g>
  <g id="Stores_images_as_objects" data-name="Stores images 
as objects">
    <g>
      <path class="cls-1" d="M404.713,317.153a2.091,2.091,0,0,0,1.4.608c.556,0,.938-.28.938-.662,0-.34-.2-.5-.758-.6l-.77-.131c-.722-.131-1.074-.489-1.074-1.062,0-.751.6-1.253,1.539-1.253a2.791,2.791,0,0,1,1.677.543l-.364.537a2.165,2.165,0,0,0-1.336-.483c-.5,0-.829.251-.829.59,0,.3.184.454.643.526l.74.131c.841.143,1.236.513,1.236,1.145,0,.764-.681,1.307-1.677,1.307a2.631,2.631,0,0,1-1.754-.674Z"/>
      <path class="cls-1" d="M408.769,315.84h-.6V315.3h.6v-.823l.674-.144v.967h.835v.537h-.835v1.516c0,.292.114.405.417.405a1.258,1.258,0,0,0,.407-.071v.566a2.113,2.113,0,0,1-.58.084c-.6,0-.918-.286-.918-.835Z"/>
      <path class="cls-1" d="M412.234,315.255a1.549,1.549,0,1,1-1.5,1.546A1.493,1.493,0,0,1,412.234,315.255Zm.835,1.552a.845.845,0,1,0-1.671,0,.844.844,0,1,0,1.671,0Z"/>
      <path class="cls-1" d="M414.435,315.3h.673v.65a.888.888,0,0,1,.824-.7.814.814,0,0,1,.292.06v.591a.946.946,0,0,0-.37-.072.821.821,0,0,0-.746.5v1.968h-.673Z"/>
      <path class="cls-1" d="M418.163,318.352a1.519,1.519,0,0,1-1.521-1.551,1.473,1.473,0,0,1,1.456-1.546,1.436,1.436,0,0,1,1.414,1.54v.167H417.3a.913.913,0,0,0,.9.818.969.969,0,0,0,.71-.282l.442.412A1.728,1.728,0,0,1,418.163,318.352Zm-.847-1.8h1.557a.818.818,0,0,0-.781-.746A.8.8,0,0,0,417.316,316.55Z"/>
      <path class="cls-1" d="M420.244,317.493a1.719,1.719,0,0,0,.96.34c.358,0,.6-.161.6-.4,0-.185-.125-.286-.412-.34l-.531-.09c-.579-.107-.865-.376-.865-.823,0-.561.459-.925,1.157-.925a2.1,2.1,0,0,1,1.176.359l-.316.441a1.635,1.635,0,0,0-.9-.286c-.31,0-.513.131-.513.351,0,.192.107.275.423.329l.525.095c.6.114.884.388.884.835a1.1,1.1,0,0,1-1.218.973,2.011,2.011,0,0,1-1.288-.4Z"/>
      <path class="cls-1" d="M424.311,314.284a.421.421,0,0,1,.842,0,.421.421,0,0,1-.842,0Zm.758,4.008H424.4V315.3h.674Z"/>
      <path class="cls-1" d="M425.9,315.3h.674v.478a1.022,1.022,0,0,1,.889-.526.938.938,0,0,1,.877.579,1.1,1.1,0,0,1,.991-.579.991.991,0,0,1,.978,1.086v1.951h-.674v-1.807a.606.606,0,0,0-.6-.687.71.71,0,0,0-.6.353c.006.065.011.125.011.19v1.951h-.673v-1.807a.606.606,0,0,0-.6-.687.693.693,0,0,0-.591.341v2.153H425.9Z"/>
      <path class="cls-1" d="M430.975,317.433c0-.537.435-.877,1.139-.877a1.841,1.841,0,0,1,.806.186v-.329c0-.394-.228-.6-.687-.6a2.065,2.065,0,0,0-.871.232l-.238-.489a2.866,2.866,0,0,1,1.24-.305c.777,0,1.224.395,1.224,1.086v1.951h-.668v-.3a1.248,1.248,0,0,1-.89.352A.942.942,0,0,1,430.975,317.433Zm1.241.435a1.067,1.067,0,0,0,.7-.244v-.489a1.554,1.554,0,0,0-.692-.143c-.382,0-.621.167-.621.429S431.846,317.868,432.216,317.868Z"/>
      <path class="cls-1" d="M434.267,316.8a1.442,1.442,0,0,1,1.4-1.515,1.123,1.123,0,0,1,.877.405V315.3h.668v3.091c0,.769-.5,1.193-1.408,1.193a2.582,2.582,0,0,1-1.2-.287l.239-.5a2.034,2.034,0,0,0,.93.257c.5,0,.764-.227.764-.662v-.507a1.162,1.162,0,0,1-.913.423A1.432,1.432,0,0,1,434.267,316.8Zm1.557.954a.9.9,0,0,0,.71-.328v-1.253a.927.927,0,0,0-.71-.322.891.891,0,0,0-.889.949A.9.9,0,0,0,435.824,317.749Z"/>
      <path class="cls-1" d="M439.42,318.352A1.519,1.519,0,0,1,437.9,316.8a1.473,1.473,0,0,1,1.456-1.546,1.436,1.436,0,0,1,1.415,1.54v.167h-2.208a.913.913,0,0,0,.9.818.969.969,0,0,0,.71-.282l.441.412A1.724,1.724,0,0,1,439.42,318.352Zm-.848-1.8h1.558a.818.818,0,0,0-.781-.746A.8.8,0,0,0,438.572,316.55Z"/>
      <path class="cls-1" d="M441.5,317.493a1.719,1.719,0,0,0,.96.34c.358,0,.6-.161.6-.4,0-.185-.125-.286-.411-.34l-.531-.09c-.579-.107-.865-.376-.865-.823,0-.561.459-.925,1.157-.925a2.1,2.1,0,0,1,1.176.359l-.317.441a1.63,1.63,0,0,0-.9-.286c-.311,0-.514.131-.514.351,0,.192.108.275.424.329l.525.095c.6.114.883.388.883.835a1.1,1.1,0,0,1-1.217.973,2.011,2.011,0,0,1-1.288-.4Z"/>
      <path class="cls-1" d="M410.277,324.59c0-.537.436-.877,1.14-.877a1.844,1.844,0,0,1,.806.186v-.328c0-.4-.228-.6-.687-.6a2.065,2.065,0,0,0-.871.232l-.238-.489a2.866,2.866,0,0,1,1.24-.305c.776,0,1.224.4,1.224,1.086v1.952h-.668v-.305a1.248,1.248,0,0,1-.89.352A.943.943,0,0,1,410.277,324.59Zm1.242.436a1.067,1.067,0,0,0,.7-.244v-.49a1.556,1.556,0,0,0-.693-.143c-.382,0-.62.167-.62.429S411.148,325.026,411.519,325.026Z"/>
      <path class="cls-1" d="M413.755,324.65a1.721,1.721,0,0,0,.96.341c.358,0,.6-.162.6-.4,0-.184-.125-.286-.411-.34l-.531-.09c-.579-.107-.865-.375-.865-.823,0-.56.459-.925,1.157-.925a2.1,2.1,0,0,1,1.176.359l-.317.441a1.63,1.63,0,0,0-.9-.286c-.31,0-.513.131-.513.352,0,.191.108.274.424.328l.525.1c.6.114.883.388.883.835a1.1,1.1,0,0,1-1.217.973,2.011,2.011,0,0,1-1.289-.405Z"/>
      <path class="cls-1" d="M419.272,322.412a1.549,1.549,0,1,1-1.5,1.546A1.493,1.493,0,0,1,419.272,322.412Zm.835,1.552a.845.845,0,1,0-1.671,0,.844.844,0,1,0,1.671,0Z"/>
      <path class="cls-1" d="M423.018,325.48a1.114,1.114,0,0,1-.883-.418v.388h-.662v-4.266l.673-.113v1.79a1.163,1.163,0,0,1,.919-.424,1.435,1.435,0,0,1,1.355,1.521A1.45,1.45,0,0,1,423.018,325.48Zm-.872-2.143v1.247a.916.916,0,0,0,.716.328.957.957,0,0,0,0-1.909A.88.88,0,0,0,422.146,323.337Z"/>
      <path class="cls-1" d="M424.544,326.7v-.542a.993.993,0,0,0,.239.023c.233,0,.334-.095.334-.321v-3.4h.674v3.431a.787.787,0,0,1-.883.853A1.557,1.557,0,0,1,424.544,326.7Zm.489-5.262a.421.421,0,0,1,.842,0,.421.421,0,0,1-.842,0Z"/>
      <path class="cls-1" d="M428,325.509a1.519,1.519,0,0,1-1.522-1.551,1.473,1.473,0,0,1,1.456-1.546,1.436,1.436,0,0,1,1.415,1.54v.167h-2.208a.913.913,0,0,0,.9.818.972.972,0,0,0,.71-.281l.441.412A1.728,1.728,0,0,1,428,325.509Zm-.848-1.8h1.558a.818.818,0,0,0-.781-.746A.8.8,0,0,0,427.156,323.707Z"/>
      <path class="cls-1" d="M432.174,324.584l.405.407a1.557,1.557,0,0,1-1.169.518,1.546,1.546,0,0,1,0-3.091,1.612,1.612,0,0,1,1.193.5l-.417.436a.984.984,0,0,0-.752-.353.959.959,0,0,0,.018,1.909A.918.918,0,0,0,432.174,324.584Z"/>
      <path class="cls-1" d="M433.526,323h-.6v-.537h.6v-.823l.675-.144v.967h.835V323H434.2v1.516c0,.292.113.405.417.405a1.222,1.222,0,0,0,.406-.071v.566a2.1,2.1,0,0,1-.579.084c-.6,0-.919-.286-.919-.835Z"/>
      <path class="cls-1" d="M435.675,324.65a1.719,1.719,0,0,0,.96.341c.358,0,.6-.162.6-.4,0-.184-.125-.286-.411-.34l-.531-.09c-.579-.107-.865-.375-.865-.823,0-.56.459-.925,1.157-.925a2.1,2.1,0,0,1,1.176.359l-.317.441a1.63,1.63,0,0,0-.9-.286c-.31,0-.513.131-.513.352,0,.191.108.274.424.328l.524.1c.6.114.884.388.884.835a1.1,1.1,0,0,1-1.218.973,2.01,2.01,0,0,1-1.288-.405Z"/>
    </g>
    <polyline class="cls-2" points="459.762 298.025 459.762 309.772 389.05 309.772 389.05 297.998"/>
  </g>
  <g id="Network_connectivity" data-name="Network connectivity">
    <g>
      <path class="cls-1" d="M195.988,340.54l2.178,3.032-.012-3.032h.674v4.177h-.638l-2.237-3.114.011,3.114h-.674V340.54Z"/>
      <path class="cls-1" d="M201.13,344.777a1.52,1.52,0,0,1-1.522-1.551,1.473,1.473,0,0,1,1.456-1.546,1.434,1.434,0,0,1,1.414,1.54v.167h-2.207a.913.913,0,0,0,.9.817.966.966,0,0,0,.709-.281l.442.412A1.726,1.726,0,0,1,201.13,344.777Zm-.847-1.8h1.557a.819.819,0,0,0-.782-.746A.8.8,0,0,0,200.283,342.975Z"/>
      <path class="cls-1" d="M203.533,342.265h-.6v-.537h.6v-.823l.674-.144v.967h.835v.537h-.835v1.516c0,.292.114.4.418.4a1.257,1.257,0,0,0,.406-.071v.566a2.117,2.117,0,0,1-.579.084c-.6,0-.919-.286-.919-.835Z"/>
      <path class="cls-1" d="M206.158,344.717l-.806-2.989H206l.524,2.112.615-2.112h.572l.615,2.118.519-2.118h.633l-.806,2.989h-.65l-.6-2.106-.6,2.106Z"/>
      <path class="cls-1" d="M211.4,341.68a1.549,1.549,0,1,1-1.5,1.546A1.493,1.493,0,0,1,211.4,341.68Zm.835,1.552a.845.845,0,1,0-1.67,0,.843.843,0,1,0,1.67,0Z"/>
      <path class="cls-1" d="M213.6,341.728h.675v.65a.886.886,0,0,1,.823-.7.814.814,0,0,1,.292.06v.591a.943.943,0,0,0-.37-.072.819.819,0,0,0-.745.5v1.969H213.6Z"/>
      <path class="cls-1" d="M215.939,340.451l.674-.113v2.667l1.241-1.277h.77l-1.366,1.385,1.449,1.6h-.865l-1.229-1.378v1.378h-.674Z"/>
      <path class="cls-1" d="M222.644,343.852l.406.406a1.562,1.562,0,0,1-1.17.519,1.546,1.546,0,0,1,0-3.091,1.61,1.61,0,0,1,1.193.5l-.417.435a.988.988,0,0,0-.752-.352.959.959,0,0,0,.018,1.909A.918.918,0,0,0,222.644,343.852Z"/>
      <path class="cls-1" d="M224.994,341.68a1.549,1.549,0,1,1-1.5,1.546A1.494,1.494,0,0,1,224.994,341.68Zm.835,1.552a.845.845,0,1,0-1.67,0,.843.843,0,1,0,1.67,0Z"/>
      <path class="cls-1" d="M227.194,341.728h.675v.489a1.085,1.085,0,0,1,.948-.537,1.006,1.006,0,0,1,1.033,1.068v1.969h-.675v-1.778a.643.643,0,0,0-.656-.716.767.767,0,0,0-.65.358v2.136h-.675Z"/>
      <path class="cls-1" d="M230.666,341.728h.674v.489a1.086,1.086,0,0,1,.949-.537,1.006,1.006,0,0,1,1.032,1.068v1.969h-.675v-1.778a.643.643,0,0,0-.656-.716.768.768,0,0,0-.65.358v2.136h-.674Z"/>
      <path class="cls-1" d="M235.521,344.777A1.52,1.52,0,0,1,234,343.226a1.473,1.473,0,0,1,1.457-1.546,1.434,1.434,0,0,1,1.413,1.54v.167h-2.207a.914.914,0,0,0,.895.817.968.968,0,0,0,.71-.281l.441.412A1.726,1.726,0,0,1,235.521,344.777Zm-.847-1.8h1.557a.819.819,0,0,0-.782-.746A.8.8,0,0,0,234.674,342.975Z"/>
      <path class="cls-1" d="M239.69,343.852l.406.406a1.56,1.56,0,0,1-1.169.519,1.546,1.546,0,0,1,0-3.091,1.613,1.613,0,0,1,1.193.5l-.418.435a.987.987,0,0,0-.752-.352.959.959,0,0,0,.018,1.909A.917.917,0,0,0,239.69,343.852Z"/>
      <path class="cls-1" d="M241.044,342.265h-.6v-.537h.6v-.823l.674-.144v.967h.835v.537h-.835v1.516c0,.292.114.4.418.4a1.252,1.252,0,0,0,.405-.071v.566a2.1,2.1,0,0,1-.578.084c-.6,0-.919-.286-.919-.835Z"/>
      <path class="cls-1" d="M243.06,340.707a.421.421,0,0,1,.841,0,.421.421,0,0,1-.841,0Zm.757,4.01h-.674v-2.989h.674Z"/>
      <path class="cls-1" d="M244.294,341.728h.734l.829,2.183.829-2.183h.71l-1.229,2.989h-.65Z"/>
      <path class="cls-1" d="M247.8,340.707a.421.421,0,0,1,.842,0,.421.421,0,0,1-.842,0Zm.758,4.01h-.674v-2.989h.674Z"/>
      <path class="cls-1" d="M249.752,342.265h-.6v-.537h.6v-.823l.674-.144v.967h.835v.537h-.835v1.516c0,.292.114.4.418.4a1.252,1.252,0,0,0,.405-.071v.566a2.1,2.1,0,0,1-.578.084c-.6,0-.919-.286-.919-.835Z"/>
      <path class="cls-1" d="M252.615,344.735l-1.128-3.007h.752l.758,2.22.835-2.22h.734l-1.42,3.478a1.01,1.01,0,0,1-1.062.787,1.411,1.411,0,0,1-.34-.041v-.579a2.447,2.447,0,0,0,.262.024.478.478,0,0,0,.484-.346Z"/>
    </g>
    <polyline class="cls-2" points="152.834 298.166 152.834 336.402 300.456 336.402 300.456 317.378"/>
  </g>
  <g id="Collects_usage_statistics" data-name="Collects usage statistics">
    <g>
      <path class="cls-1" d="M310.686,372.493l.472.455a2.144,2.144,0,1,1,.018-2.829l-.484.478a1.469,1.469,0,1,0-1.121,2.439A1.412,1.412,0,0,0,310.686,372.493Z"/>
      <path class="cls-1" d="M313.179,370.584a1.549,1.549,0,1,1-1.5,1.546A1.493,1.493,0,0,1,313.179,370.584Zm.836,1.552a.845.845,0,1,0-1.671,0,.844.844,0,1,0,1.671,0Z"/>
      <path class="cls-1" d="M316.054,373.621h-.675v-4.265l.675-.113Z"/>
      <path class="cls-1" d="M317.557,373.621h-.674v-4.265l.674-.113Z"/>
      <path class="cls-1" d="M319.77,373.681a1.519,1.519,0,0,1-1.521-1.551,1.473,1.473,0,0,1,1.456-1.546,1.435,1.435,0,0,1,1.413,1.54v.167h-2.207a.914.914,0,0,0,.895.818.969.969,0,0,0,.71-.282l.441.413A1.729,1.729,0,0,1,319.77,373.681Zm-.847-1.8h1.557a.819.819,0,0,0-.782-.746A.8.8,0,0,0,318.923,371.879Z"/>
      <path class="cls-1" d="M323.939,372.756l.406.406a1.556,1.556,0,0,1-1.169.519,1.546,1.546,0,0,1,0-3.091,1.613,1.613,0,0,1,1.193.5l-.418.436a.984.984,0,0,0-.752-.353.959.959,0,0,0,.018,1.909A.917.917,0,0,0,323.939,372.756Z"/>
      <path class="cls-1" d="M325.293,371.169h-.6v-.537h.6v-.823l.674-.144v.967h.835v.537h-.835v1.516c0,.292.114.4.418.4a1.235,1.235,0,0,0,.406-.071v.566a2.117,2.117,0,0,1-.579.084c-.6,0-.919-.286-.919-.835Z"/>
      <path class="cls-1" d="M327.44,372.822a1.719,1.719,0,0,0,.96.34c.358,0,.6-.161.6-.4,0-.185-.125-.286-.412-.34l-.53-.09c-.579-.107-.866-.376-.866-.823,0-.56.46-.925,1.158-.925a2.1,2.1,0,0,1,1.175.359l-.316.441a1.633,1.633,0,0,0-.9-.286c-.31,0-.513.131-.513.352,0,.191.107.274.424.328l.525.095c.6.114.882.388.882.835a1.1,1.1,0,0,1-1.216.973,2.014,2.014,0,0,1-1.289-.4Z"/>
      <path class="cls-1" d="M332.248,372.41a.643.643,0,0,0,.656.716.755.755,0,0,0,.657-.37v-2.124h.673v2.989h-.673v-.5a1.1,1.1,0,0,1-.956.543,1,1,0,0,1-1.031-1.068v-1.969h.674Z"/>
      <path class="cls-1" d="M335.11,372.822a1.722,1.722,0,0,0,.961.34c.358,0,.6-.161.6-.4,0-.185-.125-.286-.411-.34l-.531-.09c-.579-.107-.865-.376-.865-.823,0-.56.459-.925,1.157-.925a2.1,2.1,0,0,1,1.176.359l-.317.441a1.63,1.63,0,0,0-.9-.286c-.31,0-.513.131-.513.352,0,.191.108.274.424.328l.525.095c.6.114.883.388.883.835a1.1,1.1,0,0,1-1.217.973,2.014,2.014,0,0,1-1.289-.4Z"/>
      <path class="cls-1" d="M337.77,372.762c0-.537.436-.877,1.14-.877a1.837,1.837,0,0,1,.8.186v-.328c0-.395-.226-.6-.686-.6a2.069,2.069,0,0,0-.871.232l-.239-.489a2.874,2.874,0,0,1,1.242-.305c.775,0,1.223.395,1.223,1.086v1.951h-.669v-.3a1.245,1.245,0,0,1-.888.352A.943.943,0,0,1,337.77,372.762Zm1.241.436a1.064,1.064,0,0,0,.7-.245v-.489a1.551,1.551,0,0,0-.692-.143c-.381,0-.62.167-.62.429S338.642,373.2,339.011,373.2Z"/>
      <path class="cls-1" d="M341.062,372.124a1.443,1.443,0,0,1,1.4-1.515,1.123,1.123,0,0,1,.878.405v-.382H344v3.091c0,.77-.5,1.193-1.408,1.193a2.582,2.582,0,0,1-1.2-.287l.238-.5a2.038,2.038,0,0,0,.931.257c.5,0,.764-.226.764-.662v-.507a1.162,1.162,0,0,1-.913.423A1.433,1.433,0,0,1,341.062,372.124Zm1.558.954a.894.894,0,0,0,.71-.328V371.5a.927.927,0,0,0-.71-.322.892.892,0,0,0-.889.949A.9.9,0,0,0,342.62,373.078Z"/>
      <path class="cls-1" d="M346.216,373.681a1.519,1.519,0,0,1-1.521-1.551,1.473,1.473,0,0,1,1.456-1.546,1.435,1.435,0,0,1,1.413,1.54v.167h-2.207a.914.914,0,0,0,.895.818.967.967,0,0,0,.71-.282l.442.413A1.73,1.73,0,0,1,346.216,373.681Zm-.847-1.8h1.557a.818.818,0,0,0-.781-.746A.8.8,0,0,0,345.369,371.879Z"/>
      <path class="cls-1" d="M349.64,372.822a1.717,1.717,0,0,0,.96.34c.358,0,.6-.161.6-.4,0-.185-.125-.286-.412-.34l-.531-.09c-.578-.107-.865-.376-.865-.823,0-.56.459-.925,1.158-.925a2.1,2.1,0,0,1,1.175.359l-.316.441a1.633,1.633,0,0,0-.9-.286c-.31,0-.513.131-.513.352,0,.191.107.274.423.328l.525.095c.6.114.883.388.883.835a1.1,1.1,0,0,1-1.217.973,2.016,2.016,0,0,1-1.289-.4Z"/>
      <path class="cls-1" d="M352.819,371.169h-.6v-.537h.6v-.823l.674-.144v.967h.835v.537h-.835v1.516c0,.292.113.4.418.4a1.225,1.225,0,0,0,.4-.071v.566a2.11,2.11,0,0,1-.578.084c-.6,0-.919-.286-.919-.835Z"/>
      <path class="cls-1" d="M354.769,372.762c0-.537.436-.877,1.14-.877a1.84,1.84,0,0,1,.805.186v-.328c0-.395-.227-.6-.686-.6a2.065,2.065,0,0,0-.871.232l-.239-.489a2.87,2.87,0,0,1,1.241-.305c.776,0,1.223.395,1.223,1.086v1.951h-.668v-.3a1.247,1.247,0,0,1-.889.352A.943.943,0,0,1,354.769,372.762Zm1.241.436a1.068,1.068,0,0,0,.7-.245v-.489a1.554,1.554,0,0,0-.692-.143c-.382,0-.621.167-.621.429S355.64,373.2,356.01,373.2Z"/>
      <path class="cls-1" d="M358.569,371.169h-.6v-.537h.6v-.823l.674-.144v.967h.835v.537h-.835v1.516c0,.292.113.4.418.4a1.225,1.225,0,0,0,.4-.071v.566a2.11,2.11,0,0,1-.578.084c-.6,0-.919-.286-.919-.835Z"/>
      <path class="cls-1" d="M360.585,369.612a.421.421,0,0,1,.841,0,.421.421,0,0,1-.841,0Zm.758,4.009h-.675v-2.989h.675Z"/>
      <path class="cls-1" d="M362.219,372.822a1.717,1.717,0,0,0,.96.34c.358,0,.6-.161.6-.4,0-.185-.125-.286-.411-.34l-.531-.09c-.579-.107-.865-.376-.865-.823,0-.56.459-.925,1.157-.925a2.1,2.1,0,0,1,1.176.359l-.317.441a1.63,1.63,0,0,0-.9-.286c-.311,0-.514.131-.514.352,0,.191.108.274.424.328l.524.095c.6.114.884.388.884.835a1.1,1.1,0,0,1-1.218.973,2.015,2.015,0,0,1-1.288-.4Z"/>
      <path class="cls-1" d="M365.4,371.169h-.6v-.537h.6v-.823l.675-.144v.967h.835v.537h-.835v1.516c0,.292.114.4.417.4a1.222,1.222,0,0,0,.406-.071v.566a2.1,2.1,0,0,1-.579.084c-.6,0-.919-.286-.919-.835Z"/>
      <path class="cls-1" d="M367.414,369.612a.421.421,0,0,1,.842,0,.421.421,0,0,1-.842,0Zm.758,4.009H367.5v-2.989h.674Z"/>
      <path class="cls-1" d="M371.137,372.756l.4.406a1.554,1.554,0,0,1-1.169.519,1.546,1.546,0,0,1,0-3.091,1.612,1.612,0,0,1,1.193.5l-.418.436a.983.983,0,0,0-.752-.353.959.959,0,0,0,.019,1.909A.918.918,0,0,0,371.137,372.756Z"/>
      <path class="cls-1" d="M372.168,372.822a1.719,1.719,0,0,0,.96.34c.358,0,.6-.161.6-.4,0-.185-.125-.286-.411-.34l-.531-.09c-.579-.107-.865-.376-.865-.823,0-.56.459-.925,1.157-.925a2.1,2.1,0,0,1,1.176.359l-.317.441a1.63,1.63,0,0,0-.9-.286c-.311,0-.514.131-.514.352,0,.191.108.274.424.328l.525.095c.6.114.883.388.883.835a1.1,1.1,0,0,1-1.217.973,2.011,2.011,0,0,1-1.288-.4Z"/>
    </g>
    <polyline class="cls-2" points="459.724 345.324 459.724 364.304 152.834 364.304 152.834 345.28"/>
    <polyline class="cls-2" points="459.724 345.324 459.724 364.304 229.556 364.304 229.556 351.667"/>
    <polyline class="cls-2" points="459.724 345.324 459.724 364.304 306.279 364.304 306.279 351.667"/>
    <polyline class="cls-2" points="459.724 345.324 459.724 364.304 383.001 364.304 383.001 351.667"/>
    <polyline class="cls-2" points="538.273 298.171 538.273 364.304 152.834 364.304 152.834 345.28"/>
  </g>
  <g id="Stores_objects_for_VMs" data-name="Stores objects for VMs">
    <g>
      <path class="cls-1" d="M353.325,343.577a2.087,2.087,0,0,0,1.4.609c.555,0,.937-.28.937-.662,0-.34-.2-.5-.758-.6l-.77-.131c-.721-.132-1.074-.489-1.074-1.062,0-.751.6-1.253,1.54-1.253a2.788,2.788,0,0,1,1.676.543l-.364.537a2.167,2.167,0,0,0-1.336-.484c-.5,0-.829.251-.829.591,0,.3.185.453.644.526l.74.131c.841.143,1.235.513,1.235,1.145,0,.764-.681,1.307-1.677,1.307a2.633,2.633,0,0,1-1.754-.674Z"/>
      <path class="cls-1" d="M357.381,342.265h-.6v-.537h.6v-.823l.674-.144v.967h.835v.537h-.835v1.516c0,.292.113.4.418.4a1.252,1.252,0,0,0,.4-.071v.566a2.11,2.11,0,0,1-.578.084c-.6,0-.919-.286-.919-.835Z"/>
      <path class="cls-1" d="M360.847,341.68a1.549,1.549,0,1,1-1.5,1.546A1.493,1.493,0,0,1,360.847,341.68Zm.835,1.552a.845.845,0,1,0-1.671,0,.844.844,0,1,0,1.671,0Z"/>
      <path class="cls-1" d="M363.047,341.728h.674v.65a.886.886,0,0,1,.823-.7.814.814,0,0,1,.292.06v.591a.945.945,0,0,0-.369-.072.821.821,0,0,0-.746.5v1.969h-.674Z"/>
      <path class="cls-1" d="M366.775,344.777a1.519,1.519,0,0,1-1.521-1.551,1.473,1.473,0,0,1,1.456-1.546,1.435,1.435,0,0,1,1.414,1.54v.167h-2.208a.913.913,0,0,0,.895.817.966.966,0,0,0,.71-.281l.442.412A1.726,1.726,0,0,1,366.775,344.777Zm-.847-1.8h1.557a.818.818,0,0,0-.781-.746A.8.8,0,0,0,365.928,342.975Z"/>
      <path class="cls-1" d="M368.856,343.917a1.724,1.724,0,0,0,.96.341c.359,0,.6-.161.6-.4,0-.185-.125-.286-.411-.34l-.531-.09c-.58-.107-.866-.376-.866-.823,0-.561.459-.925,1.158-.925a2.1,2.1,0,0,1,1.175.358l-.316.442a1.635,1.635,0,0,0-.9-.286c-.31,0-.513.131-.513.351,0,.192.107.275.424.328l.524.1c.6.113.884.388.884.835a1.1,1.1,0,0,1-1.218.973,2.008,2.008,0,0,1-1.288-.406Z"/>
      <path class="cls-1" d="M374.374,341.68a1.549,1.549,0,1,1-1.5,1.546A1.493,1.493,0,0,1,374.374,341.68Zm.835,1.552a.845.845,0,1,0-1.671,0,.844.844,0,1,0,1.671,0Z"/>
      <path class="cls-1" d="M378.12,344.747a1.112,1.112,0,0,1-.883-.418v.388h-.662v-4.266l.674-.113v1.79a1.166,1.166,0,0,1,.919-.424,1.434,1.434,0,0,1,1.354,1.522A1.45,1.45,0,0,1,378.12,344.747Zm-.871-2.142v1.247a.916.916,0,0,0,.716.328.957.957,0,0,0,0-1.909A.877.877,0,0,0,377.249,342.605Z"/>
      <path class="cls-1" d="M379.645,345.97v-.543a.955.955,0,0,0,.24.024c.232,0,.334-.1.334-.322v-3.4h.674v3.431a.788.788,0,0,1-.883.853A1.622,1.622,0,0,1,379.645,345.97Zm.49-5.263a.421.421,0,0,1,.842,0,.421.421,0,0,1-.842,0Z"/>
      <path class="cls-1" d="M383.106,344.777a1.519,1.519,0,0,1-1.521-1.551,1.473,1.473,0,0,1,1.456-1.546,1.435,1.435,0,0,1,1.414,1.54v.167h-2.208a.913.913,0,0,0,.9.817.968.968,0,0,0,.71-.281l.441.412A1.726,1.726,0,0,1,383.106,344.777Zm-.846-1.8h1.556a.818.818,0,0,0-.781-.746A.8.8,0,0,0,382.26,342.975Z"/>
      <path class="cls-1" d="M387.275,343.852l.406.406a1.56,1.56,0,0,1-1.169.519,1.546,1.546,0,0,1,0-3.091,1.613,1.613,0,0,1,1.193.5l-.418.435a.987.987,0,0,0-.752-.352.959.959,0,0,0,.019,1.909A.915.915,0,0,0,387.275,343.852Z"/>
      <path class="cls-1" d="M388.629,342.265h-.6v-.537h.6v-.823l.675-.144v.967h.835v.537H389.3v1.516c0,.292.113.4.417.4a1.257,1.257,0,0,0,.406-.071v.566a2.106,2.106,0,0,1-.579.084c-.6,0-.919-.286-.919-.835Z"/>
      <path class="cls-1" d="M390.776,343.917a1.724,1.724,0,0,0,.96.341c.359,0,.6-.161.6-.4,0-.185-.125-.286-.411-.34l-.532-.09c-.579-.107-.865-.376-.865-.823,0-.561.459-.925,1.157-.925a2.1,2.1,0,0,1,1.176.358l-.316.442a1.636,1.636,0,0,0-.9-.286c-.309,0-.512.131-.512.351,0,.192.107.275.424.328l.524.1c.6.113.884.388.884.835a1.1,1.1,0,0,1-1.218.973,2.006,2.006,0,0,1-1.288-.406Z"/>
      <path class="cls-1" d="M395.333,341.728V341.2a.917.917,0,0,1,1.032-1,1.653,1.653,0,0,1,.447.059v.573a1.359,1.359,0,0,0-.357-.047c-.31,0-.448.136-.448.429v.519h.805v.537h-.805v2.452h-.674v-2.452h-.645v-.537Z"/>
      <path class="cls-1" d="M398.745,341.68a1.549,1.549,0,1,1-1.5,1.546A1.493,1.493,0,0,1,398.745,341.68Zm.835,1.552a.845.845,0,1,0-1.671,0,.844.844,0,1,0,1.671,0Z"/>
      <path class="cls-1" d="M400.945,341.728h.674v.65a.886.886,0,0,1,.823-.7.805.805,0,0,1,.292.06v.591a.941.941,0,0,0-.369-.072.822.822,0,0,0-.746.5v1.969h-.674Z"/>
      <path class="cls-1" d="M404.25,340.54h.77L406.3,344l1.295-3.455h.74l-1.635,4.177h-.83Z"/>
      <path class="cls-1" d="M409.534,341.442v3.275h-.662V340.54h.931l1.223,2.531,1.217-2.531h.931v4.177H412.5v-3.258l-1.48,2.96Z"/>
      <path class="cls-1" d="M414.145,343.917a1.724,1.724,0,0,0,.96.341c.359,0,.6-.161.6-.4,0-.185-.125-.286-.411-.34l-.531-.09c-.58-.107-.866-.376-.866-.823,0-.561.459-.925,1.158-.925a2.1,2.1,0,0,1,1.175.358l-.316.442a1.635,1.635,0,0,0-.9-.286c-.31,0-.513.131-.513.351,0,.192.107.275.424.328l.524.1c.6.113.884.388.884.835a1.1,1.1,0,0,1-1.218.973,2.008,2.008,0,0,1-1.288-.406Z"/>
    </g>
    <polyline class="cls-2" points="459.762 317.422 459.762 336.402 312.14 336.402 312.14 317.378"/>
  </g>
  <g id="Dashboard_service" data-name="Dashboard service">
    <rect class="cls-3" x="117.694" y="21.873" width="454.702" height="46.863"/>
    <g>
      <path class="cls-1" d="M195.27,42.218h1.867a2.553,2.553,0,1,1,0,5.106H195.27Zm.875.758v3.589h1.014a1.8,1.8,0,0,0,0-3.589Z"/>
      <path class="cls-1" d="M200.4,46.273c0-.656.532-1.072,1.393-1.072a2.26,2.26,0,0,1,.984.226v-.4c0-.481-.277-.729-.838-.729a2.524,2.524,0,0,0-1.065.284l-.292-.6a3.511,3.511,0,0,1,1.517-.372c.948,0,1.5.482,1.5,1.327v2.386h-.817v-.373a1.52,1.52,0,0,1-1.086.431A1.152,1.152,0,0,1,200.4,46.273Zm1.517.532a1.3,1.3,0,0,0,.86-.3v-.6a1.889,1.889,0,0,0-.846-.175c-.467,0-.758.2-.758.525S201.459,46.805,201.912,46.805Z"/>
      <path class="cls-1" d="M204.645,46.346a2.106,2.106,0,0,0,1.174.416c.437,0,.737-.2.737-.489,0-.226-.154-.35-.5-.415l-.649-.11c-.707-.131-1.057-.46-1.057-1.006,0-.686.561-1.131,1.415-1.131a2.571,2.571,0,0,1,1.436.438l-.386.539a2,2,0,0,0-1.1-.35c-.379,0-.627.161-.627.431,0,.233.131.335.518.4l.642.116c.729.139,1.079.474,1.079,1.022a1.338,1.338,0,0,1-1.488,1.188,2.451,2.451,0,0,1-1.575-.495Z"/>
      <path class="cls-1" d="M208.079,42.109l.824-.139v2.3a1.326,1.326,0,0,1,1.159-.656,1.23,1.23,0,0,1,1.262,1.306v2.407H210.5V45.15a.787.787,0,0,0-.8-.875.938.938,0,0,0-.8.437v2.612h-.824Z"/>
      <path class="cls-1" d="M214.21,47.36a1.356,1.356,0,0,1-1.079-.511v.475h-.81V42.109l.824-.139v2.188a1.423,1.423,0,0,1,1.124-.518,1.753,1.753,0,0,1,1.655,1.86A1.771,1.771,0,0,1,214.21,47.36Zm-1.065-2.618v1.524a1.121,1.121,0,0,0,.875.4,1.17,1.17,0,0,0,0-2.334A1.073,1.073,0,0,0,213.145,44.742Z"/>
      <path class="cls-1" d="M218.445,43.611a1.893,1.893,0,1,1-1.838,1.889A1.825,1.825,0,0,1,218.445,43.611Zm1.022,1.9a1.033,1.033,0,1,0-2.043,0,1.031,1.031,0,1,0,2.043,0Z"/>
      <path class="cls-1" d="M220.952,46.273c0-.656.533-1.072,1.393-1.072a2.261,2.261,0,0,1,.985.226v-.4c0-.481-.277-.729-.839-.729a2.531,2.531,0,0,0-1.065.284l-.291-.6a3.511,3.511,0,0,1,1.517-.372c.948,0,1.5.482,1.5,1.327v2.386h-.817v-.373a1.522,1.522,0,0,1-1.087.431A1.153,1.153,0,0,1,220.952,46.273Zm1.517.532a1.3,1.3,0,0,0,.861-.3v-.6a1.892,1.892,0,0,0-.846-.175c-.467,0-.758.2-.758.525S222.017,46.805,222.469,46.805Z"/>
      <path class="cls-1" d="M225.144,43.669h.824v.8a1.084,1.084,0,0,1,1.007-.86.973.973,0,0,1,.357.073V44.4a1.167,1.167,0,0,0-.452-.088,1,1,0,0,0-.912.606v2.407h-.824Z"/>
      <path class="cls-1" d="M230.62,46.835a1.408,1.408,0,0,1-1.123.525,1.87,1.87,0,0,1,.05-3.72,1.392,1.392,0,0,1,1.065.481V42.109l.824-.139v5.354h-.816Zm-.875-.168a1.089,1.089,0,0,0,.867-.4V44.727a1.132,1.132,0,0,0-.867-.394,1.17,1.17,0,0,0,0,2.334Z"/>
      <path class="cls-1" d="M234.154,46.346a2.109,2.109,0,0,0,1.175.416c.437,0,.736-.2.736-.489,0-.226-.153-.35-.5-.415l-.649-.11c-.707-.131-1.058-.46-1.058-1.006,0-.686.562-1.131,1.415-1.131a2.572,2.572,0,0,1,1.437.438l-.386.539a2.006,2.006,0,0,0-1.1-.35c-.379,0-.627.161-.627.431,0,.233.131.335.518.4l.641.116c.73.139,1.08.474,1.08,1.022a1.338,1.338,0,0,1-1.488,1.188,2.448,2.448,0,0,1-1.575-.495Z"/>
      <path class="cls-1" d="M239.28,47.4a1.857,1.857,0,0,1-1.86-1.9,1.8,1.8,0,0,1,1.78-1.889,1.754,1.754,0,0,1,1.728,1.882v.2h-2.7a1.117,1.117,0,0,0,1.095,1,1.185,1.185,0,0,0,.867-.343l.54.5A2.111,2.111,0,0,1,239.28,47.4Zm-1.036-2.2h1.9a1,1,0,0,0-.956-.912A.982.982,0,0,0,238.244,45.194Z"/>
      <path class="cls-1" d="M241.765,43.669h.824v.8a1.084,1.084,0,0,1,1.007-.86.973.973,0,0,1,.357.073V44.4a1.167,1.167,0,0,0-.452-.088,1,1,0,0,0-.912.606v2.407h-.824Z"/>
      <path class="cls-1" d="M244.2,43.669h.9l1.013,2.67,1.014-2.67h.868l-1.5,3.655h-.8Z"/>
      <path class="cls-1" d="M248.478,42.422a.515.515,0,0,1,1.029,0,.515.515,0,0,1-1.029,0Zm.927,4.9h-.824V43.669h.824Z"/>
      <path class="cls-1" d="M253.029,46.266l.5.5a1.9,1.9,0,0,1-1.43.634,1.89,1.89,0,0,1,0-3.778,1.97,1.97,0,0,1,1.459.613l-.511.533a1.2,1.2,0,0,0-.919-.431,1.172,1.172,0,0,0,.022,2.334A1.121,1.121,0,0,0,253.029,46.266Z"/>
      <path class="cls-1" d="M255.923,47.4a1.857,1.857,0,0,1-1.86-1.9,1.8,1.8,0,0,1,1.78-1.889,1.754,1.754,0,0,1,1.728,1.882v.2h-2.7a1.116,1.116,0,0,0,1.094,1,1.184,1.184,0,0,0,.867-.343l.54.5A2.11,2.11,0,0,1,255.923,47.4Zm-1.036-2.2h1.9a1,1,0,0,0-.956-.912A.982.982,0,0,0,254.887,45.194Z"/>
    </g>
    <g>
      <path class="cls-1" d="M319.135,39.875a2.154,2.154,0,0,1-.012-4.308,2.188,2.188,0,0,1,1.688.74l-.5.459a1.5,1.5,0,0,0-1.187-.56,1.522,1.522,0,0,0,.018,3.037,1.259,1.259,0,0,0,1.271-1.1h-1.247V37.53h1.992v.233A2.02,2.02,0,0,1,319.135,39.875Z"/>
      <path class="cls-1" d="M321.878,36.82h.674v.651a.886.886,0,0,1,.823-.7.841.841,0,0,1,.293.06v.591a.946.946,0,0,0-.37-.071.819.819,0,0,0-.746.5v1.968h-.674Z"/>
      <path class="cls-1" d="M324.073,38.951c0-.538.435-.878,1.139-.878a1.854,1.854,0,0,1,.806.185V37.93c0-.394-.227-.6-.686-.6a2.076,2.076,0,0,0-.872.233l-.238-.489a2.864,2.864,0,0,1,1.241-.3c.775,0,1.223.393,1.223,1.085v1.951h-.668v-.3a1.247,1.247,0,0,1-.889.352A.942.942,0,0,1,324.073,38.951Zm1.24.435a1.069,1.069,0,0,0,.7-.245v-.489a1.554,1.554,0,0,0-.692-.143c-.382,0-.621.167-.621.429S324.944,39.386,325.313,39.386Z"/>
      <path class="cls-1" d="M327.5,36.82h.663v.43a1.127,1.127,0,0,1,.931-.453,1.434,1.434,0,0,1,1.354,1.521,1.449,1.449,0,0,1-1.4,1.521,1.116,1.116,0,0,1-.871-.388v1.623H327.5Zm.675.878v1.246a.915.915,0,0,0,.716.328.957.957,0,0,0,0-1.909A.874.874,0,0,0,328.177,37.7Z"/>
      <path class="cls-1" d="M331.146,35.544l.675-.114v1.879a1.083,1.083,0,0,1,.949-.536,1.006,1.006,0,0,1,1.032,1.068v1.968h-.675V38.032a.643.643,0,0,0-.656-.716.766.766,0,0,0-.65.358v2.135h-.675Z"/>
      <path class="cls-1" d="M334.534,35.8a.421.421,0,0,1,.841,0,.421.421,0,0,1-.841,0Zm.758,4.009h-.674V36.82h.674Z"/>
      <path class="cls-1" d="M338.257,38.944l.406.406a1.556,1.556,0,0,1-1.169.519,1.545,1.545,0,0,1,0-3.09,1.605,1.605,0,0,1,1.192.5l-.417.435a.99.99,0,0,0-.751-.352.959.959,0,0,0,.017,1.909A.917.917,0,0,0,338.257,38.944Z"/>
      <path class="cls-1" d="M339.091,38.951c0-.538.436-.878,1.14-.878a1.849,1.849,0,0,1,.805.185V37.93c0-.394-.226-.6-.686-.6a2.072,2.072,0,0,0-.871.233l-.239-.489a2.871,2.871,0,0,1,1.241-.3c.776,0,1.224.393,1.224,1.085v1.951h-.669v-.3a1.246,1.246,0,0,1-.889.352A.943.943,0,0,1,339.091,38.951Zm1.241.435a1.066,1.066,0,0,0,.7-.245v-.489a1.554,1.554,0,0,0-.692-.143c-.382,0-.62.167-.62.429S339.962,39.386,340.332,39.386Z"/>
      <path class="cls-1" d="M343.2,39.809h-.674V35.544l.674-.114Z"/>
      <path class="cls-1" d="M346.022,38.6a.644.644,0,0,0,.656.716.754.754,0,0,0,.657-.37V36.82h.674v2.989h-.674v-.495a1.094,1.094,0,0,1-.955.543,1,1,0,0,1-1.032-1.068V36.82h.674Z"/>
      <path class="cls-1" d="M348.885,39.01a1.719,1.719,0,0,0,.961.34c.358,0,.6-.161.6-.4,0-.186-.125-.287-.411-.341l-.531-.089c-.579-.108-.865-.376-.865-.823,0-.561.459-.925,1.157-.925a2.1,2.1,0,0,1,1.176.358l-.317.441a1.632,1.632,0,0,0-.9-.287c-.31,0-.513.132-.513.353,0,.19.108.274.424.328l.525.095c.6.114.883.388.883.836a1.1,1.1,0,0,1-1.217.972,2,2,0,0,1-1.289-.406Z"/>
      <path class="cls-1" d="M353.079,39.869a1.52,1.52,0,0,1-1.522-1.551,1.472,1.472,0,0,1,1.456-1.545,1.434,1.434,0,0,1,1.414,1.539v.167H352.22a.911.911,0,0,0,.894.817.97.97,0,0,0,.71-.28l.442.412A1.729,1.729,0,0,1,353.079,39.869Zm-.848-1.8h1.558a.818.818,0,0,0-.782-.745A.8.8,0,0,0,352.231,38.067Z"/>
      <path class="cls-1" d="M355.112,36.82h.674v.651a.886.886,0,0,1,.823-.7.841.841,0,0,1,.293.06v.591a.949.949,0,0,0-.37-.071.82.82,0,0,0-.746.5v1.968h-.674Z"/>
      <path class="cls-1" d="M358.714,35.8a.421.421,0,0,1,.842,0,.421.421,0,0,1-.842,0Zm.758,4.009H358.8V36.82h.674Z"/>
      <path class="cls-1" d="M360.3,36.82h.675v.489a1.082,1.082,0,0,1,.948-.536,1.006,1.006,0,0,1,1.032,1.068v1.968h-.675V38.032a.643.643,0,0,0-.656-.716.763.763,0,0,0-.649.358v2.135H360.3Z"/>
      <path class="cls-1" d="M364.142,37.357h-.6V36.82h.6V36l.674-.143v.966h.835v.537h-.835v1.516c0,.292.114.406.417.406a1.236,1.236,0,0,0,.407-.072v.567a2.149,2.149,0,0,1-.579.083c-.6,0-.919-.286-.919-.835Z"/>
      <path class="cls-1" d="M367.626,39.869a1.519,1.519,0,0,1-1.522-1.551,1.473,1.473,0,0,1,1.457-1.545,1.435,1.435,0,0,1,1.414,1.539v.167h-2.208a.911.911,0,0,0,.895.817.971.971,0,0,0,.71-.28l.441.412A1.728,1.728,0,0,1,367.626,39.869Zm-.847-1.8h1.557a.818.818,0,0,0-.781-.745A.8.8,0,0,0,366.779,38.067Z"/>
      <path class="cls-1" d="M369.659,36.82h.674v.651a.886.886,0,0,1,.823-.7.827.827,0,0,1,.292.06v.591a.937.937,0,0,0-.369-.071.819.819,0,0,0-.746.5v1.968h-.674Z"/>
      <path class="cls-1" d="M372.409,36.82v-.531a.917.917,0,0,1,1.032-1,1.619,1.619,0,0,1,.448.06v.572a1.415,1.415,0,0,0-.358-.047c-.31,0-.448.137-.448.429v.519h.806v.537h-.806v2.452h-.674V37.357h-.644V36.82Z"/>
      <path class="cls-1" d="M374.306,38.951c0-.538.435-.878,1.139-.878a1.854,1.854,0,0,1,.806.185V37.93c0-.394-.228-.6-.687-.6a2.069,2.069,0,0,0-.871.233l-.238-.489a2.863,2.863,0,0,1,1.24-.3c.777,0,1.224.393,1.224,1.085v1.951h-.668v-.3a1.248,1.248,0,0,1-.89.352A.942.942,0,0,1,374.306,38.951Zm1.241.435a1.068,1.068,0,0,0,.7-.245v-.489a1.554,1.554,0,0,0-.692-.143c-.382,0-.621.167-.621.429S375.177,39.386,375.547,39.386Z"/>
      <path class="cls-1" d="M379.871,38.944l.405.406a1.554,1.554,0,0,1-1.169.519,1.545,1.545,0,0,1,0-3.09,1.611,1.611,0,0,1,1.194.5l-.418.435a.99.99,0,0,0-.752-.352.959.959,0,0,0,.018,1.909A.917.917,0,0,0,379.871,38.944Z"/>
      <path class="cls-1" d="M382.239,39.869a1.519,1.519,0,0,1-1.521-1.551,1.472,1.472,0,0,1,1.456-1.545,1.435,1.435,0,0,1,1.414,1.539v.167H381.38a.911.911,0,0,0,.895.817.97.97,0,0,0,.71-.28l.442.412A1.732,1.732,0,0,1,382.239,39.869Zm-.846-1.8h1.556a.818.818,0,0,0-.781-.745A.8.8,0,0,0,381.393,38.067Z"/>
    </g>
    <g>
      <path class="cls-4" d="M180.492,35.173V52.179a.59.59,0,0,1-.595.586H155.332a.589.589,0,0,1-.586-.586V35.173a.591.591,0,0,1,.586-.595H179.9A.592.592,0,0,1,180.492,35.173Z"/>
      <g>
        <path class="cls-5" d="M179.9,34.578H155.332a.591.591,0,0,0-.586.595V52.179a.589.589,0,0,0,.586.586H179.9a.59.59,0,0,0,.595-.586V35.173A.592.592,0,0,0,179.9,34.578ZM160.415,51.584h-4.487V35.759h4.487Zm18.9,0H161.6V35.759h17.715Z"/>
        <path class="cls-5" d="M164.782,40.484h.354v8.857a.591.591,0,1,0,1.181,0V40.484h.354a.591.591,0,1,0,0-1.181h-.354V38a.591.591,0,0,0-1.181,0v1.3h-.354a.591.591,0,1,0,0,1.181Z"/>
        <path class="cls-5" d="M169.506,47.1h.354v2.244a.591.591,0,1,0,1.181,0V47.1h.354a.591.591,0,1,0,0-1.181h-.354V38a.591.591,0,0,0-1.181,0v7.913h-.354a.591.591,0,1,0,0,1.181Z"/>
        <path class="cls-5" d="M174.23,44.263h.354v5.078a.591.591,0,1,0,1.181,0V44.263h.355a.591.591,0,0,0,0-1.181h-.355V38a.591.591,0,0,0-1.181,0v5.079h-.354a.591.591,0,1,0,0,1.181Z"/>
        <circle class="cls-5" cx="158.168" cy="38.006" r="0.589"/>
        <circle class="cls-5" cx="158.168" cy="49.344" r="0.589"/>
        <circle class="cls-5" cx="158.168" cy="46.51" r="0.589"/>
        <circle class="cls-5" cx="158.168" cy="43.675" r="0.589"/>
        <circle class="cls-5" cx="158.168" cy="40.841" r="0.589"/>
      </g>
    </g>
  </g>
  <g id="Blue_Connectors" data-name="Blue Connectors">
    <g>
      <polyline class="cls-6" points="262.532 45.441 453.867 45.441 453.867 146.283 530.111 146.283 530.111 167.947"/>
      <polygon class="cls-7" points="526.371 166.852 530.111 173.329 533.851 166.852 526.371 166.852"/>
    </g>
    <g>
      <polyline class="cls-6" points="262.532 45.441 453.867 45.441 453.867 167.947"/>
      <polygon class="cls-7" points="450.127 166.852 453.867 173.329 457.606 166.852 450.127 166.852"/>
    </g>
    <g>
      <polyline class="cls-6" points="262.532 45.441 453.867 45.441 453.867 146.283 377.126 146.283 377.126 167.947"/>
      <polygon class="cls-7" points="373.386 166.852 377.126 173.329 380.865 166.852 373.386 166.852"/>
    </g>
    <g>
      <polyline class="cls-6" points="262.532 45.441 453.867 45.441 453.867 146.283 300.08 146.283 300.08 167.947"/>
      <polygon class="cls-7" points="296.34 166.852 300.08 173.329 303.82 166.852 296.34 166.852"/>
    </g>
    <g>
      <polyline class="cls-6" points="262.532 45.441 453.867 45.441 453.867 146.283 223.644 146.283 223.644 167.947"/>
      <polygon class="cls-7" points="219.904 166.852 223.644 173.329 227.384 166.852 219.904 166.852"/>
    </g>
    <g>
      <polyline class="cls-6" points="262.532 45.441 453.867 45.441 453.867 146.283 147.151 146.283 147.151 167.947"/>
      <polygon class="cls-7" points="143.412 166.852 147.151 173.329 150.891 166.852 143.412 166.852"/>
    </g>
    <g>
      <polyline class="cls-6" points="262.532 45.441 413.33 45.441 413.33 78.042"/>
      <polygon class="cls-7" points="409.59 76.948 413.33 83.424 417.07 76.948 409.59 76.948"/>
    </g>
  </g>
  <g id="Orchestration_service" data-name="Orchestration service">
    <rect class="cls-3" x="117.694" y="84.618" width="454.702" height="46.863"/>
    <g>
      <path class="cls-1" d="M198.627,110.15a2.634,2.634,0,1,1,2.582-2.633A2.585,2.585,0,0,1,198.627,110.15Zm.008-4.486a1.856,1.856,0,0,0,0,3.7,1.858,1.858,0,0,0,0-3.7Z"/>
      <path class="cls-1" d="M202.089,106.415h.824v.795a1.084,1.084,0,0,1,1.006-.86.974.974,0,0,1,.358.073v.722a1.171,1.171,0,0,0-.452-.088,1,1,0,0,0-.912.606v2.407h-.824Z"/>
      <path class="cls-1" d="M207.564,109.012l.5.5a1.9,1.9,0,0,1-1.43.634,1.889,1.889,0,0,1,0-3.777,1.969,1.969,0,0,1,1.459.612l-.511.533a1.206,1.206,0,0,0-.919-.431,1.172,1.172,0,0,0,.022,2.334A1.119,1.119,0,0,0,207.564,109.012Z"/>
      <path class="cls-1" d="M208.767,104.855l.824-.139v2.3a1.325,1.325,0,0,1,1.159-.657,1.23,1.23,0,0,1,1.262,1.306v2.407h-.824V107.9a.787.787,0,0,0-.8-.875.938.938,0,0,0-.795.437v2.612h-.824Z"/>
      <path class="cls-1" d="M214.7,110.142a1.857,1.857,0,0,1-1.86-1.9,1.8,1.8,0,0,1,1.78-1.889,1.754,1.754,0,0,1,1.729,1.882v.2h-2.7a1.116,1.116,0,0,0,1.094,1,1.186,1.186,0,0,0,.868-.343l.54.5A2.114,2.114,0,0,1,214.7,110.142Zm-1.035-2.2h1.9a1,1,0,0,0-.955-.912A.981.981,0,0,0,213.666,107.94Z"/>
      <path class="cls-1" d="M217.245,109.092a2.106,2.106,0,0,0,1.174.416c.437,0,.737-.2.737-.489,0-.226-.154-.35-.5-.415l-.649-.11c-.707-.131-1.057-.459-1.057-1.006,0-.686.561-1.131,1.415-1.131a2.569,2.569,0,0,1,1.436.438l-.386.539a2,2,0,0,0-1.1-.35c-.38,0-.628.161-.628.431,0,.233.131.335.518.4l.642.116c.729.139,1.079.475,1.079,1.022a1.337,1.337,0,0,1-1.487,1.188,2.452,2.452,0,0,1-1.576-.495Z"/>
      <path class="cls-1" d="M221.13,107.072h-.736v-.657h.736v-1.006l.825-.175v1.181h1.021v.657h-1.021v1.853c0,.357.138.5.51.5a1.506,1.506,0,0,0,.5-.088v.693a2.584,2.584,0,0,1-.708.1c-.736,0-1.123-.35-1.123-1.021Z"/>
      <path class="cls-1" d="M223.7,106.415h.824v.795a1.084,1.084,0,0,1,1.007-.86.968.968,0,0,1,.357.073v.722a1.167,1.167,0,0,0-.452-.088,1,1,0,0,0-.912.606v2.407H223.7Z"/>
      <path class="cls-1" d="M226.378,109.019c0-.656.533-1.072,1.393-1.072a2.261,2.261,0,0,1,.985.226v-.4c0-.481-.277-.729-.839-.729a2.52,2.52,0,0,0-1.064.284l-.292-.6a3.511,3.511,0,0,1,1.517-.372c.948,0,1.5.482,1.5,1.327v2.386h-.817V109.7a1.525,1.525,0,0,1-1.087.43A1.153,1.153,0,0,1,226.378,109.019Zm1.517.533a1.3,1.3,0,0,0,.861-.3v-.6a1.889,1.889,0,0,0-.846-.175c-.467,0-.758.2-.758.525S227.443,109.552,227.9,109.552Z"/>
      <path class="cls-1" d="M231.022,107.072h-.736v-.657h.736v-1.006l.825-.175v1.181h1.021v.657h-1.021v1.853c0,.357.138.5.51.5a1.506,1.506,0,0,0,.5-.088v.693a2.579,2.579,0,0,1-.708.1c-.736,0-1.123-.35-1.123-1.021Z"/>
      <path class="cls-1" d="M233.486,105.168a.515.515,0,0,1,1.029,0,.515.515,0,0,1-1.029,0Zm.927,4.9h-.825v-3.655h.825Z"/>
      <path class="cls-1" d="M237.1,106.357a1.893,1.893,0,1,1-1.838,1.889A1.825,1.825,0,0,1,237.1,106.357Zm1.021,1.9a1.033,1.033,0,1,0-2.042,0,1.031,1.031,0,1,0,2.042,0Z"/>
      <path class="cls-1" d="M239.785,106.415h.824v.6a1.325,1.325,0,0,1,1.16-.657,1.23,1.23,0,0,1,1.262,1.306v2.407h-.824V107.9a.787.787,0,0,0-.8-.875.938.938,0,0,0-.795.437v2.612h-.824Z"/>
      <path class="cls-1" d="M245.726,109.092a2.106,2.106,0,0,0,1.174.416c.438,0,.737-.2.737-.489,0-.226-.153-.35-.5-.415l-.649-.11c-.708-.131-1.058-.459-1.058-1.006,0-.686.562-1.131,1.415-1.131a2.572,2.572,0,0,1,1.437.438l-.386.539a2.006,2.006,0,0,0-1.1-.35c-.379,0-.627.161-.627.431,0,.233.131.335.518.4l.641.116c.73.139,1.08.475,1.08,1.022a1.338,1.338,0,0,1-1.488,1.188,2.452,2.452,0,0,1-1.576-.495Z"/>
      <path class="cls-1" d="M250.852,110.142a1.857,1.857,0,0,1-1.86-1.9,1.8,1.8,0,0,1,1.779-1.889,1.754,1.754,0,0,1,1.729,1.882v.2h-2.7a1.116,1.116,0,0,0,1.094,1,1.186,1.186,0,0,0,.868-.343l.54.5A2.113,2.113,0,0,1,250.852,110.142Zm-1.036-2.2h1.9a1,1,0,0,0-.956-.912A.982.982,0,0,0,249.816,107.94Z"/>
      <path class="cls-1" d="M253.337,106.415h.824v.795a1.084,1.084,0,0,1,1.006-.86.974.974,0,0,1,.358.073v.722a1.167,1.167,0,0,0-.452-.088,1,1,0,0,0-.912.606v2.407h-.824Z"/>
      <path class="cls-1" d="M255.771,106.415h.9l1.014,2.67,1.014-2.67h.868l-1.5,3.655h-.794Z"/>
      <path class="cls-1" d="M260.051,105.168a.514.514,0,0,1,1.028,0,.514.514,0,0,1-1.028,0Zm.926,4.9h-.824v-3.655h.824Z"/>
      <path class="cls-1" d="M264.6,109.012l.5.5a1.9,1.9,0,0,1-1.43.634,1.889,1.889,0,0,1,0-3.777,1.968,1.968,0,0,1,1.459.612l-.51.533a1.208,1.208,0,0,0-.919-.431,1.172,1.172,0,0,0,.022,2.334A1.121,1.121,0,0,0,264.6,109.012Z"/>
      <path class="cls-1" d="M267.5,110.142a1.857,1.857,0,0,1-1.86-1.9,1.8,1.8,0,0,1,1.78-1.889,1.754,1.754,0,0,1,1.728,1.882v.2h-2.7a1.116,1.116,0,0,0,1.095,1,1.185,1.185,0,0,0,.867-.343l.54.5A2.113,2.113,0,0,1,267.5,110.142Zm-1.036-2.2h1.9a1,1,0,0,0-.956-.912A.982.982,0,0,0,266.459,107.94Z"/>
    </g>
    <g>
      <path class="cls-1" d="M333.244,101.428l.471.453a2.144,2.144,0,1,1,.018-2.827l-.483.477a1.469,1.469,0,1,0-1.122,2.44A1.415,1.415,0,0,0,333.244,101.428Z"/>
      <path class="cls-1" d="M334.371,99.566h.674v.651a.885.885,0,0,1,.823-.7.8.8,0,0,1,.293.06v.59a.968.968,0,0,0-.37-.071.819.819,0,0,0-.746.5v1.968h-.674Z"/>
      <path class="cls-1" d="M338.1,102.615a1.52,1.52,0,0,1-1.522-1.551,1.472,1.472,0,0,1,1.456-1.545,1.434,1.434,0,0,1,1.414,1.539v.167H337.24a.911.911,0,0,0,.894.817.97.97,0,0,0,.71-.28l.442.412A1.729,1.729,0,0,1,338.1,102.615Zm-.848-1.8h1.558a.818.818,0,0,0-.782-.745A.8.8,0,0,0,337.251,100.813Z"/>
      <path class="cls-1" d="M339.983,101.7c0-.537.436-.878,1.14-.878a1.849,1.849,0,0,1,.805.185v-.328c0-.393-.226-.6-.686-.6a2.072,2.072,0,0,0-.871.233l-.239-.489a2.872,2.872,0,0,1,1.242-.3c.775,0,1.223.393,1.223,1.085v1.951h-.669v-.3a1.245,1.245,0,0,1-.888.352A.943.943,0,0,1,339.983,101.7Zm1.241.435a1.059,1.059,0,0,0,.7-.245V101.4a1.551,1.551,0,0,0-.692-.143c-.382,0-.62.167-.62.429S340.854,102.132,341.224,102.132Z"/>
      <path class="cls-1" d="M343.783,100.1h-.6v-.537h.6v-.823l.674-.143v.966h.835v.537h-.835v1.516c0,.292.113.406.417.406a1.23,1.23,0,0,0,.406-.072v.567a2.109,2.109,0,0,1-.578.083c-.6,0-.919-.286-.919-.835Z"/>
      <path class="cls-1" d="M347.266,102.615a1.519,1.519,0,0,1-1.521-1.551,1.472,1.472,0,0,1,1.456-1.545,1.434,1.434,0,0,1,1.413,1.539v.167h-2.207a.913.913,0,0,0,.9.817.971.971,0,0,0,.71-.28l.442.412A1.734,1.734,0,0,1,347.266,102.615Zm-.847-1.8h1.557a.818.818,0,0,0-.782-.745A.8.8,0,0,0,346.419,100.813Z"/>
      <path class="cls-1" d="M349.348,101.756a1.717,1.717,0,0,0,.96.34c.358,0,.6-.161.6-.4,0-.185-.125-.287-.412-.341l-.531-.089c-.578-.107-.865-.376-.865-.823,0-.561.459-.925,1.158-.925a2.1,2.1,0,0,1,1.175.358l-.316.441a1.633,1.633,0,0,0-.9-.286c-.31,0-.513.131-.513.352,0,.191.107.274.423.328l.525.095c.6.114.883.388.883.836a1.1,1.1,0,0,1-1.217.972,2.005,2.005,0,0,1-1.289-.406Z"/>
      <path class="cls-1" d="M353.546,101.756a1.722,1.722,0,0,0,.961.34c.358,0,.6-.161.6-.4,0-.185-.125-.287-.411-.341l-.531-.089c-.579-.107-.865-.376-.865-.823,0-.561.459-.925,1.157-.925a2.1,2.1,0,0,1,1.176.358l-.317.441a1.63,1.63,0,0,0-.9-.286c-.31,0-.513.131-.513.352,0,.191.108.274.424.328l.525.095c.6.114.883.388.883.836a1.1,1.1,0,0,1-1.217.972,2,2,0,0,1-1.289-.406Z"/>
      <path class="cls-1" d="M356.726,100.1h-.6v-.537h.6v-.823l.674-.143v.966h.835v.537H357.4v1.516c0,.292.113.406.417.406a1.23,1.23,0,0,0,.406-.072v.567a2.109,2.109,0,0,1-.578.083c-.6,0-.919-.286-.919-.835Z"/>
      <path class="cls-1" d="M358.676,101.7c0-.537.435-.878,1.139-.878a1.85,1.85,0,0,1,.806.185v-.328c0-.393-.227-.6-.686-.6a2.076,2.076,0,0,0-.872.233l-.238-.489a2.864,2.864,0,0,1,1.241-.3c.776,0,1.223.393,1.223,1.085v1.951h-.668v-.3a1.246,1.246,0,0,1-.889.352A.942.942,0,0,1,358.676,101.7Zm1.24.435a1.063,1.063,0,0,0,.7-.245V101.4a1.554,1.554,0,0,0-.692-.143c-.382,0-.621.167-.621.429S359.547,102.132,359.916,102.132Z"/>
      <path class="cls-1" d="M364.241,101.69l.405.406a1.554,1.554,0,0,1-1.168.519,1.545,1.545,0,0,1,0-3.09,1.61,1.61,0,0,1,1.193.5l-.418.435a.992.992,0,0,0-.752-.352.959.959,0,0,0,.019,1.909A.916.916,0,0,0,364.241,101.69Z"/>
      <path class="cls-1" d="M365.226,98.29l.673-.114v2.667l1.242-1.277h.769l-1.366,1.385,1.449,1.6h-.864l-1.23-1.378v1.378h-.673Z"/>
      <path class="cls-1" d="M368.5,101.756a1.719,1.719,0,0,0,.96.34c.358,0,.6-.161.6-.4,0-.185-.125-.287-.411-.341l-.531-.089c-.579-.107-.865-.376-.865-.823,0-.561.459-.925,1.157-.925a2.1,2.1,0,0,1,1.176.358l-.317.441a1.63,1.63,0,0,0-.9-.286c-.31,0-.514.131-.514.352,0,.191.108.274.424.328l.525.095c.6.114.883.388.883.836a1.1,1.1,0,0,1-1.217.972,2,2,0,0,1-1.288-.406Z"/>
    </g>
  </g>
  <g id="Black_connectors" data-name="Black connectors">
    <g>
      <polyline class="cls-2" points="274.186 108.05 388.798 108.05 388.798 156.427 158.576 156.427 158.576 167.947"/>
      <polygon class="cls-1" points="154.836 166.852 158.576 173.329 162.315 166.852 154.836 166.852"/>
    </g>
    <g>
      <polyline class="cls-2" points="331.77 108.05 388.798 108.05 388.798 156.427 235.565 156.427 235.565 167.947"/>
      <polygon class="cls-1" points="231.825 166.852 235.565 173.329 239.305 166.852 231.825 166.852"/>
    </g>
    <g>
      <polyline class="cls-2" points="360.284 108.05 388.798 108.05 388.798 156.427 312.182 156.427 312.182 167.947"/>
      <polygon class="cls-1" points="308.442 166.852 312.182 173.329 315.921 166.852 308.442 166.852"/>
    </g>
    <g>
      <polyline class="cls-2" points="273.938 108.05 388.798 108.05 388.798 167.947"/>
      <polygon class="cls-1" points="385.059 166.852 388.798 173.329 392.538 166.852 385.059 166.852"/>
    </g>
    <g>
      <polyline class="cls-2" points="388.798 108.05 388.798 156.427 465.788 156.427 465.788 167.947"/>
      <polygon class="cls-1" points="462.048 166.852 465.788 173.329 469.527 166.852 462.048 166.852"/>
    </g>
    <g>
      <polyline class="cls-2" points="388.798 108.05 388.798 156.427 542.032 156.427 542.032 167.947"/>
      <polygon class="cls-1" points="538.292 166.852 542.032 173.329 545.771 166.852 538.292 166.852"/>
    </g>
  </g>
  <g id="Telemetry_service" data-name="Telemetry
 service">
    <g>
      <rect class="cls-8" x="500.496" y="173.329" width="71.901" height="124.669"/>
      <g>
        <path class="cls-1" d="M519.023,248.725h4.288v.758h-1.7v4.347h-.875v-4.347h-1.714Z"/>
        <path class="cls-1" d="M525.7,253.9a1.857,1.857,0,0,1-1.86-1.9,1.8,1.8,0,0,1,1.779-1.889A1.754,1.754,0,0,1,527.35,252v.2h-2.7a1.116,1.116,0,0,0,1.094,1,1.186,1.186,0,0,0,.868-.343l.54.5A2.113,2.113,0,0,1,525.7,253.9Zm-1.036-2.2h1.9a1,1,0,0,0-.955-.912A.982.982,0,0,0,524.666,251.7Z"/>
        <path class="cls-1" d="M529.012,253.83h-.825v-5.214l.825-.139Z"/>
        <path class="cls-1" d="M531.717,253.9a1.858,1.858,0,0,1-1.861-1.9,1.8,1.8,0,0,1,1.78-1.889A1.754,1.754,0,0,1,533.365,252v.2h-2.7a1.116,1.116,0,0,0,1.094,1,1.186,1.186,0,0,0,.868-.343l.54.5A2.113,2.113,0,0,1,531.717,253.9Zm-1.036-2.2h1.9a1,1,0,0,0-.955-.912A.981.981,0,0,0,530.681,251.7Z"/>
        <path class="cls-1" d="M534.2,250.176h.824v.584a1.247,1.247,0,0,1,1.087-.642,1.15,1.15,0,0,1,1.073.708,1.345,1.345,0,0,1,1.21-.708,1.21,1.21,0,0,1,1.2,1.327v2.385h-.824v-2.21a.739.739,0,0,0-.737-.838.869.869,0,0,0-.736.43c.007.08.015.153.015.233v2.385h-.825v-2.21a.739.739,0,0,0-.737-.838.846.846,0,0,0-.722.416v2.632H534.2Z"/>
        <path class="cls-1" d="M542.279,253.9a1.857,1.857,0,0,1-1.86-1.9,1.8,1.8,0,0,1,1.779-1.889,1.755,1.755,0,0,1,1.73,1.882v.2h-2.7a1.117,1.117,0,0,0,1.094,1,1.186,1.186,0,0,0,.868-.343l.54.5A2.111,2.111,0,0,1,542.279,253.9Zm-1.036-2.2h1.9a1,1,0,0,0-.955-.912A.982.982,0,0,0,541.243,251.7Z"/>
        <path class="cls-1" d="M545.217,250.833h-.737v-.657h.737V249.17l.824-.176v1.182h1.02v.657h-1.02v1.852c0,.358.139.5.511.5a1.511,1.511,0,0,0,.5-.087v.692a2.585,2.585,0,0,1-.708.1c-.737,0-1.123-.351-1.123-1.021Z"/>
        <path class="cls-1" d="M547.782,250.176h.824v.8a1.084,1.084,0,0,1,1.006-.86.994.994,0,0,1,.358.072v.723a1.149,1.149,0,0,0-.452-.088,1,1,0,0,0-.912.606v2.406h-.824Z"/>
        <path class="cls-1" d="M551.581,253.852l-1.379-3.676h.919l.927,2.713,1.02-2.713h.9l-1.736,4.253a1.235,1.235,0,0,1-1.3.962,1.722,1.722,0,0,1-.416-.051v-.707a2.948,2.948,0,0,0,.321.029.582.582,0,0,0,.591-.423Z"/>
        <path class="cls-1" d="M524.859,261.6a2.106,2.106,0,0,0,1.174.416c.438,0,.737-.2.737-.489,0-.226-.153-.35-.5-.415l-.65-.11c-.707-.131-1.057-.46-1.057-1.007,0-.685.561-1.13,1.415-1.13a2.574,2.574,0,0,1,1.437.438l-.387.539a2,2,0,0,0-1.1-.35c-.379,0-.627.161-.627.431,0,.233.131.335.517.4l.642.116c.73.139,1.08.474,1.08,1.022a1.338,1.338,0,0,1-1.488,1.188,2.453,2.453,0,0,1-1.575-.5Z"/>
        <path class="cls-1" d="M529.985,262.651a1.857,1.857,0,0,1-1.86-1.9,1.8,1.8,0,0,1,1.779-1.889,1.754,1.754,0,0,1,1.729,1.882v.2h-2.7a1.115,1.115,0,0,0,1.093,1,1.186,1.186,0,0,0,.868-.343l.54.5A2.111,2.111,0,0,1,529.985,262.651Zm-1.036-2.2h1.9a1,1,0,0,0-.956-.912A.982.982,0,0,0,528.949,260.449Z"/>
        <path class="cls-1" d="M532.47,258.924h.824v.8a1.083,1.083,0,0,1,1.006-.86.993.993,0,0,1,.357.072v.723a1.167,1.167,0,0,0-.452-.088,1,1,0,0,0-.911.606v2.406h-.824Z"/>
        <path class="cls-1" d="M534.9,258.924h.9l1.013,2.67,1.014-2.67h.868l-1.5,3.654H536.4Z"/>
        <path class="cls-1" d="M539.184,257.677a.514.514,0,0,1,1.028,0,.514.514,0,0,1-1.028,0Zm.926,4.9h-.824v-3.654h.824Z"/>
        <path class="cls-1" d="M543.734,261.521l.5.5a1.9,1.9,0,0,1-1.429.634,1.89,1.89,0,0,1,0-3.778,1.968,1.968,0,0,1,1.458.613l-.51.532a1.21,1.21,0,0,0-.919-.43,1.172,1.172,0,0,0,.022,2.334A1.121,1.121,0,0,0,543.734,261.521Z"/>
        <path class="cls-1" d="M546.628,262.651a1.857,1.857,0,0,1-1.86-1.9,1.8,1.8,0,0,1,1.779-1.889,1.753,1.753,0,0,1,1.728,1.882v.2h-2.7a1.116,1.116,0,0,0,1.094,1,1.186,1.186,0,0,0,.868-.343l.54.5A2.113,2.113,0,0,1,546.628,262.651Zm-1.036-2.2h1.9a1,1,0,0,0-.955-.912A.981.981,0,0,0,545.592,260.449Z"/>
      </g>
    </g>
    <g>
      <path class="cls-4" d="M549.165,225.041c-.714,17.341-25.431,17.341-26.145,0a13.073,13.073,0,1,1,26.145,0Z"/>
      <g>
        <path class="cls-5" d="M536.092,211.959a13.092,13.092,0,0,0-13.072,13.082c.714,17.341,25.431,17.341,26.145,0A13.087,13.087,0,0,0,536.092,211.959Zm0,25.039a11.974,11.974,0,0,1-11.956-11.957c.652-15.868,23.261-15.859,23.913,0A11.969,11.969,0,0,1,536.092,237Z"/>
        <path class="cls-5" d="M535.7,216.5c.506.513,1.317-.274.786-.785S535.173,215.988,535.7,216.5Z"/>
        <path class="cls-5" d="M530.235,219.181c.531-.508-.282-1.306-.786-.786A.556.556,0,0,0,530.235,219.181Z"/>
        <path class="cls-5" d="M527.378,224.521a.561.561,0,0,0-.429,1.036A.561.561,0,0,0,527.378,224.521Z"/>
        <path class="cls-5" d="M545.541,224.824a.561.561,0,0,0-1.036.429A.561.561,0,0,0,545.541,224.824Z"/>
        <path class="cls-5" d="M539.879,229.836h-8.037a1.9,1.9,0,0,0,0,3.795h8.037A1.9,1.9,0,0,0,539.879,229.836Zm0,2.679h-8.037a.782.782,0,0,1,0-1.563h8.037A.782.782,0,0,1,539.879,232.515Z"/>
        <path class="cls-5" d="M541.95,218.4l-4.447,4.438a2.695,2.695,0,1,0,.795.795l4.438-4.447C543.254,218.674,542.45,217.871,541.95,218.4Zm-5.911,8.278a1.581,1.581,0,0,1,0-3.161A1.581,1.581,0,0,1,536.039,226.675Z"/>
      </g>
    </g>
  </g>
  <g id="Object_stogae_service" data-name="Object
 stogae
service">
    <g>
      <rect class="cls-8" x="423.773" y="173.329" width="71.901" height="124.669"/>
      <g>
        <path class="cls-1" d="M451.079,253.91a2.634,2.634,0,1,1,2.582-2.632A2.584,2.584,0,0,1,451.079,253.91Zm.008-4.485a1.858,1.858,0,1,0,1.678,1.853A1.747,1.747,0,0,0,451.087,249.425Z"/>
        <path class="cls-1" d="M456.43,253.867a1.359,1.359,0,0,1-1.079-.511v.474h-.81v-5.214l.824-.139v2.188a1.421,1.421,0,0,1,1.123-.518,1.869,1.869,0,0,1-.058,3.72Zm-1.065-2.619v1.525a1.121,1.121,0,0,0,.875.4,1.17,1.17,0,0,0,0-2.334A1.073,1.073,0,0,0,455.365,251.248Z"/>
        <path class="cls-1" d="M458.3,255.362V254.7a1.205,1.205,0,0,0,.292.028c.284,0,.408-.116.408-.393v-4.158h.824v4.194a.963.963,0,0,1-1.08,1.043A1.917,1.917,0,0,1,458.3,255.362Zm.6-6.433a.514.514,0,0,1,1.028,0,.514.514,0,0,1-1.028,0Z"/>
        <path class="cls-1" d="M462.524,253.9a1.857,1.857,0,0,1-1.86-1.9,1.8,1.8,0,0,1,1.779-1.889A1.754,1.754,0,0,1,464.172,252v.2h-2.7a1.115,1.115,0,0,0,1.093,1,1.19,1.19,0,0,0,.869-.343l.54.5A2.115,2.115,0,0,1,462.524,253.9Zm-1.036-2.2h1.9a1,1,0,0,0-.956-.912A.982.982,0,0,0,461.488,251.7Z"/>
        <path class="cls-1" d="M467.621,252.773l.5.5a1.905,1.905,0,0,1-1.43.634,1.89,1.89,0,0,1,0-3.778,1.966,1.966,0,0,1,1.458.613l-.509.532a1.212,1.212,0,0,0-.919-.43,1.172,1.172,0,0,0,.021,2.334A1.126,1.126,0,0,0,467.621,252.773Z"/>
        <path class="cls-1" d="M469.274,250.833h-.736v-.657h.736V249.17l.825-.176v1.182h1.02v.657H470.1v1.852c0,.358.138.5.51.5a1.506,1.506,0,0,0,.5-.087v.692a2.58,2.58,0,0,1-.708.1c-.736,0-1.123-.351-1.123-1.021Z"/>
        <path class="cls-1" d="M447.113,261.6a2.106,2.106,0,0,0,1.174.416c.438,0,.736-.2.736-.489,0-.226-.152-.35-.5-.415l-.649-.11c-.707-.131-1.058-.46-1.058-1.007,0-.685.562-1.13,1.415-1.13a2.575,2.575,0,0,1,1.438.438l-.387.539a2,2,0,0,0-1.1-.35c-.379,0-.627.161-.627.431,0,.233.131.335.517.4l.642.116c.729.139,1.08.474,1.08,1.022a1.339,1.339,0,0,1-1.488,1.188,2.453,2.453,0,0,1-1.575-.5Z"/>
        <path class="cls-1" d="M451,259.581h-.736v-.657H451v-1.006l.824-.175v1.181h1.021v.657h-1.021v1.852c0,.358.139.5.511.5a1.515,1.515,0,0,0,.5-.088v.693a2.623,2.623,0,0,1-.708.1c-.736,0-1.123-.351-1.123-1.021Z"/>
        <path class="cls-1" d="M455.234,258.866a1.893,1.893,0,1,1-1.838,1.889A1.824,1.824,0,0,1,455.234,258.866Zm1.022,1.9a1.033,1.033,0,1,0-2.042,0,1.031,1.031,0,1,0,2.042,0Z"/>
        <path class="cls-1" d="M457.924,258.924h.824v.8a1.083,1.083,0,0,1,1.006-.86.988.988,0,0,1,.357.072v.723a1.167,1.167,0,0,0-.452-.088,1,1,0,0,0-.911.606v2.406h-.824Z"/>
        <path class="cls-1" d="M460.606,261.528c0-.656.533-1.072,1.394-1.072a2.257,2.257,0,0,1,.984.226v-.4c0-.481-.277-.729-.839-.729a2.523,2.523,0,0,0-1.064.284l-.292-.6a3.511,3.511,0,0,1,1.517-.372c.948,0,1.5.481,1.5,1.327v2.385h-.817v-.372a1.522,1.522,0,0,1-1.087.431A1.153,1.153,0,0,1,460.606,261.528Zm1.518.532a1.3,1.3,0,0,0,.86-.3v-.6a1.887,1.887,0,0,0-.845-.174c-.467,0-.759.2-.759.525S461.672,262.06,462.124,262.06Z"/>
        <path class="cls-1" d="M464.63,260.748a1.764,1.764,0,0,1,1.707-1.853,1.375,1.375,0,0,1,1.072.5v-.467h.817V262.7c0,.941-.613,1.459-1.722,1.459a3.178,3.178,0,0,1-1.466-.35l.292-.612a2.492,2.492,0,0,0,1.138.313c.613,0,.933-.277.933-.81v-.62a1.414,1.414,0,0,1-1.116.518A1.751,1.751,0,0,1,464.63,260.748Zm1.9,1.167a1.093,1.093,0,0,0,.868-.4v-1.532a1.133,1.133,0,0,0-.868-.394,1.089,1.089,0,0,0-1.086,1.16A1.105,1.105,0,0,0,466.533,261.915Z"/>
        <path class="cls-1" d="M470.931,262.651a1.858,1.858,0,0,1-1.861-1.9,1.8,1.8,0,0,1,1.78-1.889,1.753,1.753,0,0,1,1.728,1.882v.2h-2.7a1.116,1.116,0,0,0,1.094,1,1.188,1.188,0,0,0,.868-.343l.54.5A2.115,2.115,0,0,1,470.931,262.651Zm-1.036-2.2h1.9a1,1,0,0,0-.955-.912A.98.98,0,0,0,469.9,260.449Z"/>
        <path class="cls-1" d="M448.137,270.349a2.1,2.1,0,0,0,1.174.416c.437,0,.736-.2.736-.489,0-.226-.152-.35-.5-.415l-.649-.11c-.708-.131-1.058-.46-1.058-1.007,0-.685.561-1.13,1.415-1.13a2.57,2.57,0,0,1,1.437.438l-.386.539a2.006,2.006,0,0,0-1.1-.35c-.379,0-.627.161-.627.431,0,.233.131.335.518.4l.641.116c.73.139,1.08.474,1.08,1.022a1.338,1.338,0,0,1-1.488,1.188,2.455,2.455,0,0,1-1.575-.5Z"/>
        <path class="cls-1" d="M453.263,271.4a1.858,1.858,0,0,1-1.861-1.9,1.8,1.8,0,0,1,1.78-1.889,1.753,1.753,0,0,1,1.728,1.882v.2h-2.7a1.116,1.116,0,0,0,1.094,1,1.188,1.188,0,0,0,.868-.343l.54.5A2.113,2.113,0,0,1,453.263,271.4Zm-1.036-2.2h1.9a1,1,0,0,0-.955-.912A.98.98,0,0,0,452.227,269.2Z"/>
        <path class="cls-1" d="M455.747,267.672h.824v.795a1.084,1.084,0,0,1,1.006-.86.974.974,0,0,1,.358.073v.722a1.169,1.169,0,0,0-.453-.088,1,1,0,0,0-.911.606v2.406h-.824Z"/>
        <path class="cls-1" d="M458.182,267.672h.9l1.014,2.67,1.013-2.67h.869l-1.5,3.654h-.795Z"/>
        <path class="cls-1" d="M462.461,266.425a.514.514,0,0,1,1.028,0,.514.514,0,0,1-1.028,0Zm.927,4.9h-.825v-3.654h.825Z"/>
        <path class="cls-1" d="M467.012,270.269l.5.5a1.9,1.9,0,0,1-1.43.634,1.89,1.89,0,0,1,0-3.778,1.968,1.968,0,0,1,1.458.613l-.51.532a1.21,1.21,0,0,0-.919-.43,1.172,1.172,0,0,0,.022,2.334A1.124,1.124,0,0,0,467.012,270.269Z"/>
        <path class="cls-1" d="M469.905,271.4a1.857,1.857,0,0,1-1.86-1.9,1.8,1.8,0,0,1,1.779-1.889,1.754,1.754,0,0,1,1.729,1.882v.2h-2.7a1.117,1.117,0,0,0,1.094,1,1.186,1.186,0,0,0,.868-.343l.54.5A2.111,2.111,0,0,1,469.905,271.4Zm-1.036-2.2h1.9a1,1,0,0,0-.955-.912A.982.982,0,0,0,468.869,269.2Z"/>
      </g>
    </g>
    <g>
      <g>
        <path class="cls-9" d="M448.581,227.015v5.86c0,3.237,4.75,5.86,10.608,5.86s10.607-2.623,10.607-5.86v-5.86"/>
        <ellipse class="cls-9" cx="459.189" cy="227.015" rx="10.607" ry="5.86"/>
      </g>
      <g>
        <path class="cls-4" d="M466.924,208.359v18.928a.456.456,0,0,1-.452.459h-14.56a.457.457,0,0,1-.458-.459V211.271c.007-.037.014-.073.022-.117a.542.542,0,0,1,.109-.2l2.912-2.912a.58.58,0,0,1,.327-.131h11.648A.453.453,0,0,1,466.924,208.359Z"/>
        <g>
          <path class="cls-5" d="M466.472,207.908H454.824a.58.58,0,0,0-.327.131l-2.912,2.912a.542.542,0,0,0-.109.2c-.008.044-.015.08-.022.117v16.016a.457.457,0,0,0,.458.459h14.56a.456.456,0,0,0,.452-.459V208.359A.453.453,0,0,0,466.472,207.908Zm-12.106,1.55v1.362h-1.354Zm11.648,17.378h-13.65V211.73h2.46a.456.456,0,0,0,.452-.459v-2.453h10.738Z"/>
          <path class="cls-5" d="M454.822,214.458a.455.455,0,0,0,0,.91h4.368a.455.455,0,0,0,0-.91Z"/>
          <path class="cls-5" d="M454.367,217.825a.455.455,0,0,0,.455.455h8.736a.455.455,0,0,0,0-.91h-8.736A.455.455,0,0,0,454.367,217.825Z"/>
          <path class="cls-5" d="M463.558,220.283h-8.736a.455.455,0,0,0,0,.909h8.736A.455.455,0,0,0,463.558,220.283Z"/>
          <path class="cls-5" d="M463.558,223.2h-8.736a.455.455,0,0,0,0,.91h8.736A.455.455,0,0,0,463.558,223.2Z"/>
        </g>
      </g>
    </g>
  </g>
  <g id="Image_storage_service" data-name="Image
 storage
service">
    <g>
      <rect class="cls-8" x="347.051" y="173.329" width="71.901" height="124.669"/>
      <g>
        <path class="cls-1" d="M373.056,248.725h.875v5.105h-.875Z"/>
        <path class="cls-1" d="M375.017,250.176h.824v.584a1.246,1.246,0,0,1,1.087-.642,1.148,1.148,0,0,1,1.072.708,1.345,1.345,0,0,1,1.21-.708,1.21,1.21,0,0,1,1.2,1.327v2.385h-.824v-2.21a.739.739,0,0,0-.736-.838.872.872,0,0,0-.737.43c.007.08.014.153.014.233v2.385H377.3v-2.21a.74.74,0,0,0-.738-.838.844.844,0,0,0-.721.416v2.632h-.824Z"/>
        <path class="cls-1" d="M381.22,252.78c0-.656.532-1.072,1.393-1.072a2.261,2.261,0,0,1,.985.226v-.4c0-.481-.278-.729-.839-.729a2.524,2.524,0,0,0-1.065.284l-.292-.6a3.514,3.514,0,0,1,1.517-.372c.948,0,1.5.481,1.5,1.327v2.385H383.6v-.372a1.522,1.522,0,0,1-1.087.431A1.153,1.153,0,0,1,381.22,252.78Zm1.517.532a1.3,1.3,0,0,0,.861-.3v-.6a1.894,1.894,0,0,0-.846-.174c-.467,0-.759.2-.759.524C381.993,253.1,382.285,253.312,382.737,253.312Z"/>
        <path class="cls-1" d="M385.244,252a1.764,1.764,0,0,1,1.707-1.853,1.375,1.375,0,0,1,1.072.5v-.467h.817v3.778c0,.941-.612,1.459-1.721,1.459a3.182,3.182,0,0,1-1.467-.35l.292-.612a2.5,2.5,0,0,0,1.138.313c.613,0,.934-.277.934-.81v-.62a1.416,1.416,0,0,1-1.117.518A1.751,1.751,0,0,1,385.244,252Zm1.9,1.167a1.094,1.094,0,0,0,.869-.4v-1.531a1.135,1.135,0,0,0-.869-.394,1.089,1.089,0,0,0-1.086,1.16A1.105,1.105,0,0,0,387.147,253.167Z"/>
        <path class="cls-1" d="M391.544,253.9a1.857,1.857,0,0,1-1.86-1.9,1.8,1.8,0,0,1,1.779-1.889A1.753,1.753,0,0,1,393.191,252v.2h-2.7a1.116,1.116,0,0,0,1.094,1,1.186,1.186,0,0,0,.868-.343l.54.5A2.113,2.113,0,0,1,391.544,253.9Zm-1.036-2.2h1.9a1,1,0,0,0-.955-.912A.982.982,0,0,0,390.508,251.7Z"/>
        <path class="cls-1" d="M370.392,261.6a2.1,2.1,0,0,0,1.173.416c.438,0,.737-.2.737-.489,0-.226-.153-.35-.5-.415l-.65-.11c-.707-.131-1.057-.46-1.057-1.007,0-.685.561-1.13,1.415-1.13a2.57,2.57,0,0,1,1.437.438l-.386.539a2.006,2.006,0,0,0-1.1-.35c-.379,0-.627.161-.627.431,0,.233.131.335.518.4l.641.116c.73.139,1.08.474,1.08,1.022a1.338,1.338,0,0,1-1.488,1.188,2.455,2.455,0,0,1-1.575-.5Z"/>
        <path class="cls-1" d="M374.277,259.581h-.736v-.657h.736v-1.006l.825-.175v1.181h1.02v.657H375.1v1.852c0,.358.138.5.51.5a1.511,1.511,0,0,0,.5-.088v.693a2.623,2.623,0,0,1-.708.1c-.736,0-1.123-.351-1.123-1.021Z"/>
        <path class="cls-1" d="M378.513,258.866a1.893,1.893,0,1,1-1.838,1.889A1.825,1.825,0,0,1,378.513,258.866Zm1.021,1.9a1.033,1.033,0,1,0-2.042,0,1.031,1.031,0,1,0,2.042,0Z"/>
        <path class="cls-1" d="M381.2,258.924h.824v.8a1.084,1.084,0,0,1,1.006-.86.994.994,0,0,1,.358.072v.723a1.169,1.169,0,0,0-.453-.088,1,1,0,0,0-.911.606v2.406H381.2Z"/>
        <path class="cls-1" d="M383.885,261.528c0-.656.532-1.072,1.393-1.072a2.261,2.261,0,0,1,.985.226v-.4c0-.481-.278-.729-.839-.729a2.524,2.524,0,0,0-1.065.284l-.292-.6a3.514,3.514,0,0,1,1.517-.372c.948,0,1.5.481,1.5,1.327v2.385h-.816v-.372a1.522,1.522,0,0,1-1.087.431A1.153,1.153,0,0,1,383.885,261.528Zm1.517.532a1.3,1.3,0,0,0,.861-.3v-.6a1.894,1.894,0,0,0-.846-.174c-.467,0-.759.2-.759.525S384.95,262.06,385.4,262.06Z"/>
        <path class="cls-1" d="M387.908,260.748a1.764,1.764,0,0,1,1.707-1.853,1.375,1.375,0,0,1,1.072.5v-.467h.817V262.7c0,.941-.612,1.459-1.721,1.459a3.182,3.182,0,0,1-1.467-.35l.292-.612a2.5,2.5,0,0,0,1.138.313c.613,0,.934-.277.934-.81v-.62a1.416,1.416,0,0,1-1.117.518A1.751,1.751,0,0,1,387.908,260.748Zm1.9,1.167a1.1,1.1,0,0,0,.869-.4v-1.532a1.135,1.135,0,0,0-.869-.394,1.089,1.089,0,0,0-1.085,1.16A1.1,1.1,0,0,0,389.811,261.915Z"/>
        <path class="cls-1" d="M394.209,262.651a1.857,1.857,0,0,1-1.86-1.9,1.8,1.8,0,0,1,1.779-1.889,1.754,1.754,0,0,1,1.729,1.882v.2h-2.7a1.116,1.116,0,0,0,1.094,1,1.186,1.186,0,0,0,.868-.343l.54.5A2.113,2.113,0,0,1,394.209,262.651Zm-1.036-2.2h1.9a1,1,0,0,0-.955-.912A.982.982,0,0,0,393.173,260.449Z"/>
        <path class="cls-1" d="M371.415,270.349a2.106,2.106,0,0,0,1.174.416c.437,0,.736-.2.736-.489,0-.226-.152-.35-.5-.415l-.649-.11c-.707-.131-1.058-.46-1.058-1.007,0-.685.562-1.13,1.415-1.13a2.575,2.575,0,0,1,1.438.438l-.387.539a2,2,0,0,0-1.1-.35c-.378,0-.626.161-.626.431,0,.233.13.335.517.4l.642.116c.729.139,1.08.474,1.08,1.022A1.339,1.339,0,0,1,372.6,271.4a2.457,2.457,0,0,1-1.575-.5Z"/>
        <path class="cls-1" d="M376.541,271.4a1.857,1.857,0,0,1-1.86-1.9,1.8,1.8,0,0,1,1.779-1.889,1.754,1.754,0,0,1,1.729,1.882v.2h-2.7a1.116,1.116,0,0,0,1.094,1,1.186,1.186,0,0,0,.868-.343l.54.5A2.113,2.113,0,0,1,376.541,271.4Zm-1.036-2.2h1.9a1,1,0,0,0-.955-.912A.982.982,0,0,0,375.505,269.2Z"/>
        <path class="cls-1" d="M379.025,267.672h.825v.795a1.082,1.082,0,0,1,1-.86.974.974,0,0,1,.358.073v.722a1.167,1.167,0,0,0-.452-.088,1,1,0,0,0-.911.606v2.406h-.825Z"/>
        <path class="cls-1" d="M381.46,267.672h.9l1.014,2.67,1.014-2.67h.868l-1.5,3.654h-.8Z"/>
        <path class="cls-1" d="M385.739,266.425a.515.515,0,0,1,1.029,0,.515.515,0,0,1-1.029,0Zm.927,4.9h-.824v-3.654h.824Z"/>
        <path class="cls-1" d="M390.29,270.269l.5.5a1.9,1.9,0,0,1-1.429.634,1.89,1.89,0,0,1,0-3.778,1.966,1.966,0,0,1,1.458.613l-.509.532a1.212,1.212,0,0,0-.92-.43,1.172,1.172,0,0,0,.022,2.334A1.123,1.123,0,0,0,390.29,270.269Z"/>
        <path class="cls-1" d="M393.184,271.4a1.858,1.858,0,0,1-1.861-1.9,1.8,1.8,0,0,1,1.78-1.889,1.754,1.754,0,0,1,1.729,1.882v.2h-2.7a1.116,1.116,0,0,0,1.094,1,1.188,1.188,0,0,0,.868-.343l.54.5A2.115,2.115,0,0,1,393.184,271.4Zm-1.037-2.2h1.9a1,1,0,0,0-.955-.912A.982.982,0,0,0,392.147,269.2Z"/>
      </g>
    </g>
    <g>
      <g>
        <path class="cls-9" d="M372.5,226.449v5.8c0,3.2,4.7,5.8,10.5,5.8s10.5-2.6,10.5-5.8v-5.8"/>
        <ellipse class="cls-9" cx="383.001" cy="226.449" rx="10.497" ry="5.799"/>
      </g>
      <g>
        <path class="cls-4" d="M383,208.2a10.051,10.051,0,1,0,10.055,10.055A10.061,10.061,0,0,0,383,208.2Zm0,7.732a2.32,2.32,0,1,1-2.316,2.323A2.324,2.324,0,0,1,383,215.936Z"/>
        <g>
          <path class="cls-5" d="M383,208.2a10.051,10.051,0,1,0,10.055,10.055A10.061,10.061,0,0,0,383,208.2Zm0,19.243a9.192,9.192,0,1,1,9.195-9.188A9.2,9.2,0,0,1,383,227.447Z"/>
          <path class="cls-5" d="M383,215.077a3.179,3.179,0,1,0,3.182,3.182A3.182,3.182,0,0,0,383,215.077Zm0,5.5a2.32,2.32,0,1,1,2.323-2.316A2.317,2.317,0,0,1,383,220.575Z"/>
          <path class="cls-5" d="M383,210.954a.43.43,0,0,0,0,.859,6.451,6.451,0,0,1,6.443,6.444.43.43,0,0,0,.859,0A7.31,7.31,0,0,0,383,210.954Z"/>
        </g>
      </g>
    </g>
  </g>
  <g id="Compute_service" data-name="Compute 
service">
    <g>
      <rect class="cls-8" x="270.328" y="173.329" width="71.901" height="124.669"/>
      <g>
        <path class="cls-1" d="M294.73,252.452l.576.554a2.621,2.621,0,1,1,.022-3.457l-.591.584a1.8,1.8,0,1,0-1.371,2.983A1.732,1.732,0,0,0,294.73,252.452Z"/>
        <path class="cls-1" d="M297.776,250.118a1.893,1.893,0,1,1-1.838,1.889A1.825,1.825,0,0,1,297.776,250.118Zm1.021,1.9a1.033,1.033,0,1,0-2.042,0,1.031,1.031,0,1,0,2.042,0Z"/>
        <path class="cls-1" d="M300.465,250.176h.825v.584a1.245,1.245,0,0,1,1.086-.642,1.146,1.146,0,0,1,1.072.708,1.349,1.349,0,0,1,1.211-.708,1.21,1.21,0,0,1,1.2,1.327v2.385h-.824v-2.21a.739.739,0,0,0-.737-.838.869.869,0,0,0-.736.43c.007.08.014.153.014.233v2.385h-.824v-2.21a.739.739,0,0,0-.737-.838.845.845,0,0,0-.721.416v2.632h-.825Z"/>
        <path class="cls-1" d="M306.852,250.176h.809v.525a1.377,1.377,0,0,1,1.138-.554,1.754,1.754,0,0,1,1.656,1.86,1.772,1.772,0,0,1-1.715,1.86,1.365,1.365,0,0,1-1.064-.474v1.984h-.824Zm.824,1.072v1.525a1.12,1.12,0,0,0,.875.4,1.17,1.17,0,0,0,0-2.334A1.071,1.071,0,0,0,307.676,251.248Z"/>
        <path class="cls-1" d="M312.108,252.35a.787.787,0,0,0,.8.875.92.92,0,0,0,.8-.452v-2.6h.825v3.654h-.825v-.605a1.335,1.335,0,0,1-1.167.664,1.225,1.225,0,0,1-1.261-1.306v-2.407h.824Z"/>
        <path class="cls-1" d="M316,250.833h-.736v-.657H316V249.17l.825-.176v1.182h1.021v.657h-1.021v1.852c0,.358.138.5.51.5a1.5,1.5,0,0,0,.5-.087v.692a2.578,2.578,0,0,1-.707.1c-.737,0-1.124-.351-1.124-1.021Z"/>
        <path class="cls-1" d="M320.258,253.9a1.857,1.857,0,0,1-1.86-1.9,1.8,1.8,0,0,1,1.78-1.889A1.754,1.754,0,0,1,321.907,252v.2h-2.7a1.116,1.116,0,0,0,1.094,1,1.186,1.186,0,0,0,.868-.343l.54.5A2.114,2.114,0,0,1,320.258,253.9Zm-1.035-2.2h1.9a1,1,0,0,0-.955-.912A.98.98,0,0,0,319.223,251.7Z"/>
        <path class="cls-1" d="M294.692,261.6a2.106,2.106,0,0,0,1.174.416c.438,0,.737-.2.737-.489,0-.226-.153-.35-.5-.415l-.649-.11c-.708-.131-1.058-.46-1.058-1.007,0-.685.562-1.13,1.415-1.13a2.574,2.574,0,0,1,1.437.438l-.387.539a2,2,0,0,0-1.1-.35c-.38,0-.628.161-.628.431,0,.233.132.335.518.4l.642.116c.73.139,1.08.474,1.08,1.022a1.338,1.338,0,0,1-1.488,1.188,2.458,2.458,0,0,1-1.576-.5Z"/>
        <path class="cls-1" d="M299.817,262.651a1.857,1.857,0,0,1-1.86-1.9,1.8,1.8,0,0,1,1.78-1.889,1.754,1.754,0,0,1,1.729,1.882v.2h-2.7a1.116,1.116,0,0,0,1.094,1,1.186,1.186,0,0,0,.868-.343l.54.5A2.114,2.114,0,0,1,299.817,262.651Zm-1.035-2.2h1.9a1,1,0,0,0-.956-.912A.98.98,0,0,0,298.782,260.449Z"/>
        <path class="cls-1" d="M302.3,258.924h.824v.8a1.084,1.084,0,0,1,1.006-.86.994.994,0,0,1,.358.072v.723a1.175,1.175,0,0,0-.452-.088,1,1,0,0,0-.912.606v2.406H302.3Z"/>
        <path class="cls-1" d="M304.737,258.924h.9l1.013,2.67,1.014-2.67h.868l-1.5,3.654h-.8Z"/>
        <path class="cls-1" d="M309.017,257.677a.514.514,0,0,1,1.028,0,.514.514,0,0,1-1.028,0Zm.926,4.9h-.824v-3.654h.824Z"/>
        <path class="cls-1" d="M313.567,261.521l.5.5a1.9,1.9,0,0,1-1.43.634,1.89,1.89,0,0,1,0-3.778,1.968,1.968,0,0,1,1.459.613l-.51.532a1.21,1.21,0,0,0-.919-.43,1.172,1.172,0,0,0,.022,2.334A1.121,1.121,0,0,0,313.567,261.521Z"/>
        <path class="cls-1" d="M316.46,262.651a1.856,1.856,0,0,1-1.859-1.9,1.8,1.8,0,0,1,1.779-1.889,1.754,1.754,0,0,1,1.729,1.882v.2h-2.7a1.116,1.116,0,0,0,1.094,1,1.186,1.186,0,0,0,.868-.343l.54.5A2.114,2.114,0,0,1,316.46,262.651Zm-1.035-2.2h1.9a1,1,0,0,0-.956-.912A.981.981,0,0,0,315.425,260.449Z"/>
      </g>
    </g>
    <g>
      <g>
        <path class="cls-5" d="M314.26,216.238H298.307a.626.626,0,0,0-.628.629V232.82a.623.623,0,0,0,.628.618H314.26a.622.622,0,0,0,.619-.618V216.867A.625.625,0,0,0,314.26,216.238Zm-.628,15.954H298.925V217.485h14.707Z"/>
        <path class="cls-5" d="M319.864,216.867a.621.621,0,0,1-.618.618h-1.994a.624.624,0,1,1,0-1.247h1.994A.624.624,0,0,1,319.864,216.867Z"/>
        <path class="cls-5" d="M319.864,224.843a.621.621,0,0,1-.618.618h-1.994a.623.623,0,1,1,0-1.246h1.994A.623.623,0,0,1,319.864,224.843Z"/>
        <path class="cls-5" d="M319.864,220.855a.621.621,0,0,1-.618.618h-1.994a.623.623,0,1,1,0-1.246h1.994A.623.623,0,0,1,319.864,220.855Z"/>
        <path class="cls-5" d="M319.864,232.82a.621.621,0,0,1-.618.618h-1.994a.623.623,0,1,1,0-1.246h1.994A.623.623,0,0,1,319.864,232.82Z"/>
        <path class="cls-5" d="M319.864,228.832a.621.621,0,0,1-.618.618h-1.994a.624.624,0,1,1,0-1.247h1.994A.624.624,0,0,1,319.864,228.832Z"/>
        <path class="cls-5" d="M295.934,216.867a.621.621,0,0,1-.618.618h-1.994a.624.624,0,1,1,0-1.247h1.994A.624.624,0,0,1,295.934,216.867Z"/>
        <path class="cls-5" d="M295.934,224.843a.621.621,0,0,1-.618.618h-1.994a.623.623,0,1,1,0-1.246h1.994A.623.623,0,0,1,295.934,224.843Z"/>
        <path class="cls-5" d="M295.934,220.855a.621.621,0,0,1-.618.618h-1.994a.623.623,0,1,1,0-1.246h1.994A.623.623,0,0,1,295.934,220.855Z"/>
        <path class="cls-5" d="M295.934,232.82a.621.621,0,0,1-.618.618h-1.994a.623.623,0,1,1,0-1.246h1.994A.623.623,0,0,1,295.934,232.82Z"/>
        <path class="cls-5" d="M295.934,228.832a.621.621,0,0,1-.618.618h-1.994a.624.624,0,1,1,0-1.247h1.994A.624.624,0,0,1,295.934,228.832Z"/>
        <path class="cls-5" d="M314.879,235.811v1.994a.624.624,0,0,1-1.247,0v-1.994a.624.624,0,1,1,1.247,0Z"/>
        <path class="cls-5" d="M306.9,235.811v1.994a.623.623,0,0,1-1.246,0v-1.994a.623.623,0,1,1,1.246,0Z"/>
        <path class="cls-5" d="M310.89,235.811v1.994a.623.623,0,0,1-1.246,0v-1.994a.623.623,0,1,1,1.246,0Z"/>
        <path class="cls-5" d="M298.925,235.811v1.994a.623.623,0,0,1-1.246,0v-1.994a.623.623,0,1,1,1.246,0Z"/>
        <path class="cls-5" d="M302.914,235.811v1.994a.624.624,0,0,1-1.247,0v-1.994a.624.624,0,1,1,1.247,0Z"/>
        <path class="cls-5" d="M314.879,211.881v1.994a.624.624,0,0,1-1.247,0v-1.994a.624.624,0,1,1,1.247,0Z"/>
        <path class="cls-5" d="M306.9,211.881v1.994a.623.623,0,0,1-1.246,0v-1.994a.623.623,0,1,1,1.246,0Z"/>
        <path class="cls-5" d="M310.89,211.881v1.994a.623.623,0,0,1-1.246,0v-1.994a.623.623,0,1,1,1.246,0Z"/>
        <path class="cls-5" d="M298.925,211.881v1.994a.623.623,0,0,1-1.246,0v-1.994a.623.623,0,1,1,1.246,0Z"/>
        <path class="cls-5" d="M302.914,211.881v1.994a.624.624,0,0,1-1.247,0v-1.994a.624.624,0,1,1,1.247,0Z"/>
      </g>
      <rect class="cls-4" x="298.925" y="217.485" width="14.707" height="14.707"/>
    </g>
  </g>
  <g id="Block_storage_service" data-name="Block
 storage
service">
    <g>
      <rect class="cls-8" x="193.606" y="173.329" width="71.901" height="124.669"/>
      <g>
        <path class="cls-1" d="M222.924,248.725c.963,0,1.612.539,1.612,1.342a1.226,1.226,0,0,1-.816,1.131,1.275,1.275,0,0,1,.991,1.21,1.488,1.488,0,0,1-1.685,1.422h-2.37v-5.105Zm-1.393.715v1.429h1.306c.5,0,.824-.277.824-.714s-.321-.715-.824-.715Zm2.3,2.888a.8.8,0,0,0-.905-.78h-1.393v1.568h1.393A.8.8,0,0,0,223.829,252.328Z"/>
        <path class="cls-1" d="M226.452,253.83h-.824v-5.214l.824-.139Z"/>
        <path class="cls-1" d="M229.135,250.118a1.893,1.893,0,1,1-1.838,1.889A1.825,1.825,0,0,1,229.135,250.118Zm1.022,1.9a1.033,1.033,0,1,0-2.043,0,1.032,1.032,0,1,0,2.043,0Z"/>
        <path class="cls-1" d="M234.436,252.773l.5.5a1.905,1.905,0,0,1-1.43.634,1.89,1.89,0,0,1,0-3.778,1.97,1.97,0,0,1,1.459.613l-.511.532a1.209,1.209,0,0,0-.919-.43,1.172,1.172,0,0,0,.022,2.334A1.126,1.126,0,0,0,234.436,252.773Z"/>
        <path class="cls-1" d="M235.637,248.616l.824-.139v3.26l1.517-1.561h.941l-1.67,1.692,1.772,1.962h-1.057l-1.5-1.685v1.685h-.824Z"/>
        <path class="cls-1" d="M216.945,261.6a2.109,2.109,0,0,0,1.175.416c.437,0,.736-.2.736-.489,0-.226-.153-.35-.5-.415L217.7,261c-.707-.131-1.058-.46-1.058-1.007,0-.685.562-1.13,1.415-1.13a2.572,2.572,0,0,1,1.437.438l-.386.539a2.006,2.006,0,0,0-1.1-.35c-.379,0-.627.161-.627.431,0,.233.131.335.518.4l.641.116c.73.139,1.08.474,1.08,1.022a1.338,1.338,0,0,1-1.488,1.188,2.453,2.453,0,0,1-1.575-.5Z"/>
        <path class="cls-1" d="M220.831,259.581h-.737v-.657h.737v-1.006l.824-.175v1.181h1.021v.657h-1.021v1.852c0,.358.139.5.511.5a1.511,1.511,0,0,0,.5-.088v.693a2.623,2.623,0,0,1-.708.1c-.737,0-1.123-.351-1.123-1.021Z"/>
        <path class="cls-1" d="M225.067,258.866a1.893,1.893,0,1,1-1.838,1.889A1.825,1.825,0,0,1,225.067,258.866Zm1.021,1.9a1.033,1.033,0,1,0-2.042,0,1.031,1.031,0,1,0,2.042,0Z"/>
        <path class="cls-1" d="M227.756,258.924h.825v.8a1.082,1.082,0,0,1,1.006-.86.988.988,0,0,1,.357.072v.723a1.167,1.167,0,0,0-.452-.088,1,1,0,0,0-.911.606v2.406h-.825Z"/>
        <path class="cls-1" d="M230.438,261.528c0-.656.533-1.072,1.394-1.072a2.26,2.26,0,0,1,.984.226v-.4c0-.481-.277-.729-.838-.729a2.524,2.524,0,0,0-1.065.284l-.292-.6a3.511,3.511,0,0,1,1.517-.372c.948,0,1.5.481,1.5,1.327v2.385h-.817v-.372a1.522,1.522,0,0,1-1.087.431A1.153,1.153,0,0,1,230.438,261.528Zm1.518.532a1.3,1.3,0,0,0,.86-.3v-.6a1.888,1.888,0,0,0-.846-.174c-.467,0-.758.2-.758.525S231.5,262.06,231.956,262.06Z"/>
        <path class="cls-1" d="M234.463,260.748a1.764,1.764,0,0,1,1.706-1.853,1.375,1.375,0,0,1,1.073.5v-.467h.817V262.7c0,.941-.613,1.459-1.722,1.459a3.171,3.171,0,0,1-1.465-.35l.291-.612a2.492,2.492,0,0,0,1.138.313c.613,0,.933-.277.933-.81v-.62a1.413,1.413,0,0,1-1.115.518A1.751,1.751,0,0,1,234.463,260.748Zm1.9,1.167a1.092,1.092,0,0,0,.867-.4v-1.532a1.132,1.132,0,0,0-.867-.394,1.089,1.089,0,0,0-1.087,1.16A1.105,1.105,0,0,0,236.367,261.915Z"/>
        <path class="cls-1" d="M240.762,262.651a1.857,1.857,0,0,1-1.86-1.9,1.8,1.8,0,0,1,1.78-1.889,1.754,1.754,0,0,1,1.729,1.882v.2h-2.7a1.116,1.116,0,0,0,1.094,1,1.186,1.186,0,0,0,.868-.343l.54.5A2.114,2.114,0,0,1,240.762,262.651Zm-1.035-2.2h1.9a1,1,0,0,0-.955-.912A.98.98,0,0,0,239.727,260.449Z"/>
        <path class="cls-1" d="M217.969,270.349a2.106,2.106,0,0,0,1.175.416c.437,0,.736-.2.736-.489,0-.226-.153-.35-.5-.415l-.649-.11c-.708-.131-1.058-.46-1.058-1.007,0-.685.562-1.13,1.415-1.13a2.572,2.572,0,0,1,1.437.438l-.386.539a2.006,2.006,0,0,0-1.1-.35c-.379,0-.627.161-.627.431,0,.233.131.335.518.4l.641.116c.73.139,1.08.474,1.08,1.022a1.338,1.338,0,0,1-1.488,1.188,2.458,2.458,0,0,1-1.576-.5Z"/>
        <path class="cls-1" d="M223.1,271.4a1.857,1.857,0,0,1-1.86-1.9,1.8,1.8,0,0,1,1.78-1.889,1.754,1.754,0,0,1,1.728,1.882v.2h-2.7a1.116,1.116,0,0,0,1.095,1,1.185,1.185,0,0,0,.867-.343l.54.5A2.11,2.11,0,0,1,223.1,271.4Zm-1.036-2.2h1.9a1,1,0,0,0-.956-.912A.982.982,0,0,0,222.059,269.2Z"/>
        <path class="cls-1" d="M225.58,267.672h.824v.795a1.084,1.084,0,0,1,1.007-.86.973.973,0,0,1,.357.073v.722a1.167,1.167,0,0,0-.452-.088,1,1,0,0,0-.912.606v2.406h-.824Z"/>
        <path class="cls-1" d="M228.015,267.672h.9l1.014,2.67,1.013-2.67h.869l-1.5,3.654h-.8Z"/>
        <path class="cls-1" d="M232.294,266.425a.514.514,0,0,1,1.028,0,.514.514,0,0,1-1.028,0Zm.926,4.9H232.4v-3.654h.824Z"/>
        <path class="cls-1" d="M236.844,270.269l.5.5a1.9,1.9,0,0,1-1.429.634,1.89,1.89,0,0,1,0-3.778,1.972,1.972,0,0,1,1.459.613l-.511.532a1.21,1.21,0,0,0-.919-.43,1.172,1.172,0,0,0,.022,2.334A1.121,1.121,0,0,0,236.844,270.269Z"/>
        <path class="cls-1" d="M239.738,271.4a1.857,1.857,0,0,1-1.86-1.9,1.8,1.8,0,0,1,1.78-1.889,1.754,1.754,0,0,1,1.728,1.882v.2h-2.7a1.117,1.117,0,0,0,1.095,1,1.185,1.185,0,0,0,.867-.343l.54.5A2.111,2.111,0,0,1,239.738,271.4Zm-1.036-2.2h1.9a1,1,0,0,0-.956-.912A.982.982,0,0,0,238.7,269.2Z"/>
      </g>
    </g>
    <g>
      <path class="cls-9" d="M219.062,224.746v5.8c0,3.2,4.7,5.8,10.494,5.8s10.495-2.595,10.495-5.8v-5.8"/>
      <path class="cls-9" d="M219.062,218.948v5.8c0,3.2,4.7,5.8,10.494,5.8s10.495-2.6,10.495-5.8v-5.8"/>
      <ellipse class="cls-9" cx="229.556" cy="218.948" rx="10.495" ry="5.798"/>
    </g>
  </g>
  <g id="Identity_service" data-name="Identity
service">
    <g>
      <rect class="cls-8" x="23.329" y="173.329" width="71.901" height="124.669"/>
      <g>
        <path class="cls-1" d="M46.511,248.725h.875v5.105h-.875Z"/>
        <path class="cls-1" d="M51.082,253.342a1.405,1.405,0,0,1-1.123.525,1.87,1.87,0,0,1,.051-3.72,1.392,1.392,0,0,1,1.065.481v-2.012l.824-.139v5.353h-.817Zm-.875-.168a1.094,1.094,0,0,0,.868-.4v-1.539a1.133,1.133,0,0,0-.868-.394,1.17,1.17,0,0,0,0,2.334Z"/>
        <path class="cls-1" d="M54.611,253.9a1.857,1.857,0,0,1-1.86-1.9,1.8,1.8,0,0,1,1.78-1.889A1.754,1.754,0,0,1,56.259,252v.2h-2.7a1.116,1.116,0,0,0,1.094,1,1.184,1.184,0,0,0,.867-.343l.54.5A2.111,2.111,0,0,1,54.611,253.9Zm-1.036-2.2h1.9a1,1,0,0,0-.956-.912A.982.982,0,0,0,53.575,251.7Z"/>
        <path class="cls-1" d="M57.1,250.176h.824v.6a1.326,1.326,0,0,1,1.16-.656,1.23,1.23,0,0,1,1.261,1.306v2.406h-.824v-2.173a.786.786,0,0,0-.8-.875.938.938,0,0,0-.8.437v2.611H57.1Z"/>
        <path class="cls-1" d="M61.791,250.833h-.737v-.657h.737V249.17l.824-.176v1.182h1.021v.657H62.615v1.852c0,.358.139.5.51.5a1.508,1.508,0,0,0,.5-.087v.692a2.585,2.585,0,0,1-.708.1c-.737,0-1.123-.351-1.123-1.021Z"/>
        <path class="cls-1" d="M64.254,248.929a.515.515,0,0,1,1.029,0,.515.515,0,0,1-1.029,0Zm.927,4.9h-.825v-3.654h.825Z"/>
        <path class="cls-1" d="M66.646,250.833h-.737v-.657h.737V249.17l.824-.176v1.182h1.021v.657H67.47v1.852c0,.358.138.5.51.5a1.508,1.508,0,0,0,.5-.087v.692a2.585,2.585,0,0,1-.708.1c-.737,0-1.123-.351-1.123-1.021Z"/>
        <path class="cls-1" d="M70.145,253.852l-1.379-3.676h.92l.926,2.713,1.021-2.713h.9l-1.736,4.253a1.235,1.235,0,0,1-1.3.962,1.722,1.722,0,0,1-.416-.051v-.707a2.948,2.948,0,0,0,.321.029.583.583,0,0,0,.591-.423Z"/>
        <path class="cls-1" d="M47.692,261.6a2.106,2.106,0,0,0,1.174.416c.438,0,.737-.2.737-.489,0-.226-.153-.35-.5-.415l-.649-.11c-.708-.131-1.058-.46-1.058-1.007,0-.685.562-1.13,1.415-1.13a2.574,2.574,0,0,1,1.437.438l-.387.539a2,2,0,0,0-1.1-.35c-.38,0-.628.161-.628.431,0,.233.132.335.518.4l.642.116c.73.139,1.08.474,1.08,1.022a1.338,1.338,0,0,1-1.488,1.188,2.458,2.458,0,0,1-1.576-.5Z"/>
        <path class="cls-1" d="M52.817,262.651a1.857,1.857,0,0,1-1.86-1.9,1.8,1.8,0,0,1,1.78-1.889,1.754,1.754,0,0,1,1.729,1.882v.2h-2.7a1.116,1.116,0,0,0,1.094,1,1.186,1.186,0,0,0,.868-.343l.54.5A2.114,2.114,0,0,1,52.817,262.651Zm-1.035-2.2h1.9a1,1,0,0,0-.956-.912A.98.98,0,0,0,51.782,260.449Z"/>
        <path class="cls-1" d="M55.3,258.924h.824v.8a1.084,1.084,0,0,1,1.006-.86.994.994,0,0,1,.358.072v.723a1.175,1.175,0,0,0-.452-.088,1,1,0,0,0-.912.606v2.406H55.3Z"/>
        <path class="cls-1" d="M57.737,258.924h.9l1.013,2.67,1.014-2.67h.868l-1.5,3.654h-.8Z"/>
        <path class="cls-1" d="M62.017,257.677a.514.514,0,0,1,1.028,0,.514.514,0,0,1-1.028,0Zm.926,4.9h-.824v-3.654h.824Z"/>
        <path class="cls-1" d="M66.567,261.521l.5.5a1.9,1.9,0,0,1-1.43.634,1.89,1.89,0,0,1,0-3.778,1.968,1.968,0,0,1,1.459.613l-.51.532a1.21,1.21,0,0,0-.919-.43,1.172,1.172,0,0,0,.022,2.334A1.121,1.121,0,0,0,66.567,261.521Z"/>
        <path class="cls-1" d="M69.46,262.651a1.856,1.856,0,0,1-1.859-1.9,1.8,1.8,0,0,1,1.779-1.889,1.754,1.754,0,0,1,1.729,1.882v.2h-2.7a1.116,1.116,0,0,0,1.094,1,1.186,1.186,0,0,0,.868-.343l.54.5A2.114,2.114,0,0,1,69.46,262.651Zm-1.035-2.2h1.9a1,1,0,0,0-.956-.912A.981.981,0,0,0,68.425,260.449Z"/>
      </g>
    </g>
    <g>
      <path class="cls-4" d="M68.332,220.611v16.931a.588.588,0,0,1-.593.583H50.809a.586.586,0,0,1-.583-.583V220.611a.588.588,0,0,1,.583-.592h3.179v-2.23a5.291,5.291,0,1,1,10.582,0v2.23h3.169A.59.59,0,0,1,68.332,220.611Z"/>
      <path class="cls-5" d="M67.739,220.019H64.57v-2.23a5.291,5.291,0,1,0-10.582,0v2.23H50.809a.588.588,0,0,0-.583.592v16.931a.586.586,0,0,0,.583.583h16.93a.588.588,0,0,0,.593-.583V220.611A.59.59,0,0,0,67.739,220.019Zm-12.575-2.23a4.115,4.115,0,1,1,8.23,0v2.23h-8.23Zm11.992,6.932H59.274a.588.588,0,0,0,0,1.176h7.882v2.587H59.274a.588.588,0,0,0,0,1.176h7.882v2.586H59.274a.588.588,0,0,0,0,1.176h7.882v3.527H51.4V221.194H67.156Z"/>
    </g>
    <g>
      <rect class="cls-4" x="166.589" y="97.948" width="3.711" height="3.711"/>
      <rect class="cls-4" x="174.01" y="97.948" width="3.711" height="3.711"/>
      <path class="cls-10" d="M165.97,102.9h4.948a.618.618,0,0,0,.618-.618V97.347a.625.625,0,0,0-.618-.635H165.97a.625.625,0,0,0-.618.618v4.948A.618.618,0,0,0,165.97,102.9Zm.619-4.948h3.71v3.711h-3.71Z"/>
      <path class="cls-10" d="M176.3,110.087a.529.529,0,0,0-.182-.116h-.255a.562.562,0,0,0-.2.042.869.869,0,0,0-.182.123l-1.649,1.65a.618.618,0,0,0,.874.874l.594-.586v.94a2.68,2.68,0,0,1-2.7,2.664h-8.288a.619.619,0,1,0,0,1.237h8.246a3.917,3.917,0,0,0,3.917-3.9v-.989l.594.585a.609.609,0,0,0,.863.011l.011-.011a.619.619,0,0,0,0-.874Z"/>
      <path class="cls-10" d="M164.115,99.82a.627.627,0,0,0-.619-.635h-.824a3.926,3.926,0,0,0-3.917,3.934h0v6.754l-.594-.594a.618.618,0,0,0-.874.874l1.649,1.649a.58.58,0,0,0,.206.14.667.667,0,0,0,.462,0,.924.924,0,0,0,.182-.123l1.649-1.65a.618.618,0,0,0-.874-.874l-.594.594v-6.77a2.688,2.688,0,0,1,2.68-2.7h.849A.619.619,0,0,0,164.115,99.82Z"/>
      <path class="cls-10" d="M178.34,96.712h-4.948a.626.626,0,0,0-.619.618v4.948a.619.619,0,0,0,.619.618h4.947a.619.619,0,0,0,.619-.618V97.347A.625.625,0,0,0,178.34,96.712Zm-.619,4.947H174.01V97.948h3.711Z"/>
      <rect class="cls-10" x="165.352" y="104.133" width="6.185" height="6.185" rx="0.618"/>
      <rect class="cls-10" x="156.281" y="113.204" width="6.185" height="6.185" rx="0.618"/>
    </g>
  </g>
  <g id="Openstack_networking_service" data-name="Openstack
 networking
service">
    <g>
      <rect class="cls-8" x="116.883" y="173.329" width="71.901" height="124.669"/>
      <g>
        <path class="cls-1" d="M137.265,253.91a2.634,2.634,0,1,1,2.582-2.632A2.583,2.583,0,0,1,137.265,253.91Zm.007-4.485a1.856,1.856,0,0,0,0,3.7,1.858,1.858,0,0,0,0-3.7Z"/>
        <path class="cls-1" d="M140.726,250.176h.81v.525a1.375,1.375,0,0,1,1.137-.554,1.753,1.753,0,0,1,1.656,1.86,1.771,1.771,0,0,1-1.714,1.86,1.367,1.367,0,0,1-1.065-.474v1.984h-.824Zm.824,1.072v1.525a1.121,1.121,0,0,0,.875.4,1.17,1.17,0,0,0,0-2.334A1.073,1.073,0,0,0,141.55,251.248Z"/>
        <path class="cls-1" d="M146.872,253.9a1.857,1.857,0,0,1-1.86-1.9,1.8,1.8,0,0,1,1.78-1.889A1.754,1.754,0,0,1,148.52,252v.2h-2.7a1.116,1.116,0,0,0,1.094,1,1.186,1.186,0,0,0,.868-.343l.54.5A2.114,2.114,0,0,1,146.872,253.9Zm-1.036-2.2h1.9a1,1,0,0,0-.955-.912A.982.982,0,0,0,145.836,251.7Z"/>
        <path class="cls-1" d="M149.357,250.176h.825v.6a1.325,1.325,0,0,1,1.159-.656,1.23,1.23,0,0,1,1.262,1.306v2.406h-.824v-2.173a.787.787,0,0,0-.8-.875.935.935,0,0,0-.8.437v2.611h-.825Z"/>
        <path class="cls-1" d="M153.658,252.853a2.106,2.106,0,0,0,1.174.416c.438,0,.737-.2.737-.489,0-.226-.153-.35-.5-.415l-.649-.11c-.708-.131-1.058-.46-1.058-1.007,0-.685.562-1.13,1.415-1.13a2.579,2.579,0,0,1,1.437.437l-.386.54a2.006,2.006,0,0,0-1.1-.35c-.379,0-.627.161-.627.431,0,.233.131.335.518.4l.641.117c.73.139,1.08.474,1.08,1.022a1.338,1.338,0,0,1-1.488,1.188,2.458,2.458,0,0,1-1.576-.5Z"/>
        <path class="cls-1" d="M157.544,250.833h-.737v-.657h.737V249.17l.824-.176v1.182h1.021v.657h-1.021v1.852c0,.358.139.5.51.5a1.5,1.5,0,0,0,.5-.087v.692a2.573,2.573,0,0,1-.707.1c-.737,0-1.123-.351-1.123-1.021Z"/>
        <path class="cls-1" d="M159.927,252.78c0-.656.533-1.072,1.393-1.072a2.261,2.261,0,0,1,.985.226v-.4c0-.481-.277-.729-.839-.729a2.527,2.527,0,0,0-1.065.284l-.291-.6a3.511,3.511,0,0,1,1.517-.372c.948,0,1.5.481,1.5,1.327v2.385h-.817v-.372a1.522,1.522,0,0,1-1.087.431A1.153,1.153,0,0,1,159.927,252.78Zm1.517.532a1.3,1.3,0,0,0,.861-.3v-.6a1.891,1.891,0,0,0-.846-.174c-.467,0-.758.2-.758.524C160.7,253.1,160.992,253.312,161.444,253.312Z"/>
        <path class="cls-1" d="M166.73,252.773l.5.5a1.905,1.905,0,0,1-1.43.634,1.89,1.89,0,0,1,0-3.778,1.97,1.97,0,0,1,1.459.613l-.511.532a1.209,1.209,0,0,0-.919-.43,1.172,1.172,0,0,0,.022,2.334A1.122,1.122,0,0,0,166.73,252.773Z"/>
        <path class="cls-1" d="M167.932,248.616l.824-.139v3.26l1.517-1.561h.941l-1.67,1.692,1.772,1.962h-1.057l-1.5-1.685v1.685h-.824Z"/>
        <path class="cls-1" d="M134.1,258.924h.824v.6a1.326,1.326,0,0,1,1.16-.656,1.23,1.23,0,0,1,1.261,1.306v2.406h-.824V260.4a.786.786,0,0,0-.8-.875.938.938,0,0,0-.8.437v2.611H134.1Z"/>
        <path class="cls-1" d="M140.03,262.651a1.857,1.857,0,0,1-1.86-1.9,1.8,1.8,0,0,1,1.78-1.889,1.754,1.754,0,0,1,1.729,1.882v.2h-2.7a1.116,1.116,0,0,0,1.094,1,1.186,1.186,0,0,0,.868-.343l.54.5A2.114,2.114,0,0,1,140.03,262.651Zm-1.035-2.2h1.9a1,1,0,0,0-.955-.912A.98.98,0,0,0,139,260.449Z"/>
        <path class="cls-1" d="M142.968,259.581h-.737v-.657h.737v-1.006l.824-.175v1.181h1.021v.657h-1.021v1.852c0,.358.139.5.51.5a1.5,1.5,0,0,0,.5-.088v.693a2.61,2.61,0,0,1-.707.1c-.737,0-1.123-.351-1.123-1.021Z"/>
        <path class="cls-1" d="M146.175,262.578l-.984-3.654h.787l.642,2.582.752-2.582h.7l.751,2.59.634-2.59h.773l-.984,3.654h-.8L147.714,260l-.736,2.574Z"/>
        <path class="cls-1" d="M152.576,258.866a1.893,1.893,0,1,1-1.838,1.889A1.826,1.826,0,0,1,152.576,258.866Zm1.022,1.9a1.033,1.033,0,1,0-2.043,0,1.031,1.031,0,1,0,2.043,0Z"/>
        <path class="cls-1" d="M155.266,258.924h.824v.8a1.084,1.084,0,0,1,1.006-.86.994.994,0,0,1,.358.072v.723a1.176,1.176,0,0,0-.453-.088,1,1,0,0,0-.911.606v2.406h-.824Z"/>
        <path class="cls-1" d="M158.131,257.364l.824-.139v3.26l1.517-1.561h.941l-1.67,1.693,1.772,1.961h-1.058l-1.5-1.685v1.685h-.824Z"/>
        <path class="cls-1" d="M161.972,257.677a.514.514,0,0,1,1.028,0,.514.514,0,0,1-1.028,0Zm.926,4.9h-.824v-3.654h.824Z"/>
        <path class="cls-1" d="M163.912,258.924h.824v.6a1.326,1.326,0,0,1,1.159-.656,1.23,1.23,0,0,1,1.262,1.306v2.406h-.824V260.4a.786.786,0,0,0-.8-.875.938.938,0,0,0-.8.437v2.611h-.824Z"/>
        <path class="cls-1" d="M167.986,260.748a1.764,1.764,0,0,1,1.707-1.853,1.373,1.373,0,0,1,1.072.5v-.467h.817V262.7c0,.941-.612,1.459-1.721,1.459a3.175,3.175,0,0,1-1.466-.35l.291-.612a2.492,2.492,0,0,0,1.138.313c.613,0,.934-.277.934-.81v-.62a1.415,1.415,0,0,1-1.116.518A1.752,1.752,0,0,1,167.986,260.748Zm1.9,1.167a1.1,1.1,0,0,0,.868-.4v-1.532a1.134,1.134,0,0,0-.868-.394,1.09,1.09,0,0,0-1.087,1.16A1.105,1.105,0,0,0,169.89,261.915Z"/>
        <path class="cls-1" d="M141.247,270.349a2.106,2.106,0,0,0,1.174.416c.437,0,.737-.2.737-.489,0-.226-.154-.35-.5-.415l-.649-.11c-.707-.131-1.057-.46-1.057-1.007,0-.685.561-1.13,1.415-1.13a2.571,2.571,0,0,1,1.436.438l-.386.539a2,2,0,0,0-1.1-.35c-.379,0-.627.161-.627.431,0,.233.131.335.518.4l.642.116c.729.139,1.079.474,1.079,1.022a1.337,1.337,0,0,1-1.487,1.188,2.458,2.458,0,0,1-1.576-.5Z"/>
        <path class="cls-1" d="M146.372,271.4a1.857,1.857,0,0,1-1.86-1.9,1.8,1.8,0,0,1,1.78-1.889,1.754,1.754,0,0,1,1.728,1.882v.2h-2.7a1.116,1.116,0,0,0,1.094,1,1.186,1.186,0,0,0,.868-.343l.54.5A2.114,2.114,0,0,1,146.372,271.4Zm-1.036-2.2h1.9a1,1,0,0,0-.955-.912A.982.982,0,0,0,145.336,269.2Z"/>
        <path class="cls-1" d="M148.857,267.672h.825v.795a1.082,1.082,0,0,1,1.006-.86.968.968,0,0,1,.357.073v.722a1.167,1.167,0,0,0-.452-.088,1,1,0,0,0-.911.606v2.406h-.825Z"/>
        <path class="cls-1" d="M151.292,267.672h.9l1.014,2.67,1.014-2.67h.868l-1.5,3.654h-.795Z"/>
        <path class="cls-1" d="M155.571,266.425a.515.515,0,0,1,1.029,0,.515.515,0,0,1-1.029,0Zm.927,4.9h-.825v-3.654h.825Z"/>
        <path class="cls-1" d="M160.122,270.269l.5.5a1.9,1.9,0,0,1-1.43.634,1.89,1.89,0,0,1,0-3.778,1.97,1.97,0,0,1,1.459.613l-.511.532a1.209,1.209,0,0,0-.919-.43,1.172,1.172,0,0,0,.022,2.334A1.123,1.123,0,0,0,160.122,270.269Z"/>
        <path class="cls-1" d="M163.015,271.4a1.857,1.857,0,0,1-1.86-1.9,1.8,1.8,0,0,1,1.78-1.889,1.754,1.754,0,0,1,1.729,1.882v.2h-2.7a1.116,1.116,0,0,0,1.094,1,1.186,1.186,0,0,0,.868-.343l.54.5A2.115,2.115,0,0,1,163.015,271.4Zm-1.036-2.2h1.9a1,1,0,0,0-.955-.912A.982.982,0,0,0,161.979,269.2Z"/>
      </g>
    </g>
    <g>
      <path class="cls-4" d="M155.369,225.331a3.292,3.292,0,0,1-.562,1.359l6.269,6.269a2.4,2.4,0,0,1,1.265-.366,2.49,2.49,0,1,1-2.1,1.19l-6.26-6.259a3.462,3.462,0,0,1-1.368.562v4.582a2.46,2.46,0,1,1-1.171,0v-4.582a3.478,3.478,0,0,1-1.359-.562l-6.259,6.259a2.458,2.458,0,1,1-2.1-1.19,2.4,2.4,0,0,1,1.265.366l6.269-6.269a3.292,3.292,0,0,1-.562-1.359h-4.592a2.46,2.46,0,1,1,0-1.171H148.7a3.3,3.3,0,0,1,.562-1.359l-6.269-6.268a2.4,2.4,0,0,1-1.265.365,2.467,2.467,0,1,1,2.1-1.19l6.259,6.26a3.479,3.479,0,0,1,1.359-.563v-4.582a2.46,2.46,0,1,1,1.171,0v4.582a3.463,3.463,0,0,1,1.368.563l6.26-6.26a2.452,2.452,0,1,1,2.1,1.19,2.4,2.4,0,0,1-1.265-.365l-6.269,6.268a3.3,3.3,0,0,1,.562,1.359h4.591a2.46,2.46,0,1,1,0,1.171Z"/>
      <path class="cls-5" d="M159.96,225.331a2.46,2.46,0,1,0,0-1.171h-4.591a3.3,3.3,0,0,0-.562-1.359l6.269-6.268a2.4,2.4,0,0,0,1.265.365,2.49,2.49,0,1,0-2.1-1.19l-6.26,6.26a3.463,3.463,0,0,0-1.368-.563v-4.582a2.46,2.46,0,1,0-1.171,0v4.582a3.479,3.479,0,0,0-1.359.563l-6.259-6.26a2.458,2.458,0,1,0-2.1,1.19,2.4,2.4,0,0,0,1.265-.365l6.269,6.268a3.3,3.3,0,0,0-.562,1.359h-4.592a2.46,2.46,0,1,0,0,1.171H148.7a3.292,3.292,0,0,0,.562,1.359l-6.269,6.269a2.4,2.4,0,0,0-1.265-.366,2.467,2.467,0,1,0,2.1,1.19l6.259-6.259a3.478,3.478,0,0,0,1.359.562v4.582a2.46,2.46,0,1,0,1.171,0v-4.582a3.462,3.462,0,0,0,1.368-.562l6.26,6.259a2.452,2.452,0,1,0,2.1-1.19,2.4,2.4,0,0,0-1.265.366l-6.269-6.269a3.292,3.292,0,0,0,.562-1.359Zm2.381-1.874a1.289,1.289,0,1,1-1.294,1.284A1.285,1.285,0,0,1,162.341,223.457Zm0-10.307a1.289,1.289,0,1,1-1.294,1.284A1.285,1.285,0,0,1,162.341,213.15Zm-20.615,2.577a1.289,1.289,0,1,1,1.284-1.293A1.3,1.3,0,0,1,141.726,215.727Zm0,10.307a1.289,1.289,0,1,1,1.284-1.293A1.3,1.3,0,0,1,141.726,226.034Zm0,10.307a1.288,1.288,0,1,1,1.284-1.293A1.3,1.3,0,0,1,141.726,236.341Zm20.615-2.576a1.288,1.288,0,1,1-1.294,1.283A1.284,1.284,0,0,1,162.341,233.765Zm-11.6-19.331a1.289,1.289,0,1,1,1.293,1.293A1.294,1.294,0,0,1,150.74,214.434Zm2.577,20.614a1.289,1.289,0,1,1-1.284-1.283A1.287,1.287,0,0,1,153.317,235.048Zm-1.284-8.077a2.226,2.226,0,1,1,2.23-2.23A2.229,2.229,0,0,1,152.033,226.971Z"/>
    </g>
  </g>
  <g id="Black_dashed_connectors" data-name="Black dashed connectors">
    <g>
      <line class="cls-11" x1="65.081" y1="167.947" x2="65.081" y2="166.447"/>
      <line class="cls-12" x1="65.081" y1="163.452" x2="65.081" y2="111.047"/>
      <polyline class="cls-11" points="65.081 109.55 65.081 108.05 66.581 108.05"/>
      <line class="cls-13" x1="69.529" y1="108.05" x2="109.338" y2="108.05"/>
      <line class="cls-11" x1="110.812" y1="108.05" x2="112.312" y2="108.05"/>
      <polygon class="cls-1" points="68.82 166.852 65.081 173.329 61.341 166.852 68.82 166.852"/>
      <polygon class="cls-1" points="111.218 111.79 117.694 108.05 111.218 104.31 111.218 111.79"/>
    </g>
    <g>
      <line class="cls-11" x1="53.477" y1="167.947" x2="53.477" y2="166.447"/>
      <line class="cls-14" x1="53.477" y1="163.379" x2="53.477" y2="48.338"/>
      <polyline class="cls-11" points="53.477 46.804 53.477 45.304 54.977 45.304"/>
      <line class="cls-15" x1="57.916" y1="45.304" x2="109.343" y2="45.304"/>
      <line class="cls-11" x1="110.812" y1="45.304" x2="112.312" y2="45.304"/>
      <polygon class="cls-1" points="57.217 166.852 53.477 173.329 49.737 166.852 57.217 166.852"/>
      <polygon class="cls-1" points="111.218 49.044 117.694 45.304 111.218 41.565 111.218 49.044"/>
    </g>
    <g>
      <line class="cls-11" x1="100.611" y1="286.005" x2="102.111" y2="286.005"/>
      <line class="cls-16" x1="105.093" y1="286.005" x2="544.853" y2="286.005"/>
      <line class="cls-11" x1="546.344" y1="286.005" x2="547.844" y2="286.005"/>
      <polygon class="cls-1" points="101.706 289.745 95.229 286.005 101.706 282.265 101.706 289.745"/>
      <polygon class="cls-1" points="546.749 289.745 553.226 286.005 546.749 282.265 546.749 289.745"/>
    </g>
  </g>
</svg>
